<?xml version="1.0"?>
<svg xmlns="http://www.w3.org/2000/svg" xmlns:xlink="http://www.w3.org/1999/xlink" xmlns:svgjs="http://svgjs.com/svgjs" version="1.1" width="512" height="512" x="0" y="0" viewBox="0 0 66 66" style="enable-background:new 0 0 512 512" xml:space="preserve" class=""><g><g xmlns="http://www.w3.org/2000/svg"><path d="m36.623 11.954c-1.424 1.741-2.443 3.777-2.95 5.888-1.086 4.524.256 9.575 3.34 12.57 4.29 4.166 11.464 4.605 17.403-.146 7.624-6.086 5.743-15.117 1.409-19.404-4.905-4.85-14.038-5.23-19.202 1.092zm13.417-2.562-.736-.736.124-.124c.391.087.776.193 1.154.317zm-3.475-1.11-.048-.048c.033-.001.067-.005.101-.005zm-1.785.104-.557.556-.389-.388c.307-.066.623-.121.946-.168zm-4.004 1.682c-.098-.098-.256-.098-.354 0l-.508.508-.209-.209c.499-.367 1.023-.684 1.573-.951l.643.643-1.262 1.262-.391-.391.508-.508c.098-.098.098-.256 0-.354zm-1.471.606.256.256-1.147 1.148-.3-.3c.384-.408.782-.773 1.191-1.104zm-1.909 1.913c.126-.155.257-.289.385-.434l.279.279-.065.065c-.098.098-.098.256 0 .354.097.097.255.098.354 0l.065-.065.22.22-1.436 1.435-.629-.629c-.014-.014-.034-.011-.05-.021.271-.415.562-.818.877-1.204zm-2.213 13.193.343.343-.134.134c-.071-.159-.146-.314-.209-.477zm-.67-2.465.267.267-.178.178c-.031-.148-.063-.296-.089-.445zm-.179-2.816.618.618-.617.616c-.021-.411-.018-.821-.001-1.234zm.268-2.176.521.521-.738.738c.049-.423.126-.842.217-1.259zm.178-.529c-.012-.012-.03-.009-.044-.018.023-.086.053-.171.078-.256.006-.005.014-.003.019-.008l.836-.835.811.811-1.003 1.003zm.358-1.295c.032-.083.073-.163.106-.246l.07.07zm.393-.667c-.024-.024-.058-.024-.088-.036.24-.541.512-1.069.822-1.581l.579.579-1.176 1.176zm18.261 13.653c-5.488 4.387-12.122 4.055-16.082.21-.855-.83-1.544-1.847-2.09-2.959l.26-.259.223.223c.099.099.257.096.354 0 .098-.098.098-.256 0-.354l-.223-.223 1.164-1.164c.098-.098.098-.256 0-.353-.099-.099-.257-.097-.354 0l-1.163 1.164-1.045-1.045c-.037-.126-.082-.248-.114-.375l.413-.413.575.575c.097.097.255.098.354 0 .098-.098.098-.256 0-.354l-.575-.575.775-.775c.098-.098.098-.256 0-.354s-.256-.098-.353 0l-.775.775-.739-.739c-.003-.033-.004-.066-.008-.1l.919-.919.921.921c.097.097.255.098.354 0 .098-.098.098-.256 0-.353l-.921-.921.544-.543c.098-.098.098-.256 0-.354-.097-.097-.255-.099-.354 0l-.544.543-.697-.697.868-.869.682.682c.097.097.255.098.353 0s.098-.256 0-.354l-.682-.682 1.023-1.023c.094.048.177.08.285-.028.098-.098.098-.256 0-.354l-1.116-1.117 1.176-1.176.697.697c.097.097.255.098.354 0 .098-.098.098-.256 0-.353l-.697-.698 1.436-1.435.756.756c.097.097.255.098.354 0 .098-.098.098-.256 0-.354l-1.329-1.329 1.147-1.148.391.391-.287.287c-.098.098-.098.256 0 .353.097.097.255.098.354 0l.287-.287.272.272c.097.097.255.098.353 0s.098-.256 0-.354l-.272-.272 1.262-1.262.351.352c.097.097.255.098.354 0 .098-.098.098-.256 0-.354l-1.217-1.217c.475-.201.972-.372 1.496-.509l.611.611-.374.373c-.098.098-.098.256 0 .354.099.099.257.096.354 0l.374-.373.563.563c.097.097.255.098.354 0 .098-.098.098-.256 0-.354l-.563-.563.759-.759c.065-.065.07-.151.049-.234.635-.067-.084.004.458-.035l.368.368-.575.575c-.098.098-.098.256 0 .354.097.097.255.098.354 0l.575-.575.703.703c.097.097.255.098.354 0 .098-.098.098-.256 0-.353l-.703-.703.315-.315c.02-.02.018-.048.03-.071.339.014.675.041 1.01.083l.324.325-.554.555c-.098.098-.098.256 0 .354.096.096.255.099.354 0l.554-.555.858.858c.017.017.042.015.063.026.004.004.002.01.006.014.097.097.255.098.354 0l.849-.849.563.564-.161.161c-.098.098-.098.256 0 .353.097.097.255.098.354 0l.161-.161.407.407c.099.099.257.096.354 0 .098-.098.098-.256 0-.354l-.414-.406.032-.032c1.01.524 1.938 1.188 2.74 1.982 3.962 3.919 5.782 12.233-1.33 17.912z" fill="#707070" data-original="#000000" style=""/><path d="m32.285 8.197c-7.469 9.154-5.355 20.883.56 26.625 6.223 6.048 16.585 6.564 25.091-.229 10.972-8.78 8.282-21.783 2.039-27.976-7.034-6.944-20.189-7.587-27.69 1.58zm25.025 25.615c-8.126 6.494-17.93 5.967-23.769.293-5.595-5.43-7.588-16.568-.482-25.275 6.936-8.474 19.409-8.218 26.211-1.501 5.838 5.79 8.552 18.077-1.96 26.483z" fill="#707070" data-original="#000000" style=""/><path d="m50.88 14.33c-1.141-.496-2.361-.762-3.592-.81v-2.404c0-.276-.224-.5-.5-.5s-.5.224-.5.5v2.415c-.698.042-1.393.148-2.071.337-1.239.344-2.05.892-2.48 1.675-.82 1.491.074 3.355 1.414 4.297.867.608 1.86.933 2.821 1.245.106.035.21.074.316.109v5.977c-.634-.04-1.295-.205-1.945-.505-1.3-.598-2.399-1.603-3.329-2.498-.197-.19-.514-.187-.707.014-.191.198-.186.515.014.707.988.952 2.163 2.023 3.604 2.685.784.361 1.587.553 2.363.593v1.718c0 .276.224.5.5.5s.5-.224.5-.5v-1.771c.442-.061.871-.159 1.265-.336 1.607-.723 2.587-2.515 2.229-4.079-.303-1.324-1.462-2.438-3.264-3.135-.075-.029-.154-.052-.23-.08v-5.964c1.094.048 2.18.288 3.193.729.251.106.548-.006.658-.26.111-.254-.006-.549-.259-.659zm-1.072 9.591c.255 1.116-.477 2.41-1.665 2.944-.268.121-.555.206-.854.259v-5.574c.87.355 2.228 1.097 2.519 2.371zm-3.526-3.787c-.932-.304-1.812-.591-2.557-1.113-.957-.673-1.654-2.01-1.111-2.996.289-.527.919-.93 1.871-1.194.592-.164 1.197-.259 1.804-.299v5.605c-.003-.001-.005-.002-.007-.003z" fill="#707070" data-original="#000000" style=""/><path d="m59.334 50.59-10.671 4.468c.159-1.342-.696-2.652-1.75-3.339-2.344-1.528-5.328-.746-7.538-1.877-1.602-.819-2.586-2.522-3.892-3.96-2.694-2.968-6.852-4.591-10.84-4.253-2.808.241-5.417 1.375-7.939 2.473-1.495.649-3.036 1.308-4.595 1.779-.472-2.1-1.608-3.805-3.156-4.693-2.634-1.513-6.808-.497-7.609 2.716-.763 3.068-.361 6.991-.606 10.095-.174 2.165-.371 4.619.513 6.85 1.83 4.612 7.331 5.322 9.512.427.237-.533.396-1.083.528-1.637 1.046-.112 2.225-.103 3.696.038 13.358 1.273 30.613 10.523 47.504-3.806 3.985-3.383 1.96-7.423-3.157-5.281zm-46.007-2.335c-.034.012-.072.014-.1.041l-.596.596-.252-.252c0-.207-.004-.415-.012-.622l.362-.361zm-1.048 4.236c.097.097.255.098.354 0l.336-.336 1.019 1.019-1.539 1.539-.416-.416c-.019-.019-.046-.017-.069-.029.384-4.053.163-1.724.267-2.851l.385.385-.336.336c-.099.097-.099.255-.001.353zm-.487 3.584.657-.657.994.994-1.901 1.902c.116-.819.176-1.456.25-2.239zm.074-.781.04-.419.19.189zm.67-4.28c-.074-.074-.176-.074-.267-.036.031-.363.053-.727.074-1.092l.288-.288 1.094 1.093-.755.755zm-.21-3.664c-.003-.037-.01-.073-.014-.11l.062.062zm-10.147 13.129c-.798-2.013-.611-4.344-.446-6.4.249-3.122-.145-7.023.581-9.933.624-2.509 4.031-3.301 6.141-2.091 1.362.781 2.359 2.342 2.735 4.281.514 2.648-.318 12.227-1.343 14.532-1.83 4.116-6.203 3.309-7.668-.389zm12.2-1.851 1.412-1.412 1.044 1.044-.568.568c-.396-.048-.79-.11-1.186-.148-.246-.023-.47-.036-.702-.052zm4.507.574c-.343-.057-.685-.124-1.029-.176.023-.012.051-.01.07-.029.098-.098.098-.256 0-.354l-.384-.384.69-.691 1.143 1.143zm.843-.136.34.34c-.193-.035-.387-.066-.58-.1zm-2.164-.076c-.223-.032-.447-.054-.67-.084l.293-.293zm7.296-.065c.01.045.018.092.053.128l.729.729-.639.639c-.335-.074-.669-.148-1.006-.222l-.205-.205zm-1.785 1.077c-.424-.09-.851-.175-1.277-.261l.516-.517.769.769zm2.506.547.414-.414.649.649c-.42-.094-.973-.215-1.063-.235zm2.516-.171.847.847-.053.053c-.465-.101-.929-.201-1.391-.303zm2.529-.128.328.328-.619.619c-.098.098-.098.256 0 .354.039.039.091.051.142.059-.197-.04-.395-.078-.592-.119-.01-.018-.008-.041-.023-.056l-.21-.21zm.745 1.54c-.283-.055-.565-.112-.847-.17.06-.003.119-.023.165-.068l.619-.619.458.458-.392.392c-.002.001-.001.004-.003.007zm2.581.457c-.093-.015-.187-.027-.28-.042l.119-.119zm27.891-7.138c-6.986 5.926-16.209 8.824-27.014 7.269l.686-.686c.098-.098.098-.256 0-.354s-.256-.098-.354 0l-.703.703c-.001.001 0 .003-.001.004l-.317-.317c.087-.098.088-.246-.006-.34-.094-.095-.242-.092-.34-.006l-.407-.407c-.099-.098-.257-.098-.354 0-.098.098-.098.256 0 .354l.403.403-.244.244c-.037.037-.047.087-.056.136-.392-.068-.785-.137-1.176-.21l.251-.25c.042-.011.087-.017.12-.05s.039-.078.05-.12l.729-.729c.098-.098.098-.256 0-.354s-.256-.098-.354 0l-.637.637-.458-.458.429-.429c.098-.098.098-.256 0-.354-.098-.099-.256-.097-.354 0l-.429.429-.328-.328.056-.056c.098-.098.098-.256 0-.354s-.256-.098-.353 0l-.084.084c-.089-.033-.187-.032-.259.039-.072.072-.072.17-.039.259l-1.002 1.002-.847-.847.039-.039c.098-.098.098-.256 0-.354s-.256-.098-.354 0l-.192.192c-.01.007-.024.005-.033.014s-.006.023-.014.033l-.73.731-.819-.819.106-.106c.098-.098.098-.256 0-.353-.098-.098-.256-.098-.354 0l-.106.106-.729-.729c-.085-.085-.211-.082-.307-.019-.007-.053-.02-.106-.061-.147-.098-.098-.256-.098-.354 0l-1.107 1.107-.769-.769.458-.459c.098-.098.098-.256 0-.354-.098-.099-.256-.097-.354 0l-.458.459-.615-.615c-.098-.098-.256-.098-.354 0s-.098.256 0 .354l.615.615-.75.75c-.177-.035-.352-.074-.53-.108.026-.085.022-.177-.045-.244l-.555-.555 1.057-1.057c.098-.098.098-.256 0-.354s-.256-.098-.354 0l-1.057 1.057-1.143-1.143.142-.142c.098-.098.098-.256 0-.354s-.256-.098-.354 0l-.142.142-.061-.061c-.097-.097-.255-.099-.354 0-.098.098-.098.256 0 .354l.061.061-.691.69-1.044-1.044.633-.633c.098-.098.098-.256 0-.354s-.256-.098-.354 0l-.66.66c-.09-.035-.189-.034-.262.038-.072.072-.073.172-.038.262l-1.539 1.539c-.06.06-.07.138-.057.215-.684-.036-1.304-.037-1.887-.009l1.815-1.815.496.496c.097.097.255.098.354 0 .098-.098.098-.256 0-.354l-.496-.496 2.03-2.03c.098-.098.098-.256 0-.354s-.256-.098-.354 0l-2.03 2.03-.994-.994 1.539-1.539.556.556c.097.097.255.098.354 0 .098-.098.098-.256 0-.354l-.556-.556.551-.551c.098-.098.098-.256 0-.354s-.256-.098-.353 0l-.551.551-1.019-1.018.859-.859c.036-.012.075-.014.103-.043.029-.028.031-.068.043-.103l.273-.273c.098-.098.098-.256 0-.354s-.256-.098-.353 0l-.17.17-1.094-1.093.596-.596c.028-.028.029-.065.041-.099l.218.218c.097.097.255.098.354 0 .098-.098.098-.256 0-.354l-1.14-1.14c.034-.089.033-.188-.039-.26s-.171-.073-.26-.039l-.189-.189c1.554-.482 3.068-1.129 4.537-1.767 2.563-1.114 4.982-2.166 7.627-2.393 3.682-.318 7.524 1.188 10.014 3.929 1.282 1.412 2.35 3.245 4.177 4.179 2.426 1.24 5.378.477 7.448 1.824.856.558 1.575 1.708 1.223 2.74-1.069 3.117-11.482 2.386-18.102-1.408-.241-.137-.547-.057-.683.185-.138.24-.055.546.185.683 3.916 2.244 8.447 3.435 12.965 3.435 2.115 0 4.943-.122 6.181-1.829l11.583-4.85c4.011-1.68 5.251.939 2.129 3.596z" fill="#707070" data-original="#000000" style=""/><path d="m4.707 59.131c.17-.166.327-.345.448-.551.07-.118.031-.271-.088-.342-.118-.072-.273-.032-.342.088-.055.093-.123.176-.191.259-.108-.373-.197-.753-.261-1.125-.06-.352-.094-.706-.141-1.059.142-.157.295-.305.415-.479.078-.114.05-.269-.063-.349-.114-.076-.27-.049-.349.063-.026.038-.063.068-.091.105-.069-.621-.114-1.244-.144-1.868l.798-.598c.111-.083.134-.239.051-.35-.082-.112-.239-.131-.35-.051l-.536.401c-.013-.475-.001-.951.008-1.426l.578-.471c.106-.087.123-.244.035-.351-.086-.108-.244-.122-.352-.035l-.256.208c.02-.485.065-.969.108-1.453l.291-.041c.137-.02.232-.146.214-.282s-.135-.222-.282-.214l-.182.03c.01-.099.012-.198.024-.297.017-.138-.082-.262-.219-.277-.132-.017-.262.082-.277.219-.017.142-.02.285-.034.428l-.005.001c-.137.02-.231.146-.211.283.014.097.089.16.178.188-.053.609-.091 1.218-.107 1.828l-.03.025c-.107.087-.124.244-.037.352.016.02.043.017.064.03-.007.54-.007 1.079.014 1.618l-.371.278c-.11.083-.133.239-.05.351.049.065.124.1.2.1.053 0 .105-.017.15-.05l.107-.08c.04.673.102 1.344.186 2.013-.252.248-.525.474-.827.652-.119.07-.158.224-.089.343.047.079.131.123.216.123.043 0 .087-.011.127-.034.233-.138.444-.312.652-.488.034.234.054.469.094.702.081.473.185.966.342 1.438-.221.162-.47.286-.737.357-.133.035-.213.172-.177.306.029.111.131.185.241.185.021 0 .043-.003.064-.009.283-.075.546-.207.79-.367.24.553.573 1.055 1.064 1.427.046.034.099.051.151.051.075 0 .15-.034.199-.099.083-.11.062-.268-.048-.351-.446-.34-.748-.82-.962-1.355z" fill="#707070" data-original="#000000" style=""/></g></g></svg>
