<?xml version="1.0" encoding="utf-8"?>
<!-- Generator: Adobe Illustrator 25.0.0, SVG Export Plug-In . SVG Version: 6.00 Build 0)  -->
<svg version="1.1" id="Layer_1" xmlns:svgjs="http://svgjs.com/svgjs"
	 xmlns="http://www.w3.org/2000/svg" xmlns:xlink="http://www.w3.org/1999/xlink" x="0px" y="0px" viewBox="0 0 512 512"
	 style="enable-background:new 0 0 512 512;" xml:space="preserve">
<style type="text/css">
	.st0{fill:#FFFFFF;}
</style>
<g>
	<g>
		<path class="st0" d="M284.1,92.7c-11,13.5-19,29.3-22.9,45.7c-8.4,35.1,2,74.3,25.9,97.5c33.3,32.3,88.9,35.7,135-1.1
			c59.1-47.2,44.6-117.3,10.9-150.5C395,46.6,324.2,43.7,284.1,92.7z M388.2,72.9l-5.7-5.7l1-1c3,0.7,6,1.5,9,2.5L388.2,72.9z
			 M361.2,64.2l-0.4-0.4c0.3,0,0.5,0,0.8,0L361.2,64.2z M347.4,65.1l-4.3,4.3l-3-3C342.4,65.8,344.9,65.4,347.4,65.1z M316.3,78.1
			c-0.8-0.8-2-0.8-2.7,0l-3.9,3.9l-1.6-1.6c3.9-2.8,7.9-5.3,12.2-7.4l5,5l-9.8,9.8l-3-3l3.9-3.9C317.1,80.1,317.1,78.9,316.3,78.1z
			 M304.9,82.8l2,2l-8.9,8.9l-2.3-2.3C298.7,88.2,301.7,85.4,304.9,82.8z M290.1,97.6c1-1.2,2-2.2,3-3.4l2.2,2.2l-0.5,0.5
			c-0.8,0.8-0.8,2,0,2.7c0.8,0.8,2,0.8,2.7,0l0.5-0.5l1.7,1.7L288.6,112l-4.9-4.9c-0.1-0.1-0.3-0.1-0.4-0.2
			C285.4,103.8,287.7,100.6,290.1,97.6L290.1,97.6z M272.9,200l2.7,2.7l-1,1C274,202.5,273.4,201.3,272.9,200L272.9,200z
			 M267.7,180.9l2.1,2.1l-1.4,1.4C268.2,183.2,267.9,182,267.7,180.9L267.7,180.9z M266.3,159l4.8,4.8l-4.8,4.8
			C266.2,165.4,266.2,162.2,266.3,159z M268.4,142.1l4,4l-5.7,5.7C267.1,148.6,267.7,145.4,268.4,142.1z M269.8,138
			c-0.1-0.1-0.2-0.1-0.3-0.1c0.2-0.7,0.4-1.3,0.6-2c0,0,0.1,0,0.1-0.1l6.5-6.5l6.3,6.3l-7.8,7.8L269.8,138z M272.6,128
			c0.2-0.6,0.6-1.3,0.8-1.9l0.5,0.5L272.6,128z M275.6,122.8c-0.2-0.2-0.4-0.2-0.7-0.3c1.9-4.2,4-8.3,6.4-12.3l4.5,4.5l-9.1,9.1
			L275.6,122.8z M417.3,228.7c-42.6,34-94,31.5-124.8,1.6c-6.6-6.4-12-14.3-16.2-23l2-2l1.7,1.7c0.8,0.8,2,0.7,2.7,0
			c0.8-0.8,0.8-2,0-2.7l-1.7-1.7l9-9c0.8-0.8,0.8-2,0-2.7c-0.8-0.8-2-0.8-2.7,0l-9,9l-8.1-8.1c-0.3-1-0.6-1.9-0.9-2.9l3.2-3.2
			l4.5,4.5c0.8,0.8,2,0.8,2.7,0c0.8-0.8,0.8-2,0-2.7l-4.5-4.5l6-6c0.8-0.8,0.8-2,0-2.7c-0.8-0.8-2-0.8-2.7,0l-6,6l-5.7-5.7
			c0-0.3,0-0.5-0.1-0.8l7.1-7.1l7.1,7.1c0.8,0.8,2,0.8,2.7,0c0.8-0.8,0.8-2,0-2.7l-7.1-7.1l4.2-4.2c0.8-0.8,0.8-2,0-2.7
			c-0.8-0.8-2-0.8-2.7,0l-4.2,4.2l-5.4-5.4l6.7-6.7l5.3,5.3c0.8,0.8,2,0.8,2.7,0c0.8-0.8,0.8-2,0-2.7l-5.3-5.3l7.9-7.9
			c0.7,0.4,1.4,0.6,2.2-0.2c0.8-0.8,0.8-2,0-2.7l-8.7-8.7l9.1-9.1l5.4,5.4c0.8,0.8,2,0.8,2.7,0c0.8-0.8,0.8-2,0-2.7l-5.4-5.4
			l11.1-11.1l5.9,5.9c0.8,0.8,2,0.8,2.7,0c0.8-0.8,0.8-2,0-2.7l-10.3-10.3l8.9-8.9l3,3l-2.2,2.2c-0.8,0.8-0.8,2,0,2.7
			c0.8,0.8,2,0.8,2.7,0l2.2-2.2l2.1,2.1c0.8,0.8,2,0.8,2.7,0c0.8-0.8,0.8-2,0-2.7l-2.1-2.1l9.8-9.8l2.7,2.7c0.8,0.8,2,0.8,2.7,0
			c0.8-0.8,0.8-2,0-2.7l-9.4-9.4c3.7-1.6,7.5-2.9,11.6-3.9l4.7,4.7l-2.9,2.9c-0.8,0.8-0.8,2,0,2.7c0.8,0.8,2,0.7,2.7,0l2.9-2.9
			l4.4,4.4c0.8,0.8,2,0.8,2.7,0c0.8-0.8,0.8-2,0-2.7l-4.4-4.4l5.9-5.9c0.5-0.5,0.5-1.2,0.4-1.8c4.9-0.5-0.7,0,3.6-0.3l2.9,2.9
			l-4.5,4.5c-0.8,0.8-0.8,2,0,2.7c0.8,0.8,2,0.8,2.7,0l4.5-4.5l5.5,5.5c0.8,0.8,2,0.8,2.7,0c0.8-0.8,0.8-2,0-2.7L364,67l2.4-2.4
			c0.2-0.2,0.1-0.4,0.2-0.6c2.6,0.1,5.2,0.3,7.8,0.6l2.5,2.5l-4.3,4.3c-0.8,0.8-0.8,2,0,2.7c0.7,0.7,2,0.8,2.7,0l4.3-4.3l6.7,6.7
			c0.1,0.1,0.3,0.1,0.5,0.2c0,0,0,0.1,0,0.1c0.8,0.8,2,0.8,2.7,0l6.6-6.6l4.4,4.4l-1.2,1.2c-0.8,0.8-0.8,2,0,2.7
			c0.8,0.8,2,0.8,2.7,0l1.2-1.2l3.2,3.2c0.8,0.8,2,0.7,2.7,0c0.8-0.8,0.8-2,0-2.7l-3.2-3.1l0.2-0.2c7.8,4.1,15,9.2,21.3,15.4
			C458.3,120.2,472.5,184.7,417.3,228.7L417.3,228.7z"/>
		<path class="st0" d="M250.5,63.6c-57.9,71-41.5,162,4.3,206.5c48.3,46.9,128.7,50.9,194.6-1.8c85.1-68.1,64.2-169,15.8-217
			C410.7-2.5,308.6-7.5,250.5,63.6L250.5,63.6z M444.6,262.3c-63,50.4-139.1,46.3-184.4,2.3c-43.4-42.1-58.9-128.5-3.7-196.1
			C310.3,2.8,407,4.7,459.8,56.9C505.1,101.8,526.1,197.1,444.6,262.3L444.6,262.3z"/>
		<path class="st0" d="M394.7,111.2c-8.9-3.8-18.3-5.9-27.9-6.3V86.2c0-2.1-1.7-3.9-3.9-3.9c-2.1,0-3.9,1.7-3.9,3.9V105
			c-5.4,0.3-10.8,1.1-16.1,2.6c-9.6,2.7-15.9,6.9-19.2,13c-6.4,11.6,0.6,26,11,33.3c6.7,4.7,14.4,7.2,21.9,9.7
			c0.8,0.3,1.6,0.6,2.5,0.8v46.4c-4.9-0.3-10-1.6-15.1-3.9c-10.1-4.6-18.6-12.4-25.8-19.4c-1.5-1.5-4-1.5-5.5,0.1
			c-1.5,1.5-1.4,4,0.1,5.5c7.7,7.4,16.8,15.7,28,20.8c6.1,2.8,12.3,4.3,18.3,4.6v13.3c0,2.1,1.7,3.9,3.9,3.9c2.1,0,3.9-1.7,3.9-3.9
			v-13.7c3.4-0.5,6.8-1.2,9.8-2.6c12.5-5.6,20.1-19.5,17.3-31.6c-2.4-10.3-11.3-18.9-25.3-24.3c-0.6-0.2-1.2-0.4-1.8-0.6v-46.3
			c8.5,0.4,16.9,2.2,24.8,5.7c1.9,0.8,4.3,0,5.1-2C397.6,114.3,396.7,112,394.7,111.2L394.7,111.2z M386.4,185.6
			c2,8.7-3.7,18.7-12.9,22.8c-2.1,0.9-4.3,1.6-6.6,2v-43.2C373.6,169.9,384.1,175.7,386.4,185.6L386.4,185.6z M359,156.2
			c-7.2-2.4-14.1-4.6-19.8-8.6c-7.4-5.2-12.8-15.6-8.6-23.2c2.2-4.1,7.1-7.2,14.5-9.3c4.6-1.3,9.3-2,14-2.3L359,156.2
			C359.1,156.2,359.1,156.2,359,156.2L359,156.2z"/>
		<path class="st0" d="M460.3,392.5l-82.8,34.7c1.2-10.4-5.4-20.6-13.6-25.9c-18.2-11.9-41.3-5.8-58.5-14.6
			c-12.4-6.4-20.1-19.6-30.2-30.7c-20.9-23-53.2-35.6-84.1-33c-21.8,1.9-42,10.7-61.6,19.2c-11.6,5-23.6,10.1-35.6,13.8
			c-3.7-16.3-12.5-29.5-24.5-36.4c-20.4-11.7-52.8-3.9-59,21.1c-5.9,23.8-2.8,54.2-4.7,78.3c-1.3,16.8-2.9,35.8,4,53.1
			c14.2,35.8,56.9,41.3,73.8,3.3c1.8-4.1,3.1-8.4,4.1-12.7c8.1-0.9,17.3-0.8,28.7,0.3c103.6,9.9,237.5,81.6,368.5-29.5
			C515.7,407.2,500,375.8,460.3,392.5L460.3,392.5z M103.4,374.3c-0.3,0.1-0.6,0.1-0.8,0.3l-4.6,4.6l-2-2c0-1.6,0-3.2-0.1-4.8
			l2.8-2.8L103.4,374.3z M95.3,407.2c0.8,0.8,2,0.8,2.7,0l2.6-2.6l7.9,7.9l-11.9,11.9l-3.2-3.2c-0.1-0.1-0.4-0.1-0.5-0.2
			c3-31.4,1.3-13.4,2.1-22.1l3,3l-2.6,2.6C94.5,405.2,94.5,406.4,95.3,407.2z M91.5,435l5.1-5.1l7.7,7.7l-14.7,14.8
			C90.4,446,90.9,441.1,91.5,435z M92.1,428.9l0.3-3.3l1.5,1.5L92.1,428.9z M97.2,395.7c-0.6-0.6-1.4-0.6-2.1-0.3
			c0.2-2.8,0.4-5.6,0.6-8.5l2.2-2.2l8.5,8.5l-5.9,5.9L97.2,395.7z M95.6,367.3c0-0.3-0.1-0.6-0.1-0.9l0.5,0.5L95.6,367.3z
			 M16.9,469.2c-6.2-15.6-4.7-33.7-3.5-49.6c1.9-24.2-1.1-54.5,4.5-77.1c4.8-19.5,31.3-25.6,47.6-16.2c10.6,6.1,18.3,18.2,21.2,33.2
			c4,20.5-2.5,94.9-10.4,112.7C62.2,504.1,28.3,497.9,16.9,469.2z M111.5,454.8l11-11l8.1,8.1l-4.4,4.4c-3.1-0.4-6.1-0.9-9.2-1.1
			C115.1,455,113.3,454.9,111.5,454.8L111.5,454.8z M146.5,459.3c-2.7-0.4-5.3-1-8-1.4c0.2-0.1,0.4-0.1,0.5-0.2c0.8-0.8,0.8-2,0-2.7
			l-3-3l5.4-5.4l8.9,8.9L146.5,459.3z M153,458.2l2.6,2.6c-1.5-0.3-3-0.5-4.5-0.8L153,458.2z M136.3,457.6c-1.7-0.2-3.5-0.4-5.2-0.7
			l2.3-2.3L136.3,457.6z M192.9,457.1c0.1,0.3,0.1,0.7,0.4,1l5.7,5.7l-5,5c-2.6-0.6-5.2-1.1-7.8-1.7l-1.6-1.6L192.9,457.1z
			 M179,465.5c-3.3-0.7-6.6-1.4-9.9-2l4-4L179,465.5L179,465.5z M198.5,469.7l3.2-3.2l5,5C203.4,470.8,199.2,469.9,198.5,469.7
			L198.5,469.7z M218,468.4l6.6,6.6l-0.4,0.4c-3.6-0.8-7.2-1.6-10.8-2.4L218,468.4z M237.6,467.4l2.5,2.5l-4.8,4.8
			c-0.8,0.8-0.8,2,0,2.7c0.3,0.3,0.7,0.4,1.1,0.5c-1.5-0.3-3.1-0.6-4.6-0.9c-0.1-0.1-0.1-0.3-0.2-0.4L230,475L237.6,467.4z
			 M243.4,479.3c-2.2-0.4-4.4-0.9-6.6-1.3c0.5,0,0.9-0.2,1.3-0.5l4.8-4.8l3.6,3.6L243.4,479.3C243.4,479.3,243.4,479.3,243.4,479.3z
			 M263.4,482.9c-0.7-0.1-1.5-0.2-2.2-0.3l0.9-0.9L263.4,482.9z M479.8,427.5c-54.2,46-125.7,68.5-209.6,56.4l5.3-5.3
			c0.8-0.8,0.8-2,0-2.7c-0.8-0.8-2-0.8-2.7,0l-5.5,5.5c0,0,0,0,0,0l-2.5-2.5c0.7-0.8,0.7-1.9,0-2.6c-0.7-0.7-1.9-0.7-2.6,0L259,473
			c-0.8-0.8-2-0.8-2.7,0c-0.8,0.8-0.8,2,0,2.7l3.1,3.1l-1.9,1.9c-0.3,0.3-0.4,0.7-0.4,1.1c-3-0.5-6.1-1.1-9.1-1.6l1.9-1.9
			c0.3-0.1,0.7-0.1,0.9-0.4c0.3-0.3,0.3-0.6,0.4-0.9l5.7-5.7c0.8-0.8,0.8-2,0-2.7c-0.8-0.8-2-0.8-2.7,0l-4.9,4.9l-3.6-3.6l3.3-3.3
			c0.8-0.8,0.8-2,0-2.7c-0.8-0.8-2-0.8-2.7,0l-3.3,3.3l-2.5-2.5l0.4-0.4c0.8-0.8,0.8-2,0-2.7c-0.8-0.8-2-0.8-2.7,0l-0.7,0.7
			c-0.7-0.3-1.5-0.2-2,0.3c-0.6,0.6-0.6,1.3-0.3,2l-7.8,7.8l-6.6-6.6l0.3-0.3c0.8-0.8,0.8-2,0-2.7c-0.8-0.8-2-0.8-2.7,0l-1.5,1.5
			c-0.1,0.1-0.2,0-0.3,0.1c-0.1,0.1,0,0.2-0.1,0.3l-5.7,5.7l-6.4-6.4l0.8-0.8c0.8-0.8,0.8-2,0-2.7c-0.8-0.8-2-0.8-2.7,0l-0.8,0.8
			l-5.7-5.7c-0.7-0.7-1.6-0.6-2.4-0.1c-0.1-0.4-0.2-0.8-0.5-1.1c-0.8-0.8-2-0.8-2.7,0l-8.6,8.6l-6-6l3.6-3.6c0.8-0.8,0.8-2,0-2.7
			c-0.8-0.8-2-0.8-2.7,0l-3.6,3.6l-4.8-4.8c-0.8-0.8-2-0.8-2.7,0c-0.8,0.8-0.8,2,0,2.7l4.8,4.8l-5.8,5.8c-1.4-0.3-2.7-0.6-4.1-0.8
			c0.2-0.7,0.2-1.4-0.3-1.9l-4.3-4.3l8.2-8.2c0.8-0.8,0.8-2,0-2.7c-0.8-0.8-2-0.8-2.7,0l-8.2,8.2l-8.9-8.9l1.1-1.1
			c0.8-0.8,0.8-2,0-2.7c-0.8-0.8-2-0.8-2.7,0l-1.1,1.1l-0.5-0.5c-0.8-0.8-2-0.8-2.7,0c-0.8,0.8-0.8,2,0,2.7l0.5,0.5l-5.4,5.4
			l-8.1-8.1l4.9-4.9c0.8-0.8,0.8-2,0-2.7c-0.8-0.8-2-0.8-2.7,0l-5.1,5.1c-0.7-0.3-1.5-0.3-2,0.3c-0.6,0.6-0.6,1.3-0.3,2L108,452.8
			c-0.5,0.5-0.5,1.1-0.4,1.7c-5.3-0.3-10.1-0.3-14.6-0.1l14.1-14.1l3.8,3.8c0.8,0.8,2,0.8,2.7,0c0.8-0.8,0.8-2,0-2.7l-3.8-3.8
			l15.7-15.7c0.8-0.8,0.8-2,0-2.7c-0.8-0.8-2-0.8-2.7,0L107,434.9l-7.7-7.7l11.9-11.9l4.3,4.3c0.8,0.8,2,0.8,2.7,0
			c0.8-0.8,0.8-2,0-2.7l-4.3-4.3l4.3-4.3c0.8-0.8,0.8-2,0-2.7c-0.8-0.8-2-0.8-2.7,0l-4.3,4.3l-7.9-7.9l6.7-6.7
			c0.3-0.1,0.6-0.1,0.8-0.3c0.2-0.2,0.2-0.5,0.3-0.8l2.1-2.1c0.8-0.8,0.8-2,0-2.7c-0.8-0.8-2-0.8-2.7,0l-1.3,1.3l-8.5-8.5l4.6-4.6
			c0.2-0.2,0.2-0.5,0.3-0.8l1.7,1.7c0.8,0.8,2,0.8,2.7,0c0.8-0.8,0.8-2,0-2.7l-8.8-8.8c0.3-0.7,0.3-1.5-0.3-2
			c-0.6-0.6-1.3-0.6-2-0.3l-1.5-1.5c12.1-3.7,23.8-8.8,35.2-13.7c19.9-8.6,38.6-16.8,59.2-18.6c28.6-2.5,58.4,9.2,77.7,30.5
			c9.9,11,18.2,25.2,32.4,32.4c18.8,9.6,41.7,3.7,57.8,14.1c6.6,4.3,12.2,13.2,9.5,21.3c-8.3,24.2-89.1,18.5-140.4-10.9
			c-1.9-1.1-4.2-0.4-5.3,1.4c-1.1,1.9-0.4,4.2,1.4,5.3c30.4,17.4,65.5,26.6,100.6,26.6c16.4,0,38.3-0.9,47.9-14.2l89.9-37.6
			C494.4,386.6,504,406.9,479.8,427.5L479.8,427.5z"/>
		<path class="st0" d="M36.5,458.7c1.3-1.3,2.5-2.7,3.5-4.3c0.5-0.9,0.2-2.1-0.7-2.7c-0.9-0.6-2.1-0.2-2.7,0.7c-0.4,0.7-1,1.4-1.5,2
			c-0.8-2.9-1.5-5.8-2-8.7c-0.5-2.7-0.7-5.5-1.1-8.2c1.1-1.2,2.3-2.4,3.2-3.7c0.6-0.9,0.4-2.1-0.5-2.7c-0.9-0.6-2.1-0.4-2.7,0.5
			c-0.2,0.3-0.5,0.5-0.7,0.8c-0.5-4.8-0.9-9.7-1.1-14.5l6.2-4.6c0.9-0.6,1-1.9,0.4-2.7c-0.6-0.9-1.9-1-2.7-0.4l-4.2,3.1
			c-0.1-3.7,0-7.4,0.1-11.1l4.5-3.7c0.8-0.7,1-1.9,0.3-2.7c-0.7-0.8-1.9-0.9-2.7-0.3l-2,1.6c0.2-3.8,0.5-7.5,0.8-11.3l2.3-0.3
			c1.1-0.2,1.8-1.1,1.7-2.2s-1-1.7-2.2-1.7l-1.4,0.2c0.1-0.8,0.1-1.5,0.2-2.3c0.1-1.1-0.6-2-1.7-2.1c-1-0.1-2,0.6-2.1,1.7
			c-0.1,1.1-0.2,2.2-0.3,3.3l0,0c-1.1,0.2-1.8,1.1-1.6,2.2c0.1,0.8,0.7,1.2,1.4,1.5c-0.4,4.7-0.7,9.4-0.8,14.2l-0.2,0.2
			c-0.8,0.7-1,1.9-0.3,2.7c0.1,0.2,0.3,0.1,0.5,0.2c-0.1,4.2-0.1,8.4,0.1,12.6l-2.9,2.2c-0.9,0.6-1,1.9-0.4,2.7
			c0.4,0.5,1,0.8,1.6,0.8c0.4,0,0.8-0.1,1.2-0.4l0.8-0.6c0.3,5.2,0.8,10.4,1.4,15.6c-2,1.9-4.1,3.7-6.4,5.1
			c-0.9,0.5-1.2,1.7-0.7,2.7c0.4,0.6,1,1,1.7,1c0.3,0,0.7-0.1,1-0.3c1.8-1.1,3.4-2.4,5.1-3.8c0.3,1.8,0.4,3.6,0.7,5.4
			c0.6,3.7,1.4,7.5,2.7,11.2c-1.7,1.3-3.6,2.2-5.7,2.8c-1,0.3-1.7,1.3-1.4,2.4c0.2,0.9,1,1.4,1.9,1.4c0.2,0,0.3,0,0.5-0.1
			c2.2-0.6,4.2-1.6,6.1-2.8c1.9,4.3,4.4,8.2,8.3,11.1c0.4,0.3,0.8,0.4,1.2,0.4c0.6,0,1.2-0.3,1.5-0.8c0.6-0.9,0.5-2.1-0.4-2.7
			C40.5,466.6,38.2,462.9,36.5,458.7z"/>
	</g>
</g>
</svg>
