<?xml version="1.0" encoding="utf-8"?>
<!-- Generator: Adobe Illustrator 25.0.0, SVG Export Plug-In . SVG Version: 6.00 Build 0)  -->
<svg version="1.1" id="Layer_1" xmlns:svgjs="http://svgjs.com/svgjs"
	 xmlns="http://www.w3.org/2000/svg" xmlns:xlink="http://www.w3.org/1999/xlink" x="0px" y="0px" viewBox="0 0 512 512"
	 style="enable-background:new 0 0 512 512;" xml:space="preserve">
<g>
	<path d="M110.3,504.2l221.8-2.1c21.1-0.2,44.8-1.7,59.5-17.6c13-14.3,13.9-34.2,13.8-55.2c-0.4-45.1-0.8-90.2-1.1-135.2
		c31-32.9,62.3-67.3,93-102.2c16.3-18.8,10.8-56.6-23.7-52.7c-29.3,3.3-45.9,27.4-70.2,51.7c-0.2-20.3-0.4-40.6-0.5-61
		c0-1-0.4-2-1.2-2.7C400.4,126,286.1,17.6,284.4,17.3C221.8,8,158,5.5,94.9,9.9C24.6,14.8,7.7,40.7,7.5,105.3
		C7,209,6.4,312.8,6,416.5C5.7,475.4,22.1,505.2,110.3,504.2z M474.4,146.9c27.7-3.1,28.1,27,17,39.9c-8,9.1-16,18.1-24.1,27.2
		c-0.8-0.1-1.7-0.1-2.5,0.3l-37.3-37.3C440.9,162.8,455,149.1,474.4,146.9L474.4,146.9z M422.2,182.6l38.5,38.5
		c-70.1,77.9-137.1,147-217.5,223.8c-0.2-0.3-0.3-0.5-0.5-0.8L202,403.2C432.2,173,415,190.3,422.2,182.6L422.2,182.6z M186.2,439.5
		C186.2,439.5,186.2,439.5,186.2,439.5c4.6-11.6,9.2-22.8,11.9-29.4l38.1,38.3c-11.8,2.9-39.4,9.7-58.6,12.9
		C180.1,454.8,183.1,447.1,186.2,439.5L186.2,439.5z M392.4,129.1c-26.4,7.3-53.6,10.6-81,9.7c-26.7-0.9-32.2-10.3-31-36.4
		c1.1-24.8,4.6-43.7,6.7-72.8C324,65.4,356.8,94.6,392.4,129.1z M390.5,137.6l-3.9,3.9l-2.3-2.3
		C386.3,138.7,388.4,138.2,390.5,137.6z M374.1,141.4l-3.9,3.9l-2.7-2.7C369.7,142.2,371.9,141.8,374.1,141.4L374.1,141.4z
		 M356.6,144.3l-3.4,3.4l-2.7-2.7C352.6,144.7,354.6,144.5,356.6,144.3z M337.9,146.1l-3.7,3.7l-3.5-3.5
		C333.1,146.3,335.5,146.3,337.9,146.1z M320.3,146.7l-4.1,4.1l-4.2-4.2C314.8,146.7,317.6,146.7,320.3,146.7L320.3,146.7z
		 M304.4,146.1l-4.1,4.1l-6-6C297.6,145.2,301,145.8,304.4,146.1L304.4,146.1z M13.7,416.5c0.4-103.7,1-207.5,1.5-311.2
		c0.2-59.7,13.3-83,80.2-87.7c61.3-4.3,123.3-1.9,184.3,6.9c-1.6,28.1-5.8,50.7-7,77.6c-0.7,14.7-0.2,29.1,12,37.7
		c0.1,0.2,0.1,0.4,0.3,0.6l12.6,12.6l-3.2,3.2c-0.8,0.8-0.8,2,0,2.7c0.8,0.8,2,0.8,2.7,0l3.2-3.2l6.3,6.3c0.8,0.8,2,0.8,2.7,0
		c0.8-0.8,0.8-2,0-2.7l-6.3-6.3l4.9-4.9l5.5,5.5l-0.6,0.6c-0.8,0.8-0.8,2,0,2.7c0.8,0.8,2,0.8,2.7,0l0.6-0.6l3.5,3.5
		c0.8,0.8,2,0.8,2.7,0c0.8-0.8,0.8-2,0-2.7l-3.5-3.5l6.7-6.7l5.7,5.7l-2,2c-0.8,0.8-0.8,2,0,2.7c0.8,0.8,2,0.8,2.7,0l2-2l3.7,3.7
		c0.8,0.8,2,0.8,2.7,0c0.8-0.8,0.8-2,0-2.7l-3.7-3.7l6.9-6.9c0.6,0,1.2-0.1,1.8-0.2l4.9,4.9l-3.7,3.7c-0.8,0.8-0.8,2,0,2.7
		c0.8,0.8,2,0.8,2.7,0l3.7-3.7l2.2,2.2c0.8,0.8,2,0.8,2.7,0c0.8-0.8,0.8-2,0-2.7l-2.2-2.2l6.9-6.9l4.5,4.5l-1,1
		c-0.8,0.8-0.8,2,0,2.7c0.8,0.8,2,0.8,2.7,0l1-1l2.1,2.1c0.8,0.8,2,0.8,2.7,0c0.8-0.8,0.8-2,0-2.7l-2.1-2.1l6.9-6.9
		c0.1-0.1,0.1-0.4,0.2-0.5l3.7,3.7l-3.9,3.9c-0.8,0.8-0.8,2,0,2.7c0.8,0.8,2,0.8,2.7,0l3.9-3.9l1.1,1.1c0.8,0.8,2,0.8,2.7,0
		c0.8-0.8,0.8-2,0-2.7l-1.1-1.1l5.8-5.8c0.2,20,0.3,40.1,0.5,60.1c-27.3,27.1-28.7,28.7-73.1,73.1c-0.5-0.2-1-0.4-1.6-0.4H60.2
		c-2.1,0-3.9,1.7-3.9,3.9c0,2.1,1.7,3.9,3.9,3.9h254.9l-70.3,70.3c-0.1,0-0.3-0.1-0.4-0.1H58.3c-2.1,0-3.9,1.7-3.9,3.9
		c0,2.1,1.7,3.9,3.9,3.9h178.8L194,400.2c-0.4,0.4-0.7,0.8-0.8,1.3c0,0-6.4,15.7-13.2,32.6H54.5c-2.1,0-3.9,1.7-3.9,3.9
		c0,2.1,1.7,3.9,3.9,3.9h122.4c-3.4,8.4-6.6,16.6-9,22.9c-1,2.5,0.9,5.3,3.6,5.3c0.2,0,0.3,0,0.5,0c24.3-3.3,69.8-15,71.8-15.5
		c0.6-0.2,1.2-0.5,1.7-0.9c3.8-3.6,8.3-7.9,12.2-11.7h91.7c2.1,0,3.9-1.7,3.9-3.9c0-2.1-1.7-3.9-3.9-3.9h-83.7
		c43.9-42.2,87.9-86.6,130.9-132c0.3,42.4,0.7,84.8,1.1,127.2c0.1,19.3-0.7,37.7-11.8,49.9c-12.5,13.6-33.4,14.9-53.8,15.1
		l-221.8,2.1c-24.6,0.3-68.8,1.5-87.6-29.4C13.6,452.2,13.7,433.2,13.7,416.5L13.7,416.5z"/>
	<path d="M63.1,121.2h137.7c2.1,0,3.9-1.7,3.9-3.9s-1.7-3.9-3.9-3.9H63.1c-2.1,0-3.9,1.7-3.9,3.9S60.9,121.2,63.1,121.2z"/>
	<path d="M58.3,203h140.7c2.1,0,3.9-1.7,3.9-3.9s-1.7-3.9-3.9-3.9H58.3c-2.1,0-3.9,1.7-3.9,3.9S56.1,203,58.3,203z"/>
	<path d="M372.1,251.2l-45.4,45.4l-5.2-5.2c-0.8-0.8-2-0.8-2.7,0c-0.8,0.8-0.8,2,0,2.7l5.2,5.2l-15.7,15.7c-0.8-0.7-1.9-0.7-2.7,0
		c-0.7,0.7-0.7,1.9,0,2.7l-12.3,12.3l-3.4-3.4c-0.8-0.8-2-0.8-2.7,0c-0.8,0.8-0.8,2,0,2.7l3.4,3.4l-15.4,15.4l-5.7-5.7
		c-0.8-0.8-2-0.8-2.7,0c-0.8,0.8-0.8,2,0,2.7l5.7,5.7l-20.5,20.5c-0.8,0.8-0.8,2,0,2.7c0.8,0.8,2,0.8,2.7,0l20.5-20.5l4.6,4.6
		c0.8,0.8,2,0.8,2.7,0c0.8-0.8,0.8-2,0-2.7l-4.6-4.6l15.4-15.4l5.2,5.2c0.8,0.8,2,0.8,2.7,0c0.8-0.8,0.8-2,0-2.7l-5.2-5.2l12.3-12.3
		l3.7,3.7c0.8,0.8,2,0.8,2.7,0c0.8-0.8,0.8-2,0-2.7l-3.7-3.7l15.7-15.7l3.7,3.7c0.8,0.8,2,0.8,2.7,0c0.8-0.8,0.8-2,0-2.7l-3.7-3.7
		l45.4-45.4c0.8-0.8,0.8-2,0-2.7C374.1,250.5,372.9,250.5,372.1,251.2L372.1,251.2z"/>
	<path d="M288.2,67.7c-1.1,0-1.9,0.9-1.9,1.9s0.9,1.9,1.9,1.9h3.2l-0.3,8.1h-0.6c-1.1,0-1.9,0.9-1.9,1.9s0.9,1.9,1.9,1.9h0.5
		l-0.3,8.9l-2.5,0.1c-1.1,0.1-1.9,1-1.8,2c0.1,1,0.9,1.8,1.9,1.8c0,0,0.1,0,0.1,0l2.1-0.1l-0.2,4.8l-0.3,0.1c-1,0.3-1.7,1.3-1.4,2.3
		c0.2,0.8,0.8,1.2,1.5,1.4l-0.2,4.7c0,1.1,0.8,2,1.9,2h0.1c1,0,1.9-0.8,1.9-1.9l0.2-5.5l4-1c1-0.3,1.7-1.3,1.4-2.3
		c-0.2-1-1.3-1.7-2.3-1.4l-2.9,0.7l0.2-4l1.6-0.1c1.1-0.1,1.9-1,1.8-2.1c-0.1-1.1-0.9-1.9-2.1-1.8l-1.2,0.1l0.3-8.6h2.7
		c1.1,0,1.9-0.9,1.9-1.9s-0.9-1.9-1.9-1.9H295l0.3-8.1h4.5c1.1,0,1.9-0.9,1.9-1.9s-0.9-1.9-1.9-1.9h-4.3l0.2-5.6c0-1.1-0.8-2-1.9-2
		c-1.2,0-2,0.8-2,1.9l-0.2,5.7L288.2,67.7L288.2,67.7z"/>
</g>
</svg>
