<?xml version="1.0" encoding="utf-8"?>
<!-- Generator: Adobe Illustrator 25.0.0, SVG Export Plug-In . SVG Version: 6.00 Build 0)  -->
<svg version="1.1" id="Layer_1" xmlns:svgjs="http://svgjs.com/svgjs"
	 xmlns="http://www.w3.org/2000/svg" xmlns:xlink="http://www.w3.org/1999/xlink" x="0px" y="0px" viewBox="0 0 512 512"
	 style="enable-background:new 0 0 512 512;" xml:space="preserve">
<style type="text/css">
	.st0{fill:#707070;}
</style>
<g>
	<g>
		<g>
			<path class="st0" d="M285.4,270.8c2.3,1.1,5,1.7,7.7,1.7c12.5,0,20.4-11.1,19-22.7c-0.7-6.3-4.2-11.1-9.5-13.4
				C284.7,228.5,261.7,259.7,285.4,270.8z M286.9,262.7l0.7-0.7l2.2,2.2C288.6,263.7,289.2,264.2,286.9,262.7L286.9,262.7z
				 M296.5,252.7l1.5,1.5c-0.5,0.5-0.8,0.8-0.8,1.6c-0.8-0.7-1.9-0.7-2.6,0c-0.8,0.8-0.8,2,0,2.7l4.4,4.4c-1.3,0.8-2.7,1.3-4.2,1.5
				c0-1.3-3.5-4.4-4.5-5.3C291.1,258.4,296,253.7,296.5,252.7z M304.1,254.9l-0.7-0.7l0.9-0.9C304.3,253.8,304.2,254.4,304.1,254.9z
				 M302.8,258.6c-0.3,0.6-0.6,1.3-1,1.8l-2.7-2.7c0.7,0,1.1-0.3,1.6-0.8C301.5,257.8,301.9,258.3,302.8,258.6z M303.8,248.3
				c-0.3,0.3-2.9,2.8-3.2,3.1c-1.7-1.7-3.3-3.4-4.5-0.9c-0.8-0.7-1.9-0.7-2.7,0l-6,6c-1.8-1.1-3.6,0.7-2.5,2.5l-0.9,0.9
				C278.1,250,299.3,234.5,303.8,248.3L303.8,248.3z"/>
		</g>
		<g>
			<path class="st0" d="M208.2,272.8c18.4,0,26.3-29,8.9-36.5c-10.1-4.4-24.2,4.6-26.9,16.3C187.5,265.3,199.3,272.8,208.2,272.8z
				 M203.1,263.7l1.8-1.8l2.9,2.9C205.9,264.8,204.6,264.4,203.1,263.7L203.1,263.7z M213.8,252.7l1.5,1.5c-0.5,0.5-0.8,0.8-0.8,1.6
				c-1.9-1.7-4.4,1.1-2.6,2.8l3.1,3.1c-0.9,0.9-1.9,1.6-3.1,2.2c-0.4-1-3.4-3.9-4.2-4.7C208.5,258.4,213.3,253.7,213.8,252.7
				L213.8,252.7z M218.1,257c-0.2,0.5-0.5,1-0.8,1.6l-0.9-0.9C217.2,257.7,217.5,257.4,218.1,257L218.1,257z M218.9,250.6l-0.9,0.9
				c-1.7-1.7-3.3-3.4-4.5-0.9c-0.8-0.7-1.9-0.7-2.7,0l-6,6c-1.8-1.1-3.6,0.7-2.5,2.5l-2.4,2.4C189.3,251,217,232.2,218.9,250.6
				L218.9,250.6z"/>
		</g>
		<g>
			<path class="st0" d="M241.9,375.2c23,0,68.6-14.7,65.8-44.4c-1.6-16.9-19.5-35.7-56.9-35.7C169.8,295.1,182.2,375.2,241.9,375.2z
				 M272,305.4c28.3,7.2,42.3,36,7.3,52.5c-13.4,6.3-26,9.5-37.4,9.5c-34,0-47.3-28.8-37.2-46C215.3,303.4,249.3,299.6,272,305.4z"
				/>
		</g>
		<g>
			<path class="st0" d="M272.7,351.5c14,0,22.6-14.6,16.3-27.8c-8.7-18.4-33.3-5.7-33,12.3C256.3,346.1,265,351.5,272.7,351.5z
				 M266.1,328.7l5.4,5.4l-3.6,3.6l-3.7-3.7C264.4,332.2,265.1,330.4,266.1,328.7z M270,324.7l0.6,0.6l-1.2,1.2l-0.8-0.8
				C269.1,325.4,269.5,325,270,324.7L270,324.7z M269.8,343.3c1.4-0.6,1.4-1.9,0.7-2.8l4.2-4.2c0.6-0.6,0.6-1.3,0.3-2
				c1.1-1.8-1.2-3.3-2.9-5l1.2-1.2l2.2,2.2c0.8,0.8,2,0.7,2.7,0c0.8-0.8,0.8-2,0-2.7l-2.2-2.2l2.3-2.3
				C287.8,327.7,283.1,347.8,269.8,343.3z"/>
		</g>
		<g>
			<path class="st0" d="M226.4,351.5c28.1,0,21.1-44.9-2.8-35.7c-8.1,3.1-14.1,11.8-13.9,20.2C209.9,346.1,218.6,351.5,226.4,351.5z
				 M222.5,325.5l0.6,0.6c-1,1-1.7,1.5-1.2,2.9l-1.3-1.3C221.2,326.8,221.8,326.1,222.5,325.5z M224.3,336.8l-3.1,3.1l-3.7-3.7
				c-0.1-1.4,0-2.7,1-5.2L224.3,336.8z M234.6,339.4c-2.6,3.1-7.2,2.9-11.2,2.9c2.2-1.9,5.8-4,3.9-5.8c0.5-0.8,0.5-1.7-0.1-2.3
				L223,330c1.5,0.5,1.8-0.1,2.9-1.2c0.9,0.9,2.7,3,3.8,3c1.7,0,2.6-2.1,1.4-3.3l-2.5-2.5l3.1-3.1C236.5,324.9,239,334,234.6,339.4
				L234.6,339.4z"/>
		</g>
		<g>
			<path class="st0" d="M422,206.8c-10.1-21.6-35.8-32.7-65.6-22.2c-9.3,3.3-20.4,9.8-33.8,19.4c-40.2-22.6-91.1-24.5-135.1-1.2
				c-11.9-8.2-20.7-14.1-32.1-18.2c-19-6.7-42.3-5.1-56.6,9.2c-26.7,26.6-9.8,73.4,19.8,96.3c-11.3,41.3-6.9,82.6,11.8,117.9
				c5.6,10.4,16.3,20.1,30.3,28.2c-25.4,23.7-27.1,64.2,11.1,67.8c1.7,0.1,3.3,0.2,5,0.2c20.1,0,45.4-12.1,52.8-45.8
				c15,2,27.9,2.4,40.6,1.6c6.7,32.3,34,46,57.5,43.9c36.2-3.4,36.6-40,14.8-64c50.3-28.9,61.8-94.3,46.9-146.9
				C410.5,279,437.4,239.7,422,206.8L422,206.8z M408.7,260.3l-3.1-3.1c1.3-1.3,2.6-2.4,1.1-3.9c-1.5-1.5-2.6-0.2-3.9,1.1l-3-3
				l6.8-6.8l4.4,4.4c1.8,1.8,4.5-0.9,2.7-2.7l-4.4-5.1l6.8-7.5h0c0.5,0,1,0.5,1.4,0.2c0.4-0.4,0.6-0.5,0.6-1l0.2,0
				C417.6,241.6,414.2,251.1,408.7,260.3z M417.6,217.4L417.6,217.4c-0.2-1.1-0.6-1.5-1.6-1.6l-4.6-4.6l2.7-2.7
				C415.4,211.1,416.3,212.1,417.6,217.4z M418.5,223.2c0.2,1.6,0.2,3.2,0.2,4.8c-1.1,0.1-1.9,1.1-2.7,2l-5-5l4.4-4.4
				C416.2,221.5,417.4,223,418.5,223.2L418.5,223.2z M359,192c21.8-7.7,42.6-2,52.9,13.1l-3.4,3.4c-1.9-1.9-4.6,0.8-2.7,2.7
				c-2.5,2.5,0.2,5.3,2.7,2.7l4,4l-4.4,4.4c-1.9-1.9-4.6,0.8-2.7,2.7c-1.9,1.9,0.9,4.6,2.7,2.7l5,5l-6.4,6.4l-3.5-3.5
				c-0.8-0.8-2-0.8-2.7,0c-0.8,0.8-0.8,2,0,2.7l3.5,3.5l-7.2,7.2c-1.4-0.2-2.3,0.7-2.1,2.1c-2.5,2.5,0.6,4.9,2.4,3.1l3,3l-5.2,5.2
				l-4.7-4.7c-0.8-0.8-2-0.8-2.7,0c-0.8,0.8-0.8,2,0,2.7l4.7,4.7l-6.2,6.2c-0.9-0.9-6.2-6.5-7.4-6.8c-12.3-25.4-29.6-43.7-48.8-56.2
				C341.3,200.3,351.1,194.8,359,192L359,192z M384.5,278.4l1.5-1.5l5,5c-1.3,1.2-2.7,2.4-4,3.4C387,285.3,384.5,278.4,384.5,278.4z
				 M385.9,356.6l-5-5l1.3-1.3c0.8-0.8,0.8-2,0-2.7c-0.8-0.8-2-0.8-2.7,0l-1.3,1.3l-3.5-3.5l5.4-5.4c1,1,5.7,6.2,7,6.2
				C386.8,349.7,386.4,353.1,385.9,356.6L385.9,356.6z M370.8,401.2l-1.3-1.3l4.1-4.1C372.7,397.6,371.8,399.5,370.8,401.2
				L370.8,401.2z M366.8,397.2l-8-8l7.5-7.5l7.1,7.2c0.4,0.4,0.9,0.6,1.4,0.6c0.5,0,1-0.2,1.4-0.6c0.8-0.8,0.8-2,0-2.7L369,379
				c0.9-0.9,6.3-5.8,6.3-7.1l2.9,2.9c0.4,0.4,0.9,0.6,1.4,0.6s1-0.2,1.4-0.6c0.8-0.8,0.8-2,0-2.7l-10.2-10.2l7.5-7.5l5.1,5.1
				c0.4,0.4,0.9,0.6,1.4,0.6c0.3,0,0.6-0.2,0.8-0.3c-1.9,11.2-5,22.2-9.7,32.2C374,388.2,369.7,394.3,366.8,397.2L366.8,397.2z
				 M382.8,337.2l2.6-2.6c0.8-0.8,0.8-2,0-2.7c-0.8-0.8-2-0.8-2.7,0l-2.6,2.6c-0.9-0.9-1.8-2.1-2.9-2.2l4.6-4.6l2.2,2.2
				c0.4,0.4,0.9,0.6,1.4,0.6c0.5,0,1-0.2,1.4-0.6c0.3-0.3,0.5-0.8,0.5-1.2c0.2,4.4,0.3,8.7,0.1,13.1L382.8,337.2z M386.5,319.4
				c-1.8-0.9-3.1,1.2-4.8,2.8l-3.4-3.4c0.9-0.5,3-2.8,3.8-3.5c0.9,0.9,3.1,3.5,4.3,3.5C386.4,319,386.5,319.2,386.5,319.4
				L386.5,319.4z M386.8,322.6c0.2,1.9,0.2,3.9,0.3,5.8c-0.1-1.1-1.8-2.5-2.7-3.4L386.8,322.6z M385.7,313.4l-0.9-0.9l0.7-0.7
				C385.6,312.3,385.7,312.9,385.7,313.4z M382.4,273.4l0.8,0.8l-0.3,0.3C382.8,274.1,382.6,273.7,382.4,273.4L382.4,273.4z
				 M388.7,274.2l6.2-6.2l4.9,4.9c-2,2.4-4,4.5-6,6.5C393.9,279.3,394.2,279.7,388.7,274.2z M104.2,199.4
				c12.1-12.1,32.3-13.2,48.6-7.4c9.7,3.4,17.2,8.3,26.9,14.9c-5.6,3.6-8.6,6.1-13.3,9.7l-1.5-1.5l6.7-6.7c0.8-0.8,0.8-2,0-2.7
				s-2-0.8-2.7,0l-6.7,6.7l-5.6-5.6c-0.8-0.8-2-0.8-2.7,0s-0.8,2,0,2.7l5.6,5.6l-3.5,3.5c-1.2,1.2-0.3,3.3,1.4,3.3
				c0.5,0,1-0.2,1.4-0.6l3.5-3.5l1.3,1.3c-2.8,2.4-5.6,4.9-8.2,7.5l-5.6-5.6l1.8-1.8c0.8-0.8,0.8-2,0-2.7s-2-0.8-2.7,0l-1.8,1.8
				l-1.3-1.3c-0.8-0.8-2-0.8-2.7,0c-0.8,0.8-0.8,2,0,2.7l1.3,1.3l-9.3,9.3l-0.7-0.7c-0.8-0.8-2-0.8-2.7,0s-0.8,2,0,2.7l0.7,0.7
				l-7.6,7.6c-1.2,1.2-0.3,3.3,1.4,3.3c1.2,0,8-7.2,9-8.2c0.8,0.8,5.7,6,6.8,6.4c-0.9,1.3-1.9,2.6-2.8,3.9c-0.7-4.5-5,0.7-8.1,3.9
				l-6.4-6.4c-1.8-1.8-4.6,0.9-2.7,2.7l6.4,6.4l-8.3,8.3c-1.6-1.6-3-3.5-4.6-1.9c-1.6,1.6,0.3,3,1.9,4.6l-7.1,7.1
				C92.7,249,85.5,218,104.2,199.4L104.2,199.4z M137.5,233l9.3-9.3l5.6,5.6c-3,3.2-6,6.6-8.7,10.1
				C143.2,238.5,138.3,233.7,137.5,233z M134.2,253.3l-0.7-0.7l3.3-3.3C135.9,250.6,135,251.9,134.2,253.3L134.2,253.3z
				 M132.2,256.5c-2,3.6-3.9,7.3-5.6,11.2l-4.1-4.1l8.3-8.3C131.6,256.1,131.4,256,132.2,256.5L132.2,256.5z M112.3,273.7l7.4-7.4
				l5.2,5.2c-1.5,3.5-2.8,7-4.1,10.6C117.8,279.6,115,276.7,112.3,273.7z M137.2,404.4C120,372,114.9,332.7,126.2,292
				c0.5-0.5,0.9-1,1.1-1.7c29.7-94.8,125.8-115.9,190.5-80.1c0.2,1.1,0.8,2.1,1.8,2.6c33.4,19.4,57.3,53.5,65.1,94.3l-2.6,2.6l-3-3
				c-0.8-0.8-2-0.8-2.7,0c-0.8,0.8-0.8,2,0,2.7l3,3c-1,1-3.9,3.5-3.9,4.8c-4.2,0.9,0.5,4.6,3.5,7.6l-5.2,5.2c-0.8,0.8-0.8,2,0,2.7
				c0.4,0.4,0.9,0.6,1.4,0.6c0.1,0,0.2-0.1,0.3-0.1c-0.8,1.7,0.5,2.5,1.9,3.8l-6.3,6.3c-0.9,0.4-0.5-0.1-0.9,0.9l-2,2
				c-0.8,0.8-0.8,2,0,2.7c0.4,0.4,0.9,0.6,1.4,0.6c0.5,0,1-0.2,1.4-0.6l1.1-1.1l3.5,3.5l-7.6,7.6c-1.8-1.2-3.7,0.7-2.5,2.5l-2.5,2.5
				c-0.8,0.8-0.8,2,0,2.7c0.4,0.4,0.9,0.6,1.4,0.6c0.5,0,1-0.2,1.4-0.6l2.4-2.4l5.4,5.4c-1.2,0.1-6.2,5.5-7.1,6.3l-4.9-4.9
				c-0.8-0.8-2-0.8-2.7,0c-0.8,0.8-0.8,2,0,2.7l4.9,4.9l-7.5,7.5c-1.6-1.6-3-3.5-4.6-1.8c-0.8,0.8-0.8,2,0,2.7L364,400l-8,8
				l-6.5-6.5c0,0,0,0,0,0s0,0,0,0c-1.9-1.9-4.1-5-5.9-3.2c-1.6,1.6,0.3,3,1.8,4.6l-11,11l-5.1-5.1c-1.8-1.8-4.5,0.9-2.7,2.7l5.1,5.1
				l-9,9l-7.8-7.8c0.2-1.3-0.7-2.2-2.1-2.1c-1.5-1.5-2.8-3.2-4.4-1.6c-0.8,0.8-0.8,2,0,2.7l1.3,1.3L298,429.7l-5.4-5.4
				c-0.8-0.8-2-0.8-2.7,0c-0.8,0.8-0.8,2,0,2.7l5.4,5.4l-8.8,8.8l-9.3-9.3l12.5-12.5c0.8-0.8,0.8-2,0-2.7c-0.8-0.8-2-0.8-2.7,0
				l-12.5,12.5c-2.3-2.3-5,0.5-2.7,2.7l-7.1,7.1l-5.4-5.4l9.7-9.7c0.8-0.8,0.8-2,0-2.7c-0.8-0.8-2-0.8-2.7,0l-20.1,20.1l-5.4-5.4
				l13.1-13.1c0.8-0.8,0.8-2,0-2.7c-0.8-0.8-2-0.8-2.7,0l-13.1,13.1l-2-2c-1.8-1.8-4.6,0.9-2.7,2.7l2,2l-6.7,6.7
				c-0.8-0.8-6.6-6.8-7.7-7.2l9.3-9.3c0.8-0.8,0.8-2,0-2.7c-0.8-0.8-2-0.8-2.7,0l-16.5,16.5l-4.9-4.9c-1.8-1.8-4.6,0.9-2.7,2.7
				l4.9,4.9c-1.1,1.1-2.5,2.1-2.3,3.4c-2.5-0.7-5-1.3-7.4-2.1c1.9-0.2,2.3-2.2,1.2-3.2l-1.3-1.3l11.5-11.5c0.8-0.8,0.8-2,0-2.7
				c-0.8-0.8-2-0.8-2.7,0l-11.5,11.5l-3.9-3.9c-1.8-1.8-4.6,0.9-2.7,2.7l3.9,3.9l-2,2C171.8,434.7,146.6,422,137.2,404.4
				L137.2,404.4z M342.2,427.2c0.9,0.9,1.6,1.8,2.6,2.1c-10.3,7.2-21,11.5-33,15c0-0.9-0.3-1.2-0.9-1.7l11.6-11.6l5.5,5.5
				c0.4,0.4,0.9,0.6,1.4,0.6s1-0.2,1.4-0.6c0.8-0.8,0.8-2,0-2.7l-5.5-5.5l9-9l5.2,5.2C337.5,426.5,340.2,429.3,342.2,427.2
				L342.2,427.2z M318.2,451.6l1-1c2.2-0.8,4.3-1.6,6.4-2.5l2.2,2.2l-5.5,5.5L318.2,451.6z M300,456c3.8-0.8,7.6-1.8,11.2-2.9
				l-7.1,7.1L300,456z M281.1,469.6c-0.9-2-1.7-4.2-2.3-6.5l4.4,4.4C282.4,468.2,281.7,468.8,281.1,469.6z M300.8,432.4l11.6-11.6
				l7.5,7.5l-11.6,11.6L300.8,432.4z M280.4,459.2c4.3-0.5,8.6-1.1,12.8-1.9l-7.4,7.4L280.4,459.2z M337,416.6l11-11l5.2,5.2l-11,11
				L337,416.6z M189,455.8c-0.7-0.8-4.2-4.4-5-5.1c0.8-0.8,1.7-1.6,2.2-2.4c1.7,0.6,3.4,1.3,5.1,1.9l1.7,1.7L189,455.8z
				 M197.1,443.3c-0.7-0.2-1.4-0.4-2.1-0.7l0.7-0.7C196.4,442.7,196.3,442.7,197.1,443.3L197.1,443.3z M182.4,446.8l-1.1,1.1
				l-2.8-2.8C179.8,445.7,181.1,446.3,182.4,446.8L182.4,446.8z M202.3,453.5l-1.1,1.1l-1.9-1.9
				C200.3,452.9,201.3,453.2,202.3,453.5z M209.4,446.8l1.6-1.6l2.5,2.5C212.1,447.3,210.7,447.1,209.4,446.8L209.4,446.8z M226,450
				c1-0.3,1.7-1.2,2.5-2l2.8,2.8C229.5,450.6,227.8,450.3,226,450z M224.3,449.8c-2.9-0.5-5.7-1-8.6-1.6c3-1.3,0.1-3.5-2.1-5.7
				l4.8-4.8c0.4,1.1,6.4,6.9,7.2,7.7C224.2,446.9,222.4,448.2,224.3,449.8L224.3,449.8z M150.9,481.4c-3.6-12.5,3.8-30.2,16.9-41.3
				c0.4,0.2,0.9,0.4,1.3,0.6c0.3,1,1.3,1.8,2.1,2.6c-3.5,3.5,0.2,5.3,1.8,3.6l0.9-0.9l4.5,4.5c-3.5,3.4,0.2,5.2,1.9,3.6l0.9-0.9
				c0.8,0.8,4.3,4.3,5.1,5c-1.8,1.8-4.4,3.6-2.6,5.4c0.8,0.8,2,0.7,2.7,0l9.2-9.2l2.8,2.8l-8,8c-0.8,0.8-0.8,2,0,2.7
				c0.8,0.8,2,0.8,2.7,0l8-8c1,1,5.5,6,6.8,6c1.7,0,2.6-2.1,1.4-3.3l-5.4-5.4l2.6-2.6c3.7,0.9,7.5,1.6,11.3,2.3l-2.9,2.9
				c-1.4-1.4-2.6-2.9-4.1-1.4c-1.5,1.5,0,2.7,1.4,4.1l-5.2,5.2l-4.3-4.3c-1.8-1.8-4.6,0.9-2.7,2.7l4.3,4.3c-1.6,1.6-3.7,3.1-2,4.8
				c0.8,0.8,2,0.8,2.7,0l2-2c0.9,0.9,2.8,3.2,4,3.2c1.7,0,2.6-2.1,1.4-3.3l-2.7-2.7l5.2-5.2l3.3,3.3
				C203,504.1,157.1,503,150.9,481.4L150.9,481.4z M221.6,458.8c-0.5,2-1.1,4-1.7,5.8l-2-2L221.6,458.8z M236.8,451.5
				c-0.2-1.2-4.7-5.4-5.5-6.2l6.7-6.7l5.4,5.4c-1.7,1.8,0.9,4.4,2.7,2.7l3.2,3.2c0.4,0.4,0.9,0.6,1.4,0.6s1-0.2,1.4-0.6
				c0.8-0.8,0.8-2,0-2.7l-3.2-3.2l7.6-7.6l5.4,5.4l-3.7,3.7c-0.8,0.8-0.8,2,0,2.7c0.4,0.4,0.9,0.6,1.4,0.6c0.5,0,1-0.2,1.4-0.6
				l3.7-3.7l4.3,4.3c0.4,0.4,0.9,0.6,1.4,0.6c0.5,0,1-0.2,1.4-0.6c0.8-0.8,0.8-2,0-2.7l-4.3-4.3l7.1-7.1l9.3,9.3l-0.7,0.7
				c-0.8,0.8-0.8,2,0,2.7c0.4,0.4,0.9,0.6,1.4,0.6c0.5,0,1-0.2,1.4-0.6l0.7-0.7l1.7,1.7c0.4,0.4,0.9,0.6,1.4,0.6
				c0.5,0,1-0.2,1.4-0.6c0.8-0.8,0.8-2,0-2.7l-1.7-1.7l8.8-8.8l7.6,7.6c-1.2,1.7,0.6,3.8,2.5,2.5l0.1,0.1c-11,2.9-23,5-35.5,6
				c-0.8,0.1-1.5,0.4-2.1,0.9C260,452.9,249.9,452.9,236.8,451.5L236.8,451.5z M326.9,496.3c-12.3,1.1-25-3.2-34.3-11.1l11.3-11.3
				c0.8-0.8,0.8-2,0-2.7c-0.8-0.8-2-0.8-2.7,0l-11.4,11.4c-3-3-5.4-6.3-7.3-9.9c1.3,0.1,2.4-1.5,3.4-2.5c0.9,0.9,4.9,5.3,6.1,5.3
				c1.7,0,2.6-2.1,1.4-3.3l-4.7-4.7l8.6-8.6l4.4,4.4c-0.3,1.3,0.6,2.5,2.1,2.1c0.8,0.8,1.6,1.9,2.7,1.9c1.7,0,2.6-2.1,1.4-3.3l-1-1
				l8.6-8.6c1,1,8,8.5,9.3,8.5c1.7,0,2.6-2.1,1.4-3.3l-1-1l5.5-5.5c0.9,0.9,2.2,2.5,3.3,2.5c1.7,0,2.6-2.1,1.4-3.3l-1.9-1.9
				c1.8-1.8,4.3-3.6,2.6-5.3c-0.8-0.8-2-0.8-2.7,0l-2.6,2.6l-1-1c0,0,5.9-2.7,5.9-2.7C352.2,460.9,358.8,493.3,326.9,496.3
				L326.9,496.3z M347.2,427.5c-0.1-1.1-1.4-2.1-2.3-3l11-11l3.3,3.3C355.7,420.7,351.6,424.2,347.2,427.5L347.2,427.5z
				 M361.8,413.7l-3-3l8-8l1.8,1.8C366.5,407.7,364.2,410.8,361.8,413.7z M402.2,269.7l-4.5-4.5l5.2-5.2c0.7,0.7,2.9,3,3.8,3.6
				C405.3,265.7,403.8,267.7,402.2,269.7L402.2,269.7z"/>
		</g>
		<g>
			<path class="st0" d="M253.7,173.4c6.7-0.3,14.6,0.8,19.3-3.9c11.1-11.2,3.3-105,5.6-125.3c1.5-13.4-4.8-16.4-17.6-15.3
				c-5.4,0.5-7.8-0.1-13-0.1c-21.8,0-19.5,17.4-19.3,25.1c0.9,32.9,0.1,91.5-0.3,99.2C227.2,171,237.1,174.2,253.7,173.4z
				 M253.4,165.7c-1.6,0.1-3.4,0.2-5.1,0.2c-2.5,0-4.5-0.2-6.2-0.7l5.2-5.2c0.9,0.9,4.4,4.9,5.7,4.9c1.7,0,2.6-2.1,1.4-3.3l-4.3-4.3
				l6.8-6.8l5.6,5.6c-2.2,2.2-6.9,5.6-4.9,7.6c2.1,2.1,5.4-2.7,7.6-4.8l3.4,3.4C266.8,166.6,264,165.1,253.4,165.7L253.4,165.7z
				 M270.9,88.9l-0.6-0.6l0.6-0.6C270.9,88.1,270.9,88.5,270.9,88.9z M271,106.4c0,4.2,0.1,8.1,0.1,11.8l-6.4-6.4
				c1.5-1.5,4.4-4.4,5.8-5.8L271,106.4z M271.1,123.4C271.1,123.4,271.1,123.4,271.1,123.4c0,5.5,0,10.4,0,14.7l-7.3-7.3
				C264.5,130.1,270.5,124.2,271.1,123.4z M269.8,157.8l-1.9-1.9l2.4-2.4C270.2,155.1,270,156.6,269.8,157.8z M236.1,153.7
				c0.1-1.1,0.1-2.2,0.1-3.3c0.3-34.1,1.3-58.3,0.2-96.6c-0.3-9-1.8-17.1,11.6-17.1c5.5,0,7.5,0.7,13.7,0.1
				c10.4-0.9,9.9,0.9,9.2,6.6c-0.5,4.3-0.1,34.6-0.1,38.9l-3.3,3.3l-2.2-2.2c-0.8-0.8-2-0.8-2.7,0c-0.8,0.8-0.8,2,0,2.7l2.2,2.2
				l-2.5,2.5c-0.8,0.8-0.8,2,0,2.7c0.4,0.4,0.9,0.6,1.4,0.6s1-0.2,1.4-0.6l2.5-2.5c1.2,1.2,1.9,2,3.4,0.9c0,1.7,0.1,6.4,0.1,8.1
				l-0.4,0.4l-3.6-3.6c-0.8-0.8-2-0.8-2.7,0c-1.9,1.9,1.6,4.3,3.6,6.4c-0.8,0.8-5.6,5.4-6.1,6.4c-0.5,0-1,0.1-1.4,0.5
				c-0.8,0.8-0.8,2,0,2.7l7.9,7.9c-0.9,0.9-7.6,7.3-7.8,8.5c-0.2,0.1-0.5,0.1-0.6,0.3c-0.8,0.8-0.8,2,0,2.7l11.1,11.1
				c-0.1,2.3-0.2,4.4-0.3,6.3c-1.9-0.9-3.7,1.8-5.5,3.5l-5.6-5.6l3.5-3.5c0.8-0.8,0.8-2,0-2.7c-0.8-0.8-2-0.8-2.7,0l-3.5,3.5
				l-0.7-0.7c-0.8-0.8-2-0.8-2.7,0s-0.8,2,0,2.7l0.7,0.7l-6.8,6.8l-4.4-4.4c-0.8-0.8-2-0.8-2.7,0s-0.8,2,0,2.7l4.4,4.4
				c-0.7,0.7-5.6,5.5-6.2,6.3C235.5,161.1,235.8,157.6,236.1,153.7L236.1,153.7z"/>
		</g>
		<g>
			<path class="st0" d="M160.9,256.2c3.1-4.4,6.6-8.5,10.4-12.4c0.9,0.8,3.6,3.6,4.7,3.6c1.8,0,2.6-2.2,1.3-3.4l-3.2-2.9
				c5-4.7,10.3-8.9,16.1-12.6c0.9,0.8,2.2,2.4,3.4,2.4c1.9,0,2.7-2.4,1.1-3.5c-0.4-0.3-0.7-0.7-1.1-1c3.7-2.2,7.6-4.2,11.6-5.9
				c0.9,1.1,3.2,3.8,4.6,3.8c1.9,0,2.7-2.4,1.1-3.5c-0.7-0.5-1.4-1.2-2.1-1.8c5.1-2,10.4-3.6,15.8-4.8c0.5,2.3,0.7,5.8,2.9,5.8
				c1.3,0,2.2-1.2,1.9-2.4l-1-4.2c4.5-0.8,9-1.4,13.7-1.6c1.1-0.1,1.9-1,1.8-2c-0.1-1.1-1.1-1.9-2-1.8c-4.9,0.2-9.7,0.8-14.4,1.7
				l-0.5-2.3c-0.6-2.5-4.4-1.7-3.8,0.9l0.5,2.2c-5.9,1.3-11.7,3.1-17.2,5.3c-1.3-2.4-1.4-5.8-3.9-5.3c-1,0.2-1.7,1.3-1.5,2.3
				c0.4,1.6,1,3.1,1.7,4.5c-4.3,1.9-8.4,4-12.4,6.4c-1.9-2.2-3.1-5.9-5.3-4.7c-2.5,1.3,0.2,4.5,2,6.7c-5.8,3.8-11.2,8.1-16.2,12.9
				c-2.3-2-5.6-6.2-7.5-4.1c-0.7,0.8-0.7,2,0.1,2.7l4.5,4.1c-3.8,3.9-7.2,8-10.4,12.4c-1.6-1.6-3.1-3.3-4.3-5.2
				c-1.4-2.1-4.7-0.1-3.3,2.1c1.5,2.3,3.3,4.4,5.2,6.4c-2.3,3.5-4.5,7.1-6.4,10.8c-2-1.5-4.2-3.7-5.7-1.9c-1.8,2.1,1.7,3.8,4,5.5
				c-2.1,4.5-4,9.2-5.5,14c-0.8,2.5,2.9,3.6,3.7,1.1c1.4-4.4,3.1-8.7,5-12.9c2.9,1.7,9.8,5.8,10.9,2.9c0.4-1-0.2-2.1-1.2-2.5
				c-2.8-1-5.5-2.4-8-3.9c1.8-3.6,3.9-7.1,6.2-10.5c1.4,1.2,2.9,2.2,4.5,3.2c2.2,1.3,4.2-2,2-3.3
				C163.6,258.5,162.3,257.3,160.9,256.2L160.9,256.2z"/>
		</g>
	</g>
</g>
</svg>
