<?xml version="1.0" encoding="utf-8"?>
<!-- Generator: Adobe Illustrator 25.0.0, SVG Export Plug-In . SVG Version: 6.00 Build 0)  -->
<svg version="1.1" id="Layer_1" xmlns:svgjs="http://svgjs.com/svgjs"
	 xmlns="http://www.w3.org/2000/svg" xmlns:xlink="http://www.w3.org/1999/xlink" x="0px" y="0px" viewBox="0 0 512 512"
	 style="enable-background:new 0 0 512 512;" xml:space="preserve">
<style type="text/css">
	.st0{fill:#FFFFFF;}
</style>
<g>
	<g>
		<path class="st0" d="M501.8,279.9c0.1-0.4,0.1-0.8,0.1-1.2c0.2-0.1,0.5-0.1,0.7-0.2c1.5-0.9,2.1-2.8,1.2-4.4
			c-26.3-47.1-51.7-94.4-77.7-141c-1.2-2.1-4.1-2.2-5.5-0.2c-31.4,47.6-59.7,97.9-84,149.4c-0.8,1.6-0.1,3.5,1.5,4.3
			c0.4,0.2,0.9,0.3,1.4,0.3c0.5,0,1-0.2,1.4-0.4c2.8,23.5,19.2,45.4,41.9,55.3C427.5,361.3,483.2,335.4,501.8,279.9L501.8,279.9z
			 M472.8,315.8l-5.3-5.3l7.4-7.4c0.2-0.2,0.4-0.4,0.7-0.6l4.6,4.6C477.9,310.1,475.5,313.1,472.8,315.8L472.8,315.8z M482.2,304.5
			l-4.2-4.2c1.3-1.1,2.7-2.1,4-3.2c1.7-1.3,3.5-2.7,5.2-4.2l1.3,1.3C486.6,297.8,484.5,301.3,482.2,304.5L482.2,304.5z M345,279.8
			c22.9-47.8,49.1-94.6,78.1-139c24.9,44.8,49.4,90.3,74.3,134.9c-55,1.9-98.8,3.2-151.1,5C345.9,280.3,345.5,280,345,279.8z
			 M347.4,287.1c49.6-1.7,94.5-3,146.7-4.8c-1.2,3.1-2.6,6.1-4,9l-0.5-0.5c0.1-0.1,0.2-0.2,0.3-0.3c0.6-0.6,0.6-1.7,0-2.3
			c-0.6-0.6-1.7-0.6-2.3,0c-0.1,0.1-0.2,0.2-0.3,0.2l-1-1c-0.6-0.6-1.6-0.6-2.3,0c-0.6,0.6-0.6,1.6,0,2.3l0.9,0.9
			c-1.6,1.3-3.2,2.6-4.9,3.9c-1.4,1.1-2.9,2.2-4.3,3.4l-0.7-0.7c-0.6-0.6-1.6-0.6-2.3,0c-0.6,0.6-0.6,1.6,0,2.3l0.5,0.5
			c-0.2,0.2-0.4,0.4-0.7,0.6l-7.4,7.4l-2.4-2.4c-0.6-0.6-1.6-0.6-2.3,0c-0.6,0.6-0.6,1.6,0,2.3l2.4,2.4l-1,1c-0.6,0.6-0.6,1.6,0,2.3
			c0.6,0.6,1.6,0.6,2.3,0l1-1l5.3,5.3c-4.6,4.5-9.7,8.4-15,11.7c-0.1-0.1-0.1-0.3-0.2-0.4l-3.6-3.6l7.3-7.3c0.6-0.6,0.6-1.6,0-2.3
			c-0.6-0.6-1.6-0.6-2.3,0l-7.3,7.3l-5.4-5.4c-0.6-0.6-1.6-0.6-2.2,0c-0.5-0.1-1,0-1.4,0.4l-8.1,8.1l-1-1c-0.6-0.6-1.6-0.6-2.3,0
			c-0.6,0.6-0.6,1.6,0,2.3l1,1l-8.5,8.5l-7.8-7.8l7.6-7.6c0.6-0.6,0.6-1.6,0-2.3c-0.6-0.6-1.6-0.6-2.3,0l-7.8,7.8
			c-0.5-0.1-1,0-1.3,0.4c-0.4,0.4-0.4,0.9-0.4,1.3l-8.1,8.1l-4.7-4.7c-0.6-0.6-1.6-0.6-2.3,0c-0.6,0.6-0.6,1.6,0,2.3l4.7,4.7
			l-0.6,0.5c-4.6-0.9-9.1-2.2-13.3-4.1C365.2,327.1,350.4,307.9,347.4,287.1L347.4,287.1z M437.6,337.6c0.1,0.1,0.3,0.1,0.4,0.2
			c-5.1,1.6-10.4,2.7-15.7,3.3l0.3-0.3c0.1,0,0.2,0,0.2-0.1c0.1-0.1,0-0.2,0.1-0.2l9.5-9.5l4.9,4.9
			C437.2,336.5,437.2,337.2,437.6,337.6z M434.7,328.7l7.8-7.8l4.8,4.8l-7.8,7.8L434.7,328.7z M405.3,341.1l-1.5-1.5l7.8-7.8
			l7.8,7.8l-1.4,1.4c-0.1,0.1-0.1,0.4-0.2,0.5C413.6,341.7,409.4,341.5,405.3,341.1z M442.3,336.3l-0.5-0.5l7.8-7.8l3.4,3.4
			c-0.1,0.1-0.2,0.1-0.3,0.2C449.3,333.4,445.8,334.9,442.3,336.3L442.3,336.3z"/>
		<path class="st0" d="M171.1,286.5c2.9,1.5,5.6-1.5,4.3-4.2c-24.4-51.5-52.6-101.8-84-149.4c-1.3-2-4.3-1.9-5.5,0.2
			c-26,46.6-51.4,93.9-77.7,141c-0.9,1.5-0.3,3.5,1.2,4.4c0.2,0.1,0.5,0.2,0.7,0.2c0,0.4,0,0.8,0.1,1.2c12.9,38.6,46.4,68.1,88,68.1
			C140.7,348.1,167.5,316.6,171.1,286.5L171.1,286.5z M161.6,298.6c0-0.4-0.2-0.8-0.5-1.1l-1.3-1.3l3.6-3.6
			C162.9,294.6,162.3,296.6,161.6,298.6L161.6,298.6z M88.9,140.9c29,44.4,55.2,91.1,78.1,139c-0.5,0.2-0.9,0.5-1.3,0.9
			c-52.3-1.8-96.1-3.1-151.1-5C39.5,231.2,64,185.7,88.9,140.9L88.9,140.9z M76.9,338.7l3.4-3.4l5.2,5.2
			C82.6,340.1,79.8,339.5,76.9,338.7z M110,340.7l-6.6-6.6l10.9-10.9l6.6,6.6l-5.7,5.7c-0.6,0.6-0.6,1.6,0,2.3
			c0.6,0.6,1.6,0.6,2.3,0l5.7-5.7l2.8,2.8c0.6,0.6,1.6,0.6,2.3,0c0.6-0.6,0.6-1.6,0-2.3l-2.8-2.8l11.7-11.7l5.1,5.1
			c0.6,0.6,1.6,0.6,2.3,0c0.6-0.6,0.6-1.6,0-2.3l-5.1-5.1l4.8-4.8c0.6-0.6,0.6-1.6,0-2.3c-0.6-0.6-1.6-0.6-2.3,0l-4.8,4.8l-2.6-2.6
			c-0.6-0.6-1.6-0.6-2.3,0c-0.6,0.6-0.6,1.6,0,2.3l2.6,2.6l-11.7,11.7l-6.6-6.6l7.6-7.6c0.6-0.6,0.6-1.6,0-2.3
			c-0.6-0.6-1.6-0.6-2.3,0l-20.8,20.8l-6.3-6.3c-0.6-0.6-1.6-0.6-2.3,0c-0.6,0.6-0.6,1.6,0,2.3l6.3,6.3l-3.8,3.8
			c-0.6,0.6-0.6,1.6,0,2.3c0.6,0.6,1.6,0.6,2.3,0l3.8-3.8l4.7,4.7c-5,0.5-10.1,0.6-15.3,0.1l-8.1-8.1l15.8-15.8
			c0.6-0.6,0.6-1.6,0-2.3c-0.6-0.6-1.6-0.6-2.3,0l-15.8,15.8c-1.7-1.7-4-5-5.6-3.4c-0.6,0.6-0.6,1.6,0,2.3l3.4,3.4l-4,4
			c-0.2,0.2-0.2,0.4-0.3,0.7c-26.5-8.5-46.1-30.2-55.9-55.4c52.2,1.8,97.1,3.1,146.7,4.8c-0.1,1-0.5,2-0.7,3.1
			c-0.1-0.1,0-0.2-0.1-0.3c-0.6-0.6-1.6-0.6-2.3,0l-4,4l-3.1-3.1c-0.6-0.6-1.6-0.6-2.3,0c-0.6,0.6-0.6,1.6,0,2.3l3.1,3.1l-5.8,5.8
			c-0.6,0.6-0.6,1.6,0,2.3c0.6,0.6,1.6,0.6,2.3,0l5.8-5.8l1.3,1.3c0.6,0.6,1.6,0.6,2.3,0c0.3-0.3,0.4-0.7,0.4-1.1
			c-1.8,4.9-4.1,9.5-7.1,13.8c0-0.4-0.1-0.7-0.4-1l-8-8c-0.6-0.6-1.6-0.6-2.3,0c-0.6,0.6-0.6,1.6,0,2.3l8,8c0.3,0.3,0.7,0.5,1.1,0.5
			c0.2,0,0.3-0.1,0.5-0.2C143.2,328.2,128.5,337.8,110,340.7L110,340.7z"/>
		<path class="st0" d="M92.1,109.9c25.2,1.6,35.1-24.8,45.9-36.7c24.3-26.9,68.8-18.9,82.3,14.7c0.5,1.2,1.7,2,2.9,2
			c-0.2,13.5,5.5,24.5,16,30.2c3.9,2.2,8.3,3.4,12.8,3.8c-0.2,1-0.1,219.5-0.1,220.4c-30,0-54.3,20.7-53,64.8
			c0.2,6.4-0.2,10.8,0.4,18.4c-32.6,0.9-38.5,0.3-45.9,4.1c-5.8,3-11,10.2-9.1,17.6c2.1,7.6,10,11.5,23.5,11.8
			c171.6,1,173.7-0.3,180.8-3.9c6.7-3.3,12.5-10.8,10.9-18.9c-1.1-5.7-5.9-10.6-12.4-12.7c-6.4-2.1-10.6-1.6-39.3-0.8
			c1.6-52.5-23.3-76.8-49.4-79.9c0-1,0.1-219.9-0.2-220.9c20-1.6,32.8-17.7,33.7-36.2c13.6-33.5,58-41.3,82.2-14.5
			c10.4,11.6,20.6,38.3,45.9,36.7c23.6-1.3,31.3-28.2,16.3-39.4c-7.9-5.9-20.5-4-25.5,4.4c-2.2,3.6,3.3,7,5.5,3.3
			c3.1-5.1,11.3-6.3,16.2-2.6c10.3,7.7,4.8,26.9-12.8,27.9c-21.4,1.1-29.2-21.8-40.8-34.6c-23.5-26-67-24.8-88.1,7.4
			c-1.3-5.4-3.7-10.4-7.1-14.4c-9.2-11-26-14.5-39.1-8.3c-10.1,4.8-17.6,15.5-20.2,27.8c-18.3-36.2-65.7-40.5-91.1-12.5
			c-11.4,12.6-19.3,35.6-40.8,34.6c-17.5-1-23-20.2-12.8-27.9c4.9-3.7,13.1-2.5,16.2,2.6c2.2,3.7,7.7,0.3,5.5-3.3
			c-5.1-8.5-17.7-10.3-25.5-4.4C60.9,81.7,68.5,108.6,92.1,109.9L92.1,109.9z M345,431.7c4.3,1.4,7.4,4.5,8.1,7.9v0
			c1,4.9-3.1,9.8-7.4,11.9c-5.2,2.6-11.7,2.5-17.6,2.7c-54.5,0-107.4,0.9-160.3,0.6c-7.1-0.1-15.8-1.4-17.4-7
			c-1-3.9,2.2-8.3,5.8-10.2c6.7-3.4,9.3-2.5,97.1-4.8c17.1-0.5,34.1-0.9,51.2-1.4C324.9,430.6,338.5,429.6,345,431.7L345,431.7z
			 M227.1,419.6l7.1,7.1c-4.7,0.1-9.4,0.2-14,0.4c-0.1-0.1,0-0.2-0.1-0.3l0,0L227.1,419.6z M261.8,408.3l5,5l-9.6,9.6
			c-0.6,0.6-0.6,1.6,0,2.3c0.6,0.6,1.6,0.6,2.3,0l9.6-9.6l9.9,9.9c-8.1,0.2-16.1,0.4-24.2,0.6c0.1-0.5,0.1-1.1-0.3-1.5l-4.5-4.5
			L261.8,408.3z M271.4,413.3l6.6-6.6l8.3,8.3l-6.6,6.6L271.4,413.3z M251.6,426.2c-2.6,0.1-5.3,0.1-7.9,0.2l4-4.1L251.6,426.2z
			 M301.3,424.9c-6,0.1-11.9,0.3-17.9,0.5l-1.5-1.5l6.6-6.6l2.3,2.3c0.6,0.6,1.6,0.6,2.3,0c0.6-0.6,0.6-1.6,0-2.3l-2.3-2.3l3.1-3.1
			c0.6-0.6,0.6-1.6,0-2.3c-0.6-0.6-1.6-0.6-2.3,0l-3.1,3.1l-8.3-8.3l1.4-1.4c0.6-0.6,0.6-1.6,0-2.3c-0.6-0.6-1.6-0.6-2.3,0l-1.4,1.4
			l-4-4c-0.6-0.6-1.6-0.6-2.3,0c-0.6,0.6-0.6,1.6,0,2.3l4,4l-6.6,6.6l-5.4-5.4c-0.4-0.4-0.8-0.4-1.3-0.4c-0.6-0.5-1.5-0.5-2,0.1
			l-12.5,12.5l-5.7-5.7c-0.6-0.6-1.6-0.6-2.3,0c-0.6,0.6-0.6,1.6,0,2.3l5.7,5.7l-6.4,6.4c-0.8,0-1.7,0-2.5,0.1
			c0.6-0.6,0.6-1.6,0-2.2l-7.1-7.1l12.4-12.4c0.6-0.6,0.6-1.6,0-2.3c-0.6-0.6-1.6-0.6-2.3,0l-21.8,21.8l-3.3-3.3
			c-0.6-0.6-1.6-0.6-2.3,0c-0.6,0.6-0.6,1.6,0,2.3l3.3,3.3l-0.5,0.5c-3.1,0.1-6.3,0.2-9.4,0.2c-0.6-7-0.2-12-0.4-18.4
			c-0.5-17.3,2.5-30,9.4-39.9C236.4,338.1,304.2,340.1,301.3,424.9z M257,101l6.1,6.1l-6.7,6.7l-6.1-6.1L257,101z M258.5,116.3
			l6.9-6.9l4.5,4.5c-3.6,2-7.6,3.3-11.7,3.7C258.6,117.3,258.6,116.8,258.5,116.3z M254.3,116.3c-0.1,0.5-0.1,1,0.3,1.4
			c-3.7-0.1-7.2-0.9-10.5-2.4c0-0.4-0.2-0.7-0.4-1l4.3-4.3L254.3,116.3z M280.5,68.7c0.8,1.3,1.6,2.6,2.2,4l-3.1-3.1
			c0.1,0,0.1-0.1,0.2-0.1C280.2,69.3,280.4,69,280.5,68.7L280.5,68.7z M247.3,59.4c10.3-4.9,24.1-2,31.4,6.6
			c0.1,0.1,0.2,0.3,0.3,0.5c-0.2,0-0.4-0.1-0.6,0.1c0,0-0.3,0.2-0.4,0.3c-0.2,0.1-0.5,0.2-0.7,0.4l-0.7-0.7c-0.6-0.6-1.6-0.6-2.3,0
			c-0.6,0.6-0.6,1.6,0,2.3l0.7,0.7l-1.9,1.9c-0.6,0.6-0.6,1.6,0,2.3c0.6,0.6,1.6,0.6,2.3,0l1.9-1.9l6.6,6.6c0.2,0.2,0.5,0.2,0.7,0.3
			c2.8,12.5-1.7,25.9-12,33.5l-5-5l6.6-6.6c0.6-0.6,0.6-1.6,0-2.3c-0.6-0.6-1.6-0.6-2.3,0l-6.6,6.6l-6.1-6.1l2.4-2.4
			c0.6-0.6,0.6-1.6,0-2.3c-0.6-0.6-1.6-0.6-2.3,0L248,105.5l-3-3c-0.6-0.6-1.6-0.6-2.3,0c-0.6,0.6-0.6,1.6,0,2.3l3,3l-4.3,4.3
			l-4.2-4.2c-0.6-0.6-1.6-0.6-2.3,0c-0.1,0.1,0,0.1-0.1,0.2c-3.6-4.8-5.5-11.1-5.3-18.4C230.1,76.4,237.1,64.3,247.3,59.4
			L247.3,59.4z"/>
		<path class="st0" d="M285.1,382.9l-1.2,1.2c-0.6,0.6-0.6,1.6,0,2.3c0.6,0.6,1.6,0.6,2.3,0l1.2-1.2l6.2,6.2
			c0.1,0.1,0.2,0.1,0.3,0.1l-3.2,3.2l-4.5-4.5c-0.6-0.6-1.6-0.6-2.3,0c-0.6,0.6-0.6,1.6,0,2.3l4.5,4.5l-3.6,3.6
			c-0.6,0.6-0.6,1.6,0,2.3c0.6,0.6,1.6,0.6,2.3,0l3.6-3.6l5.9,5.9c0.6,0.6,1.6,0.6,2.3,0c0.6-0.6,0.6-1.6,0-2.3l-5.9-5.9l4.1-4.1
			c0.6-0.6,0.6-1.6,0-2.3c-0.2-0.2-0.5-0.3-0.8-0.3c0-0.4-0.1-0.9-0.4-1.2l-6.2-6.2l2.2-2.2c0.6-0.6,0.6-1.6,0-2.3
			c-0.6-0.6-1.6-0.6-2.3,0l-2.2,2.2l-2.1-2.1c-0.6-0.6-1.6-0.6-2.3,0c-0.6,0.6-0.6,1.6,0,2.3L285.1,382.9z"/>
		<path class="st0" d="M270.2,91.2c-0.5,0.6-0.5,1.6,0.1,2.1l8.8,8.8c0.3,0.3,0.7,0.5,1.1,0.5s0.8-0.2,1.1-0.5
			c0.6-0.6,0.6-1.6,0-2.3l-8.8-8.8c-0.2-0.2-0.5-0.2-0.7-0.3l6.3-6.3l2.8,2.8c1.5,1.5,3.8-0.8,2.3-2.3l-2.8-2.8l0.9-0.9
			c0.6-0.6,0.6-1.6,0-2.3c-0.6-0.6-1.6-0.6-2.3,0l-0.9,0.9c-1.7-1.7-3.8-4.8-5.4-3.2c-0.6,0.6-0.6,1.6,0,2.3l3.2,3.2l-6.4,6.4
			c-0.6,0.6-0.6,1.6,0,2.3C269.6,91.1,269.9,91.1,270.2,91.2L270.2,91.2z"/>
	</g>
</g>
</svg>
