<?xml version="1.0" encoding="utf-8"?>
<!-- Generator: Adobe Illustrator 25.0.0, SVG Export Plug-In . SVG Version: 6.00 Build 0)  -->
<svg version="1.1" id="Layer_1" xmlns:svgjs="http://svgjs.com/svgjs"
	 xmlns="http://www.w3.org/2000/svg" xmlns:xlink="http://www.w3.org/1999/xlink" x="0px" y="0px" viewBox="0 0 512 512"
	 style="enable-background:new 0 0 512 512;" xml:space="preserve">
<style type="text/css">
	.st0{fill:#F64E60;}
</style>
<g>
	<g>
		<path class="st0" d="M40.2,418.1c44.4,26.1,65.2,18.7,83-20.5l108.6-238.1c4.5-9.8,8.6-19.9,9.7-29.9c-0.1,9.5-0.2,20.1-0.2,31.5
			c-0.1,30.2,0.5,1.8-6.6,240.7c-0.8,28,6.7,39.9,37.2,42.3c16.8,1.4,34.4,1.9,52.4,1.5c27.2-0.7,34.3-11,34.7-35.8l4.3-302.7
			c0.4-30.7-9.5-41.2-41.3-40.7L284.8,67c-43.3,0.8-42.3,16.4-43.1,54.8c-1.6-23.5-21.9-33.6-44.1-41.4c-34-12-61.4-14.3-77.6,18.2
			c-3,6-93.4,221.7-105.1,250.9C2,381.4,4.7,397.2,40.2,418.1L40.2,418.1z M242.5,402c7.1-238.4,6.4-210.5,6.6-240.9
			c0.4-77.4-4.3-85.5,35.8-86.3l37.3-0.7c27-0.4,33.8,6.3,33.4,32.8l-4.3,302.7c-0.3,21-4.7,27.6-27.1,28.2
			c-17.1,0.4-34.5-0.1-51.5-1.4C246.8,434.2,241.8,426.4,242.5,402L242.5,402z M22,352.4C36,317.6,124.5,107,126.9,102.1
			c13.8-27.6,36.5-25.5,68.1-14.4c42.1,14.8,46.9,31,29.8,68.5L116.2,394.4c-15.1,33.2-30,41.7-72,17
			C11.8,392.4,10.7,380.4,22,352.4L22,352.4z"/>
		<path class="st0" d="M101.9,385.1c22-18.7,12.3-55.2-16.3-60.2c-12.7-2.2-26.6,3.8-35.6,15.4c-8,10.3-9.9,22.7-5.2,33.2
			C54.2,394.2,83.8,400.5,101.9,385.1z M55.1,346.5l3.9,3.9l-3.5,3.5l-2.7-2.6c-0.1-0.1-0.3-0.1-0.4-0.2
			C53.2,349.5,54.1,348,55.1,346.5L55.1,346.5z M60.6,340.3l4.2,4.2l-3.1,3.1l-4.2-4.2C58.5,342.3,59.5,341.3,60.6,340.3z
			 M52.8,356.6l-0.2,0.2c-0.8,0.8-0.8,2,0,2.7c0.8,0.8,2,0.8,2.7,0l0.2-0.2l7.5,7.5l-2.9,2.9l-7.5-7.5c-0.7-0.7-1.8-0.7-2.6-0.1
			c-0.1-2.4,0.2-4.9,1-7.4L52.8,356.6z M51.9,370.3c-0.7-1.6-1.2-3.2-1.5-4.8l7,7l-2.6,2.6C53.7,373.5,52.6,372,51.9,370.3z
			 M96.9,379.2c-10.5,9-28.2,9.3-39.5-1.3l2.7-2.7l1.6,1.6c0.8,0.8,2,0.8,2.7,0c0.8-0.8,0.8-2,0-2.7l-1.6-1.6l3.8-3.8
			c0.2-0.1,0.5-0.1,0.7-0.3c0.2-0.2,0.2-0.4,0.3-0.7l3.4-3.4c0.8-0.8,0.8-2,0-2.7c-0.8-0.8-2-0.8-2.7,0l-2.5,2.5l-7.5-7.5l3.5-3.5
			l3.3,3.3c0.8,0.8,2,0.8,2.7,0c0.8-0.8,0.8-2,0-2.7l-3.3-3.4l3.1-3.1l4.7,4.7c0.8,0.8,2,0.8,2.7,0c0.8-0.8,0.8-2,0-2.7l-4.7-4.7
			l1.1-1.1c0.8-0.8,0.8-2,0-2.7c-0.8-0.8-2-0.8-2.7,0l-1.1,1.1l-3.9-3.9c2.1-1.4,4.2-2.6,6.5-3.6c0,0,0,0.1,0,0.1l6.6,6.6l-0.7,0.7
			c-0.8,0.8-0.8,2,0,2.7c0.8,0.8,2,0.8,2.7,0l0.7-0.7l1.6,1.6c0.8,0.8,2,0.8,2.7,0c0.8-0.8,0.8-2,0-2.7l-1.6-1.6l4.8-4.8l2.4,2.4
			l-2.3,2.4c-0.8,0.8-0.8,2,0,2.7s2,0.8,2.7,0l2.4-2.4l3.1,3.1c0.8,0.8,2,0.8,2.7,0c0.8-0.8,0.8-2,0-2.7l-2.7-2.7l0,0
			c0.4-0.2,0.6-0.5,0.8-0.9C111.3,350.3,107.6,370.1,96.9,379.2L96.9,379.2z M92.6,336.2l-1.3-1.3c0.6,0.3,1.2,0.7,1.7,1
			c-0.1,0.1-0.2,0.1-0.2,0.2C92.7,336.1,92.6,336.2,92.6,336.2z M83.4,332.5c0,0,0,0.1,0.1,0.1l0.8,0.8l-4.8,4.8l-5.2-5.2
			c2-0.5,4.1-0.8,6.1-0.8C81.4,332.2,82.4,332.4,83.4,332.5L83.4,332.5z"/>
		<path class="st0" d="M134.8,324.7c0.1,0,0.2,0,0.4,0c1.5,0,2.9-0.9,3.5-2.3c29.1-65.4,55.1-133.2,84.2-198.6c0.9-2,0-4.3-2.1-5.2
			c-21.5-8.8-45.7-18.4-67.6-27.4c-1.9-0.8-4.1,0.1-5,2l-24.3,53.8c-1.1,1.1-2,1.7-1.4,3.2L58.7,291.5c-0.8,1.7-0.2,3.6,1.2,4.7
			C81.7,312,108.2,322.1,134.8,324.7L134.8,324.7z M74.4,275.6l2.8,2.8l-7.3,7.3L74.4,275.6z M94.9,230.2l0.7,0.7
			c-0.2,0.7-0.2,1.4,0.3,1.9c0.8,0.8,1.3,0.6,1.9,0.3l1.6,1.6l-12.1,12.1L94.9,230.2z M106.2,205.1l7.3,7.3l-15.4,15.4l-1.5-1.5
			L106.2,205.1z M82.9,256.8l2.4-2.4l8,8c0,0-0.1,0-0.1,0l-13.2,13.2l-3.8-3.8L82.9,256.8z M214.2,124.4
			c-28.2,63.5-53.4,129.1-81.5,192.3c-22.9-2.7-46.4-11.7-65.5-24.9c0.3,0.1,0.5,0.3,0.8,0.3c0.5,0,1-0.2,1.4-0.6l10.5-10.5l2.4,2.4
			c0.8,0.8,2,0.8,2.7,0s0.8-2,0-2.7l-2.4-2.4l13.2-13.2c0.6-0.6,0.6-1.5,0.2-2.2c0.1-0.1,0.2,0,0.3-0.1c0.8-0.8,0.8-2,0-2.7
			l-8.4-8.4l14.2-14.2l1,1c0.8,0.8,2,0.8,2.7,0s0.8-2,0-2.7l-1-1l2.2-2.2c0.8-0.8,0.8-2,0-2.7c-0.8-0.8-2-0.8-2.7,0l-2.2,2.2
			l-1.4-1.4l15.4-15.4l1,1c0.8,0.8,2,0.8,2.7,0c0.8-0.8,0.8-2,0-2.7l-1-1l1.8-1.8c0.8-0.8,0.8-2,0-2.7s-2-0.8-2.7,0l-1.8,1.8
			l-8.3-8.3l9.8-21.8l6.2,6.2l-11.9,11.9c-0.8,0.8-0.8,2,0,2.7c0.8,0.8,2,0.8,2.7,0l11.9-11.9l1.6,1.6c0.8,0.8,2,0.8,2.7,0
			c0.8-0.8,0.8-2,0-2.7l-11.6-11.6l1.1-2.5l10.6-10.6l4.7,4.7c0.8,0.8,2,0.8,2.7,0s0.8-2,0-2.7l-4.7-4.7l3-3c0.8-0.8,0.8-2,0-2.7
			s-2-0.8-2.7,0l-3,3l-2.3-2.3l6-13.2l2.1-2.1l6.7,6.7c0.8,0.8,2,0.8,2.7,0c0.8-0.8,0.8-2,0-2.7l-6.7-6.7l9.5-9.5
			c0.8,0.8,2,0.8,2.8,0c0.8-0.8,0.8-2,0-2.7l-0.8-0.8c-0.1-0.3-0.1-0.6-0.3-0.8s-0.5-0.2-0.8-0.3l-4.5-4.5l6.4-14.2l2.8,2.8
			l-6.3,6.3c-0.8,0.8-0.8,2,0,2.7s2,0.8,2.7,0l6.3-6.3l3.6,3.6c0.8,0.8,2,0.8,2.7,0s0.8-2,0-2.7l-3.6-3.6l3-3
			C191.5,115.2,197.9,117.7,214.2,124.4L214.2,124.4z M127.2,158.6l1.3,1.3l-3.4,3.4L127.2,158.6z M143.8,121.9l2.7,2.7l-7,7
			L143.8,121.9z M159.4,102.2l-1.9,1.9l-3.9-3.9l0.1-0.3C155.6,100.6,157.5,101.4,159.4,102.2z"/>
		<path class="st0" d="M300.8,343.3c-13.3,1.4-24.5,9.3-29.2,20.7c-4.3,10.4-2.4,21.8,5.3,31.2c19.8,24.4,59.8,9.7,59.1-21.7
			C335.6,354.6,319.9,341.4,300.8,343.3z M312.3,352.1c-0.4,0-0.9,0.2-1.2,0.5c-0.4-0.4-0.9-0.6-1.4-0.6c-0.3,0-1,0.2-1.4,0.6
			l-0.8,0.8l-2.3-2.3C307.7,351.1,310,351.4,312.3,352.1L312.3,352.1z M284.7,364.5c0.8,0.8,2,0.8,2.7,0l2.8-2.8l8,8l-6.6,6.6
			l-11.3-11.3c-0.1-0.1-0.3-0.1-0.5-0.2c1.5-2.8,3.6-5.3,6.1-7.4l1.5,1.5l-2.8,2.8C284,362.6,284,363.8,284.7,364.5z M289.2,355.2
			c1.4-0.8,2.8-1.6,4.3-2.1l-3.2,3.2L289.2,355.2z M278.3,368.5l10.6,10.6l-8.1,8.1C277.1,381.2,276.3,374.7,278.3,368.5z
			 M283.1,390.3l8.5-8.5l3.3,3.3c0.8,0.8,2,0.8,2.7,0c0.8-0.8,0.8-2,0-2.7l-3.3-3.3l7.3-7.3c0.9-0.2,1.6-0.7,1.5-1.9
			c0.2-0.7,0.2-1.4-0.3-1.9c-0.4-0.4-0.9-0.6-1.4-0.5L293,359l5.6-5.6c0.5-0.5,0.6-1.3,0.3-1.9c0.4-0.1,0.7-0.1,1.1-0.2l4.7,4.7
			l-1,1c-0.8,0.8-0.8,2,0,2.7c0.8,0.8,2,0.8,2.7,0l1-1l4.6,4.6c0.8,0.8,2,0.8,2.7,0c0.8-0.8,0.8-2,0-2.7l-4.3-4.3
			c0.2,0,0.3,0.1,0.5,0.1c1,0.1,2.1-0.4,2.8-1.1c0.7-0.7,0.6-1.7,0.1-2.5c9.8,3.9,14.1,12.5,14.3,20.8
			C328.9,397.6,298.4,409,283.1,390.3L283.1,390.3z"/>
		<path class="st0" d="M304.6,321c26.7,0,39.1-7.9,38.3-42.4l-3.8-164c-0.4-17.6-6.8-29.4-37.7-28.6c-30.1,0.6-42.3,9.2-42.1,37
			c0,51.6,0,105,3.6,159.1C264.9,311.8,274.5,321,304.6,321L304.6,321z M267.1,121.4l5.1,5.1l-5.1,5.1
			C267.1,131.7,267.1,121.4,267.1,121.4z M267.1,140.7l4.7,4.7l-4.6,4.6C267.1,146.8,267.1,143.7,267.1,140.7z M268.5,201.2
			l-0.9-0.9c-0.1-5.4-0.1-10.8-0.2-16.2l8.1,8.1c0.2,0.2,0.6,0.3,0.9,0.4l-7.3,7.3C268.6,200.1,268.5,200.6,268.5,201.2L268.5,201.2
			z M271,255.3c-0.5-0.3-1.1-0.3-1.7-0.1c-0.1-2.9-0.3-5.8-0.4-8.6l5.4,5.4L271,255.3z M268.6,240.8c-0.2-4.7-0.2-9.4-0.4-14.1
			l1.1,1.1V241c0,0.4,0.2,0.8,0.4,1.1L268.6,240.8z M267.5,178.9c0,0-0.1,0-0.1-0.1c0-5.1-0.1-10.3-0.2-15.4l7.9,7.9L267.5,178.9z
			 M331.3,114.8l3.8,164c0.7,29.8-8,34.5-30.5,34.5c-20.9,0-30.7-3.4-33.3-24.3c1,0,1.9-0.9,1.9-1.9v-6.5l1.4,1.4
			c0.8,0.8,2,0.8,2.7,0c0.8-0.8,0.8-2,0-2.7l-4.1-4.1v-9.4c0-1.1-0.9-1.9-1.9-1.9c-0.6,0-1.1,0.3-1.5,0.8c0-0.9-0.1-1.8-0.1-2.7
			c0.2-0.1,0.4-0.1,0.6-0.3l0.8-0.8l4.1,4.1c0.8,0.8,2,0.8,2.7,0c0.8-0.8,0.8-2,0-2.7l-4.1-4.1l9-9c0.8-0.8,0.8-2,0-2.7
			c-0.8-0.8-2-0.8-2.7,0l-3.1,3.1l-6.8-6.8c0.3,0.2,0.7,0.4,1.1,0.4c1.1,0,1.9-0.9,1.9-1.9v-9.2l1.6,1.6c0.8,0.8,2,0.8,2.7,0
			c0.8-0.8,0.8-2,0-2.7l-4.2-4.2l11.3-11.3c0.8-0.8,0.8-2,0-2.7c-0.8-0.8-2-0.8-2.7,0l-11.3,11.3l-2.4-2.4c0,0-0.1,0-0.1-0.1
			c-0.1-5.1-0.3-10.3-0.4-15.4l6.5,6.5c0.8,0.8,2,0.8,2.7,0c0.8-0.8,0.8-2,0-2.7l-6.6-6.6c0,0,0,0,0.1,0c0.5,0,1-0.2,1.4-0.6
			l8.5-8.6c0.4-0.6,0.8-1.3,1.1-2c0.3-0.6,0.6-1.1,0.9-1.6c0.6-0.9,0.3-2.1-0.6-2.7c-0.9-0.6-2.1-0.3-2.7,0.6
			c-0.3,0.4-0.5,0.9-0.8,1.3c-0.1-0.1,0-0.2-0.1-0.2l-7.8-7.8l15.2-15.2c0.8-0.8,0.8-2,0-2.7c-0.8-0.8-2-0.8-2.7,0l-5.1,5.1
			l-9.8-9.8c-0.2-0.2-0.5-0.2-0.8-0.3c0-1,0-2,0-2.9l7.4-7.4l3.5,3.5c0.8,0.8,2,0.8,2.7,0c0.8-0.8,0.8-2,0-2.7l-3.5-3.5l1.5-1.5
			c0.8-0.8,0.8-2,0-2.7c-0.8-0.8-2-0.8-2.7,0l-1.5,1.5l-5.4-5.4c-0.6-0.6-1.3-0.6-2-0.3c0-0.1,0-0.2,0-0.3c0.4-0.1,0.8-0.2,1.1-0.5
			l6.7-6.7l4.8,4.8c0.8,0.8,2,0.8,2.7,0c0.8-0.8,0.8-2,0-2.7l-4.8-4.8l3.3-3.3c0.8-0.8,0.8-2,0-2.7c-0.8-0.8-2-0.8-2.7,0l-3.3,3.3
			c-0.9-0.9-6.6-6.9-7.8-7.2c0.4-8.5,2.4-11.9,5-14.6l4.8,4.8l-5.3,5.3c-0.8,0.8-0.8,2,0,2.7c0.8,0.8,2,0.8,2.7,0l5.3-5.3l4.9,4.9
			c0.8,0.8,2,0.8,2.7,0c0.8-0.8,0.8-2,0-2.7l-4.9-4.9l4.2-4.2c0.8-0.8,0.8-2,0-2.7c-0.8-0.8-2-0.8-2.7,0l-4.2,4.2l-4.6-4.6
			c3.2-2.2,7.3-3.6,11.7-4.4c0.1,0.2,0.1,0.4,0.2,0.6l5.8,5.8c-0.6,0.8-0.6,1.8,0.1,2.5c0.7,0.7,1.6,0.8,2.5,0.1
			c0.9,0.8,2,0.6,2.6,0c0.7-0.7,0.7-1.8,0.1-2.5l5.4-5.4c0.1-0.1,0.1-0.3,0.2-0.5l5.3,5.3c0.8,0.8,2,0.8,2.7,0
			c0.1-0.1,0.1-0.2,0.1-0.4c0.1,0,0.2,0.1,0.4,0.1c0.5,0,1-0.2,1.4-0.6l1.9-1.9l4.8,4.8c0.8,0.8,2,0.8,2.7,0c0.8-0.8,0.8-2,0-2.7
			l-4.8-4.8l0.2-0.2C331,98.7,331.2,106.6,331.3,114.8L331.3,114.8z M311.8,94.4l1,1l-1.8,1.8l-3.5-3.5c1.4,0.1,2.8,0.1,4.2,0.3
			C311.7,94.1,311.7,94.3,311.8,94.4L311.8,94.4z M295.5,98.6l-4.2-4.2c3-0.3,6.1-0.5,9.1-0.6L295.5,98.6z"/>
		<path class="st0" d="M462.9,66.4L425.7,67c-48.5,0.9-43.1,17.3-43.5,94c-0.1,30.2,0.5,1.8-6.6,240.7c-0.8,28,6.7,39.9,37.2,42.3
			c16.6,1.3,34.3,1.9,52.4,1.5c27.1-0.7,34.4-11,34.7-35.8l4.3-302.7C504.6,76.8,495.1,65.8,462.9,66.4L462.9,66.4z M496.4,106.9
			l-4.3,302.7c-0.3,21.2-4.8,27.6-27.2,28.2c-17.1,0.4-34.5,0-51.5-1.4c-25.7-2.1-30.7-10-30-34.4c7.1-239,6.4-210.1,6.6-240.9
			c0.4-78-4.2-85.6,35.8-86.3l37.3-0.7C490.1,73.7,496.8,80.4,496.4,106.9z"/>
		<path class="st0" d="M441.7,343.3c-11,1.1-20.4,6.8-26.1,15.1c-0.3,0.1-0.7,0.1-1,0.4c-0.5,0.5-0.5,1.1-0.4,1.8
			c-0.6,1.1-1.2,2.2-1.7,3.4c-4.3,10.4-2.4,21.8,5.3,31.2c8.7,10.7,24.3,15,37.3,10.2c12.9-4.8,22.1-18.2,21.8-32
			C476.5,354.5,460.6,341.4,441.7,343.3L441.7,343.3z M449,351.2l-0.7,0.7l-0.9-0.9C447.9,351,448.4,351.1,449,351.2L449,351.2z
			 M435.4,352.6L434,354l-0.6-0.6C434.1,353.2,434.7,352.9,435.4,352.6L435.4,352.6z M429.8,355.3l1.4,1.4l-8,8l-1.6-1.6
			C423.8,360,426.5,357.4,429.8,355.3L429.8,355.3z M426,392.5l12.2-12.2c0.8-0.8,0.8-2,0-2.7c-0.8-0.8-2-0.8-2.7,0l-12.1,12.1
			c-5.5-7.1-6.8-15.1-3.7-22.7c0-0.1,0.1-0.1,0.1-0.2l0.8,0.8c-0.7,0.8-0.7,2,0,2.7c0.7,0.7,1.9,0.8,2.7,0l7.3,7.3
			c0.8,0.8,2,0.8,2.7,0c0.8-0.8,0.8-2,0-2.7l-7.3-7.3l8-8l6.1,6.1c0.8,0.8,2,0.8,2.7,0c0.8-0.8,0.8-2,0-2.7l-6.1-6.1l1.7-1.7
			c0.8-0.8,0.8-2,0-2.7c-0.2-0.2-0.6-0.3-0.9-0.4c1.4-0.4,2.9-0.7,4.4-0.9l3.6,3.6l-2.6,2.6c-0.8,0.8-0.8,2,0,2.7
			c0.8,0.8,2,0.8,2.7,0l2.6-2.6l4.3,4.3c0.8,0.8,2,0.8,2.7,0c0.8-0.8,0.8-2,0-2.7l-4.3-4.3l2.2-2.2c0.1-0.1,0.1-0.2,0.1-0.3
			c10.3,3.3,15.6,12.3,15.8,21.5C469.7,395.5,443.1,408.7,426,392.5L426,392.5z"/>
		<path class="st0" d="M442.3,85.9c-35.2,0.8-42.3,13.5-42.1,37c0,51.6,0,105,3.6,159.1c2,29.8,11.5,39,41.7,39
			c26.7,0,39.1-7.9,38.3-42.4l-3.8-164C479.4,91.7,466.6,85.3,442.3,85.9L442.3,85.9z M446.7,93.7c0.7,0,1.3,0,2,0l-1,1L446.7,93.7z
			 M436.8,93.9l-3.1,3.1l-2.6-2.6C433,94.2,434.9,94.1,436.8,93.9z M412.8,102.4l0.8,0.8l-3.3,3.3c0.2-0.5,0.4-1.1,0.7-1.6
			C411.4,103.9,412.1,103.1,412.8,102.4z M409,161.6c0.8,0.8,2,0.8,2.7,0l1-1l5.7,5.7l-9,9v0l-1.2,1.2c-0.1-6.9-0.1-13.8-0.2-20.6
			l2,2l-1,1C408.3,159.6,408.3,160.8,409,161.6z M408.4,198.1c0.1,0.2,0.1,0.4,0.3,0.6l0.8,0.8l-1,1
			C408.4,199.7,408.4,198.9,408.4,198.1z M411.4,195.9c-0.8-0.8-2-0.8-2.7,0c-0.2,0.2-0.2,0.4-0.3,0.7c-0.1-5-0.1-10-0.1-14.9
			c0.1-0.1,0.3-0.1,0.4-0.2l2.1-2.1l9.4,9.4l-8,8L411.4,195.9z M408.7,151c-0.2-0.2-0.4-0.2-0.6-0.3c0-2.8,0-5.6,0-8.5l6.3-6.3
			l8.8,8.8l-10.3,10.3L408.7,151z M408,136.8c0-2.4,0-4.8,0-7.2l3.6,3.6L408,136.8z M472.2,114.8l3.8,164c0.7,29.8-8,34.5-30.5,34.5
			c-25.8,0-32.2-6-33.9-31.8c-0.3-4.8-0.5-9.5-0.7-14.3c0.9,0.7,1.9,0.6,2.5-0.1l22.8-22.8c0.8-0.8,0.8-2,0-2.7
			c-0.8-0.8-2-0.8-2.7,0l-10.8,10.8l-8.8-8.8c-0.8-0.8-2-0.8-2.7,0c-0.8,0.8-0.8,2,0,2.7l8.8,8.8l-9.1,9.1c-0.5-9.5-1-18.9-1.3-28.4
			l6.5-6.5l3.1,3.1c0.8,0.8,2,0.8,2.7,0c0.8-0.8,0.8-2,0-2.7l-3.1-3.1l13.2-13.2c0.8-0.8,0.8-2,0-2.7c-0.8-0.8-2-0.8-2.7,0
			l-13.2,13.2l-2.9-2.9c-0.8-0.8-2-0.8-2.7,0c-0.8,0.8-0.8,2,0,2.7l2.9,2.9l-3.9,3.9c-0.3-8.9-0.6-17.7-0.7-26.5
			c0.2,0.1,0.5,0.3,0.7,0.3c0.5,0,1-0.2,1.4-0.6l1.6-1.6l7.1,7.1c0.8,0.8,2,0.8,2.7,0c0.8-0.8,0.8-2,0-2.7l-7.1-7.1l15.1-15.1
			c0.8-0.8,0.8-2,0-2.7c-0.8-0.8-2-0.8-2.7,0l-4.4,4.4l-9.4-9.4l7.9-7.9c0.7,0.2,1.2,0.5,2-0.3c0.5-0.5,0.6-1.3,0.3-2l0.4-0.4
			c0.8-0.8,0.8-2,0-2.7c-0.8-0.8-2-0.8-2.7,0l-0.2,0.2l-5.7-5.7l14.4-14.4c0.8-0.8,0.8-2,0-2.7c-0.8-0.8-2-0.8-2.7,0l-1.3,1.3
			l-8.8-8.8l8.3-8.3c0.8-0.8,0.8-2,0-2.7c-0.8-0.8-2-0.8-2.7,0l-8.3,8.3l-6.3-6.3c0-0.4,0-0.8,0-1.2c0,0,0,0,0,0c0-2.9,0-6,0.3-9
			l8-8l11.6,11.6c0.8,0.8,2,0.8,2.7,0c0.8-0.8,0.8-2,0-2.7L419,103.1l1.6-1.6c0.8-0.8,0.8-2,0-2.7c-0.8-0.8-2-0.8-2.7,0l-1.6,1.6
			l-0.6-0.6c3-2.2,6.7-3.6,10.8-4.4l4.5,4.5l-2.7,2.7c-0.8,0.8-0.8,2,0,2.7c0.8,0.8,2,0.8,2.7,0l2.7-2.7l2.9,2.9
			c0.8,0.8,2,0.8,2.7,0c0.8-0.8,0.8-2,0-2.7l-2.9-2.9l3.9-3.9c0.6-0.6,0.6-1.4,0.2-2.1c0.3,0,0.7,0,1.1,0c0.1,0.2,0.1,0.4,0.3,0.6
			l3.1,3.1l-3.5,3.5c-0.8,0.8-0.8,2,0,2.7c0.8,0.8,2,0.8,2.7,0l3.5-3.5l2.9,2.9c0.8,0.8,2,0.8,2.7,0c0.8-0.8,0.8-2,0-2.7l-2.9-2.9
			l2.4-2.4c0.3-0.3,0.3-0.6,0.4-0.9C472.1,96.3,472,106.1,472.2,114.8L472.2,114.8z"/>
	</g>
</g>
</svg>
