<?xml version="1.0"?>
<svg xmlns="http://www.w3.org/2000/svg" xmlns:xlink="http://www.w3.org/1999/xlink" xmlns:svgjs="http://svgjs.com/svgjs" version="1.1" width="512" height="512" x="0" y="0" viewBox="0 0 66 66" style="enable-background:new 0 0 512 512" xml:space="preserve" class=""><g><g xmlns="http://www.w3.org/2000/svg"><path d="m2.262 48.779c.16 4.694 1.253 7.406 8.669 8.214 14.588 1.588 29.39 1.611 43.993.065 7.013-.743 9.376-2.922 9.533-11.06l.533-27.74c.12-6.268-1.438-8.783-8.58-9.471-20.229-1.952-47.476-.812-51.617 1.69-3.85 2.325-3.901 7.626-3.746 9.797.674 9.406.894 18.984 1.215 28.505zm13.563 3.104c-.137-.027-.247-.027-.401.096-.805.101-1.337-.511-1.552-1.105-.248-.689-.169-1.601.592-1.978 1-.492 2.86-.719 3.211.597.115.436.024.933-.242 1.328-.001 0-.001 0-.001 0-.325.482-.895.847-1.607 1.062zm34.947 0c-.031-.006-.061-.019-.094-.019-.118 0-.222.047-.307.115-.803.101-1.337-.511-1.552-1.105-.248-.689-.169-1.601.592-1.978 1-.492 2.86-.719 3.211.597.115.436.024.933-.242 1.328-.001 0-.001 0-.001 0-.325.482-.895.847-1.607 1.062zm4.047 4.18c-1.031.109-2.064.192-3.097.286l.967-.967.595.595c.097.097.255.098.354 0 .098-.098.098-.256 0-.354l-.595-.595.567-.566 1.202 1.202v.001c.001.001.001 0 .001.001l.342.342c.009.009.023.006.032.013-.123.014-.246.029-.368.042zm.421-3.232 1.026 1.026-1.277 1.277-1.026-1.026zm2.753 2.047-1.02-1.021 1.528-1.528.901.901-.827.827c-.098.098-.098.256 0 .354.097.097.255.098.354 0l.826-.827.821.821c.007.007.018.005.026.011-1.399.988-3.238 1.345-5.084 1.567.078-.098.081-.238-.01-.329l-.166-.166 1.277-1.277 1.02 1.021c.097.097.255.098.354 0 .098-.098.098-.256 0-.354zm2.747-2.985-.984.985-.901-.901.984-.984zm2.521-7.765c.094.094.149.071.231.051l-.035 1.799c-.005.237-.013.475-.021.713l-1.53-1.53 1.194-1.193zm-57.95-32.796c3.556-2.149 25.262-2.582 29.532-2.582 7.172 0 14.344.343 21.472 1.03 6.55.633 7.788 2.675 7.676 8.457l-.489 25.424-1.228-1.228c-.098-.098-.256-.098-.354 0s-.098.256 0 .354l.827.827-1.329 1.328c-.098.098-.098.256 0 .354.005.005.013.003.018.007.004.058.022.116.066.16l1.592 1.592c.085.085.214.106.332.009-.106 2.637-.466 5.38-2.467 7.059-.012-.023-.01-.051-.029-.071l-.821-.821.984-.985.514.514c.099.099.257.096.354 0 .098-.098.098-.256 0-.354l-.514-.514.964-.965c.098-.098.098-.256 0-.354s-.256-.098-.354 0l-.964.965-1.662-1.663c-.098-.098-.256-.098-.354 0s-.098.256 0 .354l.408.408-.984.984-.492-.492c-.098-.098-.256-.098-.354 0s-.098.256 0 .354l.492.492-1.528 1.528-1.145-1.145c-.012-.028-.011-.059-.034-.082s-.054-.022-.082-.034l-.026-.026c-.098-.098-.256-.098-.354 0-.061.061-.07.143-.055.222l-1.392 1.392c-.051.008-.103.019-.142.059-.039.039-.051.091-.059.142l-.643.643-.2-.2c-.099-.098-.257-.096-.354 0-.098.098-.098.256 0 .354l.2.199-1.12 1.119c-.025.025-.026.06-.038.092v-3.442c.878-.288 1.596-.774 2.03-1.418.425-.631.567-1.432.38-2.143-.169-.64-.586-1.153-1.175-1.444-.987-.491-2.482-.269-3.445.206-1.312.648-1.484 2.12-1.09 3.213.341.946 1.162 1.787 2.3 1.788v3.491c-11.285.935-22.663.939-33.947.001v-3.695c.878-.288 1.596-.774 2.03-1.418.425-.631.567-1.432.38-2.143-.514-1.946-2.931-2.071-4.62-1.238-1.312.648-1.484 2.12-1.09 3.213.341.946 1.162 1.787 2.3 1.788v3.397c-1.399-.123-2.797-.248-4.192-.399-7.173-.782-7.644-3.343-7.776-7.254-.315-9.173-.531-18.962-1.217-28.542-.141-1.984-.109-6.827 3.268-8.867z" fill="#707070" data-original="#000000" style=""/><path d="m13.04 43.291c3.547.266 7.17.265 10.72-.001 4.364-.327 5.227-2.051 5.128-5.435l-.402-13.711.016-.016c.098-.098.098-.256 0-.354-.007-.007-.019-.005-.027-.011l-.011-.378c-.144-4.928-1.745-7.651-7.088-6.896-1.061.15-4.295.116-6.435.095-4.78-.046-6.834.571-7.032 5.917l-.531 14.47c-.151 4.16.956 5.97 5.662 6.32zm-1.619-1.216.432-.432.589.589c-.349-.038-.691-.087-1.021-.157zm1.932.233 1.227-1.227 1.342 1.342c.015.015.037.012.055.023-.877-.03-1.752-.076-2.624-.138zm6.125.021-1.428-1.429 1.335-1.335 1.161 1.162-1.122 1.122c-.098.098-.098.256 0 .354.097.097.255.098.354 0l1.122-1.122 1.295 1.296c-.885.047-1.771.078-2.659.093-.008-.051-.019-.103-.058-.141zm4.208-.036c-.374.028-.749.041-1.124.063.078-.098.081-.238-.01-.329l-1.299-1.299 1.941-1.941 1.594 1.594-.862.862c-.098.098-.098.256 0 .354.097.097.255.098.354 0l.862-.862.925.925c.097.097.255.098.354 0 .098-.098.098-.256 0-.354l-.925-.925 1.594-1.594.17.17c.097.097.255.098.354 0 .098-.098.098-.256 0-.354l-.17-.17.446-.447c.076 2.794-.447 4.025-4.204 4.307zm-.139-3.86 1.594-1.594 1.594 1.594-1.594 1.594zm3.784-16.907-.277-.277.205-.205c.027.159.051.319.072.482zm.368 9.891-1.342-1.341c-.032-.032-.076-.038-.117-.049l1.378-1.378zm-19.321 5.592.531-14.469c.176-4.783 1.815-4.997 6.022-4.955 2.3.024 5.449.057 6.585-.105 2.889-.41 4.916.206 5.619 2.979l-.435.436-.169-.169c-.098-.098-.256-.098-.354 0s-.098.256 0 .354l.169.169-.083.083c-.236.236.124.583.354.354l.083-.083.709.709c.026.37.045.741.055 1.103l.025.867-1.133-1.132c-.098-.098-.256-.098-.354 0s-.098.256 0 .354l1.209 1.208-.949.949c-.098.098-.098.256 0 .354.097.097.255.098.354 0l.898-.898.062 2.109-.959-.959c-.098-.098-.256-.098-.354 0s-.098.256 0 .354l1.334 1.334v.009l-1.767 1.767c-.098.098-.098.256 0 .354.04.04.093.053.145.06-.049.094-.051.207.028.286l1.717 1.716.07 2.393-.78-.78.226-.226c.098-.098.098-.256 0-.354s-.256-.098-.354 0l-.226.226-.645-.645c-.098-.098-.256-.098-.354 0s-.098.256 0 .354l.645.645-.559.559c-.098.098-.098.256 0 .354.097.097.255.098.354 0l.559-.559 1.155 1.155.068 2.325c-.098-.07-.23-.073-.318.015l-.473.473-1.594-1.594.172-.172c.098-.098.098-.256 0-.354s-.256-.098-.354 0l-.172.172-.256-.256c-.098-.098-.256-.098-.354 0s-.098.256 0 .354l.256.256-1.594 1.594-.646-.646c-.098-.098-.256-.098-.354 0s-.098.256 0 .354l.646.646-1.941 1.941-1.161-1.162 2.72-2.72c.098-.098.098-.256 0-.354s-.256-.098-.354 0l-2.72 2.72-.126-.126c-.098-.098-.256-.098-.354 0s-.098.256 0 .354l.126.126-1.335 1.335-.949-.949c-.098-.098-.256-.098-.354 0s-.098.256 0 .354l.949.949-.516.516c-.098.098-.098.256 0 .354.097.097.255.098.354 0l.516-.516 1.227 1.227c-.905.007-1.809-.003-2.713-.031.184-.098.169-.277.065-.381l-1.342-1.342 2.815-2.815c.098-.098.098-.256 0-.354s-.256-.098-.354 0l-2.815 2.815-.429-.429c-.098-.098-.256-.098-.354 0s-.098.256 0 .354l.429.429-1.292 1.292-.729-.729 3.039-3.039c.098-.098.098-.256 0-.354s-.256-.098-.354 0l-3.039 3.039-.473-.473c-.098-.098-.256-.098-.354 0s-.098.256 0 .354l.473.473-.643.643c-2.371-.722-2.563-2.473-2.472-4.928z" fill="#707070" data-original="#000000" style=""/><path d="m34.162 19.819h23.826c.276 0 .5-.224.5-.5s-.224-.5-.5-.5h-23.826c-.276 0-.5.224-.5.5s.224.5.5.5z" fill="#707070" data-original="#000000" style=""/><path d="m34.162 24.621h23.826c.276 0 .5-.224.5-.5s-.224-.5-.5-.5h-23.826c-.276 0-.5.224-.5.5s.224.5.5.5z" fill="#707070" data-original="#000000" style=""/><path d="m34.162 29.423h23.826c.276 0 .5-.224.5-.5s-.224-.5-.5-.5h-23.826c-.276 0-.5.224-.5.5s.224.5.5.5z" fill="#707070" data-original="#000000" style=""/><path d="m34.162 34.686h23.826c.276 0 .5-.224.5-.5s-.224-.5-.5-.5h-23.826c-.276 0-.5.224-.5.5s.224.5.5.5z" fill="#707070" data-original="#000000" style=""/><path d="m34.162 42.259h23.826c.276 0 .5-.224.5-.5s-.224-.5-.5-.5h-23.826c-.276 0-.5.224-.5.5s.224.5.5.5z" fill="#707070" data-original="#000000" style=""/><path d="m12.159 27.831 1.252-1.252 1.291 1.291-.859.859-.819-.819c-.098-.098-.256-.098-.354 0s-.098.256 0 .354l.819.819-.04.04c-.098.098-.098.256 0 .354.097.097.255.098.354 0l.04-.04 1.132 1.132c.097.097.255.098.354 0 .098-.098.098-.256 0-.354l-1.132-1.132.859-.859 1.253 1.253c.097.097.255.098.354 0 .098-.098.098-.256 0-.354l-1.253-1.253.858-.858.395.395c.099.099.257.096.354 0 .098-.098.098-.256 0-.354l-.395-.395.702-.702c.078-.078.076-.19.029-.284l.914.914c.097.097.255.098.354 0 .098-.098.098-.256 0-.354l-2.433-2.433c.096-.098.096-.254-.001-.351s-.254-.097-.351-.001l-.989-.989.822-.821c.098-.098.098-.256 0-.354s-.256-.098-.354 0l-.822.821-.429-.429c-.098-.098-.256-.098-.354 0s-.098.256 0 .354l.429.429-.339.339-.429-.429c-.097-.097-.255-.099-.354 0-.098.098-.098.256 0 .354l.429.429-1.555 1.555c-.098.098-.098.256 0 .354.097.097.255.098.354 0l1.555-1.555.785.785c.099.099.257.096.354 0 .098-.098.098-.256 0-.354l-.785-.785.339-.339.988.988-2.07 2.07-.732-.732c-.098-.098-.256-.098-.354 0s-.098.256 0 .354l.732.732-1.252 1.252c-.098.098-.098.256 0 .354.098.099.256.1.354.001zm3.676-3.675 1.419 1.419c-.094-.047-.205-.049-.284.029l-.702.702-.905-.906c-.098-.098-.256-.098-.354 0s-.098.256 0 .354l.905.905-.858.858-1.291-1.291z" fill="#707070" data-original="#000000" style=""/><path d="m60.434 49.31.576-.576 1.355 1.355c.097.097.255.098.354 0 .098-.098.098-.256 0-.354l-1.355-1.355 1.246-1.246c.098-.098.098-.256 0-.354s-.256-.098-.354 0l-1.246 1.246-.409-.409c-.098-.098-.256-.098-.354 0s-.098.256 0 .354l.409.409-.576.576c-.098.098-.098.256 0 .354.097.097.256.098.354 0z" fill="#707070" data-original="#000000" style=""/></g></g></svg>
