<?xml version="1.0"?>
<svg xmlns="http://www.w3.org/2000/svg" xmlns:xlink="http://www.w3.org/1999/xlink" xmlns:svgjs="http://svgjs.com/svgjs" version="1.1" width="512" height="512" x="0" y="0" viewBox="0 0 66 66" style="enable-background:new 0 0 512 512" xml:space="preserve" class=""><g><path xmlns="http://www.w3.org/2000/svg" d="m14.219 64.994 28.585-.276c2.719-.024 5.778-.221 7.664-2.267 1.671-1.84 1.798-4.413 1.785-7.111-.057-5.818-.102-11.625-.147-17.432 3.998-4.247 8.03-8.678 11.99-13.177 2.102-2.419 1.386-7.302-3.055-6.79-3.781.431-5.917 3.532-9.051 6.668-.028-2.622-.05-5.24-.07-7.864-.001-.133-.056-.261-.151-.354-.157-.154-14.885-14.128-15.103-14.16-8.077-1.199-16.297-1.523-24.43-.959-9.064.636-11.237 3.979-11.269 12.302-.069 13.367-.138 26.746-.195 40.113-.036 7.591 2.071 11.43 13.447 11.307zm46.935-46.06c3.576-.403 3.628 3.482 2.189 5.138-1.031 1.172-2.068 2.339-3.108 3.5-.109-.018-.22-.01-.317.043l-4.806-4.806c1.72-1.827 3.541-3.589 6.042-3.875zm-6.728 4.603 4.968 4.968c-9.031 10.038-17.672 18.95-28.033 28.844-.02-.034-.036-.07-.065-.099l-5.253-5.278c29.668-29.67 27.448-27.435 28.383-28.435zm-30.43 33.118c.001-.003.002-.006.004-.009.595-1.487 1.183-2.935 1.525-3.775l4.911 4.934c-1.516.379-5.075 1.245-7.556 1.662.331-.845.723-1.838 1.116-2.812zm26.593-40.011c-3.401.938-6.906 1.364-10.439 1.249-3.436-.117-4.153-1.324-3.997-4.691.148-3.193.597-5.63.858-9.381 4.758 4.611 8.989 8.379 13.578 12.823zm-.256 1.097-.506.506-.301-.302c.269-.063.538-.134.807-.204zm-2.111.486-.502.502-.35-.35c.285-.049.569-.097.852-.152zm-2.25.372-.434.434-.351-.351c.261-.027.524-.049.785-.083zm-2.418.235-.479.479-.446-.446c.308-.011.617-.014.925-.033zm-2.26.078-.528.528-.547-.547c.358.012.716.018 1.075.019zm-2.054-.078-.53.53-.768-.768c.421.122.86.194 1.298.238zm-37.468 34.858c.058-13.367.127-26.746.195-40.114.029-7.69 1.719-10.705 10.339-11.308 7.905-.548 15.894-.248 23.752.886-.206 3.622-.743 6.541-.903 9.999-.088 1.89-.02 3.75 1.543 4.856.012.027.011.058.033.08l1.625 1.625-.407.407c-.098.098-.098.256 0 .354s.256.098.354 0l.407-.407.807.807c.098.098.256.098.354 0s.098-.256 0-.354l-.807-.807.636-.636.712.712-.077.077c-.098.098-.098.256 0 .353.098.098.256.098.354 0l.077-.077.457.457c.098.098.256.098.353 0 .098-.098.098-.256 0-.354l-.457-.457.865-.865.738.738-.255.255c-.098.098-.098.256 0 .353.098.098.256.098.354 0l.255-.255.471.471c.098.098.256.098.354 0s.098-.256 0-.354l-.471-.471.891-.891c.076-.006.152-.017.228-.024l.636.636-.483.483c-.098.098-.098.256 0 .353.098.098.256.098.354 0l.483-.483.288.288c.098.098.256.098.353 0 .098-.098.098-.256 0-.354l-.288-.288.89-.89.585.585-.128.128c-.098.098-.098.256 0 .354s.256.098.354 0l.128-.128.268.267c.098.098.256.098.354 0s.098-.256 0-.354l-.268-.268.893-.892c.019-.019.017-.046.028-.068l.479.479-.508.508c-.098.098-.098.256 0 .353.098.098.256.098.354 0l.508-.508.141.141c.098.098.256.098.354 0s.098-.256 0-.354l-.141-.141.75-.749c.02 2.584.04 5.163.069 7.749-3.513 3.494-3.7 3.699-9.427 9.427-.064-.03-.134-.049-.21-.049h-33.605c-.276 0-.5.224-.5.5s.224.5.5.5h32.861l-9.066 9.066c-.018-.002-.033-.01-.051-.01h-23.992c-.276 0-.5.224-.5.5s.224.5.5.5h23.053l-5.556 5.556c-.047.047-.084.103-.109.164 0 0-.828 2.024-1.703 4.207h-16.178c-.276 0-.5.224-.5.5s.224.5.5.5h15.777c-.433 1.084-.85 2.143-1.164 2.951-.127.327.115.681.466.681.022 0 .045-.001.067-.004 3.131-.424 9.004-1.936 9.253-2 .082-.021.156-.063.217-.12.488-.459 1.067-1.02 1.572-1.508h11.823c.276 0 .5-.224.5-.5s-.224-.5-.5-.5h-10.789c5.665-5.446 11.33-11.157 16.874-17.01.043 5.463.085 10.926.139 16.398.012 2.491-.095 4.857-1.523 6.429-1.614 1.75-4.311 1.919-6.936 1.942l-28.586.276c-3.177.033-8.864.193-11.292-3.795-1.167-1.909-1.155-4.35-1.145-6.504z" fill="#707070" data-original="#000000" style="" class=""/><path xmlns="http://www.w3.org/2000/svg" d="m8.133 15.619h17.754c.276 0 .5-.224.5-.5s-.224-.5-.5-.5h-17.754c-.276 0-.5.224-.5.5s.223.5.5.5z" fill="#707070" data-original="#000000" style="" class=""/><path xmlns="http://www.w3.org/2000/svg" d="m7.512 26.171h18.131c.276 0 .5-.224.5-.5s-.224-.5-.5-.5h-18.131c-.276 0-.5.224-.5.5s.224.5.5.5z" fill="#707070" data-original="#000000" style="" class=""/><path xmlns="http://www.w3.org/2000/svg" d="m47.97 32.384-5.849 5.849-.672-.672c-.098-.098-.256-.098-.353 0-.098.098-.098.256 0 .354l.672.672-2.027 2.027c-.098-.09-.249-.091-.344.004s-.094.245-.004.344l-1.585 1.585-.435-.435c-.098-.098-.256-.098-.354 0s-.098.256 0 .354l.435.435-1.99 1.99-.74-.74c-.098-.098-.256-.098-.354 0s-.098.256 0 .354l.74.74-2.642 2.642c-.098.098-.098.256 0 .354s.256.098.354 0l2.642-2.642.598.598c.098.098.256.098.354 0s.098-.256 0-.354l-.598-.598 1.99-1.99.676.676c.098.098.256.098.354 0s.098-.256 0-.354l-.676-.676 1.582-1.582.471.471c.098.098.256.098.354 0s.098-.256 0-.354l-.471-.471 2.024-2.024.475.475c.098.098.256.098.353 0 .098-.098.098-.256 0-.354l-.475-.475 5.849-5.849c.098-.098.098-.256 0-.354s-.256-.098-.354 0z" fill="#707070" data-original="#000000" style="" class=""/><path xmlns="http://www.w3.org/2000/svg" d="m37.154 8.729c-.138 0-.25.112-.25.25s.112.25.25.25h.41l-.041 1.047h-.083c-.138 0-.25.112-.25.25s.112.25.25.25h.063l-.044 1.144-.32.019c-.138.008-.243.127-.235.264.008.133.118.235.25.235.005 0 .01 0 .015-.001l.271-.016-.024.615-.033.008c-.134.033-.216.168-.183.302.024.097.105.156.197.175l-.024.604c-.005.138.103.254.24.26h.01c.134 0 .245-.105.25-.24l.028-.713.519-.128c.134-.033.216-.168.183-.302-.032-.134-.167-.217-.302-.183l-.38.093.02-.52.201-.012c.138-.008.243-.126.234-.265-.008-.138-.11-.242-.265-.234l-.152.009.043-1.114h.353c.138 0 .25-.112.25-.25s-.112-.25-.25-.25h-.334l.041-1.047h.58c.138 0 .25-.112.25-.25s-.112-.25-.25-.25h-.56l.028-.716c.005-.138-.103-.254-.24-.26-.161.001-.254.103-.26.24l-.029.735h-.427z" fill="#707070" data-original="#000000" style="" class=""/></g></svg>
