<?xml version="1.0"?>
<svg xmlns="http://www.w3.org/2000/svg" xmlns:xlink="http://www.w3.org/1999/xlink" xmlns:svgjs="http://svgjs.com/svgjs" version="1.1" width="512" height="512" x="0" y="0" viewBox="0 0 66 66" style="enable-background:new 0 0 512 512" xml:space="preserve" class=""><g><g xmlns="http://www.w3.org/2000/svg"><g><path d="m62.545 33.3c1.845-2.101 2.493-5.264 2.452-10.24-.082-7.625-2.692-8.996-8.149-9.056-1.155-.008-4.227-.033-7.418-.06-.013-1.229-.907-2.501-2.183-3.074.024-.5.011-.458-.041-2.177-.088-2.976-.142-4.867-3.842-4.867h-.117c-3.879 0-7.038.119-9.619.125-11.468.025-11.688.073-13.029 1.031-2.019 1.449-2.004 3.673-1.623 5.928-1.155.511-2.044 1.533-2.263 2.866-3.197-.027-4.63.052-6.371.052-1.974 0-4.055-.022-5.897.884-2.16 1.075-3.261 3.013-3.021 5.402.115 1.192-.03 2.329-.185 3.559-.122.972-.247 1.965-.238 3.006.023 2.585.795 4.88 2.169 6.468.207.247.448.481.713.718-.007.184-.014.368-.028.569-1.609 27.432-5.786 27.591 25.453 27.591 34.74-.028 34.383 2.848 34.146-15.565-.102-8.204-.135-10.616-.909-13.16zm-.147 21.915-1.179-1.179.994-.994.315.315c-.016.687-.062 1.296-.13 1.858zm-11.68-18.694c-.008-.158-.451-.547-.567-.663l1.237-1.237 1.414 1.414c.049.049.113.073.177.073.221 0 .334-.269.177-.427l-1.414-1.414 1.604-1.604 1.115 1.115-1.353 1.353c-.098.098-.098.256 0 .354s.256.098.354 0l1.353-1.353c.119.119 1.061 1.12 1.224 1.12.221 0 .334-.269.177-.427l-1.047-1.047 1.359-1.359c.116.116 1.254 1.316 1.419 1.316.221 0 .334-.269.177-.427l-1.242-1.242 1.726-1.726 1.481 1.481-2.698 2.698c-.098.098-.098.256 0 .354s.256.098.354 0l2.698-2.698c.249.249.631.762.873.52.098-.098.098-.256 0-.354l-.52-.52 1.175-1.175c.111.111.583.634.74.648-1.339 2.637-3.718 3.914-11.993 5.227zm-11.111 1.196 1.383-1.383c.126.126.964 1.022 1.125 1.022.221 0 .334-.269.177-.427l-.948-.948.873-.873c.086.094 1.082 1.088 1.173 1.178l-.679.679c-.232.232.119.588.354.354l.679-.679c.12.12.605.663.766.663.221 0 .334-.269.177-.427l-.589-.589.809-.809 1.237 1.237c-.153.153-.28.253-.145.445-2.58.298-3.617.394-6.392.557zm-3.032 5.717c-.164.215-.345.411-.543.592-.136.123-.387.317-.633.475-.061.039-.121.078-.185.115-.234.135-.479.261-.747.366-.301.12-.604.199-.906.263-.153.031-.307.047-.46.064-.133.016-.266.029-.398.034-.145.005-.289-.001-.434-.008 1.604-1.603 1.189-1.189 1.942-1.942l.626.626c-.236.236-.613.498-.379.732.049.049.113.073.177.073s.128-.024.177-.073l.406-.406c.227.086.374-.096.298-.298l.793-.793c.244.189.515-.108.337-.337.343-.343-.015-.692-.345-.362l-1.293-1.293c-.232-.232-.588.119-.354.354l.313.313-.757.757c-.112-.112-.773-.824-.929-.836-.003-.06-.023-.119-.068-.165-.098-.098-.256-.098-.354 0l-1.36 1.36-.215-.215c-.098-.098-.256-.098-.354 0s-.098.256 0 .354l.215.215-.659.659-.901-.901c-.098-.098-.256-.098-.354 0s-.098.256 0 .354l.901.901-.22.22c-.956-.56-1.738-1.43-2.216-2.497-.017-.038-.033-.077-.049-.116-.117-.276-.213-.557-.289-.841-.017-.066-.032-.132-.047-.199-.049-.212-.081-.387-.108-.602-.022-.194-.04-.549-.044-.549h.113c-.01-1 .228-1.005.228-1.472 0-.001 0-.001 0-.002s-.112-.002-.112-.003c1.089-6.115 8.656-9.635 10.058-2.931-.076-.012-.153 0-.212.059l-.705.706c-.261-.261-.615.092-.353.354l-.085.085c-.158.158-.044.427.177.427.122 0 .176-.072.261-.158l.528.528-.744.744c-.244-.13-.448.118-.307.334-.136.209.053.47.307.334l.58.58-.594.594-.378-.378c-.232-.232-.588.119-.354.354l.378.378c-.224.224-.536.444-.313.667.098.098.256.098.354 0l.313-.313c.118.118.568.625.729.625.221 0 .334-.269.177-.427l-.552-.552.662-.662c.171-.017.238-.138.207-.288.024-.141-.033-.249-.199-.275l-.638-.637.756-.756c.14.043.2.045.277-.123.011.156-.108.312-.101.467.002.072-.12.158-.12.236 0 2.226-.151 3.881-1.007 5.046-.013.02.101.043.085.065zm-5.735.976.659-.659.822.822c-.244.244-.608.487-.425.733-.527-.065-1.039-.209-1.523-.431l.112-.112c.364.363.727.019.355-.353zm2.217-2.215c.061.126.696.739.801.844l-1.182 1.182-.822-.822zm2.891.713-.757.757-.626-.626.757-.757zm-11.067-5.261 1.079-1.079.572.572c-.063.199-.131.397-.178.597-.37-.02-.965-.055-1.473-.09zm-3.114-.251.807-.807.959.959c-.486-.038-1.369-.115-1.766-.152zm-11.128-1.728c.067-.213-.128-.331-.308-.51l.638-.638.984.984-.381.381c-1.071-.24-.614-.139-.933-.217zm-1.896-1.423c.071.12.782.814.881.913l-.194.194c-.177-.05-.481-.142-.656-.197-.057-.126-.34-.387-.448-.494zm3.408 1.767.156-.156.236.236c-.089-.018-.351-.071-.392-.08zm1.127-1.126 1.113 1.113-.374.374c-.465-.083.164.037-.91-.171.121-.241-.225-.479-.446-.7zm2.54.394c.071.121.803.836.903.935l-.514.514c-.12-.018-.252-.037-.469-.07-.08-.109-.544-.563-.639-.659zm-.899 1.247c-.1-.017-.199-.034-.298-.05l.124-.124zm1.903.293.252-.252.331.331c-.451-.061-.101-.011-.583-.079zm1.65-1.313.945.945-.625.625c-.772-.093-.034-.003-.695-.087.001-.164-.547-.653-.669-.775l1.033-1.033c-.076.098-.079.235.011.325zm.953 1.644.345-.345.434.434c-.218-.024-.561-.064-.779-.089zm4.895-2.308c.02.154 1.167 1.253 1.286 1.372l-1.35 1.35-1.329-1.329zm4.715-3.032c.039.144.519.588.625.694-.301.249-.454.393-.73.676l-.632-.632zm-2.332 4.794-.39-.39 1.18-1.18c-.284.472-.591 1.057-.79 1.57zm10.18-.067.65-.65c.036.236.078.366.169 1.488-.079-.107-.716-.735-.819-.838zm12.561-.68c-.349.349-.868.77-.379.898-.87.125-1.74.25-2.614.355l2.123-2.123zm-.516-1.223 1.237-1.237.87.87-1.237 1.237zm.318 2.096c.118-.069.451-.419.552-.519l.385.385c-.312.048-.625.088-.937.134zm10.888-7.92 1.481 1.482-1.175 1.175-1.481-1.481zm3.862-5.575c.002.393-.003.767-.01 1.134l-.562-.562zm-15.563-9.303c-5.895-.042-6.375-.052-7.375-.06.529-3.234 7.259-3.37 7.375.06zm-28.497-3.334c-.215-1.262-.538-3.479 1.245-4.757 1.061-.757 1.293-.866 12.451-.889 2.582-.005 5.741-.125 9.624-.125h.11c2.551 0 2.93.355 2.897 5.68-.048-.01-.102.004-.15-.005-.216-.04-.441-.053-.67-.07-.128-.009-.251-.026-.382-.027-.036-.001-.068.165-.104.165-.359 0-.706.258-1.043.258-.002 0-.004 0-.006 0-.349-2-1.446-2.049-3.063-2.153-4.84-.341-9.801-.479-14.699-.243-2.553.125-3.083 1.035-3.317 2.133-1.002-.21-2.15-.15-2.893.033zm-.242 1.229h.005c.252 0 .643-.266.887-.307.389-.064.776-.102.871-.103 1.044-.022 2.364.299 3.067 1.093.312.351.481.765.507 1.237-2.445-.017-4.884.023-7.329-.002.232-.982 1.025-1.918 1.992-1.918zm4.09-.991c.148-.809.328-1.39 2.408-1.491 4.858-.234 9.778-.182 14.583.156 1.516.097 1.984.418 2.158 1.207-1.517.489-2.684 1.509-2.881 3.156-3.03-.019-8.57-.062-14.029-.106-.052-1.423-.937-2.389-2.239-2.922zm-21.783 15.821c-.008-.974.113-1.945.231-2.885.154-1.23.313-2.501.187-3.806-.2-1.982.678-3.565 2.469-4.457 2.7-1.329 1.572-.873 51.952-.506 4.621.051 6.894.821 7.133 7.274l-.794-.794.253-.253c.098-.098.098-.256 0-.354s-.256-.098-.354 0l-.253.253-.557-.557c-.098-.098-.256-.098-.354 0s-.098.256 0 .354l.557.557-.679.68c-.098.098-.098.256 0 .354.049.049.113.073.177.073s.128-.024.177-.073l.679-.68c.1.1.836.842.945.933-.107.083-.605.589-.7.684l-.557-.557c-.098-.098-.256-.098-.354 0s-.098.256 0 .354l.557.557-.68.68c-.098.098-.098.256 0 .354.049.049.113.073.177.073s.128-.024.177-.073l.68-.68.684.684c.049.049.113.073.177.073.015 0 .027-.015.043-.018-.023.692-.069 1.328-.129 1.93-.07-.118-.564-.597-.666-.699l.325-.325c.098-.098.098-.256 0-.354s-.256-.098-.354 0l-.325.325-.924-.924c-.098-.098-.256-.098-.354 0s-.098.256 0 .354l.924.924-.931.931c-.243-.243-.598.109-.354.354l-.374.374c-.098.098-.098.256 0 .354.049.049.113.073.177.073s.128-.024.177-.073l.374-.374 1.37 1.37c.049.049.113.073.177.073s.128-.024.177-.073c.098-.098.098-.256 0-.354l-1.37-1.37.931-.931.643.643c.049.049.113.073.177.073.061 0 .121-.025.169-.07-.17 1.504-.463 2.742-.904 3.753-.095-.104-.488-.494-.587-.593l.326-.326c.098-.098.098-.256 0-.354s-.256-.098-.354 0l-.326.326-1.52-1.52c.015-.079.006-.16-.055-.221-.098-.098-.256-.098-.354 0l-1.435 1.435c-.16-.16-.303-.309-.483-.129s-.031.323.129.483l-1.726 1.726-.863-.863c-.232-.232-.588.119-.354.354l.863.863-1.359 1.359-1.114-1.115 1.795-1.795c.098-.098.098-.256 0-.354s-.256-.098-.354 0l-1.795 1.795c-.208-.208-.395-.461-.605-.251s.043.396.251.605l-1.604 1.604-.87-.87.887-.887c.232-.232-.119-.588-.354-.354l-.887.887c-.16-.16-.303-.308-.482-.129s-.031.322.129.482l-1.237 1.237-.985-.985c-.232-.232-.588.119-.354.354l.985.985-1.726 1.726-1.237-1.237 2.149-2.149c.232-.232-.119-.588-.354-.354l-2.196 2.196c-.155-.009-.267.103-.258.258l-.857.857c-.09-.09-1.084-1.087-1.178-1.173l1.314-1.314c.232-.232-.119-.588-.354-.354l-2.535 2.535c-.284-.284-.709-.881-.972-.618-.098.098-.098.256 0 .354l.618.618c-.127.127-1.673 1.603-1.667 1.781-.062.003-.13.01-.23.015-.124-2.844-.674-5.587-3.201-6.661-.13-.054-.267-.088-.402-.128-.404-.124-.827-.209-1.285-.209-1.266 0-2.594.504-3.8 1.409-.106-.106-.587-.625-.731-.664l1.301-1.301c.098-.098.098-.256 0-.354s-.256-.098-.354 0l-2.37 2.37c-.16-.013-.274.101-.261.261l-.495.495c-.158.158-.044.427.177.427.158 0 .509-.405.625-.522l.645.645c-.233.264-.456.54-.663.83l-1.294-1.294c-.232-.232-.588.119-.354.354l1.052 1.052-1.372 1.372c-.118-.118-1.218-1.266-1.372-1.286l.663-.663c.232-.232-.119-.588-.354-.354l-2.324 2.324-.729-.729c-.098-.098-.256-.098-.354 0s-.098.256 0 .354l.729.729-1.096 1.096c-.17-.017-.182-.018-.381-.038.034-.089.034-.189-.038-.261l-.581-.581 3.003-3.004c.232-.232-.119-.588-.354-.354l-3.003 3.003-.945-.945c-.09-.09-.227-.087-.325-.012l1.165-1.165c.098-.098.098-.256 0-.354s-.256-.098-.354 0l-2.237 2.237c-.099-.099-.814-.831-.935-.903l1.2-1.2c.232-.232-.119-.588-.354-.354l-2.241 2.241-1.113-1.113c.269-.269.775-.624.523-.876-.098-.098-.256-.098-.354 0l-1.493 1.493-.984-.984.56-.56c.098-.098.098-.256 0-.354s-.256-.098-.354 0l-1.552 1.552c-.099-.099-.793-.81-.913-.881l.251-.251c.098-.098.098-.256 0-.354s-.256-.098-.354 0l-.989.989-.535-.535c-.098-.098-.256-.098-.354 0s-.098.256 0 .354l.535.535-.08.08c-1.419-.524-2.657-1.116-3.608-2.249-1.215-1.407-1.9-3.479-1.921-5.827zm32.526 34.362.544-.544.522.521c.015.015.036.012.053.022zm3.246-.192c.662-.489.028.132 1.14-.962l.919.924-.098.006c-.046.045-1.897.032-1.961.032zm6.732-.805 1.118-1.118 1.143 1.143-.983.983c-.784-.003-1.548-.006-2.279-.008l.647-.647.475.475c.098.098.256.098.354 0 .246-.246-.215-.569-.475-.828zm5.657-2.368 1.046 1.046-1.218 1.218-1.193-1.193 1.324-1.324c-.031.087-.029.183.041.253zm-.526 2.618-.775.775c-.182-.001-.355-.002-.536-.003.009-.074-.004-.149-.061-.206l-.79-.791.969-.969zm.353.353.433.433c-.289-.002-.574-.004-.859-.006zm-2.229.415c-.43-.002-.856-.005-1.272-.007l.633-.633zm-6.402-1.064 1.043 1.044c-.724-.001-1.423-.002-2.084-.003zm9.559 1.085c.032-.088.03-.185-.04-.256l-.534-.534 1.218-1.218 1.243 1.243-.347.347c-.158.158-.044.427.177.427.154 0 .405-.302.524-.42l.428.428c-.779.004.57.01-2.669-.017zm7.379-5.55 1.343 1.343-1.243 1.243-1.343-1.343zm-.253 2.939-1.492 1.492-1.343-1.343 1.492-1.492zm-.682 2.303-.457-.457 1.492-1.492 1.209 1.209c-.617.325-1.365.566-2.244.74zm-.602.106c-.157.024-.318.045-.483.065l.274-.274zm-.562-.563c-.226.226-.549.442-.356.678-.484.046-1.011.073-1.563.088l-.767-.767 1.343-1.343zm-3.04-.353-1.243-1.243 1.343-1.343 1.243 1.243zm6.885-.2-1.292-1.292 1.243-1.243c.119.119 1.06 1.119 1.223 1.119.221 0 .334-.269.177-.427l-1.046-1.046 1.17-1.17c.098-.098.098-.256 0-.354s-.256-.098-.354 0l-1.17 1.17c-.12-.12-1.391-1.44-1.546-1.457-.11-.139-.27-.12-.364-.026l-1.383 1.383-1.145-1.145c-.098-.098-.256-.098-.354 0s-.098.256 0 .354l1.145 1.145-1.492 1.492-1.243-1.243 1.055-1.055c.232-.232-.119-.588-.354-.354l-1.055 1.055c-.219-.219-.432-.516-.651-.297s.079.432.297.651l-1.343 1.343-1.046-1.046c-.07-.07-.166-.072-.253-.041l1.024-1.024c.098-.098.098-.256 0-.354s-.256-.098-.354 0l-2.49 2.49-.622-.622c-.232-.232-.588.119-.354.354l.622.622-.969.969-1.143-1.143 1.885-1.885c.098-.098.098-.256 0-.354s-.256-.098-.354 0l-1.885 1.885-.095-.098c-.232-.232-.588.119-.354.354l.098.098-1.118 1.118-1.021-1.021c-.098-.098-.256-.098-.354 0s-.098.256 0 .354l1.021 1.021-.947.947c.028-.086.025-.18-.044-.248l-1.097-1.097 2.56-2.56c.098-.098.098-.256 0-.354s-.256-.098-.354 0l-2.56 2.56-.372-.372c-.232-.232-.588.119-.354.354l.372.372-.819.819-.919-.918 1.658-1.658c.098-.098.098-.256 0-.354s-.256-.098-.354 0l-1.658 1.658-.172-.172c-.232-.232-.588.119-.354.354l.173.172-.569.569-1.046-1.046c-.098-.098-.256-.098-.354 0s-.098.256 0 .354l1.046 1.046-.497.402s.132-.021-1.246-.021c.017 0 .038.089.052.074.098-.098.098-.208 0-.306l-.522-.497 2.365-2.353c.231-.231-.119-.579-.354-.345l-2.365 2.366-.222-.222c-.098-.098-.256-.097-.354 0s-.098.256 0 .354l.222.222-.821.821c-.021.021-.02.051-.032.077l-4.556.004c-23.814 0-25.956-.61-25.432-9.881l.972-16.556c4.523 2.792 16.069 3.84 21.345 4.144-.974 9.295 12.679 11.003 12.576.045 5.137-.272 18.953-1.357 22.974-4.642.584 2.256.602 4.851.696 12.337.022 1.758.061 3.451.061 5.772 0-.041-.17-.056-.295.091-.267-.269-.617-.774-.87-.522-.252.252.256.609.523.876l-.993.994c-.265-.267-.621.086-.353.354l-.821.821c-.158.158-.044.427.177.427.064 0 .128-.024.177-.073l.821-.821 1.445 1.445c-.286 1.693-.868 2.99-2.265 3.907z" fill="#707070" data-original="#000000" style="" class=""/></g><g><path d="m32.256 33.91-.507-.554c-.226-.245-.59.096-.369.338l.418.458c-.431.256-.826.563-1.182.911-.308-.231-.743-.692-.958-.406-.212.281.315.548.612.772-.199.23-.384.471-.548.728l-.535-.3c-.29-.161-.531.275-.244.437l.532.298c-.28.526-1.069 2.434-.479 2.497.139.015.261-.086.275-.222.078-.728.308-1.409.638-2.032.088.05.416.253.517.253.255 0 .347-.342.123-.468l-.393-.221c.154-.238.326-.46.512-.672.427.32.657-.132.352-.36.338-.322.708-.611 1.117-.843.429.469.714.04.471-.226.427-.193.874-.352 1.35-.435.136-.023.227-.153.203-.289-.079-.475-1.471.126-1.905.336z" fill="#707070" data-original="#000000" style="" class=""/></g><g><path d="m4.29 20.638.897.361c-.033.477-.011.971.048 1.461l-.472-.02c-.157-.021-.255.101-.261.238-.006.138.101.255.238.261l.568.025c.049.307.105.61.167.901.025.118.129.198.244.198.018 0 .035-.002.053-.005.135-.029.221-.162.192-.297-.054-.25-.102-.611-.147-.874l.956-.058h.011c.133 0 .244-.004.25-.139.006-.138-.101-.204-.239-.21l-1.055-.023c-.055-.433-.085-.857-.069-1.276l.234.101c.03.012.062.021.093.021.099 0 .192-.058.232-.155.052-.128-.01-.273-.139-.324l-.369-.148c.093-.634.316-1.206.758-1.631.054-.052.121-.081.179-.126.236.245.485.477.755.68.045.034.098.05.15.05.076 0 .151-.035.2-.1.083-.11.061-.267-.049-.35-.223-.168-.418-.371-.616-.571.505-.244 1.1-.341 1.724-.4l.257.452c.046.081.13.126.217.126.042 0 .085-.011.124-.033.12-.068.162-.221.093-.341l-.143-.252c1.172-.089 2.346-.157 3.521-.213l.141.42c.035.104.132.17.237.17.026 0 .053-.004.08-.013.131-.044.201-.186.157-.316l-.095-.282c.578-.025 1.155-.055 1.733-.072l.277.513c.157.291.598.056.44-.237l-.154-.285c1.06-.027 2.12-.038 3.181-.038.111.193.351.684.571.684.209 0 .326-.243.195-.406-.068-.084-.113-.184-.174-.274.657.003 1.315.006 1.972.019l.443.736c.047.078.13.121.214.121.194 0 .315-.212.214-.379l-.277-.461c.823.021 1.645.046 2.468.083.099.199.368.736.59.736.208 0 .325-.24.197-.404-.074-.095-.14-.197-.203-.3.555.028 1.11.056 1.665.091.081.3.136.847.42.847.164 0 .284-.156.241-.315l-.135-.501c.765.051 1.528.115 2.292.18.022.334-.007 1.544.326 1.544.163 0 .261-.262.25-.408l-.071-1.026c1.032.093 2.063.162 3.091.28.126.017.261-.1.277-.237s-.083-.27-.22-.286c-1.06-.122-2.122-.233-3.186-.327l-.043-.577c-.026-.333-.523-.292-.499.035l.037.498c-.797-.068-1.594-.134-2.392-.186-.08-.298-.112-.637-.41-.56-.261.071-.18.292-.115.532-.594-.037-1.188-.069-1.783-.097-.098-.253-.168-.517-.199-.784-.036-.32-.535-.277-.497.057.027.239.086.471.159.698-.855-.037-1.71-.061-2.566-.081-.175-.292-.326-.685-.605-.521-.118.071-.157.225-.085.343l.097.161c-.66-.012-1.32-.011-1.98-.013-.128-.262-.23-.536-.3-.817-.034-.134-.17-.218-.303-.183-.134.033-.216.168-.183.303.059.239.158.466.254.693-1.065.002-2.131.016-3.195.045-.174-.323-.349-.851-.654-.687-.122.066-.167.217-.102.339l.196.364c-.545.017-1.09.044-1.635.068l-.351-1.054c-.043-.131-.185-.204-.316-.157-.131.044-.201.186-.157.316l.307.915c-1.23.06-2.397.129-3.63.224l-.424-.745c-.068-.121-.221-.162-.341-.094s-.162.221-.094.341l.313.55c-.638.072-1.267.2-1.813.498-.22-.265-.43-.54-.599-.838-.069-.12-.222-.161-.341-.093-.12.068-.162.221-.093.341.176.308.385.599.612.875-.061.049-.125.095-.183.151-.506.486-.77 1.113-.888 1.8l-.77-.31c-.128-.052-.273.01-.326.138-.052.129.01.274.138.326z" fill="#707070" data-original="#000000" style="" class=""/></g><g><path d="m18.668 57.458-1.369-.151.325-.463c.189-.268-.217-.559-.409-.287l-.483.688-1.489-.164c.178-.338.579-.86.26-1.029-.123-.064-.273-.018-.338.104l-.456.866-1.619-.178.248-.396c.174-.277-.244-.547-.424-.266l-.377.601c-.486-.053-.794-.081-1.261-.163.251-.321.806-.831.513-1.061-.109-.085-.266-.067-.351.042l-.706.901c-.779-.19-1.356-.461-1.777-.797l.91-.727c.256-.203-.051-.597-.313-.391l-.962.771c-.521-.601-.702-1.351-.736-2.192.318-.235.952-.555.732-.851-.191-.257-.472.038-.735.232.016-.637.077-1.331.108-2.003l1.005-.414c.305-.125.115-.588-.19-.462l-.796.328c.004-.444.038-1.63-.383-1.546-.136.023-.227.153-.203.289.081.464.093.961.079 1.466-.366.151-1.058.307-.917.648.133.325.57.035.896-.099-.04.719-.108 1.443-.101 2.163l-1.014.749c-.266.196.03.599.297.402l.747-.551c.07.801.289 1.544.816 2.158-.308.246-.922.586-.692.874.233.29.734-.266 1.05-.519.443.375 1.036.686 1.841.908-.194.247-.471.5-.226.693.275.213.536-.278.763-.569.55.113.817.14 1.31.194-.186.296-.506.649-.223.826.308.194.57-.438.776-.766l1.664.183c-.17.324-.505.754-.2.915.329.171.549-.505.734-.857l1.412.155c-.188.268-.471.554-.211.735.292.206.559-.361.778-.673 1.75.192 1.67.182 1.67.182.125 0 .234-.095.248-.223.015-.137-.084-.26-.221-.275z" fill="#707070" data-original="#000000" style="" class=""/></g></g></g></svg>
