<?xml version="1.0"?>
<svg xmlns="http://www.w3.org/2000/svg" xmlns:xlink="http://www.w3.org/1999/xlink" xmlns:svgjs="http://svgjs.com/svgjs" version="1.1" width="512" height="512" x="0" y="0" viewBox="0 0 66 66" style="enable-background:new 0 0 512 512" xml:space="preserve"><g><g xmlns="http://www.w3.org/2000/svg"><g id="XMLID_1_"><path d="m61.49 37.71c.1.1.1.26 0 .36l-.48.48.47.47c.1.1.1.26 0 .35-.1.1-.25.1-.35 0l-.47-.46-1.55 1.54.56.55c.1.1.1.26 0 .36s-.26.1-.35 0l-.56-.56-1.06 1.06.87.88c.1.1.1.26 0 .35-.1.1-.25.1-.35 0l-.89-.88c-.04.03-.09.06-.14.06-.06 0-.13-.03-.18-.08-.09-.09-.08-.22-.01-.32l-.44-.44c-.1-.09-.1-.25 0-.35s.25-.1.35 0l.43.43 1.06-1.06-.22-.23c-.1-.1-.1-.26 0-.36.09-.09.25-.09.35 0l.23.23 1.54-1.54-.5-.51c-.1-.1-.1-.25 0-.35.09-.1.25-.1.35 0l.51.5.48-.48c.1-.09.25-.09.35 0z" fill="#707070" data-original="#000000" style=""/><path d="m55.44 45.53-1.54 1.54.25.26c.27-.23 1.3-1.13 1.73-1.51-.08.01-.13.01-.21-.06zm-1.89 1.19 1.54-1.54-.68-.69-1.55 1.55zm-2.71 1.34 1.17 1.17c.73-.67 1.05-.95 1.77-1.57l-1.27-1.27zm-1.27 2.23.69.68c.46-.49.93-.96 1.39-1.39l-.72-.73c-.01.06-.02.11-.06.15zm-1.53 9.53-.79.79.68.69.3-.3c.09-.1.25-.1.35 0s.1.26 0 .36l-.3.29.22.22c.1.1.1.25 0 .35-.02.02-.04.04-.06.05 1.75-.97 2.18-2.17 2.06-3.11-.03-.24-.11-.45-.21-.65l-.42.43.38.38c.1.1.1.26 0 .35-.09.1-.25.1-.35 0l-.39-.38-.55.56c-.04.03-.08.04-.13.05l.6.6c.1.09.1.25 0 .35s-.25.1-.35 0zm-.82-7.18.92.92c.55-.79 1.15-1.53 1.78-2.22l-.7-.7zm-1.12 9.12 1.08 1.08c.47-.17.88-.36 1.24-.56-.17.09-.32-.11-.49-.28l-.48.49c-.24.23-.59-.12-.36-.36l.49-.48-.69-.68zm-.36.36-.6.6.57.58c.31-.09.63-.18.94-.28zm-1.58-.38.62.63.61-.61-.63-.62zm-.36.36-1.02 1.02c.11.11.58.53.61.68.6-.09 1.19-.2 1.77-.34l-.38-.38c-.26.26-.59.76-.85.5-.1-.1-.1-.26 0-.35l.5-.51zm-1.37 1.37-.47.47c.29-.02.57-.05.85-.08zm-.17-8.96c0 .13-.05.16-.12.2 1.74-.12 3.56.09 4.97.5.22-.42.48-.83.74-1.23l-.98-.99-1.24 1.24c-.24.24-.59-.12-.35-.35l1.24-1.24-1.19-1.19-1.65 1.64.97.97c.09.1.09.25 0 .35-.1.1-.26.1-.36 0l-.96-.96zm20.81-18.78-.59.59.3.3c.1-.29.2-.59.29-.89zm-20.81 16.66-1.01 1.01.71.71 1.01-1.02zm-1.78 10.32 1.01 1 .59-.59-.94-.93c-.03-.03-.03-.07-.04-.1zm-.73.73.31.31c.06.06.07.15.05.23h.94l-.92-.92zm1.15-9.69c-.27.26-1.18 1.18-1.45 1.45.82-.26 1.38-.34 1.82-.4l.34-.34zm-1.51 10.04-.14.14c.11.01.2.03.31.03zm-.84-8.39.6-.61-.96-.96c-.02-.02-.03-.04-.04-.07.01.06.02.12.03.17.11.52.22 1.01.37 1.47zm-.87.57c-.21-.58-.34-1.17-.46-1.75-.44-2.25-.97-4.94-.56-7.5.45-2.85 2.09-5.19 4.28-6.11 2.97-1.27 3.97.18 7.16-5.05 1-1.65 2.04-3.35 3.79-4.26 2.39-1.21 5.67-.24 3.12 6.76 3.1-4.34 1.91-10.12 1.16-14.67-.92-5.62 3.2-6.63 5.67-2.85 4.03 6.14 3.92 14.63-.27 20.66-3.76 5.48-10.28 8.54-13.49 14.34.79.3 1.58.75 2.21 1.33.62.59 1.08 1.31 1.2 2.15.62 4.58-7.31 6.18-11.85 5.95-6.32-.26-5.64-6.19-2.69-8.51.24-.2.49-.35.73-.49zm12.36 2.12c-1.98-2.69-9.28-3.36-12.48-.85-2.3 1.81-2.79 5.99 1.05 6.62l.43-.42-.58-.58c-.1-.1-.1-.26 0-.35.1-.1.26-.1.36 0l.57.57.38-.38-.06-.07c-.1-.09-.1-.25 0-.35.09-.1.25-.1.35 0l.07.07 1.19-1.2c.1-.09.26-.09.36 0 .09.1.09.26 0 .36l-.28.28c.03.01.07.01.09.04l.94.93 1.02-1.02-.43-.42c-.09-.1-.09-.26 0-.36.1-.09.26-.09.36 0l.42.43 1.26-1.26c.1-.1.26-.1.35 0 .1.1.1.26 0 .36l-.29.29.63.63.79-.8-.05-.04c-.1-.1-.1-.26 0-.36s.26-.1.36 0l.04.05.93-.93c.01-.02.01-.04.03-.06s.04-.02.06-.03l.43-.43c.1-.09.26-.09.36 0 .09.1.09.26 0 .36l-.3.3.15.15c.01-.04.02-.09.05-.13l.56-.55-.63-.64c-.1-.09-.1-.25 0-.35.26-.26.7.35.98.63.1-.1.41-.42.53-.49zm-12.4-11.2c-.36 2.27.07 4.64.48 6.75 0-.06.02-.11.07-.16.1-.1.25-.1.35 0l.96.96 1.04-1.04-.99-.98c-.09-.1-.09-.26 0-.36.1-.1.26-.1.36 0l.98.99 1.02-1.01-.69-.69c-.09-.09-.09-.25 0-.35.1-.1.26-.1.36 0l.68.68.92-.92c.1-.1.26-.1.36 0s.1.26 0 .35l-.92.93.7.7 1.65-1.64-.76-.76c-.1-.1-.1-.26 0-.35.1-.1.26-.1.35 0l.76.76 1.35-1.35c.1-.1.26-.1.35 0 .1.1.1.25 0 .35l-1.34 1.35 1.19 1.19 2-2-1.12-1.11c-.1-.1-.1-.26 0-.36.1-.09.26-.09.36 0l1.11 1.12 1.29-1.3c.04-.03.09-.05.14-.05l-.72-.73c-.1-.1-.1-.26 0-.35.1-.1.25-.1.35 0l.2.2 3.57-3.57-.23-.23c-.09-.1-.09-.25 0-.35.1-.1.26-.1.36 0l.23.23.68-.69c.1-.09.25-.09.35 0 .1.1.1.26 0 .36l-.68.68.68.68 1.02-1.01-.91-.91c-.1-.1-.1-.26 0-.35.09-.1.25-.1.35 0l.91.91.05-.05c.1-.1.26-.1.35 0 .1.09.1.25 0 .35l-.05.05.16.15c.09.1.09.26 0 .36-.1.09-.26.09-.36 0l-.15-.16-1.01 1.02.23.23c.06.06.07.16.04.24 1.72-1.53 3.39-3.14 4.68-5.02.76-1.09 1.37-2.26 1.84-3.48l-.47-.47-.86.86c-.1.1-.26.1-.35 0-.1-.1-.1-.26 0-.36l.86-.86-.46-.45c-.1-.1-.1-.26 0-.36s.26-.1.36 0l.45.46.3-.3c-.1-.03-.17-.11-.17-.21v-1.54l-.38.38c-.1.1-.26.1-.36 0-.09-.1-.09-.26 0-.36l1.57-1.56c.1-.1.26-.1.36 0 .09.09.09.25 0 .35l-.72.71c.01.03.03.05.03.07v1.83l.54-.54c.01 0 .02 0 .03-.01 1.08-4.63.31-9.69-2.31-13.7-1.87-2.86-4.61-2.45-3.86 2.14 1.08 6.52 2 13.92-3.61 17.65-.2.13-.46.11-.63-.06s-.2-.43-.07-.63c2.09-3.17 3.61-10.09-.5-7.99-1.49.77-2.41 2.28-3.39 3.88-3.4 5.59-4.87 4.28-7.62 5.45-2.24.94-3.38 3.38-3.69 5.36z" fill="#707070" data-original="#000000" style=""/><path d="m35.54 5.7.41.41c-.07-.2-.14-.4-.23-.59zm.11 5.44-.91.91.43.42c.24-.38.44-.79.61-1.21-.01-.01-.02 0-.03-.01zm-1.26.56.91-.91-.17-.16-.91.9zm.44 1.15-.47-.47c-.03.01-.05.03-.08.03-.06 0-.13-.02-.18-.07-.07-.07-.07-.17-.04-.26l-.19-.19-.15.15c.21.06.37.25.37.48v1.31c.29-.3.56-.62.8-.96-.02-.01-.04-.01-.06-.02zm-8.97 11.43-.1-.11c-.01 0-.02.01-.02.01-.04 0-.07 0-.1-.02.08.05.15.08.22.12zm-1.29-1.3-.32.32c.23.17.47.33.71.49.24.14.46.26.67.37-.02-.01-.05-.03-.07-.05-.05-.06-.07-.13-.07-.2zm5.46-15.03c.18 2.57 1.2 5.07 2.88 7.04.02.02.03.05.05.08-.01-.13.03-.26.13-.37v-2.03l-.52.52c-.24.24-.59-.12-.36-.35l1.31-1.31-.34-.34c-.1-.1-.1-.25 0-.35.09-.1.25-.1.35 0l.34.34.91-.91-.46-.45c-.09-.1-.09-.26 0-.35.1-.1.26-.1.36 0l.45.45.18-.18c.1-.1.26-.1.36 0 .1.09.1.25 0 .35l-.18.18.16.17.22-.22c.07-.07.17-.07.26-.04.06-.24.1-.48.14-.72-.02.01-.04.03-.06.03-.07 0-.13-.03-.18-.08l-1.1-1.1c-.14.14-.29.12-.38.03-.1-.1-.1-.26 0-.35l.07-.08c0-.07.03-.13.07-.18.05-.05.12-.08.19-.07l.95-.96-.69-.7c-.01 0-.01.01-.01.01-.06 0-.13-.03-.18-.08-.09-.09-.09-.25 0-.35l.54-.54c-.66-1.27-1.66-2.37-2.89-3.09-2.1 1.1-2.74 3.63-2.57 6zm16.38 7.06.28.28c.23-.38.44-.77.64-1.18l-.02-.01zm-1.44 2.14-.43.43.22.22c.16-.16.31-.32.46-.49-.01-.01-.03-.01-.04-.02l-.19-.18c-.01.01 0 .03-.02.04zm-1.39.18-.99 1 .25.25.99-1zm-17.22 6.74c.1.1.1.26 0 .36-.02.02-.05.02-.08.03 1.08.44 2.09.55 3.06-.1-.21-.17-.42-.35-.63-.52l-.82.81c-.1.1-.26.1-.35 0-.1-.09-.1-.25 0-.35l.77-.77c-.33-.26-.67-.53-1.01-.78l.12.11c.09.1.09.26 0 .36-.21.2-.39-.04-.59-.24.03.09.03.18-.04.25l-.63.63zm.07-1.19c.07-.07.17-.07.26-.04l-.99-.98-.78.77.88.88zm-.35-5.56c-2.05-1.47-4.68-2.02-7.14-1.5.97 3.05 2.62 5.47 4.92 7.21.01-.03.01-.06.04-.08l.31-.32-.37-.37c-.09-.09-.09-.25 0-.35.1-.1.26-.1.36 0l.37.37.77-.78-.27-.28c-.1-.1-.1-.25 0-.35.09-.1.25-.1.35 0l.35.35c.05 0 .11.02.15.06s.06.1.06.15l1.2 1.19c-.33-.43.24-1.03.7-.68.64.47 1.27.96 1.88 1.47-.11-.74-.3-1.46-.58-2.14l-.11-.03-.71.71c-.05.05-.11.07-.18.07-.06 0-.13-.02-.17-.07-.1-.1-.1-.26 0-.36l.81-.81c.03-.03.07-.05.11-.06-.15-.3-.32-.59-.5-.88l-.38.38.41.41c.1.1.1.26 0 .35-.1.1-.26.1-.35 0l-.41-.4-.77.77c-.1.1-.26.1-.36 0-.09-.1-.09-.26 0-.35l.78-.78-.88-.87c-.1-.1-.1-.26 0-.36.1-.09.26-.09.35 0l.88.88.42-.42c.01-.01.03-.01.05-.02-.57-.81-1.27-1.52-2.09-2.11zm16.15 1.36-.76.77.44.44c.03.03.04.07.05.11.87-.51 1.64-1.08 2.45-1.85l-.22-.21-1.04 1.03c.01.08 0 .15-.06.21-.05.05-.11.08-.18.08-.01 0-.02-.02-.03-.02l-.33.33c-.09.1-.25.1-.35 0s-.1-.26 0-.35l.28-.29zm-1.11 1.12-.7.7.06.05c.03.04.03.08.05.12.32-.11.66-.25 1.02-.44zm-4.79-10.79c.02-.3.03-.59.02-.89-.02-.35-.07-.7-.14-1.04l-.02-.03-.91.91zm1.02-.94c.12 2.69-1.15 5.41-3.26 7.09v7.35c.73-.74 1.48-1.45 2.26-2.13-.03-.08-.05-.15-.05-.23.4-6.36 6.56-10.75 12.68-9.1.13.04.24.12.31.24.06.12.08.26.04.39-1.16 4.01-3.38 7.05-6.62 9.04-1.89 1.17-3.94 1.78-5.68.39-1.03.9-2.01 1.84-2.94 2.83v9.01c0 .27-.22.5-.5.5s-.5-.23-.5-.5v-5.07c-.94-.99-1.93-1.95-2.96-2.85-1.75 1.38-3.8.77-5.69-.39-3.23-1.99-5.46-5.04-6.62-9.05-.37-1.29 5.24-1.67 8.85.92 2.43 1.74 3.99 4.57 4.18 7.55.01.08-.01.16-.05.23.79.69 1.55 1.42 2.29 2.16v-2.55c-.03-.09-.03-.19 0-.28v-8.26c-.01-.01-.03-.02-.05-.04-.01-.01-.01-.03-.02-.04.01.15-.04.31-.16.41-.21.18-.53.16-.71-.05-1.81-2.13-2.92-4.83-3.12-7.62-.21-2.92.71-5.73 3.13-6.97.15-.08.32-.06.46.01.87-.41 4.53 2.87 4.73 7.01zm10.87 3.83c-5.07-1.05-10.06 2.33-10.83 7.6.61-.51 1.24-1 1.88-1.48.22-.16.53-.11.7.11.16.22.11.54-.11.7-.7.52-1.38 1.06-2.05 1.62.47.31 1.03.47 1.59.45.01-.05.02-.11.06-.15l.25-.25-.32-.32c-.1-.1-.1-.25 0-.35s.26-.1.35 0l.32.32.7-.7-.2-.19c-.09-.1-.09-.26 0-.36.1-.1.26-.1.36 0l.19.2.77-.77-.43-.42c-.1-.1-.1-.26 0-.36s.26-.1.36 0l.42.43 1-1-.36-.35c-.1-.1-.1-.26 0-.36s.26-.1.36 0l.35.36c.1-.1.26-.1.36 0 .05.05.08.11.08.17 0 .07-.03.13-.08.18l.25.25.43-.43c.01-.01.03-.01.04-.02l-.9-.9c-.1-.1-.1-.26 0-.35.1-.1.26-.1.36 0l1.41 1.41c.32-.39.62-.8.9-1.22-.11-.08-.3-.28-.4-.38-.09.04-.17.08-.28-.03-.08-.08-.07-.19-.03-.28l-.29-.29-.78.78c-.1.1-.26.1-.36 0-.09-.1-.09-.25 0-.35l1.84-1.84c.1-.09.25-.09.35 0 .1.1.1.26 0 .36l-.69.7.26.26.91-.9-.75-.75c-.09-.1-.09-.26 0-.35.1-.1.26-.1.36 0l.78.78c.08-.02.17-.02.23.05.01.01.01.03.02.04.22-.52.44-1.05.62-1.62z" fill="#707070" data-original="#000000" style=""/><path d="m24.45 54.76-.14-.14c-.13.13-.07.07-.15.11 0 0 .28.03.29.03zm4.37 3.92 1.28 1.28c-.13-.66-.4-1.26-.78-1.78zm.42 3.75-1.09 1.1.11.12c1.04-.36 1.63-.99 1.85-2.14-.04.14-.43.49-.54.59.07.1.07.23-.01.32-.09.08-.19.1-.32.01zm-5.8-.55.57.58 1.18-1.18-.52-.52c-.02-.02-.02-.05-.03-.08zm.14-8.7.73.73 1.4-1.4-.73-.73zm-.36.35-1.16 1.17c.51-.03.92-.06 1.86.01-.19-.13-.12-.28.04-.44zm-.88 9.85c.09.1.09.26 0 .35-.01.01-.02.01-.03.01.3.05.61.09.91.12.54.07 1.08.1 1.62.12-.01-.01-.02-.01-.03-.01l-.8-.8-.61.61c-.05.05-.11.08-.18.08-.06 0-.12-.03-.17-.08-.1-.1-.1-.26 0-.36l.61-.61-.58-.57-.94.94zm-.64.24c.07.02.14.03.22.05l-.13-.13zm.21-11.4-1.37 1.38 1 1c.01-.06.02-.11.06-.15l1.27-1.27zm5.76-5.86-.48.47c-.01.01-.02.01-.02.01l.68.69c.14-.14.29-.25.45-.09.09.1.09.25 0 .35l-.1.09.27.27c-.02-.43-.05-.85-.12-1.27-.05-.32-.13-.65-.22-.98l-.13.12c.07.1.07.23-.01.32-.09.09-.2.1-.32.02zm-.33 13.48.78.78.69-.68c.09-.1.25-.1.35 0 .1.09.1.25 0 .35l-.69.69.76.76.48-.48c.1-.09.25-.09.35 0 .04.04.05.1.06.15.05-.32.07-.66.03-1.02-.11.1-.25.08-.33-.01l-1.35-1.35-.34.34c-.05.05-.11.07-.17.07s-.11-.03-.16-.06zm.78 1.49-1.09 1.09.76.76 1.09-1.09zm-1.44 1.44-.87.87c-.09.1-.25.1-.35 0s-.1-.26 0-.36l.87-.86-.79-.79-1.17 1.18.8.8c.09.1.09.26 0 .36-.01 0-.01 0-.02.01.95.01 1.55.03 2.55-.19zm-.9-8.43.88-.88-.59-.6-1.4 1.41.61.61c.53.1 1.56.38 2.14.63.26-.75.47-1.94.62-2.72l-.67.67.16.16c.1.1.1.26 0 .36-.09.1-.25.1-.35 0l-.16-.17-.89.88c-.23.23-.59-.11-.35-.35zm1.2 5.86-1.08 1.08.78.78 1.09-1.08zm-.56-7.69.59.59 1.17-1.17c.02-.1.04-.2.05-.3-.01 0-.03.02-.04.02-.07 0-.13-.03-.18-.07l-.33-.33zm-6.03 9.55-.5.5.5.5c.08.07.08.18.03.28.23.06.46.12.69.17l.32-.33-.98-.98c-.04-.04-.05-.09-.06-.14zm-.62 1.08-.23-.23-.13.12c.12.04.24.07.36.11zm.42-9.19c-.11.11-1.16 1.2-1.31 1.24.01 0 .01.01.02.02.53-.15 1.41-.33 2.12-.42zm8.82 3.83c-3.24-3.51-12.99-2.32-13.51 1.38-.11.79.27 1.69.97 2.35.68.66 1.58 1.05 2.4 1.35l.31-.3-.26-.27c-.1-.1-.1-.25 0-.35s.25-.1.35 0l.27.26 2.61-2.62c.1-.09.26-.09.36 0 .1.1.1.26 0 .36l-1.85 1.85c.05 0 .1.02.14.06l.99.98.94-.95-.24-.24c-.1-.1-.1-.25 0-.35s.26-.1.36 0l.24.24 1.69-1.69c.09-.1.25-.1.35 0s.1.26 0 .35l-.18.19c.02.01.05.01.08.03l.52.52 1.08-1.09-.1-.1c-.1-.1-.1-.26 0-.35.09-.1.25-.1.35 0l.1.1.51-.51c.09-.09.24-.09.33-.01l.29-.29-.05-.05c-.1-.1-.1-.26 0-.36s.25-.1.35 0l.06.06zm-23.77-17.15c3.61 5.26 10.01 8.3 13.4 14.15l1.19-1.18-.69-.69c-.1-.1-.1-.25 0-.35s.26-.1.35 0l.69.68 1.38-1.37-.08-.07c-.09-.1-.09-.26 0-.36.1-.1.26-.1.36 0l.07.08 1.05-1.05c.09-.1.25-.1.35 0s.1.26 0 .36l-1.04 1.04.95.96 1.41-1.41-.75-.74c-.1-.1-.1-.26 0-.35.1-.1.26-.1.36 0l.74.74 1.03-1.02c.09-.1.25-.1.35 0 .1.09.1.25 0 .35l-1.03 1.02.74.74 1.26-1.26-1.72-1.72c-.1-.1-.1-.26 0-.36.1-.09.26-.09.35 0l2.34 2.34c.12-.86.19-1.72.19-2.59-.05.03-.09.06-.15.06s-.12-.03-.17-.07l-.32-.32-.71.71c-.1.1-.26.1-.36 0-.1-.09-.1-.25 0-.35l.72-.72-.89-.88c-.09-.1-.09-.26 0-.35.05-.05.12-.07.19-.07.01-.04.01-.07.04-.1l.46-.46-.85-.86c-.24-.23.12-.58.35-.35l.86.85.3-.31c-1.26-3.57-3.71-4.02-4.93-4.31-6.12-1.47-5.62-6.91-9.38-8.85-1.59-.81-2.96-.24-2.55 2.28.41 2.4 1.07 4.22 2.05 5.72.13.2.11.46-.06.63-.17.16-.43.19-.63.06-2.46-1.63-4.06-4.66-4.41-8.3-.63-6.59 2.64-12.43-.33-13.24-1.25-.35-2.4 1.25-2.73 1.75-1.86 2.84-2.78 6.21-2.78 9.58 0 3.52 1.01 7.05 3.03 9.96zm8.87-9.33c4.15 2.15 3.52 7.43 9.15 8.77.6.14 1.21.29 1.8.54 2.19.92 3.83 3.26 4.28 6.12.52 3.24-.62 8.12-1.02 9.24 1.49.86 2.51 2.21 2.8 3.99.57 3.69-1.97 5.04-5.75 5.04-2.3 0-4.55-.38-6.7-1.14-.96-.35-2.05-.81-2.89-1.63-.82-.76-1.3-1.81-1.3-2.81 0-.13.01-.27.03-.4.2-1.41 1.35-2.62 3.24-3.43.06-.02.11-.03.17-.05-3.21-5.8-9.74-8.87-13.5-14.34-4.18-6.03-4.29-14.52-.26-20.66 1.13-1.73 2.52-2.52 3.82-2.16 4.15 1.12.42 7.41 1.06 14.1.21 2.17.89 4.1 1.95 5.58-.37-1.01-.66-2.14-.88-3.42-.58-3.61 1.93-4.39 4-3.34z" fill="#707070" data-original="#000000" style=""/></g></g></g></svg>
