<?xml version="1.0"?>
<svg xmlns="http://www.w3.org/2000/svg" xmlns:xlink="http://www.w3.org/1999/xlink" xmlns:svgjs="http://svgjs.com/svgjs" version="1.1" width="512" height="512" x="0" y="0" viewBox="0 0 256 256" style="enable-background:new 0 0 512 512" xml:space="preserve"><g><path xmlns="http://www.w3.org/2000/svg" d="m208.76 154.77c-2.94-19.27 2.1-39.7-1.87-59.54-32.45-4.21-66.27-1-99.54-.68-19.43-1-40.35-2.24-59.78.69-3.15 15.76-1.07 32.48-.57 49.24-1.11 23.61-3 46.63.57 70.1 21 1.06 43.84 3.46 65.35.72 11.07-1.39-17-3.08-19-2.78 2.7-26.73-2.89-20.18 20.47-21.29.59 6.74.17 17.22 2.16 23.16 2.41-7.56-1.2-25.47 4.75-23 28.94 1.37 57.41 2.5 85.64-.86 2.22-11.37 2.24-23.73 1.82-35.76zm-117.46 29.87c0 1.5.07 3 .11 4.49-5.18-.37-13.21-.37-18.79-.24.22-6.06 0-13.57-.19-20.4 6.4.11 12.21.2 19.17-.24-.15 4.66-.36 10.91-.3 16.39zm113.93-65.11c.78 7.19 1.5 15.26.56 23.18-20.66-2.83-20.87 4-20.21-13.15.53-2.49-.18-6.54 1.27-8.79 5.47-.23 12.5-.7 18.38-1.24zm-21.88 1.39c-.25 4.91 4.13 22.77-2.52 20.26-4.74-.16-8.8-.24-13.86-.32h-2.69c-.88-.22-1.7.67-1.45-1.4-1.83-26.29 2.58-16.14 20.52-18.54zm-22.82.39c-.28 4.38 3.39 19.46-1 19.57-6.58-1.1-18.06 2.76-19.53-1-1.58-26.98 1.54-17.21 20.53-18.57zm-22.9-.5c3.24 28.51.54 19-20.71 21.51-.06-7 1.24-14.8 1.16-22.41 5.92.14 12.92.63 19.55.9zm-23 4.33c-.83 4.6 3.54 15.48-.34 17.22-5.72-.61-21.37 1.36-20.21-2.34.13-4.88.84-10.65 1.08-16.05.57-3.57.07-3.54 1.58-3.63-1.55 2.65-1.53 1.72-1.51.1 9.06.56 21.34-4.71 19.4 4.7zm-22.86 0c.25 5 1 11 1 16.46-6.35-.45-14.66-.47-21.6-.26 0-6.36 1.14-13.42 1.16-20.45 6.44.11 12.28.2 19.28-.24.05 1.5.08 3 .16 4.49zm-22.77 37.19c-.51.23 1 3-1.06 2.9-5.83.21-12.27.55-18.56 1.2-.19-7-1.19-15.36-1.17-23.19 28.04 3.08 21.35-4.36 20.79 19.09zm-.07-37.19c0 4.6 1.53 11.86.8 16.24-7.46.23-14.23.58-21.51 1.37-.09-7.18 1.27-15.33 1.17-23.19 9.33 2.19 21.33-2.26 19.52 5.58zm-19.46 44.63c0-.87 0-1.74-.08-2.61 5.85.62 13.1 1 19.35 1.22-.58 28.38 3.26 18.62-19.17 21.83.26-6.03.14-13.68-.1-20.44zm38-4.64c-4.08-.18-10.36-.12-14.9 0-.91-5.28-1.06-13.8-1.36-20.44 7.14.19 13.93.24 21.61-.26 0 6.8-.83 13.32-1.12 21-1.41-.17-2.82-.25-4.23-.3zm7.57-2.8c.84-3.89-3.5-17.76.49-18.12 6.24.52 19.58-3 20.14.84-.08 6-.59 10.76-1 17.28-.65 3.83-.17 3.82-1.6 3.84 1.56-3 1.5-1.82 1.43 0-7.16-.85-21.24 2.22-19.5-3.84zm22.86 0c-.31-5.49-1-12.37-1-18.66 6.45.14 13.8.67 21 1-1.67 3.83 1.32 20-2.28 20.63-6.23-.88-19.45 4.23-17.72-2.97zm23.1-7.56c-.11-2.88-.24-6.15-.63-10.06 6.09.17 13.47.32 20.3.4-1.79 26.06 3.4 18.39-19.42 19.94.05-3.43-.08-6.85-.25-10.28zm22.86 0c-.1-2.68-.23-6-.59-9.64 6 0 13.64-.17 20.3-.43-.58 6-.82 13.4-.88 20.34-18.92-1.42-18.91 3.96-18.79-10.27zm22.86 0c-.11-2.93-.24-6.19-.64-10.17 5.87-.25 13.23-.71 19.62-1.32-.69 6.95-1 15.28-1 23.13-19.78-2.19-17.7 2.8-17.94-11.64zm19.95-59.37a110.48 110.48 0 0 0 -1.48 23.46c-5.47-.52-12.47-1-18.34-1.24-.52-5.51-.2-14-1.54-20.79 6.28-.25 14.4-.74 21.36-1.43zm-22.25 1.47a115 115 0 0 0 -1.29 20.59c-6.07-.21-12.81-.41-19.37-.4a119 119 0 0 0 -1.23-19.73c6.47.03 14.8-.18 21.89-.46zm-22.93.45a116.55 116.55 0 0 0 -1.23 19.76c-6.22.07-12.49.2-19.37.38a116.09 116.09 0 0 0 -1.29-20.58c6.53.2 14.63.37 21.89.44zm-24.33-.52h1.55c-3.46 26.73 4.63 19.71-20.63 21.63a180 180 0 0 0 -1.52-22.61c6.28.18 13.56.66 20.6.98zm-21.16-.94c-4 22.78 4.52 23.58-11.71 22.6-2.93-.34-6.21.12-9.1-.75a183.92 183.92 0 0 0 -1.43-21.19c7.05-.52 14.64-.87 22.24-.66zm-38.46 1.14c4.85.08 10 0 15.54-.39a180.2 180.2 0 0 0 -1.42 21.17c-5.33-.38-13.55-.38-19.3-.24a185.87 185.87 0 0 0 -1.36-20.7c1 .05 5.3.16 6.54.16zm-7.35-.14c-2.56 29.39 2.23 18.41-20.83 22a176.88 176.88 0 0 0 -1.58-23.46c6.9.79 15.14 1.21 22.41 1.42zm-22.41 117.53c1-7.8 1.51-15.61 1.77-23.41 5.74.59 12.54 1 18.83 1.19 1.44 5.6.52 14.61 1.88 21.23-7.14.24-14.98.6-22.48.99zm45.22-1.86c-6 .22-16 .67-22.12.85 3.42-29.82-3.78-18.72 20.6-21.32.27 6.82.72 13.65 1.52 20.47zm14.33-22.59c-2.53-.91-11.53 1.36-11.86-1.75.22-6.33 0-12.56-.19-19.29 3.5-3 13.45-.75 19.18-1.47-.23 7-.49 14.89-.19 22.53-2.27.04-4.61.04-6.92-.02zm19.87-.44c-3 .15-6 .28-8.92.37.28-6.9.07-14.83-.19-22.36 27.93-.2 16.25 1.91 20.62 21.43-3.16.06-7.55.35-11.49.56zm12.36-.59a172.59 172.59 0 0 0 1.65-20.38c2 .06 3.91.11 5.87.14 4.28.09 8.56.19 12.84.24a171.86 171.86 0 0 0 1.58 19.55c-7.03.08-14.29.22-21.92.45zm22.92-.45c3-27-2.85-17.78 20.28-19.92a173 173 0 0 0 1.67 20.38c-7.12-.28-14.26-.49-21.93-.46zm22.78.49c3.19-27.64-2.75-18.87 19.47-21.78a169.89 169.89 0 0 0 1.92 23.22c-6.78-.66-14.11-1.14-21.37-1.39z" fill="#ffffff" data-original="#000000" style=""/><path xmlns="http://www.w3.org/2000/svg" d="m238.56 165.83c-7.63-137.73 18.3-125.09-32.44-122-.39-7.83 4.88-28.52-9.28-25.83-3.74.73-11.23-.44-11.76 5.9 0 6 .36 22.61-3.51 20.26-42.77-.46-72.33-2.58-109.47-.16.94-17 3.83-34-19.91-23.16-2.23 6.39-.52 15.57-2.47 23.05-11.63.71-31.59-6.27-32 4.79-2.46 54.6 3.08 105.65.09 161.48-.39 13.16-3.64 28.18 14.5 27.94 43.59 0 114.37 2 144.37-3.23-173.92-9.7-152 12.24-155.06-25-2.62-42.46 1.18-89.31.68-133.87 27.3 3.4 55 1.57 82.92.3 43.25 1.41 84.94 4.36 128.06-.36 2.9 30.93.41 61.61-.46 92.93-2.25 75.7 9.68 60.52-23.1 66.82 19 2.22 29.18 3.51 28.69-17 .72-19.28.59-34.93.15-52.86zm-51.44-141c-.78-4.27 12.47-3 13.27-.39-1.8 11.38 2 22.91 1.59 34.32-2.95 2.23-9.27 1.71-13.28-.45-1.16-3.18.67-6.33.08-10.62-.36-7.97-2.31-14.59-1.66-22.86zm-134 0c-.79-4.27 12.47-3 13.27-.39-1.8 11.38 2 22.91 1.59 34.32-3 2.23-9.27 1.71-13.28-.45-1.16-3.18.67-6.33.08-10.62-.36-7.97-2.31-14.59-1.66-22.86zm155.6 48.17c-33.85-2.2-67.79.4-102 1.45-28.2-1-55.9-3.28-84.43.31-.74-39.27-5.35-25.91 27.34-29.92-.08 7.48-2.37 19.49 10.37 16.16 3.48-.77 7.48 1.12 9.76-3.18 2.18-5.37-1-15.57 8.54-12.65 34.61 1.82 71.12-.23 105.4-.56-.15 7.39-2.54 19.78 10.3 16.39 3.21-.76 6.57 1 9.29-2.35 2.62-2.49.18-13.11 4.14-13.51 8.64 1.54 17.37-.14 25.67 2.39.6 9-.48 18.08.18 27.33-8.22-.86-16.39-1.4-24.56-1.86z" fill="#ffffff" data-original="#000000" style=""/></g></svg>
