<svg id="Layer_1" enable-background="new 0 0 66 66" height="512" viewBox="0 0 66 66" width="512" xmlns="http://www.w3.org/2000/svg"><g><g id="XMLID_1_"><path d="m50.19 23.1c.89.43 2.04.18 2.63-.56.7-.87.42-1.66.19-2.05-.49-.84-1.54-1.33-2.49-1.17-1.82.29-1.88 3.05-.33 3.78zm.17-4.77c1.37-.22 2.81.45 3.51 1.65.6 1.04.51 2.23-.27 3.19-.88 1.1-2.53 1.46-3.84.84-2.42-1.16-2.21-5.22.6-5.68z"/><path d="m44.21 23.17c-1.84 2.29-5.97.97-5.48-2.45.44-3.11 4.36-3.11 5.74-.74.27.45.4.93.4 1.41 0 .62-.22 1.24-.66 1.78zm-.78-.63c.69-.87.41-1.66.18-2.06-.9-1.54-3.59-1.76-3.89.37-.35 2.45 2.51 3.19 3.71 1.69z"/><path d="m29.43 20.72c.44-3.1 4.36-3.11 5.75-.74.26.45.39.92.39 1.4 0 .62-.22 1.25-.66 1.79-.89 1.1-2.54 1.46-3.84.84-1.16-.56-1.84-1.91-1.64-3.29zm2.07 2.38c.89.43 2.04.18 2.63-.56.7-.87.41-1.66.18-2.06-.9-1.54-3.58-1.77-3.89.37-.11.79.18 1.82 1.08 2.25z"/><path d="m45.5 43.74-.88.88.71.71.07-.06c.06-.51.09-1.02.1-1.53zm-10.8-36.94.45-.44c-.28.02-.56.03-.84.05zm-5.62 1.29 1.34-1.34c-.29.03-.58.05-.87.08-.51.05-1.03.11-1.54.19zm-1.66 28.15 1.17 1.16.93-.92-.15-.15c-.06-.06-.07-.15-.05-.23-.56-.03-1.12-.06-1.67-.09zm-6.19-5.29-.04-.04c0 .02.01.05.01.07zm1.94-12.47-1.22-1.22-.32.32c-.09.88-.17 1.77-.24 2.66l.01.01zm-1.73 5.63 1.56-1.55-1.62-1.62c-.01.01-.02.01-.03.01-.06.98-.11 1.95-.15 2.92zm17.97 12.59c-.33-.02-1.94-.12-2.15-.13l-.32.32 1.14 1.14zm-3.31.06c-.07-.07-.07-.17-.03-.26-.69-.05-1.36-.09-2.05-.13l-.21.21 1.36 1.37 1.06-1.06zm4.33-30.67.69.69.73-.74c-.47.01-.95.03-1.42.05zm-19.06 21.38 1.37-1.36-1.3-1.29-.29.29c-.02.71-.02 1.41-.03 2.11zm.58-10.92 1.86-1.86-1.29-1.29-.28.27c-.05.05-.11.08-.17.08-.01 0-.01-.01-.01-.01-.01.09-.03.17-.04.25-.1.78-.18 1.57-.27 2.37zm4.02-7.24-1.21-1.2c-.69.43-1.09.84-1.53 1.58h.01l1.14 1.14 1.47-1.47c.03-.03.07-.04.12-.05zm-3.45 3.38 1.5-1.51-1.04-1.04c-.34.72-.56 1.5-.71 2.3zm1.77 23.11.1-.1c-.08-.02-.17-.03-.25-.05zm31.1-29.47c-.31-.02-.34-.02-.34-.02l.18.18zm-11.27 40.92.33.33c.02.02.02.04.03.06.35-.43.58-.93.73-1.48zm2.93-39.83.92-.91-.38-.37c-.02-.03-.03-.07-.04-.11-.5 0-1-.02-1.5-.02-.01.04-.02.09-.05.13l-.09.08 1.11 1.11c.02.03.02.06.03.09zm-1.54 35.48c0-.73-.01-1.44-.02-2.14l-.37-.36-1.06 1.05zm2.7-36.86.11.12.11-.11c-.08 0-.15 0-.22-.01zm-6.7 31.56.73-.73c-.52-.03-1.03-.06-1.55-.09zm3.39-.57c-.39-.02-.77-.04-1.16-.07l.62.62zm5.79-30.93.09.08.07-.07c-.05-.01-.11-.01-.16-.01zm-.27.43-.46-.46c-.28-.01-.56 0-.85-.01v.01l-.44.44.73.73c.08.08.08.19.03.29zm-5.44-.53c-.73 0-1.45.02-2.17.03l1.29 1.29 1.1-1.1zm6.54.14-.39.39.93.94 1.24-1.25c-.59-.03-1.18-.06-1.78-.08zm-7.77 37.61.52.52.95-.96s0 0-.01 0l-1.5-1.5-.76.75c-.1.1-.26.1-.35 0-.1-.1-.1-.26 0-.35l.75-.76-.52-.52c-.09-.1-.09-.25 0-.35.1-.1.26-.1.36 0l.52.52 1.05-1.06-.19-.19c-.1-.1-.1-.26 0-.36s.26-.1.36 0l.19.19.34-.34c-.02-.7-.05-1.39-.08-2.07l-.67.66.19.19c.1.09.1.25 0 .35s-.26.1-.35 0l-.19-.19-1.08 1.08.12.13c.1.1.1.25 0 .35s-.25.1-.35 0l-.13-.12-1.44 1.44c-.1.1-.26.1-.35 0-.1-.1-.1-.26 0-.35l1.44-1.45-1.06-1.05-1.25 1.24c-.09.1-.25.1-.35 0-.1-.09-.1-.25 0-.35l1.25-1.25-1.06-1.06c-.04-.03-.04-.08-.05-.12l-1.62 1.61 1.22 1.22c.1.1.1.26 0 .36-.1.09-.26.09-.35 0l-1.26-1.26c-.08.02-.13.05-.23-.05-.06-.06-.07-.15-.05-.23l-1.18-1.18-1.05 1.06.33.34c.1.09.1.25 0 .35s-.25.1-.35 0l-.34-.34-.17.18c-.1.1-.26.1-.36 0s-.1-.25 0-.35l.18-.18-1.36-1.36-.86.86c-.1.09-.25.09-.35 0-.1-.1-.1-.26 0-.36l.85-.86-.28-.28c-.76-.05-1.52-.09-2.29-.13l-.3.31 1.7 1.69c.09.1.09.26 0 .36-.1.09-.26.09-.36 0l-1.7-1.7-.92.93.1.1c.1.1.1.26 0 .35-.1.1-.26.1-.35 0l-.13-.12c-.09.03-.16.07-.27-.04-.08-.07-.08-.18-.04-.27l-1.19-1.19-.8.8c-.09.1-.25.1-.35 0s-.1-.26 0-.36l.8-.79-.3-.3c-.48-.03-.96-.07-1.43-.14l-.34.35 1.24 1.24.01.01c.09.1.09.25-.01.35s-.26.09-.35 0l-1.25-1.25-.51.51c-.09.1-.25.1-.35 0s-.1-.25 0-.35l.51-.51-.74-.73c-.01-.02-.01-.05-.02-.07-2.81-1.13-3.07-3.82-3.08-6.25-.03-3.39.18-7.33.25-8.33-2.88.02-5.91.12-8.98.31-4.4.26-7.65 1.13-8.7 5.68-.44 1.97-.33 3.06-.19 14.61.04 4.06.37 8.03 4.99 9.16.31.08.47.44.32.73-1.19 2.16-1.79 4.57-1.73 6.98.07 2.41 1.61 2.15 3.43.58 2.62-2.3 4.93-4.93 6.76-7.66.53-.78-.54-.43 10.46-1.12 4.17-.25 8.48-.52 12.72-.73 1.87-.09 3.63-.27 4.76-1.34-.03-.01-.06-.01-.09-.04l-.33-.33-.75.75c-.1.1-.25.1-.35 0s-.1-.25 0-.35l.75-.75-.76-.76c-.1-.1-.1-.25 0-.35s.26-.1.36 0l.75.76 1.21-1.21-.71-.72-.81.81c-.1.1-.26.1-.35 0-.1-.09-.1-.25 0-.35l.81-.81-.52-.52c-.1-.1-.1-.25 0-.35s.26-.1.35 0zm8.33-35.57-1.3-1.3-1.02 1.02c-.09.1-.25.09-.35 0-.08-.09-.08-.21-.02-.31-.12.11-.25.08-.34 0l-.73-.73-.94.94c-.1.1-.26.1-.36 0-.02-.03-.03-.06-.04-.1-.12.08-.23.07-.31-.02l-1.11-1.11-1.11 1.1.09.09c.1.1.1.26 0 .36-.1.09-.25.09-.35 0l-.12-.13c-.09.03-.15.05-.24-.04-.07-.07-.07-.16-.05-.24l-1.44-1.45-.87.87.67.67c.1.09.1.25 0 .35-.09.1-.25.1-.35 0l-.67-.67-.42.42c-.1.09-.26.1-.35 0-.1-.1-.1-.26 0-.36l.41-.42-1.01-1.01c-.86.03-1.72.06-2.57.11l.84.84.51-.51c.1-.1.25-.1.35 0 .1.09.1.25 0 .35l-.51.51 1.04 1.03c.09.1.09.26 0 .36-.1.09-.26.1-.36 0l-1.03-1.04-.85.85c-.1.1-.26.1-.35 0-.1-.1-.1-.25 0-.35l.85-.85-1.15-1.15c-.34.02-.68.05-1.02.07 0 0 .01 0 .02.01.1.09.1.25 0 .35l-.46.46 1.01 1.01c.1.1.1.26 0 .36-.09.1-.25.1-.35 0l-1.02-1.02-.82.83c-.1.09-.26.1-.35 0-.1-.1-.1-.26 0-.36l.82-.82-.7-.7c-.78.06-1.55.14-2.32.21l1.86 1.87c.1.09.1.25 0 .35s-.26.1-.35 0l-1.93-1.92-1.48 1.48.53.53c.1.1.1.25 0 .35s-.26.1-.35 0l-.53-.53-.45.44c-.1.1-.25.1-.35 0-.1-.09-.1-.25 0-.35l.44-.44-1.31-1.31c-.78.15-1.53.37-2.2.71l2.28 2.28c.1.1.1.26 0 .36s-.26.1-.35 0l-.89-.89c-.01.04-.02.09-.05.12l-1.47 1.47.84.84c.1.1.1.26 0 .36-.1.09-.26.09-.35 0l-.84-.84-1.51 1.5 1.29 1.29 1.96-1.95c.09-.1.25-.1.35 0s.1.25 0 .35l-1.95 1.96.03.03c.1.1.1.26 0 .35-.1.1-.26.1-.36 0l-.03-.03-1.86 1.86 1.22 1.22 2.09-2.09c.1-.09.25-.09.35 0 .1.1.1.26 0 .36l-2.14 2.14c-.01.07-.03.13-.08.17-.04.05-.1.07-.17.07l-1.82 1.83 1.6 1.6 1.86-1.86c.1-.1.26-.1.36 0 .09.1.09.26 0 .35l-1.95 1.95c-.01.04-.02.09-.05.13-.04.04-.09.05-.14.06l-1.63 1.63 1.29 1.29.79-.78c.1-.1.25-.1.35 0 .1.09.1.25 0 .35l-.91.91c-.01.03-.01.06-.03.08s-.05.02-.08.03l-1.48 1.49 1.04 1.04c.09.09.09.25 0 .35-.1.1-.26.1-.36 0l-1.04-1.04-.27.27c0 .21-.01.43 0 .65 0 .34.01.69.03 1.04l.46.46 1.27-1.28c.1-.09.25-.09.35 0 .1.1.1.26 0 .36l-1.27 1.27.34.34c.1.1.1.26 0 .36-.1.09-.25.09-.35 0l-.34-.35-.28.29c.61 2.84 2.68 3.23 5.59 3.38 7.02.36 15.32.92 21.63 1.28.16.01.3.1.39.23 1.83 2.96 3.93 5.47 6.3 7.64 1.64 1.51 3.07 1.64 3.24-.57.18-2.29-.26-4.6-1.28-6.69-.14-.29.02-.63.33-.71 4.52-1.1 5.05-5.04 5.33-9.02l.71-10.02c.42-5.81-.24-9.71-6.12-10.58l.68.68c.1.1.1.26 0 .35-.1.1-.25.1-.35 0l-.91-.9c-.06-.06-.07-.14-.06-.21-.24-.03-.49-.06-.73-.08l-.47.47.54.54c.1.09.1.25 0 .35s-.25.1-.35 0l-.54-.53-.56.55c-.1.1-.26.1-.36 0-.1-.09-.1-.25 0-.35l.56-.56-.57-.57c-.11-.01-.22-.01-.33-.02l-1.56 1.57.01.01c.1.1.1.25 0 .35s-.26.1-.35 0zm-9.16 30.83 1.08-1.08-1.01-1.01c-.03 0-.06-.01-.09-.01l-1.04 1.04zm11.62 5.85c-2.61-2.4-4.86-5.22-6.23-7.47l-.1-.16c-.62-.03-1.23-.07-1.84-.11.06 1.29.11 2.61.13 3.98.03.07.03.14 0 .21 0 .34 0 .69.01 1.04 0 0 .01 0 .02.01.1.1.1.25 0 .35l-.02.03v.59c-.03 5.33-1.97 6.73-7.03 6.98-4.23.21-8.54.47-12.71.73-3.2.2-6.4.4-9.62.58-1.95 2.86-4.12 5.41-7 7.96-2.88 2.49-5 1.53-5.09-1.32-.06-2.37.48-4.76 1.56-6.93-4.78-1.53-5.1-6-5.14-9.95-.14-11.6-.26-12.73.22-14.84 1.3-5.67 5.87-6.24 9.61-6.46 3.12-.19 6.19-.29 9.12-.31.16-2.01.36-4 .6-5.9.73-5.7 2.6-7.44 8.42-8.04 9.99-1.05 20.52-1.02 26.94-.42.05-.01.09-.01.13.01 7.22.71 8.54 4.69 8.03 11.76l-.71 10.02c-.28 3.84-.8 8.28-5.51 9.76.92 2.11 1.31 4.4 1.13 6.67-.21 2.73-2.36 3.57-4.92 1.23z"/></g></g></svg>