<?xml version="1.0"?>
<svg xmlns="http://www.w3.org/2000/svg" xmlns:xlink="http://www.w3.org/1999/xlink" xmlns:svgjs="http://svgjs.com/svgjs" version="1.1" width="512" height="512" x="0" y="0" viewBox="0 0 66 66" style="enable-background:new 0 0 512 512" xml:space="preserve" class=""><g><g xmlns="http://www.w3.org/2000/svg"><g id="XMLID_1_"><path d="m57.17 41.49 1.01 1.01.74-.74c.04-.04.09-.05.14-.06l-1.11-1.1c-.1-.1-.1-.26 0-.36.1-.09.26-.09.36 0l1.16 1.17c.1.1.1.26 0 .35-.04.05-.1.07-.16.07.04.1.04.21-.03.28l-.78.78c.01.08 0 .16-.06.22-.05.05-.11.08-.17.08-.02 0-.03-.02-.05-.02l-.73.73c-.09.09-.25.09-.35 0-.1-.1-.1-.26 0-.36l.69-.69-1.01-1.01c-.1-.1-.1-.26 0-.35.1-.1.25-.1.35 0z" fill="#ffffff" data-original="#000000" style=""/><path d="m55.1 44.18-.18-.18c-.09-.09-.09-.25 0-.35.1-.1.26-.1.36 0l.17.17 1.16-1.15c.1-.1.26-.1.35 0 .1.1.1.25 0 .35l-1.15 1.16.77.77c.1.1.1.26 0 .35-.1.1-.26.1-.36 0l-.77-.77-.12.12c-.09.1-.25.1-.35 0s-.1-.25 0-.35z" fill="#ffffff" data-original="#000000" style=""/><path d="m45.28 46.62c.07-.12.23-.16.34-.08l.5.3.9-1.3-.54-.44c-.11-.09-.13-.24-.04-.35s.25-.12.35-.04l.52.42 1.12-1.61c-.23-.18-.49-.32-.76-.42-.13-.05-.19-.2-.14-.33s.19-.19.32-.14c.31.12.6.28.86.48l.96-1.37c-.24-.16-.49-.29-.76-.38-.13-.05-.2-.19-.15-.32.04-.13.18-.2.31-.16.31.11.61.26.88.45l1.1-1.57c.08-.12.23-.14.35-.07.11.08.14.24.06.35l-1.12 1.61c.13.12.25.25.36.39.09.11.07.27-.04.35-.11.09-.27.07-.35-.04-.08-.1-.17-.2-.26-.29l-.95 1.37c.13.13.26.27.37.42.08.11.06.27-.05.35s-.27.06-.35-.05-.17-.21-.26-.3l-1.12 1.6.37.3c.11.09.12.25.04.36-.09.1-.25.12-.36.03l-.34-.28-.86 1.24.27.17c.12.07.16.23.09.34-.08.13-.24.15-.35.08l-.29-.18-1.42 2.04c-.08.11-.24.14-.35.06s-.14-.24-.06-.35l1.4-2.01-.47-.29c-.12-.07-.15-.22-.08-.34z" fill="#ffffff" data-original="#000000" style=""/><path d="m41.17 22c.28 0 .5.23.5.5 0 .28-.22.5-.5.5h-13.81c-.27 0-.5-.22-.5-.5 0-.27.23-.5.5-.5z" fill="#ffffff" data-original="#000000" style=""/><path d="m40.63 37.11c.28 0 .5.22.5.5 0 .27-.22.5-.5.5h-13.05c-.28 0-.5-.23-.5-.5 0-.28.22-.5.5-.5z" fill="#ffffff" data-original="#000000" style=""/><path d="m39.9 43.26c.27 0 .5.22.5.5 0 .27-.23.5-.5.5h-14.16c-.27 0-.5-.23-.5-.5 0-.28.23-.5.5-.5z" fill="#ffffff" data-original="#000000" style=""/><path d="m37.51 28.05c.28 0 .5.22.5.5 0 .27-.22.5-.5.5h-11.34c-.27 0-.5-.23-.5-.5 0-.28.23-.5.5-.5z" fill="#ffffff" data-original="#000000" style=""/><path d="m24.98 36.49c-.52.52-6.98 7.06-7.59 7.47-.19.13-.46.11-.63-.06l-3.99-4c-.2-.19-.2-.51 0-.7.19-.2.51-.2.71 0l3.68 3.68c.03-.02.06-.05.11-.08l7-7.01c.19-.2.51-.2.71 0 .19.19.19.51 0 .7z" fill="#ffffff" data-original="#000000" style=""/><path d="m23.99 19.99c.2-.2.51-.2.71 0 .19.19.19.51 0 .71l-6.69 6.69c-.14.19-.25.33-.37.47-.11.14-.22.28-.4.51-.08.11-.22.18-.36.19-.01 0-.02 0-.03 0-.13 0-.26-.05-.36-.14l-3.83-3.84c-.19-.19-.19-.51 0-.7.2-.2.51-.2.71 0l3.43 3.43c.02-.02.04-.05.06-.07.11-.14.22-.28.4-.51z" fill="#ffffff" data-original="#000000" style=""/><path d="m15.19 53.92-.85.86.81.81 1.13-1.13-.81-.82-.27.28zm-3.46.68 1.04 1.04.86-.86-.27-.28c-.1-.09-.1-.25 0-.35.09-.1.25-.1.35 0l.27.27.68-.68-1.04-1.04zm-2.4-.16c-.1.1-.26.1-.36 0-.09-.1-.09-.26 0-.36l.82-.81c-.01-.07 0-.15.06-.2.06-.06.13-.08.21-.07l1.53-1.52c.09-.1.25-.1.35 0 .1.09.1.25 0 .35l-1.49 1.49.93.92 1.89-1.9-.81-.81c-.1-.1-.1-.25 0-.35s.26-.1.35 0l.82.81.95-.95-.86-.86c-.1-.1-.1-.25 0-.35s.25-.1.35 0l.86.86.94-.95c.1-.09.26-.09.36 0 .09.1.09.26 0 .36l-.95.94.73.73c.1.1.1.25 0 .35s-.25.1-.35 0l-.73-.73-.95.96 1.04 1.04.1-.1-.23-.23c-.1-.09-.1-.25 0-.35s.26-.1.35 0l.23.23.86-.86c.1-.1.25-.1.35 0s.1.26 0 .36l-.85.85.81.82.2-.2c.1-.1.26-.1.35 0 .1.1.1.25 0 .35l-1.7 1.7c.06.1.06.22-.02.3-.05.05-.11.07-.18.07-.04 0-.08-.02-.12-.05l-1.28 1.28c-.1.1-.25.1-.35 0-.1-.09-.1-.25 0-.35l1.26-1.26-.81-.81-.89.88c.03.09.03.19-.05.26-.04.05-.11.07-.17.07-.03 0-.05-.02-.08-.03l-.8.79c-.1.1-.26.1-.35 0-.1-.09-.1-.25 0-.35l.77-.77-1.05-1.04-1.62 1.62c-.1.1-.26.1-.35 0-.1-.09-.1-.25 0-.35l1.62-1.62-.92-.93z" fill="#ffffff" data-original="#000000" style=""/><path d="m3.97 19.53-1.23-1.23c-.05.81-.09 1.68-.13 2.59zm49.39 14.44 7.66 5.85c.96-1.32 1.92-2.64 2.88-3.96.54-.76.43-1.8-.27-2.42-1.42-1.26-3.31-2.81-4.83-3.96-.86-.64-2.02-.41-2.59.41-.88 1.27-1.84 2.65-2.85 4.08zm-4.45 18.72-1.4 1.41.45.46 1.41-1.41zm-2.96.21c.09-.1.25-.1.35 0l.85.85 1.41-1.41-.39-.39c-.1-.1-.1-.25 0-.35.09-.1.25-.1.35 0l.39.39 1.43-1.43c.1-.1.26-.1.35 0 .1.1.1.26 0 .35l-1.43 1.43.46.46 1.62-1.62-.63-.63-.71-.71c-.09-.09-.09-.25 0-.35.1-.1.26-.1.36 0l1.34 1.34.93-.94c.1-.09.25-.09.35 0 .1.1.1.26 0 .36l-.93.93.02.02c.1.1.1.26 0 .36-.1.09-.26.09-.35 0l-.02-.03-1.62 1.62.38.39c.1.1.1.26 0 .35-.1.1-.26.1-.35 0l-.39-.38-1.4 1.4.46.47c.1.09.1.25 0 .35s-.25.1-.35 0l-.47-.47-.31.32c-.09.09-.25.09-.35 0-.1-.1-.1-.26 0-.36l.31-.31-.46-.46-1.06 1.06 2.33 1.7 3.72-5.14c1.35-1.85 2.69-3.69 4.03-5.54l-.66.65c.03.09.03.19-.04.27-.05.04-.11.07-.18.07-.03 0-.05-.03-.08-.04l-.8.8c-.1.1-.25.1-.35 0s-.1-.26 0-.35l.77-.77-.57-.57-1.56 1.57.93.93c.1.1.1.26 0 .36-.09.1-.25.09-.35 0l-.94-.94-.74.74c-.1.1-.26.1-.35 0-.1-.1-.1-.25 0-.35l.74-.74-.1-.1c-.09-.1-.09-.25 0-.35.1-.1.26-.1.36 0l.09.09 1.57-1.56-.23-.23c-.1-.1-.1-.26 0-.36s.26-.09.35 0l1.15 1.15.72-.72c.1-.1.26-.1.35 0 .08.08.08.18.04.28 1.38-1.91 2.76-3.82 4.15-5.73l-7.66-5.84c-3.65 5.14-8.46 11.79-12.11 16.79l5.01 3.64 1.12-1.12-.85-.85c-.1-.1-.1-.26 0-.35zm-6.78 7.17c2.95-.55 5.8-1.17 8.43-2.22l-7.3-5.3zm-27.06-49.92.9-.91c-.36.02-.73.03-1.09.05-.11 0-.22.01-.33.01.04.01.09.02.12.06.1.09.1.25 0 .35l-.02.02zm-.77-.77.02-.03c.03-.03.07-.03.11-.04-.07 0-.13.01-.19.01zm-.73-.02c-.94.06-1.88.16-2.8.34l1.61 1.6 1.56-1.57zm-4.96 1.95-.69-.68c0-.01 0-.01 0-.01-.46.24-.89.5-1.27.83-.05.07-.1.17-.15.31l.83.83zm30.75 1.92-.65.64.84.83c.03.04.04.09.05.14h.6c.72 0 1.53-.04 1.83-.52.27-.42.06-.9-.22-1.3-.01.02 0 .04-.02.05l-1.48 1.49c-.05.04-.12.07-.18.07-.07 0-.13-.03-.18-.07-.09-.1-.09-.26 0-.36l.19-.19zm-1.53 1.53c-.05.04-.11.06-.17.07l1.31.01-.61-.62zm-2.44-1.02-1.07 1.06s0 0-.01.01l2.16.01zm-1.62 1.06-1.11-1.1-1.06 1.06c-.02.02-.04.02-.06.03zm-2.87-.02-1.17-1.17-.86.87.28.29zm-5.02-7.52c-.05-2.06 1.22-4 3.08-4.68 1.96-.73 4.31.08 5.36 1.83.62 1.01.73 2.33.34 3.5.15.04.3.09.45.14 15.74.37 17.1.96 18.46 1.83.5.31 1.79 1.14 2.28 23.02.89-1.25 1.73-2.46 2.5-3.58.92-1.31 2.73-1.6 4.01-.64 1.54 1.16 3.46 2.74 4.9 4.02.62.55.94 1.32.94 2.1 0 .57-.17 1.15-.53 1.65-3.88 5.36-7.77 10.72-11.66 16.07 0 .76-.01 1.27-.02 1.48-.11 2.53-.39 5.16-2.49 6.98-2.21 1.94-5.71 2.26-8.81 2.4-4.55.21-9.08.31-13.58.31-6.73 0-13.38-.23-19.88-.68-1.89-.13-3.7-.31-5.14-1.21-.31-.2-.9-.57-1.36-6.2-.47-5.91-.64-18.02-.39-28.19l-.55-.55c-.09-.09-.09-.25 0-.35.1-.1.26-.1.36 0l.21.21c.03-.97.06-1.92.09-2.85l-.08-.08c-.1-.1-.1-.26 0-.35.03-.03.07-.03.1-.05.03-.81.07-1.61.11-2.37l-.02-.02c-.1-.1-.1-.25 0-.35.01-.01.03-.01.04-.02.28-5.4.74-9.35 1.39-9.93 2.25-1.97 5.75-2.28 8.84-2.41 2.49-.12 5.02-.2 7.76-.26 1.06-.38 2.14-.61 3.29-.77zm14.31 8.59c-17.17-.12-15.23-.14-16.64-.03-.01 0-.03 0-.05 0-2.83.22-6.28.4-6.02-2.43.14-1.49 1.49-3.31 2.92-4.28.02-.01.03-.02.04-.03-1.27.04-2.5.08-3.71.13l.64.65.6-.59c.09-.1.25-.1.35 0 .1.09.1.25 0 .35l-.59.59.02.03c.1.09.1.25 0 .35s-.24.11-.39-.04c-.04.03-.08.06-.13.06-.06 0-.13-.03-.18-.08-.08-.08-.08-.21-.02-.3l-.66-.67-.95.94.12.11c.09.1.09.26 0 .36-.1.1-.26.1-.36 0l-.88-.88-1.7 1.69c-.09.1-.26.12-.37-.04h-.01c-.07 0-.13-.02-.18-.07l-1.81-1.81c-.01-.01-.01-.03-.02-.05-.63.15-1.25.33-1.82.58l.58.58.23-.24c.1-.1.26-.1.35 0 .1.1.1.26 0 .36l-.23.23 1.07 1.07c.1.09.1.25 0 .35s-.26.1-.35 0l-1.07-1.07-1.28 1.28.86.86c.09.09.09.25 0 .35-.1.1-.26.1-.36 0l-.85-.85-.5.49c-.1.1-.26.1-.35 0-.1-.1-.1-.26 0-.35l.49-.5-.64-.64c-.13.57-.25 1.38-.35 2.4l1.1 1.1 1.71-1.7c.09-.1.25-.1.35 0s.1.26 0 .35l-1.7 1.71 1.28 1.28c.1.1.1.26 0 .35-.1.1-.26.1-.35 0l-1.29-1.28-.64.64c-.09.1-.25.1-.35 0s-.1-.26 0-.35l.64-.64-.82-.82c-.06.69-.12 1.46-.17 2.29l1.53 1.54.94-.94c.23-.23.58.12.35.35l-1.07 1.07c-.01.02 0 .05-.02.06-.02.02-.04.02-.06.03l-1.7 1.7 1.03 1.03c.1.1.1.26 0 .36s-.26.09-.35 0l-.87-.87c-.03.71-.06 1.44-.08 2.19l.3.3 2.09-2.09c.09-.1.25-.1.35 0s.1.26 0 .36l-2.09 2.08.45.45c.1.1.1.26 0 .36s-.25.09-.35 0l-.45-.45-.34.34c-.02.72-.04 1.46-.05 2.21l.15.15 1.84-1.84c.1-.1.25-.1.35 0s.1.25 0 .35l-1.84 1.84.32.33c.1.09.1.25 0 .35-.09.1-.25.1-.35 0l-.32-.32-.17.17c-.25 13.83.18 31.07 1.31 32.22 1.21.76 2.89.93 4.65 1.04 10.8.75 22.02.88 33.35.38 2.93-.14 6.22-.43 8.19-2.16 1.8-1.57 2.04-3.86 2.15-6.28 0 0 0-.01 0-.02l-2.93 4.05c0 .24-.13.4-.37.46-.04.03-.07.06-.11.08-3.09 1.34-6.48 2.03-9.96 2.66-.35.06-.63-.23-.58-.57l1.33-8.91c.01-.08.05-.16.09-.23.73-1 6.93-9.47 12.42-17.21-.41-20.68-1.52-23.25-1.85-23.55-1.24-.78-2.57-1.17-15.13-1.58.08.03.15.08.23.12 1 .48 2.34 1.26 3.36 2.03 1.24.92 2.15 2.38 1.39 3.57v.01c-.65 1.01-2.03 1-2.68.99h-.01zm-14.16-1.18-.08.08h.16zm0-.7 1.67-1.68c.1-.1.26-.1.35 0 .1.1.1.26 0 .36l-1.67 1.67.23.23c.06.06.07.13.07.2l1.24.01c.01-.02.01-.05.03-.07l.21-.21-.7-.7c-.1-.09-.1-.25 0-.35s.25-.1.35 0l.7.7 2.1-2.1c.1-.1.26-.1.36 0 .09.09.09.25 0 .35l-.89.88 1.16 1.15 1.07-1.07-.25-.25c-.1-.1-.1-.25 0-.35.09-.1.25-.1.35 0l.25.25 1.4-1.4c.1-.1.26-.1.35 0 .1.09.1.25 0 .35l-1.4 1.4 1.03 1.03.99-.99-.74-.74c-.09-.09-.09-.25 0-.35.1-.1.26-.1.36 0l.74.74 2.33-2.33c.09-.1.25-.1.35 0s.1.25 0 .35l-2.33 2.33 1.44 1.44.45.01c-.06-.01-.12-.03-.16-.07-.1-.1-.1-.26 0-.35l.53-.54-1.1-1.1c-.1-.1-.1-.26 0-.36s.25-.1.35 0l1.11 1.11.64-.65-.76-.76c-.1-.09-.1-.25 0-.35s.26-.1.36 0l.75.76.57-.56c.1-.1.26-.1.35 0 .1.09.1.25 0 .35l-.56.56.78.79c.11-.11.91-.94 1.05-.99-.2-.22-.41-.41-.65-.59-2.01-1.5-4.32-2.64-7.04-3.35-.14-.04-.26-.14-.33-.28-.06-.14-.06-.3.01-.43.5-.99.48-2.2-.06-3.09-.8-1.33-2.66-1.97-4.16-1.41-1.48.54-2.52 2.17-2.43 3.8.04.44.09.83-.41.88-1.08.1-2.5.38-3.63.8-3.08 1.12-4.27 3.42-4.36 4.48-.15 1.6 1.8 1.59 4.99 1.34 1.18-.09 1.28-.08 1.78-.07l.42-.43-.12-.13c-.1-.09-.1-.25 0-.35.09-.1.25-.1.35 0z" fill="#ffffff" data-original="#000000" style=""/></g></g></g></svg>
