<?xml version="1.0" encoding="utf-8"?>
<!-- Generator: Adobe Illustrator 25.0.0, SVG Export Plug-In . SVG Version: 6.00 Build 0)  -->
<svg version="1.1" id="Layer_1" xmlns:svgjs="http://svgjs.com/svgjs"
	 xmlns="http://www.w3.org/2000/svg" xmlns:xlink="http://www.w3.org/1999/xlink" x="0px" y="0px" viewBox="0 0 512 512"
	 style="enable-background:new 0 0 512 512;" xml:space="preserve">
<g>
	<g>
		<path d="M17.5,378.4c1.2,36.4,9.7,57.5,67.3,63.7c113.2,12.3,228,12.5,341.3,0.5c54.4-5.8,72.7-22.7,74-85.8l4.1-215.2
			c0.9-48.6-11.2-68.1-66.6-73.5C280.7,53,69.3,61.9,37.2,81.3c-29.9,18-30.3,59.2-29.1,76C13.4,230.2,15.1,304.5,17.5,378.4
			L17.5,378.4z M122.8,402.5c-1.1-0.2-1.9-0.2-3.1,0.7c-6.2,0.8-10.4-4-12-8.6c-1.9-5.3-1.3-12.4,4.6-15.3
			c7.8-3.8,22.2-5.6,24.9,4.6c0.9,3.4,0.2,7.2-1.9,10.3c0,0,0,0,0,0C132.7,398,128.3,400.8,122.8,402.5z M393.9,402.5
			c-0.2,0-0.5-0.1-0.7-0.1c-0.9,0-1.7,0.4-2.4,0.9c-6.2,0.8-10.4-4-12-8.6c-1.9-5.3-1.3-12.4,4.6-15.3c7.8-3.8,22.2-5.6,24.9,4.6
			c0.9,3.4,0.2,7.2-1.9,10.3c0,0,0,0,0,0C403.8,398,399.4,400.8,393.9,402.5z M425.3,434.9c-8,0.8-16,1.5-24,2.2l7.5-7.5l4.6,4.6
			c0.8,0.8,2,0.8,2.7,0c0.8-0.8,0.8-2,0-2.7l-4.6-4.6l4.4-4.4l9.3,9.3v0c0,0,0,0,0,0l2.7,2.7c0.1,0.1,0.2,0,0.2,0.1
			C427.2,434.7,426.2,434.8,425.3,434.9L425.3,434.9z M428.5,409.8l8,8l-9.9,9.9l-8-8L428.5,409.8z M449.9,425.7l-7.9-7.9l11.9-11.9
			l7,7l-6.4,6.4c-0.8,0.8-0.8,2,0,2.7c0.8,0.8,2,0.8,2.7,0l6.4-6.4l6.4,6.4c0.1,0.1,0.1,0,0.2,0.1c-10.9,7.7-25.1,10.4-39.4,12.2
			c0.6-0.8,0.6-1.8-0.1-2.6l-1.3-1.3l9.9-9.9l7.9,7.9c0.8,0.8,2,0.8,2.7,0C450.6,427.7,450.6,426.5,449.9,425.7L449.9,425.7z
			 M471.2,402.6l-7.6,7.6l-7-7l7.6-7.6L471.2,402.6z M490.8,342.3c0.7,0.7,1.2,0.6,1.8,0.4l-0.3,14c0,1.8-0.1,3.7-0.2,5.5
			l-11.9-11.9l9.3-9.3L490.8,342.3z M41.2,87.9c27.6-16.7,196-20,229.1-20c55.6,0,111.3,2.7,166.6,8c50.8,4.9,60.4,20.8,59.5,65.6
			l-3.8,197.2l-9.5-9.5c-0.8-0.8-2-0.8-2.7,0c-0.8,0.8-0.8,2,0,2.7l6.4,6.4l-10.3,10.3c-0.8,0.8-0.8,2,0,2.7c0,0,0.1,0,0.1,0.1
			c0,0.4,0.2,0.9,0.5,1.2l12.4,12.4c0.7,0.7,1.7,0.8,2.6,0.1c-0.8,20.5-3.6,41.7-19.1,54.8c-0.1-0.2-0.1-0.4-0.2-0.6l-6.4-6.4
			l7.6-7.6l4,4c0.8,0.8,2,0.7,2.7,0c0.8-0.8,0.8-2,0-2.7l-4-4l7.5-7.5c0.8-0.8,0.8-2,0-2.7c-0.8-0.8-2-0.8-2.7,0l-7.5,7.5L461,386.9
			c-0.8-0.8-2-0.8-2.7,0c-0.8,0.8-0.8,2,0,2.7l3.2,3.2l-7.6,7.6l-3.8-3.8c-0.8-0.8-2-0.8-2.7,0c-0.8,0.8-0.8,2,0,2.7l3.8,3.8
			l-11.9,11.9l-8.9-8.9c-0.1-0.2-0.1-0.5-0.3-0.6c-0.2-0.2-0.4-0.2-0.6-0.3l-0.2-0.2c-0.8-0.8-2-0.8-2.7,0c-0.5,0.5-0.5,1.1-0.4,1.7
			l-10.8,10.8c-0.4,0.1-0.8,0.1-1.1,0.5c-0.3,0.3-0.4,0.7-0.5,1.1l-5,5l-1.6-1.6c-0.8-0.8-2-0.7-2.7,0c-0.8,0.8-0.8,2,0,2.7l1.6,1.5
			l-8.7,8.7c-0.2,0.2-0.2,0.5-0.3,0.7v-26.7c6.8-2.2,12.4-6,15.7-11c3.3-4.9,4.4-11.1,2.9-16.6c-1.3-5-4.5-8.9-9.1-11.2
			c-7.7-3.8-19.3-2.1-26.7,1.6c-10.2,5-11.5,16.4-8.5,24.9c2.6,7.3,9,13.9,17.8,13.9v27.1c-87.5,7.3-175.8,7.3-263.3,0v-28.7
			c6.8-2.2,12.4-6,15.7-11c3.3-4.9,4.4-11.1,2.9-16.6c-4-15.1-22.7-16.1-35.8-9.6c-10.2,5-11.5,16.4-8.5,24.9
			c2.6,7.3,9,13.9,17.8,13.9v26.4c-10.9-1-21.7-1.9-32.5-3.1c-55.6-6.1-59.3-25.9-60.3-56.3C22.8,307,21.2,231,15.8,156.7
			C14.8,141.3,15,103.7,41.2,87.9L41.2,87.9z"/>
		<path d="M101.2,335.8c27.5,2.1,55.6,2.1,83.2,0c33.9-2.5,40.5-15.9,39.8-42.2L221,187.3l0.1-0.1c0.8-0.8,0.8-2,0-2.7
			c-0.1-0.1-0.1,0-0.2-0.1l-0.1-2.9c-1.1-38.2-13.5-59.4-55-53.5c-8.2,1.2-33.3,0.9-49.9,0.7c-37.1-0.4-53,4.4-54.6,45.9l-4.1,112.3
			C56.1,319.1,64.7,333.1,101.2,335.8L101.2,335.8z M88.6,326.4L92,323l4.6,4.6C93.8,327.3,91.2,326.9,88.6,326.4z M103.6,328.2
			l9.5-9.5l10.4,10.4c0.1,0.1,0.3,0.1,0.4,0.2C117.1,329,110.4,328.7,103.6,328.2L103.6,328.2z M151.1,328.4L140,317.3l10.4-10.4
			l9,9l-8.7,8.7c-0.8,0.8-0.8,2,0,2.7c0.8,0.8,2,0.8,2.7,0l8.7-8.7l10,10.1c-6.9,0.4-13.7,0.6-20.6,0.7
			C151.5,329.1,151.4,328.7,151.1,328.4z M183.7,328.1c-2.9,0.2-5.8,0.3-8.7,0.5c0.6-0.8,0.6-1.8-0.1-2.6L164.9,316l15.1-15.1
			l12.4,12.4l-6.7,6.7c-0.8,0.8-0.8,2,0,2.7c0.8,0.8,2,0.8,2.7,0l6.7-6.7l7.2,7.2c0.8,0.8,2,0.8,2.7,0c0.8-0.8,0.8-2,0-2.7l-7.2-7.2
			l12.4-12.4l1.3,1.3c0.8,0.8,2,0.8,2.7,0c0.8-0.8,0.8-2,0-2.7l-1.3-1.3l3.5-3.5C216.9,316.4,212.9,325.9,183.7,328.1L183.7,328.1z
			 M182.7,298.1l12.4-12.4l12.4,12.4L195,310.5L182.7,298.1z M212,167l-2.1-2.1l1.6-1.6C211.7,164.5,211.9,165.7,212,167z
			 M214.9,243.7l-10.4-10.4c-0.2-0.2-0.6-0.3-0.9-0.4l10.7-10.7L214.9,243.7z M65,287.1l4.1-112.2c1.4-37.1,14.1-38.8,46.7-38.4
			c17.8,0.2,42.3,0.4,51.1-0.8c22.4-3.2,38.1,1.6,43.6,23.1l-3.4,3.4l-1.3-1.3c-0.8-0.8-2-0.8-2.7,0s-0.8,2,0,2.7l1.3,1.3l-0.6,0.6
			c-1.8,1.8,1,4.5,2.7,2.7l0.6-0.6l5.5,5.5c0.2,2.9,0.3,5.7,0.4,8.6l0.2,6.7l-8.8-8.8c-0.8-0.8-2-0.8-2.7,0s-0.8,2,0,2.7l9.4,9.4
			l-7.4,7.4c-0.8,0.8-0.8,2,0,2.7c0.8,0.8,2,0.8,2.7,0l7-7l0.5,16.4l-7.4-7.4c-0.8-0.8-2-0.8-2.7,0c-0.8,0.8-0.8,2,0,2.7l10.3,10.3
			v0.1l-13.7,13.7c-0.8,0.8-0.8,2,0,2.7c0.3,0.3,0.7,0.4,1.1,0.5c-0.4,0.7-0.4,1.6,0.2,2.2l13.3,13.3l0.5,18.6l-6.1-6.1l1.8-1.8
			c0.8-0.8,0.8-2,0-2.7c-0.8-0.8-2-0.8-2.7,0l-1.8,1.8l-5-5c-0.8-0.8-2-0.8-2.7,0c-0.8,0.8-0.8,2,0,2.7l5,5l-4.3,4.3
			c-0.8,0.8-0.8,2,0,2.7c0.8,0.8,2,0.8,2.7,0l4.3-4.3l9,9l0.5,18c-0.8-0.5-1.8-0.6-2.5,0.1l-3.7,3.7l-12.4-12.4l1.3-1.3
			c0.8-0.8,0.8-2,0-2.7c-0.8-0.8-2-0.8-2.7,0l-1.3,1.3l-2-2c-0.8-0.8-2-0.8-2.7,0c-0.8,0.8-0.8,2,0,2.7l2,2l-12.4,12.4l-5-5
			c-0.8-0.8-2-0.8-2.7,0c-0.8,0.8-0.8,2,0,2.7l5,5l-15.1,15.1l-9-9l21.1-21.1c0.8-0.8,0.8-2,0-2.7c-0.8-0.8-2-0.8-2.7,0l-21.1,21.1
			l-1-1c-0.8-0.8-2-0.8-2.7,0c-0.8,0.8-0.8,2,0,2.7l1,1l-10.4,10.4l-7.4-7.4c-0.8-0.8-2-0.8-2.7,0c-0.8,0.8-0.8,2,0,2.7l7.4,7.4
			l-4,4c-0.8,0.8-0.8,2,0,2.7c0.8,0.8,2,0.8,2.7,0l4-4l9.5,9.5c-7,0.1-14,0-21-0.2c1.4-0.8,1.3-2.1,0.5-3L115.8,316l21.8-21.8
			c0.8-0.8,0.8-2,0-2.7c-0.8-0.8-2-0.8-2.7,0l-21.8,21.8l-3.3-3.3c-0.8-0.8-2-0.8-2.7,0s-0.8,2,0,2.7l3.3,3.3l-10,10l-5.7-5.7
			l23.6-23.6c0.8-0.8,0.8-2,0-2.7c-0.8-0.8-2-0.8-2.7,0l-23.6,23.6l-3.7-3.7c-0.8-0.8-2-0.8-2.7,0c-0.8,0.8-0.8,2,0,2.7l3.7,3.7
			l-5,5C65.8,319.7,64.3,306.1,65,287.1L65,287.1z"/>
		<path d="M265,153.7h184.8c2.1,0,3.9-1.7,3.9-3.9s-1.7-3.9-3.9-3.9H265c-2.1,0-3.9,1.7-3.9,3.9S262.9,153.7,265,153.7z"/>
		<path d="M265,191h184.8c2.1,0,3.9-1.7,3.9-3.9s-1.7-3.9-3.9-3.9H265c-2.1,0-3.9,1.7-3.9,3.9S262.9,191,265,191z"/>
		<path d="M265,228.3h184.8c2.1,0,3.9-1.7,3.9-3.9s-1.7-3.9-3.9-3.9H265c-2.1,0-3.9,1.7-3.9,3.9S262.9,228.3,265,228.3z"/>
		<path d="M265,269.1h184.8c2.1,0,3.9-1.7,3.9-3.9c0-2.1-1.7-3.9-3.9-3.9H265c-2.1,0-3.9,1.7-3.9,3.9
			C261.1,267.3,262.9,269.1,265,269.1z"/>
		<path d="M265,327.8h184.8c2.1,0,3.9-1.7,3.9-3.9c0-2.1-1.7-3.9-3.9-3.9H265c-2.1,0-3.9,1.7-3.9,3.9
			C261.1,326.1,262.9,327.8,265,327.8z"/>
		<path d="M94.3,215.9l9.7-9.7l10,10l-6.7,6.7l-6.4-6.4c-0.8-0.8-2-0.8-2.7,0s-0.8,2,0,2.7l6.4,6.4l-0.3,0.3c-0.8,0.8-0.8,2,0,2.7
			c0.8,0.8,2,0.8,2.7,0l0.3-0.3l8.8,8.8c0.8,0.8,2,0.8,2.7,0c0.8-0.8,0.8-2,0-2.7l-8.8-8.8l6.7-6.7l9.7,9.7c0.8,0.8,2,0.8,2.7,0
			c0.8-0.8,0.8-2,0-2.7l-9.7-9.7l6.7-6.7l3.1,3.1c0.8,0.8,2,0.7,2.7,0c0.8-0.8,0.8-2,0-2.7l-3.1-3.1l5.4-5.4
			c0.6-0.6,0.6-1.5,0.2-2.2l7.1,7.1c0.8,0.8,2,0.8,2.7,0c0.8-0.8,0.8-2,0-2.7l-18.9-18.9c0.7-0.8,0.7-2,0-2.7s-2-0.8-2.7,0l-7.7-7.7
			l6.4-6.4c0.8-0.8,0.8-2,0-2.7s-2-0.8-2.7,0l-6.4,6.4l-3.3-3.3c-0.8-0.8-2-0.8-2.7,0c-0.8,0.8-0.8,2,0,2.7l3.3,3.3l-2.6,2.6
			l-3.3-3.3c-0.8-0.8-2-0.8-2.7,0c-0.8,0.8-0.8,2,0,2.7l3.3,3.3l-12.1,12.1c-0.8,0.8-0.8,2,0,2.7c0.8,0.8,2,0.8,2.7,0l12.1-12.1
			l6.1,6.1c0.8,0.8,2,0.7,2.7,0c0.8-0.8,0.8-2,0-2.7l-6.1-6.1l2.6-2.6l7.7,7.7L104,200.7l-5.7-5.7c-0.8-0.8-2-0.8-2.7,0
			s-0.8,2,0,2.7l5.7,5.7l-9.7,9.7c-0.8,0.8-0.8,2,0,2.7C92.3,216.7,93.6,216.7,94.3,215.9L94.3,215.9z M122.8,187.4l11,11
			c-0.7-0.4-1.6-0.4-2.2,0.2l-5.4,5.4l-7-7c-0.8-0.8-2-0.8-2.7,0c-0.8,0.8-0.8,2,0,2.7l7,7l-6.7,6.7l-10-10L122.8,187.4z"/>
		<path d="M468.8,382.5l4.5-4.5l10.5,10.5c0.8,0.8,2,0.8,2.7,0c0.8-0.8,0.8-2,0-2.7L476,375.3l9.7-9.7c0.8-0.8,0.8-2,0-2.7
			c-0.8-0.8-2-0.8-2.7,0l-9.7,9.7l-3.2-3.2c-0.8-0.8-2-0.8-2.7,0c-0.8,0.8-0.8,2,0,2.7l3.2,3.2l-4.5,4.5c-0.8,0.8-0.8,2,0,2.7
			C466.8,383.3,468.1,383.3,468.8,382.5z"/>
	</g>
</g>
</svg>
