<?xml version="1.0" encoding="utf-8"?>
<!-- Generator: Adobe Illustrator 25.0.0, SVG Export Plug-In . SVG Version: 6.00 Build 0)  -->
<svg version="1.1" id="Layer_1" xmlns="http://www.w3.org/2000/svg" xmlns:xlink="http://www.w3.org/1999/xlink" x="0px" y="0px"
	 viewBox="0 0 512 512" style="enable-background:new 0 0 512 512;" xml:space="preserve">
<style type="text/css">
	.st0{fill:#F05262;}
</style>
<path class="st0" d="M207.4,271.1v55.3h-20v-53.2c0-13.1-6.9-20-16.9-20c-10.8,0-18.6,8.3-18.6,21.6v51.6h-20.2v-53.1
	c0-13.1-6.9-20-16.9-20c-10.8,0-18.6,8.3-18.6,21.6v51.6h-20v-87.2l19.2-3v11.5c6-7.8,15.3-12.3,25.2-12.1
	c10.7-0.4,20.6,5.3,25.7,14.7c6.5-9.5,17.4-15,29-14.7c19.6,0,32.4,13.3,32.4,35.5"/>
<path class="st0" d="M211.6,282.4c-0.9-26.5,19.9-48.6,46.4-49.5c26.5-0.9,48.6,19.9,49.5,46.4c0.9,26.5-19.9,48.6-46.4,49.5
	c-0.5,0-1,0-1.4,0C232.6,328.8,211.6,308.6,211.6,282.4 M287.9,282.2c-0.3-15.7-13.3-28.1-28.9-27.8c-15.7,0.3-28.1,13.3-27.8,28.9
	c0.3,15.4,12.9,27.8,28.4,27.8c15.5,0.2,28.2-12.3,28.4-27.8C288,282.9,288,282.6,287.9,282.2"/>
<path class="st0" d="M407.6,281.8c0,27-21,46.8-48.6,46.8s-47.6-19.1-47.6-47.4v-95.6l20.2-2.9v66.1c7.8-8.5,18.8-13.3,30.4-13.1
	c25-0.2,45.4,19.9,45.6,44.9C407.6,281,407.6,281.4,407.6,281.8 M387.9,282c0.5-15.4-11.6-28.3-27-28.8c-0.4,0-0.8,0-1.2,0
	c-15.7-0.2-28.6,12.3-28.8,28c0,0.4,0,0.8,0,1.2c-0.6,15.3,11.4,28.2,26.7,28.8c0.5,0,1,0,1.5,0c15.6,0.3,28.5-12,28.8-27.6
	c0-0.5,0-0.9,0-1.4"/>
<path class="st0" d="M408.8,205.1c-0.2-7.2,5.5-13.3,12.7-13.5c7.2-0.2,13.3,5.5,13.5,12.7c0.2,7.2-5.5,13.3-12.7,13.5
	c-0.1,0-0.3,0-0.4,0c-7,0.2-12.9-5.4-13.1-12.4C408.8,205.2,408.8,205.1,408.8,205.1 M411.9,239.4l20-3.2v90.3h-20V239.4z"/>
</svg>
