<?xml version="1.0" encoding="utf-8"?>
<!-- Generator: Adobe Illustrator 25.0.0, SVG Export Plug-In . SVG Version: 6.00 Build 0)  -->
<svg version="1.1" id="Layer_1" xmlns="http://www.w3.org/2000/svg" xmlns:xlink="http://www.w3.org/1999/xlink" x="0px" y="0px"
	 viewBox="0 0 1024 1024" style="enable-background:new 0 0 1024 1024;" xml:space="preserve">
<style type="text/css">
	.st0{fill:#7F90A6;}
	.st1{fill:#29293D;}
	.st2{fill:#6B7A89;}
	.st3{fill:#FFFFFF;}
	.st4{fill:#D8D9D8;}
</style>
<g id="Group_513">
	<path id="Path_526" class="st0" d="M926.9,497.5c-0.8-2.7-3.6-4.1-6.1-3.4l0,0c-0.8,0.2-1.5,0.6-2.1,1.1
		c-38.5,37.9-77.2,81.7-75.4,138c-1.2,1.1-1.8,2.8-1.5,4.5c7.6,44.4,52,5.6,66.4-13C935.5,588.2,942.5,540.3,926.9,497.5"/>
	<path id="Path_527" class="st0" d="M821.1,563.9c-18.1-28.5-44.7-42.4-68.1-65c-1.9-1.9-4.9-1.9-6.8,0l0,0l-0.6,0.7
		c-1.3,0.9-2,2.3-2,3.9c-0.6,39,2.8,80.8,23.5,112.8c12.4,30,33.9,50.3,74.4,40c2-0.4,3.5-2.2,3.7-4.2c1.7-0.8,2.7-2.5,2.5-4.2
		c-1.6-29.9-10.7-58.8-26.5-84.2"/>
	<path id="Path_528" class="st0" d="M924.3,502.9c0,0,0-0.8,0-1.1c0-2.2-2.2-4.2-3.9-2.2c-34.8,40.7-68.7,85.7-70.1,141.3
		c-0.4,1.9,0.8,3.9,2.8,4.2c1.5,0.3,2.9-0.2,3.7-1.5c14.4-41,33-80.4,55.5-117.5c-10.8,41.3-29.3,80.2-54.3,114.7
		c-0.8,0.8-0.8,2.1,0,3h0.9c0,1.7,0.8,3.7,2.8,3.1c25.7-8.1,42.6-32.1,52.2-56.1c11.1-28,14.6-58.4,10.5-88.1 M855.3,631.9
		c4-43.7,28.6-80.7,56.1-114.4C888.9,553.6,870.1,592,855.3,631.9 M912.7,580.3c-8.1,24.6-24,51.7-49.4,61.1
		c27.6-38.4,47.1-82.1,57.1-128.3c1.7,22.7-1,45.6-8.1,67.3"/>
	<path id="Path_529" class="st0" d="M756,505.5c-0.3-0.3-0.7-0.4-1.1-0.6l0,0c0-3.1-5.4-3.1-5,0c5.4,55.6,16,127.7,79.6,145.8
		c1.3,0.3,2.7-0.4,3-1.8l0,0c0-0.2,0-0.6,0-0.8c0,0,0.6,0.6,0.9,0.6c0.8,0.4,1.8,0.4,2.6,0c0.2,1.3,1.6,2.3,3,2.1
		c1-0.2,1.9-1,2.1-2.1c0.6-57.1-48.9-104.2-85.1-143 M835,633.3c-17.8-36.6-38.9-71.5-63.1-104.2C799.8,559,829.3,593.1,835,633.3
		 M756.6,517c0.6,0.9,1.1,1.5,1.7,2.3c-0.1,0.4-0.1,0.9,0,1.3c22.6,42.2,34.1,92.1,71.5,124.3c-55.1-16.7-68.1-77.2-73.5-128.3
		 M772.3,538.9c23.1,32.2,43.4,66.5,60.5,102.3C802.1,614.4,789.1,575.3,772.3,538.9"/>
	<path id="Path_530" class="st0" d="M857.2,634.6c-4.4-4.8-11.7-5.1-16.5-0.8l-0.1,0.1c-0.8,0.7-1.5,1.5-2,2.3
		c-6.7,0.8-11.5,6.9-10.7,13.8c0,0.6,0,1,0,1.6c5,20.4,9.3,45.2-16,53.1c-16.1,3.7-32.9,2.1-48.1-4.2c-38.2-12.4-72.1-35.3-108-53.7
		C588.6,612,518,584.4,445.2,564.3c-68.7-18.9-150.6-42-220.7-17.8c-62.2,21.5-91,73.8-100,136.2c-5.1,35.9-7.4,76.3,11.9,108.5
		c12.3,18.3,31.9,30.5,53.7,33.7c-17,7.4-33.4,22.7-19.6,39.6c7.3,7.4,17.1,11.7,27.4,12.2c23.9,2.1,48.1,2.7,72.1,1.7
		c93.1,0,186.1-7.8,277.9-23.5c47-8.1,93.6-17.8,139.3-30c40-10.4,82-20.4,119.3-38.7c54.6-26.3,100.9-98.1,50.3-151.5"/>
	<path id="Path_531" class="st1" d="M548.9,542.8c-5.9-10.7-20-8.5-29.2-3.7c-12.3,7.5-22.9,17.6-30.7,29.6
		c-1.9-11.9-6.6-23.1-13.9-32.8c-4.8-6.5-15.2-20-25.2-15c-6.7,3.4-5.6,11.9-1.9,17.2c5.4,6.3,11.4,12.1,17.8,17.2
		c6.5,6.3,12.6,13,18.7,19.8c0,1.1,0,2.2,0,3.4c0,1,0.7,1.9,1.7,2.2l0,0c16.8,36.3,27.6,75.3,32.1,115.1c-3,26.3-8.1,54.2-20.9,76.3
		c-1.7,2.8,2.9,5.4,4.2,2.6c9.4-17.9,15.7-37.1,18.4-57.1c0.9,19.2,0.4,38.6-1.5,57.7c0,3.1,4.5,3.1,5,0c2.8-26.6,2.8-53.4,0-80.2
		c0-1.9,0.6-4.1,0.9-6.1c0.6-4.6,0.8-8.7,1.3-13.3l0,0c10.5,33,17.8,67.8,9.6,102.2c-0.4,1.3,0.3,2.7,1.7,3.1
		c1.3,0.4,2.7-0.3,3.1-1.7c8.1-33.9,1.7-67.9-8.5-100.3c-1.7-5.7-3.7-11.3-5.4-17c1.1-24.4,0.1-48.9-3-73.1c0-3.1-5.4-3.1-5.1,0
		c2.6,19.8,3.7,39.8,3.4,59.8c-8.7-24.4-18.8-48.2-30.2-71.5c0.2-0.8,0.2-1.7,0-2.6c17.6-0.6,71.5-8.1,57.9-32.4 M472.7,554.5
		c-3.7-3.7-8.1-7.3-11.6-11c-1.7-1.5-3.4-3.1-5-4.6c-3.7-1.9-6.8-9.8-1.8-11.9c2.3-4.8,8.5,0,10.7,4c1.6,1.6,3.1,3.2,4.6,5
		c3.1,3.9,5.8,8.1,8.1,12.4c2.7,5.6,4.8,11.5,6.1,17.6C480.1,562.3,476.4,558.1,472.7,554.5 M521.6,663.3c0,3.7-0.7,7.4-0.9,10.7
		c-1.7-11-4.2-21.7-6.8-32.4c2.9,7.3,5.4,14.6,8.1,21.7 M517.4,567.6c-7.4,1.8-15,2.7-22.6,2.8c3.9-5.5,8.2-10.5,13-15.2
		c3.6-3.5,7.4-6.7,11.6-9.4c2.2-1.3,4.6-2.5,7-3.4c7.6-4.5,21.8,0.9,16,13.5c-4.6,6.6-18.1,9.6-25.5,11.6"/>
	<path id="Path_532" class="st2" d="M572.1,794.9c-29.1-22-65.5-28.8-101.4-27.4c-4.6,0-30-2.6-21.2,18.1
		c12.1,29.3,34.6,53.1,63.1,67c24.8,12.6,65.9,32.4,94.4,20.9c4.1-1.5,7-5.3,7.3-9.6C617,838.8,590.1,808.5,572.1,794.9"/>
	<path class="st1" d="M733.2,315.8c-15.2,34.2-32.4,67.5-51.7,99.6c-38.8,65.3-86.2,140.7-159.1,171c-2.9,1.1-1.8,5.9,1.3,4.8
		C597,560.6,644.4,486.9,684,421.6c19.9-33.3,37.8-67.9,53.7-103.3C736.2,317.4,734.7,316.6,733.2,315.8z"/>
	<path class="st1" d="M487.9,571.5c-91.1-46.1-143.2-131.8-173.7-225.3c-1.6,0.5-3.1,1-4.7,1.5c31,94.7,83.8,181.6,175.8,228.2
		C488.4,577.2,490.7,573,487.9,571.5z"/>
	<path class="st1" d="M530,284.9c-1.2,21.2-3.1,42.3-4.9,62.7c-6.9,74.4-20,148-39.2,220.2c-0.4,1.3,0.3,2.7,1.7,3.1
		c1.3,0.4,2.7-0.3,3.1-1.7c19.2-72.6,32.5-146.6,39.7-221.4c1.8-20.6,3.7-41.9,4.9-63.3C533.5,284.6,531.8,284.8,530,284.9z"/>
</g>
<path class="st3" d="M231,645.1c10-2.1,19.7,4.1,21.9,14c2.1,10-4.1,19.7-14,21.9c-8.4,1.8-16.9-2.3-20.6-10.1
	c-2.1-4.5-2.5-9.6-0.8-14.2l0.7,1.9c2.3,4.9,8.3,7,13.2,4.7c4.9-2.3,7-8.3,4.7-13.2C235.1,647.8,233.2,646,231,645.1"/>
<g>
	<path class="st4" d="M713,273.9c1.5-5.9,2.5-12.1,2.5-18.5c0-40.3-32.6-72.9-72.9-72.9c-14.8,0-28.5,4.4-40,12
		c-20.1-45.9-65.9-77.9-119.2-77.9c-71.7,0-129.8,58-130.2,129.6c-8-2.2-16.3-3.5-25-3.5c-51.1,0-92.5,41.4-92.5,92.5
		c0,51.1,41.4,92.5,92.5,92.5c30,0,56.7-14.4,73.6-36.6c18.2,26.3,48.5,43.5,82.8,43.5c32.9,0,62.1-15.9,80.4-40.3
		c12.9,11.5,29.9,18.6,48.5,18.6c18,0,34.5-6.6,47.2-17.4c12,10.1,27.5,16.2,44.5,16.2c38.2,0,69.2-31,69.2-69.2
		C774.4,307,747.5,277.7,713,273.9L713,273.9z"/>
	<path class="st0" d="M698.4,358.2c13.6-3.8,25.1-12.5,32.5-24.1c-9.7,8.8-22.8,14.9-37.4,16.8c-0.1-0.2-0.2-0.4-0.4-0.6
		c-0.6,0.3-1.2,0.5-1.8,0.8c-2.6,0.3-5.2,0.4-7.9,0.4c-18.7,0-35.5-6.7-47.5-17.5c7.7,12.2,19.9,21.2,34.4,24.6
		C656.5,369.5,639.1,376,620,376c-31.7,0-59.2-18.1-72.7-44.5c25.3-9.9,46.7-27.7,61-50.4c-26.9,24.3-64.8,39.4-106.9,39.4
		c-42.2,0-80.1-15.1-107.1-39.4c19.4,30.7,51.6,52.4,89.1,57.8c-14.6,22.4-32.3,40.8-61,40.8c-15.5,0-31.1-11.5-43.5-19
		c-17.2,18.4-47.7,33.5-74.8,33.5c-23.4,0-44.8-8.5-61.2-22.7c14.1,33.1,46.9,56.3,85.1,56.3c30.1,0,56.7-14.4,73.6-36.5
		c18.2,26.3,48.5,43.5,82.9,43.5c32.9,0,62-15.9,80.4-40.3c12.9,11.5,29.8,18.6,48.5,18.6c18,0,34.5-6.6,47.2-17.4
		c12,10.1,27.6,16.2,44.5,16.2c19.7,0,37.5-8.3,50.1-21.5C732,387.9,711.8,375.9,698.4,358.2L698.4,358.2z"/>
</g>
</svg>
