<?xml version="1.0"?>
<svg xmlns="http://www.w3.org/2000/svg" xmlns:xlink="http://www.w3.org/1999/xlink" xmlns:svgjs="http://svgjs.com/svgjs" version="1.1" width="512" height="512" x="0" y="0" viewBox="0 0 66 66" style="enable-background:new 0 0 512 512" xml:space="preserve" class=""><g><g xmlns="http://www.w3.org/2000/svg"><path d="m5.676 57.286c-.014 3.624 1.454 4.731 5.341 5.007 39.828 2.833 37.634 2.706 39.111 2.706 2.597 0 5.18-.43 6.985-2.257 3.01-3.048 2.298-4.275 3.21-49.137.003-.122-.04-.241-.119-.334-3.663-4.319-12.598-10.569-14.572-11.928-.069-.104-.174-.177-.301-.207-.035-.024-.06-.041-.075-.051-.084-.055-.193-.048-.282-.085l-28.181.056c-8.492.016-10.929 2.649-10.958 10.814zm48.522-41.591.082-.082c.663-.11 1.322-.243 1.974-.403l-1.27 1.27zm2.993-.716c.004-.004.002-.011.006-.015.317-.09.63-.188.943-.29l.106.106-.807.807-.428-.428zm2.116-.553-.014.693-.34-.34zm-.387-1.087c-3.377 1.281-11.621 2.976-13.611.068-.933-1.365-.559-2.791.313-10.852 2.565 1.793 9.787 6.968 13.298 10.784zm-8.383 2.626c.154-.003.308-.005.463-.011l-.237.237zm-1.879-.036-.038.038-.046-.046c.028.003.056.006.084.008zm-1.941-.381-.062.062-.123-.123c.06.022.123.041.185.061zm-39.882-3.674c.026-7.606 2.041-9.803 9.959-9.818l27.881-.055c-.929 8.588-1.385 10.226-.192 11.971.211.308.467.577.764.813l-.492.492c-.098.098-.098.256 0 .353.098.098.256.098.354 0l.43-.43.763.763-.253.252c-.098.098-.098.256 0 .354s.256.098.354 0l.253-.253.408.407c.098.098.256.098.354 0s.098-.256 0-.354l-.407-.407.257-.257c.173.042.346.084.532.116.01.016.007.036.021.05l.449.448-.643.643c-.098.098-.098.256 0 .354s.256.098.354 0l.643-.643.591.591c.098.098.256.098.354 0s.098-.256 0-.354l-.591-.591.357-.357c.306.01-.086.009.511.013l.662.662c.011.041.016.084.048.117.032.032.076.037.117.048l.909.909c.098.098.256.098.354 0s.098-.256 0-.354l-.815-.815.634-.634c.565-.039 1.13-.092 1.693-.167l-.903.903c-.098.098-.098.256 0 .354s.256.098.354 0l.95-.95 1.286 1.286c.098.098.256.098.354 0s.098-.256 0-.354l-.147-.147 1.321-1.321.428.428-1.096 1.096c-.098.098-.098.256 0 .354s.256.098.354 0l1.096-1.096.295.295c.098.098.256.098.354 0s.098-.256 0-.354l-.295-.295.808-.808.651.651-2.344 2.345c-.098.098-.098.256 0 .354s.256.098.354 0l2.005-2.005-.041 2.013-.357.357-.65-.65c-.098-.098-.256-.098-.354 0s-.098.256 0 .354l.65.65-.746.746c-.098.098-.098.256 0 .354s.256.098.354 0l.746-.746.328.328-.02.988c-.005.004-.012.002-.016.007l-.828.828-.471-.471c-.098-.098-.256-.098-.354 0s-.098.256 0 .354l.471.471-.295.295c-.098.098-.098.256 0 .354s.256.098.354 0l.295-.295.32.32c.098.098.256.098.354 0s.098-.256 0-.353l-.32-.32.476-.476c-.743 36.563-.177 37.842-2.76 40.456-3.039 3.078-5.528 2.087-45.313-.743-4.168-.298-4.429-1.658-4.42-4.008z" fill="#707070" data-original="#000000" style="" class=""/><path d="m50.855 43.957c-2.363-1.594-5.291-1.871-7.832-.743-2.017.896-3.642 2.678-4.348 4.769-1.033 3.059.251 6.705 1.252 7.471 4.578 6 14.24 2.86 14.492-4.64.092-2.728-1.24-5.291-3.564-6.857zm-2.538.474-.765-.764c.424.08.839.204 1.248.361-.049.009-.099.019-.136.056zm-3.9-.646 1.192 1.192-.805.804-.944-.944c-.01-.017-.007-.038-.022-.053s-.036-.012-.053-.022l-.541-.541c.062-.03.121-.066.185-.094.322-.142.654-.25.988-.342zm-1.585.732.46.46-1.171 1.171-.674-.674c.412-.394.864-.744 1.357-1.027.011.023.009.051.028.07zm-3.002 8.772.934.934-.283.283c-.256-.383-.475-.789-.651-1.217zm-.548-2.671.517.517-.44.44c-.047-.318-.072-.637-.077-.957zm.016-.691c.044-.553.148-1.1.325-1.624.032-.096.076-.187.112-.282l1.589 1.589-1.171 1.172zm1.474 4.995 2.467-2.467c.098-.098.098-.256 0-.354s-.256-.098-.354 0l-1.768 1.768-1.56-1.56c-.015-.015-.036-.012-.053-.022-.015-.062-.031-.123-.045-.185.049-.009.099-.019.137-.057l.557-.557 1.242 1.242c.098.098.256.098.354 0s.098-.256 0-.354l-1.242-1.242 1.177-1.177c.119.101.252.077.336-.007.093-.093.091-.238.007-.336l.58-.58c.098-.098.098-.256 0-.354s-.256-.098-.354 0l-.575.575-1.731-1.731c.298-.616.684-1.191 1.146-1.699l.675.675-.981.981c-.098.098-.098.256 0 .354s.256.098.354 0l.981-.981.851.851c.098.098.256.098.354 0s.098-.256 0-.354l-.851-.851 1.171-1.172.805.805-.267.267c-.098.098-.098.256 0 .353.098.098.256.098.354 0l1.426-1.425.579.579c.098.098.256.098.354 0s.098-.256 0-.354l-.579-.579.319-.319c.098-.098.098-.256 0-.354s-.256-.098-.354 0l-.319.319-.972-.972c.913-.168 1.336-.132 1.965-.069-.024.084-.019.174.047.24l.962.962-.306.306c-.098.098-.098.256 0 .353.098.098.256.098.354 0l.306-.306.509.509c.098.098.256.098.353 0 .098-.098.098-.256 0-.354l-.509-.509.347-.347c.088-.088.085-.222.014-.319.434.184.861.396 1.264.668 2.036 1.373 3.204 3.614 3.124 5.994-.222 6.485-8.578 9.335-12.651 4.146z" fill="#707070" data-original="#000000" style="" class=""/><path d="m12.892 20.814c0 .276.224.5.5.5h40.666c.276 0 .5-.224.5-.5s-.224-.5-.5-.5h-40.666c-.276 0-.5.224-.5.5z" fill="#707070" data-original="#000000" style="" class=""/><path d="m53.863 28.759c.276 0 .5-.224.5-.5s-.224-.5-.5-.5h-40.948c-.276 0-.5.224-.5.5s.224.5.5.5z" fill="#707070" data-original="#000000" style="" class=""/><path d="m12.128 35.418c0 .276.224.5.5.5h41.182c.276 0 .5-.224.5-.5s-.224-.5-.5-.5h-41.182c-.276 0-.5.223-.5.5z" fill="#707070" data-original="#000000" style="" class=""/><path d="m14.608 43.627c.019 0 .038-.001.057-.003.164-.019.308-.117.385-.262 1.046-1.967 2.468-3.782 4.129-5.274.211-.055.287-.202.416-.382.149-.205.12-.489-.066-.661-.187-.171-.472-.176-.664-.012-1.744 1.492-3.204 3.248-4.348 5.228l-1.758-2.022c-.182-.208-.498-.23-.706-.049s-.23.497-.049.706l2.227 2.561c.095.108.233.17.377.17z" fill="#707070" data-original="#000000" style="" class=""/><path d="m13.697 49.607c.578 1.014 1.343 1.204 2.178.401l5.114-4.923c.199-.192.205-.508.014-.707-.192-.198-.509-.204-.707-.014l-5.114 4.923c-.292.28-.322.339-.616-.177l-1.015-1.779c-.136-.241-.442-.325-.682-.187-.24.137-.324.442-.187.682z" fill="#707070" data-original="#000000" style="" class=""/><path d="m21.345 51.855c-.14-.239-.447-.319-.684-.179-2.206 1.292-4.05 3.109-5.371 5.287l-1.757-2.362c-.164-.221-.479-.268-.7-.103-.222.165-.268.478-.103.7l2.213 2.975c.104.141.273.213.438.2.17-.012.323-.111.404-.261 1.249-2.316 3.109-4.243 5.381-5.572.238-.141.318-.447.179-.685z" fill="#707070" data-original="#000000" style="" class=""/><path d="m31.021 41.454h-9.416c-.276 0-.5.224-.5.5s.224.5.5.5h9.416c.276 0 .5-.224.5-.5s-.224-.5-.5-.5z" fill="#707070" data-original="#000000" style="" class=""/><path d="m30.249 49.313h-8.302c-.276 0-.5.224-.5.5s.224.5.5.5h8.302c.276 0 .5-.224.5-.5s-.224-.5-.5-.5z" fill="#707070" data-original="#000000" style="" class=""/><path d="m29.635 56.575h-8.03c-.276 0-.5.224-.5.5s.224.5.5.5h8.03c.276 0 .5-.224.5-.5 0-.277-.223-.5-.5-.5z" fill="#707070" data-original="#000000" style="" class=""/><path d="m11.693 14.313.865-.996c-.066.378-.109.765-.1 1.163.021.933.342 1.745.904 2.285 1.155 1.11 2.801.891 5.647.814 1.172-.033 1.818-.358 2.131-1.797.238-1.099.325-2.223.273-3.344.395.411.703.788.845 1.07.123.246.425.344.672.222.247-.125.346-.425.222-.672-.227-.452-.98-1.303-1.924-2.167v-1.38c0-.276-.224-.5-.5-.5s-.5.224-.5.5v.525c-1.429-1.141-3.015-2.06-3.898-1.74-1.311.476-1.866 1.305-5.392 5.36-.181.208-.159.524.049.706.21.181.525.158.706-.049zm2.632-3.028.562.561-.409.409-.533-.533zm-.858 2.951.776.776-.53.53c-.151-.311-.246-.679-.255-1.085-.001-.073.007-.147.009-.221zm7.179-2.538c-.155.094-.256.266-.242.459.083 1.143.003 2.291-.241 3.413-.201.926-.413.989-1.181 1.009-2.004.054-4.012.343-4.926-.535-.023-.022-.04-.052-.061-.076l.77-.77c.004-.003.009-.002.013-.005.003-.003.002-.009.005-.012l.452-.452c.098-.098.098-.256 0-.354s-.256-.098-.354 0l-.284.284-1.067-1.067c.059-.37.146-.741.234-1.104.021-.087.011-.172-.012-.252l.373.373-.007.007c-.098.098-.098.256 0 .354.049.049.113.073.177.073s.128-.024.177-.073l.007-.007.219.218c.049.049.113.073.177.073s.128-.024.177-.073c.098-.098.098-.256 0-.353l-.218-.218.489-.489c.049-.008.099-.019.137-.057s.048-.088.057-.137l.169-.169c.098-.098.098-.256 0-.354s-.256-.098-.354 0l-.089.089-.586-.586c.14-.161.284-.325.435-.487l.74.74c.049.049.113.073.177.073s.128-.024.177-.073c.098-.098.098-.256 0-.354l-.182-.182c.015-.01.034-.007.047-.02l.688-.688c.011-.011.008-.028.017-.041l.521.521c.049.049.113.073.177.073s.128-.024.177-.073c.098-.098.098-.256 0-.354l-.819-.819c.686-.005 2.471 1.244 3.834 2.475zm-4.344-2.273.121.121c-.013.009-.03.006-.041.017l-.688.688c-.013.013-.01.032-.019.047l-.233-.233c.265-.253.551-.469.86-.64z" fill="#707070" data-original="#000000" style="" class=""/></g></g></svg>
