<?xml version="1.0" encoding="utf-8"?>
<!-- Generator: Adobe Illustrator 25.0.0, SVG Export Plug-In . SVG Version: 6.00 Build 0)  -->
<svg version="1.1" id="Layer_1" xmlns:svgjs="http://svgjs.com/svgjs"
	 xmlns="http://www.w3.org/2000/svg" xmlns:xlink="http://www.w3.org/1999/xlink" x="0px" y="0px" viewBox="0 0 512 512"
	 style="enable-background:new 0 0 512 512;" xml:space="preserve">
<style type="text/css">
	.st0{fill:#FFFFFF;}
</style>
<g>
	<g>
		<path class="st0" d="M178.5,392.7c80.7,39,292.4-24.1,218.7-183.8c-19.8-42.9-65.6-88.8-77.4-99.5c11.7-14.6,36.4-51.8,34.8-70.1
			c-0.9-10-10.2-24.9-31.6-10.5c-9.2,6.2-14.7,9.7-28.8-5c-17-18.1-27.8-19.9-48.2-1.2c-20.4,18.2-23.5,5.2-35.9,1.2
			c-16.1-5.2-37,11.1-30,38.5c4.3,16.8,23.8,44.4,36.5,56.6C156.8,160.8,110,221.4,114.9,292.7C117.8,336.2,142.8,375.5,178.5,392.7
			L178.5,392.7z M224,123.2c0,0,1-0.7,1-0.7c2-1.5,2.1-4.4,0.2-6c-16.4-14.2-34.4-43-37.7-56c-5.4-21.3,9.7-32.6,20.1-29.2
			c9.7,3.1,18.7,19.5,43.5-2.8c17.4-15.9,23.4-14.1,37.8,1.1c17,17.9,27.1,13.3,38.4,5.7c4.5-3,8.4-5.7,12.5-4.8
			c4.1,0.8,6.7,5.5,7.1,9.6c1.2,14.2-21.3,50.6-35.5,67.3c-1.4,1.6-1.2,4.1,0.4,5.5c11.7,10,58.4,56.3,78.3,99.4
			c70.4,152.4-133.9,209.5-208.3,173.6c-33.3-16.1-56.5-52.8-59.3-93.6C117.9,222.8,164.4,164.1,224,123.2L224,123.2z"/>
		<path class="st0" d="M238.4,322.7c3.8,0.9,7.4,1.7,10.9,2.3c-2.1,10.5-3.6,23.2,4.9,29.6c9,6.7,22.5,3.4,28.8-9.2
			c2.2-4.3,3.4-9.4,3.6-15.6c0-1.6,0-3.5-0.1-5.6c12.9-3.4,23.7-10.5,30.6-20.2c0,0,0,0,0,0c9-12.9,10-30.4,2.3-42.6
			c-14.3-22.5-51.6-21.7-60.6-37.2c-5.3-9,2.8-17.8,17-9.7c7.7,4.4,14.3,9.9,23.2,9.8c14.7-0.2,24.1-16.3,17.9-28
			c-4.1-7.6-14.5-13.3-31-16.8c5.9-30.2-18-40.3-30.8-25.7c-5.3,6.2-6.4,15.6-7.1,23.9c-8.9,1.7-16.8,5.3-23.1,10.5
			c-13.8,11.3-18.8,30.7-11.7,45.1c14.8,29.9,57.4,19,66.2,39.7c4.3,10.2-3.7,21.2-14.5,20.6c-7.6-0.5-15.2-7.1-21.4-11.8
			c-30-21.9-47.2,8-32.6,26.4C217.8,316.8,228.7,320.4,238.4,322.7L238.4,322.7z M259.9,349c0.3-0.1,0.6-0.1,0.8-0.3l6-6l4.8,4.8
			C267.5,350.7,263.4,350.9,259.9,349L259.9,349z M281.4,317.3c-1,0.2-1.9,0.8-2.5,1.7c-0.6,0.9-0.8,1.9-0.5,3
			c0.6,2.5,0.6,5.3,0.5,7.4c-0.2,5-1.1,9.1-2.8,12.4c-0.5,1-1.1,2-1.8,2.9l-4.8-4.8l5.2-5.2c0.3,0.1,0.5,0.3,0.8,0.3
			c0.5,0,1-0.2,1.4-0.6c0.6-0.6,0.6-1.5,0.2-2.2l0.2-0.2c0.8-0.8,0.8-2,0-2.7c-0.8-0.8-2-0.8-2.7,0l-5.2-5.2c-0.1-0.1-0.2,0-0.3-0.1
			l13.8-13.8l5.2,5.2C285.9,316.1,283.7,316.9,281.4,317.3L281.4,317.3z M310.8,299.4c-1.7,2.4-3.7,4.5-5.9,6.5
			c-0.1-0.3-0.1-0.6-0.4-0.9l-5.1-5.1l7.4-7.4l4.3,4.3c0.3,0.3,0.7,0.4,1.1,0.5C311.6,298,311.3,298.7,310.8,299.4L310.8,299.4z
			 M258.3,163.7c0.7-1.9,1.6-3.7,2.7-5.1c0.3-0.4,0.8-0.7,1.1-1l2.6,2.6l-5,5L258.3,163.7z M224.6,227.4l-6.5-6.5
			c-0.1-0.1-0.1,0-0.2-0.1c-0.1-1,0-2,0-3c0.1,0,0.2,0.1,0.3,0.1c0.5,0,1-0.2,1.4-0.6l3.2-3.2l7.5,7.5L224.6,227.4z M220.2,229.7
			c-0.3-0.6-0.4-1.3-0.7-1.9l2.4,2.4l-0.9,0.9C220.7,230.6,220.4,230.2,220.2,229.7L220.2,229.7z M218.5,213
			c0.2-0.9,0.3-1.7,0.6-2.5l1,1L218.5,213z M220.6,206.5c1.4-3.1,3.1-5.9,5.2-8.4l3.8,3.8l-6.8,6.8L220.6,206.5z M238.9,287.9
			c8,6.1,15.7,12.7,25.5,13.3c16.2,1,28.7-15.7,22.1-31.4c-10.3-24.2-46.6-14.7-63.3-35.5l1.5-1.5c1.8,0.9,3.3-0.7,2.4-2.4l6.9-6.9
			c0.6-0.6,0.6-1.5,0.2-2.3c0.1-1.4-7.7-8.7-8.8-9.7l6.8-6.8c0.9,0.9,2.6,3,3.8,3c1.7,0,2.6-2.1,1.4-3.3l-2.4-2.4l6.2-6.2
			c0.8-0.8,0.8-2,0-2.7c-0.8-0.8-2-0.8-2.7,0l-6.2,6.2l-3.8-3.8c0.5-0.4,0.9-0.9,1.3-1.3c2.7-2.2,5.8-4.1,9.1-5.5
			c0.9,0.9,10,10.5,11.3,10.5c0.5,0,1-0.2,1.4-0.6c0.8-0.8,0.8-2,0-2.7l-8.7-8.7c2.9-1,6-1.8,9.3-2.3c1-0.1,1.8-0.7,2.4-1.5l0.5,0.5
			l-5.2,5.2c-1.8,1.8,0.9,4.6,2.7,2.7l5.2-5.2c2.6,2.6,5.3-0.1,2.7-2.7c1.8-1.8,4.4-3.6,2.7-5.4c-0.8-0.8-2-0.8-2.7,0l-2.7,2.7
			l-2.2-2.2c0.1-2,0.3-4.1,0.6-6.2c0.2,0,0.3,0.2,0.5,0.2c0.5,0,1-0.2,1.4-0.6l1.6-1.6l3.1,3.1c0.8,0.8,2,0.8,2.7,0
			c1.8-1.8-1.2-3.9-3.1-5.8l5-5c1.8,1.8,3.6,4.3,5.3,2.6c0.8-0.8,0.8-2,0-2.7l-2.7-2.7c0.5-0.8,0.5-1.7-0.2-2.4
			c-0.7-0.7-1.6-0.6-2.4-0.2l-2.1-2.1c1.6-0.7,3.3-0.9,4.9-0.6c2.7,0.6,5.4,3,6.9,6.1c2.5,5.5,2,14.5,0.2,20.1c-0.7,2.3,0.7,4.6,3,5
			c16,2.9,26.5,7.8,29.7,13.7c3.5,6.6-2.3,16.4-11.1,16.5c-6.3,0.3-13.6-5.5-19.3-8.8c-21.8-12.4-36.5,5.1-27.5,20.3
			c11,19.1,48.1,17.7,60.7,37.5c1.5,2.3,2.5,4.9,3.2,7.6l-1.6,1.6l-1.3-1.3c-0.8-0.8-2-0.8-2.7,0c-0.8,0.8-0.8,2,0,2.7l1.3,1.3
			l-2.5,2.5c-0.8,0.8-0.8,2,0,2.7c0.8,0.8,2,0.8,2.7,0l2.5-2.5l1.6,1.6c0.2,0.2,0.5,0.2,0.7,0.3c-0.2,4.1-1.3,8.2-3.1,12.1
			c0,0,0,0,0-0.1l-7.2-7.2c-0.8-0.8-2-0.8-2.7,0c-0.8,0.8-0.8,2,0,2.7l0.2,0.2l-7.4,7.4l-1-1c-0.8-0.8-2-0.8-2.7,0
			c-0.8,0.8-0.8,2,0,2.7l1,1c-2.2,2.2-6.9,5.5-4.8,7.6c0.4,0.4,0.9,0.6,1.4,0.6c1.2,0,5.3-4.5,6.2-5.4l5.1,5.1
			c0.1,0.1,0.3,0.1,0.4,0.2c-3,2.3-6.4,4.4-10.2,6l-6.5-6.5c-0.6-0.6-1.5-0.6-2.2-0.2c0-0.1,0-0.1-0.1-0.2c-0.8-0.8-2-0.8-2.7,0
			l-14.8,14.8c-0.8,0.8-0.8,2,0,2.7c0.1,0.1,0.3,0.1,0.5,0.2c-0.3,0.7-0.3,1.5,0.3,2.1l5.2,5.2l-5,5l-1-1c-0.8-0.8-2-0.8-2.7,0
			c-0.8,0.8-0.8,2,0,2.7l1,1l-6,6c-0.3,0.3-0.4,0.7-0.5,1.1c-2.3-2.6-2.2-4.8-2-7.9c1.6-26.2,9.1-18.1-15.3-24.1
			c-8.4-2-17.8-5-23.3-11.9C208,292,216.2,271.3,238.9,287.9L238.9,287.9z"/>
		<path class="st0" d="M503.1,483.3c-10.1-55.7-9.9-64.9-17.6-70c-2-1.3-5.3-2.6-10-1.4c-1.3,0.3-3.7,0.9-16.9,13.5l-35.4-37.8
			c-2.7-2.9-6.1-6.6-10.6-9c-17.6-9-39.4,7.1-35.8,30.3c2.4,14.9,14.4,25.5,26.5,35.1l19.8,15.8c-3.3,2.7-9.2,8.1-8.6,15.3
			c0.3,4.3,3,8.5,7.3,11.1c3.3,2.1,7.1,3.1,10.7,4l50.8,12.8C498.6,507.1,506.1,499.8,503.1,483.3z M489,449.2l-0.8-0.8l0.6-0.6
			C488.8,448.2,488.9,448.7,489,449.2L489,449.2z M422.2,474.5c-0.3-3.4,3.4-6.8,6.6-9.4c0.8-0.6,1.8-1.5,3-2.7
			c1.3-1.2,1.5-4.4-0.7-6.2l-23-18.4c-11.3-9-21.7-18.1-23.7-30.3c-2.6-16.8,12.7-28.2,24.6-22.2c5.2,2.8,42.6,43.8,46.7,48.1
			c1.3,1.4,3.8,1.8,5.5,0.1c12.9-12.5,15.9-14.1,16.2-14.3c2.4-0.6,3.6,0.1,3.9,0.4c3.8,2.5,4.5,12.1,6.5,22.4l-0.2,1.3l-2,2
			l-3.3-3.3c-0.8-0.8-2-0.8-2.7,0c-0.8,0.8-0.8,2,0,2.7l3.3,3.3l-2.6,2.6c-1.2,1.2-0.3,3.3,1.4,3.3c0.5,0,1-0.2,1.4-0.6l2.6-2.6
			l4.8,4.8c1.8,9.6,3.5,19.2,5.3,28.7c2.1,11.9-1.5,13.2-10.4,10.9c0,0,0,0,0,0l-8-2c0.5,0,1-0.2,1.4-0.6l3.4-3.4
			c1.5,1.5,2.9,3.3,4.5,1.7c1.6-1.6-0.2-2.9-1.7-4.5l6.4-6.4c0.8-0.8,0.8-2,0-2.7c-0.8-0.8-2-0.8-2.7,0l-0.7,0.7
			c-0.1-0.3-0.1-0.7-0.4-1l-6.2-6.2c2.2-2.2,7-5.6,4.9-7.7c-0.8-0.8-2-0.8-2.7,0l-4.9,4.9L468,458.2c-0.8-0.8-2-0.8-2.7,0
			c-0.8,0.8-0.8,2,0,2.7l0.5,0.5l-13.1,13.1l-5.7-5.7c-0.3-0.3-0.6-0.3-1-0.4l3.1-3.1c0.8-0.8,0.8-2,0-2.7c-0.8-0.8-2-0.8-2.7,0
			l-10.9,10.9l-2.9-2.9c-0.8-0.8-2-0.8-2.7,0c-0.8,0.8-0.8,2,0,2.7l2.9,2.9l-4.5,4.5c-0.9-0.3-1.7-0.7-2.5-1.1
			C423.7,478.3,422.3,476.3,422.2,474.5L422.2,474.5z M443.9,470.6c0.1,0.3,0.1,0.7,0.4,1l5.7,5.7l-5.3,5.3l-6.4-6.4L443.9,470.6z
			 M447.4,485.3L447.4,485.3l5.3-5.3l7.8,7.8c0.1,0.2,0.1,0.4,0.2,0.6c0.2,0.2,0.4,0.1,0.6,0.2l1.1,1.1l-14.9-3.8
			C447.6,485.8,447.6,485.5,447.4,485.3z M475.5,471l-3.3,3.3l-6.9-6.9l3.3-3.3L475.5,471z M478.2,473.8l6.2,6.2
			c0.3,0.3,0.6,0.3,1,0.4l-3.6,3.6l-6.9-6.9L478.2,473.8z M462.5,470.2l6.9,6.9l-7.1,7.1l-6.9-6.9L462.5,470.2z M467.7,489.5
			l-2.6-2.6l7.1-7.1l6.9,6.9l-3.4,3.4c-0.8,0.8-0.8,2,0,2.7c0.4,0.4,0.9,0.6,1.4,0.6l-8.8-2.2C468.3,490.6,468.2,490,467.7,489.5
			L467.7,489.5z M432.4,482.1l3.2-3.2l5.4,5.4l-6.8-1.7C433.5,482.4,433,482.3,432.4,482.1z"/>
		<path class="st0" d="M79.5,21.8L28.7,9c-15-4-23.1,2.6-20,19.8c3.4,18.9,6.9,37.7,10.4,56.6c1.8,10.1,7.4,17.2,17.3,14.8
			c1.4-0.3,3.7-0.9,16.9-13.5c35,37.4,39.2,43.2,46.1,46.8c8.8,4.5,20,2.5,27.3-4.3c6.8-6.2,10-16.2,8.5-26
			c-2.4-14.9-14.4-25.5-26.5-35.1L88.8,52.3C101.8,41.5,101.7,27.5,79.5,21.8z M102.9,126.6c-1.5-0.8-2.9-1.9-4.2-3l4.8-4.8l4.7,4.7
			c-1.6,1.8,0.9,4.3,2.7,2.7l1.6,1.6C109.2,128.4,105.8,128,102.9,126.6z M106.2,116l6.9-6.9l4.7,4.7l-6.9,6.9L106.2,116z
			 M83.1,46.9c-0.8,0.6-1.8,1.5-3,2.7c-1.3,1.2-1.5,4.4,0.7,6.3l22.9,18.3c5.4,4.3,10.6,8.6,14.7,13.3l-1.8,1.8l-3.5-3.5
			c-0.8-0.8-2-0.8-2.7,0c-0.8,0.8-0.8,2,0,2.7l3.5,3.5l-1.2,1.2c-0.8,0.8-0.8,2,0,2.7s2,0.8,2.7,0l1.2-1.2l5.4,5.4
			c0.8,0.8,2,0.8,2.7,0c0.8-0.8,0.8-2,0-2.7l-5.4-5.4l1.6-1.6c11.9,15.6,6.4,31.6-4.8,36.2c0-0.4-0.2-0.8-0.5-1.2l-2-2l7-7
			c0.3,0.2,0.7,0.4,1.1,0.4c0.5,0,1-0.2,1.4-0.6c0.8-0.8,0.8-2,0-2.7l-7.2-7.2l0.3-0.3c0.8-0.8,0.8-2,0-2.7s-2-0.8-2.7,0l-0.3,0.3
			l-2.5-2.5c-0.8-0.8-2-0.8-2.7,0c-0.8,0.8-0.8,2,0,2.7l2.5,2.5l-6.9,6.9l-2.9-2.9c-0.8-0.8-2-0.8-2.7,0c-0.8,0.8-0.8,2,0,2.7
			l2.9,2.9l-4.8,4.8c-0.5-0.6-1-1.1-1.5-1.6L56.2,78.5c-0.7-0.7-1.7-1.2-2.7-1.2c0,0-0.1,0-0.1,0c-1,0-2,0.4-2.7,1.1
			c-12.3,11.9-21,22.4-24,5.6c-3.5-18.9-6.9-37.7-10.4-56.6c-2.2-12.5,2-13,10.5-10.9l50.9,12.9C92.7,33.2,92.8,39.1,83.1,46.9z"/>
		<path class="st0" d="M483.2,8.8c-18.9,3.4-37.7,6.9-56.6,10.4c-10.2,1.8-17.2,7.4-14.8,17.3c0.4,1.8,1.9,4.8,13.5,16.9
			c-37.4,35-43.2,39.2-46.8,46.1c-8,15.6,4,36.2,25.5,36.2c1.6,0,3.2-0.1,4.8-0.4c14.9-2.4,25.5-14.4,35.1-26.5l15.8-19.8
			c2.7,3.3,8.3,9.2,15.3,8.6c4.4-0.3,8.5-3,11.1-7.3c2.1-3.3,3.1-7.1,4-10.7l12.8-50.7c0.9-3.4,2.8-10.6-1.3-15.9
			C496.6,6.4,487.2,8.1,483.2,8.8L483.2,8.8z M496.2,23.5l-2.8-2.8l1.2-1.2c0.7-0.7,0.7-1.7,0.1-2.5c0.3,0.2,0.7,0.3,0.9,0.6
			C496.6,19,496.5,21.2,496.2,23.5z M396.3,126.4l2.5-2.5l3.8,3.8C400.5,127.6,398.3,127.1,396.3,126.4z M423.2,99.5l4.5,4.5
			l-11.1,11.1l-4.5-4.5L423.2,99.5z M414,117.8l-0.7,0.7c-0.8,0.8-0.8,2,0,2.7c0.8,0.8,2,0.8,2.7,0l0.7-0.7l2.1,2.1
			c0.1,0.1,0.2,0.1,0.3,0.1c-3.5,2.3-7.1,3.9-11.2,4.7l-6.3-6.3l7.8-7.8L414,117.8z M421.8,120.8c-0.1-0.3-0.1-0.6-0.4-0.9l-2.1-2.1
			l11.1-11.1l2.7,2.7C429.6,113.7,425.8,117.6,421.8,120.8z M449.6,77.3l5.3,5.3l-7.9,9.8l-6.3-6.3L449.6,77.3z M474.4,89.8
			c-3.3,0.3-6.8-3.4-9.4-6.6c-0.1-0.1-0.2-0.2-0.3-0.3l5.7-5.7l8.1,8.1c0.3,0.3,0.7,0.4,1,0.4c-0.1,0.1-0.1,0.3-0.2,0.4
			C478.2,88.2,476.3,89.7,474.4,89.8z M489.4,50.5c-0.1-0.2-0.1-0.4-0.2-0.6l-1.3-1.3c0.6-0.8,0.6-1.8-0.1-2.5
			c-0.7-0.7-1.8-0.7-2.5-0.1l-2.7-2.7c-0.8-0.8-2-0.8-2.7,0c-0.8,0.8-0.8,2,0,2.7l2.6,2.6l-5.3,5.3c-0.8,0.8-0.8,2,0,2.7
			c0.8,0.8,2,0.8,2.7,0l5.3-5.3l1.2,1.2c0.7,0.7,1.5,0.8,2.4,0.1l-3.1,12.1l-7.4-7.4c-0.8-0.8-2-0.8-2.7,0c-0.8,0.8-0.8,2,0,2.7
			l7.8,7.8c0.4,0.4,0.9,0.6,1.3,0.6l-2.3,9.2c-0.4,1.6-0.8,3.1-1.3,4.5l-8-8l4.3-4.3c0.8-0.8,0.8-2,0-2.7c-0.8-0.8-2-0.8-2.7,0
			l-4.3,4.3l-4-4c-0.8-0.8-2-0.8-2.7,0c-0.8,0.8-0.8,2,0,2.7l4,4l-5.7,5.7c-0.8-0.6-1.8-0.8-2.9-0.8c-0.6,0-1.1,0.2-1.7,0.5
			l-5.2-5.2l5.7-5.7c0.8-0.8,0.8-2,0-2.7c-0.8-0.8-2-0.8-2.7,0L438,83.4l-0.9-0.9c-0.8-0.8-2-0.8-2.7,0c-0.8,0.8-0.8,2,0,2.7
			l1.2,1.2c0,0.5,0.1,1,0.5,1.4c0.4,0.4,0.9,0.6,1.4,0.6c0,0,0,0,0.1,0l6.9,6.9l-6.7,8.4c-0.7,0.9-1.4,1.7-2.1,2.6l-2.4-2.4l7.7-7.7
			c0.8-0.8,0.8-2,0-2.7c-0.8-0.8-2-0.8-2.7,0l-7.7,7.7l-4.5-4.5l3.6-3.6c0.8-0.8,0.8-2,0-2.7c-0.8-0.8-2-0.8-2.7,0l-17.4,17.4
			l-0.9-0.9c-0.8-0.8-2-0.8-2.7,0c-0.8,0.8-0.8,2,0,2.7l0.9,0.9l-7.8,7.8l-3.7-3.7c-0.8-0.8-2-0.8-2.7,0c-0.8,0.8-0.8,2,0,2.7
			l3.7,3.7l-3.6,3.6c-8.4-5-10.6-15-7.2-21.7c2.8-5.2,43.7-42.5,48.1-46.7c0.8-0.7,1.2-1.7,1.2-2.7c0-1-0.4-2-1.1-2.8
			c-11.9-12.4-22.4-21-5.6-24c18.9-3.5,37.7-7,56.6-10.4c2.9-0.5,6.3-1,9,0c-0.6-0.2-1.3-0.1-1.8,0.4l-2.2,2.2
			c-0.2,0.1-0.4,0.1-0.5,0.2c-0.1,0.1-0.1,0.3-0.2,0.5l-0.7,0.7c-0.8,0.8-0.8,2,0,2.7c0.8,0.8,1.5,0.6,2.3,0.2l3.5,3.5
			c0.4,0.4,0.9,0.6,1.4,0.6c0,0,0,0,0,0l-1.5,5.8l-2.3-2.3l0.7-0.7c0.8-0.8,0.8-2,0-2.7c-0.8-0.8-2-0.8-2.7,0l-0.7,0.7l-0.9-0.9
			c-0.8-0.8-2-0.8-2.7,0c-0.8,0.8-0.8,2,0,2.7l0.9,0.9l-2.4,2.4c-0.8,0.8-0.8,2,0,2.7c0.8,0.8,2,0.8,2.7,0l2.4-2.3l3.2,3.2
			c0.2,0.2,0.5,0.2,0.8,0.3L489.4,50.5z"/>
		<path class="st0" d="M21.8,504c2.7,0,5.2-0.4,6.8-0.7c18.9-3.4,37.7-6.9,56.6-10.4c10.2-1.8,17.2-7.4,14.8-17.3
			c-0.4-1.8-1.9-4.8-13.5-16.9c37.4-35,43.2-39.2,46.8-46.1c8.9-17.6-7-39.4-30.3-35.8c-14.9,2.4-25.5,14.4-35.1,26.5l-15.8,19.8
			c-10.8-13.1-21.5-9.4-26.4-1.4c-3.5,5.4-4.3,11.8-16.8,61.4C5.1,497.4,11.5,504,21.8,504z M27.3,495.6c-1.1,0.2-2.3,0.4-3.6,0.5
			l5.9-5.9l4,4c0.1,0.1,0.2,0.1,0.3,0.1C31.8,494.8,29.5,495.2,27.3,495.6L27.3,495.6z M39.5,480.3l6.9,6.9l-5,5
			c-0.2,0.2-0.3,0.6-0.4,0.9c-1.5,0.3-2.9,0.5-4.4,0.8c0.5-0.8,0.5-1.8-0.1-2.4l-4-4L39.5,480.3z M60,479l7.8-7.8l7.1,7.1l-7.8,7.8
			L60,479z M64.4,488.8c-3.3,0.6-6.6,1.2-9.9,1.8c0-0.5-0.2-1-0.6-1.3l-2.1-2.1l5.5-5.5L64.4,488.8z M50.5,491.3
			c-1.1,0.2-2.3,0.4-3.4,0.6l2-2L50.5,491.3z M92.5,477.4c0.6,2.4-0.1,3.5-0.4,3.9c-1.1,1.7-4.1,3.1-8.3,3.9
			c-4.3,0.8-8.5,1.6-12.8,2.3l6.5-6.5l2.4,2.4c0.4,0.4,0.9,0.6,1.4,0.6c0.5,0,1-0.2,1.4-0.6c0.8-0.8,0.8-2,0-2.7l-2.4-2.4l6-6
			c0.6-0.6,0.6-1.6,0.2-2.3C91.5,475.6,92.4,477.2,92.5,477.4z M16.4,485.2C16.4,485.2,16.4,485.1,16.4,485.2
			c1.2-4.6,13.4-55.4,15.9-59.3c4.1-6.7,9.5-3.2,14.4,2.9c0.6,0.8,1.5,1.8,2.7,3c1.2,1.3,4.4,1.5,6.3-0.7l18.3-22.9
			c9-11.3,18.1-21.7,30.3-23.7c16.7-2.6,28.2,12.7,22.2,24.6c-2.8,5.2-43.7,42.5-48.1,46.7c-1.6,1.5-1.6,4-0.1,5.5
			c3.3,3.4,5.8,6.1,7.7,8.2c-0.8-0.5-1.7-0.5-2.4,0.1l-6,6l-7.1-7.1L72,467c1.8-1.8-0.9-4.6-2.7-2.7l-1.5,1.5l-2.3-2.3
			c-0.8-0.8-2-0.8-2.7,0c-0.8,0.8-0.8,2,0,2.7l2.3,2.3l-7.8,7.8l-5-5c-0.8-0.8-2-0.8-2.7,0c-0.8,0.8-0.8,2,0,2.7l5,5l-5.5,5.5
			l-6.9-6.9l4.1-4.1c0.8-0.8,0.8-2,0-2.7c-0.8-0.8-2-0.8-2.7,0l-4.5,4.5c-0.5,0-1,0.1-1.5,0.5c-0.4,0.4-0.6,0.9-0.5,1.5l-7.5,7.5
			l-3.9-3.9c-0.8-0.8-2-0.8-2.7,0c-0.8,0.8-0.8,2,0,2.7l3.9,3.9l-8,8c-0.1,0.1-0.1,0.2-0.1,0.3C14.3,494.5,15.2,489.7,16.4,485.2
			L16.4,485.2z"/>
		<path class="st0" d="M425.2,422.4l3.1-3.1c0.8-0.8,0.8-2,0-2.7c-0.8-0.8-2-0.8-2.7,0l-3.1,3.1l-7.7-7.7l3.9-3.9
			c0.8-0.8,0.8-2,0-2.7c-0.8-0.8-2-0.8-2.7,0l-3.9,3.9l-4.3-4.3l1.3-1.3c0.8-0.8,0.8-2,0-2.7c-0.8-0.8-2-0.8-2.7,0l-1.3,1.3
			l-1.1-1.1c-0.8-0.8-2-0.8-2.7,0c-0.8,0.8-0.8,2,0,2.7l1.1,1.1l-1.5,1.5c-0.8,0.8-0.8,2,0,2.7c0.8,0.8,2,0.8,2.7,0l1.5-1.5l4.3,4.3
			l-3.2,3.2c-0.8,0.8-0.8,2,0,2.7c0.8,0.8,2,0.8,2.7,0l3.2-3.2l7.7,7.7l-3.4,3.4c-0.8,0.8-0.8,2,0,2.7c0.8,0.8,2,0.8,2.7,0l3.4-3.4
			l6.4,6.4c0.8,0.8,2,0.8,2.7,0c0.8-0.8,0.8-2,0-2.7L425.2,422.4z"/>
		<path class="st0" d="M72.8,434.2l-3.7,3.7c-0.8,0.8-0.8,2,0,2.7c0.8,0.8,2,0.8,2.7,0l3.7-3.7l3.9,3.9c0.8,0.8,2,0.8,2.7,0
			c0.8-0.8,0.8-2,0-2.7l-3.9-3.9l9.6-9.6l3.1,3.1c0.8,0.8,2,0.8,2.7,0c0.8-0.8,0.8-2,0-2.7l-0.8-0.8c0,0,0,0,0,0
			c1.1,0,1.9-0.9,1.9-1.9v-4.6l8.8-8.8c0.8-0.8,0.8-2,0-2.7c-0.8-0.8-2-0.8-2.7,0l-6,6v-3.6c0-1.1-0.9-1.9-1.9-1.9
			c-1.1,0-1.9,0.9-1.9,1.9v7.4l-3.1,3.1l-1.4-1.4c-0.8-0.8-2-0.8-2.7,0c-0.8,0.8-0.8,2,0,2.7l1.4,1.4l-9.6,9.6l-5-5
			c-0.8-0.8-2-0.8-2.7,0c-0.8,0.8-0.8,2,0,2.7L72.8,434.2z M91,421.5v0.7c0,0,0,0,0,0l-0.3-0.3L91,421.5z"/>
		<path class="st0" d="M313.6,352.4c0.3,1,1.4,1.6,2.4,1.3c8.2-2.5,16-6.4,23.2-11.1c0.9,0.9,2.4,2.7,3.5,2.7c1.7,0,2.6-2.1,1.4-3.3
			l-1.7-1.7c5.9-4.2,11.3-9.1,16.1-14.5l1.1,1c0.7,0.6,1.6,1.5,2.9,1.9c0.4,0.1,0.8,0.2,1.2,0.2c1.4,0,2.7-0.7,3.3-1.9
			c0.5-1,0.1-2.2-0.8-2.7c-1-0.5-2.1-0.2-2.6,0.7c-0.4-0.1-0.9-0.6-1.4-1l-1.1-1c5.3-6.4,9.8-13.4,13.2-20.8l2.6,1.1
			c1,0.4,2.1,0,2.5-1c0.4-1-0.1-2.1-1-2.5l-2.5-1c2.7-6.5,4.6-12.4,5.9-21c1.2,0,2.3-0.3,3.4-0.8c1-0.5,1.4-1.6,0.9-2.6
			s-1.6-1.4-2.6-0.9c-0.4,0.2-0.9,0.3-1.4,0.3c0.7-7.1,0.7-14.2-0.1-21.3l2-0.6c1-0.3,1.6-1.4,1.3-2.4c-0.3-1-1.4-1.6-2.4-1.3
			l-1.6,0.5c-0.8-4.9-1.9-9.7-3.4-14.4l3.6-1.7c1-0.5,1.4-1.6,0.9-2.6c-0.5-1-1.6-1.4-2.6-0.9l-3.1,1.4c-2.1-6-5-11.7-8.2-17.1
			l0.4-0.2c0.9-0.5,1.3-1.7,0.8-2.6c-0.5-0.9-1.7-1.3-2.6-0.8l-0.5,0.3c-2.1-3.2-4.5-6.3-7-9.2c-0.7-0.8-1.9-0.9-2.7-0.2
			c-0.8,0.7-0.9,1.9-0.2,2.7c2.3,2.7,4.5,5.6,6.5,8.5L357,215c-0.9,0.5-1.3,1.7-0.8,2.6c0.5,1,1.7,1.3,2.6,0.8l6.4-3.4
			c3.3,5.3,6,11,8.2,16.9l-3.2,1.5c-1,0.5-1.4,1.6-0.9,2.6c0.4,0.9,1.6,1.4,2.6,0.9l2.7-1.3c1.4,4.5,2.5,9.1,3.2,13.8l-6,1.7
			c-1,0.3-1.6,1.4-1.3,2.4c0.3,1,1.4,1.6,2.4,1.3l5.5-1.6c0.7,6.5,0.7,13,0,19.4c-0.9-0.5-1.6-1.1-2.1-2c-0.5-0.9-1.7-1.3-2.6-0.8
			c-1,0.5-1.3,1.7-0.8,2.6c1.1,2.1,3,3.5,5.2,4.3c-1.2,8.3-3.1,13.9-5.6,20.2l-9.1-3.8c-1-0.4-2.1,0.1-2.5,1c-0.4,1,0.1,2.1,1,2.5
			l9,3.7c-3.3,7.1-7.5,13.7-12.5,19.7l-6-5.5c-0.8-0.7-2-0.7-2.7,0.1c-0.7,0.8-0.7,2,0.1,2.7l6.1,5.6c-4.8,5.4-10.2,10.1-16,14.3
			l-7-7c-0.8-0.8-2-0.8-2.7,0c-0.8,0.8-0.8,2,0,2.7l6.6,6.6c-6.7,4.3-14,7.9-21.6,10.2C313.8,350.3,313.3,351.4,313.6,352.4
			L313.6,352.4z"/>
		<path class="st0" d="M68.4,41.5c-1.1-0.3-2.1-0.6-3.2-0.9l2.5-2.8c0.7-0.8,0.7-2-0.1-2.7c-0.8-0.7-2-0.7-2.7,0.1L61,39.4
			c-2.4-0.7-4.9-1.4-7.3-2.1l1.3-1.5c0.7-0.8,0.6-2-0.3-2.7c-0.8-0.7-2-0.6-2.7,0.3l-2.4,2.9c-2.7-0.8-5.4-1.5-8-2.3
			c1-0.9,2-1.7,3.1-2.3c0.9-0.5,1.2-1.7,0.7-2.7c-0.5-0.9-1.7-1.2-2.7-0.7c-2,1.2-3.8,2.7-5.4,4.5c-2.3-0.7-4.7-1.3-7-2
			C29.3,30.4,28.2,31,28,32c-0.3,1,0.3,2.1,1.3,2.4c1.9,0.5,3.7,1.1,5.6,1.6c-0.9,1.5-1.7,3.1-2.3,4.8c-0.3,1,0.2,2.1,1.3,2.4
			c0.2,0.1,0.4,0.1,0.6,0.1c0.8,0,1.6-0.5,1.8-1.4c0.6-1.7,1.4-3.4,2.5-4.9c2.7,0.8,5.4,1.5,8.1,2.3l-2.8,3.4
			c-0.7,0.8-0.6,2,0.3,2.7c0.8,0.7,2,0.6,2.7-0.3l3.9-4.7c2.4,0.7,4.7,1.3,7.1,2l-0.6,0.7c-0.7,0.8-0.7,2,0.1,2.7
			c0.8,0.7,2,0.7,2.7-0.1l1.9-2.1c1.7,0.5,3.4,1,5.1,1.4c1,0.3,2.1-0.3,2.4-1.3C70,42.8,69.4,41.8,68.4,41.5z"/>
	</g>
</g>
</svg>
