<?xml version="1.0" encoding="utf-8"?>
<!-- Generator: Adobe Illustrator 25.0.0, SVG Export Plug-In . SVG Version: 6.00 Build 0)  -->
<svg version="1.1" id="Layer_1" xmlns:svgjs="http://svgjs.com/svgjs"
	 xmlns="http://www.w3.org/2000/svg" xmlns:xlink="http://www.w3.org/1999/xlink" x="0px" y="0px" viewBox="0 0 512 512"
	 style="enable-background:new 0 0 512 512;" xml:space="preserve">
<style type="text/css">
	.st0{fill:#F64E60;}
</style>
<g>
	<g>
		<path class="st0" d="M499.4,171c-28-0.1-53.6-91.8-5.1-157c2.4-3.3-1.2-7.6-4.9-5.8c-49.6,26-93.9,59.7-131.7,100.2L12.6,119.5
			c-2.1,0.1-3.8,1.9-3.7,4c5.3,124.3,8.9,249.3,14.1,374.3c0.1,2,1.7,3.6,3.7,3.7c123.6,6.5,245.4,1.6,366.5-21.1
			c2.1-0.4,3.6-2.5,3.1-4.6c-4.9-22.4-12.4-124.5-16.4-223.7c36-31.6,76.7-56.5,121-73.7C504.7,176.9,503.6,171,499.4,171L499.4,171
			z M248.8,303.6c-16.6-37-35.6-72.4-51.4-109c-1.5-3.4-6-2.9-7.2,0.1c-15.7,40.9-56.4,74.2-101.4,82.9c-1.8,0.4-3.1,2-3.1,3.8
			c-0.5,0-1,0.1-1.4,0.5l-2.9,2.9c0-0.6-0.1-1.1-0.5-1.5l-9.8-9.8l16.8-16.8c0.8-0.8,0.8-2,0-2.7s-2-0.8-2.7,0l-8,8l-10.2-10.2
			c-0.2-6.8-0.5-13.6-0.8-20.4l8.7,8.7l-5.7,5.7c-0.8,0.8-0.8,2,0,2.7c0.8,0.8,2,0.8,2.7,0l5.7-5.7l1.1,1.1c0.8,0.8,2,0.8,2.7,0
			s0.8-2,0-2.7l-1.1-1.1l12.5-12.5c0.8-0.8,0.8-2,0-2.7s-2-0.8-2.7,0l-12.5,12.5L66,225.9c0-0.4,0-0.7,0-1.1
			c0.1,0.3,0.1,0.6,0.3,0.8c0.8,0.8,2,0.8,2.7,0l7.9-7.9l4.3,4.3c0.8,0.8,2,0.8,2.7,0s0.8-2,0-2.7l-4.3-4.3l8.2-8.2
			c0.8-0.8,0.8-2,0-2.7s-2-0.8-2.7,0l-8.2,8.2l-8.5-8.5l9.4-9.4c0.8-0.8,0.8-2,0-2.7c-0.8-0.8-2-0.8-2.7,0l-9.4,9.4l-0.7-0.7
			c-0.3-8.7-0.7-17.4-1-26.2l7,7l-4.6,4.7c-0.8,0.8-0.8,2,0,2.7c0.8,0.8,2,0.8,2.7,0l4.7-4.7l12.9,12.9c0.8,0.8,2,0.8,2.7,0
			c0.8-0.8,0.8-2,0-2.7l-0.5-0.5c0.5,0,0.9-0.2,1.3-0.5l10.2-10.2l7.2,7.2c0.4,0.4,0.9,0.6,1.4,0.6c0.4,0,0.9-0.2,1.2-0.5l-1.2,1.2
			c-0.8,0.8-0.8,2,0,2.7c0.8,0.8,2,0.8,2.7,0l14.6-14.6c0.8-0.8,0.8-2,0-2.7s-2-0.8-2.7,0l-13.2,13.2c0.6-0.8,0.7-1.9-0.1-2.6
			l-7.2-7.2l0.7-0.7c0.8-0.8,0.8-2,0-2.7s-2-0.8-2.7,0l-0.7,0.7l-5.8-5.8l28.2-0.9l16.6,16.6c0.8,0.8,2,0.7,2.7,0
			c0.8-0.8,0.8-2,0-2.7l-14-14l20.8-0.7c0.1,0.2,0.1,0.4,0.2,0.6l4.2,4.2l-6.2,6.2c-0.8,0.8-0.8,2,0,2.7c0.8,0.8,2,0.8,2.7,0
			l6.2-6.2l9.7,9.7c0.8,0.7,2,0.8,2.7,0c0.8-0.8,0.8-2,0-2.7l-9.7-9.7l5.2-5.2l17.1-0.6l1,1l-9.9,9.9c-0.8,0.8-0.8,2,0,2.7
			c0.8,0.8,2,0.8,2.7,0l9.9-9.9l9.7,9.7c0.8,0.8,2,0.8,2.7,0c0.8-0.8,0.8-2,0-2.7l-9.7-9.7l1.3-1.3l18.7-0.6l-8.8,8.8
			c-0.8,0.8-0.8,2,0,2.7c0.8,0.8,2,0.8,2.7,0l10.9-10.9l11.5,11.5c0.8,0.8,2,0.7,2.7,0c0.2-0.2,0.1-0.4,0.2-0.6c0,0,0,0,0,0
			c0.7,0.8,2,0.8,2.7,0l12.6-12.6l0.2,0c0.1,0.4,0.2,0.8,0.5,1.1l8.4,8.4l-4.9,4.9c-0.8,0.8-0.8,2,0,2.7s2,0.8,2.7,0l4.9-4.9
			l2.4,2.4c0.7,0.7,2,0.8,2.7,0c0.8-0.8,0.8-2,0-2.7l-2.4-2.4l10.3-10.3l6.8-0.2l7.5,7.5l-4.9,4.9c-0.8,0.8-0.8,2,0,2.7
			c0.8,0.8,2,0.7,2.7,0l4.9-4.9l0.9,0.9c0.8,0.8,2,0.7,2.7,0c0.8-0.8,0.8-2,0-2.7l-0.9-0.9l6-6c0.6-0.6,0.6-1.4,0.3-2.1l4.6-0.1
			l3.3,3.3l-2.9,2.9c-0.8,0.8-0.8,2,0,2.7c0.8,0.8,2,0.8,2.7,0l3.5-3.5c1.3-0.2,1.7-1.1,1.5-2.2c0.2-1.3-0.4-1.8-1.4-2l-1.4-1.4
			l9.4-0.3C284.7,205.1,261.8,253.4,248.8,303.6L248.8,303.6z M265.7,423.2c14-42.3,35.6-82.5,64.9-119.4
			c1.4,26.4,5.8,101.4,10.1,127.4C260,446,174.6,451,80.3,446.7c0.4-0.1,0.7-0.1,1-0.4c0.8-0.8,0.8-2,0-2.7l-3.7-3.7l7.3-7.3
			c0.6,0.1,1.1,0.2,1.7-0.4c0.5-0.5,0.5-1.1,0.4-1.7l16.1-16c0.8-0.8,0.8-2,0-2.7c-0.8-0.8-2-0.8-2.7,0l-15.7,15.7L73,415.6
			c0,0-0.1,0-0.1,0c0-0.5,0-1.1-0.1-1.6l7.5-7.5L82,408c0.8,0.8,2,0.8,2.7,0c0.8-0.8,0.8-2,0-2.7l-1.5-1.5l11.6-11.6
			c0.8-0.8,0.8-2,0-2.7c-0.8-0.8-2-0.8-2.7,0l-11.6,11.6l-7.6-7.6c0.1,0,0.1,0,0.2-0.1l9.4-9.4c0.3-0.1,0.7-0.1,0.9-0.4
			c0.3-0.3,0.3-0.6,0.4-0.9l14.3-14.3c0.8-0.8,0.8-2,0-2.7c-0.8-0.8-2-0.8-2.7,0l-13.6,13.6l-10.6-10.6c-0.3-9.2-0.7-18.4-1-27.6
			l9.1,9.1l-7.4,7.4c-0.8,0.8-0.8,2,0,2.7c0.8,0.8,2,0.7,2.7,0l7.4-7.4l2.3,2.3c0.8,0.8,2,0.7,2.7,0c0.8-0.8,0.8-2,0-2.7l-2.3-2.3
			L95.6,339c0.8-0.8,0.8-2,0-2.7c-0.8-0.8-2-0.8-2.7,0L82,347.2L71,336.3c-0.3-0.3-0.7-0.4-1.1-0.4c-0.1-2.2-0.2-4.4-0.2-6.6l10-10
			l6.5,6.5c0.8,0.8,2,0.8,2.7,0c0.8-0.8,0.8-2,0-2.7l-6.5-6.5L88,311c0.8-0.8,0.8-2,0-2.7c-0.8-0.8-2-0.8-2.7,0l-5.6,5.6L68.9,303
			l18.2-18.2c0.1-0.1,0.1-0.2,0.1-0.3c0.5,0.4,1.1,0.8,1.8,0.9c75.1,12.9,141.6,67,169.4,138C259.7,426.8,264.5,426.6,265.7,423.2
			L265.7,423.2z M226.9,176.7c-0.2,0.2-0.1,0.4-0.2,0.6c0,0,0,0,0,0l-9.6-9.6l19.6-0.6L226.9,176.7z M86.8,191.5l-10.4-10.4l8.8-8.8
			c0.1-0.1,0.1-0.3,0.2-0.4l3.8-0.1l8.4,8.4l-10.2,10.2C87,190.6,86.9,191,86.8,191.5L86.8,191.5z M65.2,206.8l0.4-0.4l8.6,8.5
			l-7.9,7.9c-0.3,0.3-0.3,0.6-0.4,0.9C65.7,218.1,65.4,212.5,65.2,206.8z M80,172l-6.3,6.3l-5.9-5.9L80,172z M158.3,169.5l-2.3,2.3
			l-2.2-2.2L158.3,169.5z M261.5,166.2l-7.4,7.4l-6.9-6.9L261.5,166.2z M289.5,165.3l-5.3,5.3l-4.9-4.9L289.5,165.3z M67.8,275.9
			l10.4,10.4c0.4,0.4,0.8,0.6,1.5,0.5l-11.1,11.1C68.3,290.5,68.1,283.2,67.8,275.9z M68.3,271c-0.2-0.2-0.5-0.2-0.7-0.3
			c-0.2-4.4-0.3-8.7-0.5-13.1l7.3,7.3L68.3,271z M69,308.7l8,8l-7.4,7.4C69.5,322.3,69,309.7,69,308.7z M74,436.2
			c-0.1-0.1-0.2-0.1-0.3-0.1c-0.2-5-0.4-9.9-0.6-14.8L82,430l-7,7L74,436.2z M72.3,398.3l5.4,5.4l-5,5
			C72.5,405.2,72.4,401.7,72.3,398.3z M71.3,374.3l7.6,7.6l-7,7C71.7,384,71.5,379.1,71.3,374.3z M74.9,442.6l3.7,3.7
			c0.3,0.3,0.6,0.3,1,0.4c-1.8-0.1-3.6-0.1-5.4-0.2c0-1-0.1-2-0.1-3L74.9,442.6z M30.5,494c-5.1-123.2-8.6-244.7-13.8-366.9
			l333.6-10.8c-11.2,12.5-23.7,28.3-32.2,40.2l-258.4,8.3c-2.2,0.1-3.8,1.9-3.8,4c4,95.5,6.6,187.2,10.6,281.4
			c0.1,2,1.7,3.6,3.7,3.7c91.9,4.8,184.2,1.2,275.7-15.9c2.1-0.4,3.6-2.5,3.1-4.6c-4.7-21.2-9.9-115.3-11.1-138.7
			c9.2-10.9,20.7-23.1,32.9-34.5c0.5-0.4,1-0.9,1.5-1.3c3.9,92.5,10.8,186.3,15.6,214.6C277.6,493.9,160.6,500.6,30.5,494L30.5,494z
			 M261.6,411.1c-28.5-63.7-87.5-112.9-155.1-129.9c37.8-12.3,71-40.7,87.4-75.2c16.8,37.5,36.2,73.8,52.4,111.2
			c1.5,3.4,6.5,3,7.3-0.7c21-91.1,69.6-153.9,69.6-153.9c37.1-53,91.1-103.6,156.1-140.2c-36.9,63.6-16.1,140,7.7,153.2
			C383.4,219.4,299.9,305.1,261.6,411.1L261.6,411.1z"/>
		<path class="st0" d="M440.8,172.6c-1.2,0.6-2.4,1.3-3.6,2l-6-4.8c-0.8-0.7-2.1-0.5-2.7,0.3c-0.7,0.8-0.5,2.1,0.3,2.7l4.8,3.8
			c-4.7,2.5-9.3,5-13.9,7.6l-2.8-2.5c-0.8-0.7-2-0.6-2.7,0.2c-0.7,0.8-0.6,2,0.2,2.7l2,1.8c-8,4.9-15.8,10.1-23.4,15.5l-7.8-5.5
			c-0.9-0.6-2.1-0.4-2.7,0.5c-0.6,0.9-0.4,2.1,0.5,2.7l6.7,4.7c-6.4,4.7-12.7,9.6-18.8,14.7l-8.7-6c-1.2-0.9-3-0.1-3,1.5l-0.1,1.5
			c0,1.1,0.8,2,1.9,2c0.4,0,0.8-0.1,1.1-0.3l5.7,3.9c-6.1,5.2-12,10.6-17.8,16.2c-3.8-3.1-7.5-6.4-10.9-10c-0.7-0.8-2-0.8-2.7-0.1
			c-0.8,0.7-0.8,2-0.1,2.7c3.4,3.6,7.1,6.9,10.9,10.1c-7.1,7-13.7,14.4-20.2,21.9c-3-2.2-5.8-4.8-8.2-7.7c-0.7-0.8-1.9-1-2.7-0.3
			c-0.8,0.7-1,1.9-0.3,2.7c2.6,3.1,5.5,5.9,8.8,8.3c-3.1,3.7-6.3,7.5-9.3,11.3l-11.1-10c-0.8-0.7-2-0.6-2.7,0.2
			c-0.7,0.8-0.6,2,0.2,2.7l11.4,10.2c-3.7,4.9-7.4,9.8-10.9,14.9c-0.6,0.9-0.4,2.1,0.5,2.7c0.9,0.6,2.1,0.4,2.7-0.5
			c3.4-4.9,7-9.7,10.6-14.5l3.3,3c0.8,0.7,2,0.6,2.7-0.2c0.7-0.8,0.6-2-0.2-2.7l-3.6-3.2c3.1-4,6.4-7.9,9.7-11.8
			c2,1.2,4,2.4,6.2,3.3c1,0.4,2.1,0,2.6-1c0.4-1,0-2.1-1-2.6c-1.8-0.8-3.5-1.7-5.2-2.7c6.4-7.4,13-14.7,20-21.6
			c0.6,0.5,1.2,1,1.9,1.5c0.9,0.6,2.1,0.4,2.7-0.4c0.6-0.9,0.5-2.1-0.4-2.7c-0.4-0.3-0.9-0.7-1.3-1.1c5.8-5.7,11.9-11.1,18.1-16.4
			l3.6,2.5c0.9,0.6,2.1,0.4,2.7-0.5c0.6-0.9,0.4-2.1-0.5-2.7l-2.7-1.9c6.1-5.1,12.4-9.9,18.8-14.6l5,3.5c0.9,0.6,2.1,0.4,2.7-0.5
			c0.6-0.9,0.4-2.1-0.5-2.7l-3.9-2.8c7.5-5.3,15.1-10.4,23-15.2l4.7,4.2c0.8,0.7,2,0.6,2.7-0.2c0.7-0.8,0.6-2-0.2-2.7l-3.9-3.4
			c4.6-2.7,9.4-5.2,14.1-7.7l0.3,0.2c0.8,0.7,2,0.5,2.7-0.3c0.4-0.5,0.4-1.1,0.2-1.7c0.9-0.4,1.7-0.9,2.5-1.4c1-0.5,1.3-1.7,0.8-2.6
			C442.9,172.5,441.7,172.1,440.8,172.6L440.8,172.6z"/>
	</g>
</g>
</svg>
