<?xml version="1.0" encoding="utf-8"?>
<!-- Generator: Adobe Illustrator 25.0.0, SVG Export Plug-In . SVG Version: 6.00 Build 0)  -->
<svg version="1.1" id="Layer_1" xmlns:svgjs="http://svgjs.com/svgjs"
	 xmlns="http://www.w3.org/2000/svg" xmlns:xlink="http://www.w3.org/1999/xlink" x="0px" y="0px" viewBox="0 0 512 512"
	 style="enable-background:new 0 0 512 512;" xml:space="preserve">
<style type="text/css">
	.st0{fill:#F64E60;}
</style>
<g>
	<g>
		<path class="st0" d="M93.6,497.7h2l331.3-1c53-0.2,72.2-14.9,74.2-73.2c4-116.9,4-235.3,0-352.2c-1.5-44.5-16.1-57.3-60.1-57
			C48.5,17.9,60.3,14.6,40.4,26.7C26.3,35.4,16.6,51.9,13.8,72c-3.6,26.6,4.1,53.1,3.1,78.9L8,400.2C5.2,478.4,31,497.7,93.6,497.7z
			 M470.8,127l-7.5-7.5l10-10l7.9,7.9l-3.2,3.1c-0.8,0.8-0.8,2,0,2.7c0.8,0.8,2,0.8,2.7,0l3.2-3.1l7,7L470.8,127L470.8,127z
			 M460.6,116.7l-10.2-10.2l10-10l10.2,10.2L460.6,116.7z M494.8,126.1c-0.1-0.4-0.2-0.8-0.5-1.1l-7.7-7.7l7.7-7.7
			C494.6,115.1,494.7,120.6,494.8,126.1z M493.5,73.6c0.1,1.7,0.1,3.3,0.1,5l-2.6-2.6L493.5,73.6z M493.7,84.2
			C493.7,84.2,493.8,84.2,493.7,84.2c0.2,5.4,0.3,10.8,0.5,16.2l-6.3-6.3c0-0.5-0.1-1.1-0.5-1.5s-0.9-0.6-1.5-0.5l-5.4-5.4
			c0,0,0,0,0,0l7.8-7.8L493.7,84.2z M492.6,104.3c0.3,0.3,0.7,0.4,1.1,0.5l-9.8,9.8l-7.9-7.9l9.4-9.4L492.6,104.3z M494.9,126.6
			c0,0.1,0,0.3,0,0.4h-0.2C494.7,126.8,494.8,126.7,494.9,126.6z M21.5,73c2.4-17.8,10.8-32.2,23-39.7c17.5-10.7,7.4-7.7,396.7-11.2
			c30.4-0.2,47.3,4.5,51.2,34.7l-4.1-4.1c-0.8-0.8-2-0.8-2.7,0c-0.8,0.8-0.8,2,0,2.7l7.4,7.4c0.1,1.8,0.2,3.6,0.3,5.5l-5,5l-5.7-5.7
			c-0.8-0.8-2-0.8-2.7,0c-0.8,0.8-0.8,2,0,2.7l5.7,5.7l-7.8,7.8c0,0,0,0,0,0l-2.2-2.2c-0.8-0.8-2-0.8-2.7,0c-0.8,0.8-0.8,2,0,2.7
			l10,10l-9.4,9.4l-10.2-10.2l5.5-5.5c0.8-0.8,0.8-2,0-2.7c-0.8-0.8-2-0.8-2.7,0l-5.5,5.5l-0.8-0.8c-0.8-0.8-2-0.8-2.7,0
			c-0.8,0.8-0.8,2,0,2.7l0.8,0.8l-10,10l-6.6-6.6c-0.8-0.8-2-0.8-2.7,0c-0.8,0.8-0.8,2,0,2.7l6.7,6.6l-8,8l-11-11
			c-0.8-0.8-2-0.8-2.7,0c-0.8,0.8-0.8,2,0,2.7l11,11l-5.3,5.3c-0.8,0.8-0.8,2,0,2.7c0.8,0.8,2,0.8,2.7,0l5.3-5.3l5.8,5.8
			c0.8,0.8,2,0.8,2.7,0c0.8-0.8,0.8-2,0-2.7l-5.8-5.8l8-8l10.2,10.2l-1.6,1.6c-0.8,0.8-0.8,2,0,2.7c0.8,0.8,2,0.8,2.7,0l1.6-1.6
			l4.8,4.8h-67.5c0.3-0.1,0.7-0.1,0.9-0.4l10.3-10.3l9.2,9.2c0.8,0.8,2,0.8,2.7,0c0.8-0.8,0.8-2,0-2.7l-9.2-9.2l28-28
			c0.8-0.8,0.8-2,0-2.7c-0.8-0.8-2-0.8-2.7,0l-28,28l-6-6c-0.8-0.8-2-0.8-2.7,0c-0.8,0.8-0.8,2,0,2.7l6,6L396,123.9
			c-0.8,0.8-0.8,2,0,2.7c0.2,0.2,0.6,0.3,0.9,0.4h-32.6c0.4-0.7,0.4-1.6-0.2-2.2l-9.7-9.7l16.8-16.8c0.8-0.8,0.8-2,0-2.7
			c-0.8-0.8-2-0.8-2.7,0l-16.8,16.8l-1.3-1.3c-0.8-0.8-2-0.8-2.7,0c-0.8,0.8-0.8,2,0,2.7l1.3,1.3l-10.3,10.3
			c-0.4,0.4-0.6,0.9-0.6,1.4l-11.2-11.2l15.1-15.1c0.8-0.8,0.8-2,0-2.7c-0.8-0.8-2-0.8-2.7,0l-15.4,15.4c-0.6-0.1-1.2,0-1.7,0.4
			c-0.5,0.5-0.5,1.1-0.4,1.7l-8.6,8.6c-0.8,0.8-0.8,2,0,2.7c0.2,0.2,0.6,0.3,0.9,0.4h-2.1c0.3-0.7,0.3-1.5-0.3-2l-10-10l4.6-4.6
			c0.8-0.8,0.8-2,0-2.7c-0.8-0.8-2-0.8-2.7,0l-4.6,4.6l-1.4-1.4c-0.8-0.8-2-0.8-2.7,0c-0.8,0.8-0.8,2,0,2.7l1.4,1.4l-9.4,9.4
			l-8.8-8.8l5.8-5.8c0.8-0.8,0.8-2,0-2.7c-0.8-0.8-2-0.8-2.7,0l-13,13l-6.4-6.4c-0.8-0.8-2-0.8-2.7,0c-0.8,0.8-0.8,2,0,2.7l6.4,6.4
			l-3.9,3.9c-0.1,0.1-0.1,0.2-0.1,0.3h-19.7l4-4l2.7,2.7c0.4,0.4,0.9,0.6,1.4,0.6s1-0.2,1.4-0.6c0.8-0.8,0.8-2,0-2.7l-2.7-2.8
			l15.5-15.5c0.8-0.8,0.8-2,0-2.7c-0.8-0.8-2-0.8-2.7,0l-15.5,15.5l-2.4-2.4c-0.8-0.8-2-0.8-2.7,0s-0.8,2,0,2.7l2.4,2.4l-5.8,5.8
			c-0.3,0.3-0.3,0.6-0.4,0.9H23.7C22,107.7,19.1,90.6,21.5,73L21.5,73z M324,118.3l8.7,8.7h-17.9c0.3-0.1,0.7-0.1,0.9-0.4L324,118.3
			z M360.7,127h-18.3l9.1-9.1L360.7,127z M272.8,125l-2.2-2.2l4.4-4.4l8.7,8.7h-10.6C273.3,126.3,273.3,125.5,272.8,125L272.8,125z
			 M269.3,127h-3l1.5-1.5L269.3,127z M308,127h-18.6l9.3-9.3L308,127z M15.8,400.5l9-249.4c0.2-5.5,0-11-0.4-16.4h470.7
			c2.1,96.1,1.7,192.8-1.6,288.5c-1.8,53.9-17.6,65.5-66.5,65.7l-331.3,1C36.5,490,13.1,475.8,15.8,400.5L15.8,400.5z"/>
		<path class="st0" d="M70.3,98.8c9.3,4.9,21.5,3.2,29-4.2c7.5-7.4,9.5-19.5,4.7-28.9c-1-2-2.4-3.8-3.9-5.4
			c-0.1-0.2-0.1-0.4-0.2-0.6c-0.1-0.1-0.3-0.1-0.4-0.2c-5.6-5.5-13.8-8.4-21.6-7.1c-10.8,1.8-18.9,9.8-20.7,20.4
			C55.5,83.5,60.6,93.6,70.3,98.8z M79.1,60.1c0.8-0.1,1.7-0.2,2.5-0.2c4,0,8,1.6,11.1,4.2l-6,6L84,67.2l0.7-0.7
			c0.8-0.8,0.8-2,0-2.7s-2-0.8-2.7,0l-0.7,0.7l-3.9-3.9C77.9,60.4,78.5,60.2,79.1,60.1z M73.3,62l5.2,5.2L74.7,71l-5.6-5.6
			C70.2,64.1,71.6,63,73.3,62z M64.9,74.1c0.3-1.8,1-3.7,1.9-5.5l5.1,5.1l-6,6c-1.8,1.8,1,4.5,2.7,2.7l6-6l3.6,3.6
			c0.8,0.8,2,0.8,2.7,0c0.8-0.8,0.8-2,0-2.7l-3.6-3.6l3.8-3.8l3.1,3.1c0.1,0.1,0.2,0.1,0.3,0.1c0,0.4,0.2,0.8,0.5,1.2
			c0.8,0.8,2,0.8,2.7,0l7.5-7.5c0.6,0.8,1.2,1.5,1.6,2.3c3.2,6.3,1.8,14.9-3.3,19.9s-13.6,6.2-19.9,2.9
			C65.8,87.6,63.9,79.9,64.9,74.1z"/>
		<path class="st0" d="M135.9,98.8c9.3,5,21.5,3.1,29-4.2c7.5-7.4,9.5-19.5,4.7-28.9c-4.8-9.4-15.8-15-26.2-13.2
			c-10.8,1.8-18.9,9.8-20.7,20.4C121.1,83.5,126.2,93.6,135.9,98.8L135.9,98.8z M130.5,74.1c0.1-0.7,0.3-1.5,0.5-2.2l7.3,7.3
			l-5.9,5.9C130.4,81.4,129.9,77.5,130.5,74.1z M144.7,60.1L144.7,60.1l-2,2l-1.2-1.2C142.6,60.5,143.6,60.3,144.7,60.1z
			 M137.9,62.7l2.1,2.1l-1.5,1.5c-0.8,0.8-0.8,2,0,2.7s2,0.8,2.7,0l1.5-1.5l3.9,3.9c0.8,0.8,2,0.8,2.7,0c0.8-0.8,0.8-2,0-2.7
			l-3.9-3.9l3.6-3.6l6,6c0.8,0.8,2,0.8,2.7,0s0.8-2,0-2.7l-2.3-2.3c3,1.6,5.6,4,7.1,7c3.2,6.3,1.8,14.9-3.3,19.9
			c-5.1,5-13.6,6.2-19.9,2.9c-2-1.1-3.7-2.4-5-3.8c0.1-0.1,0.3-0.1,0.4-0.2l6.2-6.2c0.3,0.2,0.6,0.4,0.9,0.4c1.4,0,2.4-1.4,1.6-2.9
			l1.5-1.5c1.8-1.8-0.9-4.6-2.7-2.7l-1.4,1.4l-8.3-8.3C133.9,66,135.6,64.1,137.9,62.7z"/>
		<path class="st0" d="M200.5,98.8c9.4,5,21.6,3.1,29-4.2c7.5-7.4,9.5-19.5,4.7-28.9c-4.8-9.4-15.8-15-26.2-13.2
			c-10.8,1.8-18.9,9.8-20.7,20.4C185.7,83.5,190.9,93.6,200.5,98.8L200.5,98.8z M195,75.2l7.8,7.8l-4.3,4.3
			C195.5,83.5,194.6,79,195,75.2z M227.4,69.2c3.2,6.3,1.8,14.9-3.3,19.9c-5.1,5-13.6,6.2-19.9,2.9c-1.1-0.6-2.1-1.2-2.9-1.9
			l4.3-4.3l1.8,1.8c0.8,0.8,2,0.8,2.7,0s0.8-2,0-2.7l-1.8-1.8l5.3-5.3c0.8-0.8,0.8-2,0-2.7s-2-0.8-2.7,0l-5.3,5.3l-9.5-9.5
			c0.7-2,1.9-3.9,3.5-5.6l4,4c0,0.5,0.2,1,0.6,1.4c0.4,0.4,0.9,0.6,1.4,0.6l2.3,2.3c0.8,0.8,2,0.8,2.7,0c0.8-0.8,0.8-2,0-2.7
			l-1.9-1.9l3.6-3.6l6.8,6.8c0.8,0.8,2,0.8,2.7,0s0.8-2,0-2.7l-6.8-6.8l1.2-1.2c0.2-0.2,0.2-0.4,0.3-0.6
			C221.1,61.8,225.2,64.9,227.4,69.2z M207.6,60.5l1.9,1.9l-3.6,3.6l-3.3-3.3C204,61.8,205.7,61,207.6,60.5z"/>
		<path class="st0" d="M109,213.6c-4.8-8.3-12.3-14.9-21.3-18.4c-2-0.8-4.2,0.2-5,2.2c-0.8,2,0.2,4.2,2.2,5
			c9.5,3.7,17.1,11.7,20.3,21.4c0.5,1.5,1.9,2.6,3.5,2.7h0.2c1.5,0,2.9-0.9,3.6-2.4c8.2-19.2,24.4-35,45.4-44.6
			c1.9-0.9,2.8-3.2,1.9-5.1c-0.9-2-3.2-2.8-5.1-1.9C134.7,181.7,118.7,196.1,109,213.6z"/>
		<path class="st0" d="M71.6,248.4c0.7,0,1.2-0.2,1.7-0.4H135c1.9,0,3.4-1,3.7-2.9c0.2-0.4,0.6-1.1,0.8-2.7v-37.1
			c0-2.1-1.7-3.9-3.9-3.9s-3.9,1.7-3.9,3.9v35H75.4l0-56.2c0-0.2,0.1-0.3,0.2-0.5h47.9c0.6,0,1.2-0.1,1.8-0.2l0.6-0.1
			c2.1-0.1,3.8-2,3.6-4.1s-2-3.7-4.1-3.6c-0.4,0-0.8,0.1-1.8,0.2H72.7c-2.1,0-3.9,1.6-3.9,3.7c-0.1,0.3-0.2,0.5-0.3,0.8
			c-0.4,0.9-0.9,2.1-0.9,3.6v60.6C67.7,246.7,69.4,248.4,71.6,248.4z"/>
		<path class="st0" d="M154.7,266.2c-20,9.1-35.9,23.5-45.7,41c-4.8-8.3-12.3-14.9-21.3-18.4c-2-0.8-4.2,0.2-5,2.2
			c-0.8,2,0.2,4.2,2.2,5c9.5,3.7,17.1,11.7,20.3,21.4c0.5,1.5,1.9,2.6,3.5,2.7h0.2c1.5,0,2.9-0.9,3.6-2.4
			c8.2-19.2,24.4-35,45.4-44.6c1.9-0.9,2.8-3.2,1.9-5.1C158.9,266.2,156.6,265.3,154.7,266.2L154.7,266.2z"/>
		<path class="st0" d="M71.6,342c0.7,0,1.2-0.2,1.7-0.4H135c1.9,0,3.4-1,3.7-2.9c0.2-0.4,0.6-1.1,0.8-2.7v-37.1
			c0-2.1-1.7-3.9-3.9-3.9s-3.9,1.7-3.9,3.9v35H75.4l0-56.2c0-0.2,0.1-0.3,0.2-0.5h47.9c0.6,0,1.2-0.1,1.8-0.2l0.6-0.1
			c2.1-0.1,3.8-2,3.6-4.1c-0.1-2.1-2-3.7-4.1-3.6c-0.4,0-0.8,0.1-1.8,0.2H72.7c-2.1,0-3.9,1.6-3.9,3.7c-0.1,0.3-0.2,0.5-0.3,0.8
			c-0.4,0.9-0.9,2.1-0.9,3.6v60.6C67.7,340.3,69.4,342,71.6,342L71.6,342z"/>
		<path class="st0" d="M154.7,359.8c-20,9.1-35.9,23.5-45.7,41c-4.8-8.3-12.3-14.9-21.3-18.4c-2-0.8-4.2,0.2-5,2.2
			c-0.8,2,0.2,4.2,2.2,5c9.5,3.7,17.1,11.7,20.3,21.4c0.5,1.5,1.9,2.6,3.5,2.7h0.2c1.5,0,2.9-0.9,3.6-2.4
			c8.2-19.2,24.4-35,45.4-44.6c1.9-0.9,2.8-3.2,1.9-5.1C158.9,359.8,156.6,358.9,154.7,359.8L154.7,359.8z"/>
		<path class="st0" d="M71.6,435.6c0.7,0,1.2-0.2,1.7-0.4H135c1.9,0,3.4-1,3.7-2.9c0.2-0.4,0.6-1.1,0.8-2.7v-37.1
			c0-2.1-1.7-3.9-3.9-3.9s-3.9,1.7-3.9,3.9v35H75.4l0-56.2c0-0.2,0.1-0.3,0.2-0.5h47.9c0.6,0,1.2-0.1,1.8-0.2l0.6-0.1
			c2.1-0.1,3.8-2,3.6-4.1c-0.1-2.1-2-3.7-4.1-3.6c-0.4,0-0.8,0.1-1.8,0.2H72.7c-2.1,0-3.9,1.6-3.9,3.7c-0.1,0.3-0.2,0.5-0.3,0.8
			c-0.4,0.9-0.9,2.1-0.9,3.6v60.6C67.7,433.9,69.4,435.6,71.6,435.6L71.6,435.6z"/>
		<path class="st0" d="M193.4,193h248.9c2.1,0,3.9-1.7,3.9-3.9s-1.7-3.9-3.9-3.9H193.4c-2.1,0-3.9,1.7-3.9,3.9S191.2,193,193.4,193z
			"/>
		<path class="st0" d="M189,232.6h133.3c2.1,0,3.9-1.7,3.9-3.9s-1.7-3.9-3.9-3.9H189c-2.1,0-3.9,1.7-3.9,3.9S186.8,232.6,189,232.6
			L189,232.6z"/>
		<path class="st0" d="M442.3,281.9H193.4c-2.1,0-3.9,1.7-3.9,3.9c0,2.1,1.7,3.9,3.9,3.9h248.9c2.1,0,3.9-1.7,3.9-3.9
			C446.2,283.7,444.4,281.9,442.3,281.9z"/>
		<path class="st0" d="M189,329.3h133.3c2.1,0,3.9-1.7,3.9-3.9c0-2.1-1.7-3.9-3.9-3.9H189c-2.1,0-3.9,1.7-3.9,3.9
			C185.1,327.6,186.8,329.3,189,329.3L189,329.3z"/>
		<path class="st0" d="M442.3,375.5H193.4c-2.1,0-3.9,1.7-3.9,3.9s1.7,3.9,3.9,3.9h248.9c2.1,0,3.9-1.7,3.9-3.9
			S444.4,375.5,442.3,375.5z"/>
		<path class="st0" d="M189,422.9h133.3c2.1,0,3.9-1.7,3.9-3.9c0-2.1-1.7-3.9-3.9-3.9H189c-2.1,0-3.9,1.7-3.9,3.9
			C185.1,421.2,186.8,422.9,189,422.9L189,422.9z"/>
		<path class="st0" d="M378.2,113.2l-9.7,9.7c-0.8,0.8-0.8,2,0,2.7c0.8,0.8,2,0.8,2.7,0l9.7-9.7l10,10c0.8,0.8,2,0.8,2.7,0
			c0.8-0.8,0.8-2,0-2.7l-10-10L401,95.9c0.8-0.8,0.8-2,0-2.7c-0.8-0.8-2-0.8-2.7,0l-17.3,17.3l-2.2-2.2c-0.8-0.8-2-0.8-2.7,0
			c-0.8,0.8-0.8,2,0,2.7L378.2,113.2z"/>
	</g>
</g>
</svg>
