<?xml version="1.0"?>
<svg xmlns="http://www.w3.org/2000/svg" xmlns:xlink="http://www.w3.org/1999/xlink" xmlns:svgjs="http://svgjs.com/svgjs" version="1.1" width="512" height="512" x="0" y="0" viewBox="0 0 66 66" style="enable-background:new 0 0 512 512" xml:space="preserve"><g><g xmlns="http://www.w3.org/2000/svg"><path d="m64.682 36.085c.016-.049.014-.099.012-.149.032-.009.064-.013.094-.03.199-.111.271-.363.16-.562-3.386-6.076-6.667-12.171-10.017-18.182-.15-.269-.534-.287-.706-.027-4.048 6.134-7.693 12.614-10.834 19.259-.097.207-.009.453.197.551.057.027.118.04.176.04.065 0 .126-.023.184-.052.355 3.026 2.473 5.852 5.404 7.13 5.756 2.511 12.939-.827 15.33-7.978zm-3.73 4.621-.686-.686.956-.956c.027-.027.058-.05.086-.077l.598.598c-.299.394-.616.77-.954 1.121zm1.208-1.451-.543-.543c.17-.141.344-.276.515-.407.224-.171.449-.352.668-.544l.17.17c-.248.458-.513.905-.81 1.324zm-17.689-3.181c2.952-6.167 6.329-12.19 10.069-17.913 3.215 5.781 6.373 11.639 9.574 17.385-7.085.249-12.741.409-19.48.645-.041-.053-.099-.091-.163-.117zm.313.939c6.4-.224 12.183-.391 18.911-.625-.154.398-.331.784-.52 1.162l-.069-.069c.013-.013.028-.024.041-.037.079-.083.076-.214-.006-.292-.083-.079-.214-.075-.292.006-.011.011-.023.02-.034.031l-.124-.124c-.081-.081-.212-.081-.292 0-.081.081-.081.212 0 .292l.112.112c-.2.173-.407.34-.626.507-.185.141-.373.289-.558.443l-.086-.086c-.081-.081-.212-.081-.292 0-.081.081-.081.212 0 .292l.07.07c-.028.027-.058.049-.086.077l-.956.956-.307-.307c-.081-.081-.212-.081-.292 0-.081.081-.081.212 0 .292l.307.307-.126.126c-.081.081-.081.212 0 .292.081.081.212.081.292 0l.126-.126.687.687c-.595.577-1.244 1.079-1.932 1.503-.009-.018-.008-.039-.023-.055l-.463-.463.942-.942c.081-.081.081-.212 0-.292-.081-.081-.212-.081-.292 0l-.942.942-.7-.7c-.078-.078-.201-.077-.283-.004-.063-.01-.127 0-.175.048l-1.048 1.048-.126-.126c-.081-.081-.212-.081-.292 0-.081.081-.081.212 0 .292l.126.126-1.097 1.097-1.006-1.007.974-.974c.081-.081.081-.212 0-.292-.081-.081-.212-.081-.292 0l-1.009 1.009c-.062-.008-.124.003-.171.05s-.058.11-.05.171l-1.042 1.042-.609-.609c-.081-.081-.212-.081-.292 0-.081.081-.081.212 0 .292l.609.609-.071.067c-.592-.122-1.172-.288-1.719-.526-2.609-1.139-4.517-3.618-4.897-6.292zm11.63 6.507c.014.014.035.012.052.022-.661.211-1.338.35-2.019.424l.033-.033c.009-.006.021-.004.029-.012s.006-.02.012-.029l1.223-1.223.637.637c-.026.073-.026.155.033.214zm-.377-1.143 1.007-1.007.614.614-1.007 1.007zm-3.789 1.588-.199-.199 1.007-1.007 1.006 1.007-.186.186c-.019.019-.019.046-.029.069-.537.028-1.071.004-1.599-.056zm4.762-.616-.067-.067 1.007-1.006.438.438c-.014.008-.027.018-.041.025-.43.241-.88.436-1.337.61z" fill="#707070" data-original="#000000" style=""/><path d="m22.052 36.932c.374.188.719-.195.557-.538-3.141-6.645-6.786-13.124-10.834-19.259-.166-.252-.552-.251-.706.027-3.348 6.009-6.632 12.108-10.016 18.182-.111.199-.04.451.16.562.03.017.062.021.094.03-.002.05-.004.1.012.149 1.664 4.977 5.977 8.782 11.343 8.782 5.473 0 8.936-4.059 9.39-7.935zm-1.223 1.557c0-.053-.02-.105-.06-.146l-.169-.169.468-.468c-.065.265-.146.525-.239.783zm-9.369-20.328c3.741 5.723 7.117 11.745 10.069 17.913-.064.027-.122.064-.164.118-6.745-.236-12.385-.396-19.48-.645 3.202-5.747 6.36-11.605 9.575-17.386zm-1.545 25.498.433-.433.676.676c-.374-.06-.743-.141-1.109-.243zm4.271.261-.846-.846 1.408-1.408.848.848-.734.734c-.081.081-.081.212 0 .292.081.081.212.081.292 0l.734-.734.357.357c.081.081.212.081.292 0 .081-.081.081-.212 0-.292l-.357-.357 1.508-1.507.654.654c.081.081.212.081.292 0 .081-.081.081-.212 0-.292l-.654-.654.625-.625c.081-.081.081-.212 0-.292-.081-.081-.212-.081-.292 0l-.625.625-.334-.334c-.081-.081-.212-.081-.292 0-.081.081-.081.212 0 .292l.334.334-1.508 1.507-.848-.848.982-.982c.081-.081.081-.212 0-.292-.081-.081-.212-.081-.292 0l-2.682 2.682-.814-.814c-.081-.081-.212-.081-.292 0-.081.081-.081.212 0 .292l.814.814-.494.494c-.081.081-.081.212 0 .292.081.081.212.081.292 0l.494-.494.609.609c-.649.066-1.307.071-1.968.007l-1.049-1.048 2.042-2.042c.081-.081.081-.212 0-.292-.081-.081-.212-.081-.292 0l-2.042 2.042c-.223-.222-.518-.642-.727-.434-.081.081-.081.212 0 .292l.434.434-.514.514c-.023.023-.025.055-.035.084-3.412-1.098-5.947-3.893-7.2-7.144 6.728.234 12.519.401 18.911.625-.019.134-.059.264-.085.397-.008-.013-.006-.03-.017-.042-.081-.081-.212-.081-.292 0l-.514.514-.394-.394c-.081-.081-.212-.081-.292 0-.081.081-.081.212 0 .292l.394.394-.754.754c-.081.081-.081.212 0 .292.081.081.212.081.292 0l.754-.754.169.169c.081.081.212.081.292 0 .038-.038.055-.088.057-.138-.227.626-.534 1.225-.914 1.785-.004-.047-.018-.094-.054-.129l-1.025-1.025c-.081-.081-.212-.081-.292 0-.081.081-.081.212 0 .292l1.025 1.025c.04.04.093.061.146.061.024 0 .043-.019.066-.027-1.315 1.827-3.216 3.063-5.593 3.441z" fill="#707070" data-original="#000000" style=""/><path d="m11.873 14.17c3.254.202 4.528-3.195 5.915-4.73 3.134-3.467 8.875-2.442 10.613 1.898.065.16.217.257.379.259-.032 1.735.714 3.154 2.059 3.895.506.28 1.069.439 1.646.493-.03.123-.019 28.29-.019 28.417-3.87.005-7.005 2.673-6.838 8.358.023.827-.028 1.398.05 2.367-4.202.114-4.968.041-5.918.531-.753.386-1.418 1.309-1.167 2.264.271.977 1.288 1.488 3.028 1.517 22.115.127 22.387-.044 23.303-.501.859-.419 1.616-1.392 1.402-2.442-.148-.738-.763-1.365-1.603-1.636-.827-.269-1.363-.212-5.06-.105.211-6.769-3.007-9.895-6.37-10.3 0-.126.011-28.35-.02-28.473 2.576-.202 4.226-2.283 4.34-4.67 1.757-4.319 7.471-5.33 10.6-1.87 1.346 1.49 2.65 4.933 5.915 4.73 3.042-.164 4.031-3.629 2.096-5.082-1.014-.76-2.639-.52-3.292.571-.28.466.425.896.709.425.396-.659 1.454-.807 2.086-.336 1.323.995.619 3.471-1.645 3.595-2.76.137-3.765-2.808-5.257-4.459-3.025-3.348-8.64-3.203-11.355.951-.173-.7-.479-1.335-.914-1.852-1.19-1.416-3.356-1.874-5.04-1.068-1.302.623-2.268 1.997-2.603 3.582-2.36-4.66-8.473-5.224-11.739-1.613-1.47 1.627-2.483 4.588-5.256 4.459-2.262-.124-2.968-2.601-1.645-3.594.634-.477 1.694-.32 2.086.335.284.472.988.04.709-.425-.655-1.091-2.28-1.331-3.292-.572-1.93 1.449-.952 4.916 2.097 5.081zm32.595 41.475c.548.177.959.575 1.047 1.013v.002c.129.631-.396 1.261-.958 1.535-.668.334-1.513.326-2.263.342-7.024 0-13.844.113-20.664.074-.911-.015-2.039-.186-2.239-.906-.133-.506.284-1.075.746-1.313.862-.443 1.205-.316 12.514-.624 2.201-.061 4.399-.121 6.601-.176 2.634-.088 4.387-.215 5.216.053zm-15.187-1.557.917.918c-.603.016-1.206.032-1.81.048-.009-.014-.006-.032-.018-.045l-.005-.005zm4.471-1.45.644.644-1.243 1.243c-.081.081-.081.212 0 .292.081.081.212.081.292 0l1.243-1.243 1.277 1.277c-1.038.028-2.076.055-3.115.083.019-.069.015-.143-.039-.198l-.579-.579zm1.229.644.856-.856 1.067 1.067-.856.856zm-2.546 1.664c-.339.009-.679.018-1.018.027l.522-.523zm6.407-.171c-.769.019-1.538.041-2.307.062l-.195-.195.856-.856.295.295c.081.081.212.081.292 0 .081-.081.081-.212 0-.292l-.295-.295.398-.398c.081-.081.081-.212 0-.292-.081-.081-.212-.081-.292 0l-.398.398-1.067-1.067.179-.179c.081-.081.081-.212 0-.292-.081-.081-.212-.081-.292 0l-.179.179-.518-.518c-.081-.081-.212-.081-.292 0-.081.081-.081.212 0 .292l.518.518-.856.856-.7-.7c-.047-.047-.109-.058-.171-.05-.081-.059-.191-.061-.264.012l-1.614 1.614-.73-.73c-.081-.081-.212-.081-.292 0-.081.081-.081.212 0 .292l.73.73-.831.831c-.107.003-.214.006-.321.009.073-.081.074-.205-.004-.283l-.919-.919 1.601-1.601c.081-.081.081-.212 0-.292-.081-.081-.212-.081-.292 0l-2.81 2.81-.428-.428c-.081-.081-.212-.081-.292 0-.081.081-.081.212 0 .292l.428.428-.068.068c-.404.011-.806.022-1.21.032-.076-.901-.026-1.541-.048-2.368-.066-2.229.32-3.863 1.214-5.144 2.8-4.015 11.544-3.757 11.174 7.181zm-5.711-41.756.789.79-.869.869-.79-.79zm.186 1.978.895-.895.586.586c-.465.264-.982.427-1.506.48.038-.053.043-.112.025-.171zm-.53.001c-.018.065-.012.13.034.184-.471-.012-.931-.118-1.354-.311.001-.049-.02-.095-.054-.135l.557-.556zm3.376-6.148c.106.162.202.332.282.513l-.396-.396c.008-.005.018-.01.025-.015.044-.021.07-.061.089-.102zm-4.289-1.187c1.333-.638 3.112-.262 4.05.854.016.019.028.042.044.061-.027.002-.054-.007-.08.007-.003.002-.036.022-.056.035-.032.007-.059.025-.085.046l-.095-.096c-.081-.081-.212-.081-.292 0-.081.081-.081.212 0 .292l.091.091-.249.25c-.081.081-.081.212 0 .292.081.081.212.081.292 0l.249-.25.857.857c.025.025.059.028.091.038.355 1.609-.213 3.339-1.542 4.313l-.644-.644.857-.857c.081-.081.081-.212 0-.292-.081-.081-.212-.081-.292 0l-.857.857-.789-.79.309-.308c.081-.081.081-.212 0-.292-.081-.081-.212-.081-.292 0l-1.47 1.47-.382-.382c-.081-.081-.212-.081-.292 0-.081.081-.081.212 0 .292l.382.382-.552.552-.54-.54c-.081-.081-.212-.081-.292 0-.007.007-.005.019-.011.027-.462-.623-.704-1.437-.677-2.368.048-1.706.959-3.272 2.267-3.897z" fill="#707070" data-original="#000000" style=""/><path d="m36.753 49.355-.156.156c-.081.081-.081.212 0 .292.081.081.212.081.292 0l.156-.156.794.794c.012.012.03.01.045.019l-.416.416-.579-.579c-.081-.081-.212-.081-.292 0-.081.081-.081.212 0 .292l.579.579-.458.458c-.081.081-.081.212 0 .292.081.081.212.081.292 0l.458-.458.761.761c.081.081.212.081.292 0 .081-.081.081-.212 0-.292l-.761-.761.531-.531c.081-.081.081-.212 0-.292-.028-.028-.066-.034-.103-.043.002-.055-.016-.111-.058-.153l-.794-.794.279-.279c.081-.081.081-.212 0-.292-.081-.081-.212-.081-.292 0l-.279.279-.277-.277c-.081-.081-.212-.081-.292 0-.081.081-.081.212 0 .292z" fill="#707070" data-original="#000000" style=""/><path d="m34.825 11.753c-.067.081-.069.2.007.276l1.137 1.138c.04.04.093.061.146.061s.106-.02.146-.061c.081-.081.081-.212 0-.292l-1.137-1.138c-.025-.025-.06-.029-.092-.038l.816-.816.357.357c.192.192.487-.097.292-.292l-.357-.357.118-.118c.081-.081.081-.212 0-.292-.081-.081-.212-.081-.292 0l-.118.118c-.218-.218-.495-.613-.7-.408-.081.081-.081.212 0 .292l.408.408-.83.83c-.081.081-.081.212 0 .292.028.026.064.031.099.04z" fill="#707070" data-original="#000000" style=""/></g></g></svg>
