<?xml version="1.0" encoding="utf-8"?>
<!-- Generator: Adobe Illustrator 25.0.0, SVG Export Plug-In . SVG Version: 6.00 Build 0)  -->
<svg version="1.1" id="Layer_1" xmlns:svgjs="http://svgjs.com/svgjs"
	 xmlns="http://www.w3.org/2000/svg" xmlns:xlink="http://www.w3.org/1999/xlink" x="0px" y="0px" viewBox="0 0 512 512"
	 style="enable-background:new 0 0 512 512;" xml:space="preserve">
<style type="text/css">
	.st0{fill:#F64E60;}
</style>
<g>
	<g>
		<path class="st0" d="M71.7,152.6l-0.5,0.5c-0.8,0.8-0.8,2,0,2.7c0.2,0.2,0.4,0.2,0.7,0.3c1.9,44.5,4.5,112.9,4.1,144L75,380
			c-0.4,31.4,7.9,48.8,48.3,49.8c0,0,212-0.4,259.4,0c44.8,0,54.7-15.3,54.2-49.8c-1.8-145.1,4.3-254.7,5.2-265
			c1.7-18.5-9.2-40.3-29.7-49c0.5-0.7,0.5-1.7-0.2-2.4c-0.8-0.8-2-0.8-2.7,0l-0.9,0.9c-12.5-4.3-26.3-4.4-37.8-4.4H141
			c-17.7,0-35.5,0.4-50,10.5c-1.1,0-1.3,0.4-1.6,1c-13.1,10-21.1,27.2-19.6,43.3C70,117.1,70.7,131.9,71.7,152.6L71.7,152.6z
			 M82.7,380.1l0.1-4.1l5.1,5.1l-5.1,5.1C82.7,384.1,82.7,382.1,82.7,380.1z M83.1,354.3l5.7,5.7l-5.8,5.8L83.1,354.3z M83.4,323
			l7.5,7.5l-7.7,7.7L83.4,323z M83.7,300.2c0-3.1,0-6.6,0-10.4l12.4,12.5l-12.7,12.7L83.7,300.2z M87.7,288.3l-4-4
			c-0.1-5.4-0.1-11.2-0.3-17.4l4.5-4.5l12.5,12.5c0.1,0.1,0.1,0,0.2,0.1l-12.8,12.8C87.7,287.9,87.7,288.1,87.7,288.3z M83.3,261.5
			c0-1.3-0.1-2.6-0.1-3.9l2,2L83.3,261.5z M82.1,220.4l8.8,8.8l-8.3,8.3C82.5,231.9,82.3,226.2,82.1,220.4z M83,215.8l-1.1-1.1
			c-0.2-6.9-0.5-13.8-0.8-20.6c0.1,0,0.1,0.1,0.2,0.1c0.5,0,1-0.2,1.4-0.6l3-3c0.9,0.9,10,10.4,11.2,10.4c0.1,0,0.1-0.1,0.2-0.1
			l-13.7,13.7C83.2,215,83,215.4,83,215.8z M81,189.9c-0.1-1.4-0.1-2.8-0.2-4.2l2.2,2.2L81,189.9z M79.3,150.4l2-2l9.6,9.6
			l-10.8,10.8C79.8,162.3,79.6,156.1,79.3,150.4L79.3,150.4z M78.9,140.4C78.4,130,78,122,77.7,117.7l5.4-5.4l14.4,14.4l-16.2,16.2
			L78.9,140.4z M77.5,112.4c-0.1-1.8,0-3.6,0.2-5.5l2.6,2.6L77.5,112.4z M391.5,81.7l-9.6-9.6l2-2c0.5-0.5,0.6-1.3,0.3-1.9
			c4.9,0.2,9.8,0.7,14.5,1.7v4.6L391.5,81.7z M379.2,69.4l-1.4-1.4c0.9,0,1.9,0,2.8,0L379.2,69.4z M372.7,68
			c0.1,0.3,0.1,0.5,0.3,0.7l3.5,3.5l-14,14c-0.8,0.8-0.8,2,0,2.7c0.8,0.8,2,0.8,2.7,0l14-14l9.6,9.6l-1.7,1.7c-0.8,0.8-0.8,2,0,2.7
			c0.8,0.8,2,0.8,2.7,0l9-9v9.4c0,1.1,0.9,1.9,1.9,1.9s1.9-0.9,1.9-1.9V76l4-4c19.9,7.1,29.2,27.1,27.8,42.2
			c-0.7,7.8-7.2,110.7-5.3,265.8c0.4,29.3-5.3,41.9-46.4,41.9c-38.4-0.4-263.4-0.1-259.3,0c-24.8-0.6-38.9-6.9-40.5-30.6l7.6-7.6
			l1.6,1.6c0.8,0.8,2,0.8,2.7,0c0.8-0.8,0.8-2,0-2.7l-1.6-1.6l16.8-16.8c0.8-0.8,0.8-2,0-2.7c-0.8-0.8-2-0.8-2.7,0l-16.8,16.8
			l-7.7-7.7l0-0.4c0.1,0,0.1,0.1,0.2,0.1c0.5,0,1-0.2,1.4-0.6l7-7l3.2,3.2c0.8,0.8,2,0.8,2.7,0c0.8-0.8,0.8-2,0-2.7l-3.2-3.2
			l19.5-19.5c0.8-0.8,0.8-2,0-2.7c-0.8-0.8-2-0.8-2.7,0l-19.5,19.5l-8.3-8.3l0.1-5.2l10.5-10.5l6.4,6.4c0.8,0.8,2,0.8,2.7,0
			c0.8-0.8,0.8-2,0-2.7l-6.4-6.4l19.9-19.9c0.8-0.8,0.8-2,0-2.7c-0.8-0.8-2-0.8-2.7,0l-19.9,19.9L85,319l14-14l2.6,2.6
			c0.8,0.8,2,0.7,2.7,0c0.8-0.8,0.8-2,0-2.7l-2.6-2.6l19.6-19.6c0.8-0.8,0.8-2,0-2.7c-0.8-0.8-2-0.8-2.7,0l-19.6,19.6l-8.9-8.9
			c0.2-0.1,0.4-0.1,0.6-0.2L114,267c0.8-0.8,0.8-2,0-2.7c-0.8-0.8-2-0.8-2.7,0l-8,8c0-0.1,0-0.1-0.1-0.2l-12.5-12.5l19.1-19.1
			c0.8-0.8,0.8-2,0-2.7s-2-0.8-2.7,0l-19.1,19.1l-4.9-4.9c-0.1-3-0.2-6.1-0.3-9.2l10.8-10.8l2.3,2.3c0.8,0.8,2,0.8,2.7,0
			c0.8-0.8,0.8-2,0-2.7l-2.3-2.3l16.2-16.2c0.8-0.8,0.8-2,0-2.7s-2-0.8-2.7,0l-16.2,16.2l-8.6-8.6c0.4,0,0.8-0.2,1.2-0.5l23.5-23.5
			c0.8-0.8,0.8-2,0-2.7s-2-0.8-2.7,0l-8.2,8.2c0.1-0.6,0-1.1-0.5-1.6l-9.9-9.9l14.8-14.8c0.8-0.8,0.8-2,0-2.7c-0.8-0.8-2-0.8-2.7,0
			l-14.8,14.8l-5.2-5.2c-0.1-2-0.2-4-0.2-6l13.3-13.3L99,166c0.8,0.8,2,0.8,2.7,0c0.8-0.8,0.8-2,0-2.7l-5.3-5.3l7.8-7.8
			c0.8-0.8,0.8-2,0-2.7s-2-0.8-2.7,0l-7.8,7.8l-9.6-9.6l16.2-16.2l1.9,1.9c0.8,0.8,2,0.8,2.7,0c0.8-0.8,0.8-2,0-2.7l-1.9-1.9
			l9.8-9.8c0.8-0.8,0.8-2,0-2.7s-2-0.8-2.7,0l-9.8,9.8l-14.4-14.4l19.7-19.7l6.1,6.1l-10.5,10.5c-0.8,0.8-0.8,2,0,2.7
			c0.8,0.8,2,0.8,2.7,0l10.5-10.5l6.2,6.2c0.8,0.8,2,0.8,2.7,0c0.8-0.8,0.8-2,0-2.7l-6.2-6.2l9-9c0.8-0.8,0.8-2,0-2.7
			c-0.8-0.8-2-0.8-2.7,0l-9,9l-6.8-6.8c-0.1-0.3-0.1-0.7-0.4-0.9c-0.2-0.2-0.6-0.3-0.9-0.4l-6.4-6.4l7.4-7.4
			c7.4-2.3,15.4-3.1,23.2-3.3c-0.5,0-0.9,0.2-1.3,0.5c-0.8,0.8-0.8,2,0,2.7l13.6,13.6l-3,3c-0.8,0.8-0.8,2,0,2.7
			c0.8,0.8,2,0.8,2.7,0l3-3l6.6,6.6c0.8,0.8,2,0.8,2.7,0c0.8-0.8,0.8-2,0-2.7l-6.6-6.6l17-17h2.8l9.9,9.9l-3,3c-0.8,0.8-0.8,2,0,2.7
			c0.8,0.8,2,0.7,2.7,0l3-3l10.1,10.1c0.8,0.8,2,0.8,2.7,0c0.8-0.8,0.8-2,0-2.7l-10.1-10.1l8.8-8.8c0.3-0.3,0.4-0.7,0.5-1.1h18.9
			l-12.1,12.1c-0.8,0.8-0.8,2,0,2.7c0.8,0.8,2,0.8,2.7,0l14.5-14.5l6.5,6.5l-8.8,8.8c-0.8,0.8-0.8,2,0,2.7c0.8,0.8,2,0.8,2.7,0
			l8.8-8.8l6.1,6.1c0.8,0.8,2,0.8,2.7,0s0.8-2,0-2.7l-6.1-6.1l2.7-2.7c0.8-0.8,0.8-2,0-2.7s-2-0.8-2.7,0l-2.7,2.7l-4.1-4.1h38.5
			l9.9,9.9l-7.4,7.4c-0.8,0.8-0.8,2,0,2.7c0.8,0.8,2,0.8,2.7,0l7.4-7.4l6.2,6.2c0.8,0.8,2,0.8,2.7,0c0.8-0.8,0.8-2,0-2.7l-6.2-6.2
			l5.4-5.4c0.8-0.8,0.8-2,0-2.7c-0.8-0.8-2-0.8-2.7,0l-5.4,5.4l-7.2-7.2h27.1l3.8,3.8l-13.6,13.6c-0.8,0.8-0.8,2,0,2.7
			c0.8,0.8,2,0.8,2.7,0l13.6-13.6L312,86.8c-0.3,0.7-0.3,1.5,0.3,2c0.8,0.8,2,0.8,2.7,0l18.5-18.5c0.6-0.6,0.6-1.7,0-2.4h20.7
			l-6.7,6.7l-5.2-5.2c-0.8-0.8-2-0.8-2.7,0c-0.8,0.8-0.8,2,0,2.7l5.2,5.2l-8.7,8.8c-0.8,0.8-0.8,2,0,2.7c0.8,0.8,2,0.8,2.7,0
			l8.7-8.8l12.9,12.9c0.8,0.8,2,0.8,2.7,0c0.8-0.8,0.8-2,0-2.7l-12.9-12.9l9.5-9.5h11.2C371.5,67.9,372.1,68,372.7,68L372.7,68z
			 M97.2,76L97.2,76c0.1-0.2,0.2-0.3,0.3-0.3L97.2,76z M173.6,67.9H188l-7.2,7.2L173.6,67.9z M314.5,83.9l-12.2-12.2l2.1-2.1
			c0.4-0.4,0.5-1,0.5-1.6h25.6L314.5,83.9z M299.6,69l-1-1h2.1L299.6,69z M159.8,67.9l-14.2,14.2L132,68.6c-0.4-0.4-0.8-0.5-1.3-0.5
			c3.5-0.1,7-0.1,10.3-0.1H159.8z M93.8,78.1l0.6,0.6c-2,2-5.8,4.7-3.9,6.7c0.4,0.4,0.9,0.6,1.4,0.6c1.2,0,4.4-3.6,5.3-4.5l5.6,5.6
			l-19.7,19.7l-4.6-4.6C80.8,92.9,86.3,84,93.8,78.1z"/>
		<path class="st0" d="M23.8,419c-0.5,39.3,10.1,60.7,56.8,62.8c-1.2,15.8,11.2,22.6,64.6,22.6c30,0,58.4-0.4,55.4-22.6
			c37.7-0.1,79-0.1,116.3,0c-1.4,18.5,16.1,22.7,64.6,22.7c31.8,0,58.6-0.8,55.3-23c47.2-3.8,51.7-31.5,51.3-62.5
			c-2.3-188,5.5-328.8,6.7-341.7c0,0,0,0,0,0c2.1-23.1-11.3-48.1-32-59.4c-18.4-10-40.8-10-58.7-10c-328.2,0-330.5-3.4-355.1,10
			C28.4,29.2,15,54.2,17.1,77.3C17.9,85.1,26.3,216.6,23.8,419L23.8,419z M190.8,490.7c-7.8,8.2-93.1,8-100.8-1.6
			c-1.4-1.7-2-4.1-1.7-7.1c0,0,34.6-0.2,104.5-0.2C193.6,485.1,192.9,488.6,190.8,490.7L190.8,490.7z M427.1,490.7
			c-7.7,8.1-93,8.1-100.8-1.6c-1.4-1.8-2-4.3-1.6-7.3c2.1,0,102.4,0.2,104.5,0.1C429.9,485.2,429.1,488.6,427.1,490.7L427.1,490.7z
			 M52.8,24.8c22.2-12.1,19.8-9.1,351.4-9.1c18,0,38.4,0,55,9.1c17.8,9.7,29.8,32,28,51.9c-0.7,7.8-9.3,139.9-6.8,342.5
			c0.4,28.6-1.8,52.6-48.7,55c-1.7,0.1-233.8,0-236.1,0c-50.5,0-110.4,0.2-110.4,0.2c-47.1-1.1-54.1-19.7-53.6-55.1
			c2.3-188-5.5-329.5-6.7-342.5C23,56.7,35,34.4,52.8,24.8L52.8,24.8z"/>
		<path class="st0" d="M299.7,304.1c1.1-4,1.5-8,1.2-11.8l35.2-19.2c4.9-2.7,11.1-6,15.2-11.4c0,0,0,0,0,0c7.1-9.4,6-21-5.2-21.4
			c-7.7-0.2-22,7.7-28.7,11.3l-0.7,0.4c-10.3,5.6-20.5,11.5-30.7,17.3c-3.7-2.4-8-4.2-12.5-5.4c-0.9-18-1.2-35.4-1.4-53.8l0-3.6
			c-0.3-18-14.9-17.6-19.8-8.4c-3,6.1-2,13-2.8,65.9c-6.1,1.8-9.4,3.7-12.6,6.4c-16.7-8.6-32.4-17.5-48.7-26.7
			c-18.2-10-27.4,9-8.8,20c20.1,12,33.4,20.1,46.3,27.8c-0.4,4.5,0.1,9.2,1.4,13.6c-15.1,9.5-30,18.2-45.7,27.4l-3.4,2
			c-8.4,4.9-9.4,10-8.8,13.4c1,5.2,6.3,7.9,10.8,7.9h0.2c6.6-0.3,10.9-3.9,60.1-30.7c2.5,1.9,5.2,3.2,8,4.4
			c-0.8,51.3-1.6,55.8,1.8,63.7c1.9,4.7,6.9,11.2,12.8,11.2c0.8,0,1.6-0.1,2.4-0.4c2.4-0.7,4.5-2.4,6-4.8c5.9-9.6,4.3-45.4,4.2-69.2
			c2.7-1,5.2-2.4,7.7-4l37.9,22.7c12.1,7.3,28.2,12.3,34.6-0.5C358.2,337.6,345.9,330.3,299.7,304.1L299.7,304.1z M320.4,258.8
			l0.7-0.4c4.1-2.2,23.4-13,26.7-9.8c0.9,0.9-0.3,5.2-2.7,8.3c-3.1,4.1-8.3,6.9-12.8,9.3L299,284.5c-1.5-3.7-4.1-7.5-6.5-10
			C301.8,269.2,311,264,320.4,258.8L320.4,258.8z M262.3,199.8c1.2,0.4,2,3,2.1,6.9l0,3.5c0.2,17.9,0.4,34.9,1.3,52.3
			c-2.9-0.3-5.9-0.2-8.3,0C257.8,226.7,256.1,197.8,262.3,199.8L262.3,199.8z M183.4,257.1c-9.1-5.4-8.7-11.9,1-6.5l5.6,3.1
			c14,7.9,27.3,15.4,41.3,22.6c-1.6,2.2-2.9,4.5-3.9,7.2C217.3,277.4,214.2,275.5,183.4,257.1L183.4,257.1z M180.2,348.1
			c-1.7,0.1-3.1-0.9-3.2-1.6c-0.2-1.3,1.7-3.3,5-5.2l3.4-2c15.2-8.9,29.6-17.2,44.7-26.7c1.1,2.1,3,5.1,4.6,7
			C231.5,321.2,183.7,347.9,180.2,348.1L180.2,348.1z M261.2,270.1c2.3,0,4.7,0.2,7,0.6c0.1,0,0.3,0.1,0.5,0.1
			c0.2,0,0.4,0.1,0.4,0.1c16.8,3.2,28.4,16,22.7,32.6c0,0,0,0.2,0,0.2c-0.2,0.3-0.3,0.5-0.4,0.8c-3.1,8.5-10.2,15.9-20.6,19.1
			C231.5,334.4,215.1,270.3,261.2,270.1L261.2,270.1z M263.3,396.6c-1.2,0.4-4.4-2.9-5.8-6.4c-3.2-7.4-1.8-18.9-1.2-58.4
			c3.8,0.6,8.1,0.7,11.8,0.2C268.2,344.4,269.9,394.7,263.3,396.6L263.3,396.6z M339.8,348.5c-7.8-1-15.1-6.7-49.9-27.5
			c2.3-2.3,5.3-6.4,6.9-9.6c11.5,6.5,52.9,28.5,51.5,35.3C348,347.8,343.5,348.9,339.8,348.5L339.8,348.5z"/>
		<path class="st0" d="M245.5,86.3l14.2-14.2c0.8-0.8,0.8-2,0-2.7c-0.8-0.8-2-0.8-2.7,0l-14.2,14.2c-0.8,0.8-0.8,2,0,2.7
			C243.5,87,244.7,87.1,245.5,86.3L245.5,86.3z"/>
	</g>
</g>
</svg>
