<svg id="Layer_1" enable-background="new 0 0 66 66" height="512" viewBox="0 0 66 66" width="512" xmlns="http://www.w3.org/2000/svg"><path d="m59.335 23.598c-1.636-2.117-4.054-3.1-6.697-2.781-.022-7.808.098-8.759-.493-10.257-.553-1.401-1.721-2.368-2.977-2.465-1.827-.145-3.192 1.419-4.193 2.558-3.837 4.353-8.552 7.623-13.754 9.78-.643-2.09-1.887-2.206-4.951-1.959-1.133.094-.361.073-7.287.039-3.199-.021-5.663.299-7.291 3.06-4.791-.376-7.982 4.568-6.274 9.524.862 2.482 2.844 4.337 5.637 3.858 1.072 1.716 2.553 2.364 4.537 2.582.318 2.399.585 4.84.841 7.207.118 1.096.236 2.191.36 3.287.075.659.156 1.351.283 2.045-.059.096-.062.218.022.301.012.012.03.009.043.018.542 2.635 1.671 4.437 5.066 6.147 6.724 3.343 10.756-.1 11.246-3.117.443-2.697-1.441-4.96-3.159-6.822-1.329-1.433-2.703-2.916-3.053-4.731-.233-1.244.023-2.535.295-3.902.035-.177.069-.354.103-.531.595-.205 1.145-.474 1.618-.84.323-.251.604-.548.867-.875 5.505 1.872 10.46 5.119 14.336 9.406l.293.327c.683.764 1.389 1.553 2.309 2.116.614.37 1.423.658 2.246.658.516 0 1.036-.113 1.518-.39 1.682-.945 1.885-3.125 1.875-4.919 0-2.084-.01-4.168-.019-6.252.091.003.183.014.274.014 1.299 0 2.594-.31 3.717-.897 4.051-2.135 6.034-7.822 2.662-12.189zm-6.658 11.528c-.001-.525-.003-1.05-.004-1.576l.79.79zm-.01-3.806.603.602-.599.599c-.002-.4-.004-.8-.004-1.201zm.278-.429c-.077-.077-.187-.076-.279-.031 0-.219-.001-.438-.002-.656l.556-.556 1.052 1.052c.043.043.099.059.155.064l-.804.804zm-.283-1.392c0-.137-.001-.273-.001-.41l.205.205zm-.009-3.23.543.535-.54.54c-.001-.358-.002-.716-.003-1.075zm-12.407-9.891.203.203-1.046 1.046-.355-.355c.407-.287.802-.592 1.198-.894zm-3.401 2.328.302.302-1.002 1.002-.574-.574c.428-.238.855-.476 1.274-.73zm-5.892 8.568-.641-.641.586-.586c.025.409.045.819.055 1.227zm.368 6.13c.012-.037.028-.07.039-.108l.232.232-.478.478c.077-.19.142-.397.207-.602zm.277-.577c-.024-.024-.058-.024-.088-.036.08-.32.216-1.031.292-1.676l1.102 1.102-.958.958zm.28-2.514c.008-.11.024-.207.03-.319.06-1 .051-1.348.05-2.003l1.121 1.121zm-.123-5.982.29.29c.012.025.01.054.031.074.021.021.049.019.074.031l1.127 1.127-1.325 1.325c-.025-.945-.093-1.895-.197-2.847zm-.069-.699c-.065-.731-.103-1.371-.222-2.131-.003-.016-.004-.032-.006-.048l1.754 1.754-.937.937c-.113-.112-.445-.483-.589-.512zm1.248-1.409.937-.937.63.631-.937.937zm-.353-.354-.648-.648c.435-.185.863-.382 1.291-.583l.294.294zm-26.219 8.902c-1.375-3.99.848-8.21 4.861-8.224-1.032 2.46-1.564 7.468-1.167 9.792.102.591.295 1.151.525 1.681-2.103.206-3.55-1.324-4.219-3.249zm10.21 3.544 1.358 1.358-.966.966c-.223-.012-.447-.026-.67-.041.195-.093.181-.279.075-.385l-.847-.847zm6.006 2.051-1.22-1.22 1.49-1.49 1.402 1.402-.92.92c-.098.098-.098.256 0 .354s.256.098.353 0l.92-.92 1.007 1.007c.098.098.256.098.354 0 .017-.016.014-.04.025-.06.021-.011.047-.009.065-.027l1.447-1.447.974.974c.014.014.035.011.052.021-.431.313-.908.552-1.472.714-1.714.521-3.594.338-7.736.155.009-.007.022-.004.03-.012.047-.047.069-.109.071-.171.011.041.016.084.048.117.098.098.256.098.354 0l1.184-1.184 1.22 1.22c.231.233.586-.118.352-.353zm4.569-1.834-1.358 1.358-.832-.831 1.358-1.358zm-.478-1.185 1.007-1.007.831.832-1.007 1.007zm-2.066 1.358-1.402-1.402 1.358-1.358 1.402 1.402zm-2.073 3.192c.046.002.093.004.139.006.274.011.546.019.817.025l-.463.463-.494-.493c.001.001.001 0 .001-.001zm-.65-.029-.744.744-.814-.815c.519.023 1.039.046 1.558.071zm-2.413-1.538c-.047.047-.069.109-.071.171-.011-.041-.016-.084-.048-.117l-.711-.711 1.27-1.27.744.743zm-.475.406c-.452-.02-.904-.042-1.356-.062l.647-.647zm-1.982 3.02c.098.098.256.098.354 0l.789-.789.7.7-1.139 1.139-.809-.809c-.094-.792-.185-1.584-.288-2.373.068.004.136.007.204.011l.979.979-.789.789c-.099.097-.099.255-.001.353zm.175 1.931c.098.098.256.098.354 0l.175-.175.875.875-1.139 1.139-.163-.163c-.093-.852-.187-1.702-.286-2.563l.358.358-.175.174c-.097.099-.097.257.001.355zm.735 7.313c-.05-.367-.093-.73-.133-1.082-.019-.168-.037-.337-.056-.506l.989.989-.7.7zm-.276-2.382c-.073-.66-.146-1.32-.217-1.981-.013-.124-.028-.252-.041-.377.021-.011.046-.009.064-.027l1.359 1.359-1.095 1.095zm-1.629-10.051c.01.01.026.007.037.016-.457-.039-.979-.108-1.503-.245l.618-.618zm13.546 10.716c1.491 1.616 3.283 3.681 2.906 5.98v.001c-.366 2.256-3.6 5.472-9.811 2.383-3.163-1.592-4.129-3.167-4.604-5.81l.38.38c.098.098.256.098.354 0s.098-.256 0-.354l-.41-.41.929-.929c.098-.098.098-.256 0-.354-.049-.049-.113-.073-.177-.073l-1.059-1.059 1.945-1.944c.098-.098.098-.256 0-.354s-.256-.098-.353 0l-.496.496-1.358-1.358 1.139-1.139.507.507c.098.098.256.098.353 0 .098-.098.098-.256 0-.354l-.507-.507.351-.351c.098-.098.098-.256 0-.354s-.256-.098-.354 0l-.351.351-.875-.875 1.139-1.138.584.584c.098.098.256.098.354 0s.098-.256 0-.354l-.584-.584.088-.088c.098-.098.098-.256 0-.354s-.256-.098-.353 0l-.088.088-.7-.7.399-.399c.098-.098.098-.256 0-.354-.236-.236-.508.154-.753.399l-.589-.589c.673.029 1.345.062 2.018.092l1.202 1.202-.438.438c-.098.098-.098.256 0 .354s.256.098.353 0l.438-.438.307.307c.098.098.256.098.354 0s.098-.256 0-.354l-.307-.307.7-.7.48.48-.13.131c-.098.098-.098.256 0 .354s.256.098.354 0l.131-.131.221.222c.098.098.256.098.354 0s.098-.256 0-.354l-.222-.222.7-.7.173.173-.218.218c-.098.098-.098.256 0 .354s.256.098.354 0l.218-.218.272.272c.098.098.256.098.354 0s.098-.256 0-.354l-.272-.272.319-.319c.453-.03.859-.073 1.283-.154h.002c-.002.01-.004.019-.006.029-.278 1.4-.566 2.847-.296 4.284.398 2.103 1.871 3.692 3.296 5.229zm-.692-11.679c-.012-.034-.013-.071-.04-.097l-.974-.974 1.007-1.007.449.449c.098.098.256.098.354 0s.098-.256 0-.354l-.449-.449 1.449-1.449c.098-.098.098-.256 0-.354s-.256-.098-.354 0l-1.449 1.449-.832-.832.494-.494c.098-.098.098-.256 0-.353-.098-.098-.256-.098-.353 0l-.494.494-1.096-1.096c-.098-.098-.256-.098-.354 0s-.098.256 0 .354l1.096 1.096-1.007 1.007-1.402-1.402.27-.27c.098-.098.098-.256 0-.354s-.256-.098-.354 0l-.27.27-.438-.438c-.098-.098-.256-.098-.353 0-.098.098-.098.256 0 .354l.438.438-1.358 1.358-.745-.745c-.098-.098-.256-.098-.354 0s-.098.256 0 .354l.745.745-1.49 1.49-.743-.743 1.02-1.02c.098-.098.098-.256 0-.354s-.256-.098-.354 0l-1.02 1.02-.087-.087c-.098-.098-.256-.098-.354 0s-.098.256 0 .354l.087.087-1.27 1.27-1.358-1.358 1.44-1.44c.098-.098.098-.256 0-.354s-.256-.098-.354 0l-2.845 2.845-.438-.438c-.098-.098-.256-.098-.354 0s-.098.256 0 .354l.438.438-.805.805c-1.737-.646-2.667-2.271-2.967-4.002-.376-2.204.166-7.583 1.359-9.841 1.387-2.622 3.629-2.827 6.576-2.814 6.924.034 6.199.053 7.373-.042 3.212-.265 3.671-.045 4.05 1.753.158.768.419 3.652.475 4.411-.096-.056-.215-.059-.297.023l-.62.62-.306-.306c-.098-.098-.256-.098-.354 0s-.098.256 0 .354l.306.306-.306.306c-.098.098-.098.256 0 .354s.256.098.354 0l.306-.306 1.001 1.002c.001.639.012.946-.049 1.946v.002c-.013.233-.045.434-.065.654l-1.105-1.105 1.097-1.096c.098-.098.098-.256 0-.354s-.256-.098-.354 0l-1.097 1.096-.174-.174c-.098-.098-.256-.098-.354 0s-.098.256 0 .354l.174.174-.174.174c-.098.098-.098.256 0 .354s.256.098.354 0l.174-.174 1.394 1.394c-.01.072-.012.156-.023.227-.231 1.55-.729 3.1-1.887 4.141zm22.831 7.323c.009 1.52-.138 3.352-1.37 4.043-.878.506-2.032.178-2.75-.253-.792-.485-1.419-1.186-2.083-1.928l-.297-.331c-3.921-4.336-8.915-7.644-14.484-9.591.025-.046.043-.101.068-.147.046.038.1.065.156.065.064 0 .128-.024.177-.073l.829-.829.741.741c.098.098.256.098.354 0s.098-.256 0-.354l-.741-.742.958-.958.453.453c.098.098.256.098.354 0s.098-.256 0-.354l-.453-.453.94-.941c.098-.098.098-.256 0-.354s-.256-.098-.354 0l-.94.94-1.112-1.111 1.287-1.287.122.122c.098.098.256.098.354 0s.098-.256 0-.354l-.122-.122 1.311-1.311c.098-.098.098-.256 0-.353-.098-.098-.256-.098-.354 0l-1.311 1.311-1.194-1.194c.019-.011.043-.008.059-.024l1.332-1.332.258.257c.098.098.256.098.354 0s.098-.256 0-.354l-.258-.258 1.435-1.435c.098-.098.098-.256 0-.354s-.256-.098-.353 0l-1.435 1.435-1.003-1.002.937-.937.002.002c.098.098.256.098.354 0s.098-.256 0-.354l-.002-.002.937-.937.401.401c.098.098.256.098.354 0s.098-.256 0-.354l-.521-.521c-.012-.027-.011-.058-.033-.08s-.053-.021-.08-.033l-.751-.751.41-.41c.098-.098.098-.256 0-.354s-.256-.098-.353 0l-.41.411-.161-.161c.475-.231.937-.484 1.402-.734l.679.679-.304.304c-.098.098-.098.256 0 .354s.256.098.354 0l.304-.304.572.572c.098.098.256.098.354 0s.098-.256 0-.354l-.572-.572 1.002-1.002.694.694c.098.098.256.098.354 0s.098-.256 0-.354l-.694-.694.876-.876c.098-.098.098-.256 0-.354s-.256-.098-.353 0l-.876.876-.224-.224c.455-.284.913-.564 1.356-.867l.417.417-.151.151c-.098.098-.098.256 0 .354s.256.098.354 0l.151-.151.55.55c.098.098.256.098.354 0s.098-.256 0-.354l-.55-.55 1.046-1.046.348.348c.098.098.256.098.354 0s.098-.256 0-.353l-.385-.385c.019-.081.011-.165-.052-.229-.063-.063-.148-.07-.229-.052l-.189-.188c.128-.1.264-.189.391-.292.389-.312.771-.633 1.148-.961l.381.381-1.179 1.179c-.098.098-.098.256 0 .354s.256.098.354 0l1.196-1.196c.1.057.191.079.294-.024.081-.081.079-.199.025-.294l.457-.457c.098-.098.098-.256 0-.354s-.256-.098-.354 0l-.44.44-.361-.361c1.113-.994 2.175-2.054 3.162-3.175.911-1.035 2.043-2.318 3.366-2.221.997.077 1.785.977 2.123 1.835.504 1.278.402 2.011.425 10.458.02 4.919.03 9.839.04 14.762.01 2.259.021 4.518.021 6.776-.003.004-.003.005-.003.006zm6.582-9.729-.212-.212.662-.662.017.017c.035.035.081.042.125.052-.179.282-.377.55-.592.805zm.822-1.21-.017-.017.064-.064c-.015.028-.03.057-.045.085-.002-.002-.002-.003-.002-.004zm.418-.877c-.097-.061-.22-.064-.304.02l-.486.486-.403-.404c-.098-.098-.256-.098-.354 0s-.098.256 0 .354l.404.404-.662.662-.258-.259c-.098-.098-.256-.098-.354 0s-.098.256 0 .354l.258.259-.291.291c-.098.098-.098.256 0 .353.098.098.256.098.354 0l.291-.291.227.227c-.472.492-1.006.916-1.594 1.245l-.665-.665c-.098-.098-.256-.098-.354 0s-.098.256 0 .354l.545.545c-.938.426-1.986.647-3.041.628l.98-.98.339.339c.098.098.256.098.354 0s.098-.256 0-.354l-.339-.339 1.371-1.371.954.955c.098.098.256.098.354 0s.098-.256 0-.354l-.955-.955.46-.46c.098-.098.098-.256 0-.354s-.256-.098-.354 0l-.46.46-.242-.242c-.098-.098-.256-.098-.354 0s-.098.256 0 .354l.242.242-1.371 1.371-.839-.839c-.084-.084-.209-.081-.306-.02 0-.017 0-.034 0-.05.012.002.021.014.032.014.064 0 .128-.025.177-.073l.742-.742.676.676c.098.098.256.098.354 0s.098-.256 0-.354l-.676-.676.974-.974c.098-.098.098-.256 0-.354-.074-.074-.176-.073-.267-.036.012-.076 0-.153-.059-.212l-1.052-1.052.678-.678c.098-.098.098-.256 0-.354s-.256-.098-.353 0l-.679.679-.561-.561c0-.166-.001-.333-.001-.499.016.003.03.019.046.019.064 0 .128-.024.177-.073l.672-.672.826.815c.096.095.255.097.354-.003.097-.098.096-.256-.003-.354l-.823-.812.555-.555c.098-.098.098-.256 0-.353-.098-.098-.256-.098-.353 0l-.557.557-.899-.886c0-.008 0-.015 0-.023l.741-.741c.098-.098.098-.256 0-.354s-.256-.098-.354 0l-.389.389c-.003-1.01-.004-2.02-.008-3.029 2.336-.316 4.467.543 5.902 2.402 1.471 1.903 1.987 4.383.981 6.903z"/><path d="m27.609 21.892h-.537v-.386c0-.138-.112-.25-.25-.25s-.25.112-.25.25v.386h-1.296v-.199c0-.138-.112-.25-.25-.25s-.25.112-.25.25v.199h-1.67v-.349c0-.138-.112-.25-.25-.25s-.25.112-.25.25v.349h-1.259v-.498c0-.138-.112-.25-.25-.25s-.25.112-.25.25v.498h-1.633v-.461c0-.138-.112-.25-.25-.25s-.25.112-.25.25v.461h-1.595v-.573c0-.138-.112-.25-.25-.25s-.25.112-.25.25v.573h-1.097c-.138 0-.25.112-.25.25s.112.25.25.25h1.097v.942c0 .138.112.25.25.25s.25-.112.25-.25v-.942h1.595v.618c0 .138.112.25.25.25s.25-.112.25-.25v-.618h1.633v.691c0 .138.112.25.25.25s.25-.112.25-.25v-.691h1.259v.885c0 .138.112.25.25.25s.25-.112.25-.25v-.885h1.67v.89c0 .138.112.25.25.25s.25-.112.25-.25v-.89h1.296v.575c0 .067.027.131.075.178l.112.11c.049.048.112.072.175.072.065 0 .129-.025.178-.075.097-.099.096-.257-.003-.354l-.038-.037v-.47h.537c.138 0 .25-.112.25-.25.001-.137-.11-.249-.249-.249z"/></svg>