<?xml version="1.0" encoding="utf-8"?>
<!-- Generator: Adobe Illustrator 25.0.0, SVG Export Plug-In . SVG Version: 6.00 Build 0)  -->
<svg version="1.1" id="Layer_1" xmlns:svgjs="http://svgjs.com/svgjs"
	 xmlns="http://www.w3.org/2000/svg" xmlns:xlink="http://www.w3.org/1999/xlink" x="0px" y="0px" viewBox="0 0 512 512"
	 style="enable-background:new 0 0 512 512;" xml:space="preserve">
<g>
	<g>
		<path d="M92.3,487.5c116.6,1.4,226.5,1.6,326.8,0.9c62-0.4,78.8-21.4,81.4-80.1c4-87.4,4.7-176.1,2.2-263.7
			c-1.1-40-13.3-60.5-68.9-58.5l-99.7,3.7c-44.2,1.6-52.5-4.7-71.9-31.1C242,31,231.3,21.9,178.9,23.4l-105,3
			c-40.5,1.2-56.7,12.2-58.1,63.1L14,158.2c-0.9,1.2-1.1,2.8-0.1,4.2l-6,224.7C5.6,471.3,34.1,486.8,92.3,487.5L92.3,487.5z
			 M256.4,63c21.2,28.7,31.9,35.8,78.1,34.1l99.7-3.7c51.7-1.9,60.3,15.9,61.3,51.3c0.1,3.7,0.1,7.5,0.2,11.2l-474.3,0.1l0.1-4.3
			l10.9-10.9l5.2,5.2c0.7,0.7,1.9,0.7,2.6,0c0.7-0.7,0.7-1.9,0-2.6l-5.2-5.2l19.6-19.6c0.7-0.7,0.7-1.9,0-2.6s-1.9-0.7-2.6,0
			l-8.6,8.6l-8.4-8.4L53,98.4c0.7-0.7,0.7-1.9,0-2.6s-1.9-0.7-2.6,0l-6.1,6.1L31.1,88.8l13.5-13.5l6.3,6.3c0.7,0.7,1.9,0.7,2.6,0
			s0.7-1.9,0-2.6l-6.3-6.3l1.7-1.7c0.7-0.7,0.7-1.9,0-2.6s-1.9-0.7-2.6,0l-1.7,1.7l-8.4-8.4l12-12l7.3,7.3c0.7,0.7,1.9,0.7,2.6,0
			c0.7-0.7,0.7-1.9,0-2.6l-7.3-7.3l5.9-5.9c0.7-0.7,0.7-1.9,0-2.6s-1.9-0.7-2.6,0l-5.9,5.9l-5.3-5.3c5.7-2.9,12.3-4.2,19.7-4.9
			c0,0,0,0.1,0.1,0.1l8.6,8.6l-6,6c-0.7,0.7-0.7,1.9,0,2.6c0.7,0.7,1.9,0.7,2.6,0l6-6l8.7,8.7c0.7,0.7,1.9,0.7,2.6,0s0.7-1.9,0-2.6
			L76.5,43l9.6-9.6l9.9-0.3l10.8,10.8l-3.5,3.5c-0.7,0.7-0.7,1.9,0,2.6c0.7,0.7,1.9,0.7,2.6,0l3.5-3.5l11.3,11.3
			c0.7,0.7,1.9,0.7,2.6,0s0.7-1.9,0-2.6L112,43.9l11.2-11.2c0.1-0.1,0.1-0.3,0.2-0.4l3.7-0.1c0.1,0.3,0.1,0.6,0.3,0.8l9.9,9.9
			l-7.4,7.4c-0.7,0.7-0.7,1.9,0,2.6c0.7,0.7,1.9,0.7,2.6,0l7.4-7.4l7.6,7.6c0.7,0.7,1.9,0.7,2.6,0c0.7-0.7,0.7-1.9,0-2.6l-7.6-7.6
			l9.5-9.5c0.1,0.2,0.1,0.4,0.2,0.5l9.5,9.5l-2.4,2.4c-0.7,0.7-0.7,1.9,0,2.6c0.7,0.7,1.9,0.7,2.6,0l2.4-2.4l9.1,9.1
			c0.7,0.7,1.9,0.7,2.6,0c0.7-0.7,0.7-1.9,0-2.6l-9.1-9.1l7.3-7.3c0.7-0.7,0.7-1.9,0-2.6c-0.7-0.7-1.9-0.7-2.6,0l-7.3,7.3l-9.2-9.2
			l21.9-0.6c0,0.5,0.2,1,0.5,1.3l10.3,10.3l-3.7,3.7c-0.7,0.7-0.7,1.9,0,2.6c0.7,0.7,1.9,0.7,2.6,0l3.7-3.7l10,10
			c0.7,0.7,1.9,0.7,2.6,0c0.7-0.7,0.7-1.9,0-2.6l-10-10l9.6-9.6c0.5-0.5,0.5-1.3,0.3-2c0.5,0,1,0.1,1.5,0.1c-0.1,0.6,0,1.1,0.4,1.6
			l10.9,10.9l-3.5,3.5c-0.7,0.7-0.7,1.9,0,2.6c0.7,0.7,1.9,0.7,2.6,0l3.5-3.5l7.4,7.4c0.7,0.7,1.9,0.7,2.6,0c0.7-0.7,0.7-1.9,0-2.6
			l-7.4-7.4l6-6c0.4-0.4,0.5-1,0.4-1.6C240.2,41.2,248.1,51.8,256.4,63L256.4,63z M27.4,58.1l3.6,3.6l-2.2,2.2
			c-0.7,0.7-0.7,1.9,0,2.6c0.7,0.7,1.9,0.7,2.6,0l2.2-2.2l8.4,8.4L28.5,86.2l-4.9-4.9C24,73.1,25,65.1,27.4,58.1z M25.9,88.8
			l-2.7,2.7l0.1-1.9c0-1.1,0.1-2.2,0.1-3.4L25.9,88.8z M24.3,124.5c0.7,0.7,1.9,0.7,2.6,0l5.5-5.5l8.4,8.4l-8.4,8.4l-10.2-10.2
			l0.4-16.3l7.1,7.1l-5.5,5.5C23.5,122.6,23.5,123.8,24.3,124.5L24.3,124.5z M22.8,104.2l0.2-7.3c0,0,0.1,0,0.2-0.1l5.3-5.3
			l13.1,13.1l-9.2,9.2L22.8,104.2z M29.8,138.3l-8.1,8.1l0.4-15.8L29.8,138.3z M101.1,33l17.1-0.5l-8.8,8.8L101.1,33z M131.7,32.1
			l16.8-0.5l-8.6,8.6L131.7,32.1z M208.8,31.4c5.3,0.6,10.6,1.7,15.7,3.4c-0.8,0.6-5.5,5.3-6.2,6.1L208.8,31.4z M199.6,30.7
			l-9.2,9.2l-9.1-9.1C188.2,30.5,192.8,30.4,199.6,30.7z M74.1,33.7l6.7-0.2l-6.9,6.9L67.4,34C69.6,33.9,71.8,33.8,74.1,33.7z
			 M39.7,41.1l6,6l-12,12l-4.7-4.7C32,47.7,35.4,44.1,39.7,41.1z M15.3,387.3l6-223.8c0.1,0,0.3-0.1,0.4-0.1h474.2
			c1.9,81.3,1.1,163.5-2.6,244.5c-2.6,56.5-17.7,72.7-74.1,73.1c-105.6,0.7-215.6,0.4-326.7-0.9C38.2,479.5,13.1,467.3,15.3,387.3z"
			/>
		<path d="M105.2,422.1c17,0.8,27.7,0.4,122.5-2.7c12.9-0.3,21.5-4.7,24-19.9c3.3-19.7-9.6-40.7-28.6-46.7
			c-12.9-4.1-31.8-1.7-36.6-14.7c10.1-7.9,19.5-21.1,23-49.5c1.9-15.4,1.2-27.6-2.2-38.2c-9.6-30.6-40-40.3-58.5-25.3
			c-7.7,6.2-20.7-4.4-31.4,22.1c-10.2,25.4-6.8,56.3,8.7,78.8c3.6,5.2,7.6,9.5,11.9,13C127.8,361.7,95.1,349.6,75,374
			c-8.7,10.5-9.9,25.7-2.8,35.4C79.9,419.8,93.9,421.6,105.2,422.1L105.2,422.1z M96.9,414l5.7-5.7l5,5l-0.2,0.2
			c-0.4,0.4-0.5,0.8-0.5,1.3c-0.5,0-1,0-1.4,0C102.7,414.6,99.8,414.4,96.9,414L96.9,414z M113.1,414.8c0.1-0.5,0.1-1.1-0.3-1.5
			l7.7-7.7l6.3,6.3l-1.6,1.6c-0.4,0.4-0.5,1-0.4,1.5C121,415,117.1,414.9,113.1,414.8L113.1,414.8z M145.9,412.8
			c-0.5,0.5-0.5,1.2-0.3,1.8c-3.7,0.1-7.4,0.2-11.1,0.3c-0.1-0.4-0.1-0.7-0.4-1l-1.9-1.9l7.5-7.5l7.3,7.3L145.9,412.8z M130,414.9
			c-0.3,0-0.6,0-0.9,0l0.5-0.5L130,414.9z M149.6,414.5c-0.1,0-0.1,0-0.2,0l0.2-0.2c0.1,0.1,0.3,0.1,0.5,0.2L149.6,414.5z
			 M152.3,414.4l-0.9,0c0.2-0.1,0.5-0.1,0.7-0.3c0.7-0.7,0.6-1.6,0.1-2.4l7.1-7.1l7.5,7.5c-0.3,0.6-0.3,1.2,0,1.8
			C161.9,414.1,157.1,414.2,152.3,414.4L152.3,414.4z M194.2,391.7l7.5,7.5l-9.4,9.4l-8.5-8.5l10.1-10.1
			C193.7,390.6,193.7,391.3,194.2,391.7L194.2,391.7z M213,393l7.5,7.5l-6.2,6.2l-7.5-7.5L213,393z M211.8,409.3l-1.4,1.4
			c-0.5,0.5-0.5,1.2-0.3,1.8c-5.1,0.2-10.2,0.3-15.4,0.5c0.3-0.5,0.3-1.1,0.1-1.7l9.5-9.5L211.8,409.3z M214.4,412l0.4,0.4
			c-0.3,0-0.6,0-0.9,0L214.4,412z M189.7,411.2l-2.1,2.1c-5.5,0.2-11.1,0.4-16.6,0.5c0.4-0.4,0.5-0.9,0.4-1.4l9.7-9.7L189.7,411.2z
			 M227.4,412c-2.5,0.1-5,0.2-7.6,0.2l-2.9-2.9l6.2-6.2l8.4,8.4c0.1,0.1,0.3,0.1,0.4,0.2C230.4,411.9,228.9,412,227.4,412L227.4,412
			z M225.8,400.6l8.4-8.4l4.4,4.4c0.1,0.1,0.4,0.1,0.5,0.2l-8.5,8.5L225.8,400.6z M244.4,398.3c-1,6.3-3.9,11.7-10.1,13.1
			c0.5-0.7,0.6-1.7-0.1-2.4l-1-1l11.3-11.3C244.4,397.2,244.5,397.8,244.4,398.3L244.4,398.3z M244.8,392.9
			c-0.7-0.3-1.4-0.3-1.9,0.3l-1.4,1.4c-0.1-0.2-0.1-0.4-0.2-0.5l-4.4-4.4l2.4-2.4c0.7-0.7,0.7-1.9,0-2.6c-1.6-1.6-3.3,0.7-5,2.4
			l-4.5-4.5l3.6-3.6l1.7,1.7c0.7,0.7,1.9,0.7,2.6,0c0.7-0.7,0.7-1.9,0-2.6l-1.7-1.7l2.7-2.7C242.4,379.3,244.7,386,244.8,392.9
			L244.8,392.9z M236.4,370.6l-3.1,3.1l-4.5-4.5l3.1-3.1C233.5,367.4,235,368.9,236.4,370.6z M165,331.2l-6.1,6.1
			c-0.7,0.7-0.8,1.9,0.2,2.7c-0.7-0.1-1.5-0.1-2.2-0.2c1.7-0.4,1.9-2.1,1-3l-5.4-5.4l6.4-6.4L165,331.2z M161.5,322.5l8.3-8.3
			l6.1,6.1l-8.3,8.3L161.5,322.5z M155.6,339.7c-2.8-0.6-5.5-1.8-8.1-3.3l2.3-2.3C150.5,334.9,154.7,339.2,155.6,339.7z
			 M167.6,333.8l4.3,4.3c-3.7,1.4-7.4,2.2-11,2.1C161.8,339.8,166.8,334.6,167.6,333.8L167.6,333.8z M175,336.7
			c0-0.4-0.2-0.8-0.5-1.1l-4.4-4.4l8.3-8.3l6.6,6.6C181.7,332.9,178.7,334.9,175,336.7L175,336.7z M187.6,326.8l-6.5-6.5l6-6
			l3.5,3.6c0.7,0.7,1.9,0.7,2.6,0s0.7-1.9,0-2.6l-8.9-8.9l7.2-7.2l2.6,2.6c0.7,0.7,1.9,0.7,2.6,0c0.7-0.7,0.7-1.9,0-2.6l-2.6-2.6
			l6.2-6.2c0.3-0.3,0.4-0.7,0.5-1.2c0.4,0,0.8-0.2,1.1-0.5C199.3,309.3,193.6,319.8,187.6,326.8L187.6,326.8z M202.2,286.4
			c-0.1-0.1-0.1-0.3-0.2-0.4l-6.3-6.3l5.2-5.2c0.8,0.8,1.2,1.3,2.1,1.8C202.9,279.5,202.6,282.8,202.2,286.4L202.2,286.4z
			 M203,269.4c-0.6-0.4-1.4-0.4-2,0l-2.4-2.4l3.8-3.8C202.6,265.2,202.9,267.2,203,269.4L203,269.4z M132.1,321.7
			c-14.1-20.5-17.3-48.8-7.9-71.9c6.6-16.5,12.9-14.7,20.4-15.1c6-0.3,7-3.5,11.6-6.1c16.1-9.1,39.9,1.2,45.5,30.3
			c-0.9,0.4-5,4.7-5.8,5.5c-1.8-1.7-4.2,0.9-2.6,2.6l1.3,1.3l3.6,3.6l-5.3,5.3c-0.7-0.4-1.5-0.4-2.1,0.2c-0.6,0.6-0.6,1.5-0.1,2.3
			c-0.5,0.7-0.5,1.6,0.1,2.3c0.8,0.8,1.4,0.6,2.1,0.2l5.3,5.3c-0.2,0.1-0.4,0.1-0.5,0.2l-6.2,6.2l-3.5-3.5c-0.7-0.7-1.9-0.7-2.6,0
			c-0.7,0.7-0.7,1.9,0,2.6l3.5,3.5l-7.2,7.2l-1.2-1.2c-0.7-0.7-1.9-0.7-2.6,0c-0.7,0.7-0.7,1.9,0,2.6l6.6,6.6l-6,6l-6.1-6.1l1-1
			c0.7-0.7,0.7-1.9,0-2.6c-0.7-0.7-1.9-0.7-2.6,0l-1,1l-1.4-1.4c-0.7-0.7-1.9-0.7-2.6,0c-0.7,0.7-0.7,1.9,0,2.6l1.4,1.4l-8.3,8.3
			l-2.5-2.5c-0.7-0.7-1.9-0.7-2.6,0c-0.7,0.7-0.7,1.9,0,2.6l2.5,2.5l-6.4,6.4l-3.9-3.9c-0.7-0.7-1.9-0.7-2.6,0
			c-0.7,0.7-0.7,1.9,0,2.6l3.9,3.9l-3,3C139.8,331.3,135.8,327.1,132.1,321.7L132.1,321.7z M80.7,378.6
			c17.9-21.6,51.6-10.2,63.4-35.5c11.9,6.6,24.8,5.7,36.1-0.7c7.9,16,28.7,13.6,40.6,17.4c2.9,0.9,5.6,2.4,8.1,4.1l-3.3,3.3
			c-0.5,0.5-0.5,1.3-0.3,2c-0.3,0.7-0.3,1.4,0.3,2l5.1,5.1l-3.8,3.8c-0.7-0.3-1.4-0.3-2,0.3c-0.7,0.7-0.7,1.9,0,2.6l0.4,0.4
			c0.1,0.2,0.1,0.4,0.2,0.6c0.2,0.2,0.4,0.2,0.6,0.2l5.4,5.4l-8.4,8.4l-7.5-7.5l4.6-4.6c0.7-0.7,0.7-1.9,0-2.6
			c-0.7-0.7-1.9-0.7-2.6,0l-4.8,4.8c-0.6-0.1-1.2-0.1-1.7,0.4c-0.5,0.5-0.5,1.1-0.4,1.7l-6.4,6.4l-7.5-7.5c-0.5-0.5-1.1-0.5-1.8-0.3
			l0.6-0.6c0.7-0.7,0.7-1.9,0-2.6c-0.7-0.7-1.9-0.7-2.6,0l-11.9,11.9l-5.3-5.3c-0.7-0.7-1.9-0.7-2.6,0c-0.7,0.7-0.7,1.9,0,2.6
			l5.3,5.3l-9.4,9.4l-7.3-7.3l13.1-13.1c0.7-0.7,0.7-1.9,0-2.6c-0.7-0.7-1.9-0.7-2.6,0l-13.1,13.1l-2.6-2.6c-0.7-0.7-1.9-0.7-2.6,0
			c-0.7,0.7-0.7,1.9,0,2.6l2.6,2.6l-7,7l-7.3-7.3l11.2-11.2c0.7-0.7,0.7-1.9,0-2.6c-0.7-0.7-1.9-0.7-2.6,0l-11.2,11.2l-0.9-0.9
			c-0.7-0.7-1.9-0.7-2.6,0c-0.7,0.7-0.7,1.9,0,2.6l0.9,0.9l-7.5,7.5l-6.3-6.3l8.1-8.1c0.7-0.7,0.7-1.9,0-2.6c-0.7-0.7-1.9-0.7-2.6,0
			l-8.3,8.3c-0.7-0.4-1.6-0.4-2.2,0.2c-0.6,0.6-0.6,1.5-0.2,2.2l-7.8,7.8l-5-5l6.9-6.9c0.7-0.7,0.7-1.9,0-2.6s-1.9-0.7-2.6,0
			l-6.9,6.9l-0.4-0.4c-0.7-0.7-1.9-0.7-2.6,0c-0.7,0.7-0.7,1.9,0,2.6l0.4,0.4l-4.6,4.6l-4.6-4.6c-0.7-0.7-1.9-0.7-2.6,0
			c-0.7,0.7-0.7,1.9,0,2.6l4.6,4.6l-0.3,0.3c-5.7-1.3-11-3.7-14.4-8.2C72.3,397,75.1,385.5,80.7,378.6L80.7,378.6z"/>
		<path d="M289.5,266.9c8.7,6.3,9.5,4.5,131.4,3.4c4.9,0,11-0.1,16.2-3.1c5.8-3.3,9.5-11.2,6-17.5c-3.7-6.6-12.5-6.8-16.3-6.9
			c-119.1-2.8-122.2-4.1-135.1,1C281.4,247.8,280,260.1,289.5,266.9L289.5,266.9z M294.3,250.7c11.3-4.4,14.9-3.2,132.3-0.5
			c3.9,0.1,8.6,0.5,10,3.2c1.3,2.4-0.7,6-3.3,7.5c-3.5,2.1-8.3,2.1-12.5,2.1c-110.2,1-119.9,3.1-127-2c-2.3-1.7-3.5-3.9-3.3-6
			C290.8,253.1,292.2,251.5,294.3,250.7L294.3,250.7z"/>
		<path d="M307.8,326.2c0.7,0,1.4,0,2.1,0l111-1c4.9,0,11-0.1,16.2-3.1c10.1-5.9,12.6-23.9-10.3-24.4l-103.9-2.4
			c-14.3-0.3-37.8-0.7-39.6,13.6C282.3,316.2,287.9,326.2,307.8,326.2z M315.3,302.4c2.5,0,5,0.1,7.4,0.1l103.9,2.4
			c3.9,0.1,8.6,0.5,10,3.2c1.3,2.4-0.7,6-3.3,7.5c-3.5,2.1-8.3,2.1-12.5,2.1l-111,1c-6.4,0-12-0.1-16-3c-2.3-1.7-3.5-3.9-3.3-6
			C291.4,303,308.6,302.4,315.3,302.4L315.3,302.4z"/>
		<path d="M301.7,378.1c0.5,0,1,0,1.5,0l78.5-1c3.5,0,8.4-0.1,12.5-3.5c7.5-6.2,8.8-23.5-8.2-24.1l-73.5-2.4
			c-12.6-0.4-27.3,0.4-29.1,12.9C282.2,367.6,286.7,378.1,301.7,378.1L301.7,378.1z M290.6,361.1c1.1-7.3,14.8-6.8,22.2-6.6
			l72.9,2.4c4.2,0.1,5.4,1.1,6,2.7c1.1,2.7-0.3,6.7-2.2,8.3c-1.9,1.6-4.5,1.8-7.9,1.8C304.2,370.7,288.6,374.6,290.6,361.1z"/>
		<path d="M92.8,387.6c11.3-18.7,47.3-8.1,55.8-31.9c0.3-1-0.2-2-1.1-2.4c-0.9-0.3-2,0.1-2.4,1.1c-7.6,21.2-43.2,10.8-55.5,31.2
			c-0.5,0.9-0.2,2,0.6,2.5C91.1,388.8,92.3,388.5,92.8,387.6z"/>
	</g>
</g>
</svg>
