<?xml version="1.0" encoding="utf-8"?>
<!-- Generator: Adobe Illustrator 25.0.0, SVG Export Plug-In . SVG Version: 6.00 Build 0)  -->
<svg version="1.1" id="Layer_1" xmlns:svgjs="http://svgjs.com/svgjs"
	 xmlns="http://www.w3.org/2000/svg" xmlns:xlink="http://www.w3.org/1999/xlink" x="0px" y="0px" viewBox="0 0 512 512"
	 style="enable-background:new 0 0 512 512;" xml:space="preserve">
<style type="text/css">
	.st0{fill:#020202;}
</style>
<g>
	<g>
		<g id="XMLID_1_">
			<path class="st0" d="M477,292.5c0.8,0.8,0.8,2,0,2.8l-3.7,3.7l3.6,3.6c0.8,0.8,0.8,2,0,2.7c-0.8,0.8-1.9,0.8-2.7,0l-3.6-3.6
				l-12,11.9l4.3,4.3c0.8,0.8,0.8,2,0,2.8c-0.8,0.8-2,0.8-2.7,0l-4.3-4.3l-8.2,8.2l6.7,6.8c0.8,0.8,0.8,2,0,2.7
				c-0.8,0.8-1.9,0.8-2.7,0l-6.9-6.8c-0.3,0.2-0.7,0.5-1.1,0.5c-0.5,0-1-0.2-1.4-0.6c-0.7-0.7-0.6-1.7-0.1-2.5l-3.4-3.4
				c-0.8-0.7-0.8-1.9,0-2.7c0.8-0.8,1.9-0.8,2.7,0l3.3,3.3l8.2-8.2l-1.7-1.8c-0.8-0.8-0.8-2,0-2.8c0.7-0.7,1.9-0.7,2.7,0l1.8,1.8
				l11.9-11.9l-3.9-4c-0.8-0.8-0.8-1.9,0-2.7c0.7-0.8,1.9-0.8,2.7,0l4,3.9l3.7-3.7C475.1,291.8,476.2,291.8,477,292.5L477,292.5z"/>
			<path class="st0" d="M430.1,353.2l-11.9,11.9l1.9,2c2.1-1.8,10.1-8.8,13.4-11.7c-0.6,0.1-1,0.1-1.6-0.5L430.1,353.2z
				 M415.4,362.4l11.9-11.9l-5.3-5.4l-12,12L415.4,362.4z M394.4,372.8l9.1,9.1c5.7-5.2,8.1-7.4,13.7-12.2l-9.9-9.9L394.4,372.8z
				 M384.5,390.1l5.4,5.3c3.6-3.8,7.2-7.4,10.8-10.8l-5.6-5.7c-0.1,0.5-0.2,0.9-0.5,1.2L384.5,390.1z M372.7,464.1l-6.1,6.1l5.3,5.4
				l2.3-2.3c0.7-0.8,1.9-0.8,2.7,0c0.8,0.8,0.8,2,0,2.8l-2.3,2.2l1.7,1.7c0.8,0.8,0.8,1.9,0,2.7c-0.2,0.2-0.3,0.3-0.5,0.4
				c13.6-7.5,16.9-16.8,16-24.1c-0.2-1.9-0.9-3.5-1.6-5l-3.3,3.3l2.9,2.9c0.8,0.8,0.8,2,0,2.7c-0.7,0.8-1.9,0.8-2.7,0l-3-2.9
				l-4.3,4.3c-0.3,0.2-0.6,0.3-1,0.4l4.7,4.7c0.8,0.7,0.8,1.9,0,2.7c-0.8,0.8-1.9,0.8-2.7,0L372.7,464.1z M366.3,408.4l7.1,7.1
				c4.3-6.1,8.9-11.9,13.8-17.2l-5.4-5.4L366.3,408.4z M357.6,479.1l8.4,8.4c3.6-1.3,6.8-2.8,9.6-4.3c-1.3,0.7-2.5-0.9-3.8-2.2
				l-3.7,3.8c-1.9,1.8-4.6-0.9-2.8-2.8l3.8-3.7l-5.4-5.3L357.6,479.1z M354.8,481.9l-4.7,4.7l4.4,4.5c2.4-0.7,4.9-1.4,7.3-2.2
				L354.8,481.9z M342.6,479l4.8,4.9l4.7-4.7l-4.9-4.8L342.6,479z M339.8,481.7l-7.9,7.9c0.9,0.9,4.5,4.1,4.7,5.3
				c4.7-0.7,9.2-1.6,13.7-2.6l-2.9-2.9c-2,2-4.6,5.9-6.6,3.9c-0.8-0.8-0.8-2,0-2.7l3.9-4L339.8,481.7z M329.2,492.4l-3.6,3.6
				c2.2-0.2,4.4-0.4,6.6-0.6L329.2,492.4z M327.8,422.9c0,1-0.4,1.2-0.9,1.6c13.5-0.9,27.6,0.7,38.6,3.9c1.7-3.3,3.7-6.4,5.7-9.5
				l-7.6-7.7l-9.6,9.6c-1.9,1.9-4.6-0.9-2.7-2.7l9.6-9.6l-9.2-9.2l-12.8,12.7l7.5,7.5c0.7,0.8,0.7,1.9,0,2.7c-0.8,0.8-2,0.8-2.8,0
				l-7.4-7.4L327.8,422.9z M489.3,277.2l-4.6,4.6l2.3,2.3C487.8,281.8,488.6,279.5,489.3,277.2z M327.8,406.4l-7.8,7.8l5.5,5.5
				l7.8-7.9L327.8,406.4z M314,486.5l7.8,7.8l4.6-4.6l-7.3-7.2c-0.2-0.2-0.2-0.5-0.3-0.8L314,486.5z M308.4,492.1l2.4,2.4
				c0.5,0.5,0.5,1.2,0.4,1.8h7.3l-7.1-7.1L308.4,492.1z M317.3,417c-2.1,2-9.2,9.2-11.2,11.2c6.4-2,10.7-2.6,14.1-3.1l2.6-2.6
				L317.3,417z M305.6,494.9l-1.1,1.1c0.9,0.1,1.6,0.2,2.4,0.2L305.6,494.9z M299.1,429.8l4.7-4.7l-7.4-7.4
				c-0.2-0.2-0.2-0.3-0.3-0.5c0.1,0.5,0.2,0.9,0.2,1.3C297,422.4,297.9,426.2,299.1,429.8L299.1,429.8z M292.3,434.2
				c-1.6-4.5-2.6-9.1-3.6-13.6c-3.4-17.5-7.5-38.3-4.3-58.2c3.5-22.1,16.2-40.3,33.2-47.4c23-9.9,30.8,1.4,55.5-39.2
				c7.8-12.8,15.8-26,29.4-33c18.5-9.4,44-1.9,24.2,52.4c24-33.7,14.8-78.5,9-113.8c-7.1-43.6,24.8-51.4,44-22.1
				c31.3,47.6,30.4,113.5-2.1,160.3c-29.2,42.5-79.7,66.2-104.6,111.2c6.1,2.3,12.3,5.8,17.1,10.3c4.8,4.6,8.4,10.2,9.3,16.7
				c4.8,35.5-56.7,47.9-91.9,46.2c-49-2-43.8-48-20.9-66C288.5,436.4,290.4,435.3,292.3,434.2L292.3,434.2z M388.2,450.6
				c-15.4-20.9-72-26.1-96.8-6.6c-17.8,14-21.6,46.5,8.1,51.4l3.3-3.3l-4.5-4.5c-0.8-0.8-0.8-2,0-2.7c0.8-0.8,2-0.8,2.8,0l4.4,4.4
				l2.9-2.9l-0.5-0.5c-0.8-0.7-0.8-1.9,0-2.7c0.7-0.8,1.9-0.8,2.7,0l0.5,0.5l9.2-9.3c0.8-0.7,2-0.7,2.8,0c0.7,0.8,0.7,2,0,2.8
				l-2.2,2.2c0.2,0.1,0.5,0.1,0.7,0.3l7.3,7.2l7.9-7.9l-3.3-3.3c-0.7-0.8-0.7-2,0-2.8c0.8-0.7,2-0.7,2.8,0l3.3,3.3l9.8-9.8
				c0.8-0.8,2-0.8,2.7,0c0.8,0.8,0.8,2,0,2.8l-2.2,2.2l4.9,4.9l6.1-6.2l-0.4-0.3c-0.8-0.8-0.8-2,0-2.8c0.8-0.8,2-0.8,2.8,0l0.3,0.4
				l7.2-7.2c0.1-0.2,0.1-0.3,0.2-0.5c0.2-0.2,0.3-0.2,0.5-0.2l3.3-3.3c0.8-0.7,2-0.7,2.8,0c0.7,0.8,0.7,2,0,2.8l-2.3,2.3l1.2,1.2
				c0.1-0.3,0.2-0.7,0.4-1l4.3-4.3l-4.9-5c-0.8-0.7-0.8-1.9,0-2.7c2-2,5.4,2.7,7.6,4.9C384.9,453.7,387.3,451.2,388.2,450.6
				L388.2,450.6z M292,363.8c-2.8,17.6,0.5,36,3.7,52.4c0-0.5,0.2-0.9,0.5-1.2c0.8-0.8,1.9-0.8,2.7,0l7.4,7.4l8.1-8.1l-7.7-7.6
				c-0.7-0.8-0.7-2,0-2.8c0.8-0.8,2-0.8,2.8,0l7.6,7.7l7.9-7.8l-5.4-5.4c-0.7-0.7-0.7-1.9,0-2.7c0.8-0.8,2-0.8,2.8,0l5.3,5.3
				l7.1-7.1c0.8-0.8,2-0.8,2.8,0c0.8,0.8,0.8,2,0,2.7l-7.1,7.2l5.4,5.4l12.8-12.7l-5.9-5.9c-0.8-0.8-0.8-2,0-2.7
				c0.8-0.8,2-0.8,2.7,0l5.9,5.9l10.5-10.5c0.8-0.8,2-0.8,2.7,0c0.8,0.8,0.8,1.9,0,2.7l-10.4,10.5l9.2,9.2l15.5-15.5l-8.7-8.6
				c-0.8-0.8-0.8-2,0-2.8c0.8-0.7,2-0.7,2.8,0l8.6,8.7l10-10.1c0.3-0.2,0.7-0.4,1.1-0.4l-5.6-5.7c-0.8-0.8-0.8-2,0-2.7
				c0.8-0.8,1.9-0.8,2.7,0l1.6,1.6l27.7-27.7l-1.8-1.8c-0.7-0.8-0.7-1.9,0-2.7c0.8-0.8,2-0.8,2.8,0l1.8,1.8l5.3-5.4
				c0.8-0.7,1.9-0.7,2.7,0c0.8,0.8,0.8,2,0,2.8l-5.3,5.3l5.3,5.3l7.9-7.8l-7.1-7.1c-0.8-0.8-0.8-2,0-2.7c0.7-0.8,1.9-0.8,2.7,0
				l7.1,7.1l0.4-0.4c0.8-0.8,2-0.8,2.7,0c0.8,0.7,0.8,1.9,0,2.7l-0.4,0.4l1.2,1.2c0.7,0.8,0.7,2,0,2.8c-0.8,0.7-2,0.7-2.8,0
				l-1.2-1.2l-7.8,7.9l1.8,1.8c0.5,0.5,0.5,1.2,0.3,1.9c13.3-11.9,26.3-24.4,36.3-38.9c5.9-8.5,10.6-17.5,14.3-27l-3.6-3.6l-6.7,6.7
				c-0.8,0.8-2,0.8-2.7,0c-0.8-0.8-0.8-2,0-2.8l6.7-6.7l-3.6-3.5c-0.8-0.8-0.8-2,0-2.8c0.8-0.8,2-0.8,2.8,0l3.5,3.6l2.3-2.3
				c-0.8-0.2-1.3-0.9-1.3-1.6v-11.9l-2.9,2.9c-0.8,0.8-2,0.8-2.8,0c-0.7-0.8-0.7-2,0-2.8l12.2-12.1c0.8-0.8,2-0.8,2.8,0
				c0.7,0.7,0.7,1.9,0,2.7l-5.6,5.5c0.1,0.2,0.2,0.4,0.2,0.5v14.2l4.2-4.2c0.1,0,0.2,0,0.2-0.1c8.4-35.9,2.4-75.2-17.9-106.3
				c-14.5-22.2-35.8-19-29.9,16.6c8.4,50.6,15.5,108-28,136.9c-1.6,1-3.6,0.9-4.9-0.5c-1.3-1.3-1.6-3.3-0.5-4.9
				c16.2-24.6,28-78.3-3.9-62c-11.6,6-18.7,17.7-26.3,30.1c-26.4,43.4-37.8,33.2-59.1,42.3C303.2,329.5,294.4,348.4,292,363.8
				L292,363.8z"/>
			<path class="st0" d="M275.7,44.2l3.2,3.2c-0.5-1.6-1.1-3.1-1.8-4.6L275.7,44.2z M276.6,86.4l-7.1,7.1l3.3,3.3
				c1.9-2.9,3.4-6.1,4.7-9.4c-0.1-0.1-0.2,0-0.2-0.1L276.6,86.4z M266.8,90.8l7.1-7.1l-1.3-1.2l-7.1,7L266.8,90.8z M270.2,99.7
				l-3.6-3.6c-0.2,0.1-0.4,0.2-0.6,0.2c-0.5,0-1-0.2-1.4-0.5c-0.5-0.5-0.5-1.3-0.3-2l-1.5-1.5l-1.2,1.2c1.6,0.5,2.9,1.9,2.9,3.7
				v10.2c2.2-2.3,4.3-4.8,6.2-7.4C270.5,99.8,270.4,99.8,270.2,99.7L270.2,99.7z M200.6,188.4l-0.8-0.9c-0.1,0-0.2,0.1-0.2,0.1
				c-0.3,0-0.5,0-0.8-0.2C199.5,187.8,200.1,188,200.6,188.4L200.6,188.4z M190.6,178.3l-2.5,2.5c1.8,1.3,3.6,2.6,5.5,3.8
				c1.9,1.1,3.6,2,5.2,2.9c-0.2-0.1-0.4-0.2-0.5-0.4c-0.4-0.5-0.5-1-0.5-1.6L190.6,178.3z M233,61.7c1.4,19.9,9.3,39.3,22.3,54.6
				c0.2,0.2,0.2,0.4,0.4,0.6c-0.1-1,0.2-2,1-2.9V98.3l-4,4c-1.9,1.9-4.6-0.9-2.8-2.7L260,89.4l-2.6-2.6c-0.8-0.8-0.8-1.9,0-2.7
				c0.7-0.8,1.9-0.8,2.7,0l2.6,2.6l7.1-7.1l-3.6-3.5c-0.7-0.8-0.7-2,0-2.7c0.8-0.8,2-0.8,2.8,0l3.5,3.5l1.4-1.4c0.8-0.8,2-0.8,2.8,0
				c0.8,0.7,0.8,1.9,0,2.7l-1.4,1.4l1.2,1.3l1.7-1.7c0.5-0.5,1.3-0.5,2-0.3c0.5-1.9,0.8-3.7,1.1-5.6c-0.2,0.1-0.3,0.2-0.5,0.2
				c-0.5,0-1-0.2-1.4-0.6l-8.5-8.5c-1.1,1.1-2.2,0.9-2.9,0.2c-0.8-0.8-0.8-2,0-2.7l0.5-0.6c0-0.5,0.2-1,0.5-1.4
				c0.4-0.4,0.9-0.6,1.5-0.5L278,52l-5.4-5.4c-0.1,0-0.1,0.1-0.1,0.1c-0.5,0-1-0.2-1.4-0.6c-0.7-0.7-0.7-1.9,0-2.7l4.2-4.2
				c-5.1-9.9-12.9-18.4-22.4-24C236.6,23.7,231.6,43.3,233,61.7L233,61.7z M360,116.4l2.2,2.2c1.8-2.9,3.4-6,5-9.2l-0.2-0.1
				L360,116.4z M348.9,133l-3.3,3.3l1.7,1.7c1.2-1.2,2.4-2.5,3.6-3.8c-0.1-0.1-0.2-0.1-0.3-0.2l-1.5-1.4
				C348.9,132.8,349,133,348.9,133z M338.1,134.4l-7.7,7.8l1.9,1.9l7.7-7.8L338.1,134.4z M204.5,186.7c0.8,0.8,0.8,2,0,2.8
				c-0.2,0.2-0.4,0.2-0.6,0.2c8.4,3.4,16.2,4.3,23.7-0.8c-1.6-1.3-3.3-2.7-4.9-4l-6.4,6.3c-0.8,0.8-2,0.8-2.7,0
				c-0.8-0.7-0.8-1.9,0-2.7l6-6c-2.6-2-5.2-4.1-7.8-6.1l0.9,0.9c0.7,0.8,0.7,2,0,2.8c-1.6,1.6-3-0.3-4.6-1.9
				c0.2,0.7,0.2,1.4-0.3,1.9l-4.9,4.9L204.5,186.7z M205,177.5c0.5-0.5,1.3-0.5,2-0.3l-7.7-7.6l-6.1,6l6.8,6.8L205,177.5z
				 M202.3,134.4c-15.9-11.4-36.3-15.7-55.4-11.6c7.5,23.7,20.3,42.4,38.2,55.9c0.1-0.2,0.1-0.5,0.3-0.6l2.4-2.5l-2.9-2.9
				c-0.7-0.7-0.7-1.9,0-2.7c0.8-0.8,2-0.8,2.8,0l2.9,2.9l6-6.1l-2.1-2.2c-0.8-0.8-0.8-1.9,0-2.7c0.7-0.8,1.9-0.8,2.7,0l2.7,2.7
				c0.4,0,0.9,0.2,1.2,0.5c0.3,0.3,0.5,0.8,0.5,1.2l9.3,9.2c-2.6-3.3,1.9-8,5.4-5.3c5,3.6,9.9,7.4,14.6,11.4
				c-0.9-5.7-2.3-11.3-4.5-16.6l-0.9-0.2l-5.5,5.5c-0.4,0.4-0.9,0.5-1.4,0.5c-0.5,0-1-0.2-1.3-0.5c-0.8-0.8-0.8-2,0-2.8l6.3-6.3
				c0.2-0.2,0.5-0.4,0.9-0.5c-1.2-2.3-2.5-4.6-3.9-6.8l-2.9,2.9l3.2,3.2c0.8,0.8,0.8,2,0,2.7c-0.8,0.8-2,0.8-2.7,0l-3.2-3.1l-6,6
				c-0.8,0.8-2,0.8-2.8,0c-0.7-0.8-0.7-2,0-2.7l6.1-6.1l-6.8-6.7c-0.8-0.8-0.8-2,0-2.8c0.8-0.7,2-0.7,2.7,0l6.8,6.8l3.3-3.3
				c0.1-0.1,0.2-0.1,0.4-0.2C214.1,144.4,208.7,138.9,202.3,134.4L202.3,134.4z M327.6,144.9l-5.9,6l3.4,3.4
				c0.2,0.2,0.3,0.5,0.4,0.9c6.7-4,12.7-8.4,19-14.4l-1.7-1.6l-8.1,8c0.1,0.6,0,1.2-0.5,1.6c-0.4,0.4-0.9,0.6-1.4,0.6
				c-0.1,0-0.2-0.2-0.2-0.2l-2.6,2.6c-0.7,0.8-1.9,0.8-2.7,0c-0.8-0.8-0.8-2,0-2.7l2.2-2.2L327.6,144.9z M319,153.6l-5.4,5.4
				l0.5,0.4c0.2,0.3,0.2,0.6,0.4,0.9c2.5-0.9,5.1-1.9,7.9-3.4L319,153.6z M281.8,69.9c0.2-2.3,0.2-4.6,0.2-6.9
				c-0.2-2.7-0.5-5.4-1.1-8.1l-0.2-0.2l-7.1,7.1L281.8,69.9z M289.7,62.6c0.9,20.9-8.9,42-25.3,55v57c5.7-5.7,11.5-11.2,17.5-16.5
				c-0.2-0.6-0.4-1.2-0.4-1.8c3.1-49.3,50.9-83.4,98.4-70.6c1,0.3,1.9,0.9,2.4,1.9c0.5,0.9,0.6,2,0.3,3c-9,31.1-26.2,54.7-51.4,70.1
				c-14.7,9.1-30.6,13.8-44.1,3c-8,7-15.6,14.3-22.8,22v69.9c0,2.1-1.7,3.9-3.9,3.9c-2.2,0-3.9-1.8-3.9-3.9v-39.3
				c-7.3-7.7-15-15.1-23-22.1c-13.6,10.7-29.5,6-44.1-3c-25.1-15.4-42.4-39.1-51.4-70.2c-2.9-10,40.6-13,68.7,7.1
				c18.9,13.5,31,35.5,32.4,58.6c0.1,0.6-0.1,1.2-0.4,1.8c6.1,5.4,12,11,17.8,16.8v-19.8c-0.2-0.7-0.2-1.5,0-2.2v-64.1
				c-0.1-0.1-0.2-0.2-0.4-0.3c-0.1-0.1-0.1-0.2-0.2-0.3c0.1,1.2-0.3,2.4-1.2,3.2c-1.6,1.4-4.1,1.2-5.5-0.4
				c-14-16.5-22.7-37.5-24.2-59.1c-1.6-22.7,5.5-44.5,24.3-54.1c1.2-0.6,2.5-0.5,3.6,0.1C259.8,5,288.2,30.5,289.7,62.6L289.7,62.6z
				 M374.1,92.3c-39.3-8.1-78,18.1-84,59c4.7-4,9.6-7.8,14.6-11.5c1.7-1.2,4.1-0.9,5.4,0.9c1.2,1.7,0.9,4.2-0.9,5.4
				c-5.4,4-10.7,8.2-15.9,12.6c3.6,2.4,8,3.6,12.3,3.5c0.1-0.4,0.2-0.9,0.5-1.2l1.9-1.9l-2.5-2.5c-0.8-0.8-0.8-1.9,0-2.7
				c0.8-0.8,2-0.8,2.7,0l2.5,2.5l5.4-5.4l-1.6-1.5c-0.7-0.8-0.7-2,0-2.8c0.8-0.8,2-0.8,2.8,0l1.5,1.6l6-6l-3.3-3.3
				c-0.8-0.8-0.8-2,0-2.8c0.8-0.8,2-0.8,2.8,0l3.3,3.3l7.8-7.8l-2.8-2.7c-0.8-0.8-0.8-2,0-2.8c0.8-0.8,2-0.8,2.8,0l2.7,2.8
				c0.8-0.8,2-0.8,2.8,0c0.4,0.4,0.6,0.9,0.6,1.3c0,0.5-0.2,1-0.6,1.4l1.9,1.9l3.3-3.3c0.1-0.1,0.2-0.1,0.3-0.2l-7-7
				c-0.8-0.8-0.8-2,0-2.7c0.8-0.8,2-0.8,2.8,0l10.9,10.9c2.5-3,4.8-6.2,7-9.5c-0.9-0.6-2.3-2.2-3.1-2.9c-0.7,0.3-1.3,0.6-2.2-0.2
				c-0.6-0.6-0.5-1.5-0.2-2.2l-2.2-2.2l-6.1,6.1c-0.8,0.8-2,0.8-2.8,0c-0.7-0.8-0.7-1.9,0-2.7l14.3-14.3c0.8-0.7,1.9-0.7,2.7,0
				c0.8,0.8,0.8,2,0,2.8l-5.4,5.4l2,2l7.1-7l-5.8-5.8c-0.7-0.8-0.7-2,0-2.7c0.8-0.8,2-0.8,2.8,0l6.1,6.1c0.6-0.2,1.3-0.2,1.8,0.4
				c0.1,0.1,0.1,0.2,0.2,0.3C371,100.8,372.7,96.7,374.1,92.3L374.1,92.3z"/>
			<path class="st0" d="M189.7,424.8l-1.1-1.1c-1,1-0.5,0.5-1.2,0.9C187.4,424.6,189.6,424.8,189.7,424.8L189.7,424.8z M223.6,455.2
				l9.9,9.9c-1-5.1-3.1-9.8-6.1-13.8L223.6,455.2z M226.8,484.3l-8.5,8.5l0.9,0.9c8.1-2.8,12.6-7.7,14.4-16.6
				c-0.3,1.1-3.3,3.8-4.2,4.6c0.5,0.8,0.5,1.8-0.1,2.5C228.6,484.8,227.8,485,226.8,484.3L226.8,484.3z M181.8,480l4.4,4.5l9.2-9.2
				l-4-4c-0.2-0.2-0.2-0.4-0.2-0.6L181.8,480z M182.9,412.5l5.7,5.7l10.9-10.9l-5.7-5.7L182.9,412.5z M180.1,415.3l-9,9.1
				c4-0.2,7.1-0.5,14.4,0.1c-1.5-1-0.9-2.2,0.3-3.4L180.1,415.3z M173.3,491.7c0.7,0.8,0.7,2,0,2.7c-0.1,0.1-0.2,0.1-0.2,0.1
				c2.3,0.4,4.7,0.7,7.1,0.9c4.2,0.5,8.4,0.8,12.6,0.9c-0.1-0.1-0.2-0.1-0.2-0.1l-6.2-6.2l-4.7,4.7c-0.4,0.4-0.9,0.6-1.4,0.6
				c-0.5,0-0.9-0.2-1.3-0.6c-0.8-0.8-0.8-2,0-2.8l4.7-4.7l-4.5-4.4l-7.3,7.3L173.3,491.7z M168.3,493.5c0.5,0.2,1.1,0.2,1.7,0.4
				l-1-1L168.3,493.5z M170,405.1l-10.6,10.7l7.8,7.8c0.1-0.5,0.2-0.9,0.5-1.2l9.9-9.9L170,405.1z M214.7,359.6l-3.7,3.6
				c-0.1,0.1-0.2,0.1-0.2,0.1l5.3,5.4c1.1-1.1,2.2-1.9,3.5-0.7c0.7,0.8,0.7,1.9,0,2.7l-0.8,0.7l2.1,2.1c-0.2-3.3-0.4-6.6-0.9-9.9
				c-0.4-2.5-1-5-1.7-7.6l-1,0.9c0.5,0.8,0.5,1.8-0.1,2.5C216.4,360.2,215.6,360.3,214.7,359.6L214.7,359.6z M212.1,464.2l6.1,6.1
				l5.4-5.3c0.7-0.8,1.9-0.8,2.7,0c0.8,0.7,0.8,1.9,0,2.7l-5.4,5.4l5.9,5.9l3.7-3.7c0.8-0.7,1.9-0.7,2.7,0c0.3,0.3,0.4,0.8,0.5,1.2
				c0.4-2.5,0.5-5.1,0.2-7.9c-0.9,0.8-1.9,0.6-2.6-0.1l-10.5-10.5l-2.6,2.6c-0.4,0.4-0.9,0.5-1.3,0.5c-0.5,0-0.9-0.2-1.2-0.5
				L212.1,464.2z M218.1,475.8l-8.5,8.5l5.9,5.9l8.5-8.5L218.1,475.8z M207,486.9l-6.7,6.7c-0.7,0.8-1.9,0.8-2.7,0
				c-0.8-0.8-0.8-2,0-2.8l6.7-6.7l-6.1-6.1l-9.1,9.2l6.2,6.2c0.7,0.8,0.7,2,0,2.8c-0.1,0-0.1,0-0.2,0.1c7.4,0.1,12,0.2,19.8-1.5
				L207,486.9z M200,421.5l6.8-6.8l-4.6-4.7L191.4,421l4.7,4.7c4.1,0.8,12.1,2.9,16.6,4.9c2-5.8,3.6-15,4.8-21.1l-5.2,5.2l1.2,1.2
				c0.8,0.8,0.8,2,0,2.8c-0.7,0.8-1.9,0.8-2.7,0l-1.2-1.3l-6.9,6.8C200.9,426,198.1,423.4,200,421.5L200,421.5z M209.3,467l-8.4,8.4
				l6.1,6.1l8.5-8.4L209.3,467z M205,407.4l4.6,4.6l9.1-9.1c0.2-0.8,0.3-1.6,0.4-2.3c-0.1,0-0.2,0.2-0.3,0.2c-0.5,0-1-0.2-1.4-0.5
				l-2.6-2.6L205,407.4z M158.2,481.4l-3.9,3.9l3.9,3.9c0.6,0.5,0.6,1.4,0.2,2.2c1.8,0.5,3.6,0.9,5.4,1.3l2.5-2.6l-7.6-7.6
				C158.3,482.2,158.3,481.8,158.2,481.4L158.2,481.4z M153.4,489.8l-1.8-1.8l-1,0.9C151.5,489.3,152.4,489.5,153.4,489.8
				L153.4,489.8z M156.6,418.5c-0.9,0.9-9,9.3-10.2,9.6c0.1,0,0.1,0.1,0.2,0.2c4.1-1.2,10.9-2.6,16.4-3.3L156.6,418.5z M225,448.2
				c-25.1-27.2-100.8-18-104.8,10.7c-0.9,6.1,2.1,13.1,7.5,18.2c5.3,5.1,12.3,8.1,18.6,10.5l2.4-2.3l-2-2.1c-0.8-0.8-0.8-1.9,0-2.7
				c0.8-0.8,1.9-0.8,2.7,0l2.1,2l20.2-20.3c0.8-0.7,2-0.7,2.8,0c0.8,0.8,0.8,2,0,2.8l-14.4,14.4c0.4,0,0.8,0.2,1.1,0.5l7.7,7.6
				l7.3-7.4l-1.9-1.9c-0.8-0.8-0.8-1.9,0-2.7c0.8-0.8,2-0.8,2.8,0l1.9,1.9l13.1-13.1c0.7-0.8,1.9-0.8,2.7,0s0.8,2,0,2.7l-1.4,1.5
				c0.2,0.1,0.4,0.1,0.6,0.2l4,4l8.4-8.5l-0.8-0.8c-0.8-0.8-0.8-2,0-2.7c0.7-0.8,1.9-0.8,2.7,0l0.8,0.8l4-4c0.7-0.7,1.9-0.7,2.6-0.1
				l2.2-2.2l-0.4-0.4c-0.8-0.8-0.8-2,0-2.8c0.8-0.8,1.9-0.8,2.7,0l0.5,0.5L225,448.2z M40.6,315.2c28,40.8,77.7,64.4,104,109.8
				l9.2-9.2l-5.4-5.4c-0.8-0.8-0.8-1.9,0-2.7c0.8-0.8,2-0.8,2.7,0l5.4,5.3l10.7-10.6l-0.6-0.5c-0.7-0.8-0.7-2,0-2.8
				c0.8-0.8,2-0.8,2.8,0l0.5,0.6l8.1-8.1c0.7-0.8,1.9-0.8,2.7,0c0.8,0.8,0.8,2,0,2.8l-8.1,8.1l7.4,7.4l10.9-10.9l-5.8-5.7
				c-0.8-0.8-0.8-2,0-2.7c0.8-0.8,2-0.8,2.8,0l5.7,5.7l8-7.9c0.7-0.8,1.9-0.8,2.7,0c0.8,0.7,0.8,1.9,0,2.7l-8,7.9l5.7,5.7l9.8-9.8
				l-13.3-13.3c-0.8-0.8-0.8-2,0-2.8c0.8-0.7,2-0.7,2.7,0l18.2,18.2c0.9-6.7,1.5-13.3,1.5-20.1c-0.4,0.2-0.7,0.5-1.2,0.5
				s-0.9-0.2-1.3-0.5l-2.5-2.5l-5.5,5.5c-0.8,0.8-2,0.8-2.8,0c-0.8-0.7-0.8-1.9,0-2.7l5.6-5.6l-6.9-6.8c-0.7-0.8-0.7-2,0-2.7
				c0.4-0.4,0.9-0.5,1.5-0.5c0.1-0.3,0.1-0.5,0.3-0.8l3.6-3.6l-6.6-6.7c-1.9-1.8,0.9-4.5,2.7-2.7l6.7,6.6l2.3-2.4
				c-9.8-27.7-28.8-31.2-38.2-33.4c-47.5-11.4-43.6-53.6-72.8-68.7c-12.3-6.3-23-1.9-19.8,17.7c3.2,18.6,8.3,32.7,15.9,44.4
				c1,1.6,0.9,3.6-0.5,4.9c-1.3,1.2-3.3,1.5-4.9,0.5c-19.1-12.6-31.5-36.2-34.2-64.4c-4.9-51.1,20.5-96.4-2.6-102.7
				c-9.7-2.7-18.6,9.7-21.2,13.6c-14.4,22-21.6,48.2-21.6,74.3C17.1,265.2,25,292.6,40.6,315.2L40.6,315.2z M109.5,242.8
				c32.2,16.7,27.3,57.6,71,68c4.7,1.1,9.4,2.2,14,4.2c17,7.1,29.7,25.3,33.2,47.5c4,25.1-4.8,63-7.9,71.7
				c11.6,6.7,19.5,17.1,21.7,31c4.4,28.6-15.3,39.1-44.6,39.1c-17.8,0-35.3-2.9-52-8.8c-7.4-2.7-15.9-6.3-22.4-12.6
				c-6.4-5.9-10.1-14-10.1-21.8c0-1,0.1-2.1,0.2-3.1c1.6-10.9,10.5-20.3,25.1-26.6c0.5-0.2,0.9-0.2,1.3-0.4
				c-24.9-45-75.6-68.8-104.7-111.2C1.9,272.8,1,207,32.3,159.3c8.8-13.4,19.5-19.5,29.6-16.8c32.2,8.7,3.3,57.5,8.2,109.4
				c1.6,16.8,6.9,31.8,15.1,43.3c-2.9-7.8-5.1-16.6-6.8-26.5C73.9,240.7,93.4,234.7,109.5,242.8L109.5,242.8z"/>
		</g>
	</g>
</g>
</svg>
