<svg id="Layer_1" enable-background="new 0 0 66 66" height="512" viewBox="0 0 66 66" width="512" xmlns="http://www.w3.org/2000/svg"><g><g id="XMLID_1_"><path d="m54.72 42.54c.09.09.09.25 0 .35l-.96.96.48.47c.09.1.09.26 0 .36-.1.09-.26.09-.36 0l-.47-.48-.69.69c-.1.1-.26.1-.36 0s-.1-.25 0-.35l.69-.69-.55-.56-.67.67c-.1.1-.26.1-.36 0-.09-.1-.09-.26 0-.35l.67-.67-.59-.59c-.09-.1-.09-.26 0-.36.1-.09.26-.09.36 0l.59.59 1.26-1.26c.1-.1.26-.1.36 0s.1.26 0 .35l-1.27 1.27.56.55.95-.95c.1-.1.26-.1.36 0z"/><path d="m50.47 33.87c-.1-.1-.1-.26 0-.35l1.23-1.24-.39-.39c-.09-.1-.09-.25 0-.35.1-.1.26-.1.36 0l.39.39.88-.88c.1-.1.25-.1.35 0 .1.09.1.25 0 .35l-.88.88.53.53.46-.46c.1-.09.26-.09.36 0 .1.1.1.26 0 .36l-.46.46.21.21c.1.1.1.26 0 .36s-.25.09-.35 0l-.22-.22-.95.96c-.1.09-.26.09-.35 0-.1-.1-.1-.26 0-.36l.95-.95-.53-.53-1.24 1.23c-.1.1-.25.1-.35 0z"/><path d="m49.55 41.73c-.54.68-.47 1.4-.39 2.3.27 2.86-.14 2.41 5.64 2.06 2.21-.14 2.68-.62 2.76-2.8.06-1.76-.17-2.49-2.77-2.74-1.62-.15-4.01-.37-5.24 1.18zm5.31 5.35c-5.76.35-6.31.9-6.69-2.95-.1-.99-.19-2.02.6-3.02 1.62-2.06 4.62-1.69 6.12-1.55 3.13.29 3.75 1.46 3.67 3.76-.1 2.74-.99 3.6-3.7 3.76z"/><path d="m49.55 31.51c-.65.82-.42 1.71-.34 2.81.11 1.52.27 1.87 1.59 1.79l4-.24c2.22-.13 2.68-.63 2.76-2.8.06-1.76-.17-2.49-2.77-2.73-1.54-.15-4-.4-5.24 1.17zm-1.34 2.88c-.08-1.15-.36-2.34.55-3.5 1.63-2.06 4.65-1.69 6.13-1.55 3.13.3 3.75 1.46 3.67 3.77-.1 2.77-1.04 3.6-3.7 3.76l-4 .24c-2.23.14-2.53-1.09-2.65-2.72z"/><path d="m38.24 33.92 1.33-1.34-.73-.73c-.1-.09-.1-.25 0-.35s.26-.1.36 0l.73.73 1-1.01c.1-.09.26-.09.36 0 .09.1.09.26 0 .36l-1.01 1 .5.5 1.09-1.1c.1-.1.26-.1.36 0 .09.1.09.26 0 .35l-1.1 1.1.46.46c.1.1.1.26 0 .36-.1.09-.26.09-.35 0l-.46-.46-.94.93c-.1.1-.25.1-.35 0s-.1-.26 0-.36l.93-.93-.49-.49-1.34 1.34c-.1.09-.26.09-.35 0-.1-.1-.1-.26 0-.36z"/><path d="m39.04 42.51c-.09-.1-.09-.26 0-.35.1-.1.26-.1.36 0l.81.81.89-.89c.1-.1.25-.1.35 0s.1.25 0 .35l-.89.89.54.54.71-.71c.1-.1.26-.1.35 0 .1.09.1.25 0 .35l-.71.71.42.42c.1.1.1.26 0 .35-.09.1-.25.1-.35 0l-.42-.42-.61.61c-.1.1-.26.1-.36 0-.09-.09-.09-.25 0-.35l.61-.61-.53-.53-1.54 1.53c-.1.1-.25.1-.35 0-.1-.09-.1-.25 0-.35l1.54-1.54z"/><path d="m38.35 51.6.61.61.74-.74c.1-.1.26-.1.35 0 .1.1.1.25 0 .35l-.74.74.62.62.43-.44c.1-.1.26-.1.36 0s.1.26 0 .36l-.44.43.31.31c.1.1.1.26 0 .36s-.26.09-.35 0l-.31-.31-1.26 1.25c-.05.05-.11.08-.18.08-.06 0-.12-.03-.17-.08-.1-.09-.1-.25 0-.35l1.25-1.26-.61-.61-1.38 1.37c-.05.05-.11.08-.18.08-.06 0-.12-.03-.17-.08-.1-.09-.1-.25 0-.35l1.37-1.38-.61-.61c-.09-.09-.09-.25 0-.35.1-.1.26-.1.36 0z"/><path d="m36.04 30.89c1.62-2.06 4.64-1.69 6.12-1.55 3.13.3 3.75 1.46 3.67 3.77-.1 2.75-1.01 3.6-3.7 3.76l-4 .24c-2.62.16-2.53-1.6-2.69-3.2-.09-.99-.19-2.02.6-3.02zm2.03 5.22 4-.24c2.23-.13 2.68-.64 2.76-2.8.06-1.76-.18-2.49-2.76-2.73-1.58-.15-4.01-.4-5.25 1.17-.54.69-.47 1.4-.38 2.31.17 1.82.06 2.38 1.63 2.29z"/><path d="m36.44 44.04c.27 2.85-.14 2.4 5.63 2.05 2.23-.14 2.68-.64 2.76-2.8.06-1.76-.18-2.49-2.76-2.74-1.54-.14-4-.4-5.25 1.18-.54.69-.47 1.4-.38 2.31zm5.69 3.05c-5.77.34-6.31.88-6.69-2.96-.09-.99-.19-2.02.6-3.02 1.62-2.06 4.63-1.69 6.12-1.55 3.13.29 3.75 1.46 3.67 3.76-.1 2.75-1.01 3.6-3.7 3.77z"/><path d="m42.13 57.3c-5.8.35-6.31.87-6.69-2.95-.09-1-.19-2.02.6-3.02 1.62-2.06 4.63-1.7 6.12-1.56 3.15.3 3.75 1.49 3.67 3.77-.1 2.74-1 3.6-3.7 3.76zm-.06-6.53c-1.54-.14-4-.41-5.25 1.18-.54.68-.47 1.4-.38 2.3.26 2.85-.15 2.4 5.63 2.05 2.23-.13 2.68-.64 2.76-2.8.06-1.76-.18-2.49-2.76-2.73z"/><path d="m25.56 44.32c-.09-.09-.09-.25 0-.35l.69-.69-.41-.41c-.09-.1-.09-.26 0-.35.1-.1.26-.1.36 0l.41.41.79-.79c.09-.1.25-.1.35 0s.1.25 0 .35l-.79.79.42.41.89-.89c.1-.1.26-.1.35 0 .1.1.1.25 0 .35l-.89.9.33.33c.09.09.09.25 0 .35-.1.1-.26.1-.36 0l-.32-.33-.82.81c-.09.1-.25.1-.35 0-.1-.09-.1-.25 0-.35l.81-.81-.41-.41-.69.69c-.1.09-.26.09-.36-.01z"/><path d="m37.92 11.57c.01-.14.11-.25.27-.23.14.01.24.13.23.27-.02.17-.02.34-.02.52l3.73-.09c.14 0 .25.11.26.24 0 .14-.11.26-.25.26l-3.77.09c0 .45.01.91.05 1.36.02.14-.08.26-.22.28-.01 0-.02 0-.02 0-.13 0-.24-.1-.25-.23-.05-.46-.06-.93-.06-1.4l-2.29.05c-.01.35-.06.96.09 1.26.07.13.02.28-.11.34-.12.06-.27.01-.33-.11-.21-.42-.16-1-.15-1.48l-2.35.05c.02.38.06.76.16 1.13.04.16-.08.31-.24.31-.12 0-.22-.07-.25-.18-.1-.41-.15-.83-.17-1.24l-2.94.06.07 1.05c.01.15-.11.27-.25.27-.13 0-.24-.1-.25-.23l-.07-1.08-2.93.07.14 1.23c.02.15-.1.28-.25.28-.12 0-.23-.1-.25-.22l-.15-1.28-2.62.06c-.01 0-.01 0-.01 0-.14 0-.25-.11-.25-.25 0-.13.11-.25.24-.25l2.59-.06-.15-1.21c-.01-.14.09-.26.22-.28.14-.01.26.08.28.22l.15 1.26 2.95-.06-.08-1.27c-.01-.14.09-.26.23-.27.16-.02.26.1.27.23l.08 1.29 2.99-.06c.01-.34.05-.67.12-1 .03-.13.16-.22.29-.19.14.03.22.16.2.3-.07.29-.1.58-.11.88l2.35-.06.02-.81c0-.13.13-.25.25-.24.14 0 .25.12.25.25l-.02.79 2.31-.05c0-.19 0-.38.02-.57z"/><path d="m24.55 33.84 1.12-1.12-.71-.71c-.1-.09-.1-.25 0-.35s.25-.1.35 0l.71.71.73-.72c.1-.1.25-.1.35 0s.1.25 0 .35l-.72.73.61.61.92-.91c.09-.1.25-.1.35 0 .1.09.1.25 0 .35l-.91.92c.28.28.26.23.29.53.02.14-.08.26-.22.28-.01 0-.01 0-.02 0-.13 0-.24-.09-.25-.22l-.01-.1-.15-.14-.83.83c-.1.1-.26.1-.35 0-.1-.1-.1-.26 0-.35l.83-.84-.62-.61-1.11 1.11c-.1.1-.26.1-.36 0-.09-.09-.09-.25 0-.35z"/><path d="m24.51 54.67 1.04-1.04-.71-.71c-.1-.1-.1-.25 0-.35.09-.1.25-.1.35 0l.71.71 1.2-1.2c.09-.09.25-.09.35 0 .1.1.1.26 0 .36l-1.19 1.19.51.52 1.37-1.37c.1-.1.26-.1.35 0 .1.1.1.25 0 .35l-1.37 1.37.61.61c.1.1.1.26 0 .36-.09.09-.25.09-.35 0l-.61-.62-.93.94c-.1.09-.26.1-.36 0-.09-.1-.09-.26 0-.36l.94-.93-.52-.51-1.03 1.03c-.1.1-.26.1-.36 0-.09-.1-.09-.26 0-.35z"/><path d="m23.11 33.82c.17 1.81.06 2.38 1.63 2.29l4-.24c2.23-.13 2.68-.64 2.76-2.8.06-1.76-.18-2.49-2.76-2.73-1.61-.15-4.02-.38-5.25 1.17-.54.69-.47 1.41-.38 2.31zm-1 .09c-.09-.99-.19-2.02.6-3.02 1.62-2.06 4.64-1.69 6.12-1.55 3.13.3 3.75 1.46 3.67 3.77-.1 2.75-1.01 3.6-3.69 3.76l-4.01.24c-2.62.16-2.53-1.6-2.69-3.2z"/><path d="m23.49 41.73c-.54.69-.47 1.4-.38 2.31.27 2.86-.13 2.4 5.63 2.05 2.23-.14 2.68-.64 2.76-2.8.06-1.76-.18-2.49-2.76-2.74-1.42-.13-3.98-.42-5.25 1.18zm-1.38 2.4c-.09-.99-.19-2.02.6-3.02 1.62-2.06 4.63-1.69 6.12-1.55 3.13.29 3.75 1.46 3.67 3.76-.1 2.75-1.01 3.6-3.69 3.77-5.78.34-6.32.88-6.7-2.96z"/><path d="m23.11 54.25c.27 2.85-.16 2.4 5.63 2.05 2.23-.13 2.68-.64 2.76-2.8.06-1.76-.17-2.49-2.76-2.73-1.42-.13-3.98-.43-5.25 1.18-.54.68-.47 1.4-.38 2.3zm-1 .1c-.09-.99-.19-2.02.6-3.02 1.62-2.06 4.63-1.7 6.12-1.56 3.15.3 3.75 1.49 3.67 3.77-.1 2.74-1 3.6-3.69 3.76-5.77.35-6.32.88-6.7-2.95z"/><path d="m17.27 10.69c.1-.1.25-.1.35 0l.97.97c.1.09.1.25 0 .35s-.26.1-.35 0l-.97-.97c-.1-.1-.1-.25 0-.35z"/><path d="m13.63 43.05-1.4 1.4c-.09.09-.25.09-.35-.01-.09-.09-.09-.25 0-.35l1.4-1.4-.43-.43c-.1-.09-.1-.25 0-.35s.26-.1.35 0l.43.43.98-.97c.09-.1.25-.1.35 0 .1.09.1.25 0 .35l-.97.97.47.48.68-.68c.1-.1.26-.1.35 0 .1.1.1.25 0 .35l-.68.68.64.64c.1.09.1.25 0 .35s-.26.1-.36 0l-.63-.63-.77.77c-.1.1-.26.1-.36 0-.09-.1-.09-.26 0-.36l.78-.77z"/><path d="m11.43 54.46c-.1.09-.26.1-.35 0-.1-.1-.1-.26 0-.36l1.27-1.27-.59-.59c-.1-.1-.1-.26 0-.36s.26-.1.36 0l.59.59 1.1-1.11c.1-.09.26-.09.36 0 .1.1.1.26 0 .36l-1.11 1.11.61.61.78-.78c.1-.1.26-.1.36 0 .09.1.09.26 0 .36l-.78.78.43.43c.1.1.1.25 0 .35s-.26.1-.35 0l-.44-.43-.79.79c-.1.1-.26.1-.35 0-.1-.1-.1-.25 0-.35l.79-.79-.62-.62z"/><path d="m9.98 41.73c-.54.68-.47 1.4-.39 2.3.17 1.82.07 2.39 1.64 2.3l4-.24c2.22-.14 2.68-.63 2.76-2.8.06-1.76-.17-2.49-2.77-2.74-1.56-.15-4-.4-5.24 1.18zm1.31 5.6c-2.63.16-2.54-1.63-2.7-3.2-.09-.99-.19-2.02.6-3.02 1.62-2.06 4.64-1.69 6.12-1.55 3.15.29 3.76 1.48 3.68 3.76-.1 2.74-1 3.6-3.7 3.77z"/><path d="m9.98 51.95c-.54.68-.47 1.4-.39 2.3.27 2.85-.15 2.4 5.64 2.05 2.22-.13 2.68-.63 2.76-2.8.06-1.74-.16-2.49-2.77-2.73-1.52-.14-3.99-.41-5.24 1.18zm5.31 5.35c-5.48.33-6.3 1.04-6.7-2.95-.09-1-.19-2.02.6-3.02 1.62-2.06 4.64-1.7 6.12-1.56 3.14.3 3.76 1.48 3.68 3.77-.1 2.78-1.04 3.6-3.7 3.76z"/><path d="m52.72 12.55-.44.44.16.16c.06-.1.12-.19.17-.29.04-.1.07-.21.11-.31zm.34-3.23-.9.91c-.03.02-.07.02-.1.04l1 1c.06-.38.11-.76.15-1.13.02-.21.03-.41.05-.62-.01 0-.01 0-.01 0zm-.18 52.92-1.34 1.34c1-.02 1.89-.04 2.62-.05zm-1.89-37.61 2.58-.01c.01-.03.01-.06.03-.09l.45-.45-1.26-1.25-1.06 1.06.3.3c.09.1.09.26 0 .36-.1.1-.26.09-.36 0l-.3-.3zm.18-12.04-.9.89.98.97c.34-.2.66-.49.92-.86l-.24-.24-.61.6c-.1.1-.26.1-.35 0-.1-.1-.1-.26 0-.35l.6-.61zm11.87 9.31v-.18l-.09.09zm-.34-3.07.29.29c-.01-.19-.02-.37-.03-.55zm-.13-2.1.28.28c-.02-.17-.04-.33-.07-.5zm-1.13 6.6 1.25 1.25h.39c0-.09-.03-1.59-.04-2.27-.12.09-.23.07-.32-.02l-.12-.12zm.46 35.86-1.49 1.5 1.25 1.24c.48-.43.86-.88 1.22-1.76zm-2.21-37.61 1.39 1.39 1.16-1.16-1.39-1.39zm.37 38.75 1.49-1.49-.97-.97-1.49 1.49zm1.02-36.65-.92.91 1.82-.01zm-3.14-.35.91.91c.1.09.1.25 0 .35 0 .01 0 .01-.01.01l.88-.01c-.05-.09-.05-.2.03-.28l.98-.98-1.39-1.4zm-.35.35-.87.87c-.04.04-.09.05-.15.06l1.95-.01c-.01 0-.02 0-.02-.01zm-2.45 36.3 1.31 1.31 1.93-1.93-1.31-1.31zm-.55-35.36-.19-.18-.18.18zm.17-.53.34.33c.05.06.07.13.06.2l1.37-.01c-.06-.01-.12-.02-.16-.06-.1-.1-.1-.26 0-.36l.87-.86-.86-.86zm1.34 37.55-1.31-1.3-1.56 1.55 1.6 1.6c.01 0 .01.01.01.02.26-.01.49-.01.69-.02 2.09-.04 4.23-.18 5.74-1.24l-1.21-1.2-1.46 1.45c-.23.23-.59-.12-.35-.35l1.45-1.46-.97-.97-1.92 1.92.62.63c.1.1.1.26 0 .36-.1.09-.25.09-.35 0l-.63-.63-1.05 1.05c-.1.1-.26.1-.36 0s-.1-.25 0-.35zm-6.93 0 1.76 1.77c.06.05.08.12.07.19h.07c-.04-.1-.05-.21.03-.28l1.43-1.43-1.81-1.8zm.09-47.15c-.01.02-.03.01-.05.02.43.25 1.01.31 1.54.16l-.83-.83zm-.91-2.44c0 .84.03 1.57.42 2.09.02.03.07.06.1.09.01-.03.01-.07.04-.09l.65-.66-.5-.51c-.1-.09-.1-.25 0-.35.09-.1.25-.1.35 0l.51.51.89-.9-.14-.14c-.09-.1-.09-.25 0-.35.1-.1.26-.1.36 0l.14.14.51-.51c.1-.1.25-.1.35 0s.1.26 0 .35l-.51.51.41.41.63-.63c.09-.1.24-.1.34-.01.02-.09.05-.17.07-.26-.02 0-.02.01-.03.01-.07 0-.13-.02-.18-.07l-1.3-1.3c-.1-.1-.1-.26 0-.36.08-.08.2-.08.29-.02.01-.05.02-.09.05-.12l.9-.91-.46-.46c-.1-.1-.1-.25 0-.35s.26-.1.36 0l.56.56c.03.01.08.02.1.05.03.02.03.06.05.09 0-.11.01-.22.02-.33.02-.35.03-.72.04-1.09-.03.02-.06.04-.09.04-.04 0-.07-.02-.1-.04l-.44.43c-.1.1-.25.1-.35 0-.1-.09-.1-.25 0-.35l.41-.41-.46-.46c-.1-.1-.1-.26 0-.35.1-.1.25-.1.35 0l.46.46.24-.24c0-1.29.08-3.06-.78-3.94-1.18-1.23-4.65-.67-4.32 3.58.14 1.71.06 4.17.06 5.89zm.46 49.95-1.09 1.09.36.36c.06.06.07.13.06.21.81-.02 1.57-.03 2.29-.05zm-.56-37.61-.2-.2-.45.46 2.68-.01.74-.74-1.34-1.34-1.27 1.28.19.19c.1.1.1.26 0 .36s-.25.09-.35 0zm-.88 39.05-.24.24c.16-.01.31-.01.46-.01zm-3.04.29-.11-.1-.1.1c0 .01 0 .01-.01.01.08 0 .14 0 .22-.01zm.41-.29c.08.08.08.19.03.29.57-.02 1.13-.03 1.68-.04.01-.02.01-.05.03-.07l.53-.53-1.12-1.12-1.31 1.31zm.8-39.96.74.74c.1.1.1.26 0 .35-.09.1-.25.1-.35 0l-.74-.74-.83.83s-.01 0-.01.01l2.63-.02c0-.05.02-.11.06-.15l.66-.66-1.15-1.15c-.04-.05-.06-.1-.06-.16zm-3.2.36.72.72c.03.03.03.07.04.11h.93c-.01-.01-.02 0-.02-.01-.1-.1-.1-.26 0-.35l.83-.83-1.02-1.02c-.02-.02-.02-.05-.03-.07zm-5.01 39.61-.42.41c.27 0 .55 0 .82-.01zm-1.02-38.75h1.29l-.88-.89-.62.61.16.17c.04.03.04.07.05.11zm-.98 39.03-.84-.84-.96.96c-.04.05-.1.06-.15.07.93-.02 1.87-.03 2.81-.04l.78-.79-1.21-1.21c-.05-.05-.07-.13-.06-.2l-.85.86.84.84c.09.09.09.25-.01.35-.04.05-.11.07-.17.07-.07 0-.13-.02-.18-.07zm-3.64-.44-.66.65c.44 0 .87 0 1.31-.01-.01-.01-.01 0-.02-.01zm-3.57.43-.26.26c.18 0 .36-.01.54-.01-.02-.01-.04 0-.06-.02zm35.3-15.91c0-.14 0-.28 0-.42l-.21.21zm.04 2.56c0-.18 0-.36-.01-.55l-.27.27zm.04 2.69c-.01-.51-.01-1.03-.02-1.54l-.76.76zm.02 3.49c.02-.55.02-1.1.01-1.65 0-.2-.01-.39-.01-.59l-1.11 1.11 1.1 1.09c0 .01 0 .03.01.04zm-45.04-43.69c.02-.04.02-.07.04-.1l-.41.4.13.13c.09-.14.17-.28.24-.43zm-1.52 1.68c.36-.18.7-.47.99-.83l-.19-.19-.23.23c-.1.1-.26.1-.36 0s-.1-.26 0-.35l.24-.24-.33-.32-.83.83.65.65c.06.06.07.14.06.22zm-1.06-.52-.58.59c.38.15.81.18 1.25.07-.01 0-.02 0-.02-.01zm-1.66-5.48c.03 3.05-.25 4.73.4 5.59.07.1.17.17.26.24.02-.03.02-.07.05-.1l.59-.6-.3-.31c-.1-.1-.1-.25 0-.35s.25-.1.35 0l.31.31.83-.84-.09-.08c-.1-.1-.1-.26 0-.36.1-.09.26-.09.35 0l.09.09.12-.11c.1-.1.25-.1.35 0 .1.09.1.25 0 .35l-.11.11.32.33.53-.54c.1-.09.26-.09.36 0 .01.02.01.05.02.07.21-.65.32-1.36.41-2.2.01-.04.01-.08.01-.12-.01.05-.02.11-.07.15-.09.1-.25.1-.35 0l-.21-.21-.4.41c-.1.09-.26.09-.36 0-.09-.1-.09-.26 0-.36l.41-.4-.36-.35c-.09-.1-.09-.26 0-.36.1-.1.26-.1.36 0l.39.39c.08-.03.17-.02.24.04.06.07.07.16.04.25l.25.24c.04.04.06.1.06.16.05-.44.11-1.2.13-1.67l-.32-.33-.12.11c-.09.1-.25.1-.35 0-.1-.09-.1-.25 0-.35l.11-.11-.35-.36c-.1-.09-.1-.25 0-.35.09-.1.25-.1.35 0l.36.36.36-.37c.02-1.44.12-3.4-.78-4.33-1.21-1.25-4.67-.64-4.32 3.57.07.95.08 1.94.08 2.27v.11zm-7.71 2.42 1.1 1.1.86-.86c.09-.1.25-.1.35 0s.1.26 0 .35l-.86.86.68.68 1.4-1.39-1.57-1.57c-.1-.09-.09-.24-.01-.34-.72.28-1.37.66-1.95 1.17zm-.42.37c-.45.48-.81 1.02-1.09 1.61l.86.86 1.39-1.39-1.12-1.12c-.01.01-.03.02-.04.04zm-2.18 7.01.82-.82-.69-.69c-.05.49-.1 1-.13 1.51zm.89-4.89c-.33.84-.54 1.77-.68 2.75l.97.97 1.71-1.72-.94-.94-.66.66c-.1.1-.26.1-.35 0-.1-.09-.1-.25 0-.35l.66-.66zm-1.19 10.95.06-.06-.06-.05zm.7-3.29-.57.57-.09 1.94.37.37 1.59-1.59zm-.35-.36-.16-.16-.02.34zm-.1 4.11.32-.01-.16-.15zm.01-5.77c0 .05-.01.08-.01.11 0 0 0 .13-.04.8.06.01.11.02.15.06l.34.34 1.65-1.65-.87-.87zm37.61 5.59.97-.01-.48-.47zm-1.01-2.07-1 1 .94.94c.04.03.05.08.06.13h.47c-.02-.08-.01-.16.05-.22l.62-.62-1.07-1.08c-.05-.04-.06-.09-.07-.15zm-2.08 2.08h1.46l-.73-.73zm-.19-2.74c.1.1.1.25 0 .35l-1.16 1.16.94.93.78-.78-.27-.28c-.1-.1-.1-.25 0-.35.09-.1.25-.1.35 0l.28.28 1.74-1.74c.1-.1.25-.1.35 0 .1.09.1.25 0 .35l-.47.48c.05 0 .11.02.15.06l1.07 1.07 2.16-2.15c.1-.1.26-.1.36 0 .09.09.09.25 0 .35l-.4.4c.02.01.05.01.07.03l1.02 1.01 2.49-2.49c.1-.1.26-.1.35 0 .1.1.1.26 0 .36l-1.28 1.28c.05.01.11.02.15.06l1.15 1.16 1.37-1.37c0-.04.01-.09.05-.13.03-.03.08-.04.13-.05l1.2-1.2c.09-.1.25-.1.35 0s.1.26 0 .36l-1.11 1.11 1.33 1.33 1.07-1.07-.24-.24c-.1-.09-.1-.25 0-.35s.25-.1.35 0l.24.24 1.5-1.5c.1-.09.26-.09.35 0 .1.1.1.26 0 .36l-1.49 1.5 1.26 1.25 1.61-1.62-.1-.1c-.1-.1-.1-.26 0-.36.09-.09.25-.09.35 0l.11.11 1.86-1.87c.1-.09.26-.09.36 0 .1.1.1.26 0 .36l-1.87 1.86.86.86 1.52-1.52c.01-.02.01-.04.03-.06s.04-.02.06-.03l1.3-1.29-.07-.07c-.1-.1-.1-.26 0-.36s.25-.1.35 0l1.82 1.82.14-.15c.08-.08.19-.07.29-.02-.03-1.73-.02-1.08-.03-1.59-.01 0-.01.01-.02.01-.07 0-.13-.02-.18-.07l-.45-.45-.47.47c-.1.09-.26.09-.35 0-.1-.1-.1-.26 0-.36l.47-.47-1.12-1.11c-.1-.1-.1-.26 0-.35.1-.1.26-.1.36 0l1.11 1.11.38-.38c.05-.06.13-.07.21-.06-.01-.15-.03-.3-.04-.45-.02 0-.03.02-.05.02-.07 0-.13-.03-.18-.07l-.45-.46-.23.22c-.09.1-.25.1-.35 0s-.1-.25 0-.35l.22-.22-.48-.49c-.1-.1-.1-.25 0-.35.09-.1.25-.1.35 0l.49.48.35-.35c.04-.04.08-.04.13-.05-.25-1.46-.71-2.78-1.59-3.87-1.38-1.71-3.57-2.66-6.82-2.99-.03.38-.05.75-.09 1.13-.09.99-.24 2.04-.68 3.03-.51 1.13-1.33 1.96-2.31 2.32-1.22.44-2.57.04-3.24-.86-.62-.82-.62-1.9-.62-2.68 0-.54.02-1.81.02-3.07l-27.2.04c-.08 1.38-.22 2.99-.77 4.24-.51 1.14-1.33 1.97-2.31 2.33-1.24.43-2.59.03-3.25-.86-.83-1.1-.6-2.61-.6-5.68-.6.02-1.21.05-1.81.1l-.02.03 1.51 1.5c.09.1.09.26 0 .36-.1.09-.26.09-.36 0l-1.5-1.51-.47.47c-.1.1-.26.1-.36 0-.09-.1-.09-.25 0-.35l.4-.4c-.67.1-1.32.25-1.94.47.06 0 .11.02.15.06l1.57 1.57.22-.22c.1-.1.25-.1.35 0s.1.25 0 .35l-.24.24c.05.1.05.21-.03.29-.1.11-.19.07-.28.03l-1.41 1.41.08.08c.1.1.1.26 0 .35-.1.1-.26.1-.35 0l-.09-.08-.01.02c-.1.1-.26.09-.36 0-.1-.1-.1-.26 0-.36l.02-.01-.68-.69-1.39 1.4.94.94.05-.06c.1-.09.25-.09.35 0 .1.1.1.26 0 .36l-.05.05.13.13c.1.1.1.26 0 .36-.1.09-.26.09-.35 0l-.13-.13-1.72 1.71.88.88.15-.16c.1-.09.25-.09.35 0 .1.1.1.26 0 .36l-.15.15.04.04c.1.1.1.26 0 .36-.09.1-.25.09-.35 0l-.04-.05-1.66 1.65 1.3 1.3.36-.36c.1-.1.26-.1.35 0 .1.1.1.25 0 .35l-2.3 2.3.18.18c.09.09.09.23.01.33l30.53-.14.28-.29-.18-.18c-.1-.1-.1-.26 0-.35.09-.1.25-.1.35 0l.18.18 2.13-2.12c.09-.1.25-.1.35 0zm-34.66 3.91c-1.19 24.3-2.01 28.42.82 32.82 1.68 2.61 4.75 4.46 8.44 5.08 1.48.25 7.4.28 14.42.23 0-.07.02-.13.07-.18l.44-.44-.25-.25c-.1-.1-.1-.26 0-.36.09-.09.25-.09.35 0l.25.26 1.85-1.85c.1-.09.25-.09.35 0 .1.1.1.26 0 .36l-1.84 1.84.23.23c.1.1.1.26 0 .35-.02.02-.04.02-.05.03.41-.01.82-.01 1.24-.02l-.78-.78c-.1-.1-.1-.26 0-.35.1-.1.26-.1.35 0l.91.9c.04.04.06.1.06.16.01-.03.01-.06.03-.08l.87-.87-.25-.25c-.1-.1-.1-.26 0-.36s.26-.1.35 0l.26.26 1.19-1.2c.1-.1.26-.1.36 0s.1.26 0 .35l-1.2 1.2.63.63c.1.1.1.26 0 .35 0 .01-.01.01-.01.01.22 0 .45-.01.67-.01-.24-.02-.29-.28-.15-.42l.96-.96-.04-.04c-.1-.1-.1-.26 0-.35.1-.1.26-.1.35 0l.04.04 2.35-2.35c.1-.1.26-.1.35 0 .1.1.1.26 0 .35l-1.27 1.28c.07-.01.14.01.2.06l1.21 1.21 2.62-2.62c.1-.1.26-.1.36 0 .09.1.09.25 0 .35l-2.63 2.63.41.41c.1.09.1.24.01.34.41-.01.81-.01 1.22-.02l.92-.92-.9-.9c-.1-.1-.1-.26 0-.36.1-.09.25-.09.35 0l.9.91 2.78-2.78c.1-.1.26-.1.36 0 .09.1.09.25 0 .35l-2.78 2.78.29.3c.1.09.1.25 0 .35-.05.05-.11.07-.17.07-.07 0-.13-.02-.18-.07l-.3-.3-.55.56c1.29-.02 2.55-.05 3.77-.07-.01-.01-.03-.01-.04-.02-.09-.09-.09-.25 0-.35l.1-.1-1.39-1.39c-.1-.1-.1-.26 0-.36s.26-.1.35 0l1.4 1.4 1.31-1.31-.29-.29c-.09-.1-.09-.25 0-.35.1-.1.26-.1.36 0l.28.28 2.94-2.93c.09-.1.25-.1.35 0s.1.25 0 .35l-2.93 2.94 1.12 1.12 1.1-1.09-.75-.75c-.1-.1-.1-.26 0-.35.1-.1.25-.1.35 0l.75.74 1.58-1.58c-.05-.09-.05-.2.03-.27.08-.08.18-.08.28-.04l2.02-2.02c.1-.1.26-.1.36 0s.1.25 0 .35l-2.01 2.01 1.81 1.8 1.55-1.56-1.36-1.36c-.1-.1-.1-.26 0-.35.1-.1.26-.1.35 0l1.37 1.36 3.63-3.64c.1-.09.26-.09.36 0 .09.1.09.26 0 .36l-1.36 1.35 1.31 1.31 1.49-1.49-.37-.38c-.1-.1-.1-.25 0-.35s.25-.1.35 0l.38.38.91-.92c.1-.09.26-.09.35 0 .1.1.1.26 0 .36l-.91.91.97.97.64-.64c.1-.1.26-.1.36 0 .09.1.09.26 0 .36l-.64.63.81.82c.28-.86.4-1.82.44-2.81-.11.13-.27.11-.36.02l-1.09-1.09-.01.01c-.1.09-.26.09-.35 0-.1-.1-.1-.26 0-.36v-.01l-.44-.44c-.09-.09-.09-.25 0-.35.1-.1.26-.1.36 0l.44.44 1.37-1.37-1.18-1.18c-.07-.07-.07-.15-.05-.24-.02-.08-.02-.17.05-.24l1.09-1.08-.78-.78c-.1-.1-.1-.26 0-.35.06-.07.15-.07.23-.05l.65-.65c0-.22-.01-.44-.01-.66-.03-.01-.07-.02-.1-.04l-.47-.48-.19.2c-.1.09-.26.09-.36 0-.1-.1-.1-.26 0-.36l.2-.19-.2-.19c-.1-.1-.1-.26 0-.36s.26-.1.36 0l.19.2.55-.55c-.01-.33-.01-.66-.02-.99l-.89-.89c-.1-.1-.1-.26 0-.35.09-.1.25-.1.35 0l.53.52c-.09-6.47-.19-12.94-.29-19.41zm-.87-2.72c.28-5.72.16-9.81 2.69-12.5 1.99-2.11 4.92-2.52 7.86-2.59-.01-.66-.03-1.27-.07-1.81-.44-5.17 4.18-6.27 6.03-4.36 1.11 1.15 1.15 3.01 1.03 6.14l27.14-.04c-.01-.64-.04-1.22-.08-1.74-.4-5.19 4.2-6.27 6.04-4.35.99 1.01 1.2 2.6 1.02 6.22 2.37.22 5.52.86 7.54 3.37 2.61 3.23 2.09 4.57 2.64 43.4.12 7.31-2.03 9.47-8.98 9.61-4.14.1-38.88.92-42.89.26-3.96-.67-7.28-2.69-9.11-5.53-3.07-4.75-2.2-8.75-.87-35.95-.01-.04 0-.08.01-.13z"/></g></g></svg>