<?xml version="1.0"?>
<svg xmlns="http://www.w3.org/2000/svg" xmlns:xlink="http://www.w3.org/1999/xlink" xmlns:svgjs="http://svgjs.com/svgjs" version="1.1" width="512" height="512" x="0" y="0" viewBox="0 0 66 66" style="enable-background:new 0 0 512 512" xml:space="preserve" class=""><g><g xmlns="http://www.w3.org/2000/svg"><g><path d="m36.788 34.91c.301.143.644.217.99.217 1.608 0 2.624-1.43 2.453-2.932-.092-.806-.538-1.437-1.226-1.732-2.305-1.003-5.27 3.01-2.217 4.447zm.19-1.051.094-.094.281.281c-.157-.05-.079.013-.375-.187zm1.238-1.28.19.19c-.06.06-.102.108-.1.209-.097-.085-.244-.088-.338.006-.098.098-.098.256 0 .354l.569.57c-.163.097-.345.164-.535.193.004-.169-.455-.567-.576-.688.105-.106.728-.708.79-.834zm.988.281-.091-.091.119-.119c-.006.072-.014.14-.028.21zm-.165.48c-.04.081-.078.164-.128.234l-.352-.352c.096-.002.141-.041.2-.1.109.109.155.178.28.218zm.129-1.33c-.042.039-.368.366-.408.406-.223-.223-.431-.44-.581-.121-.098-.091-.25-.092-.346.003l-.776.776c-.232-.141-.463.092-.323.323l-.115.115c-.774-1.286 1.959-3.285 2.549-1.502z" fill="#f64e60" data-original="#000000" style="" class=""/></g><g><path d="m26.843 35.164c2.371 0 3.386-3.739 1.147-4.701-1.305-.568-3.124.594-3.462 2.106-.364 1.628 1.16 2.595 2.315 2.595zm-.661-1.168.23-.23.369.369c-.234-.001-.412-.049-.599-.139zm1.375-1.417.19.19c-.06.06-.102.108-.1.209-.248-.215-.561.138-.338.36l.402.402c-.117.116-.251.21-.397.279-.046-.134-.438-.497-.547-.606.104-.106.728-.708.79-.834zm.552.552c-.027.07-.064.135-.099.201l-.11-.11c.096-.002.141-.041.2-.1zm.108-.832-.117.117c-.223-.223-.431-.44-.581-.121-.098-.091-.25-.092-.346.003l-.776.776c-.232-.141-.463.092-.323.323l-.307.307c-1.362-1.349 2.203-3.77 2.45-1.405z" fill="#f64e60" data-original="#000000" style="" class=""/></g><g><path d="m31.186 48.364c2.963 0 8.84-1.899 8.479-5.729-.205-2.175-2.52-4.596-7.335-4.596-10.441 0-8.84 10.325-1.144 10.325zm3.879-8.997c3.65.934 5.455 4.645.941 6.77-1.732.814-3.354 1.228-4.82 1.228-4.38 0-6.099-3.716-4.797-5.93 1.366-2.329 5.753-2.816 8.676-2.068z" fill="#f64e60" data-original="#000000" style="" class=""/></g><g><path d="m35.159 45.311c1.81 0 2.907-1.884 2.102-3.583-1.125-2.366-4.297-.741-4.251 1.587.023 1.298 1.149 1.996 2.149 1.996zm-.854-2.936.69.69-.466.466-.48-.48c.038-.234.119-.464.256-.676zm.5-.522.083.083-.157.157-.1-.1c.056-.051.112-.095.174-.14zm-.023 2.397c.182-.082.181-.239.092-.357l.544-.544c.071-.071.072-.168.04-.256.137-.238-.151-.423-.375-.646l.157-.157.288.288c.099.099.257.096.354 0 .098-.098.098-.256 0-.354l-.288-.288.292-.292c1.209.601.608 3.192-1.104 2.606z" fill="#f64e60" data-original="#000000" style="" class=""/></g><g><path d="m29.18 45.311c3.616 0 2.72-5.785-.357-4.602-1.043.399-1.813 1.52-1.793 2.605.025 1.299 1.15 1.997 2.15 1.997zm-.492-3.357.075.075c-.133.133-.223.191-.157.373l-.172-.172c.078-.099.16-.194.254-.276zm.23 1.467-.404.404-.475-.476c-.012-.181-.004-.347.134-.674zm1.328.327c-.329.402-.931.374-1.448.374.285-.249.748-.521.504-.751.063-.097.066-.215-.019-.3l-.539-.535c.19.069.229-.01.373-.153.119.119.342.392.496.392.221 0 .334-.269.177-.427l-.319-.319.405-.405c.607.264.939 1.425.37 2.124z" fill="#f64e60" data-original="#000000" style="" class=""/></g><g><path d="m54.404 26.662c-1.302-2.785-4.611-4.216-8.459-2.859-1.196.425-2.635 1.257-4.359 2.497-5.176-2.919-11.739-3.157-17.412-.155-1.538-1.061-2.671-1.823-4.141-2.343-2.448-.863-5.447-.655-7.302 1.191-3.442 3.424-1.262 9.457 2.557 12.41-1.461 5.324-.893 10.652 1.517 15.198.716 1.347 2.104 2.586 3.909 3.629-3.273 3.059-3.49 8.279 1.431 8.737.213.019.426.028.64.028 2.585 0 5.857-1.562 6.812-5.9 1.936.262 3.599.306 5.229.212.862 4.159 4.379 5.928 7.406 5.66 4.67-.433 4.72-5.162 1.91-8.255 6.481-3.719 7.961-12.158 6.043-18.931 2.729-1.816 6.202-6.879 4.219-11.119zm-1.723 6.891-.395-.395c.169-.169.335-.314.147-.501s-.332-.022-.501.147l-.382-.382.882-.882.564.564c.234.234.586-.121.354-.354l-.564-.657.88-.973h.001c.064 0 .128.069.177.02s.073-.067.073-.132l.03-.006c-.12 1.144-.555 2.365-1.266 3.551zm1.144-5.531-.012-.012c-.02-.131-.069-.18-.2-.2l-.59-.59.347-.347c.184.345.288.473.455 1.149zm.121.746c.021.205.023.414.022.624-.14.01-.24.146-.353.259l-.645-.645.566-.566c.117.117.268.305.41.328zm-7.668-4.023c2.804-.987 5.49-.254 6.825 1.686l-.434.434c-.245-.245-.598.109-.354.354-.322.322.03.677.354.354l.514.514-.566.566c-.245-.245-.598.109-.354.354-.248.248.113.594.354.354l.645.645-.829.829-.454-.454c-.098-.098-.256-.098-.354 0s-.098.256 0 .354l.454.454-.922.922c-.181-.03-.302.091-.272.272-.319.319.081.626.313.394l.382.382-.671.671-.612-.612c-.098-.098-.256-.098-.354 0s-.098.256 0 .354l.612.612-.803.803c-.113-.113-.801-.843-.95-.875-1.59-3.278-3.815-5.634-6.293-7.245 1.484-1.043 2.754-1.761 3.769-2.122zm3.281 11.141.193-.193.647.647c-.172.152-.343.314-.514.441-.001-.001-.326-.894-.326-.895zm.184 10.083-.648-.648.167-.167c.098-.098.098-.256 0-.354s-.256-.098-.354 0l-.167.167-.45-.45.693-.693c.126.126.74.797.901.799-.03.451-.078.899-.142 1.346zm-1.945 5.749-.163-.163.533-.533c-.121.234-.236.471-.37.696zm-.517-.516-1.035-1.035.962-.962.921.922c.049.049.112.073.177.073.063 0 .128-.024.177-.073.098-.098.098-.256 0-.354l-.921-.922c.112-.112.807-.754.816-.912l.37.37c.049.049.113.073.177.073s.128-.024.177-.073c.098-.098.098-.256 0-.354l-1.321-1.32.962-.962.658.658c.049.049.112.073.177.073.039 0 .071-.026.106-.044-.239 1.448-.646 2.857-1.253 4.157-.22-.476-.772.308-1.15.685zm2.058-7.731.336-.336c.098-.098.098-.256 0-.354-.097-.097-.255-.099-.354 0l-.336.336c-.111-.111-.231-.272-.376-.281l.595-.595.286.286c.049.049.112.073.177.073s.128-.024.177-.073c.044-.044.063-.103.067-.161.026.562.035 1.125.013 1.689zm.481-2.301c-.233-.114-.404.154-.615.365l-.443-.443c.12-.067.393-.358.492-.457.118.118.404.453.557.456.002.026.006.053.009.079zm.047.41c.022.249.029.5.042.75-.013-.144-.232-.324-.35-.442zm-.142-1.18-.118-.118.09-.09c.011.068.018.138.028.208zm-.427-5.161.1.1-.039.039c-.019-.047-.041-.091-.061-.139zm.807.101.803-.803.633.633c-.256.308-.513.585-.77.838.001 0 .045.043-.666-.668zm-36.67-9.638c1.563-1.554 4.169-1.699 6.263-.957 1.254.442 2.221 1.069 3.462 1.918-.716.459-1.113.781-1.71 1.254l-.198-.198.858-.858c.098-.098.098-.256 0-.354s-.256-.098-.354 0l-.858.858-.717-.717c-.098-.098-.256-.098-.353 0s-.098.256 0 .354l.717.717-.454.454c-.158.158-.044.427.177.427.064 0 .128-.024.177-.073l.454-.454.167.167c-.365.306-.719.626-1.061.965l-.722-.723.229-.229c.098-.098.098-.256 0-.354s-.256-.098-.354 0l-.229.229-.165-.165c-.097-.097-.255-.099-.354 0-.098.098-.098.256 0 .354l.165.165-1.197 1.197-.086-.086c-.098-.098-.256-.098-.354 0s-.098.256 0 .354l.086.086-.979.979c-.158.158-.044.427.177.427.161 0 1.031-.927 1.156-1.053.105.105.739.773.88.82-.121.163-.239.33-.356.499-.091-.579-.641.088-1.05.497l-.822-.822c-.232-.232-.588.119-.354.354l.822.822-1.065 1.065c-.207-.207-.39-.451-.597-.244s.037.391.244.597l-.919.919c-2.209-2.793-3.14-6.789-.726-9.191zm4.295 4.329 1.197-1.197.726.727c-.393.411-.767.845-1.124 1.301-.071-.12-.7-.731-.799-.831zm-.434 2.615-.092-.092.42-.42c-.11.17-.223.337-.328.512zm-.255.414c-.261.462-.502.945-.727 1.442l-.529-.529 1.065-1.065c.108.107.085.095.191.152zm-2.56 2.218.951-.951.672.672c-.187.446-.366.898-.523 1.37-.392-.33-.758-.698-1.1-1.091zm3.206 16.855c-2.214-4.178-2.881-9.243-1.425-14.492.065-.059.118-.13.145-.216 3.83-12.22 16.219-14.936 24.557-10.32.027.141.103.268.228.341 4.308 2.497 7.384 6.891 8.392 12.152l-.33.33-.384-.384c-.098-.098-.256-.098-.354 0s-.098.256 0 .354l.384.384c-.134.134-.509.449-.499.622-.543.117.059.594.451.985l-.676.676c-.098.098-.098.256 0 .354.049.049.112.073.177.073.014 0 .025-.014.038-.016-.108.215.066.32.242.496l-.812.812c-.116.051-.062-.007-.116.116l-.259.259c-.098.098-.098.256 0 .354.049.049.112.073.177.073.063 0 .128-.024.177-.073l.14-.14.45.45-.975.975c-.234-.155-.483.094-.328.328l-.323.323c-.098.098-.098.256 0 .354.049.049.112.073.177.073s.128-.024.177-.073l.31-.31.693.693c-.158.009-.799.704-.912.816l-.627-.627c-.098-.097-.256-.099-.354 0-.098.098-.098.256 0 .354l.627.627-.962.962c-.203-.203-.383-.445-.591-.237-.098.098-.098.256 0 .354l1.625 1.625-1.034 1.034-.843-.843c-.001-.001-.001-.004-.002-.005s-.004-.001-.005-.002c-.249-.249-.526-.647-.764-.41-.207.207.035.388.237.59l-1.424 1.424-.651-.651c-.234-.234-.586.121-.354.354l.651.651-1.156 1.156-1.004-1.004c.022-.172-.094-.29-.267-.267-.191-.191-.358-.411-.561-.208-.098.098-.098.256 0 .354l.165.165-1.497 1.497-.7-.7c-.098-.098-.256-.098-.354 0s-.098.256 0 .354l.7.7-1.132 1.132-1.205-1.205 1.615-1.615c.098-.098.098-.256 0-.354-.098-.097-.256-.099-.354 0l-1.615 1.615c-.293-.293-.648.059-.354.353l-.913.912-.693-.693 1.256-1.256c.098-.098.098-.256 0-.354s-.256-.098-.354 0l-2.595 2.595-.693-.693 1.683-1.683c.098-.098.098-.256 0-.354s-.256-.098-.354 0l-1.683 1.683-.261-.261c-.232-.232-.588.119-.354.354l.261.261-.864.864c-.104-.104-.851-.882-.989-.934l1.2-1.2c.098-.098.098-.256 0-.354s-.256-.098-.354 0l-2.122 2.122-.627-.627c-.232-.232-.588.119-.354.354l.627.627c-.139.139-.317.267-.302.435-.323-.084-.641-.172-.955-.266.239-.021.293-.281.156-.418l-.165-.165 1.476-1.476c.098-.098.098-.256 0-.354s-.256-.098-.354 0l-1.476 1.476-.505-.505c-.232-.232-.588.119-.354.354l.505.505-.262.262c-2.458-.854-5.706-2.484-6.913-4.753zm26.428 2.941c.112.112.203.23.333.271-1.323.922-2.704 1.487-4.249 1.938.003-.113-.045-.157-.113-.225l1.497-1.497.709.709c.049.049.112.073.177.073s.128-.024.177-.073c.098-.098.098-.256 0-.354l-.709-.709 1.156-1.156.669.669c-.26.26.094.614.353.354zm-3.092 3.135.135-.135c.279-.098.549-.207.82-.316l.28.28-.703.703zm-2.357.573c.492-.109.975-.234 1.45-.373l-.911.911zm-2.428 1.752c-.115-.263-.216-.544-.3-.843l.563.563c-.102.1-.184.175-.263.28zm2.533-4.791 1.497-1.497.961.961-1.497 1.497zm-2.62 3.454c.56-.062 1.109-.148 1.653-.247l-.95.95zm7.295-5.5 1.424-1.424.67.67-1.424 1.424zm-19.08 5.053c-.084-.105-.547-.561-.643-.657.1-.1.214-.201.281-.313.219.083.437.169.658.245l.214.214zm1.043-1.602c-.093-.029-.185-.057-.277-.087l.088-.088c.099.098.089.094.189.175zm-1.896.45-.143.142-.358-.358c.167.073.333.147.501.216zm2.569.86-.14.14-.25-.25c.13.038.26.074.39.11zm.909-.869.202-.202.316.316c-.173-.038-.347-.073-.518-.114zm2.14.423c.132-.037.22-.154.326-.26l.361.361c-.23-.031-.458-.065-.687-.101zm-.213-.036c-.371-.062-.739-.131-1.103-.207.388-.173.015-.453-.268-.736l.624-.624c.052.138.83.885.934.989-.21.21-.435.384-.187.578zm-9.465 4.084c-.463-1.606.486-3.892 2.179-5.326.056.029.115.052.172.081.037.132.166.233.275.341-.449.448.028.679.237.47l.116-.116.585.585c-.445.444.031.676.24.467l.114-.114c.099.099.548.555.657.642-.231.231-.564.465-.338.691.099.099.257.096.354 0l1.188-1.187.358.358-1.03 1.028c-.098.098-.098.256 0 .354.097.097.255.098.354 0l1.028-1.028c.126.126.713.771.874.771.221 0 .334-.269.177-.427l-.697-.697.339-.339c.481.117.968.21 1.457.295l-.37.37c-.182-.182-.336-.375-.533-.179-.196.196-.003.351.179.533l-.666.666-.551-.551c-.232-.232-.588.119-.354.354l.551.551c-.212.212-.473.403-.261.615.097.097.255.098.354 0l.261-.261c.119.119.366.417.52.417.221 0 .334-.269.177-.427l-.343-.343.666-.666.421.421c-1.979 4.573-7.891 4.434-8.69 1.651zm9.109-2.916c-.065.262-.141.511-.224.749l-.262-.262zm1.963-.945c-.02-.154-.604-.691-.714-.801l.864-.864.696.696c-.218.237.115.563.348.348l.417.417c.049.049.112.073.177.073s.128-.024.177-.073c.098-.098.098-.256 0-.354l-.415-.415.986-.986.693.693-.481.48c-.098.098-.098.256 0 .354.049.049.112.073.177.073.063 0 .128-.024.177-.073l.481-.48.554.554c.049.049.112.073.177.073s.128-.024.177-.073c.098-.098.098-.256 0-.354l-.554-.554.913-.912 1.205 1.205-.091.091c-.098.098-.098.256 0 .354.049.049.112.073.177.073s.128-.024.177-.073l.091-.091.224.224c.049.049.112.073.177.073s.128-.024.177-.073c.098-.098.098-.256 0-.354l-.224-.224 1.132-1.132.974.974c-.149.223.082.494.328.328l.014.014c-1.413.377-2.961.643-4.575.769-.102.008-.191.055-.269.118-1.37.089-2.679.083-4.367-.098zm11.615 5.773c-1.591.137-3.229-.414-4.42-1.437l1.461-1.461c.098-.098.098-.256 0-.354s-.256-.098-.353 0l-1.474 1.474c-.382-.39-.691-.806-.939-1.271.173.009.311-.189.439-.317.121.121.626.684.788.684.221 0 .334-.269.177-.427l-.611-.611 1.112-1.112.57.57c-.036.174.071.32.277.277.109.109.206.244.348.244.221 0 .334-.269.177-.427l-.133-.133 1.112-1.112c.125.125 1.034 1.092 1.196 1.092.221 0 .334-.269.177-.427l-.133-.133.703-.703c.114.114.278.322.426.322.221 0 .334-.269.177-.427l-.249-.249c.231-.231.56-.463.335-.688-.098-.098-.256-.098-.354 0l-.335.335-.129-.129c.003-.001.764-.351.764-.351 2.151 2.213 3.003 6.39-1.109 6.771zm2.621-8.865c-.01-.144-.179-.273-.293-.387l1.424-1.424.421.421c-.464.509-.989.967-1.552 1.39zm1.874-1.776-.388-.388 1.034-1.034.234.234c-.269.414-.563.81-.88 1.188zm5.212-18.562-.586-.586.671-.671c.096.096.379.39.491.468-.174.265-.372.527-.576.789z" fill="#f64e60" data-original="#000000" style="" class=""/></g><g><path d="m32.707 19.649c.869-.04 1.885.104 2.482-.498 1.428-1.441.42-13.538.726-16.15.194-1.726-.621-2.118-2.271-1.967-.694.066-1.005-.016-1.676-.016-2.81 0-2.52 2.238-2.491 3.238.114 4.235.017 11.79-.044 12.791-.14 2.29 1.132 2.703 3.274 2.602zm-.048-.998c-.211.01-.432.021-.653.021-.326 0-.578-.031-.793-.084l.675-.675c.118.118.571.628.732.628.221 0 .334-.269.177-.427l-.555-.555.876-.876.716.716c-.286.285-.889.716-.626.979.276.276.702-.348.979-.625l.444.444c-.239.57-.606.381-1.972.454zm2.259-9.895-.075-.075.074-.074c.001.049.001.1.001.149zm.02 2.259c.005.538.008 1.041.011 1.515l-.819-.819c.188-.188.564-.564.752-.752zm.009 2.183c.001.001.003.001.004.002.002.706-.001 1.335-.01 1.889l-.935-.935c.095-.095.857-.852.941-.956zm-.167 4.439-.24-.24.31-.31c-.02.205-.043.391-.07.55zm-4.35-.529c.009-.146.018-.289.019-.429.039-4.397.17-7.512.026-12.451-.033-1.158-.228-2.21 1.492-2.21.713 0 .97.087 1.766.012 1.338-.12 1.272.121 1.188.857-.062.551-.014 4.463-.009 5.019l-.422.421-.286-.287c-.097-.097-.255-.099-.354 0-.098.098-.098.256 0 .354l.286.287-.323.323c-.098.098-.098.256 0 .354.049.049.112.073.177.073s.128-.024.177-.073l.322-.322c.149.149.25.259.432.121.002.216.007.831.009 1.048l-.048.049-.465-.465c-.098-.098-.256-.098-.354 0-.245.245.206.56.465.819-.105.105-.719.698-.78.823-.067-.002-.133.019-.184.07-.098.098-.098.256 0 .354l1.017 1.017c-.114.115-.983.937-1.005 1.09-.028.012-.06.011-.083.034-.098.098-.098.256 0 .354l1.432 1.432c-.009.297-.021.571-.036.816-.241-.122-.481.227-.703.448l-.716-.716.455-.455c.098-.098.098-.256 0-.354s-.256-.098-.354 0l-.455.455-.091-.091c-.098-.098-.256-.098-.354 0s-.098.256 0 .354l.091.091-.876.876-.572-.572c-.098-.098-.256-.098-.354 0s-.098.256 0 .354l.572.572c-.095.095-.716.708-.797.814-.379-.31-.335-.764-.305-1.266z" fill="#f64e60" data-original="#000000" style="" class=""/></g><g><path d="m20.744 33.023c.406-.566.854-1.098 1.338-1.592.113.102.463.462.61.462.228 0 .338-.282.167-.437l-.418-.375c.639-.607 1.332-1.153 2.075-1.627.117.107.279.309.434.309.242 0 .342-.313.146-.453-.05-.036-.089-.085-.137-.124.482-.283.981-.536 1.497-.759.112.139.415.489.594.489.241 0 .342-.31.148-.451-.096-.07-.184-.15-.266-.237.659-.256 1.34-.463 2.039-.615.069.301.087.753.372.753.163 0 .279-.151.244-.306l-.124-.54c.578-.104 1.165-.18 1.762-.208.138-.007.244-.124.238-.262-.007-.138-.139-.248-.262-.238-.627.029-1.244.109-1.851.219l-.068-.297c-.073-.316-.562-.215-.488.111l.064.28c-.763.167-1.505.398-2.221.684-.171-.313-.182-.746-.498-.687-.135.031-.219.165-.188.3.047.202.128.395.224.58-.55.242-1.08.52-1.593.828-.239-.284-.395-.755-.679-.605-.319.169.028.581.254.863-.748.485-1.445 1.044-2.09 1.66-.291-.261-.719-.801-.963-.529-.093.103-.084.261.019.353l.585.526c-.484.497-.932 1.03-1.341 1.595-.201-.207-.394-.423-.55-.665-.176-.275-.601-.007-.42.271.193.298.422.572.674.822-.3.448-.576.914-.824 1.397-.26-.19-.542-.479-.74-.251-.236.274.218.492.518.705-.273.581-.515 1.182-.708 1.806-.099.317.38.461.477.148.178-.573.399-1.123.646-1.658.375.224 1.262.754 1.403.369.047-.13-.021-.273-.149-.321-.364-.132-.708-.305-1.037-.505.238-.47.505-.92.793-1.355.185.149.377.29.581.411.279.17.541-.261.254-.43-.194-.117-.365-.269-.541-.414z" fill="#f64e60" data-original="#000000" style="" class=""/></g></g></g></svg>
