<?xml version="1.0"?>
<svg xmlns="http://www.w3.org/2000/svg" xmlns:xlink="http://www.w3.org/1999/xlink" xmlns:svgjs="http://svgjs.com/svgjs" version="1.1" width="512" height="512" x="0" y="0" viewBox="0 0 66 66" style="enable-background:new 0 0 512 512" xml:space="preserve"><g><g xmlns="http://www.w3.org/2000/svg"><path d="m54.706 48.414c-.603-.189-1.122-.709-1.371-1.31.817-.598 1.399-1.565 1.527-2.661.246-2.084-1.071-4.527-2.534-5.396-2.927-1.755-5.568 1.77-5.69 4.484-.065 1.344.411 2.566 1.273 3.268.051.041.101.074.152.11-.008.02-.017.04-.025.061-.436 1.119-.619 1.476-2.838 1.77-3.738.523-3.856 3.399-1.484 5.22 4.964 3.82 13.396.312 14.781-1.33 1.103-1.308 1.063-3.734-1.861-4.007-.604-.062-1.371-.034-1.93-.209zm-5.489-2.027c.037-.012.077-.015.107-.044l.303-.303.449.449c.049.049.113.073.177.073.221 0 .334-.269.177-.427l-.449-.449.366-.366 1.288 1.288c.049.049.113.073.177.073s.128-.024.177-.073c.098-.098.098-.256 0-.354l-1.288-1.288.578-.578c.012.031.012.065.037.09l.782.782-.302.303c-.098.098-.098.256 0 .354.049.049.113.073.177.073s.128-.024.177-.073l.302-.302.464.464c.023.023.056.023.085.035-.16.154-.336.287-.528.389-.061.038-.123.065-.18.089-.878.352-2.223.142-3.076-.205zm4.067-.622c-.009-.013-.006-.029-.017-.04l-.464-.464.69-.689c.047.042.104.068.163.068.056 0 .108-.027.153-.064-.089.437-.268.843-.525 1.189zm-.115-2.895.277.277c.049.049.113.073.177.073s.128-.024.177-.073c.002-.002.001-.005.003-.007.029.151.054.301.067.459-.066-.002-.132.02-.183.071l-.198.198-.707-.707c.059-.003.119-.023.164-.068zm.546-.161-.192-.192.092-.092c.034.095.071.184.1.284zm.124 1.516.03-.03c-.003.034.004.067 0 .101-.011-.023-.012-.05-.03-.071zm-6.203-.647c.088-1.959 1.993-4.98 4.179-3.672.721.428 1.253 1.247 1.604 2.009l-.249.249-.649-.649c-.098-.098-.256-.098-.354 0s-.098.256 0 .354l.649.649-.223.223c-.064.064-.07.149-.051.231-.091-.038-.194-.039-.269.035-.098.098-.098.256 0 .353l.862.862-.686.686-.782-.782c-.025-.025-.059-.025-.09-.037l.307-.307c.098-.098.098-.256 0-.354s-.256-.098-.354 0l-1.187 1.187-.116-.116c-.098-.098-.256-.098-.354 0s-.098.256 0 .354l.116.116-.366.366-.516-.516c-.098-.098-.256-.098-.353 0-.098.098-.098.256 0 .354l.516.516-.303.303c-.077.077-.076.187-.03.28-.014-.007-.031-.012-.045-.019-.114-.053-.233-.129-.353-.227-.614-.505-.952-1.418-.903-2.448zm-.898 10.108-.461-.461.526-.526 1.165 1.165-.382.382c-.086.086-.083.214-.018.311-.71-.132-1.377-.347-1.988-.634l.345-.345.461.461c.098.098.256.098.354 0 .096-.097.096-.255-.002-.353zm1.583.531.466.466c.008.009.022.006.031.013-.305-.016-.605-.046-.898-.089.005-.005.014-.003.019-.008zm.751.495c.023-.012.05-.01.069-.029.098-.098.098-.256 0-.354l-.466-.466.499-.499.685.685-.089.091c-.098.098-.098.256 0 .353.098.098.256.098.353 0l.122-.122c.087.025.145.05.242-.046.067-.067.071-.157.046-.242l.718-.718.992.992c-1.058.247-2.099.384-3.171.355zm1.14-2.386.685.685-.685.685-.685-.685zm2.265-.186.819.819-.383.383c-.098.098-.098.256 0 .354s.256.098.354 0l.383-.383.491.491c-.432.149-.884.289-1.352.414-.008-.012-.005-.028-.016-.039l-1.167-1.167zm1.342-1.056.675.675-.845.845-.819-.818.941-.941c-.023.085-.018.174.048.239zm.843 2.535-.66-.66.845-.845 1.029 1.029c-.032.013-.063.028-.095.041-.348.142-.725.289-1.119.435zm1.708-.691-1.169-1.169 1.005-1.005.392.392-.649.649c-.098.098-.098.256 0 .354s.256.098.354 0l.649-.649.453.453c.089.089.234.105.344.004-.007.008-.011.02-.018.028-.348.413-.83.698-1.361.943zm1.401-1.005c.074-.098.076-.234-.013-.323l-.453-.453.741-.741c.216.481.05 1.097-.275 1.517zm-.034-1.915-.785.786-.393-.392.197-.197c.098-.098.098-.256 0-.354s-.256-.098-.354 0l-.197.197-.116-.116c-.098-.098-.256-.098-.354 0s-.098.256 0 .354l.116.116-1.005 1.005-.675-.675c-.095-.095-.246-.094-.344-.004.028-.086.025-.18-.043-.248-.098-.098-.256-.098-.354 0l-.973.973c-.095-.053-.211-.055-.292.025s-.078.197-.026.292l-.89.89-.685-.685.629-.629c.098-.098.098-.256 0-.354s-.256-.098-.354 0l-.681.681c-.065 0-.129.023-.179.072s-.073.114-.072.179l-.736.737-.756-.756c-.098-.098-.256-.098-.354 0s-.098.256 0 .354l.756.755-.499.499-1.165-1.165 1.172-1.172c.098-.098.098-.256 0-.354s-.256-.098-.354 0l-1.179 1.179c-.098-.079-.239-.081-.33.01s-.089.231-.01.33l-.532.532-.756-.756c-.098-.098-.256-.098-.354 0s-.098.256 0 .354l.756.756-.455.455c-.277-.156-.546-.323-.792-.513-1.5-1.15-2.088-3.002 1.073-3.444 2.062-.273 2.878-.609 3.558-2.35 1.209.449 2.667.487 3.486.227.378.824 1.116 1.502 1.966 1.768.74.232 1.381.173 2.13.25.39.034.868.138 1.205.388z" fill="#707070" data-original="#000000" style=""/><path d="m8.426 53.96c1.759 1.353 4.042 1.853 6.246 1.741 2.345-.122 4.545-.915 6.201-1.593.842-.346 1.715-.745 2.334-1.479 1.107-1.313 1.057-3.734-1.861-4.007-.224-.023-.45-.034-.674-.045-1-.049-2.067-.128-2.625-1.474.817-.598 1.399-1.565 1.527-2.661.17-1.44-.375-2.742-.861-3.579-1.07-1.85-2.863-2.89-4.677-1.916-2.591 1.392-3.847 6.112-1.262 7.962-.45 1.157-.597 1.53-2.863 1.831-3.742.523-3.854 3.404-1.485 5.22zm6.195.742c-1.165.059-2.27-.076-3.27-.378l.207-.208.206.206c.049.049.113.073.177.073s.128-.024.177-.073c.098-.098.098-.256 0-.354l-.206-.206.351-.351 1.175 1.175c.049.049.113.073.177.073s.128-.024.177-.073c.047-.047.068-.108.07-.17.024-.012.052-.01.071-.03l.634-.634.57.57c.049.049.113.073.177.073.047 0 .088-.027.129-.053-.013.077-.002.156.057.215.031.031.072.035.111.046-.328.046-.657.082-.99.099zm2.272-.755c.049.049.113.073.177.073s.128-.024.177-.073c.098-.098.098-.256 0-.354l-.214-.214.671-.671.583.583c.012.024.01.053.03.073s.048.018.072.03l.32.32c.049.049.113.073.177.073s.128-.024.177-.073c.098-.098.098-.256 0-.353l-.194-.194.543-.543.71.71c-1.226.488-2.714.999-4.3 1.24.01-.007.024-.005.033-.014l.826-.826zm1.164-1.592.543-.543.458.457-.543.543zm-2.495 1.788c-.001-.063-.024-.125-.072-.173l-.57-.57.713-.713.692.692zm5.002-.99c-.008-.051-.02-.103-.059-.143l-.741-.741.905-.906.351.351-.101.101c-.098.098-.098.256 0 .354.049.049.113.073.177.073s.128-.024.177-.073l.101-.101.442.443c.002.002.005.001.006.003-.375.25-.805.452-1.258.639zm1.579-3.317c.182.079.342.186.468.326-.021.011-.046.009-.064.027l-1.173 1.173-.351-.351 1.081-1.081c.026-.027.027-.062.039-.094zm.3 2.149c-.073.087-.162.159-.247.236-.011-.021-.009-.046-.027-.064l-.442-.443 1.11-1.11c.102.47-.088 1.018-.394 1.381zm-8.279-5.499c.011-.008.026-.005.036-.015l.521-.521.787.787c.012.012.029.009.043.018-.511-.044-1.029-.152-1.387-.269zm1.697-.102-.787-.787.228-.228.816.816c-.082.098-.084.242.008.334.049.049.113.073.177.073.057 0 .111-.026.157-.065l.047.047c.049.049.113.073.177.073s.128-.024.177-.073c.098-.098.098-.256 0-.354l-.041-.042.694-.694.391.391c-.208.252-.443.476-.72.624-.062.038-.124.066-.181.09-.34.137-.74.188-1.206.172.021-.011.046-.009.064-.027.097-.094.097-.253-.001-.35zm.488-2.062.81.81-.694.693-.81-.81zm1.331-2.308.331-.331c.146.285.287.598.395.955-.026 0-.047.022-.072.03zm-3.171-2.185c1.283-.69 2.48.142 3.25 1.399l-.563.563c-.062.062-.07.144-.054.223-.016.08-.008.162.054.223l.754.754-.707.708c-.098.098-.098.256 0 .354.049.049.113.073.177.073s.128-.024.177-.073l.707-.708.253.253c.007.007.017.004.025.01.018.235.028.473-.001.718-.047.406-.19.79-.384 1.135l-.329-.329.521-.521c.098-.098.098-.256 0-.354-.252-.252-.607.254-.875.521l-.81-.81.57-.57c.098-.098.098-.256 0-.354s-.256-.098-.354 0l-1.617 1.617-.358-.358c-.098-.098-.256-.098-.353 0-.098.098-.098.256 0 .354l.358.358-.228.228-.288-.288c-.098-.098-.256-.098-.353 0-.098.098-.098.256 0 .354l.288.288-.521.521c-.058.058-.07.134-.06.208-2.55-1.181-1.334-5.393.721-6.497zm-4.4 9.894c2.078-.276 2.884-.62 3.557-2.35 1.268.472 2.665.487 3.486.227 1.053 2.292 3.302 1.836 4.497 2.078l-.979.979-.293-.293c-.098-.098-.256-.098-.354 0s-.098.256 0 .354l.293.293-.905.906-.457-.458.529-.529c.098-.098.098-.256 0-.354s-.256-.098-.354 0l-.529.529-.015-.015c-.098-.098-.256-.098-.354 0s-.098.256 0 .354l.015.015-.543.543-.442-.442c-.098-.098-.256-.098-.354 0s-.098.256 0 .354l.442.442-.671.671-.692-.692.345-.345c.098-.098.098-.256 0-.354s-.256-.098-.353 0l-.345.345-.079-.079c-.098-.098-.256-.098-.354 0s-.098.256 0 .354l.079.079-.714.714-.634-.634c-.098-.098-.256-.098-.354 0s-.098.256 0 .354l.634.634-.628.628-.97-.969 1.354-1.354c.098-.098.098-.256 0-.354s-.256-.098-.353 0l-1.355 1.354-.037-.037c-.098-.098-.256-.098-.354 0s-.098.256 0 .354l.037.037-.351.351-.613-.613c-.098-.098-.256-.098-.354 0s-.098.256 0 .354l.613.613-.385.385c-.656-.249-1.257-.577-1.784-.982-1.495-1.153-2.083-3.006 1.078-3.447z" fill="#707070" data-original="#000000" style=""/><path d="m26.375 56.998c-4.302.6-4.409 3.877-1.697 5.956 4.159 3.199 9.635 2.146 14.479.163.975-.4 1.987-.862 2.699-1.706 1.124-1.333 1.635-4.372-2.904-4.602-1-.05-2.471-.081-3.16-1.811.969-.681 1.643-1.837 1.793-3.122.196-1.662-.434-3.166-.996-4.134-.563-.974-1.194-1.66-1.928-2.095-1.127-.676-2.313-.715-3.43-.115-1.836.986-3.017 3.466-3.099 5.292-.075 1.545.47 2.949 1.458 3.754.076.062.152.113.227.165-.017.045-.037.088-.054.133-.517 1.331-.755 1.774-3.388 2.122zm7.667 6.694 1.585-1.585.916.916c.001.001.002 0 .003.001-.788.261-1.63.494-2.504.668zm4.735-1.501c-.556.228-1.171.465-1.823.693.012-.077.001-.155-.058-.214l-.916-.916.921-.921.65.65-.68.68c-.098.098-.098.256 0 .354.049.049.113.073.177.073s.128-.024.177-.073l.68-.68.307.307c.049.049.113.073.177.073s.128-.024.177-.073c.098-.098.098-.256 0-.354l-.307-.307 1.089-1.089.952.952c.022.022.053.021.079.033-.476.323-1.025.576-1.602.812zm-.533-2.7c.039-.039.051-.091.059-.141l.691.691-1.089 1.089-.65-.65zm.658-1.683c3.342.161 3.032 1.958 2.189 2.958-.114.135-.246.251-.381.364-.008-.049-.019-.1-.057-.138l-.953-.952 1.001-1.001c.098-.098.098-.256 0-.354s-.256-.098-.354 0l-1.001 1.001-.785-.785c-.098-.098-.256-.098-.354 0-.053.053-.071.123-.067.193-.087-.029-.182-.027-.252.042l-.989.989-.555-.555c-.098-.098-.256-.098-.354 0s-.098.256 0 .354l.555.555-.921.921-1.202-1.202c-.098-.098-.256-.098-.354 0s-.098.256 0 .354l1.202 1.202-1.788 1.788c-.071.071-.072.168-.04.257-2.014.326-4.05.273-5.995-.453l.632-.632.919.918c.049.049.113.073.177.073s.128-.024.177-.073c.098-.098.098-.256 0-.354l-.919-.919.65-.65 1.385 1.385c-.087.098-.088.246.006.34.049.049.113.073.177.073.059 0 .116-.026.163-.068l.436.436c.049.049.113.073.177.073s.128-.024.177-.073c.098-.098.098-.256 0-.354l-.432-.432.942-.942 1.007 1.007c.049.049.113.073.177.073s.128-.024.177-.073c.098-.098.098-.256 0-.354l-1.007-1.007 2.368-2.368c.098-.098.098-.256 0-.354s-.256-.098-.354 0l-2.368 2.368-.952-.952c-.098-.098-.256-.098-.354 0s-.098.256 0 .354l.952.952-.942.942-1.381-1.381 2.66-2.659c.098-.098.098-.256 0-.354s-.256-.098-.353 0l-2.689 2.689c-.087-.029-.182-.027-.252.042-.069.069-.072.164-.042.251l-.68.68-.638-.638c-.098-.098-.256-.098-.353 0-.098.098-.098.256 0 .354l.638.638-.722.722c-.017.017-.015.042-.026.063-.613-.269-1.186-.593-1.694-.985-1.823-1.399-2.471-3.656 1.294-4.181 3.057-.404 3.453-1.127 4.127-2.775 1.064.414 2.907.704 4.174.27.79 1.824 2.282 2.251 4.021 2.337zm-7.282-3.614c.098.098.256.098.353 0 .098-.098.098-.256 0-.354l-.262-.262.158-.159 1.255 1.255c.006.006.015.004.021.009-.694-.036-1.496-.181-2.112-.428l.323-.324zm1.813.499c.014-.009.033-.006.045-.019.049-.049.073-.112.073-.176.017-.01.039-.007.054-.022l1.266-1.266.683.683c-.626.607-1.27.798-2.121.8zm-.167-.584-1.043-1.043 1.252-1.252 1.043 1.043zm3.324-2.349c-.076.647-.342 1.248-.717 1.744l-.648-.648.928-.928c.048.047.109.072.171.072.064 0 .128-.024.177-.073.096-.096.095-.25.002-.348l.103-.104c-.004.095-.004.189-.016.285 0-.001 0 0 0 0zm-.867-3.517c.139.239.281.518.411.822l-.676-.676.219-.219c.015.026.031.047.046.073zm.518 1.597c.036.019.07.045.11.045.024 0 .043-.021.066-.027.101.356.167.736.19 1.13-.089-.033-.187-.032-.259.039l-.196.196-.647-.647zm-7.111 1.031c.068-1.516 1.071-3.651 2.573-4.458.822-.441 1.644-.387 2.444.093.455.27.868.68 1.253 1.234l-.296.296-.056-.056c-.098-.098-.256-.098-.354 0s-.098.256 0 .354l.056.056-.009.01c-.098.098-.098.256 0 .354.049.049.113.073.177.073s.128-.024.177-.073l.009-.009.764.763-.717.717-.382-.382c-.098-.098-.256-.098-.354 0s-.098.256 0 .354l.416.416c-.022.083-.016.17.049.235.049.049.113.073.177.073.021 0 .038-.019.059-.024l.681.681-.926.926-1.043-1.043.422-.422c.098-.098.098-.256 0-.354s-.256-.098-.354 0l-.422.422-.382-.382c-.098-.098-.256-.098-.354 0s-.098.256 0 .354l.382.382-1.252 1.252-.591-.591c-.098-.098-.256-.098-.353 0-.098.098-.098.256 0 .354l.591.591-.158.159-.591-.591c-.098-.098-.256-.098-.354 0s-.098.256 0 .354l.591.591-.358.359c-.03.03-.034.071-.045.109-.125-.063-.252-.139-.38-.244-.742-.607-1.15-1.703-1.09-2.933z" fill="#707070" data-original="#000000" style=""/><path d="m16.666 33.564c1.419-.815 2.26-.628 15.637-.757l.037 8.66c0 .276.224.5.5.5s.5-.224.5-.5l-.001-8.67c13.702-.133 14.46-.331 15.879.434.917.495 1.636 1.698 1.201 2.631-.117.25-.008.548.242.665.251.118.547.009.665-.242.703-1.507-.3-3.215-1.632-3.934-1.667-.9-2.359-.69-16.354-.555v-2.54l-.027-.381c3.224-.433 6.213-1.52 8.548-2.476 1.374-.565 2.798-1.214 3.786-2.385 1.444-1.715 2.373-5.932-4.01-6.243-1.161-.057-3.837-.058-4.809-2.89 1.425-.924 2.428-2.576 2.643-4.428.274-2.324-.611-4.435-1.4-5.794-4.35-7.524-11.439-2.087-11.727 4.321-.104 2.148.648 4.093 2.012 5.204.152.124.305.233.456.328-.272.679-.555 1.503-1.02 2.048-2.081 2.396-6.898.348-8.662 3.93-.969 2.01.184 4.175 2.178 5.705 3.056 2.35 7.056 3.132 10.978 2.789l.012 2.823c-13.627.132-14.45-.076-16.131.89-1.347.774-2.272 2.582-1.502 4.039.129.244.432.337.676.208s.337-.432.208-.676c-.492-.932.194-2.173 1.117-2.704zm28.215-10.195c-.844 1-2.091 1.566-3.402 2.105-.246.101-.507.204-.768.307-.004-.005-.002-.012-.007-.017l-1.603-1.603 1.386-1.386 1.544 1.544-.337.337c-.098.098-.098.256 0 .354s.256.098.354 0l.337-.337.101.101c.098.098.256.098.353 0 .098-.098.098-.256 0-.354l-.101-.101 2.117-2.117c.098-.098.098-.256 0-.354s-.256-.098-.354 0l-.258.258-.919-.919c.018.004.031.02.049.02.064 0 .128-.024.177-.073l1.443-1.443c1.111.997.73 2.678-.112 3.678zm-4.04-.948 1.505-1.505 1.544 1.544-1.505 1.505zm-11.189-8.586c-.063-.029-.127-.069-.191-.105l.271-.271.275.275c.098.098.256.098.354 0s.098-.256 0-.354l-.275-.275.443-.443.926.926-.138.138c-.098.098-.098.256 0 .354s.256.098.353 0l.138-.138c.12.119.311.359.462.359.064 0 .128-.024.177-.073.098-.098.098-.256 0-.354l-.285-.285.758-.758.884.884-.054.054c-.098.098-.098.256 0 .353.098.098.256.098.354 0l.054-.054.264.264c.098.098.256.098.354 0s.098-.256 0-.353l-.264-.264 1.043-1.044 1.1 1.1c-2.069 1.688-5.69.777-7.003.064zm1.989-2.285.926.926-.758.758-.926-.926zm1.397-1.397.926.926-1.043 1.043-.926-.926zm2.163 2.163-1.043 1.043-.884-.884 1.043-1.043zm-.53-1.237 1.081-1.081.883.884-1.081 1.081zm2.354 2.355-1.117-1.117 1.081-1.081.889.889c.017.017.042.014.062.026-.24.481-.551.912-.915 1.283zm1.452-3.097c-.055.468-.173.918-.336 1.344l-.799-.799 1.131-1.131c.014-.014.011-.034.021-.05.006.004.013.004.019.008-.004.208-.011.416-.036.628zm-1.098-4.86c.145.268.287.558.422.872l-.647-.647zm.825 1.983c.142.489.241 1.01.286 1.55l-1.106-1.106.632-.632zm-10.861 1.567c.219-4.876 5.758-10.737 9.777-3.998l-.351.35c-.087-.03-.182-.027-.252.042-.07.07-.072.165-.042.252l-.335.335c-.098.098-.098.256 0 .353.098.098.256.098.354 0l.306-.305.863.863-.653.653c-.093-.046-.204-.048-.281.03-.078.078-.076.188-.03.281l-.432.431c-.098.098-.098.256 0 .354s.256.098.354 0l.41-.41 1.125 1.125c-.011.008-.026.005-.036.015l-1.131 1.131-.884-.884.002-.002c.232-.232-.119-.588-.354-.354l-.002.002-.767-.767c-.098-.098-.256-.098-.354 0s-.098.256 0 .353l.767.767-1.081 1.081-.925-.925.052-.052c.098-.098.098-.256 0-.353-.098-.098-.256-.098-.354 0l-1.496 1.496c-.069-.005-.139.014-.192.067s-.072.123-.067.192l-.805.806-.327-.326c-.098-.098-.256-.098-.353 0-.098.098-.098.256 0 .353l.327.326-.443.443-.704-.704c-.098-.098-.256-.098-.354 0s-.098.256 0 .353l.704.704-.34.34c-.017-.013-.033-.023-.05-.036-1.119-.911-1.734-2.549-1.646-4.382zm-7.314 11.901c1.353-2.75 6.235-1.084 8.52-3.716.572-.668.831-1.436 1.152-2.244 1.369.585 4.268 1.154 6.23.397 1.035 2.693 3.251 3.285 5.654 3.404 1.047.052 2.092.103 2.994.629l-1.383 1.383c-.063.062-.07.146-.053.226l-.443-.445.897-.897c.098-.098.098-.256 0-.354s-.256-.098-.354 0l-.897.897-.298-.298c-.098-.098-.256-.098-.354 0s-.098.256 0 .354l.298.298-1.505 1.505-.733-.733c-.098-.098-.256-.098-.354 0s-.098.256 0 .354l.733.733-1.386 1.386-1.466-1.465 1.117-1.117c.098-.098.098-.256 0-.354s-.256-.098-.354 0l-1.117 1.117-.416-.416c-.098-.098-.256-.098-.354 0s-.098.256 0 .354l.416.416-1.189 1.189-1.405-1.405c-.098-.098-.256-.098-.354 0-.066.066-.071.154-.048.238-.084-.023-.172-.017-.238.048l-1.159 1.159-.337-.337c-.098-.098-.256-.098-.354 0s-.098.256 0 .354l.337.337-.991.991-.574-.574c-.098-.098-.256-.098-.354 0s-.098.256 0 .354l.575.575-.516.516-1.207-1.207c-.063-.063-.146-.07-.227-.052l.578-.578c.098-.098.098-.256 0-.354s-.256-.098-.353 0l-1.993 1.993-.456-.456c-.098-.098-.256-.098-.354 0s-.098.256 0 .354l.456.456-.477.477-1.049-1.049c-.098-.098-.256-.098-.354 0s-.098.256 0 .354l1.049 1.049-.396.397c-1.206-.439-2.309-1.028-3.268-1.765-2.188-1.685-2.399-3.414-1.886-4.478zm17.176 4.422-1.466-1.466 1.189-1.189 1.466 1.466zm-4.668-1.427 1.159-1.159c.043-.042.058-.098.064-.154l1.273 1.273-1.268 1.268zm.875 1.582-.991.991-1.228-1.228.991-.991zm-4.925 1.761c-.008.008-.006.021-.012.03l-1.355-1.356 1.236-1.236c-.018.08-.01.164.052.227l1.207 1.207zm-2.768.074.264-.264c.005 0 .009.006.014.006.064 0 .128-.024.177-.073.053-.053.072-.122.067-.191l.525-.525 1.496 1.496c.049.049.113.073.177.073s.128-.024.177-.073c.028-.028.029-.066.042-.1.002 0 .004.003.007.003.064 0 .128-.024.177-.073l1.128-1.128.818.818c.098.098.256.098.354 0s.098-.256 0-.354l-.818-.818.516-.516 1.228 1.228-.1.1c-.098.098-.098.256 0 .353.098.098.256.098.354 0l.1-.1.189.189c.098.098.256.098.354 0s.098-.256 0-.353l-.189-.189.991-.991.837.837c.098.098.256.098.354 0s.098-.256 0-.353l-.837-.837 1.268-1.268 1.466 1.466-.298.298c-.098.098-.098.256 0 .354s.256.098.354 0l1.84-1.84 1.462 1.462c-4.726 1.813-9.674 2.899-14.494 1.363z" fill="#707070" data-original="#000000" style=""/></g></g></svg>
