<?xml version="1.0"?>
<svg xmlns="http://www.w3.org/2000/svg" xmlns:xlink="http://www.w3.org/1999/xlink" xmlns:svgjs="http://svgjs.com/svgjs" version="1.1" width="512" height="512" x="0" y="0" viewBox="0 0 66 66" style="enable-background:new 0 0 512 512" xml:space="preserve"><g><path xmlns="http://www.w3.org/2000/svg" d="m59.872 18.402c-5.265 0-10.537-.008-15.804-.016-.598 0-1.213.008-1.827.033.078-3.074.151-6.138.223-9.214.092-3.713-1.032-5.152-5.117-5.152-5.266 0-10.538-.008-15.805-.016-7.9 0-9.534 2.555-9.75 8.369-.05 1.479-.161 4.681-.236 6.7-.149 4.752.819 6.942 7.086 6.942h.006c-.392.433-.808.879-1.176 1.292-.297.336-.746.844-.688 1.5.048.723.734 1.4 1.75 1.4.414 0 .819-.104 1.207-.215 2.98-.87 5.773-2.18 8.305-3.892l6.292.186c-.012.285-.199 5.609-.256 7.134-.152 4.846.904 6.942 7.087 6.942h.006c-1.027 1.138-1.946 1.864-1.864 2.791.043.658.594 1.219 1.346 1.366.136.024.271.035.404.035.414 0 .819-.104 1.206-.215 2.979-.87 5.772-2.179 8.306-3.892l7.571.224c5.002.147 6.468-1.449 6.581-6.073.092-3.696.183-7.385.267-11.08.087-3.695-1.018-5.149-5.12-5.149zm3.262 16.059-1.345-1.346 1.251-1.251.732.732c-.01.419-.02.838-.03 1.257zm.7-4.445-.63-.63.661-.661c-.011.431-.021.861-.031 1.291zm-46.053-1.251c-.034-.383 2.104-2.591 2.374-2.909.278-.324.045-.824-.38-.824-.005 0-.01 0-.016 0-6.664.201-7.345-1.368-7.203-5.89.099-2.692.176-4.958.236-6.698.193-5.259 1.395-7.405 8.749-7.405 5.266.008 10.54.016 15.806.016 3.527 0 4.194 1.012 4.117 4.128v.001c-.032 1.35-.066 2.697-.098 4.044-.012-.036-.014-.075-.043-.104-.098-.098-.256-.098-.354 0l-.516.516-.028-.028c-.098-.098-.256-.098-.354 0s-.098.256 0 .354l.028.028-.233.233c-.098.098-.098.256 0 .354s.256.098.353 0l.233-.233.417.417c.097.097.255.098.354 0 .098-.098.098-.256 0-.354l-.417-.417.516-.516c.026-.026.027-.062.039-.094-.018.762-.036 1.524-.055 2.286-.171-.004-.976.864-1.109.997l-.416-.416.389-.389c.098-.098.098-.256 0-.354s-.256-.098-.354 0l-.389.389-.131-.131c-.097-.097-.255-.099-.354 0-.098.098-.098.256 0 .354l.131.131-1.083 1.083-.798-.798c-.098-.099-.256-.097-.354 0-.098.098-.098.256 0 .354l.798.798-1.67 1.67c-.236.236.124.583.354.354l1.67-1.67.8.8c.097.097.255.098.354 0 .098-.098.098-.256 0-.354l-.8-.8 1.083-1.082.416.416-.849.849c-.098.098-.098.256 0 .354.099.099.257.096.354 0l.849-.849.372.372c.099.099.257.097.354 0 .098-.098.098-.256 0-.354l-.372-.372.741-.741c-.018.733-.034 1.466-.053 2.201-.398.038-1.106.139-1.615.258-2.187.516-3.939 1.739-4.71 3.879l-.281.281-1.313-1.313 1.624-1.624c.073-.073.073-.176.036-.266l.814.815c.099.099.257.096.354 0 .098-.098.098-.256 0-.354l-1.723-1.724c-.097-.098-.255-.098-.354 0-.098.098-.098.256 0 .354l.785.785c-.09-.037-.193-.037-.266.036l-1.624 1.624-.798-.798c-.098-.098-.256-.098-.354 0s-.098.256 0 .354l.798.798-1.544 1.544-.75-.75.664-.664c.098-.098.098-.256 0-.353-.098-.098-.256-.098-.354 0l-.664.664-.464-.464c-.098-.098-.256-.098-.354 0s-.098.256 0 .354l.464.464-1.44 1.438-.544-.544.157-.157c.098-.098.098-.256 0-.354s-.256-.098-.354 0l-.157.157-.285-.285c-.098-.098-.256-.098-.354 0s-.098.256 0 .354l.285.285-1.493 1.493-1.057-1.057.369-.369c.098-.098.098-.256 0-.354s-.256-.098-.354 0l-.483.485c-.029.012-.063.012-.087.036s-.024.057-.036.087l-2.787 2.788-.105-.105c-.098-.098-.256-.098-.354 0s-.098.256 0 .354l.105.105-1.058 1.058-.285-.285c-.098-.098-.256-.098-.354 0s-.098.256 0 .354l.285.285-1.033 1.033c-.222-.083-.399-.248-.41-.419zm16.614-3.442-1.165-.035-.162-.162c.025-.012.055-.01.076-.031l1.491-1.491.001.001c-.125.562-.197 1.151-.241 1.718zm-5.304-.582-.567-.567 1.442-1.442.75.75-1.362 1.362c-.091.091-.089.231-.01.33l-.412-.012c.058-.004.116-.022.16-.066.097-.099.097-.257-.001-.355zm1.978-.906 1.432 1.432-2.782-.083zm1.689.982-1.336-1.336 1.544-1.544 1.314 1.313-1.49 1.491c-.021.021-.02.051-.032.076zm-12.499 3.66-.327-.327 1.058-1.058.972.972c.045.045.104.064.163.067-.607.243-1.225.462-1.851.665.071-.098.073-.231-.015-.319zm2.056-.767-.972-.972 1.005-1.005 1.057 1.057-.157.157c-.098.098-.098.256 0 .354.097.097.255.098.354 0l.157-.157.011.011c.097.097.255.098.354 0 .098-.098.098-.256 0-.354l-.011-.011 1.313-1.313.544.544-.208.208c-.053.053-.071.124-.066.193-1.082.619-2.214 1.15-3.374 1.625.084-.098.086-.244-.007-.337zm1.7-3.644 1.057 1.057-1.314 1.313-1.057-1.057zm2.309 1.601-.544-.544 1.493-1.493.544.544zm-6.862 3.401c-.202.057-.402.111-.592.143l.708-.708.327.327c.033.033.077.038.118.049-.187.06-.37.133-.561.189zm8.451-3.937c-.106.003-.21.027-.297.088-.119.082-.246.15-.367.23l.922-.922.567.567c.044.044.101.061.158.065zm13.259 18.452.675-.675.415.415c-.093.028-.182.065-.275.092-.284.082-.56.151-.815.168zm5.324-5.324 1.11 1.11-1.039 1.039-.768-.768c-.098-.098-.256-.098-.354 0s-.098.256 0 .354l.768.768-1.051 1.051c-.023.023-.022.055-.035.083l-1.134-1.135zm3.517-.589.614.614-1.7 1.7-.614-.614zm-1.44 2.667-.154.154c-.055.055-.071.126-.065.197-.321.186-.654.352-.983.526l-.451-.451 1.039-1.039zm-1.666 1.119c-.427.216-.858.421-1.296.616l.956-.956zm-3.266-.341 1.231 1.232c.013.013.031.01.046.019-.696.287-1.405.547-2.126.781l-.592-.592zm6.797-1.635c-.114-.002-.21.027-.297.087-.079.054-.164.1-.244.153l1.082-1.082.884.885zm2.005-2.306.945.945-1.11 1.11-.944-.945zm5.729 2.534-5.504-.163 1.073-1.073 1.003 1.003c.097.097.255.098.354 0 .001-.001.001-.004.002-.005.01.016.007.037.021.052.099.099.257.096.354 0l1.523-1.522.756.756-.225.225c-.098.098-.098.256 0 .354.097.097.255.098.354 0l.225-.225.156.156c.097.097.255.098.354 0 .098-.098.098-.256 0-.353l-.156-.156 1.133-1.133 1.788 1.788c-.946.321-2.085.334-3.211.296zm-1.527-2.062-1.523 1.523c-.001.001-.001.004-.002.005-.01-.017-.007-.038-.021-.052l-1.003-1.004 1.511-1.511zm.707 0 1.133-1.133.755.755-1.133 1.133zm4.493 1.573c-.054-.136-1.794-1.846-1.898-1.95l.991-.991 1.762 1.762c.097.097.255.098.354 0 .098-.098.098-.256 0-.354l-1.762-1.762.553-.553c.098-.098.098-.256 0-.354s-.256-.098-.354 0l-.553.553-.838-.838c-.098-.098-.256-.098-.353 0-.098.098-.098.256 0 .354l.838.838-.992.992-.756-.755.115-.115c.098-.098.098-.256 0-.353-.098-.098-.256-.098-.354 0l-.115.115-1.074-1.074c-.098-.098-.256-.098-.354 0s-.098.256 0 .354l1.074 1.074-1.133 1.133-1.126-1.126c-.01-.045-.017-.092-.052-.127s-.082-.043-.127-.053l-.453-.453c-.098-.098-.256-.098-.354 0s-.098.256 0 .354l.366.366-1.511 1.511-.945-.945.716-.716c.098-.098.098-.256 0-.354s-.256-.098-.353 0l-.836.836c-.027.012-.058.011-.08.033s-.021.053-.033.08l-1.23 1.23-.656-.656c.011-.076-.001-.153-.059-.211-.075-.075-.18-.074-.272-.034-.073-.009-.147.005-.204.062-.045.045-.063.103-.067.162l-1.762 1.762-1.11-1.11c.255-.255.693-.56.45-.803-.098-.098-.256-.098-.354 0l-5.099 5.099-.059-.059c-.098-.098-.256-.098-.354 0s-.098.256 0 .354l.059.059-.814.814c-.035.035-.043.083-.053.128-.57-.288-.295-.674.118-1.143.663-.745 1.264-1.363 1.936-2.15.129-.15.156-.362.071-.541-.084-.173-.26-.283-.451-.283-.005 0-.01 0-.016 0-6.65.203-7.346-1.36-7.204-5.89.39-10.37-.832-14.103 8.986-14.103 5.266.008 10.54.016 15.805.016 3.517 0 4.193 1 4.118 4.129-.034 1.511-.073 3.021-.109 4.531-.035.012-.074.014-.102.042l-1.435 1.436c-.098.098-.098.256 0 .354.097.097.255.098.354 0l.154-.154.967.967c-.01.4-.019.8-.029 1.2l-.395-.395.104-.104c.098-.098.098-.256 0-.353-.098-.098-.256-.098-.354 0l-.104.104c-.251-.251-.55-.68-.791-.437-.098.098-.098.256 0 .354l.437.437-1.251 1.251-.248-.248c-.098-.098-.256-.098-.354 0s-.098.256 0 .353l.248.248-1.004 1.004c-.098.098-.098.256 0 .353.097.097.255.098.354 0l1.004-1.004 1.345 1.345-.39.39c-.098.098-.098.256 0 .354.099.099.257.096.354 0l.98-.98c0 .011 0 .021-.001.031-.046 1.939-.193 3.762-1.876 4.607z" fill="#707070" data-original="#000000" style=""/><path xmlns="http://www.w3.org/2000/svg" d="m22.144 30.392c-1.093.561-1.503 1.756-1.864 2.81l-.034.1c-2.363 6.875-5.698 10.627-11.418 12.824-1.081-4.257-4.879-5.085-6.462-.811-1.676 4.525-1.811 9.53-.359 13.387 1.637 4.358 5.483 4.155 6.732.528 1.14.875 2.557 1.513 4.252 1.87 2.824.596 11.457.743 17.187-.015 5.277-.699 5.304-4.055 3.886-5.322 1.812-1.838.995-4.17-.605-4.771.45-.565.803-1.207 1.004-1.903.516-1.788-.197-3.001-1.25-3.379 1.309-2.906-2.105-6.946-8.022-3.965 1.067-2.095 1.635-4.444 1.586-6.799-.092-4.571-3.166-5.309-4.633-4.554zm-19.203 27.959c-2.522-6.706.627-18.218 4.04-13.979.526.655.779 1.533.975 2.385.809 3.535.868 7.284.173 10.843-.914 4.639-3.92 4.124-5.188.751zm9.655 1.612-.089-.089.336-.336.608.609-.016.016c-.655-.128-.212-.035-.839-.2zm2.198-.452.622.622-.266.267c-.278-.026-.556-.051-.83-.088-.083-.09-.074-.078-.161-.166zm2.071-.118.582.582c-.134.134-.43.37-.419.543-.182-.006-.362-.015-.543-.024l-.36-.36zm.729 1.141.206-.206.219.219c-.187-.005-.364-.011-.425-.013zm1.59.036.283-.283.291.291c-.192-.003-.385-.005-.574-.008zm2.069.018.277-.277.276.276c-.185.001-.369.002-.553.001zm3.594-1.561c.006.007.003.017.01.024l.456.457-.862.862c-.001-.001 0-.003-.002-.004l-.471-.47zm6.229-.861.487.487-.516.516-.487-.487zm-.383 1.357-.557.557c-.031.004-.062.009-.092.013-.319.042-.64.075-.96.111l-.024-.023 1.145-1.145zm.426.393c-.046.009-.092.017-.138.026l.066-.066c.057.057.015.007.072.04zm-2.711.319c0 .016.015.028.018.044-.52.052-1.039.096-1.558.132-.006-.017-.01-.034-.021-.05l.844-.843zm-2.259.119c-.028.029-.031.068-.043.103-.366.021-.73.042-1.093.057l.653-.653.487.487zm-2.217.201c-.21.006-.417.009-.626.014l.32-.32zm7.508-.716c.063-.106.059-.216-.04-.316l.516-.516.212.212c.097.097.255.098.353 0s.098-.256 0-.354l-.212-.212.337-.337c.089-.089.086-.224.013-.322.02-.011.046-.009.063-.026l.146-.146.408.408c.234.234.586-.121.354-.354l-.408-.408.458-.458c.029-.029.032-.069.044-.105.462.948-.041 2.371-2.244 2.934zm-7.985-17.123c-.099.073-.167.174-.193.288-.284.396-.583.782-.91 1.144-.186.205-.169.521.036.706.206.186.522.169.706-.036.389-.432.74-.895 1.072-1.37 8.279-4.789 9.808 1.991 7.077 2.873-.263.084-.407.366-.322.629.228.706 1.146.188 1.669-.334 2.018-.112 1.096 4.769-2.711 5.476-.271.05-.451.311-.4.582.19 1.043 2.417-.2 3.221-.893.059.042.126.075.202.089 1.307.229 1.801 2.3.082 3.525-.601.43-1.411.696-2.408.79-.275.026-.477.271-.451.545.024.256.239.47.545.451 1.018-.097 1.876-.365 2.575-.779.087.052.169.113.239.19-.07-.006-.141.012-.195.066l-.458.458-.156-.156c-.098-.098-.256-.098-.354 0s-.098.256 0 .354l.156.156-.146.146c-.089.089-.086.224-.013.322-.021.011-.046.009-.063.026l-.338.336-.531-.531c-.082-.082-.202-.079-.298-.023-.097-.068-.228-.071-.314.016l-.567.567-.17-.17c-.098-.098-.256-.098-.354 0s-.098.256 0 .354l.17.17-1.145 1.145-.663-.663 1.154-1.154c.098-.098.098-.256 0-.354s-.256-.098-.354 0l-1.154 1.154-.233-.233c-.098-.098-.256-.098-.354 0s-.098.256 0 .354l.233.233-.83.83-.487-.487 1.079-1.079c.098-.098.098-.256 0-.354s-.256-.098-.353 0l-1.079 1.079-.456-.457c-.014-.014-.036-.012-.052-.022.048-.094.05-.205-.029-.284-.097-.097-.255-.099-.353 0l-1.151 1.15-.454-.454c-.099-.099-.257-.097-.354 0-.098.098-.098.256 0 .354l.454.453-.594.593c-.025.025-.026.06-.038.092-.063.001-.127.003-.189.004-.012-.035-.014-.072-.041-.1l-.526-.526 1.704-1.704c.098-.098.098-.256 0-.354s-.256-.098-.353 0l-1.704 1.704-.247-.247c-.098-.098-.256-.098-.354 0s-.098.256 0 .354l.247.247-.629.629c-.031 0-.061-.001-.092-.001-.082-.106-.54-.557-.635-.652l1.168-1.168c.098-.098.098-.256 0-.353-.098-.098-.256-.098-.354 0l-1.168 1.168-.162-.162c-.097-.097-.255-.099-.353 0-.098.098-.098.256 0 .354l.162.162-.501.501-.459-.459 1.235-1.235c.098-.098.098-.256 0-.354s-.256-.098-.353 0l-1.236 1.234-.582-.582.472-.472c.098-.098.098-.256 0-.354-.097-.098-.255-.098-.354 0l-.514.514c-.075-.01-.151.002-.208.06-.058.057-.071.133-.06.208l-.784.785-.622-.622.42-.42c.098-.098.098-.256 0-.354-.098-.097-.256-.099-.354 0l-.566.566c-.013.009-.031.006-.043.018s-.009.029-.018.043l-.782.782-.608-.609.843-.843c.098-.098.098-.256 0-.354s-.256-.098-.354 0c-.33.33-1.204 1.204-1.533 1.533-.209-.209-.395-.463-.606-.252-.094.094-.109.244.019.373-.985-.365-1.846-.84-2.545-1.444.03-.136.061-.272.087-.406.685-3.502.657-7.179-.063-10.678 6.038-2.283 9.688-6.337 12.144-13.486l.035-.101c.314-.918.641-1.867 1.375-2.245 1-.511 3.102.099 3.174 3.688.059 2.742-.782 5.477-2.318 7.747z" fill="#707070" data-original="#000000" style=""/><path xmlns="http://www.w3.org/2000/svg" d="m6.068 55.129c-.549-.119-1.148.027-1.604.396-.475.384-.746.925-.744 1.484.002.524.243 1.004.68 1.353 1.227.975 2.991.123 3.083-1.342.053-.873-.568-1.704-1.415-1.891zm-.331 2.639c-.253.036-.518-.03-.716-.188-.196-.157-.301-.355-.302-.574-.001-.254.135-.511.373-.703.171-.139.388-.215.594-.215.057 0 .112.006.167.018.359.079.654.479.631.854-.024.383-.359.745-.747.808z" fill="#707070" data-original="#000000" style=""/><path xmlns="http://www.w3.org/2000/svg" d="m21.141 8.959c.038.124.168.206.313.166.132-.04.206-.181.166-.313-.095-.312-.216-.615-.348-.913.698-.06 1.377-.113 2.775-.187l.344.745c.058.127.208.18.331.122.126-.058.181-.206.122-.331l-.262-.567c1.097-.051 2.197-.077 3.297-.087l.128.595c.025.117.129.197.244.197.157 0 .278-.146.244-.303l-.105-.486c1.013-.003 2.024.012 3.034.045-.025.132-.037.266-.081.393-.045.13.024.273.155.317.122.045.27-.02.317-.155.06-.174.081-.356.111-.536.502.019 1.006.03 1.507.058.132-.003.255-.098.264-.236.007-.138-.099-.256-.236-.264-.494-.027-.99-.038-1.486-.056.002-.213.004-.426-.035-.636-.025-.135-.152-.227-.292-.2-.136.025-.226.156-.2.292.032.173.03.349.029.525-1.064-.035-2.129-.051-3.195-.047l-.132-.617c-.029-.135-.164-.22-.297-.191-.135.028-.221.162-.191.297l.11.509c-1.14.011-2.279.041-3.416.097l-.15-.325c-.058-.126-.209-.181-.331-.122-.126.058-.181.206-.122.331l.07.151c-1.098.061-1.79.102-2.782.193-.018-.035-.033-.073-.052-.108.086-.048.14-.143.129-.246-.015-.137-.134-.233-.275-.223l-.277.029c-.085.01-.159.061-.197.138s-.034.168.01.241c.044.072.076.151.118.224-1.295.148-1.924.35-2.526.601-.171-.273-.419-.842-.697-.746-.109.037-.179.146-.168.261l.007.066.083.009-.055.034.005.008-.029.003c.01.1.076.179.164.211l.234.372c-.458.239-.918.571-1.319 1.014l-1.057-.701c-.113-.076-.27-.047-.346.07-.076.114-.045.27.07.346l1.009.67c-.75 1.08-.78 2.335-.296 3.229.065.12.215.167.339.101.121-.066.166-.217.101-.339-.391-.723-.371-1.789.274-2.714l.849.563c.113.076.269.047.346-.07.076-.114.045-.27-.07-.346l-.801-.531c.356-.378.762-.661 1.167-.869l.375.597c.074.117.227.152.345.079.117-.073.152-.228.079-.345l-.341-.542c.57-.229 1.193-.42 2.504-.558.154.328.292.663.398 1.011z" fill="#707070" data-original="#000000" style=""/><path xmlns="http://www.w3.org/2000/svg" d="m53.683 22.001c-.495-.04-.994-.068-1.492-.099.031-.284.041-.571.008-.853-.016-.137-.146-.231-.277-.219-.137.016-.235.14-.219.277.03.252.021.508-.009.762-.491-.028-.983-.05-1.475-.07.019-.195.052-.388.113-.574.043-.131-.028-.273-.159-.316-.137-.046-.274.028-.316.159-.076.23-.115.469-.137.71-.876-.031-1.752-.051-2.629-.057-.024-.214-.026-.43.02-.638.03-.135-.055-.269-.189-.299-.14-.03-.269.056-.299.189-.054.244-.056.494-.035.741-.811-.001-1.62.008-2.427.028l-.267-.79c-.044-.131-.185-.205-.316-.156-.131.044-.201.186-.156.316l.218.644c-1.023.034-2.023.103-2.991.392-.237.071-.457.164-.675.259-.1-.25-.354-.862-.918-.897-.167.003-.256.098-.266.234-.008.138.097.257.234.266.175.01.335.207.492.602l.008.019c-.763.417-1.417.981-1.8 1.769-.174-.146-.357-.284-.548-.407-.115-.075-.271-.042-.345.075-.075.116-.041.271.075.345.221.142.424.308.619.483-.266.883-.162 1.842.321 2.538.075.111.23.143.348.063.113-.078.142-.234.063-.348-.346-.498-.43-1.165-.305-1.816.201.234.387.481.54.749.069.121.222.161.341.093.12-.068.161-.221.093-.341-.221-.386-.492-.742-.801-1.061.251-.599.618-1.131 1.586-1.675l.515 1.292c.05.126.193.191.325.14.128-.052.19-.196.14-.325l-.532-1.335c.203-.089.41-.175.633-.242.96-.285 1.974-.345 3.016-.376l.355 1.05c.046.137.195.201.316.156.131-.044.201-.186.156-.316l-.305-.901c.782-.018 1.566-.027 2.352-.024.089.299.221.585.415.833.088.11.245.125.352.041.108-.086.127-.243.041-.352-.121-.153-.208-.331-.278-.515.834.007 1.668.026 2.502.056.016.247.05.493.123.731.039.125.168.207.313.166.132-.04.206-.18.166-.313-.056-.183-.085-.374-.1-.565.462.019.923.038 1.383.064-.057.209-.127.414-.224.606-.062.123-.012.274.111.336.13.063.277.007.336-.111.127-.251.215-.521.283-.797.514.032 1.029.061 1.541.102.139.021.258-.092.269-.229.008-.138-.094-.258-.232-.269z" fill="#707070" data-original="#000000" style=""/><path xmlns="http://www.w3.org/2000/svg" d="m21.339 37.706c.039-.179.08-.357.11-.537.022-.136-.069-.265-.206-.288-.135-.021-.266.07-.288.206-.024.141-.057.281-.086.421l-.164-.069c-.126-.055-.274.006-.327.134-.054.127.006.273.134.327l.246.104c-.095.373-.213.741-.345 1.104l-.361-.165c-.126-.058-.274-.003-.332.123s-.002.274.123.332l.39.179c-.246.592-.544 1.163-.884 1.707l-.607-.28c-.122-.058-.273-.004-.331.122-.059.125-.004.273.122.331l.543.251c-.499.727-1 1.3-1.618 1.882-.105-.129-.214-.256-.29-.403-.063-.123-.215-.172-.337-.106-.123.063-.17.215-.106.337.095.182.216.351.347.511-.558.486-1.15.931-1.768 1.343-.185-.153-.349-.332-.466-.542-.069-.121-.223-.161-.341-.095-.12.067-.162.22-.095.341.122.217.288.405.471.575-.554.353-1.121.686-1.693 1.007l-.432-.658c-.075-.114-.229-.146-.347-.071-.115.076-.148.23-.071.347l.412.627c-.308.17-.616.338-.923.505-.121.066-.166.218-.101.339s.216.167.339.101c.315-.171.636-.347.96-.526l.274.416c.055.083.146.223.313.278.115.043.266.026.383-.063.098-.075.15-.189.141-.308-.01-.137-.12-.259-.269-.229-.055.004-.103.025-.143.059-.003-.005-.006-.009-.008-.013l-.254-.386c.615-.346 1.234-.711 1.843-1.105.234.141.484.255.751.312.018.003.035.005.052.005.116 0 .22-.081.245-.198.028-.136-.059-.268-.193-.297-.136-.029-.269-.073-.396-.13.577-.393 1.134-.817 1.662-1.276.152.134.312.257.486.357.119.068.272.028.341-.093.068-.12.027-.272-.093-.341-.126-.072-.231-.175-.343-.268.647-.608 1.201-1.242 1.729-2.021l.625.288c.123.058.273.005.331-.122.059-.125.004-.273-.122-.331l-.567-.261c.337-.546.634-1.117.881-1.71l.191.087c.124.057.274.004.332-.123.058-.126.002-.274-.123-.332l-.218-.1c.136-.367.255-.739.354-1.117l.396.166c.122.053.272-.003.327-.134.054-.127-.007-.273-.134-.327z" fill="#707070" data-original="#000000" style=""/></g></svg>
