<?xml version="1.0"?>
<svg xmlns="http://www.w3.org/2000/svg" xmlns:xlink="http://www.w3.org/1999/xlink" xmlns:svgjs="http://svgjs.com/svgjs" version="1.1" width="512" height="512" x="0" y="0" viewBox="0 0 66 66" style="enable-background:new 0 0 512 512" xml:space="preserve"><g><g xmlns="http://www.w3.org/2000/svg"><path d="m47.423 7.874c-1.232-.042-2.463-.083-3.695-.121-.774-2.375-2.528-2.512-4.084-2.565l-.64-.018-.004-.014c-.719-3.124-1.562-3.922-4.668-4.1-1.981-.097-4.446-.214-6.408 1.011-.96.6-1.825 1.547-2.457 2.685-.002 0-.004 0-.005 0-2.095 0-4.048.541-4.698 2.54-1.463-.072-2.881-.149-4.296-.131-4.119.048-7.385 1.537-8.735 3.981-1.305 2.338-.88 1.138-.88 46.417.03 5.081 1.487 7.479 8.757 7.441l36.219-.249c4.065-.029 6.281-1.096 6.673-7.396.92-14.7.947-29.18.083-43.038-.445-6.85-4.056-6.204-11.162-6.443zm-25.343-.126 1.121 1.121-1.299 1.299-.431-.431c-.004-.004-.011-.003-.015-.006.012-.922-.046-.987.041-1.563.078.018.128.036.212-.047zm-.643 2.607.139.139-.158.158c.007-.099.014-.197.019-.297zm-.094 2.525v-.129c0-.001-.001-.002-.001-.003v-.025c-.002-.028.001-.057 0-.086l.79.789-.523.523c-.132-.33-.234-.684-.266-1.069zm-.888.327c.003.021.011.039.014.059.172 1.122.741 2.222 1.683 2.801.992.611 2.241.593 3.215.567 4.622-.12 9.252-.24 13.872-.369 1.021-.027 2.291-.061 3.269-.791.673-.496 1.106-1.288 1.316-2.072 2.42.026 4.82.058 7.195.105-.059 6.893-.264 13.941-.463 20.762-.103 3.589-.206 7.177-.291 10.759-.786-.135-2.531-.264-6.662-.219-3.063.035-4.506.85-4.463 3.959.033 2.353.339 4.699.894 6.984-10.443.061-18.524-.34-26.049-1.298-.915-13.72-.585-27.622.979-41.334 1.202.025 2.565.048 5.491.087zm10.08 1.701.647.646c.001.001.003.001.004.002-.445.012-.89.024-1.334.036zm12.413-6.595c.02.081.034.171.051.256l-.563-.563.306-.306c.08.188.149.391.206.613zm-2.041 47.124c-.523-2.188-.814-4.431-.845-6.681-.032-2.499.91-2.995 3.551-3.025 3.807-.042 5.504.064 6.265.165zm-11.077-53.197-.654.654-.291-.291c.304-.147.618-.272.945-.363zm-1.418.609c.014-.009.03-.014.044-.023l.394.394-.332.332c-.09.09-.09.236 0 .326s.235.091.326 0l.332-.332 1.206 1.206c.09.089.235.091.326 0 .09-.09.09-.236 0-.326l-1.206-1.206 1.158-1.158c1.22-.197 2.504-.139 3.624-.085 2.615.15 3.176.599 3.818 3.385l.086.366c.048.203.227.349.436.354l.993.027c1.242.043 2.231.113 2.9 1.166l-.407.406-.087-.087c-.09-.09-.236-.09-.326 0s-.09.236 0 .326l.087.087-.087.087c-.09.09-.09.236 0 .326.089.089.235.091.326 0l.087-.087.574.574-.624.624-.587-.587c-.09-.09-.236-.09-.326 0s-.09.236 0 .326l.587.587-.187.187c-.09.09-.09.236 0 .326.089.09.235.091.326 0l.187-.187.687.687c.09.089.235.091.326 0 .09-.09.09-.236 0-.326l-.687-.687.705-.705c.054.45.083.954.083 1.551 0 .705-.016 1.431-.163 2.117-.002.008-.002.016-.004.024-.177.881-.52 1.499-1.049 1.889-.016.012-.036.017-.052.028.024-.079.021-.164-.041-.227l-1.253-1.253.824-.824.557.557c.017.017.04.014.06.025l-.605.605c-.09.09-.09.236 0 .326.089.089.235.091.326 0l1.039-1.04c.09-.09.09-.236 0-.326-.091-.091-.237-.09-.326 0l-.144.144c-.011-.019-.008-.043-.025-.06l-.557-.557.559-.559c.09-.09.09-.236 0-.326s-.236-.09-.326 0l-.559.559-.899-.899.037-.037c.09-.09.09-.236 0-.326s-.236-.09-.326 0l-2.637 2.637-.437-.437c-.09-.09-.236-.09-.326 0s-.09.236 0 .326l.437.437-1.137 1.137c-.09.09-.09.236 0 .326.089.09.235.091.326 0l1.137-1.137 1.14 1.14c.09.09.235.091.326 0 .057-.057.065-.133.05-.206l1.159-1.159 1.253 1.253c.028.028.066.032.102.042-.713.372-1.611.418-2.427.44-2.468.069-4.939.132-7.409.197l.856-.857.742.742c.09.089.235.091.326 0 .09-.09.09-.236 0-.326l-.742-.742 1.317-1.318c.09-.09.09-.236 0-.326s-.236-.09-.326 0l-1.323 1.323c-.091-.075-.223-.077-.308.008s-.083.217-.008.308l-.854.855-.624-.624.781-.781c.09-.09.09-.236 0-.326s-.236-.09-.326 0l-.883.883c-.03.011-.062.012-.086.036s-.024.056-.036.086l-1.064 1.065c-.018.018-.016.043-.027.064-1.293.034-2.587.07-3.879.103-1.058.029-1.984.015-2.707-.43-.331-.203-.605-.515-.821-.885l2.344-2.344c.09-.09.09-.236 0-.326s-.236-.09-.326 0l-1.375 1.375-1.118-1.118c.007-.219.02-.444.036-.669.018-.01.04-.008.056-.023l.471-.471.859.859c.09.09.235.091.326 0 .09-.09.09-.236 0-.326l-.859-.859 1.299-1.299.08.08c.089.089.235.091.326 0 .09-.09.09-.236 0-.326l-.08-.08.113-.113c.09-.09.09-.236 0-.326s-.236-.09-.326 0l-.113.113-1.121-1.121.943-.943 1.188 1.188c.006.049.019.098.056.135s.087.05.135.056l.088.088c.091.091.237.089.326 0 .09-.09.09-.236 0-.326l-.018-.021 1.022-1.022.845.844c.09.089.235.091.326 0 .09-.09.09-.236 0-.326l-.845-.844 1.18-1.18.745.744-.907.907c-.09.09-.09.236 0 .326s.235.091.326 0l.907-.907.026.026c.089.09.235.091.326 0 .09-.09.09-.236 0-.326l-.026-.026.953-.953c.09-.09.09-.236 0-.326s-.236-.09-.326 0l-.954.954-1.559-1.559c.383-.437.806-.805 1.251-1.083zm10.423 11.557-.899-.899 1.124-1.124.899.899zm.551-2.349.824-.824.899.899-.824.824zm-14.128-6.376c.005.006.003.015.009.021l.551.55-1.022 1.022-1.121-1.121.369-.369c.407-.071.816-.097 1.214-.103zm.894-.255c.209-.408.459-.778.725-1.126l.446.446-1.18 1.18-.283-.283c.122-.034.233-.101.292-.217zm-3.135.677c.006.014.008.028.017.04l-.996.996c-.065-.005-.13.011-.18.061s-.066.115-.061.18l-.145.145c.265-.757.708-1.13 1.365-1.422zm13.385 57.287.526.526c.009.01.024.007.035.014l-.995.007c-.005-.029-.018-.055-.033-.08zm2.066-.209.734.734-1.479.01zm1.847.726.457-.457.451.451zm5.834-.265c.129 0 .231-.104.231-.231l.769-.769 1.004 1.004c-.005.065.011.13.061.18.018.018.044.016.065.027l-2.357.016zm2.773-2.774c.006.007.003.017.01.024l.945.945-1.44 1.44-.961-.961zm2.899 2.96-3.343.023c.02-.011.045-.009.062-.026l1.663-1.663 1.354 1.354c.089.09.235.091.326 0 .09-.09.09-.236 0-.326l-1.355-1.354 1.351-1.351.873.873-1.049 1.049c-.09.09-.09.236 0 .326.089.089.235.091.326 0l1.049-1.049 1.052 1.052c.091.091.237.089.326 0 .09-.09.09-.236 0-.326l-1.052-1.052 1.201-1.201.609.609-.901.901c-.09.09-.09.236 0 .326.089.09.235.091.326 0l.901-.901.894.894c.009.009.022.006.032.013-1.067 1.712-2.62 1.815-4.645 1.829zm5.422-3.828c-.128.579-.305 1.118-.543 1.601l-.833-.833 1.051-1.051c.094.095.212.231.325.283zm-1.703.442-.609-.609 1.051-1.051.609.609zm2.457-12.452c.026-.031.036-.067.043-.104-.002.049-.004.097-.006.146.001 0 .007.002-.037-.042zm-.89-.891 1.002-1.001c-.018.57-.044 1.142-.065 1.713-.007-.046-.018-.093-.053-.129-.085-.085-.218-.083-.308-.007zm1.089-4.658-.378-.378.4-.401c-.005.261-.014.524-.02.786-.001-.002 0-.005-.002-.007zm.047-2.108-.282-.282.288-.288c-.003.19-.003.379-.006.57zm-.111 4.799-.854-.854.897-.897c-.013.583-.026 1.166-.043 1.751zm-.365 8.783c-.011-.028-.011-.059-.034-.082l-.486-.486.583-.583c-.018.384-.042.768-.063 1.151zm-.147 2.679-.66-.66.737-.737c-.027.466-.049.93-.077 1.397zm.635-17.49-.62.62-.294-.294c-.09-.09-.236-.09-.326 0s-.09.236 0 .326l.294.294-.308.308c-.09.09-.09.236 0 .326.09.089.235.091.326 0l.308-.308.308.308c.076.076.183.097.297.012-.002.099-.002.198-.004.297l-.743.744c-.201-.201-.397-.473-.598-.272-.09.09-.09.236 0 .326l.272.272-.437.438c-.09.09-.09.236 0 .326.089.089.235.091.326 0l.438-.438.378.378c.045.045.104.068.163.068.058 0 .114-.023.158-.065-.001.051-.003.103-.004.154-.082-.032-.174-.031-.241.035l-.994.994-.271-.271c-.09-.09-.236-.09-.326 0s-.09.236 0 .326l.271.271-.521.521c-.09.09-.09.236 0 .326s.235.091.326 0l.521-.521.943.943c.022.022.052.022.079.033l-1.194 1.194-.637-.637c-.09-.09-.236-.09-.326 0s-.09.236 0 .326l.637.637-.427.427c-.09.09-.09.236 0 .326.091.091.237.089.326 0l.427-.427.57.57-1.011 1.011c-.09.09-.09.236 0 .326.089.09.235.091.326 0l1.011-1.011.029.029c.045.045.104.068.163.068.056 0 .109-.024.153-.064-.022.566-.044 1.131-.068 1.698-.011-.027-.011-.058-.033-.08-.09-.09-.236-.09-.326 0l-.484.484-.548-.548c-.09-.09-.236-.09-.326 0s-.09.236 0 .326l.548.548-.64.64c-.09.09-.09.236 0 .326s.235.091.326 0l.64-.64.237.237c.09.09.235.091.326 0 .09-.09.09-.236 0-.326l-.237-.237.484-.484c.017-.017.015-.042.026-.062-.031.712-.059 1.423-.094 2.137-.09-.066-.214-.069-.295.013l-.635.635-.359-.359c-.09-.09-.236-.09-.326 0s-.09.236 0 .326l.359.359-.49.49c-.09.09-.09.236 0 .326s.235.091.326 0l.49-.49.486.486c.089.09.235.091.326 0 .016-.016.013-.039.024-.057-.007.135-.015.27-.022.405l-1.101 1.101-.311-.311c-.09-.09-.236-.09-.326 0s-.09.236 0 .326l.311.311-.475.475c-.09.09-.09.236 0 .326.09.089.235.091.326 0l.475-.475.952.951c-.002.029-.003.057-.005.086-.047.747-.122 1.485-.244 2.187l-.172-.172c-.009-.043-.017-.087-.05-.12s-.077-.041-.12-.05l-.688-.688.015-.015c.09-.09.09-.236 0-.326s-.236-.09-.326 0l-.015.014-.617-.617c-.089-.089-.235-.091-.326 0-.09.09-.09.236 0 .326l.617.617-1.051 1.051-.318-.318c-.09-.09-.236-.09-.326 0s-.09.236 0 .326l.318.318-1.201 1.201-.873-.873.779-.779c.09-.09.09-.236 0-.326s-.236-.09-.326 0l-.779.779-.166-.166c-.089-.09-.235-.091-.326 0-.09.09-.09.236 0 .326l.166.166-1.351 1.351-.945-.945c-.007-.007-.017-.004-.024-.01l.099-.099c.09-.09.09-.236 0-.326s-.236-.09-.326 0l-1.858 1.858-.346-.346c-.09-.09-.236-.09-.326 0s-.09.236 0 .326l.346.346-.722.722-1.154-1.154c-.09-.09-.236-.09-.326 0s-.09.236 0 .326l1.154 1.154-.316.316c-.053.053-.065.124-.055.193l-2.799.019.861-.861.732.732c.091.091.237.089.326 0 .09-.09.09-.236 0-.326l-.732-.732 1.694-1.694c.09-.09.09-.236 0-.326s-.236-.09-.326 0l-1.694 1.694-.316-.316c-.09-.09-.236-.09-.326 0s-.09.236 0 .326l.316.316-1.192 1.192-.152.001c-.008-.046-.018-.092-.053-.127l-.645-.646 1.247-1.247c.09-.09.09-.236 0-.326s-.236-.09-.326 0l-1.247 1.247-.017-.017c-.09-.089-.236-.091-.326 0-.09.09-.09.236 0 .326l.017.017-.788.788h-.072c.057-.089.06-.204-.018-.282l-.775-.775.852-.852c.09-.09.09-.236 0-.326s-.236-.09-.326 0l-2.021 2.021c-.01-.038-.015-.078-.044-.107l-.526-.526.351-.351c.09-.09.09-.236 0-.326s-.236-.09-.326 0l-.369.37c-.087-.045-.192-.048-.265.025s-.071.178-.025.265l-.471.471-.615-.615c-.09-.09-.236-.09-.326 0s-.09.236 0 .326l.615.615-.1.1-19.594.135c-7.024.028-7.803-2.192-7.828-6.521 0-45.277-.381-43.915.763-45.966 1.189-2.152 4.157-3.463 7.94-3.506 1.359-.019 2.896.064 4.071.122-.025.23-.036.637-.017.958.057.936-.087 1.677-.114 2.905-.002.072-.011.141-.011.213-1.965-.026-3.917-.051-5.843-.094-.23.017-.441.172-.468.408-1.626 14.029-1.964 28.26-1.007 42.299.015.219.183.397.401.426 9.065 1.179 18.208 1.425 27.327 1.351.126-.001.246-.054.332-.145l9.896-10.524c.078-.083.122-.191.125-.305.087-3.795.197-7.598.308-11.401.203-6.976.413-14.19.467-21.237.002-.252-.199-.459-.451-.465-2.472-.052-4.967-.087-7.488-.114.124-.951.129-2.718-.044-3.797 1.143.036 2.287.075 3.431.113 7.425.252 9.895-.295 10.272 5.58.501 8.052.691 16.324.589 24.724z" fill="#707070" data-original="#000000" style=""/><path d="m21.393 31.404c23.88 0 22.904.151 23.954-.402 1.6-.843 1.988-3.481-1.51-3.712-6.871-.453-13.848-.634-20.814-.533-1.365.019-3.904.054-4.691 1.587-.416.814-.242 1.413-.022 1.772.623 1.018 2.289 1.288 3.083 1.288zm21.454-3.247-.057.057-.063-.063c.039.001.08.003.12.006zm-8.189-.381-.217.216-.227-.227c.148.004.296.006.444.011zm-3.644-.005-.085-.085c.059.001.119.001.178.002-.006.005-.014.003-.019.008zm-3.475-.113.301.301-.584.584c-.09.09-.09.236 0 .326s.235.091.326 0l.584-.584.409.409c.09.089.235.091.326 0 .09-.09.09-.236 0-.326l-.409-.409.154-.154c.038-.038.051-.088.057-.137.528.004 1.056.006 1.584.013.006.008.004.019.011.027l.389.39-.666.667c-.09.09-.09.236 0 .326.089.089.235.091.326 0l.666-.667.438.439c.091.091.237.089.326 0 .09-.09.09-.236 0-.326l-.438-.439.075-.075c.09-.09.09-.236 0-.326h-.001c.711.013 1.421.034 2.132.053l.57.57-.556.555c-.09.09-.09.236 0 .326.091.091.237.089.326 0l.556-.555.409.409c.09.09.235.091.326 0 .09-.09.09-.236 0-.326l-.409-.409.527-.527c.657.022 1.312.054 1.969.081l.114.114-.721.721c-.09.09-.09.236 0 .326.089.089.235.091.326 0l.721-.721.511.511c.089.09.235.091.326 0 .09-.09.09-.236 0-.326l-.511-.511.079-.079c.605.026 1.21.05 1.813.081l.247.247-.528.528c-.09.09-.09.236 0 .326.089.089.235.091.326 0l.528-.528.335.335c.09.09.235.091.326 0 .09-.09.09-.236 0-.326l-.335-.335.185-.185c.343.019.686.039 1.028.059l.429.429-.279.279c-.09.09-.09.236 0 .326.091.091.237.089.326 0l.279-.279.259.259c.09.089.235.091.326 0 .09-.09.09-.236 0-.326l-.259-.259.347-.347c.709.046 1.842.095 2.097.758.172.446-.194.999-.643 1.235-.913.481-.957.296-23.523.296-.606 0-1.34-.165-1.833-.446l1.005-1.005.446.446c.09.09.236.09.326 0s.09-.236 0-.326l-.446-.446.477-.477c.09-.09.09-.236 0-.326s-.236-.09-.326 0l-.477.477-.361-.361c.545-.183 1.199-.267 1.808-.304l.272.272-.39.39c-.09.09-.09.236 0 .326.091.091.237.089.326 0l.39-.39.086.086c.09.089.235.091.326 0 .09-.09.09-.236 0-.326l-.086-.086.309-.309c.549-.008 1.099-.008 1.648-.012l.238.238-.694.694c-.09.09-.09.236 0 .326.091.091.237.089.326 0l.694-.694.312.312c.09.09.235.091.326 0 .09-.09.09-.236 0-.326l-.312-.312.247-.246c.256-.001 1.262 0 1.51.001zm-7.791.556.491.491-1.045 1.045c-.034-.038-.072-.075-.096-.116-.208-.333-.103-1.008.65-1.42z" fill="#707070" data-original="#000000" style=""/><path d="m20.609 38.823c16.35.169 16.497.409 17.419-.258 1.171-.845 1.45-3.414-1.201-3.686-4.972-.506-10.022-.738-15.063-.69-.955.009-2.94.027-3.515 1.607-.707 1.94.949 3.012 2.36 3.027zm.239-3.666.034.034-.908.908-.484-.485c.351-.281.856-.405 1.358-.457zm-1.2 1.268-.591.591c-.089-.253-.071-.551.057-.904.019-.053.054-.093.08-.14zm17.84 1.393c-.567.41-.455.253-16.87.083-.423-.004-.978-.194-1.31-.525.023-.011.051-.01.07-.029l.596-.596c.167.168.316.351.496.17.09-.09.09-.236 0-.326l-.17-.17.908-.908c.106.106.484.537.633.537.034 0 .062-.024.094-.039.018.221.258.274.387.146l.976-.976c.112.112.972 1.025 1.121 1.025.204 0 .308-.248.163-.394l-.702-.702c.517.003 1.034.011 1.551.02l.365.365c-.246.246-.71.571-.478.804.091.091.237.089.326 0l.478-.477c.109.109.31.356.452.356.204 0 .308-.248.163-.394l-.29-.288.341-.341c.294.008.589.024.884.034 0 .058.022.117.067.161l.525.525c-.206.205-.494.409-.288.614.045.045.104.068.163.068s.118-.023.163-.068l.288-.288c.1.1.181.213.308.213.204 0 .309-.248.163-.394l-.145-.145.616-.616c.272.013.544.027.816.042l.431.432c-.177.177-.381.331-.193.519.089.09.235.091.326 0l.193-.193c.11.11.36.407.502.407.059 0 .118-.023.163-.068.09-.09.09-.236 0-.326l-.339-.339.341-.341c.1.006.199.012.299.019.107.107 1.02 1.075 1.172 1.075.001.001 0 .003.001.004.045.045.104.068.163.068s.118-.023.163-.068l.812-.812c.025-.025.026-.059.037-.09.056.005.113.01.169.015l.439.439-.264.264c-.145.145-.041.394.163.394.059 0 .118-.023.163-.068l.264-.264c.107.107.211.248.343.248.204 0 .309-.248.163-.394l-.18-.18.314-.314c.139.013.279.023.418.037l.301.301c-.281.281.032.62.326.326.13.129.265.117.354.028.09-.09.09-.236 0-.326l-.028-.028.087-.087c.778.378.589 1.436.037 1.835zm-11.397-2.675c.02 0 .04 0 .061.001l-.03.03zm2.16.072c.217.008.435.015.652.025l-.314.313zm2.793.134c.039.002.077.005.116.007l-.054.054zm2.316.702-.593-.593c.368.026.734.054 1.102.083zm1.944-.381c.03.003.06.005.091.008l-.041.041zm-13.473-.559c.297-.003.595-.004.892-.004l-.671.671c-.009-.042-.016-.085-.049-.117l-.479-.478c.015-.02.02-.043.028-.067.097-.003.193-.004.279-.005z" fill="#707070" data-original="#000000" style=""/><path d="m20.767 23.445c6.637.438 13.61.636 20.818.533 1.364-.019 3.902-.055 4.687-1.587.962-1.881-.974-3.06-3.06-3.06h-21.598c-.71 0-1.593 0-2.356.401-1.6.843-1.989 3.481 1.509 3.713zm21.892-2.239c-.008-.012-.005-.027-.015-.037l-.681-.682.157-.157c.021-.021.021-.052.032-.078h.816l.322.322zm-2.246.179-.504-.504.405-.405c.062-.062.065-.145.043-.223h.834c-.004.064.013.128.062.177l.058.058zm-3.732-.345c-.004-.005-.002-.012-.007-.017l-.754-.754.017-.017h.981c.011.02.008.044.025.061l.233.233zm-2.237.053-.795-.795.046-.046h1.59zm-2.082-.16-.681-.68h1.361zm-2.606.132-.811-.812h1.623zm-1.693-.812-.578.578-.578-.578zm-2.01 0-.389.389-.389-.389zm-3.46 1.365-.708-.708.609-.609c.013-.013.011-.033.02-.048h.206c-.002.062.018.123.065.17l.501.501zm.673-1.365h.691l-.346.345zm-1.376 0-.331.331-.324-.325c-.002-.002-.005-.001-.006-.003.13-.002.26-.004.386-.004h.275zm-2.202.295c.359-.189.786-.252 1.215-.276-.08.091-.082.227.005.314l.324.324-.606.606-.535-.536c-.089-.09-.235-.09-.326 0-.09.09-.09.236 0 .326l.54.54c-.078.091-.08.225.006.311.079.079.203.099.311.006l.089.089c.091.091.237.089.326 0 .09-.09.09-.236 0-.326l-.084-.084.606-.606.726.726c-.045.087-.047.191.026.264.09.089.235.091.326 0l.976-.975.536.536c.09.09.235.091.326 0 .09-.09.09-.236 0-.326l-.536-.536.478-.478c.054-.054.065-.124.055-.194h.205c.011.031.012.065.037.09l.625.625-1.087 1.087c-.09.09-.09.236 0 .326s.235.091.326 0l1.087-1.087.172.172c.089.089.235.091.326 0 .09-.09.09-.236 0-.326l-.172-.172.489-.489.679.679-.791.791c-.09.09-.09.236 0 .326.045.045.104.068.163.068s.118-.023.163-.068l.791-.791.012.012c.045.045.104.068.163.068s.118-.023.163-.068c.09-.09.09-.236 0-.326l-.012-.012.711-.711c.002-.002.001-.005.003-.007.011.026.011.055.031.076l.874.874-.928.928c-.09.09-.09.236 0 .326.09.089.235.091.326 0l.935-.935c.112.088.224.067.301-.01.083-.083.081-.211.01-.301l1.089-1.09c.006.049.019.098.056.135l.816.816-.396.395c-.09.09-.09.236 0 .326.089.089.235.091.326 0l.409-.409c.096.06.189.074.281-.019.078-.078.075-.192.019-.281l.648-.648.795.795-.746.746c-.09.09-.09.236 0 .326.09.089.235.091.326 0l1.896-1.896.754.754c.005.005.012.003.017.007l-.681.681c-.09.09-.09.236 0 .326.09.089.235.091.326 0l1.492-1.492.536.536c.09.089.235.091.326 0 .09-.09.09-.236 0-.326l-.536-.536.245-.245c.013-.013.011-.033.02-.049h1.793l-.302.302-.182-.182c-.09-.09-.236-.09-.326 0s-.09.236 0 .326l.182.182-1.473 1.473c-.09.09-.09.236 0 .326.09.089.235.091.326 0l1.473-1.473.504.504-.374.374c-.09.09-.09.236 0 .326.089.089.235.091.326 0l1.597-1.597.681.682c.01.01.026.007.037.015l-.632.632c-.09.09-.09.236 0 .326.089.089.235.091.326 0l1.567-1.568c.105.105.242.283.378.283.059 0 .118-.023.163-.068.09-.09.09-.236 0-.326l-.215-.215.209-.209c1.548.355 1.607 1.004 1.3 1.604-.531 1.038-2.792 1.07-3.963 1.087-6.861.099-13.812-.08-20.659-.532-2.418-.158-2.062-1.489-1.14-1.974z" fill="#707070" data-original="#000000" style=""/><path d="m34.247 13.67.462.462-.712.712c-.09.09-.09.236 0 .326s.235.091.326 0l.712-.712.704.704c.09.09.235.091.326 0 .09-.09.09-.236 0-.326l-.704-.704 1.845-1.846c.09-.09.09-.236 0-.326s-.236-.09-.326 0l-1.846 1.846-.462-.462c-.09-.09-.236-.09-.326 0-.089.09-.089.236.001.326z" fill="#707070" data-original="#000000" style=""/></g></g></svg>
