<?xml version="1.0" encoding="utf-8"?>
<!-- Generator: Adobe Illustrator 25.0.1, SVG Export Plug-In . SVG Version: 6.00 Build 0)  -->
<svg version="1.1" id="Layer_1" xmlns="http://www.w3.org/2000/svg" xmlns:xlink="http://www.w3.org/1999/xlink" x="0px" y="0px"
	 viewBox="0 0 512 512" style="enable-background:new 0 0 512 512;" xml:space="preserve">
<style type="text/css">
	.st0{fill:#F64E60;}
</style>
<g>
	<g id="XMLID_1_">
		<path class="st0" d="M389.4,179.2c6.9,3.3,15.8,1.4,20.4-4.3c5.4-6.7,3.3-12.9,1.5-15.9c-3.8-6.5-11.9-10.3-19.3-9.1
			C377.8,152.1,377.3,173.5,389.4,179.2L389.4,179.2z M390.7,142.2c10.6-1.7,21.8,3.5,27.2,12.8c4.7,8.1,4,17.3-2.1,24.7
			c-6.8,8.5-19.6,11.3-29.8,6.5C367.2,177.3,368.9,145.8,390.7,142.2L390.7,142.2z"/>
		<path class="st0" d="M343,179.7c-14.3,17.8-46.3,7.5-42.5-19c3.4-24.1,33.8-24.1,44.5-5.7c2.1,3.5,3.1,7.2,3.1,10.9
			C348.1,170.7,346.4,175.6,343,179.7L343,179.7z M336.9,174.9c5.4-6.7,3.2-12.9,1.4-16c-7-11.9-27.8-13.7-30.2,2.9
			C305.4,180.8,327.6,186.5,336.9,174.9L336.9,174.9z"/>
		<path class="st0" d="M228.3,160.7c3.4-24,33.8-24.1,44.6-5.7c2,3.5,3,7.1,3,10.9c0,4.8-1.7,9.7-5.1,13.9
			c-6.9,8.5-19.7,11.3-29.8,6.5C232,181.9,226.8,171.4,228.3,160.7L228.3,160.7z M244.4,179.2c6.9,3.3,15.8,1.4,20.4-4.3
			c5.4-6.7,3.2-12.9,1.4-16c-7-11.9-27.8-13.7-30.2,2.9C235.1,167.9,237.4,175.9,244.4,179.2L244.4,179.2z"/>
		<path class="st0" d="M353,339.3l-6.8,6.8l5.5,5.5l0.5-0.5C352.7,347.2,352.9,343.3,353,339.3L353,339.3z M269.2,52.8l3.5-3.4
			c-2.2,0.2-4.3,0.2-6.5,0.4L269.2,52.8z M225.6,62.8L236,52.4c-2.2,0.2-4.5,0.4-6.7,0.6c-4,0.4-8,0.9-11.9,1.5L225.6,62.8z
			 M212.7,281.1l9.1,9l7.2-7.1l-1.2-1.2c-0.5-0.5-0.5-1.2-0.4-1.8c-4.3-0.2-8.7-0.5-13-0.7L212.7,281.1z M164.7,240.1l-0.3-0.3
			c0,0.2,0.1,0.4,0.1,0.5L164.7,240.1z M179.7,143.4l-9.5-9.5l-2.5,2.5c-0.7,6.8-1.3,13.7-1.9,20.6l0.1,0.1L179.7,143.4z M166.3,187
			l12.1-12l-12.6-12.6c-0.1,0.1-0.2,0.1-0.2,0.1c-0.5,7.6-0.9,15.1-1.2,22.7L166.3,187z M305.7,284.7c-2.6-0.2-15-0.9-16.7-1
			l-2.5,2.5l8.8,8.8L305.7,284.7z M280,285.2c-0.5-0.5-0.5-1.3-0.2-2c-5.4-0.4-10.6-0.7-15.9-1l-1.6,1.6l10.6,10.6l8.2-8.2
			L280,285.2z M313.6,47.2l5.4,5.4l5.7-5.7C321,46.9,317.3,47.1,313.6,47.2z M165.8,213.1l10.6-10.6l-10.1-10l-2.2,2.2
			c-0.2,5.5-0.2,10.9-0.2,16.4L165.8,213.1z M170.3,128.4l14.4-14.4l-10-10l-2.2,2.1c-0.4,0.4-0.9,0.6-1.3,0.6
			c-0.1,0-0.1-0.1-0.1-0.1c-0.1,0.7-0.2,1.3-0.3,1.9c-0.8,6.1-1.4,12.2-2.1,18.4L170.3,128.4z M201.5,72.2l-9.4-9.3
			c-5.4,3.3-8.5,6.5-11.9,12.3h0.1l8.8,8.8l11.4-11.4C200.8,72.4,201.1,72.3,201.5,72.2z M174.7,98.4l11.6-11.7l-8.1-8.1
			c-2.6,5.6-4.3,11.6-5.5,17.8L174.7,98.4z M188.4,277.7l0.8-0.8c-0.6-0.2-1.3-0.2-1.9-0.4L188.4,277.7z M429.7,49.1
			c-2.4-0.2-2.6-0.2-2.6-0.2l1.4,1.4L429.7,49.1z M342.3,366.5l2.6,2.6c0.2,0.2,0.2,0.3,0.2,0.5c2.7-3.3,4.5-7.2,5.7-11.5
			L342.3,366.5z M365,57.6l7.1-7.1l-2.9-2.9c-0.2-0.2-0.2-0.5-0.3-0.9c-3.9,0-7.8-0.2-11.6-0.2c-0.1,0.3-0.2,0.7-0.4,1l-0.7,0.6
			l8.6,8.6C364.9,57.1,364.9,57.3,365,57.6L365,57.6z M353,332.8c0-5.7-0.1-11.2-0.2-16.6l-2.9-2.8l-8.2,8.1L353,332.8z M374,46.9
			l0.9,0.9l0.9-0.9C375.1,46.9,374.5,46.9,374,46.9z M322,291.7l5.7-5.7c-4-0.2-8-0.5-12-0.7L322,291.7z M348.3,287.3
			c-3-0.2-6-0.3-9-0.5l4.8,4.8L348.3,287.3z M393.2,47.3l0.7,0.6l0.5-0.5C394.1,47.3,393.6,47.3,393.2,47.3z M391.1,50.7l-3.6-3.6
			c-2.2-0.1-4.3,0-6.6-0.1v0.1l-3.4,3.4l5.7,5.7c0.6,0.6,0.6,1.5,0.2,2.2L391.1,50.7z M348.9,46.5c-5.7,0-11.2,0.2-16.8,0.2l10,10
			l8.5-8.5L348.9,46.5z M399.7,47.6l-3,3l7.2,7.3l9.6-9.7C408.9,48,404.3,47.8,399.7,47.6L399.7,47.6z M339.4,339.4l4,4l7.4-7.4
			c0,0,0,0-0.1,0l-11.6-11.6l-5.9,5.8c-0.8,0.8-2,0.8-2.7,0c-0.8-0.8-0.8-2,0-2.7l5.8-5.9l-4-4c-0.7-0.8-0.7-1.9,0-2.7
			c0.8-0.8,2-0.8,2.8,0l4,4l8.1-8.2l-1.5-1.5c-0.8-0.8-0.8-2,0-2.8c0.8-0.8,2-0.8,2.8,0l1.5,1.5l2.6-2.6c-0.2-5.4-0.4-10.8-0.6-16.1
			l-5.2,5.1l1.5,1.5c0.8,0.7,0.8,1.9,0,2.7c-0.8,0.8-2,0.8-2.7,0l-1.5-1.5l-8.4,8.4l0.9,1c0.8,0.8,0.8,1.9,0,2.7
			c-0.8,0.8-1.9,0.8-2.7,0l-1-0.9l-11.2,11.2c-0.8,0.8-2,0.8-2.7,0c-0.8-0.8-0.8-2,0-2.7l11.2-11.2l-8.2-8.1l-9.7,9.6
			c-0.7,0.8-1.9,0.8-2.7,0c-0.8-0.7-0.8-1.9,0-2.7l9.7-9.7l-8.2-8.2c-0.3-0.2-0.3-0.6-0.4-0.9l-12.6,12.5l9.5,9.5
			c0.8,0.8,0.8,2,0,2.8c-0.8,0.7-2,0.7-2.7,0l-9.8-9.8c-0.6,0.2-1,0.4-1.8-0.4c-0.5-0.5-0.5-1.2-0.4-1.8l-9.2-9.2l-8.1,8.2l2.6,2.6
			c0.8,0.7,0.8,1.9,0,2.7s-1.9,0.8-2.7,0l-2.6-2.6l-1.3,1.4c-0.8,0.8-2,0.8-2.8,0c-0.8-0.8-0.8-1.9,0-2.7l1.4-1.4l-10.6-10.6
			l-6.7,6.7c-0.8,0.7-1.9,0.7-2.7,0c-0.8-0.8-0.8-2,0-2.8l6.6-6.7l-2.2-2.2c-5.9-0.4-11.8-0.7-17.8-1l-2.3,2.4l13.2,13.1
			c0.7,0.8,0.7,2,0,2.8c-0.8,0.7-2,0.7-2.8,0l-13.2-13.2l-7.1,7.2l0.8,0.8c0.8,0.8,0.8,2,0,2.7c-0.8,0.8-2,0.8-2.7,0l-1-0.9
			c-0.7,0.2-1.2,0.5-2.1-0.3c-0.6-0.5-0.6-1.4-0.3-2.1l-9.2-9.2l-6.2,6.2c-0.7,0.8-1.9,0.8-2.7,0c-0.8-0.8-0.8-2,0-2.8l6.2-6.1
			l-2.3-2.3c-3.7-0.2-7.4-0.5-11.1-1.1l-2.6,2.7l9.6,9.6l0.1,0.1c0.7,0.8,0.7,1.9-0.1,2.7c-0.8,0.8-2,0.7-2.7,0l-9.7-9.7l-4,4
			c-0.7,0.8-1.9,0.8-2.7,0c-0.8-0.8-0.8-1.9,0-2.7l4-4l-5.7-5.7c-0.1-0.2-0.1-0.4-0.2-0.5c-21.8-8.8-23.8-29.6-23.9-48.5
			c-0.2-26.3,1.4-56.9,1.9-64.6c-22.3,0.2-45.8,0.9-69.7,2.4c-34.1,2-59.3,8.8-67.5,44.1c-3.4,15.3-2.6,23.7-1.5,113.3
			c0.3,31.5,2.9,62.3,38.7,71.1c2.4,0.6,3.6,3.4,2.5,5.7c-9.2,16.8-13.9,35.5-13.4,54.1c0.5,18.7,12.5,16.7,26.6,4.5
			c20.3-17.8,38.2-38.2,52.4-59.4c4.1-6.1-4.2-3.3,81.1-8.7c32.3-1.9,65.8-4,98.7-5.7c14.5-0.7,28.2-2.1,36.9-10.4
			c-0.2-0.1-0.5-0.1-0.7-0.3l-2.6-2.6l-5.8,5.8c-0.8,0.8-1.9,0.8-2.7,0c-0.8-0.8-0.8-1.9,0-2.7l5.8-5.8l-5.9-5.9
			c-0.8-0.8-0.8-1.9,0-2.7c0.8-0.8,2-0.8,2.8,0l5.8,5.9l9.4-9.4l-5.5-5.6l-6.3,6.3c-0.8,0.8-2,0.8-2.7,0c-0.8-0.7-0.8-1.9,0-2.7
			l6.3-6.3l-4-4c-0.8-0.8-0.8-1.9,0-2.7C337.5,338.6,338.7,338.6,339.4,339.4L339.4,339.4z M404,63.5l-10.1-10.1l-7.9,7.9
			c-0.7,0.8-1.9,0.7-2.7,0c-0.6-0.7-0.6-1.6-0.2-2.4c-0.9,0.9-1.9,0.6-2.6,0l-5.7-5.7l-7.3,7.3c-0.8,0.8-2,0.8-2.8,0
			c-0.2-0.2-0.2-0.5-0.3-0.8c-0.9,0.6-1.8,0.5-2.4-0.2l-8.6-8.6l-8.6,8.5l0.7,0.7c0.8,0.8,0.8,2,0,2.8c-0.8,0.7-1.9,0.7-2.7,0
			l-0.9-1c-0.7,0.2-1.2,0.4-1.9-0.3c-0.5-0.5-0.5-1.2-0.4-1.9l-11.2-11.2l-6.7,6.7l5.2,5.2c0.8,0.7,0.8,1.9,0,2.7
			c-0.7,0.8-1.9,0.8-2.7,0L319,58l-3.3,3.3c-0.8,0.7-2,0.8-2.7,0c-0.8-0.8-0.8-2,0-2.8l3.2-3.3l-7.8-7.8c-6.7,0.2-13.3,0.5-19.9,0.9
			l6.5,6.5l4-4c0.8-0.8,1.9-0.8,2.7,0c0.8,0.7,0.8,1.9,0,2.7l-4,4l8.1,8c0.7,0.8,0.7,2,0,2.8c-0.8,0.7-2,0.8-2.8,0l-8-8.1l-6.6,6.6
			c-0.8,0.8-2,0.8-2.7,0c-0.8-0.8-0.8-1.9,0-2.7l6.6-6.6l-8.9-8.9c-2.6,0.2-5.3,0.4-7.9,0.5c0,0,0.1,0,0.2,0.1
			c0.8,0.7,0.8,1.9,0,2.7l-3.6,3.6l7.8,7.8c0.8,0.8,0.8,2,0,2.8c-0.7,0.8-1.9,0.8-2.7,0l-7.9-7.9l-6.4,6.4c-0.8,0.7-2,0.8-2.7,0
			c-0.8-0.8-0.8-2,0-2.8l6.4-6.4L261,50c-6.1,0.5-12,1.1-18,1.6l14.4,14.5c0.8,0.7,0.8,1.9,0,2.7c-0.8,0.8-2,0.8-2.7,0l-15-14.9
			l-11.5,11.5l4.1,4.1c0.8,0.8,0.8,1.9,0,2.7c-0.8,0.8-2,0.8-2.7,0l-4.1-4.1l-3.5,3.4c-0.8,0.8-1.9,0.8-2.7,0
			c-0.8-0.7-0.8-1.9,0-2.7l3.4-3.4l-10.2-10.2c-6.1,1.2-11.9,2.9-17.1,5.5l17.7,17.7c0.8,0.8,0.8,2,0,2.8c-0.8,0.8-2,0.8-2.7,0
			l-6.9-6.9c-0.1,0.3-0.2,0.7-0.4,0.9l-11.4,11.4l6.5,6.5c0.8,0.8,0.8,2,0,2.8c-0.8,0.7-2,0.7-2.7,0l-6.5-6.5l-11.7,11.6l10,10
			L202.6,96c0.7-0.8,1.9-0.8,2.7,0c0.8,0.8,0.8,1.9,0,2.7L190.2,114l0.2,0.2c0.8,0.8,0.8,2,0,2.7c-0.8,0.8-2,0.8-2.8,0l-0.2-0.2
			L173,131.1l9.5,9.5l16.2-16.2c0.8-0.7,1.9-0.7,2.7,0c0.8,0.8,0.8,2,0,2.8l-16.6,16.6c-0.1,0.5-0.2,1-0.6,1.3
			c-0.3,0.4-0.8,0.5-1.3,0.5l-14.1,14.2l12.4,12.4l14.4-14.4c0.8-0.8,2-0.8,2.8,0c0.7,0.8,0.7,2,0,2.7l-15.1,15.1
			c-0.1,0.3-0.2,0.7-0.4,1c-0.3,0.3-0.7,0.4-1.1,0.5l-12.6,12.6l10,10l6.1-6.1c0.8-0.8,1.9-0.8,2.7,0c0.8,0.7,0.8,1.9,0,2.7
			l-7.1,7.1c-0.1,0.2-0.1,0.5-0.2,0.6s-0.4,0.2-0.6,0.2l-11.5,11.6l8.1,8.1c0.7,0.7,0.7,1.9,0,2.7c-0.8,0.8-2,0.8-2.8,0l-8.1-8.1
			l-2.1,2.1c0,1.6-0.1,3.3,0,5c0,2.6,0.1,5.4,0.2,8.1l3.6,3.6l9.9-9.9c0.8-0.7,1.9-0.7,2.7,0c0.8,0.8,0.8,2,0,2.8l-9.9,9.9l2.6,2.6
			c0.8,0.8,0.8,2,0,2.8c-0.8,0.7-1.9,0.7-2.7,0l-2.6-2.7l-2.2,2.2c4.7,22,20.8,25.1,43.4,26.2c54.5,2.8,118.8,7.1,167.8,9.9
			c1.2,0.1,2.3,0.8,3,1.8c14.2,23,30.5,42.4,48.9,59.3c12.7,11.7,23.8,12.7,25.1-4.4c1.4-17.8-2-35.7-9.9-51.9
			c-1.1-2.2,0.2-4.9,2.6-5.5c35.1-8.5,39.2-39.1,41.3-70l5.5-77.7c3.3-45.1-1.9-75.3-47.5-82.1l5.3,5.3c0.8,0.8,0.8,2,0,2.7
			c-0.8,0.8-1.9,0.8-2.7,0l-7.1-7c-0.5-0.5-0.5-1.1-0.5-1.6c-1.9-0.2-3.8-0.5-5.7-0.6l-3.6,3.6l4.2,4.2c0.8,0.7,0.8,1.9,0,2.7
			c-0.8,0.8-1.9,0.8-2.7,0l-4.2-4.1l-4.3,4.3c-0.8,0.8-2,0.8-2.8,0c-0.8-0.7-0.8-1.9,0-2.7l4.3-4.3l-4.4-4.4
			c-0.9-0.1-1.7-0.1-2.6-0.2l-12.1,12.2l0.1,0.1c0.8,0.8,0.8,1.9,0,2.7S404.7,64.2,404,63.5L404,63.5z M333,302.6l8.4-8.4l-7.8-7.8
			c-0.2,0-0.5-0.1-0.7-0.1l-8.1,8.1L333,302.6z M423.1,348c-20.2-18.6-37.7-40.5-48.3-57.9l-0.8-1.2c-4.8-0.2-9.5-0.5-14.3-0.9
			c0.5,10,0.9,20.2,1,30.9c0.2,0.5,0.2,1.1,0,1.6c0,2.6,0,5.4,0.1,8.1c0,0,0.1,0,0.2,0.1c0.8,0.8,0.8,1.9,0,2.7l-0.2,0.2v4.6
			c-0.2,41.3-15.3,52.2-54.5,54.1c-32.8,1.6-66.2,3.6-98.6,5.7c-24.8,1.6-49.6,3.1-74.6,4.5c-15.1,22.2-32,42-54.3,61.8
			C56.4,481.5,40,474.1,39.3,452c-0.5-18.4,3.7-36.9,12.1-53.8c-37.1-11.9-39.6-46.5-39.9-77.2c-1.1-90-2-98.8,1.7-115.1
			c10.1-44,45.5-48.4,74.6-50.1c24.2-1.5,48-2.2,70.7-2.4c1.2-15.6,2.8-31,4.7-45.8c5.7-44.2,20.2-57.7,65.3-62.4
			c77.5-8.1,159.2-7.9,209-3.3c0.4-0.1,0.7-0.1,1,0.1c56,5.5,66.2,36.4,62.3,91.2l-5.5,77.7c-2.2,29.8-6.2,64.2-42.7,75.7
			c7.1,16.4,10.2,34.1,8.8,51.7C459.6,359.6,443,366.2,423.1,348L423.1,348z"/>
	</g>
</g>
</svg>
