<?xml version="1.0" encoding="utf-8"?>
<!-- Generator: Adobe Illustrator 25.0.0, SVG Export Plug-In . SVG Version: 6.00 Build 0)  -->
<svg version="1.1" id="Layer_1" xmlns:svgjs="http://svgjs.com/svgjs"
	 xmlns="http://www.w3.org/2000/svg" xmlns:xlink="http://www.w3.org/1999/xlink" x="0px" y="0px" viewBox="0 0 512 512"
	 style="enable-background:new 0 0 512 512;" xml:space="preserve">
<style type="text/css">
	.st0{fill:#F64E60;}
</style>
<g>
	<g>
		<path class="st0" d="M504.2,87.3c0.6-59.3-16.7-80.8-82.4-79.4L86.4,15.1c-45.6,1-67.4,12.2-72.6,74.2
			C8.7,149.7,6.8,211,8.2,271.6c1.5,72.6,26.9,91.5,96.2,93c11,0.2,22,0.5,33,0.8c-8.1,18.8-16.3,37.6-24.4,56.4
			c-6.3,14.6-12.7,29.2-19,43.8c-9.4,22.1-3.5,35.2,24.5,37.7c48,4.2,59.3-7.8,71.8-39.8c1.4-3.6,2.8-7.1,4.2-10.6l137.1,2.8
			l3.2,8.1c3.8,9.7,8.5,21.8,18,29.8c14.5,12.2,34.8,11.4,53.8,9.7c25.5-2.3,34.9-13.7,24.4-37.7c-13.6-31.4-27.2-62.7-40.7-94.1
			c13.7,0.3,27.4,0.7,41.2,1c52.1,1.4,70-12.7,70.6-65.8C502.7,226.8,503.5,155,504.2,87.3L504.2,87.3z M393.2,398.1l-1.9,1.9l-1-1
			c-0.8-0.8-2-0.8-2.7,0c-0.8,0.8-0.8,2,0,2.7l1,1l-4.1,4.1l-7-7l11.5-11.5C390.4,391.6,391.8,394.8,393.2,398.1L393.2,398.1z
			 M396.1,404.8l-2.1-2.1l0.8-0.8C395.3,402.9,395.7,403.8,396.1,404.8z M380.8,391.1c0-0.5-0.1-1.1-0.5-1.5l-7.6-7.6l9.5-9.5
			c1.7,4,3.5,8,5.2,12.1L380.8,391.1z M348.9,382.4l-8.6-8.6l3.6-3.6c4.1,0.1,8.3,0.2,12.4,0.3c0.1,0.3,0.1,0.6,0.4,0.9l1.3,1.3
			l-8.6,8.6C349,381.6,349,382,348.9,382.4L348.9,382.4z M337.5,371l-1-1c0.7,0,1.3,0,2,0L337.5,371z M365.4,370.8
			c4.2,0.1,8.4,0.2,12.7,0.3l-8.1,8.1l-6.5-6.5L365.4,370.8z M331.4,369.9c0.1,0.3,0.1,0.6,0.3,0.8l3.1,3.1l-5.1,5.1l-6.5-6.4
			l2.7-2.7C329.7,369.8,331.4,369.9,331.4,369.9L331.4,369.9z M320.5,369.7L320.5,369.7L320.5,369.7L320.5,369.7z M297.4,369.1
			l11.9,30.2c-34.8,0.7-65.6,0.7-93.8,0.1c4.2-10.6,8.4-21.3,12.6-31.9C251.2,367.9,274.3,368.5,297.4,369.1z M159.6,376.9l-3.9-3.9
			l0.9-1c0.8-0.8,0.8-2,0-2.7s-2-0.8-2.7,0l-0.9,0.9l-4.7-4.7c3.4,0.1,6.8,0.2,10.3,0.2l6.1,6.1L159.6,376.9z M115.7,435
			c1.4-3.3,2.9-6.6,4.3-9.9l3.3,3.3l-7.1,7.1L115.7,435z M126.9,409.1c1.7-3.8,3.3-7.6,4.9-11.4l3.8,3.8l-8.2,8.2L126.9,409.1z
			 M138.8,381.8l1.3,1.3l-3.4,3.4C137.4,384.9,138.1,383.4,138.8,381.8L138.8,381.8z M140.4,378c1.5-3.4,3-6.9,4.5-10.3l5.3,5.3
			l-7.4,7.4L140.4,378z M187.8,366.5l-2.5,2.5l-2.6-2.6C184.3,366.4,186,366.5,187.8,366.5z M205.1,366.9l-2,2l-2-2
			C202.4,366.8,203.8,366.9,205.1,366.9z M119.1,495.5c-23.8-2.2-24.8-11-18-26.9c3.4-7.8,6.8-15.6,10.1-23.4c0.5,0,0.9-0.2,1.3-0.5
			l3.7-3.7l1.3,1.3c0.8,0.8,2,0.8,2.7,0c0.8-0.8,0.8-2,0-2.7l-1.3-1.3l7.2-7.2c0.7,0.3,1.3,0.6,2.2-0.2c0.6-0.6,0.6-1.4,0.2-2.2
			l1.7-1.7c0.8-0.8,0.8-2,0-2.7c-0.8-0.8-2-0.8-2.7,0l-1.5,1.5l-4.4-4.4l0.2-0.5l5.6-5.6l5.9,5.9c0.8,0.8,2,0.8,2.7,0
			c0.8-0.8,0.8-2,0-2.7l-5.9-5.9l8.2-8.2l1.5,1.5c0.8,0.8,2,0.8,2.7,0c0.8-0.8,0.8-2,0-2.7l-1.7-1.7c0.2-0.7,0.2-1.4-0.3-2
			s-1.3-0.6-2-0.3l-4.4-4.4l8.7-8.7l7.5,7.5c0.8,0.8,2,0.8,2.7,0c0.8-0.8,0.8-2,0-2.7l-7.5-7.5l7.4-7.4l3.9,3.9l-1.2,1.2
			c-0.8,0.8-0.8,2,0,2.7c0.8,0.8,2,0.8,2.7,0l8.9-8.9l5.8,5.8c0.8,0.8,2,0.8,2.7,0c0.8-0.8,0.8-2,0-2.7l-5.8-5.8l1.7-1.7
			c0.8-0.8,0.8-2,0-2.7c-0.8-0.8-2-0.8-2.7,0l-1.7,1.7l-3.2-3.2c4.3,0.1,8.6,0.2,12.8,0.3l5.5,5.5l-5.6,5.6c-0.8,0.8-0.8,2,0,2.7
			c0.8,0.8,2,0.8,2.7,0l5.6-5.6l2.5,2.5c0.8,0.8,2,0.8,2.7,0c0.8-0.8,0.8-2,0-2.7l-2.5-2.5l2.7-2.7c0.7-0.7,0.7-1.8,0.1-2.5
			c1.6,0,3.2,0.1,4.7,0.1l4.9,4.9L195,377c-0.8,0.8-0.8,2,0,2.7c0.8,0.8,2,0.8,2.7,0l5.4-5.4l4.7,4.7c0.8,0.8,2,0.8,2.7,0
			c0.8-0.8,0.8-2,0-2.7l-4.7-4.7l4.6-4.6l9.4,0.2c-2.7,6.8-36.2,91.9-36.9,93.7C171.9,489.2,163.6,499.4,119.1,495.5z M197.5,445.2
			c5-12.7,10-25.4,15-38.1c29.9,0.7,62.7,0.7,99.9-0.1c9.4,23.7,5.8,14.8,16.1,40.9L197.5,445.2z M426.6,486.4
			C426.6,486.4,426.6,486.4,426.6,486.4c-2.9,6.7-12.7,8.4-20.9,9.1c-44.2,3.9-52.8-6.2-63.8-34.6c-45.5-115.5,10.2,26-36.1-91.6
			l9,0.2l2.9,2.9l-3.3,3.3c-0.8,0.8-0.8,2,0,2.7c0.8,0.8,2,0.8,2.7,0l3.3-3.3l6.4,6.4l-1.3,1.3c-0.8,0.8-0.8,2,0,2.7
			c0.8,0.8,2,0.8,2.7,0l1.3-1.3l1.5,1.5c0.8,0.8,2,0.8,2.7,0c0.8-0.8,0.8-2,0-2.7l-1.5-1.5l5.1-5.1L353,392c0.8,0.8,2,0.8,2.7,0
			c0.8-0.8,0.8-2,0-2.7l-4.7-4.7c0.4-0.1,0.7-0.1,1-0.4l8.6-8.6l6.5,6.5l-8.7,8.7c-0.8,0.8-0.8,2,0,2.7c0.8,0.8,2,0.8,2.7,0l8.7-8.7
			l7.6,7.6c0.4,0.4,0.9,0.6,1.4,0.6c0.1,0,0.1-0.1,0.1-0.1l-4.2,4.2l-1.5-1.5c-0.8-0.8-2-0.8-2.7,0c-0.8,0.8-0.8,2,0,2.7l1.5,1.5
			l-4.4,4.4c-0.8,0.8-0.8,2,0,2.7c0.8,0.8,2,0.8,2.7,0l4.4-4.4l7,7l-5.3,5.3c-0.8,0.8-0.8,2,0,2.7c0.8,0.8,2,0.8,2.7,0l5.3-5.3
			l3.9,3.9c0.8,0.8,2,0.8,2.7,0c0.8-0.8,0.8-2,0-2.7l-3.9-3.9l4.1-4.1l7.5,7.5l-9.1,9.1c-1.8-1.3-3.9,0.8-2.6,2.6l-1.3,1.3
			c-0.8,0.8-0.8,2,0,2.7c0.8,0.8,2,0.8,2.7,0l1.3-1.3l14.1,14.1c0.8,0.8,2,0.8,2.7,0c0.8-0.8,0.8-2,0-2.7l-14.1-14.1l8.5-8.5
			c7.6,17.5,15.1,34.9,22.7,52.4C426.5,474.8,428.9,481.3,426.6,486.4L426.6,486.4z M496.5,87.2c-0.7,67.7-1.5,139.5-2.3,219.3
			c-0.6,45.4-12,59.4-61.4,58.2l-1.3,0c-15.8-0.4-31.5-0.8-47.3-1.2c-20.9-0.6-37.9-1-84.1-2.1c-24.2-0.6-48.3-1.2-72.4-1.7
			c-7.8-0.2-52.4-1.2-84.4-1.9c-13-0.4-25.8-0.6-38.8-0.9c-66-1.4-87.2-18-88.6-85.4c-1.4-60.3,0.4-121.3,5.5-181.4
			c5-58.6,24.2-66.2,65.1-67.1L422,15.6C482.5,14.3,497,31.9,496.5,87.2L496.5,87.2z"/>
		<path class="st0" d="M442.1,255.1c-6.3-2.5-13.1-2.3-19.9-2.3c-20.2-31.7-26.6-70.2-20.5-104.2c0.7-4.2,3.4-11,4.7-15.6
			c3.2-0.7,6.1-1.7,8.7-3.4c9.5-6.4,11.5-18.4,12.2-30.4v0c1.9-31.2-12.4-32.8-28.7-33.1c-1.1,0-2.1,0.4-2.8,1.2
			c-0.7,0.8-1.1,1.8-1.1,2.9c0.1,1.2,1.5,22.2,1,23.3c-1.3,2.3-11.2,2.3-12.8,0.5c-1.4-1.6-2.9-22.8-3.1-25c-0.2-2-1.8-3.5-3.8-3.5
			c-6.4-0.1-12.9-0.4-19.3-0.6c-2-0.1-3.8,1.5-4,3.5c-0.2,2.4-1.8,24-3.3,25.6c-1.5,1.8-11.5,1.8-12.7-0.6c-0.5-1,0.9-24,1-25.2
			c0-1-0.3-2.1-1-2.8c-0.7-0.8-1.7-1.2-2.8-1.2c-19.7-0.4-28.2,5.3-29.6,27.5c-0.6,9-1.6,22.6,6.3,32.1c3.6,4.2,8.6,7.1,14.7,8.8
			c0.4,10,6.5,36.8-3.7,76.2c-0.2,0.1-0.5,0.1-0.7,0.3c-0.7,0.7-0.7,1.9,0,2.7c-3.8,13.8-9.3,27.2-16.3,39.9
			c-21.4-1.5-28.7,7-28.6,16.7c0,5.4,2.8,10.6,7,14.1c-5.2,6-14.9,17-10.1,28c4.4,10.2,16.6,11.8,27.8,11.3
			c40.3-1.8,80.5-3.5,120.8-5.2c10.4-0.5,20.8-2.2,25.8-10.8c3.3-5.5,3.6-13.5-1.4-22.2c4.3-2.8,7.9-7.3,8-12.9c0,0,0,0,0-0.1
			C453.9,263.2,448,257.5,442.1,255.1z M413,252.7c-31.1-0.1-62.4-0.1-93.6-0.1c-1.8,0-4.5-0.2-6.3-0.4c0.3-0.5,0.5-1,0.7-1.5
			c0.9-0.8,8-7.9,8.8-8.7l5.7,5.7c0.8,0.8,2,0.8,2.7,0c0.8-0.8,0.8-2,0-2.7l-5.7-5.7l11.6-11.6c0.9,0.8,1.9,0.6,2.6-0.1
			c0.7-0.7,0.7-1.8,0.1-2.6l1.9-1.9c0.8-0.8,0.8-2,0-2.7c-0.8-0.8-2-0.8-2.7,0l-1.9,1.9l-6.7-6.7l15-15l0.3,0.3c0.8,0.8,2,0.8,2.7,0
			c0.8-0.8,0.8-2,0-2.7l-0.3-0.3l2.2-2.2c0.8-0.8,0.8-2,0-2.7c-0.8-0.8-2-0.8-2.7,0l-2.2,2.2l-7.6-7.6l9.6-9.6l2.4,2.4
			c0.8,0.8,2,0.8,2.7,0c0.8-0.8,0.8-2,0-2.7l-2.4-2.4l4.7-4.7c0.8-0.8,0.8-2,0-2.7c-0.8-0.8-2-0.8-2.7,0l-4.7,4.7l-8.7-8.7l9.9-9.9
			l2.7,2.7c0.8,0.8,2,0.8,2.7,0c0.8-0.8,0.8-2,0-2.7l-2.7-2.7l2.1-2.1c0.8-0.8,0.8-2,0-2.7c-0.8-0.8-2-0.8-2.7,0l-2.1,2.1l-5.3-5.3
			c0.7-0.7,8.3-8.2,8.9-9h0.7l8.1,8.1l-2.6,2.6c-1.8,1.8,1,4.5,2.7,2.7l2.6-2.6l4.7,4.7c0.8,0.8,2,0.8,2.7,0c0.8-0.8,0.8-2,0-2.7
			l-4.7-4.7l8.1-8.1l7,7l-1.5,1.5c-0.8,0.8-0.8,2,0,2.7c0.8,0.8,2,0.8,2.7,0l1.6-1.6c1,0.7,1.8,0.5,2.5-0.1c0.7-0.7,0.7-1.7,0.1-2.5
			l7.2-7.2c1.3,0,2.6,0,4,0C386.1,169.9,391.4,216.1,413,252.7L413,252.7z M319.4,239l0.3,0.3l-1,1C319,239.8,319.2,239.4,319.4,239
			L319.4,239z M346.5,134.1l-6.2,6.2l-6.5-6.5C337.5,134.1,342.7,134.1,346.5,134.1L346.5,134.1z M368.9,134l-5.5,5.5l-5.4-5.4
			C360.9,134.1,362.3,134.1,368.9,134z M384.1,138.4l-4.4-4.4c3.3,0,6.4,0,8.9,0L384.1,138.4z M335.7,147.6c0.8,0.8,2,0.8,2.7,0
			l1.8-1.8l5.3,5.3l-9.9,9.9l-0.7-0.7c-0.1-7.2-0.5-14-1.4-21.1l4,4l-1.8,1.8C335,145.6,335,146.9,335.7,147.6z M334,183.9
			c0.6-5.8,0.9-11.7,1-17.5c0.2,0,0.3-0.1,0.4-0.2l8.9,8.9l-9.6,9.6L334,183.9z M333.2,189.6c0.3,0.2,0.7,0.4,1,0.4
			c0.1,0,0.2-0.1,0.2-0.1l7.9,7.9L329,211.2C330.9,204.1,332.2,196.8,333.2,189.6L333.2,189.6z M326.9,218.4
			c0.1-0.1,0.3-0.1,0.4-0.2l6.8,6.8l-11.6,11.6L321,235C323.2,229.6,325.2,224,326.9,218.4L326.9,218.4z M312,92.1
			c0.9-14.5,3.9-19.9,17.7-20.2c-0.2,4.6-2,21.4,0.1,25.2c4.1,7.8,20.6,7.6,25.4,2c3.8-4.3,3.3-11.1,4.8-26.4
			c4.1,0.1,8.2,0.3,12.3,0.4c1.4,14.8,0.9,21.7,4.7,26c4.8,5.6,21.2,5.9,25.5-1.9c2-3.9,0.4-18.4,0.2-23.1
			c10.6,0.4,18.2,1.9,16.8,24.8c-0.6,10-2.1,19.9-8.8,24.5c-3.6,2.4-7.7,2.9-12.1,3c-0.7-0.5-1.6-0.5-2.2,0
			c-62.3,0.2-71.5,2.2-79.9-7.5C311.1,112.1,311.3,102.4,312,92.1L312,92.1z M440.5,301.7L440.5,301.7c-3.2,5.5-11.3,6.6-19.5,7
			c-40.3,1.7-80.5,3.5-120.8,5.2c-11.4,0.6-18.2-1.7-20.3-6.6c-2.9-6.8,4.9-15.3,9.7-20.9c6,2.2,13.7,2.4,20.1,2.4l115.4-1
			c4.2-0.1,9.5-0.2,13.7-1.3C441.6,291,443.2,297.2,440.5,301.7L440.5,301.7z M425,280.1l-115.3,1c-7.8,0.1-25.8,0.5-25.9-12.9
			c-0.1-13.9,24.1-7.8,35.7-7.8c44,0,111.8-1.3,119.9,1.9c3.3,1.4,6.9,4.5,6.9,8.1C445.8,278.8,433.4,279.9,425,280.1L425,280.1z"/>
		<path class="st0" d="M216.2,141.5c-23.7-0.4-43.7,9.6-39.3,32.6c1.5,7.8,1.1,97.2,0.3,114.3c-0.2,5.1-0.5,11.5,1.9,17.1
			c5.3,12.3,19.4,14.4,31.1,14.9c31.8,1.3,39.3-11.2,39.7-36.3l1.7-110.8C252.1,149.3,241.4,142.2,216.2,141.5L216.2,141.5z
			 M233.6,154.2l-3.3-3.3c1.8,0.5,3.5,1.1,5,1.8c-0.2,0.1-0.4,0.1-0.5,0.2L233.6,154.2z M224,150.1l2.3,2.3l-3.9,3.9l-3.5-3.5l1-1
			c0.6-0.6,0.6-1.5,0.2-2.3c1.2,0.1,2.5,0.2,3.7,0.3C224,149.9,223.9,150,224,150.1L224,150.1z M216.9,149.3l-0.7,0.7l-0.7-0.7
			c0.2,0,0.4,0,0.6,0C216.3,149.3,216.6,149.3,216.9,149.3L216.9,149.3z M206.3,156.3l3.1-3.1c0.8-0.8,0.8-2,0-2.7s-2-0.8-2.7,0
			l-3.1,3.1l-2.7-2.7c2.8-0.7,5.9-1.2,9.3-1.4l3.4,3.4l-5.3,5.3L206.3,156.3z M190.4,169.4c0.8,0.8,2,0.8,2.7,0l0.9-0.9l1.8,1.8
			l-8.7,8.7l-1.9-1.9c-0.1-0.1-0.2-0.1-0.3-0.1c-0.1-1.9-0.2-3.4-0.4-4.2c-0.9-4.9-0.4-8.9,1.5-12.3l5.3,5.3l-0.9,0.9
			C189.7,167.4,189.7,168.6,190.4,169.4L190.4,169.4z M185.2,283.1c0.1-2.7,0.1-5.8,0.2-9.5l6.8,6.8l-4.8,4.8L185.2,283.1z
			 M185.4,267.1c0-3.1,0.1-6.4,0.1-9.8l4.9,4.9L185.4,267.1z M185.6,246.1l2.7,2.7l-2.7,2.7C185.6,249.8,185.6,248,185.6,246.1
			L185.6,246.1z M185.7,227.9l4.9,4.9l-4.9,4.9C185.7,234.5,185.7,231.2,185.7,227.9L185.7,227.9z M185.6,207.8l5.1,5.1l-5,5
			C185.7,214.4,185.7,211,185.6,207.8z M185.3,185.8c0.4-0.1,0.7-0.1,1-0.4l0.9-0.9l6.9,6.9l-8.6,8.6
			C185.5,194.7,185.4,189.9,185.3,185.8L185.3,185.8z M188.4,157.3c2.1-2.1,4.8-3.8,8.2-5.1l4.2,4.2l-6.7,6.7L188.4,157.3z
			 M244,173.2l-1.7,110.8c-0.3,20.7-4.3,29.7-31.7,28.6c-10-0.4-20.7-1.9-24.3-10.2c-1.2-2.7-1.4-6-1.4-9.2l2.5-2.5l2.7,2.7
			c0.8,0.8,2,0.8,2.7,0c0.8-0.8,0.8-2,0-2.7l-2.7-2.7l9.1-9.1c0.8-0.8,0.8-2,0-2.7c-0.8-0.8-2-0.8-2.7,0l-1.5,1.5l-7.3-7.3l5.6-5.6
			l0.5,0.5c0.8,0.8,2,0.8,2.7,0c0.8-0.8,0.8-2,0-2.7l-0.5-0.5l5.2-5.2c0.8-0.8,0.8-2,0-2.7s-2-0.8-2.7,0l-5.2,5.2l-4.9-4.9l3.1-3.1
			c0.7,0.2,1.1,0.4,1.9-0.4c0.5-0.5,0.6-1.2,0.4-1.9l5.9-5.9c0.8-0.8,0.8-2,0-2.7s-2-0.8-2.7,0l-5.6,5.6l-4.3-4.3
			c0.2-0.1,0.4-0.1,0.6-0.2l6.3-6.3c0.6,0.1,1.1,0.3,1.8-0.4c0.5-0.5,0.5-1.1,0.4-1.8l4.6-4.6c0.8-0.8,0.8-2,0-2.7s-2-0.8-2.7,0
			l-4.3,4.3l-7.2-7.2l7.6-7.6c1.4,0.2,2.2-0.8,2.1-2.1l9.2-9.2c0.8-0.8,0.8-2,0-2.7c-0.8-0.8-2-0.8-2.7,0l-8.9,8.9l-6.3-6.3l9.8-9.8
			c1,0.7,1.9,0.5,2.5-0.1c0.7-0.7,0.7-1.7,0.1-2.5l3.7-3.7c0.8-0.8,0.8-2,0-2.7c-0.8-0.8-2-0.8-2.7,0l-3.7,3.7l-6.9-6.9l8.7-8.7
			l1.7,1.7c0.8,0.8,2,0.8,2.7,0s0.8-2,0-2.7l-1.7-1.7l1.1-1.1c0.8-0.8,0.8-2,0-2.7s-2-0.8-2.7,0l-1.1,1.1l-1.8-1.8l6.7-6.7l8.9,8.9
			c0.8,0.8,2,0.8,2.7,0s0.8-2,0-2.7l-4.4-4.4l5.3-5.3l3.6,3.6c-0.5,0.8-0.5,1.7,0.1,2.4c0.7,0.7,1.5,0.8,2.4,0.1l1,1
			c0.8,0.8,2,0.8,2.7,0s0.8-2,0-2.7l-1-1l3.9-3.9l1.8,1.8l-1,1c-0.8,0.8-0.8,2,0,2.7s2,0.8,2.7,0l1-1l0.2,0.2c0.8,0.8,2,0.8,2.7,0
			s0.8-2,0-2.7l-0.2-0.2l1.2-1.2c0.4-0.4,0.5-0.8,0.5-1.3C244.1,158.9,244.1,165.6,244,173.2L244,173.2z"/>
		<path class="st0" d="M106,191.8c-8.8-0.2-29.8,0.7-37.3,11.6c-1.3,2-1.8,5-1.5,56.8c0.1,16.3,0.2,31.7-0.1,36.4
			c-0.2,3.7-0.5,8.7,2.2,13.1c5.4,8.8,18.6,10.3,30.9,10.7c24.2,0.7,39.2-3.1,39.7-26.7l1.7-78.3C142,195.6,127.8,192.2,106,191.8
			L106,191.8z M109.6,199.7l-0.3,0.3l-0.4-0.4C109.1,199.6,109.4,199.6,109.6,199.7z M75,281.6c0-2.3,0-4.8,0-7.5l3.7,3.7L75,281.6z
			 M74.8,302.4c-0.2-1.5-0.1-3.3,0-5.3c0.1-0.9,0.1-2.2,0.1-3.7l4.5,4.5L74.8,302.4z M75,255.3c0-0.9,0-1.9,0-2.8l1.4,1.4L75,255.3z
			 M74.9,247c0-1.9,0-3.7,0-5.6c0,0.5,0.2,0.9,0.5,1.3c0.8,0.8,2,0.8,2.7,0l4.4-4.4l4.7,4.7l-8.2,8.2L74.9,247z M75.4,240
			c-0.4,0.4-0.5,0.8-0.5,1.3c0-3.7,0-7.3,0-10.7l5,5L75.4,240z M133.8,215.3l-1.7,78.3c-0.3,11.6-1.6,20-31.7,19.1
			c-5.4-0.1-19.4-0.6-23.9-6.4l5.7-5.7c1,1,2.2,0.9,2.9,0.2c0.8-0.8,0.8-2,0-2.7l-0.2-0.2l9.4-9.4c0.8-0.8,0.8-2,0-2.7
			c-0.8-0.8-2-0.8-2.7,0l-9.4,9.4l-7.1-7.1c0-0.3,0-0.6,0-0.8l6.5-6.5l1.2,1.2c0.8,0.8,2,0.8,2.7,0c0.8-0.8,0.8-2,0-2.7l-1.2-1.2
			l7.3-7.3c0.8-0.8,0.8-2,0-2.7c-0.8-0.8-2-0.8-2.7,0l-7.3,7.3l-6.5-6.5c0-2.6,0-5.2,0-7.9l4.1-4.1l4.4,4.4c0.8,0.8,2,0.8,2.7,0
			c0.8-0.8,0.8-2,0-2.7l-4.4-4.4l9.3-9.3c0.8-0.8,0.8-2,0-2.7c0,0,0,0,0,0c-0.1-0.3-0.1-0.7-0.4-0.9l-5.4-5.4l5-5
			c0.8-0.8,0.8-2,0-2.7s-2-0.8-2.7,0l-5,5l-7.7-7.7c0-6.6,0.1-12.1,0.3-15.4l7.1,7.1l-5.8,5.8c-0.8,0.8-0.8,2,0,2.7s2,0.8,2.7,0
			l5.8-5.8l4.7,4.7c0.8,0.8,2,0.8,2.7,0c0.8-0.8,0.8-2,0-2.7l-4.7-4.7l3.7-3.7c0.8-0.8,0.8-2,0-2.7s-2-0.8-2.7,0l-3.7,3.7l-8.2-8.2
			c1.7-1.4,4-2.6,6.9-3.6l14.9,14.9c0.8,0.8,2,0.8,2.7,0s0.8-2,0-2.7l-13.3-13.3c4.4-1,9.5-1.5,15.2-1.6l3.2,3.2l-5.9,5.9
			c-0.8,0.8-0.8,2,0,2.7s2,0.8,2.7,0l5.9-5.9l5.7,5.7c0.8,0.8,2,0.8,2.7,0c0.8-0.8,0.8-2,0-2.7l-5.7-5.7l1.4-1.4
			c0.4-0.4,0.6-0.9,0.5-1.4c2.5,0.2,4.9,0.5,7.2,0.9l-3.9,3.9c-0.8,0.8-0.8,2,0,2.7s2,0.8,2.7,0l3.9-3.9l4.8,4.8
			c0.8,0.8,2,0.8,2.7,0s0.8-2,0-2.7l-1.1-1.1C133.9,207.2,133.9,210.6,133.8,215.3L133.8,215.3z"/>
		<path class="st0" d="M181.3,58.5v12.8c0,1.1,0.9,1.9,1.9,1.9c1.1,0,1.9-0.9,1.9-1.9V58.5h24.6v12.2c0,1.1,0.9,1.9,1.9,1.9
			c1.1,0,1.9-0.9,1.9-1.9V58.5h14.5v8.2c0,1.1,0.9,1.9,1.9,1.9c1.1,0,1.9-0.9,1.9-1.9v-8.2h4.4c1.1,0,1.9-0.9,1.9-1.9
			s-0.9-1.9-1.9-1.9H232v-5c0-1.1-0.9-1.9-1.9-1.9c-1.1,0-1.9,0.9-1.9,1.9v5h-14.5v-6.3c0-1.1-0.9-1.9-1.9-1.9
			c-1.1,0-1.9,0.9-1.9,1.9v6.3h-24.6v-4.4c0-1.1-0.9-1.9-1.9-1.9c-1.1,0-1.9,0.9-1.9,1.9v4.4h-15.7v-8.8c0-1.1-0.9-1.9-1.9-1.9
			c-1.1,0-1.9,0.9-1.9,1.9v8.8h-20.8V43.3c0-1.1-0.9-1.9-1.9-1.9c-1.1,0-1.9,0.9-1.9,1.9v11.4h-32.2c-1.1,0-1.9,0.9-1.9,1.9
			s0.9,1.9,1.9,1.9H137v10.1c0,1.1,0.9,1.9,1.9,1.9c1.1,0,1.9-0.9,1.9-1.9V58.5h20.8v12.1c0,1.1,0.9,1.9,1.9,1.9
			c1.1,0,1.9-0.9,1.9-1.9V58.5L181.3,58.5z"/>
	</g>
</g>
</svg>
