<?xml version="1.0"?>
<svg xmlns="http://www.w3.org/2000/svg" xmlns:xlink="http://www.w3.org/1999/xlink" xmlns:svgjs="http://svgjs.com/svgjs" version="1.1" width="512" height="512" x="0" y="0" viewBox="0 0 66 66" style="enable-background:new 0 0 512 512" xml:space="preserve"><g><path xmlns="http://www.w3.org/2000/svg" d="m43.318 19.943c-3.716-3.214-8.862-4.048-14.121-2.291-6.161 2.06-11.12 7.243-12.339 12.898-1.219 5.66 1.298 11.979 6.12 15.366 4.726 3.32 11.394 3.697 16.592.945 10.22-5.409 11.926-19.844 3.748-26.918zm-7.464-.136-1.205-1.205.796-.796c.325.022.65.045.968.09l.675.675zm-3.027-.09-.636-.635.795-.796c.098-.098.098-.256 0-.354-.043-.043-.099-.059-.155-.064.161-.019.322-.042.482-.056-.013.078-.003.158.057.218l.572.572zm-.989-.989-.6-.6c.513-.114 1.02-.188 1.526-.25-.046.01-.094.018-.13.054zm2.004-.933c.314-.015.63-.037.939-.031l-.485.485zm3.448.271c.083.018.166.037.248.057l-.096.096zm-7.775.535c.391-.131.78-.22 1.169-.321l.801.801-1.534 1.534-.726-.726.955-.955c.098-.098.098-.256 0-.354s-.256-.098-.354 0l-.955.955-.506-.506c.378-.153.761-.298 1.15-.428zm-4.232 4.601-.704-.704 1.458-1.458c.03-.03.033-.07.045-.108l.697.697-1.442 1.442c-.035.036-.044.084-.054.131zm-7.34 13.507.654.655-.37.37c-.107-.339-.201-.681-.284-1.025zm-.334-4.351c.045-.536.115-1.07.228-1.597.029-.136.071-.271.105-.407l.836.836zm1.352-4.762.207.207-.552.552c.107-.255.221-.508.345-.759zm.24-.466c.381-.709.816-1.399 1.31-2.059l.694.694-1.684 1.685zm4.206-5.097.465.465-1.175 1.175-.516-.516c.391-.39.798-.766 1.226-1.124zm.391-.316c.573-.454 1.174-.878 1.802-1.267l.192.192c-.038.011-.078.015-.108.045l-1.459 1.458zm2.245-1.532c.591-.345 1.203-.657 1.832-.937l.643.643-1.385 1.385zm-4.213 3.328.514.514-.962.962c-.048.048-.071.111-.072.174l-.485-.485c.317-.4.65-.79 1.005-1.165zm17.272 22.465c-4.876 2.583-11.126 2.228-15.549-.88-2.388-1.678-4.162-4.127-5.14-6.843l.539-.539.656.656c.097.097.255.098.354 0 .098-.098.098-.256 0-.354l-.656-.656 1.468-1.467c.098-.098.098-.256 0-.354s-.256-.098-.354 0l-1.468 1.467-1.194-1.194c-.156-.9-.217-1.812-.191-2.72l1.301 1.301-.902.902c-.098.098-.098.256 0 .353.097.097.255.098.353 0l.902-.902.296.295c.097.097.255.098.353 0s.098-.256 0-.354l-.295-.295 1.783-1.783c.098-.098.098-.256 0-.354s-.256-.098-.354 0l-1.783 1.783-1.295-1.295 1.205-1.205.814.814c.097.097.255.098.354 0 .098-.098.098-.256 0-.354l-.814-.814 1.28-1.28c.098-.098.098-.256 0-.354s-.256-.098-.354 0l-1.28 1.279-1.044-1.044c.035-.118.08-.234.119-.351.017-.01.038-.007.053-.022l1.262-1.262 1.092 1.092c.232.232.588-.119.354-.354l-1.092-1.092 1.684-1.685.873.873c.097.097.255.098.354 0 .098-.098.098-.256 0-.353l-.873-.873 1.077-1.077c.003-.003.002-.008.005-.011l.577.578c.097.097.255.098.354 0 .098-.098.098-.256 0-.354l-.874-.874 1.175-1.175 1.055 1.055c.097.097.255.098.354 0 .098-.098.098-.256 0-.354l-.075-.075c.047-.009.095-.018.132-.055l1.442-1.442.275.275c.097.097.255.098.353 0s.098-.256 0-.354l-.275-.275 1.385-1.385 1.268 1.268c.097.097.255.098.354 0 .098-.098.098-.256 0-.353l-.189-.189 1.534-1.535.635.635-.003.003c-.098.098-.098.256 0 .354.097.097.255.098.354 0l.004-.004c.103.1.256.093.35-.001.097-.097.096-.252.001-.35l1.116-1.116 1.309 1.309c.012.036.014.074.042.103.07.07.123.071.204.062.084.013.137.017.213-.058.031-.032.036-.074.047-.114l1.331-1.331 1.262 1.262c.097.097.255.098.354 0 .098-.098.098-.256 0-.354l-1.262-1.262.124-.124c.062-.062.07-.146.053-.226.626.171 1.239.377 1.825.643-.025.085-.022.176.046.243l.213.213-1.112 1.112c-.098.098-.098.256 0 .354s.257.097.354 0l1.112-1.112 1.5 1.5c.097.097.255.098.354 0 .098-.098.098-.256 0-.354l-1.358-1.358c.614.362 1.208.76 1.758 1.235 7.693 6.662 5.99 20.228-3.564 25.286z" fill="#707070" data-original="#000000" style=""/><path xmlns="http://www.w3.org/2000/svg" d="m54.438 20.526c.659-1.286 1.329-2.572 1.997-3.853l.527-1.013c.1-.192.065-.426-.086-.58-1.983-2.034-4.123-4.592-6.12-6.631-.147-.149-.37-.193-.559-.107-1.595.703-3.219 1.521-4.833 2.435-1.872-1.009-3.935-1.708-6.141-2.082-.511-1.632-1.029-3.265-1.549-4.898-.065-.205-.255-.345-.47-.348-2.822-.039-6.152-.33-9.01-.37-.181.023-.396.125-.473.318-.809 2.077-1.532 4.41-2.209 7.126-1.228.514-2.427 1.109-3.57 1.774-2.099-1.087-4.195-2.175-6.284-3.262-.188-.099-.425-.066-.579.085-2.01 1.961-4.571 4.102-6.63 6.11-.149.145-.192.367-.109.558.865 1.983 1.981 4.12 3.321 6.355-.877 1.417-1.593 2.879-2.13 4.354l-5.735 1.815c-.205.065-.346.254-.349.47-.039 2.818-.328 6.119-.369 9.01-.003.208.123.396.316.472 1.721.677 3.581 1.279 5.679 1.836.481 1.671 1.139 3.29 1.961 4.821-1.059 1.833-1.964 3.607-2.694 5.278-.083.19-.04.413.108.558 2.043 1.993 4.595 4.126 6.631 6.11.154.152.39.187.58.085 1.643-.859 3.286-1.71 4.938-2.56 1.623.83 3.347 1.473 5.131 1.913.58 2.244 1.25 4.36 1.993 6.294.074.193.26.32.467.32h.007c2.856-.04 6.18-.33 9.01-.37.215-.003.404-.144.47-.348l2.043-6.447c1.337-.448 2.65-1.031 3.767-1.638.35.212.685.404 1.026.603-.006.071.01.143.065.197.083.083.181.099.305.02.488.281.964.546 1.434.802.003.059.023.119.068.165.108.108.191.076.284.029 1.224.655 2.399 1.233 3.531 1.726.188.083.411.041.557-.108 2.012-2.053 4.147-4.619 6.12-6.63.151-.155.187-.39.086-.582-.764-1.462-1.523-2.924-2.281-4.384l-1.084-2.086c.6-1.083 1.116-2.196 1.538-3.315 2.888-.701 5.332-1.45 7.467-2.289.194-.076.32-.264.317-.472-.041-2.862-.331-6.189-.37-9.01-.003-.216-.144-.405-.35-.47-2.622-.826-4.183-1.317-5.815-1.838-.401-2.083-1.055-4.081-1.945-5.948zm-26.348 40.154c.006.054.021.108.062.149.097.097.255.098.354 0l.946-.946 1.055 1.055-.603.604c-.09.09-.087.227-.012.325-.457.018-.919.038-1.358.048-.153-.403-.3-.817-.444-1.235zm3.207-2.643 1.055 1.055-1.493 1.493-1.055-1.055zm-.438 3.254.51.51c-.36.018-.714.035-1.071.05zm5.972.265c-1.422.03-2.926.113-4.872.216-.007-.054-.021-.108-.062-.149l-.685-.685 1.493-1.493.789.788-1.042 1.042c-.098.098-.098.256 0 .354.097.097.255.098.354 0l1.042-1.042.661.661c.049.049.112.073.177.073.064 0 .128-.025.177-.073.009-.009.006-.022.013-.032.007.01.004.023.013.032.049.049.112.073.177.073.064 0 .128-.025.177-.073l1.337-1.337c.122.089.236.07.319-.014.088-.088.085-.222.014-.319l.798-.798zm-1.942-.661c-.009.009-.006.022-.013.032-.007-.01-.004-.023-.013-.032l-.661-.661 1.34-1.34.674.675zm-1.042-1.015-.789-.788 1.34-1.34.788.789zm13.183-4.975-.057.058c-.44-.237-.886-.485-1.342-.745l.356-.356zm-.69-1.397.591-.591 1.043 1.043-.591.591zm1.626 1.973c.094-.098.094-.252-.002-.349l-.227-.227.591-.591.612.612-.132.132c-.098.098-.098.256 0 .354.097.097.255.098.353 0l.132-.132 1.151 1.151c-.053.056-.108.117-.161.172-.75-.335-1.526-.716-2.317-1.122zm5.828-9.065c.27.519.541 1.039.811 1.558-.09-.038-.193-.039-.268.036l-.052.052-1.249-1.249.634-.634zm1.251 2.405-.406-.406.052-.052c.035-.035.042-.081.052-.125.1.194.201.388.302.583zm-1.634-.927.52.52-.398.398c-.098.098-.098.256 0 .354.099.099.257.096.354 0l.398-.398.407.407-.673.673-1.125-1.125.506-.506c.088-.089.085-.225.011-.323zm-.872 1.182 1.125 1.125-.858.858-1.125-1.125zm.076 2.882c.085-.085.082-.211.019-.308.029.019.06.033.094.039l.485.485-1.372 1.372-.407-.407zm-1.128 1.941-1.24 1.24c-.098.098-.098.256 0 .354.097.097.255.098.354 0l1.24-1.24.322.322c-.462.51-.92 1.005-1.377 1.49l-1.139-1.139 1.434-1.433zm1.012.304-.304-.304 1.372-1.372.152.152c.031.031.074.036.113.047-.248.275-.497.55-.742.823-.195.217-.394.435-.591.654zm1.611-1.785c-.012-.032-.013-.067-.038-.092l-.228-.228c-.008-.051-.02-.104-.059-.143-.04-.04-.092-.052-.144-.06l-.482-.482.858-.858.689.689c.097.097.255.098.354 0 .098-.098.098-.256 0-.354l-.689-.689.916-.916c.208.398.414.796.622 1.195-.593.614-1.196 1.273-1.799 1.938zm1.984-15.185.969.969-.67.67c-.092.091-.089.233-.009.331-.03.008-.063.016-.093.024l-1.095-1.095zm1.199-1.199.969.969-.846.846-.969-.969zm.124 2.522.283.283c-.263.075-.52.151-.791.224zm.834.127-.481-.481.846-.845.674.674c.097.097.255.098.354 0 .098-.098.098-.256 0-.354l-.674-.674 1.198-1.198.795.795c.097.097.255.098.354 0 .098-.098.098-.256 0-.354l-.795-.795.3-.3c.098-.098.098-.256 0-.353-.098-.098-.256-.098-.354 0l-.3.3-.581-.581.952-.952.918.918c.086.086.224.108.339.006.051 1.009.099 2.018.119 2.971-1.124.429-2.344.834-3.664 1.223zm3.378-7.451-.243-.243.227-.227c.006.159.009.311.016.47zm-.072-2.073c.006.299.022.613.032.92l-.557.557-.723-.723c-.098-.098-.256-.098-.354 0s-.098.256 0 .354l.723.723-.511.511c-.098.098-.098.256 0 .354.096.096.255.099.353 0l.511-.511.474.474c.043.043.1.06.156.065.024.484.048.97.074 1.449.014.253.026.509.039.764l-.883-.883.705-.705c.098-.098.098-.256 0-.354s-.256-.098-.354 0l-.705.705-.617-.617c-.098-.098-.256-.098-.354 0s-.098.256 0 .354l.617.617-.952.952-.547-.547c-.098-.098-.256-.098-.354 0s-.098.256 0 .354l.598.598c0 .064.024.129.073.178s.112.073.177.073h.001l.633.633-1.199 1.198-.969-.969.55-.55c.098-.098.098-.256 0-.354s-.256-.098-.353 0l-.602.602c-.065-.001-.129.023-.179.072-.049.049-.073.114-.072.179l-.919.919c-.093-.044-.201-.046-.278.031s-.075.185-.031.278l-.921.921-.211-.211c-.098-.098-.256-.098-.354 0s-.098.256 0 .354l.211.211-.529.529c-.098.098-.098.256 0 .354.097.097.255.098.354 0l.529-.529.884.884c-.36.091-.708.184-1.083.274-.163.039-.296.158-.354.315-.449 1.233-1.02 2.463-1.695 3.654-.084.147-.087.327-.009.478l.197.379-.523.523c-.098.098-.098.256 0 .354.099.099.257.096.354 0l.411-.411.404.778-.768.768c-.093-.044-.201-.045-.278.031-.077.077-.075.185-.031.278l-.544.544c-.098.098-.098.256 0 .354.099.099.257.096.353 0l.522-.521.685.685c-.098-.074-.234-.076-.323.013l-1.723 1.723c-.098-.083-.243-.085-.336.007-.093.093-.091.238-.007.336l-.65.65c-.098.098-.098.256 0 .354.097.097.255.098.354 0l.645-.645 1.204 1.204c.006.034.02.064.039.094-.097-.063-.223-.066-.308.019l-1.181 1.181-1.919-1.918c-.098-.098-.256-.098-.353 0-.098.098-.098.256 0 .354l1.919 1.918-1.434 1.433-.612-.612 1.199-1.199c.098-.098.098-.256 0-.354s-.256-.098-.354 0l-1.199 1.199-1.043-1.043 1.27-1.27c.098-.098.098-.256 0-.354s-.256-.098-.354 0l-1.27 1.27-.604-.604c-.098-.098-.256-.098-.353 0-.098.098-.098.256 0 .354l.603.603-.591.591-.768-.768c-.098-.098-.256-.098-.354 0s-.098.256 0 .354l.768.768-.449.449c-.467-.272-.937-.547-1.423-.844-.154-.094-.348-.098-.506-.009-1.189.668-2.627 1.308-4.089 1.78-.154.049-.274.17-.323.324l-.834 2.633c-.039.011-.081.015-.112.046l-1.328 1.327-.674-.675 1.303-1.302.382.382c.097.097.255.098.354 0 .098-.098.098-.256 0-.354l-.382-.382.439-.439c.098-.098.098-.256 0-.354s-.256-.098-.354 0l-.439.439-.503-.503 1.079-1.08c.098-.098.098-.256 0-.354-.099-.099-.256-.097-.354 0l-1.079 1.08-.604-.604c-.098-.098-.256-.098-.354 0s-.098.256 0 .354l.604.604-.489.49c-.098.098-.098.256 0 .354.096.096.255.099.354 0l.489-.49.503.503-1.303 1.302-.788-.789.142-.142c.098-.098.098-.256 0-.353-.098-.098-.256-.098-.354 0l-.142.142-.375-.375c-.098-.098-.256-.098-.354 0s-.098.256 0 .354l.375.375-1.34 1.341-1.055-1.055 1.768-1.767c.098-.098.098-.256 0-.354s-.256-.098-.354 0l-1.809 1.809c-.076-.011-.153.001-.211.059s-.07.136-.059.211l-1.534 1.534-1.441-1.441c-.098-.098-.256-.098-.354 0s-.098.256 0 .354l1.441 1.441-.946.946c-.048.048-.072.111-.072.175-.532-1.538-1.021-3.171-1.455-4.883-.046-.181-.188-.321-.371-.364-1.892-.442-3.716-1.12-5.421-2.016-.068-.044-.148-.063-.228-.063-.078 0-.157.019-.229.055-1.623.835-3.239 1.67-4.853 2.514-1.905-1.832-4.226-3.794-6.119-5.616.723-1.617 1.61-3.332 2.643-5.102.089-.152.091-.339.006-.494-.894-1.62-1.595-3.346-2.085-5.13-.048-.172-.184-.306-.356-.352-2.011-.525-3.866-1.112-5.52-1.746.055-2.64.302-5.646.357-8.302l5.629-1.782c.149-.047.269-.163.32-.31.554-1.574 1.32-3.138 2.28-4.648.101-.16.104-.364.006-.527-1.315-2.174-2.418-4.253-3.28-6.185 1.898-1.825 4.179-3.75 6.121-5.617 2.064 1.075 4.138 2.149 6.211 3.224.154.08.338.074.486-.014 1.245-.74 2.562-1.395 3.913-1.947.147-.061.258-.188.296-.343.648-2.637 1.339-4.906 2.105-6.924 2.644.055 5.648.303 8.302.357.514 1.615 1.026 3.23 1.53 4.846.057.182.213.316.401.345 2.302.356 4.442 1.08 6.362 2.152.154.086.342.085.492-.002 1.557-.892 3.125-1.693 4.666-2.386 1.838 1.903 3.775 4.198 5.625 6.12l-.36.693c-.707 1.357-1.417 2.719-2.114 4.081-.071.141-.073.307-.004.448.948 1.936 1.63 4.025 2.026 6.209.033.182.164.331.34.387 1.979.636 3.821 1.214 5.76 1.825z" fill="#707070" data-original="#000000" style=""/><path xmlns="http://www.w3.org/2000/svg" d="m42.503 28.138c-.003-.005-.007-.007-.01-.011-.599-1.544-1.529-2.927-2.73-3.965-2.499-2.162-5.958-2.726-9.482-1.544-4.121 1.378-7.438 4.849-8.256 8.637-.817 3.8.871 8.041 4.107 10.315 8.615 6.056 20.121-3.129 16.434-13.229-.007-.071-.026-.14-.063-.203zm-3.395-3.221c.999.863 1.785 1.995 2.326 3.261l-7.953 4.606-.041-9.744c2.136-.093 4.117.535 5.668 1.877zm-12.402 15.833c-2.917-2.049-4.439-5.868-3.703-9.286.744-3.455 3.796-6.629 7.594-7.899.621-.208 1.236-.338 1.844-.428.046 10.975.05 10.542.05 10.542.008.139.107.3.174.355 2.228 1.855 4.591 3.355 6.788 5.183-3.65 4.001-9.257 3.985-12.747 1.533zm13.387-2.302c-2.032-1.689-4.005-2.958-6.223-4.733l7.914-4.583c1.046 3.354.269 6.711-1.691 9.316z" fill="#707070" data-original="#000000" style=""/></g></svg>
