<?xml version="1.0" encoding="utf-8"?>
<!-- Generator: Adobe Illustrator 25.0.0, SVG Export Plug-In . SVG Version: 6.00 Build 0)  -->
<svg version="1.1" id="Layer_1" xmlns:svgjs="http://svgjs.com/svgjs"
	 xmlns="http://www.w3.org/2000/svg" xmlns:xlink="http://www.w3.org/1999/xlink" x="0px" y="0px" viewBox="0 0 512 512"
	 style="enable-background:new 0 0 512 512;" xml:space="preserve">
<style type="text/css">
	.st0{fill:#FFFFFF;}
</style>
<g>
	<path class="st0" d="M464.5,142.8c-40.8,0-81.7-0.1-122.6-0.1c-4.6,0-9.4,0.1-14.2,0.3c0.6-23.8,1.2-47.6,1.7-71.5
		c0.7-28.8-8-40-39.7-40c-40.9,0-81.7-0.1-122.6-0.1c-61.3,0-74,19.8-75.6,64.9c-0.4,11.5-1.2,36.3-1.8,52
		c-1.2,36.9,6.4,53.9,55,53.9h0c-3,3.4-6.3,6.8-9.1,10c-2.3,2.6-5.8,6.5-5.3,11.6c0.4,5.6,5.7,10.9,13.6,10.9c3.2,0,6.4-0.8,9.4-1.7
		c23.1-6.7,44.8-16.9,64.4-30.2l48.8,1.4c-0.1,2.2-1.5,43.5-2,55.3c-1.2,37.6,7,53.9,55,53.9h0c-8,8.8-15.1,14.5-14.5,21.7
		c0.3,5.1,4.6,9.5,10.4,10.6c1.1,0.2,2.1,0.3,3.1,0.3c3.2,0,6.4-0.8,9.4-1.7c23.1-6.7,44.8-16.9,64.4-30.2l58.7,1.7
		c38.8,1.1,50.2-11.2,51.1-47.1c0.7-28.7,1.4-57.3,2.1-86C504.9,154,496.3,142.8,464.5,142.8L464.5,142.8z M489.8,267.3l-10.4-10.4
		l9.7-9.7l5.7,5.7c-0.1,3.3-0.2,6.5-0.2,9.8L489.8,267.3z M495.2,232.9l-4.9-4.9l5.1-5.1C495.4,226.2,495.3,229.5,495.2,232.9
		L495.2,232.9z M137.9,223.1c-0.3-3,16.3-20.1,18.4-22.6c2.2-2.5,0.3-6.4-2.9-6.4c0,0-0.1,0-0.1,0c-51.7,1.6-57-10.6-55.9-45.7
		c0.8-20.9,1.4-38.5,1.8-52c1.5-40.8,10.8-57.4,67.9-57.4c40.9,0.1,81.8,0.1,122.6,0.1c27.4,0,32.5,7.9,31.9,32v0
		c-0.2,10.5-0.5,20.9-0.8,31.4c-0.1-0.3-0.1-0.6-0.3-0.8c-0.8-0.8-2-0.8-2.7,0l-4,4l-0.2-0.2c-0.8-0.8-2-0.8-2.7,0
		c-0.8,0.8-0.8,2,0,2.7l0.2,0.2l-1.8,1.8c-0.8,0.8-0.8,2,0,2.7c0.8,0.8,2,0.8,2.7,0l1.8-1.8l3.2,3.2c0.8,0.8,2,0.8,2.7,0
		c0.8-0.8,0.8-2,0-2.7l-3.2-3.2l4-4c0.2-0.2,0.2-0.5,0.3-0.7c-0.1,5.9-0.3,11.8-0.4,17.7c-1.3,0-7.6,6.7-8.6,7.7l-3.2-3.2l3-3
		c0.8-0.8,0.8-2,0-2.7c-0.8-0.8-2-0.8-2.7,0l-3,3l-1-1c-0.8-0.8-2-0.8-2.7,0c-0.8,0.8-0.8,2,0,2.7l1,1l-8.4,8.4l-6.2-6.2
		c-0.8-0.8-2-0.8-2.7,0c-0.8,0.8-0.8,2,0,2.7l6.2,6.2l-13,13c-1.8,1.8,1,4.5,2.7,2.7l13-13l6.2,6.2c0.8,0.8,2,0.8,2.7,0
		c0.8-0.8,0.8-2,0-2.7l-6.2-6.2l8.4-8.4l3.2,3.2l-6.6,6.6c-0.8,0.8-0.8,2,0,2.7c0.8,0.8,2,0.7,2.7,0l6.6-6.6l2.9,2.9
		c0.8,0.8,2,0.8,2.7,0c0.8-0.8,0.8-2,0-2.7l-2.9-2.9l5.7-5.7c-0.1,5.7-0.3,11.4-0.4,17.1c-3.1,0.3-8.6,1.1-12.5,2
		c-17,4-30.6,13.5-36.5,30.1l-2.2,2.2l-10.2-10.2l12.6-12.6c0.6-0.6,0.6-1.4,0.3-2.1l6.3,6.3c0.8,0.8,2,0.7,2.7,0
		c0.8-0.8,0.8-2,0-2.7L267.1,143c-0.8-0.8-2-0.8-2.7,0c-0.8,0.8-0.8,2,0,2.7l6.1,6.1c-0.7-0.3-1.5-0.3-2.1,0.3l-12.6,12.6l-6.2-6.2
		c-0.8-0.8-2-0.8-2.7,0s-0.8,2,0,2.7l6.2,6.2l-12,12l-5.8-5.8l5.2-5.2c0.8-0.8,0.8-2,0-2.7c-0.8-0.8-2-0.8-2.7,0l-5.2,5.2l-3.6-3.6
		c-0.8-0.8-2-0.8-2.7,0s-0.8,2,0,2.7l3.6,3.6l-11.2,11.2l-4.2-4.2l1.2-1.2c0.8-0.8,0.8-2,0-2.7s-2-0.8-2.7,0l-1.2,1.2l-2.2-2.2
		c-0.8-0.8-2-0.8-2.7,0s-0.8,2,0,2.7l2.2,2.2l-11.6,11.6l-8.2-8.2l2.9-2.9c0.8-0.8,0.8-2,0-2.7s-2-0.8-2.7,0l-3.7,3.8
		c-0.2,0.1-0.5,0.1-0.7,0.3s-0.2,0.4-0.3,0.7l-21.6,21.6l-0.8-0.8c-0.8-0.8-2-0.8-2.7,0s-0.8,2,0,2.7l0.8,0.8l-8.2,8.2l-2.2-2.2
		c-0.8-0.8-2-0.8-2.7,0s-0.8,2,0,2.7l2.2,2.2l-8,8C139.4,225.8,138,224.5,137.9,223.1L137.9,223.1z M266.8,196.4l-9-0.3l-1.3-1.3
		c0.2-0.1,0.4-0.1,0.6-0.2l11.6-11.6l0,0C267.7,187.5,267.2,192,266.8,196.4z M225.7,191.9l-4.4-4.4l11.2-11.2l5.8,5.8l-10.6,10.6
		c-0.7,0.7-0.7,1.8-0.1,2.6l-3.2-0.1c0.4,0,0.9-0.2,1.2-0.5C226.4,193.9,226.4,192.7,225.7,191.9L225.7,191.9z M241,184.9l11.1,11.1
		l-21.6-0.6L241,184.9z M254.1,192.5l-10.4-10.4l12-12l10.2,10.2l-11.6,11.6C254.2,192.1,254.2,192.3,254.1,192.5L254.1,192.5z
		 M157.2,220.9l-2.5-2.5l8.2-8.2l7.5,7.5c0.3,0.3,0.8,0.5,1.3,0.5c-4.7,1.9-9.5,3.6-14.4,5.2C157.8,222.6,157.8,221.6,157.2,220.9
		L157.2,220.9z M173.1,215l-7.5-7.5l7.8-7.8l8.2,8.2l-1.2,1.2c-0.8,0.8-0.8,2,0,2.7c0.8,0.8,2,0.8,2.7,0l1.2-1.2l0.1,0.1
		c0.8,0.8,2,0.8,2.7,0c0.8-0.8,0.8-2,0-2.7l-0.1-0.1l10.2-10.2l4.2,4.2l-1.6,1.6c-0.4,0.4-0.6,1-0.5,1.5
		c-8.4,4.8-17.2,8.9-26.2,12.6C173.8,216.8,173.8,215.7,173.1,215L173.1,215z M186.3,186.7l8.2,8.2l-10.2,10.2l-8.2-8.2L186.3,186.7
		z M204.2,199.1l-4.2-4.2l11.6-11.6l4.2,4.2L204.2,199.1z M151,225.5c-1.6,0.4-3.1,0.9-4.6,1.1l5.5-5.5l2.5,2.5
		c0.3,0.3,0.6,0.3,0.9,0.4C153.9,224.5,152.5,225.1,151,225.5L151,225.5z M216.5,195c-0.8,0-1.6,0.2-2.3,0.7
		c-0.9,0.6-1.9,1.2-2.8,1.8l7.2-7.2l4.4,4.4c0.3,0.3,0.8,0.5,1.2,0.5L216.5,195z M319.4,338.1l5.2-5.2l3.2,3.2
		c-0.7,0.2-1.4,0.5-2.1,0.7C323.5,337.4,321.4,338,319.4,338.1z M360.7,296.8l8.6,8.6l-8.1,8.1l-6-6c-0.8-0.8-2-0.8-2.7,0
		c-0.8,0.8-0.8,2,0,2.7l6,6l-8.2,8.2c-0.2,0.2-0.2,0.4-0.3,0.6l-8.8-8.8L360.7,296.8z M388,292.2l4.8,4.8l-13.2,13.2l-4.8-4.8
		L388,292.2z M376.8,312.9l-1.2,1.2c-0.4,0.4-0.6,1-0.5,1.5c-2.5,1.4-5.1,2.7-7.6,4.1l-3.5-3.5l8.1-8.1L376.8,312.9z M363.9,321.6
		c-3.3,1.7-6.7,3.3-10.1,4.8l7.4-7.4L363.9,321.6z M338.5,319l9.5,9.6c0.1,0.1,0.2,0.1,0.4,0.1c-5.4,2.2-10.9,4.2-16.5,6.1l-4.6-4.6
		L338.5,319z M391.3,306.3c-0.9,0-1.6,0.2-2.3,0.7c-0.6,0.4-1.3,0.8-1.9,1.2l8.4-8.4l6.9,6.9L391.3,306.3z M406.8,288.4l7.3,7.3
		l-8.6,8.6l-7.3-7.3L406.8,288.4z M451.3,308l-42.7-1.3l8.3-8.3l7.8,7.8c0.8,0.8,2,0.8,2.7,0c0,0,0,0,0,0c0.1,0.1,0.1,0.3,0.2,0.4
		c0.8,0.8,2,0.7,2.7,0l11.8-11.8l5.9,5.9l-1.7,1.7c-0.8,0.8-0.8,2,0,2.7c0.8,0.8,2,0.8,2.7,0l1.7-1.7l1.2,1.2c0.8,0.8,2,0.8,2.7,0
		c0.8-0.8,0.8-2,0-2.7l-1.2-1.2l8.8-8.8l13.9,13.9C468.8,308.2,460,308.3,451.3,308L451.3,308z M439.4,292l-11.8,11.8c0,0,0,0,0,0
		c-0.1-0.1-0.1-0.3-0.2-0.4l-7.8-7.8l11.7-11.7L439.4,292z M444.9,292l8.8-8.8l5.9,5.9l-8.8,8.8L444.9,292z M479.8,304.2
		c-0.4-1.1-13.9-14.3-14.7-15.1l7.7-7.7l13.7,13.7c0.8,0.8,2,0.8,2.7,0c0.8-0.8,0.8-2,0-2.7l-13.7-13.7l4.3-4.3c0.8-0.8,0.8-2,0-2.7
		c-0.8-0.8-2-0.8-2.7,0l-4.3,4.3l-6.5-6.5c-0.8-0.8-2-0.8-2.7,0c-0.8,0.8-0.8,2,0,2.7l6.5,6.5l-7.7,7.7l-5.9-5.9l0.9-0.9
		c0.8-0.8,0.8-2,0-2.7c-0.8-0.8-2-0.8-2.7,0l-0.9,0.9l-8.3-8.3c-0.8-0.8-2-0.8-2.7,0c-0.8,0.8-0.8,2,0,2.7l8.3,8.3l-8.8,8.8
		l-8.7-8.7c-0.1-0.3-0.1-0.7-0.4-1s-0.6-0.3-1-0.4l-3.5-3.5c-0.8-0.8-2-0.8-2.7,0c-0.8,0.8-0.8,2,0,2.7l2.8,2.8L416.9,293l-7.3-7.3
		l5.6-5.6c0.8-0.8,0.8-2,0-2.7c-0.8-0.8-2-0.8-2.7,0l-6.5,6.5c-0.2,0.1-0.4,0.1-0.6,0.3c-0.2,0.2-0.2,0.4-0.3,0.6l-9.5,9.5l-5.1-5.1
		c0.1-0.6,0-1.2-0.5-1.6c-0.6-0.6-1.4-0.6-2.1-0.3c-0.6-0.1-1.1,0-1.6,0.5c-0.3,0.3-0.5,0.8-0.5,1.3L372,302.7l-8.6-8.6
		c2-2,5.4-4.3,3.5-6.2c-0.8-0.8-2-0.8-2.7,0l-39.6,39.6l-0.5-0.5c-0.8-0.8-2-0.8-2.7,0c-0.8,0.8-0.8,2,0,2.7l0.5,0.5l-6.3,6.3
		c-0.3,0.3-0.3,0.6-0.4,1c-4.4-2.2-2.3-5.2,0.9-8.9c5.1-5.8,9.8-10.6,15-16.7c1-1.2,1.2-2.8,0.6-4.2c-0.7-1.3-2-2.2-3.5-2.2
		c0,0-0.1,0-0.1,0c-51.6,1.6-57-10.6-55.9-45.7c3-80.4-6.5-109.4,69.7-109.4c40.9,0.1,81.8,0.1,122.6,0.1c27.3,0,32.5,7.8,31.9,32
		c-0.3,11.7-0.6,23.4-0.8,35.1c-0.3,0.1-0.6,0.1-0.8,0.3l-11.1,11.1c-0.8,0.8-0.8,2,0,2.7c0.8,0.8,2,0.8,2.7,0l1.2-1.2l7.5,7.5
		c-0.1,3.1-0.1,6.2-0.2,9.3l-3.1-3.1l0.8-0.8c0.8-0.8,0.8-2,0-2.7c-0.8-0.8-2-0.8-2.7,0l-0.8,0.8c-1.9-1.9-4.3-5.3-6.1-3.4
		c-0.8,0.8-0.8,2,0,2.7l3.4,3.4l-9.7,9.7l-1.9-1.9c-0.8-0.8-2-0.8-2.7,0c-0.8,0.8-0.8,2,0,2.7l1.9,1.9l-7.8,7.8
		c-0.8,0.8-0.8,2,0,2.7c0.8,0.8,2,0.8,2.7,0l7.8-7.8l10.4,10.4l-3,3c-0.8,0.8-0.8,2,0,2.7c0.8,0.8,2,0.7,2.7,0l7.6-7.6
		c0,0.1,0,0.2,0,0.2C494,283.5,492.8,297.7,479.8,304.2L479.8,304.2z"/>
	<path class="st0" d="M171.8,235.8c-8.5,4.4-11.7,13.6-14.5,21.8l-0.3,0.8c-18.3,53.3-44.2,82.4-88.6,99.5
		c-8.4-33-37.8-39.4-50.1-6.3c-13,35.1-14,73.9-2.8,103.9c12.7,33.8,42.5,32.2,52.2,4.1c8.8,6.8,19.8,11.7,33,14.5
		c21.9,4.6,88.9,5.8,133.3-0.1c40.9-5.4,41.1-31.5,30.1-41.3c14.1-14.3,7.7-32.3-4.7-37c3.5-4.4,6.2-9.4,7.8-14.8
		c4-13.9-1.5-23.3-9.7-26.2c10.2-22.5-16.3-53.9-62.2-30.8c8.3-16.3,12.7-34.5,12.3-52.7C207,235.6,183.2,229.9,171.8,235.8
		L171.8,235.8z M22.8,452.7c-19.6-52,4.9-141.3,31.3-108.4c4.1,5.1,6,11.9,7.6,18.5c6.3,27.4,6.7,56.5,1.3,84.1
		C56,482.8,32.7,478.8,22.8,452.7z M97.7,465.2l-0.7-0.7l2.6-2.6l4.7,4.7l-0.1,0.1C99.1,465.7,102.6,466.4,97.7,465.2z M114.8,461.7
		l4.8,4.8l-2.1,2.1c-2.2-0.2-4.3-0.4-6.4-0.7c-0.6-0.7-0.6-0.6-1.2-1.3L114.8,461.7z M130.8,460.7l4.5,4.5c-1,1-3.3,2.9-3.3,4.2
		c-1.4,0-2.8-0.1-4.2-0.2l-2.8-2.8L130.8,460.7z M136.5,469.6l1.6-1.6l1.7,1.7C138.3,469.7,137,469.6,136.5,469.6z M148.8,469.9
		l2.2-2.2l2.3,2.3C151.8,469.9,150.3,469.9,148.8,469.9z M164.9,470l2.1-2.1l2.1,2.1C167.7,470,166.3,470,164.9,470z M192.8,457.9
		c0,0.1,0,0.1,0.1,0.2l3.5,3.5l-6.7,6.7c0,0,0,0,0,0l-3.7-3.6L192.8,457.9z M241.1,451.2l3.8,3.8l-4,4l-3.8-3.8L241.1,451.2z
		 M238.1,461.8l-4.3,4.3c-0.2,0-0.5,0.1-0.7,0.1c-2.5,0.3-5,0.6-7.4,0.9l-0.2-0.2l8.9-8.9L238.1,461.8z M241.4,464.8
		c-0.4,0.1-0.7,0.1-1.1,0.2l0.5-0.5C241.3,464.9,241,464.5,241.4,464.8z M220.4,467.3c0,0.1,0.1,0.2,0.1,0.3c-4,0.4-8.1,0.7-12.1,1
		c0-0.1-0.1-0.3-0.2-0.4l6.5-6.5L220.4,467.3z M202.9,468.2c-0.2,0.2-0.2,0.5-0.3,0.8c-2.8,0.2-5.7,0.3-8.5,0.4l5.1-5.1L202.9,468.2
		L202.9,468.2z M185.7,469.8c-1.6,0-3.2,0.1-4.9,0.1l2.5-2.5L185.7,469.8z M243.9,464.2c0.5-0.8,0.5-1.7-0.3-2.5l4-4l1.6,1.6
		c0.8,0.8,2,0.8,2.7,0c0.8-0.8,0.8-2,0-2.7l-1.6-1.6l2.6-2.6c0.7-0.7,0.7-1.7,0.1-2.5c0.2-0.1,0.4-0.1,0.5-0.2l1.1-1.1l3.2,3.2
		c1.8,1.8,4.5-0.9,2.7-2.7l-3.2-3.2l3.6-3.6c0.2-0.2,0.2-0.5,0.3-0.8C264.9,448.8,261,459.8,243.9,464.2z M182,331.4
		c-0.8,0.6-1.3,1.3-1.5,2.2c-2.2,3.1-4.5,6.1-7.1,8.9c-1.4,1.6-1.3,4,0.3,5.5c1.6,1.4,4,1.3,5.5-0.3c3-3.4,5.7-6.9,8.3-10.6
		c64.2-37.2,76.1,15.4,54.9,22.3c-2,0.7-3.2,2.8-2.5,4.9c1.8,5.5,8.9,1.5,12.9-2.6c15.7-0.9,8.5,37-21,42.5
		c-2.1,0.4-3.5,2.4-3.1,4.5c1.5,8.1,18.8-1.6,25-6.9c0.5,0.3,1,0.6,1.6,0.7c10.1,1.8,14,17.8,0.6,27.3c-4.7,3.3-10.9,5.4-18.7,6.1
		c-2.1,0.2-3.7,2.1-3.5,4.2c0.2,2,1.9,3.6,4.2,3.5c7.9-0.8,14.6-2.8,20-6c0.7,0.4,1.3,0.9,1.9,1.5c-0.5,0-1.1,0.1-1.5,0.5l-3.6,3.6
		l-1.2-1.2c-0.8-0.8-2-0.8-2.7,0c-0.8,0.8-0.8,2,0,2.7l1.2,1.2l-1.1,1.1c-0.7,0.7-0.7,1.7-0.1,2.5c-0.2,0.1-0.4,0.1-0.5,0.2
		l-2.6,2.6l-4.1-4.1c-0.6-0.6-1.6-0.6-2.3-0.2c-0.8-0.5-1.8-0.6-2.4,0.1l-4.4,4.4l-1.3-1.3c-0.8-0.8-2-0.8-2.7,0
		c-0.8,0.8-0.8,2,0,2.7l1.3,1.3l-8.9,8.9l-5.1-5.1l9-9c0.8-0.8,0.8-2,0-2.7c-0.8-0.8-2-0.8-2.7,0l-9,9l-1.8-1.8
		c-0.8-0.8-2-0.8-2.7,0c-0.8,0.8-0.8,2,0,2.7l1.8,1.8l-6.4,6.4l-3.8-3.8l8.4-8.4c0.8-0.8,0.8-2,0-2.7c-0.8-0.8-2-0.8-2.7,0l-8.4,8.4
		l-3.5-3.5c-0.1-0.1-0.3-0.1-0.4-0.2c0.4-0.7,0.4-1.6-0.2-2.2c-0.8-0.8-2-0.8-2.7,0l-8.9,8.9l-3.5-3.5c-0.8-0.8-2-0.8-2.7,0
		c-0.8,0.8-0.8,2,0,2.7l3.5,3.5l-4.6,4.6c-0.2,0.2-0.2,0.5-0.3,0.7c-0.5,0-1,0-1.5,0c-0.1-0.3-0.1-0.6-0.3-0.8l-4.1-4.1l13.2-13.2
		c0.8-0.8,0.8-2,0-2.7c-0.8-0.8-2-0.8-2.7,0L167,462.4l-1.9-1.9c-0.8-0.8-2-0.8-2.7,0c-0.8,0.8-0.8,2,0,2.7l1.9,1.9l-4.9,4.9
		c-0.2,0-0.5,0-0.7,0c-0.6-0.8-4.2-4.3-4.9-5.1l9.1-9.1c0.8-0.8,0.8-2,0-2.7c-0.8-0.8-2-0.8-2.7,0l-9.1,9.1l-1.3-1.3
		c-0.8-0.8-2-0.8-2.7,0c-0.8,0.8-0.8,2,0,2.7l1.3,1.3l-3.9,3.9l-3.6-3.6l9.6-9.6c0.8-0.8,0.8-2,0-2.7c-0.8-0.8-2-0.8-2.7,0l-9.6,9.6
		l-4.5-4.5l3.7-3.7c0.8-0.8,0.8-2,0-2.7c-0.8-0.8-2-0.8-2.7,0l-4,4c-0.6-0.1-1.2,0-1.6,0.5c-0.4,0.4-0.6,1-0.5,1.6l-6.1,6.1
		l-4.8-4.8l3.3-3.3c0.8-0.8,0.8-2,0-2.7c-0.8-0.8-2-0.8-2.7,0l-4.4,4.4c-0.1,0.1-0.2,0-0.3,0.1c-0.1,0.1-0.1,0.2-0.1,0.3l-6.1,6.1
		l-4.7-4.7l6.5-6.5c0.8-0.8,0.8-2,0-2.7c-0.8-0.8-2-0.8-2.7,0c-2.6,2.6-9.3,9.3-11.9,11.9c-1.6-1.6-3.1-3.6-4.7-2
		c-0.7,0.7-0.8,1.9,0.1,2.9c-7.6-2.8-14.3-6.5-19.7-11.2c0.2-1.1,0.5-2.1,0.7-3.1c5.3-27.2,5.1-55.7-0.5-82.8
		c46.8-17.7,75.2-49.2,94.2-104.6l0.3-0.8c2.4-7.1,5-14.5,10.7-17.4c7.8-4,24.1,0.8,24.6,28.6C200.4,292.5,193.9,313.8,182,331.4
		L182,331.4z"/>
	<path class="st0" d="M47.1,427.7c-4.3-0.9-8.9,0.2-12.4,3.1c-3.7,3-5.8,7.2-5.8,11.5c0,4.1,1.9,7.8,5.3,10.5
		c9.5,7.6,23.2,1,23.9-10.4C58.5,435.6,53.6,429.1,47.1,427.7L47.1,427.7z M44.5,448.1c-2,0.3-4-0.2-5.6-1.5
		c-1.5-1.2-2.3-2.8-2.3-4.5c0-2,1-4,2.9-5.5c1.3-1.1,3-1.7,4.6-1.7c0.4,0,0.9,0,1.3,0.1c2.8,0.6,5.1,3.7,4.9,6.6
		C50.1,444.8,47.5,447.7,44.5,448.1z"/>
	<path class="st0" d="M164,69.5c0.3,1,1.3,1.6,2.4,1.3c1-0.3,1.6-1.4,1.3-2.4c-0.7-2.4-1.7-4.8-2.7-7.1c5.4-0.5,10.7-0.9,21.5-1.5
		l2.7,5.8c0.4,1,1.6,1.4,2.6,0.9c1-0.4,1.4-1.6,0.9-2.6l-2-4.4c8.5-0.4,17-0.6,25.6-0.7l1,4.6c0.2,0.9,1,1.5,1.9,1.5
		c1.2,0,2.2-1.1,1.9-2.4l-0.8-3.8c7.9,0,15.7,0.1,23.5,0.3c-0.2,1-0.3,2.1-0.6,3c-0.3,1,0.2,2.1,1.2,2.5c0.9,0.3,2.1-0.2,2.5-1.2
		c0.5-1.3,0.6-2.8,0.9-4.2c3.9,0.1,7.8,0.2,11.7,0.4c1,0,2-0.8,2-1.8c0.1-1.1-0.8-2-1.8-2c-3.8-0.2-7.7-0.3-11.5-0.4
		c0-1.7,0-3.3-0.3-4.9c-0.2-1-1.2-1.8-2.3-1.6c-1.1,0.2-1.8,1.2-1.6,2.3c0.2,1.3,0.2,2.7,0.2,4.1c-8.3-0.3-16.5-0.4-24.8-0.4l-1-4.8
		c-0.2-1-1.3-1.7-2.3-1.5c-1,0.2-1.7,1.3-1.5,2.3l0.9,3.9c-8.8,0.1-17.7,0.3-26.5,0.8l-1.2-2.5c-0.4-1-1.6-1.4-2.6-0.9
		c-1,0.4-1.4,1.6-0.9,2.6l0.5,1.2c-8.5,0.5-13.9,0.8-21.6,1.5c-0.1-0.3-0.3-0.6-0.4-0.8c0.7-0.4,1.1-1.1,1-1.9
		c-0.1-1.1-1-1.8-2.1-1.7l-2.1,0.2c-0.7,0.1-1.2,0.5-1.5,1.1c-0.3,0.6-0.3,1.3,0.1,1.9c0.3,0.6,0.6,1.2,0.9,1.7
		c-10,1.1-14.9,2.7-19.6,4.7c-1.3-2.1-3.3-6.5-5.4-5.8c-0.8,0.3-1.4,1.1-1.3,2l0.1,0.5l0.6,0.1l-0.4,0.3l0,0.1l-0.2,0
		c0.1,0.8,0.6,1.4,1.3,1.6l1.8,2.9c-3.6,1.9-7.1,4.4-10.2,7.9l-8.2-5.4c-0.9-0.6-2.1-0.4-2.7,0.5c-0.6,0.9-0.3,2.1,0.5,2.7l7.8,5.2
		c-5.8,8.4-6.1,18.1-2.3,25c0.5,0.9,1.7,1.3,2.6,0.8c0.9-0.5,1.3-1.7,0.8-2.6c-3-5.6-2.9-13.9,2.1-21.1l6.6,4.4
		c0.9,0.6,2.1,0.4,2.7-0.5c0.6-0.9,0.3-2.1-0.5-2.7l-6.2-4.1c2.8-2.9,5.9-5.1,9.1-6.7l2.9,4.6c0.6,0.9,1.8,1.2,2.7,0.6
		c0.9-0.6,1.2-1.8,0.6-2.7l-2.6-4.2c4.4-1.8,9.3-3.3,19.4-4.3C162.1,64.2,163.2,66.8,164,69.5z"/>
	<path class="st0" d="M416.4,170.7c-3.8-0.3-7.7-0.5-11.6-0.8c0.2-2.2,0.3-4.4,0.1-6.6c-0.1-1.1-1.1-1.8-2.1-1.7
		c-1.1,0.1-1.8,1.1-1.7,2.1c0.2,2,0.2,3.9-0.1,5.9c-3.8-0.2-7.6-0.4-11.4-0.5c0.1-1.5,0.4-3,0.9-4.5c0.3-1-0.2-2.1-1.2-2.5
		c-1.1-0.4-2.1,0.2-2.5,1.2c-0.6,1.8-0.9,3.6-1.1,5.5c-6.8-0.2-13.6-0.4-20.4-0.4c-0.2-1.7-0.2-3.3,0.2-4.9c0.2-1-0.4-2.1-1.5-2.3
		c-1.1-0.2-2.1,0.4-2.3,1.5c-0.4,1.9-0.4,3.8-0.3,5.7c-6.3,0-12.6,0.1-18.8,0.2l-2.1-6.1c-0.3-1-1.4-1.6-2.5-1.2
		c-1,0.3-1.6,1.4-1.2,2.5l1.7,5c-7.9,0.3-15.7,0.8-23.2,3c-1.8,0.6-3.5,1.3-5.2,2c-0.8-1.9-2.7-6.7-7.1-7c-1.3,0-2,0.8-2.1,1.8
		c-0.1,1.1,0.8,2,1.8,2.1c1.4,0.1,2.6,1.6,3.8,4.7l0.1,0.1c-5.9,3.2-11,7.6-14,13.7c-1.3-1.1-2.8-2.2-4.3-3.2
		c-0.9-0.6-2.1-0.3-2.7,0.6c-0.6,0.9-0.3,2.1,0.6,2.7c1.7,1.1,3.3,2.4,4.8,3.7c-2.1,6.8-1.3,14.3,2.5,19.7c0.6,0.9,1.8,1.1,2.7,0.5
		c0.9-0.6,1.1-1.8,0.5-2.7c-2.7-3.9-3.3-9-2.4-14.1c1.6,1.8,3,3.7,4.2,5.8c0.5,0.9,1.7,1.2,2.6,0.7c0.9-0.5,1.2-1.7,0.7-2.6
		c-1.7-3-3.8-5.8-6.2-8.2c1.9-4.6,4.8-8.8,12.3-13l4,10c0.4,1,1.5,1.5,2.5,1.1c1-0.4,1.5-1.5,1.1-2.5l-4.1-10.4
		c1.6-0.7,3.2-1.4,4.9-1.9c7.4-2.2,15.3-2.7,23.4-2.9l2.8,8.1c0.4,1.1,1.5,1.6,2.5,1.2c1-0.3,1.6-1.4,1.2-2.5l-2.4-7
		c6.1-0.1,12.1-0.2,18.2-0.2c0.7,2.3,1.7,4.5,3.2,6.5c0.7,0.9,1.9,1,2.7,0.3c0.8-0.7,1-1.9,0.3-2.7c-0.9-1.2-1.6-2.6-2.2-4
		c6.5,0.1,12.9,0.2,19.4,0.4c0.1,1.9,0.4,3.8,1,5.7c0.3,1,1.3,1.6,2.4,1.3c1-0.3,1.6-1.4,1.3-2.4c-0.4-1.4-0.7-2.9-0.8-4.4
		c3.6,0.1,7.2,0.3,10.7,0.5c-0.4,1.6-1,3.2-1.7,4.7c-0.5,1-0.1,2.1,0.9,2.6c1,0.5,2.1,0.1,2.6-0.9c1-1.9,1.7-4,2.2-6.2
		c4,0.2,8,0.5,12,0.8c1.1,0.2,2-0.7,2.1-1.8C418.3,171.7,417.5,170.8,416.4,170.7L416.4,170.7z"/>
	<path class="st0" d="M165.5,292.5c0.3-1.4,0.6-2.8,0.9-4.2c0.2-1.1-0.5-2.1-1.6-2.2c-1-0.2-2.1,0.5-2.2,1.6
		c-0.2,1.1-0.4,2.2-0.7,3.3l-1.3-0.5c-1-0.4-2.1,0-2.5,1c-0.4,1,0,2.1,1,2.5l1.9,0.8c-0.7,2.9-1.7,5.7-2.7,8.6l-2.8-1.3
		c-1-0.4-2.1,0-2.6,1c-0.4,1,0,2.1,1,2.6l3,1.4c-1.9,4.6-4.2,9-6.9,13.2l-4.7-2.2c-0.9-0.4-2.1,0-2.6,0.9c-0.5,1,0,2.1,0.9,2.6
		l4.2,1.9c-3.9,5.6-7.8,10.1-12.6,14.6c-0.8-1-1.7-2-2.2-3.1c-0.5-1-1.7-1.3-2.6-0.8c-1,0.5-1.3,1.7-0.8,2.6c0.7,1.4,1.7,2.7,2.7,4
		c-4.3,3.8-8.9,7.2-13.7,10.4c-1.4-1.2-2.7-2.6-3.6-4.2c-0.5-0.9-1.7-1.2-2.6-0.7c-0.9,0.5-1.3,1.7-0.7,2.6c0.9,1.7,2.2,3.1,3.7,4.5
		c-4.3,2.7-8.7,5.3-13.1,7.8l-3.4-5.1c-0.6-0.9-1.8-1.1-2.7-0.6c-0.9,0.6-1.1,1.8-0.6,2.7l3.2,4.9c-2.4,1.3-4.8,2.6-7.2,3.9
		c-0.9,0.5-1.3,1.7-0.8,2.6c0.5,0.9,1.7,1.3,2.6,0.8c2.4-1.3,4.9-2.7,7.4-4.1l2.1,3.2c0.4,0.6,1.1,1.7,2.4,2.2
		c0.9,0.3,2.1,0.2,3-0.5c0.8-0.6,1.2-1.5,1.1-2.4c-0.1-1.1-0.9-2-2.1-1.8c-0.4,0-0.8,0.2-1.1,0.5c0,0,0-0.1-0.1-0.1l-2-3
		c4.8-2.7,9.6-5.5,14.3-8.6c1.8,1.1,3.8,2,5.8,2.4c0.1,0,0.3,0,0.4,0c0.9,0,1.7-0.6,1.9-1.5c0.2-1.1-0.5-2.1-1.5-2.3
		c-1.1-0.2-2.1-0.6-3.1-1c4.5-3,8.8-6.3,12.9-9.9c1.2,1,2.4,2,3.8,2.8c0.9,0.5,2.1,0.2,2.6-0.7c0.5-0.9,0.2-2.1-0.7-2.6
		c-1-0.6-1.8-1.4-2.7-2.1c5-4.7,9.3-9.6,13.4-15.7l4.8,2.2c1,0.4,2.1,0,2.6-0.9c0.5-1,0-2.1-0.9-2.6l-4.4-2
		c2.6-4.2,4.9-8.7,6.8-13.3l1.5,0.7c1,0.4,2.1,0,2.6-1c0.4-1,0-2.1-1-2.6l-1.7-0.8c1.1-2.8,2-5.7,2.7-8.7l3.1,1.3
		c0.9,0.4,2.1,0,2.5-1c0.4-1-0.1-2.1-1-2.5L165.5,292.5z"/>
</g>
</svg>
