<?xml version="1.0" encoding="utf-8"?>
<!-- Generator: Adobe Illustrator 25.0.0, SVG Export Plug-In . SVG Version: 6.00 Build 0)  -->
<svg version="1.1" id="Layer_1" xmlns="http://www.w3.org/2000/svg" xmlns:xlink="http://www.w3.org/1999/xlink" x="0px" y="0px"
	 viewBox="0 0 512 512" style="enable-background:new 0 0 512 512;" xml:space="preserve">
<style type="text/css">
	.st0{fill:#F64E60;}
</style>
<g>
	<g id="XMLID_1_">
		<path class="st0" d="M424.5,330c0.7,0.7,0.7,1.9,0,2.7l-7.4,7.4l3.7,3.6c0.7,0.8,0.7,2,0,2.8c-0.8,0.7-2,0.7-2.8,0l-3.6-3.7
			l-5.4,5.4c-0.8,0.8-2,0.8-2.8,0c-0.8-0.8-0.8-1.9,0-2.7l5.4-5.4l-4.3-4.3l-5.2,5.2c-0.8,0.8-2,0.8-2.8,0c-0.7-0.8-0.7-2,0-2.7
			l5.2-5.2l-4.6-4.6c-0.7-0.8-0.7-2,0-2.8c0.8-0.7,2-0.7,2.8,0l4.6,4.6l9.8-9.8c0.8-0.8,2-0.8,2.8,0c0.8,0.8,0.8,2,0,2.7l-9.9,9.9
			l4.3,4.3l7.4-7.4C422.5,329.2,423.7,329.2,424.5,330z"/>
		<path class="st0" d="M391.5,262.7c-0.8-0.8-0.8-2,0-2.7l9.5-9.6l-3-3c-0.7-0.8-0.7-1.9,0-2.7c0.8-0.8,2-0.8,2.8,0l3,3l6.8-6.8
			c0.8-0.8,1.9-0.8,2.7,0c0.8,0.7,0.8,1.9,0,2.7l-6.8,6.8l4.1,4.1l3.6-3.6c0.8-0.7,2-0.7,2.8,0c0.8,0.8,0.8,2,0,2.8l-3.6,3.6
			l1.6,1.6c0.8,0.8,0.8,2,0,2.8c-0.8,0.8-1.9,0.7-2.7,0l-1.7-1.7l-7.4,7.4c-0.8,0.7-2,0.7-2.7,0c-0.8-0.8-0.8-2,0-2.8l7.4-7.4
			l-4.1-4.1l-9.6,9.5C393.5,263.5,392.3,263.5,391.5,262.7L391.5,262.7z"/>
		<path class="st0" d="M384.4,323.7c-4.2,5.3-3.6,10.9-3,17.8c2.1,22.2-1.1,18.7,43.8,16c17.1-1.1,20.8-4.8,21.4-21.7
			c0.5-13.7-1.3-19.3-21.5-21.3C412.5,313.4,393.9,311.7,384.4,323.7L384.4,323.7z M425.6,365.2c-44.7,2.7-49,7-51.9-22.9
			c-0.8-7.7-1.5-15.7,4.7-23.4c12.6-16,35.8-13.1,47.5-12c24.3,2.2,29.1,11.3,28.5,29.2C453.5,357.3,446.6,364,425.6,365.2
			L425.6,365.2z"/>
		<path class="st0" d="M384.4,244.4c-5,6.4-3.3,13.3-2.6,21.8c0.9,11.8,2.1,14.5,12.3,13.9l31-1.9c17.2-1,20.8-4.9,21.4-21.7
			c0.5-13.7-1.3-19.3-21.5-21.2C413.1,234.2,394,232.3,384.4,244.4L384.4,244.4z M374,266.8c-0.6-8.9-2.8-18.2,4.3-27.2
			c12.6-16,36.1-13.1,47.6-12c24.3,2.3,29.1,11.3,28.5,29.2c-0.8,21.5-8.1,27.9-28.7,29.2l-31,1.9C377.3,289,374.9,279.4,374,266.8
			L374,266.8z"/>
		<path class="st0" d="M296.6,263.1l10.3-10.4l-5.7-5.7c-0.8-0.7-0.8-1.9,0-2.7c0.8-0.8,2-0.8,2.8,0l5.7,5.7l7.8-7.8
			c0.8-0.7,2-0.7,2.8,0c0.7,0.8,0.7,2,0,2.8l-7.8,7.8l3.9,3.9l8.5-8.5c0.8-0.8,2-0.8,2.8,0c0.7,0.8,0.7,2,0,2.7l-8.5,8.5l3.6,3.6
			c0.8,0.8,0.8,2,0,2.8c-0.8,0.7-2,0.7-2.7,0l-3.6-3.6l-7.3,7.2c-0.8,0.8-1.9,0.8-2.7,0c-0.8-0.8-0.8-2,0-2.8l7.2-7.2l-3.8-3.8
			l-10.4,10.4c-0.8,0.7-2,0.7-2.7,0C295.9,265.2,295.9,263.9,296.6,263.1L296.6,263.1z"/>
		<path class="st0" d="M302.9,329.8c-0.7-0.8-0.7-2,0-2.7c0.8-0.8,2-0.8,2.8,0l6.3,6.3l6.9-6.9c0.8-0.8,1.9-0.8,2.7,0
			c0.8,0.8,0.8,1.9,0,2.7l-6.9,6.9l4.2,4.2l5.5-5.5c0.8-0.8,2-0.8,2.7,0c0.8,0.7,0.8,1.9,0,2.7l-5.5,5.5l3.3,3.3
			c0.8,0.8,0.8,2,0,2.7c-0.7,0.8-1.9,0.8-2.7,0l-3.3-3.3l-4.7,4.7c-0.8,0.8-2,0.8-2.8,0c-0.7-0.7-0.7-1.9,0-2.7l4.7-4.7l-4.1-4.1
			L300,350.7c-0.8,0.8-1.9,0.8-2.7,0c-0.8-0.7-0.8-1.9,0-2.7l11.9-11.9L302.9,329.8z"/>
		<path class="st0" d="M297.5,400.3l4.7,4.7l5.7-5.7c0.8-0.8,2-0.8,2.7,0c0.8,0.8,0.8,1.9,0,2.7l-5.7,5.7l4.8,4.8l3.3-3.4
			c0.8-0.8,2-0.8,2.8,0c0.8,0.8,0.8,2,0,2.8l-3.4,3.3l2.4,2.4c0.8,0.8,0.8,2,0,2.8c-0.8,0.8-2,0.7-2.7,0l-2.4-2.4l-9.8,9.7
			c-0.4,0.4-0.9,0.6-1.4,0.6c-0.5,0-0.9-0.2-1.3-0.6c-0.8-0.7-0.8-1.9,0-2.7l9.7-9.8l-4.7-4.7l-10.7,10.6c-0.4,0.4-0.9,0.6-1.4,0.6
			c-0.5,0-0.9-0.2-1.3-0.6c-0.8-0.7-0.8-1.9,0-2.7l10.6-10.7l-4.7-4.7c-0.7-0.7-0.7-1.9,0-2.7C295.5,399.5,296.7,399.5,297.5,400.3
			L297.5,400.3z"/>
		<path class="st0" d="M279.6,239.6c12.6-16,36-13.1,47.5-12c24.3,2.3,29.1,11.3,28.5,29.2c-0.8,21.3-7.8,27.9-28.7,29.2l-31,1.9
			c-20.3,1.2-19.6-12.4-20.9-24.8C274.2,255.4,273.5,247.4,279.6,239.6z M295.3,280.1l31-1.9c17.3-1,20.8-5,21.4-21.7
			c0.5-13.7-1.4-19.3-21.4-21.2c-12.3-1.2-31.1-3.1-40.7,9.1c-4.2,5.4-3.6,10.9-2.9,17.9C284,276.5,283.2,280.8,295.3,280.1z"/>
		<path class="st0" d="M282.7,341.6c2.1,22.1-1.1,18.6,43.7,15.9c17.3-1.1,20.8-5,21.4-21.7c0.5-13.7-1.4-19.3-21.4-21.3
			c-11.9-1.1-31-3.1-40.7,9.2C281.4,329.1,282,334.6,282.7,341.6z M326.8,365.3c-44.8,2.6-49,6.8-51.9-23
			c-0.7-7.7-1.5-15.7,4.7-23.4c12.6-16,35.9-13.1,47.5-12c24.3,2.2,29.1,11.3,28.5,29.2C354.8,357.4,347.7,364,326.8,365.3
			L326.8,365.3z"/>
		<path class="st0" d="M326.8,444.5c-45,2.7-49,6.7-51.9-22.9c-0.7-7.8-1.5-15.7,4.7-23.4c12.6-16,35.9-13.2,47.5-12.1
			c24.4,2.3,29.1,11.6,28.5,29.2C354.8,436.6,347.8,443.3,326.8,444.5L326.8,444.5z M326.4,393.9c-11.9-1.1-31-3.2-40.7,9.2
			c-4.2,5.3-3.6,10.9-2.9,17.8c2,22.1-1.2,18.6,43.7,15.9c17.3-1,20.8-5,21.4-21.7C348.2,401.4,346.4,395.7,326.4,393.9z"/>
		<path class="st0" d="M198.3,343.8c-0.7-0.7-0.7-1.9,0-2.7l5.4-5.4l-3.2-3.2c-0.7-0.8-0.7-2,0-2.7c0.8-0.8,2-0.8,2.8,0l3.2,3.2
			l6.1-6.1c0.7-0.8,1.9-0.8,2.7,0c0.8,0.8,0.8,1.9,0,2.7l-6.1,6.1l3.3,3.2l6.9-6.9c0.8-0.8,2-0.8,2.7,0c0.8,0.8,0.8,1.9,0,2.7
			l-6.9,7l2.6,2.6c0.7,0.7,0.7,1.9,0,2.7c-0.8,0.8-2,0.8-2.8,0l-2.5-2.6l-6.4,6.3c-0.7,0.8-1.9,0.8-2.7,0c-0.8-0.7-0.8-1.9,0-2.7
			l6.3-6.3l-3.2-3.2l-5.4,5.4C200.3,344.6,199.1,344.6,198.3,343.8L198.3,343.8z"/>
		<path class="st0" d="M294.2,89.8c0.1-1.1,0.9-1.9,2.1-1.8c1.1,0.1,1.9,1,1.8,2.1c-0.2,1.3-0.2,2.6-0.2,4l28.9-0.7
			c1.1,0,1.9,0.9,2,1.9c0,1.1-0.9,2-1.9,2L297.7,98c0,3.5,0.1,7.1,0.4,10.6c0.2,1.1-0.6,2-1.7,2.2c-0.1,0-0.2,0-0.2,0
			c-1,0-1.9-0.8-1.9-1.8c-0.4-3.6-0.5-7.2-0.5-10.9L276,98.4c-0.1,2.7-0.5,7.4,0.7,9.8c0.5,1,0.2,2.2-0.9,2.6
			c-0.9,0.5-2.1,0.1-2.6-0.9c-1.6-3.3-1.2-7.8-1.2-11.5l-18.2,0.4c0.2,2.9,0.5,5.9,1.2,8.8c0.3,1.2-0.6,2.4-1.9,2.4
			c-0.9,0-1.7-0.5-1.9-1.4c-0.8-3.2-1.2-6.4-1.3-9.6l-22.8,0.5l0.5,8.1c0.1,1.2-0.9,2.1-1.9,2.1c-1,0-1.9-0.8-1.9-1.8l-0.5-8.4
			l-22.7,0.5l1.1,9.5c0.2,1.2-0.8,2.2-1.9,2.2c-0.9,0-1.8-0.8-1.9-1.7l-1.2-9.9l-20.3,0.5c-0.1,0-0.1,0-0.1,0
			c-1.1,0-1.9-0.9-1.9-1.9c0-1,0.9-1.9,1.9-1.9l20.1-0.5l-1.2-9.4c-0.1-1.1,0.7-2,1.7-2.2c1.1-0.1,2,0.6,2.2,1.7l1.2,9.8l22.9-0.5
			l-0.6-9.9c-0.1-1.1,0.7-2,1.8-2.1c1.2-0.2,2,0.8,2.1,1.8l0.6,10l23.2-0.5c0.1-2.6,0.4-5.2,0.9-7.8c0.2-1,1.2-1.7,2.2-1.5
			c1.1,0.2,1.7,1.2,1.6,2.3c-0.5,2.2-0.8,4.5-0.9,6.8l18.2-0.5l0.2-6.3c0-1,1-1.9,1.9-1.9c1.1,0,1.9,0.9,1.9,1.9l-0.2,6.1l17.9-0.4
			C294,92.7,294,91.2,294.2,89.8L294.2,89.8z"/>
		<path class="st0" d="M190.4,262.5l8.7-8.7l-5.5-5.5c-0.8-0.7-0.8-1.9,0-2.7c0.8-0.8,1.9-0.8,2.7,0l5.5,5.5l5.7-5.6
			c0.8-0.8,1.9-0.8,2.7,0c0.8,0.8,0.8,1.9,0,2.7l-5.6,5.7l4.7,4.7l7.1-7.1c0.7-0.8,1.9-0.8,2.7,0c0.8,0.7,0.8,1.9,0,2.7l-7.1,7.1
			c2.2,2.2,2,1.8,2.2,4.1c0.2,1.1-0.6,2-1.7,2.2c-0.1,0-0.1,0-0.2,0c-1,0-1.9-0.7-1.9-1.7l-0.1-0.8l-1.2-1.1l-6.4,6.4
			c-0.8,0.8-2,0.8-2.7,0c-0.8-0.8-0.8-2,0-2.7l6.4-6.5l-4.8-4.7l-8.6,8.6c-0.8,0.8-2,0.8-2.8,0C189.8,264.5,189.8,263.3,190.4,262.5
			L190.4,262.5z"/>
		<path class="st0" d="M190.1,424.1l8.1-8.1l-5.5-5.5c-0.8-0.8-0.8-1.9,0-2.7c0.7-0.8,1.9-0.8,2.7,0l5.5,5.5l9.3-9.3
			c0.7-0.7,1.9-0.7,2.7,0c0.8,0.8,0.8,2,0,2.8l-9.2,9.2l4,4l10.6-10.6c0.8-0.8,2-0.8,2.7,0c0.8,0.8,0.8,1.9,0,2.7l-10.6,10.6
			l4.7,4.7c0.8,0.8,0.8,2,0,2.8c-0.7,0.7-1.9,0.7-2.7,0l-4.7-4.8l-7.2,7.3c-0.8,0.7-2,0.8-2.8,0c-0.7-0.8-0.7-2,0-2.8l7.3-7.2l-4-4
			l-8,8c-0.8,0.8-2,0.8-2.8,0C189.4,426,189.4,424.8,190.1,424.1L190.1,424.1z"/>
		<path class="st0" d="M179.3,262.4c1.3,14,0.5,18.5,12.6,17.8l31-1.9c17.3-1,20.8-5,21.4-21.7c0.5-13.7-1.4-19.3-21.4-21.2
			c-12.5-1.2-31.2-2.9-40.7,9.1C178,249.8,178.6,255.4,179.3,262.4z M171.5,263.1c-0.7-7.7-1.5-15.7,4.7-23.4
			c12.6-16,36-13.1,47.5-12c24.3,2.3,29.1,11.3,28.5,29.2c-0.8,21.3-7.8,27.9-28.6,29.2l-31.1,1.9
			C172.1,289.1,172.8,275.5,171.5,263.1L171.5,263.1z"/>
		<path class="st0" d="M182.2,323.7c-4.2,5.4-3.6,10.9-2.9,17.9c2.1,22.2-1,18.6,43.7,15.9c17.3-1.1,20.8-5,21.4-21.7
			c0.5-13.7-1.4-19.3-21.4-21.3C211.9,313.6,192.1,311.3,182.2,323.7L182.2,323.7z M171.5,342.3c-0.7-7.7-1.5-15.7,4.7-23.4
			c12.6-16,35.9-13.1,47.5-12c24.3,2.2,29.1,11.3,28.5,29.2c-0.8,21.3-7.8,27.9-28.6,29.2C178.7,367.9,174.5,372.1,171.5,342.3z"/>
		<path class="st0" d="M179.3,420.8c2.1,22.1-1.2,18.6,43.7,15.9c17.3-1,20.8-5,21.4-21.7c0.5-13.7-1.3-19.3-21.4-21.2
			c-11-1-30.9-3.3-40.7,9.2C178,408.3,178.6,413.9,179.3,420.8L179.3,420.8z M171.5,421.6c-0.7-7.7-1.5-15.7,4.7-23.4
			c12.6-16,35.9-13.2,47.5-12.1c24.4,2.3,29.1,11.6,28.5,29.2c-0.8,21.3-7.8,27.9-28.6,29.2C178.7,447.2,174.5,451.3,171.5,421.6
			L171.5,421.6z"/>
		<path class="st0" d="M134,82.9c0.8-0.8,1.9-0.8,2.7,0l7.5,7.5c0.8,0.7,0.8,1.9,0,2.7c-0.8,0.8-2,0.8-2.7,0l-7.5-7.5
			C133.2,84.9,133.2,83.7,134,82.9z"/>
		<path class="st0" d="M105.7,334l-10.9,10.9c-0.7,0.7-1.9,0.7-2.7-0.1c-0.7-0.7-0.7-1.9,0-2.7l10.9-10.9l-3.3-3.3
			c-0.8-0.7-0.8-1.9,0-2.7c0.8-0.8,2-0.8,2.7,0l3.3,3.3l7.6-7.5c0.7-0.8,1.9-0.8,2.7,0c0.8,0.7,0.8,1.9,0,2.7l-7.5,7.5l3.6,3.7
			l5.3-5.3c0.8-0.8,2-0.8,2.7,0c0.8,0.8,0.8,1.9,0,2.7l-5.3,5.3l5,5c0.8,0.7,0.8,1.9,0,2.7c-0.8,0.8-2,0.8-2.8,0l-4.9-4.9l-6,6
			c-0.8,0.8-2,0.8-2.8,0c-0.7-0.8-0.7-2,0-2.8l6.1-6L105.7,334z"/>
		<path class="st0" d="M88.7,422.5c-0.8,0.7-2,0.8-2.7,0c-0.8-0.8-0.8-2,0-2.8l9.9-9.9l-4.6-4.6c-0.8-0.8-0.8-2,0-2.8
			c0.8-0.8,2-0.8,2.8,0l4.6,4.6l8.5-8.6c0.8-0.7,2-0.7,2.8,0c0.8,0.8,0.8,2,0,2.8l-8.6,8.6l4.7,4.7l6.1-6.1c0.8-0.8,2-0.8,2.8,0
			c0.7,0.8,0.7,2,0,2.8l-6.1,6.1l3.3,3.3c0.8,0.8,0.8,1.9,0,2.7c-0.8,0.8-2,0.8-2.7,0l-3.4-3.3l-6.1,6.1c-0.8,0.8-2,0.8-2.7,0
			c-0.8-0.8-0.8-1.9,0-2.7l6.1-6.1l-4.8-4.8L88.7,422.5z"/>
		<path class="st0" d="M77.4,323.7c-4.2,5.3-3.6,10.9-3,17.8c1.3,14.1,0.5,18.5,12.7,17.8l31-1.9c17.2-1.1,20.8-4.9,21.4-21.7
			c0.5-13.7-1.3-19.3-21.5-21.3C106,313.4,87,311.5,77.4,323.7L77.4,323.7z M87.6,367.2c-20.4,1.2-19.7-12.6-20.9-24.8
			c-0.7-7.7-1.5-15.7,4.7-23.4c12.6-16,36-13.1,47.5-12c24.4,2.2,29.2,11.5,28.5,29.2c-0.8,21.3-7.8,27.9-28.7,29.2L87.6,367.2z"/>
		<path class="st0" d="M77.4,403c-4.2,5.3-3.6,10.9-3,17.8c2.1,22.1-1.2,18.6,43.8,15.9c17.2-1,20.8-4.9,21.4-21.7
			c0.5-13.5-1.2-19.3-21.5-21.2C106.3,392.8,87.1,390.7,77.4,403z M118.6,444.5c-42.5,2.6-48.9,8.1-52-22.9
			c-0.7-7.8-1.5-15.7,4.7-23.4c12.6-16,36-13.2,47.5-12.1c24.4,2.3,29.2,11.5,28.5,29.2C146.5,436.9,139.2,443.3,118.6,444.5
			L118.6,444.5z"/>
		<path class="st0" d="M409,97.4l-3.4,3.4l1.2,1.2c0.5-0.8,0.9-1.5,1.3-2.2C408.4,99,408.7,98.1,409,97.4z M411.6,72.3l-7,7.1
			c-0.2,0.2-0.5,0.2-0.8,0.3l7.8,7.8c0.5-2.9,0.9-5.9,1.2-8.8c0.2-1.6,0.2-3.2,0.4-4.8c-0.1,0-0.1,0-0.1,0L411.6,72.3z M410.2,482.8
			l-10.4,10.4c7.8-0.2,14.7-0.3,20.3-0.4L410.2,482.8z M395.6,191.1l20-0.1c0.1-0.2,0.1-0.5,0.2-0.7l3.5-3.5l-9.8-9.7l-8.2,8.2
			l2.3,2.3c0.7,0.8,0.7,2,0,2.8c-0.8,0.8-2,0.7-2.8,0l-2.3-2.3L395.6,191.1z M397,97.7l-7,6.9l7.6,7.5c2.6-1.6,5.1-3.8,7.1-6.7
			l-1.9-1.9l-4.7,4.7c-0.8,0.8-2,0.8-2.7,0c-0.8-0.8-0.8-2,0-2.7l4.7-4.7L397,97.7z M489,169.9v-1.4l-0.7,0.7L489,169.9z
			 M486.4,146.1l2.2,2.2c-0.1-1.5-0.2-2.9-0.2-4.3L486.4,146.1z M485.4,129.8l2.2,2.2c-0.2-1.3-0.3-2.6-0.5-3.9L485.4,129.8z
			 M476.6,181l9.7,9.7h3c0-0.7-0.2-12.3-0.3-17.6c-0.9,0.7-1.8,0.5-2.5-0.2l-0.9-0.9L476.6,181z M480.2,459.2l-11.6,11.6l9.7,9.6
			c3.7-3.3,6.7-6.8,9.5-13.7L480.2,459.2z M463,167.4l10.8,10.8l9-9L472,158.4L463,167.4z M465.9,468l11.6-11.6l-7.5-7.5l-11.6,11.6
			L465.9,468z M473.8,183.7l-7.1,7.1l14.1-0.1L473.8,183.7z M449.5,181l7.1,7.1c0.8,0.7,0.8,1.9,0,2.7c0,0.1,0,0.1-0.1,0.1l6.8-0.1
			c-0.4-0.7-0.4-1.6,0.2-2.2l7.6-7.6l-10.8-10.9L449.5,181z M446.8,183.7l-6.7,6.7c-0.3,0.3-0.7,0.4-1.2,0.5l15.1-0.1
			c-0.1,0-0.2,0-0.2-0.1L446.8,183.7z M427.8,465.3l10.2,10.2l15-15l-10.2-10.2L427.8,465.3z M423.5,191l-1.5-1.4l-1.4,1.4H423.5z
			 M424.8,186.9l2.6,2.6c0.4,0.5,0.5,1,0.5,1.6l10.6-0.1c-0.5-0.1-0.9-0.2-1.2-0.5c-0.8-0.8-0.8-2,0-2.8l6.7-6.7l-6.7-6.7
			L424.8,186.9z M435.2,478.2L425,468.1l-12.1,12l12.4,12.4c0.1,0,0.1,0.1,0.1,0.2c2-0.1,3.8-0.1,5.4-0.2
			c16.2-0.3,32.8-1.4,44.5-9.6l-9.4-9.3l-11.3,11.2c-1.8,1.8-4.6-0.9-2.7-2.7l11.2-11.3l-7.5-7.5l-14.9,14.9l4.8,4.9
			c0.8,0.8,0.8,2,0,2.8c-0.8,0.7-1.9,0.7-2.7,0l-4.9-4.9l-8.1,8.1c-0.8,0.8-2,0.8-2.8,0c-0.8-0.8-0.8-1.9,0-2.7L435.2,478.2z
			 M381.4,478.2l13.7,13.7c0.5,0.4,0.6,0.9,0.5,1.5h0.5c-0.3-0.8-0.4-1.6,0.2-2.2l11.1-11.1l-14-14L381.4,478.2z M382.1,112.4
			c-0.1,0.2-0.2,0.1-0.4,0.2c3.3,1.9,7.8,2.4,11.9,1.2l-6.4-6.4L382.1,112.4z M375.1,93.5c0,6.5,0.2,12.2,3.3,16.2
			c0.2,0.2,0.5,0.5,0.8,0.7c0.1-0.2,0.1-0.5,0.3-0.7l5-5.1l-3.9-4c-0.8-0.7-0.8-1.9,0-2.7c0.7-0.8,1.9-0.8,2.7,0l4,4l6.9-7l-1.1-1.1
			c-0.7-0.8-0.7-1.9,0-2.7c0.8-0.8,2-0.8,2.8,0l1.1,1.1l4-4c0.8-0.8,1.9-0.8,2.7,0c0.8,0.8,0.8,2,0,2.7l-4,4l3.2,3.2l4.9-4.9
			c0.7-0.8,1.9-0.8,2.6-0.1c0.2-0.7,0.4-1.3,0.5-2c-0.2,0-0.2,0.1-0.2,0.1c-0.5,0-1-0.2-1.4-0.5l-10.1-10.1c-0.8-0.8-0.8-2,0-2.8
			c0.6-0.6,1.6-0.6,2.2-0.2c0.1-0.4,0.2-0.7,0.4-0.9l7-7.1l-3.6-3.6c-0.8-0.8-0.8-1.9,0-2.7c0.8-0.8,2-0.8,2.8,0l4.3,4.3
			c0.2,0.1,0.6,0.2,0.8,0.4c0.2,0.2,0.2,0.5,0.4,0.7c0-0.9,0.1-1.7,0.2-2.6c0.2-2.7,0.2-5.6,0.3-8.5c-0.2,0.2-0.5,0.3-0.7,0.3
			c-0.3,0-0.5-0.2-0.8-0.3l-3.4,3.3c-0.8,0.8-1.9,0.8-2.7,0c-0.8-0.7-0.8-1.9,0-2.7l3.2-3.2l-3.6-3.6c-0.8-0.8-0.8-2,0-2.7
			c0.8-0.8,1.9-0.8,2.7,0l3.6,3.6l1.9-1.9c0-10,0.6-23.7-6.1-30.6c-9.2-9.5-36.1-5.2-33.5,27.8C375.7,61.1,375.1,80.1,375.1,93.5
			L375.1,93.5z M378.6,481l-8.5,8.5l2.8,2.8c0.5,0.5,0.5,1,0.5,1.6c6.3-0.2,12.2-0.2,17.8-0.4L378.6,481z M374.3,189.2l-1.6-1.6
			l-3.5,3.6l20.8-0.1l5.7-5.7L385.4,175l-9.9,9.9l1.5,1.5c0.8,0.8,0.8,2,0,2.8C376.2,190,375.1,189.9,374.3,189.2z M367.5,492.1
			l-1.9,1.9c1.2-0.1,2.4-0.1,3.6-0.1L367.5,492.1z M343.9,494.4l-0.9-0.8l-0.8,0.8c0,0.1,0,0.1-0.1,0.1
			C342.8,494.5,343.3,494.5,343.9,494.4L343.9,494.4z M347.1,492.1c0.6,0.6,0.6,1.5,0.2,2.2c4.4-0.2,8.8-0.2,13-0.3
			c0.1-0.2,0.1-0.4,0.2-0.5l4.1-4.1l-8.7-8.7l-10.2,10.2L347.1,492.1z M353.3,182.1l5.7,5.7c0.8,0.8,0.8,2,0,2.7
			c-0.7,0.8-1.9,0.8-2.7,0l-5.7-5.7l-6.4,6.4c0,0-0.1,0-0.1,0.1l20.4-0.2c0-0.4,0.2-0.9,0.5-1.2l5.1-5.1l-8.9-8.9
			c-0.3-0.4-0.5-0.8-0.5-1.2L353.3,182.1z M328.5,184.9l5.6,5.6c0.2,0.2,0.2,0.5,0.3,0.9h7.2c-0.1-0.1-0.2,0-0.2-0.1
			c-0.8-0.8-0.8-2,0-2.7l6.4-6.4l-7.9-7.9c-0.2-0.2-0.2-0.4-0.2-0.5L328.5,184.9z M289.6,492.2l-3.3,3.2c2.1,0,4.3,0,6.4-0.1
			L289.6,492.2z M281.7,191.6h10l-6.8-6.9l-4.8,4.7l1.2,1.3C281.6,191,281.6,191.3,281.7,191.6L281.7,191.6z M274.1,494.4l-6.5-6.5
			l-7.4,7.4c-0.3,0.4-0.8,0.5-1.2,0.5c7.2-0.2,14.5-0.2,21.8-0.3l6.1-6.1l-9.4-9.4c-0.4-0.4-0.5-1-0.5-1.6l-6.6,6.7l6.5,6.5
			c0.7,0.7,0.7,1.9-0.1,2.7c-0.3,0.4-0.9,0.5-1.3,0.5C274.9,494.9,274.5,494.8,274.1,494.4L274.1,494.4z M245.8,491l-5.1,5
			c3.4,0,6.7,0,10.2-0.1c-0.1-0.1-0.1,0-0.2-0.1L245.8,491z M218.1,494.3l-2,2c1.4,0,2.8-0.1,4.2-0.1c-0.2-0.1-0.3,0-0.5-0.2
			L218.1,494.3z M492,370.9c0-1.1,0-2.2,0-3.3l-1.6,1.6L492,370.9z M492.3,390.7c0-1.4,0-2.8-0.1-4.3l-2.1,2.1L492.3,390.7z
			 M492.6,411.6c-0.1-4-0.1-8-0.2-11.9l-5.9,5.9L492.6,411.6z M492.8,438.7c0.2-4.3,0.2-8.5,0.1-12.8c0-1.6-0.1-3-0.1-4.6l-8.6,8.6
			l8.5,8.5C492.7,438.5,492.7,438.6,492.8,438.7L492.8,438.7z M143.4,99.8c0.2-0.3,0.2-0.5,0.3-0.8l-3.2,3.1l1,1
			C142.2,102,142.8,100.9,143.4,99.8z M131.6,112.8c2.8-1.4,5.4-3.6,7.7-6.4l-1.5-1.5l-1.8,1.8c-0.8,0.8-2,0.8-2.8,0
			c-0.8-0.8-0.8-2,0-2.7l1.9-1.9l-2.6-2.5l-6.4,6.4l5,5C131.6,111.6,131.6,112.2,131.6,112.8L131.6,112.8z M123.3,108.8l-4.5,4.6
			c2.9,1.2,6.3,1.4,9.7,0.5c-0.1,0-0.2,0-0.2-0.1L123.3,108.8z M110.5,66.2c0.2,23.7-1.9,36.7,3.1,43.4c0.5,0.8,1.3,1.3,2,1.9
			c0.2-0.2,0.2-0.5,0.4-0.8l4.6-4.7l-2.3-2.4c-0.8-0.8-0.8-1.9,0-2.7c0.8-0.8,1.9-0.8,2.7,0l2.4,2.4l6.4-6.5l-0.7-0.6
			c-0.8-0.8-0.8-2,0-2.8c0.8-0.7,2-0.7,2.7,0l0.7,0.7l0.9-0.9c0.8-0.8,1.9-0.8,2.7,0c0.8,0.7,0.8,1.9,0,2.7l-0.9,0.9l2.5,2.6
			l4.1-4.2c0.8-0.7,2-0.7,2.8,0c0.1,0.2,0.1,0.4,0.2,0.5c1.6-5,2.5-10.6,3.2-17.1c0.1-0.3,0.1-0.6,0.1-0.9c-0.1,0.4-0.2,0.9-0.5,1.2
			c-0.7,0.8-1.9,0.8-2.7,0l-1.6-1.6l-3.1,3.2c-0.8,0.7-2,0.7-2.8,0c-0.7-0.8-0.7-2,0-2.8l3.2-3.1l-2.8-2.7c-0.7-0.8-0.7-2,0-2.8
			c0.8-0.8,2-0.8,2.8,0l3,3c0.6-0.2,1.3-0.2,1.9,0.3c0.5,0.5,0.5,1.2,0.3,1.9l1.9,1.9c0.3,0.3,0.5,0.8,0.5,1.2c0.4-3.4,0.9-9.3,1-13
			l-2.5-2.6l-0.9,0.9c-0.7,0.8-1.9,0.8-2.7,0c-0.8-0.7-0.8-1.9,0-2.7l0.9-0.9l-2.7-2.8c-0.8-0.7-0.8-1.9,0-2.7
			c0.7-0.8,1.9-0.8,2.7,0l2.8,2.8l2.8-2.9c0.2-11.2,0.9-26.4-6.1-33.6c-9.4-9.7-36.2-5-33.5,27.7c0.5,7.4,0.6,15,0.6,17.6
			L110.5,66.2L110.5,66.2z M50.7,85l8.5,8.5l6.7-6.7c0.7-0.8,1.9-0.8,2.7,0c0.8,0.8,0.8,2,0,2.7l-6.7,6.7l5.3,5.3L78,90.8L65.9,78.6
			c-0.8-0.7-0.7-1.9-0.1-2.6C60.2,78.1,55.2,81.1,50.7,85z M47.4,87.9c-3.5,3.7-6.3,7.9-8.5,12.5l6.7,6.7l10.8-10.8l-8.7-8.7
			C47.6,87.7,47.5,87.7,47.4,87.9z M30.5,142.3l6.4-6.4l-5.4-5.4C31.1,134.4,30.7,138.3,30.5,142.3z M37.4,104.3
			c-2.6,6.5-4.2,13.7-5.3,21.3l7.5,7.5l13.3-13.3l-7.3-7.3l-5.1,5.1c-0.8,0.8-2,0.8-2.7,0c-0.8-0.7-0.8-1.9,0-2.7l5.1-5.1
			L37.4,104.3z M28.2,189.3l0.5-0.5l-0.5-0.4V189.3z M33.6,163.8l-4.4,4.4l-0.7,15l2.9,2.9l12.3-12.3L33.6,163.8z M30.9,161
			l-1.2-1.2l-0.2,2.6L30.9,161z M30.1,192.9l2.5-0.1l-1.2-1.2L30.1,192.9z M30.2,148.1c0,0.4-0.1,0.6-0.1,0.9c0,0,0,1-0.3,6.2
			c0.5,0.1,0.9,0.2,1.2,0.5l2.6,2.6l12.8-12.8l-6.7-6.7L30.2,148.1z M321.9,191.5l7.5-0.1l-3.7-3.6L321.9,191.5z M314.1,175.4
			l-7.8,7.8l7.3,7.3c0.3,0.2,0.4,0.6,0.5,1h3.6c-0.2-0.6-0.1-1.2,0.4-1.7l4.8-4.8l-8.3-8.4C314.3,176.3,314.2,175.9,314.1,175.4z
			 M298,191.5h11.3l-5.7-5.7L298,191.5z M296.5,170.3c0.8,0.8,0.8,1.9,0,2.7l-9,9l7.3,7.2l6.1-6.1l-2.1-2.2c-0.8-0.8-0.8-1.9,0-2.7
			c0.7-0.8,1.9-0.8,2.7,0l2.2,2.2l13.5-13.5c0.8-0.8,1.9-0.8,2.7,0c0.8,0.7,0.8,1.9,0,2.7l-3.6,3.7c0.4,0,0.9,0.2,1.2,0.5l8.3,8.3
			l16.8-16.7c0.8-0.8,2-0.8,2.8,0c0.7,0.7,0.7,1.9,0,2.7l-3.1,3.1c0.2,0.1,0.4,0.1,0.5,0.2l7.9,7.8l19.3-19.3c0.8-0.8,2-0.8,2.7,0
			c0.8,0.8,0.8,2,0,2.8l-9.9,9.9c0.4,0.1,0.9,0.2,1.2,0.5l8.9,9l10.6-10.6c0-0.3,0.1-0.7,0.4-1c0.2-0.2,0.6-0.3,1-0.4l9.3-9.3
			c0.7-0.8,1.9-0.8,2.7,0c0.8,0.8,0.8,2,0,2.8l-8.6,8.6l10.3,10.3l8.3-8.3l-1.9-1.9c-0.8-0.7-0.8-1.9,0-2.7c0.8-0.8,1.9-0.8,2.7,0
			l1.9,1.9l11.6-11.6c0.8-0.7,2-0.7,2.7,0c0.8,0.8,0.8,2,0,2.8l-11.6,11.6l9.8,9.7l12.5-12.6l-0.8-0.8c-0.8-0.8-0.8-2,0-2.8
			c0.7-0.7,1.9-0.7,2.7,0l0.9,0.9l14.4-14.5c0.8-0.7,2-0.7,2.8,0c0.8,0.8,0.8,2,0,2.8l-14.5,14.4l6.7,6.7l11.8-11.8
			c0.1-0.2,0.1-0.3,0.2-0.5c0.2-0.2,0.3-0.2,0.5-0.2l10.1-10l-0.5-0.5c-0.8-0.8-0.8-2,0-2.8c0.8-0.8,1.9-0.8,2.7,0l14.1,14.1
			l1.1-1.2c0.6-0.6,1.5-0.5,2.2-0.2c-0.2-13.4-0.2-8.4-0.2-12.3c-0.1,0-0.1,0.1-0.2,0.1c-0.5,0-1-0.2-1.4-0.5l-3.5-3.5l-3.6,3.6
			c-0.8,0.7-2,0.7-2.7,0c-0.8-0.8-0.8-2,0-2.8l3.6-3.6l-8.7-8.6c-0.8-0.8-0.8-2,0-2.7c0.8-0.8,2-0.8,2.8,0l8.6,8.6l2.9-2.9
			c0.4-0.5,1-0.5,1.6-0.5c-0.1-1.2-0.2-2.3-0.3-3.5c-0.2,0-0.2,0.2-0.4,0.2c-0.5,0-1-0.2-1.4-0.5l-3.5-3.6l-1.8,1.7
			c-0.7,0.8-1.9,0.8-2.7,0c-0.8-0.8-0.8-1.9,0-2.7l1.7-1.7l-3.7-3.8c-0.8-0.8-0.8-1.9,0-2.7c0.7-0.8,1.9-0.8,2.7,0l3.8,3.7l2.7-2.7
			c0.3-0.3,0.6-0.3,1-0.4c-1.9-11.3-5.5-21.6-12.3-30c-10.7-13.3-27.7-20.6-52.9-23.2c-0.2,2.9-0.4,5.8-0.7,8.8
			c-0.7,7.7-1.9,15.8-5.3,23.5c-4,8.8-10.3,15.2-17.9,18c-9.5,3.4-19.9,0.3-25.1-6.7c-4.8-6.4-4.8-14.7-4.8-20.8
			c0-4.2,0.2-14,0.2-23.8l-211,0.3c-0.6,10.7-1.7,23.2-6,32.9c-4,8.8-10.3,15.3-17.9,18.1c-9.6,3.3-20.1,0.2-25.2-6.7
			c-6.4-8.5-4.7-20.2-4.7-44.1c-4.7,0.2-9.4,0.4-14,0.8l-0.2,0.2l11.7,11.6c0.7,0.8,0.7,2,0,2.8c-0.8,0.7-2,0.7-2.8,0L85.8,73.9
			l-3.6,3.6c-0.8,0.8-2,0.8-2.8,0c-0.7-0.8-0.7-1.9,0-2.7l3.1-3.1c-5.2,0.8-10.2,1.9-15,3.6c0.5,0,0.9,0.2,1.2,0.5L80.8,88l1.7-1.7
			c0.8-0.8,1.9-0.8,2.7,0c0.8,0.8,0.8,1.9,0,2.7l-1.9,1.9c0.4,0.8,0.4,1.6-0.2,2.2c-0.8,0.9-1.5,0.5-2.2,0.2L70,104.3l0.6,0.6
			c0.8,0.8,0.8,2,0,2.7c-0.8,0.8-2,0.8-2.7,0l-0.7-0.6l-0.1,0.2c-0.8,0.8-2,0.7-2.8,0c-0.8-0.8-0.8-2,0-2.8l0.2-0.1L59.2,99
			l-10.8,10.9l7.3,7.3l0.4-0.5c0.8-0.7,1.9-0.7,2.7,0c0.8,0.8,0.8,2,0,2.8l-0.4,0.4l1,1c0.8,0.8,0.8,2,0,2.8c-0.8,0.7-2,0.7-2.7,0
			l-1-1l-13.3,13.3l6.8,6.8l1.2-1.2c0.8-0.7,1.9-0.7,2.7,0c0.8,0.8,0.8,2,0,2.8l-1.2,1.2l0.3,0.3c0.8,0.8,0.8,2,0,2.8
			c-0.7,0.8-1.9,0.7-2.7,0l-0.3-0.4L36.3,161l10.1,10.1l2.8-2.8c0.8-0.8,2-0.8,2.7,0c0.8,0.8,0.8,1.9,0,2.7l-17.8,17.8l1.4,1.4
			c0.7,0.7,0.7,1.8,0.1,2.6l236.8-1.1l2.2-2.2l-1.4-1.4c-0.8-0.8-0.8-2,0-2.7c0.7-0.8,1.9-0.8,2.7,0l1.4,1.4l16.5-16.4
			C294.5,169.5,295.7,169.5,296.5,170.3L296.5,170.3z M27.6,200.6C18.4,389.1,12,421.1,34,455.2c13,20.2,36.8,34.6,65.5,39.4
			c11.5,1.9,57.4,2.2,111.9,1.8c0-0.5,0.2-1,0.5-1.4l3.4-3.4l-1.9-1.9c-0.8-0.8-0.8-2,0-2.8c0.7-0.7,1.9-0.7,2.7,0l1.9,2l14.4-14.4
			c0.8-0.7,1.9-0.7,2.7,0c0.8,0.8,0.8,2,0,2.8l-14.3,14.3l1.8,1.8c0.8,0.8,0.8,2,0,2.7c-0.2,0.2-0.3,0.2-0.4,0.2
			c3.2-0.1,6.4-0.1,9.6-0.2l-6.1-6.1c-0.8-0.8-0.8-2,0-2.7c0.8-0.8,2-0.8,2.7,0l7.1,7c0.3,0.3,0.5,0.8,0.5,1.2
			c0.1-0.2,0.1-0.5,0.2-0.6l6.7-6.7l-1.9-1.9c-0.8-0.8-0.8-2,0-2.8c0.8-0.8,2-0.8,2.7,0l2,2l9.2-9.3c0.8-0.8,2-0.8,2.8,0
			c0.8,0.8,0.8,2,0,2.7l-9.3,9.3l4.9,4.9c0.8,0.8,0.8,2,0,2.7c0,0.1-0.1,0.1-0.1,0.1c1.7,0,3.5-0.1,5.2-0.1
			c-1.9-0.2-2.2-2.2-1.2-3.3l7.4-7.4l-0.3-0.3c-0.8-0.8-0.8-2,0-2.7c0.8-0.8,2-0.8,2.7,0l0.3,0.3l18.2-18.2c0.8-0.8,2-0.8,2.7,0
			c0.8,0.8,0.8,2,0,2.7l-9.9,9.9c0.5-0.1,1.1,0.1,1.6,0.5l9.4,9.4l20.3-20.3c0.8-0.8,2-0.8,2.8,0c0.7,0.8,0.7,1.9,0,2.7l-20.4,20.4
			l3.2,3.2c0.8,0.7,0.8,1.9,0.1,2.6c3.2-0.1,6.3-0.1,9.5-0.2l7.1-7.1l-7-7c-0.8-0.8-0.8-2,0-2.8c0.8-0.7,1.9-0.7,2.7,0l7,7.1
			l21.6-21.6c0.8-0.8,2-0.8,2.8,0c0.7,0.8,0.7,1.9,0,2.7L317.6,488l2.2,2.3c0.8,0.7,0.8,1.9,0,2.7c-0.4,0.4-0.9,0.5-1.3,0.5
			c-0.5,0-1-0.2-1.4-0.5l-2.3-2.3l-4.3,4.3c10-0.2,19.8-0.4,29.2-0.5c-0.1-0.1-0.2-0.1-0.3-0.2c-0.7-0.7-0.7-1.9,0-2.7l0.8-0.8
			l-10.8-10.8c-0.8-0.8-0.8-2,0-2.8s2-0.8,2.7,0l10.9,10.9l10.2-10.2l-2.2-2.2c-0.7-0.8-0.7-1.9,0-2.7c0.8-0.8,2-0.8,2.8,0l2.2,2.2
			l22.8-22.7c0.7-0.8,1.9-0.8,2.7,0s0.8,1.9,0,2.7L358.7,478l8.7,8.7l8.5-8.5l-5.8-5.8c-0.8-0.8-0.8-2,0-2.7c0.8-0.8,1.9-0.8,2.7,0
			l5.8,5.7l12.3-12.3c-0.4-0.7-0.4-1.6,0.2-2.1c0.6-0.6,1.4-0.6,2.2-0.3l15.7-15.7c0.8-0.8,2-0.8,2.8,0c0.8,0.8,0.8,1.9,0,2.7
			l-15.6,15.6l14,14l12-12.1l-10.6-10.6c-0.8-0.8-0.8-2,0-2.7c0.8-0.8,2-0.8,2.7,0l10.6,10.6l28.2-28.2c0.8-0.7,2-0.7,2.8,0
			c0.7,0.8,0.7,2,0,2.8l-10.6,10.5l10.2,10.2l11.6-11.6l-2.9-2.9c-0.8-0.8-0.8-1.9,0-2.7c0.8-0.8,1.9-0.8,2.7,0l2.9,2.9l7.1-7.1
			c0.8-0.7,2-0.7,2.7,0c0.8,0.8,0.8,2,0,2.8l-7.1,7.1l7.5,7.5l5-5c0.8-0.8,2-0.8,2.8,0c0.7,0.8,0.7,2,0,2.8l-5,4.9l6.3,6.4
			c2.2-6.7,3.1-14.1,3.4-21.8c-0.9,1-2.1,0.9-2.8,0.2l-8.5-8.5l-0.1,0.1c-0.8,0.7-2,0.7-2.7,0c-0.8-0.8-0.8-2,0-2.8v-0.1l-3.4-3.4
			c-0.7-0.7-0.7-1.9,0-2.7c0.8-0.8,2-0.8,2.8,0l3.4,3.4l10.6-10.6l-9.2-9.2c-0.5-0.5-0.5-1.2-0.4-1.9c-0.2-0.6-0.2-1.3,0.4-1.9
			l8.5-8.4l-6.1-6.1c-0.8-0.8-0.8-2,0-2.7c0.5-0.5,1.2-0.5,1.8-0.4l5-5c0-1.7-0.1-3.4-0.1-5.1c-0.2-0.1-0.5-0.2-0.8-0.3l-3.6-3.7
			l-1.5,1.6c-0.8,0.7-2,0.7-2.8,0c-0.8-0.8-0.8-2,0-2.8l1.6-1.5l-1.6-1.5c-0.8-0.8-0.8-2,0-2.8c0.8-0.8,2-0.8,2.8,0l1.5,1.6l4.3-4.3
			c-0.1-2.6-0.1-5.1-0.2-7.7l-6.9-6.9c-0.8-0.8-0.8-2,0-2.7c0.7-0.8,1.9-0.8,2.7,0l4.1,4c-0.7-50.2-1.5-100.4-2.2-150.6L27.6,200.6z
			 M20.9,179.5c2.2-44.4,1.2-76.1,20.9-97c15.4-16.4,38.2-19.5,61-20.1c-0.1-5.1-0.2-9.9-0.5-14c-3.4-40.1,32.4-48.6,46.8-33.8
			c8.6,8.9,8.9,23.4,8,47.6l210.5-0.3c-0.1-5-0.3-9.5-0.6-13.5c-3.1-40.3,32.6-48.6,46.9-33.7c7.7,7.8,9.3,20.2,7.9,48.3
			c18.4,1.7,42.8,6.7,58.5,26.1c20.2,25.1,16.2,35.5,20.5,336.7c0.9,56.7-15.7,73.5-69.7,74.6c-32.1,0.8-301.6,7.1-332.7,2
			c-30.7-5.2-56.5-20.9-70.7-42.9c-23.8-36.8-17.1-67.9-6.7-278.9C20.7,180.2,20.8,179.9,20.9,179.5L20.9,179.5z"/>
	</g>
</g>
</svg>
