<?xml version="1.0" encoding="utf-8"?>
<!-- Generator: Adobe Illustrator 25.0.0, SVG Export Plug-In . SVG Version: 6.00 Build 0)  -->
<svg version="1.1" id="Layer_1" xmlns:svgjs="http://svgjs.com/svgjs"
	 xmlns="http://www.w3.org/2000/svg" xmlns:xlink="http://www.w3.org/1999/xlink" x="0px" y="0px" viewBox="0 0 512 512"
	 style="enable-background:new 0 0 512 512;" xml:space="preserve">
<g>
	<g>
		<path d="M424.4,375.6c-4.7-1.5-8.7-5.5-10.6-10.2c6.3-4.6,10.9-12.1,11.8-20.6c1.9-16.2-8.3-35.1-19.7-41.9
			c-22.7-13.6-43.2,13.7-44.1,34.8c-0.5,10.4,3.2,19.9,9.9,25.4c0.4,0.3,0.8,0.6,1.2,0.9c-0.1,0.2-0.1,0.3-0.2,0.5
			c-3.4,8.7-4.8,11.5-22,13.7c-29,4.1-29.9,26.4-11.5,40.5c38.5,29.6,103.9,2.4,114.7-10.3c8.6-10.1,8.2-29-14.4-31.1
			C434.7,376.7,428.7,376.9,424.4,375.6L424.4,375.6z M381.8,359.9c0.3-0.1,0.6-0.1,0.8-0.3l2.4-2.4l3.5,3.5
			c0.4,0.4,0.9,0.6,1.4,0.6c1.7,0,2.6-2.1,1.4-3.3l-3.5-3.5l2.8-2.8l10,10c0.4,0.4,0.9,0.6,1.4,0.6c0.5,0,1-0.2,1.4-0.6
			c0.8-0.8,0.8-2,0-2.7l-10-10l4.5-4.5c0.1,0.2,0.1,0.5,0.3,0.7l6.1,6.1l-2.3,2.4c-0.8,0.8-0.8,2,0,2.7c0.4,0.4,0.9,0.6,1.4,0.6
			c0.5,0,1-0.2,1.4-0.6l2.3-2.3l3.6,3.6c0.2,0.2,0.4,0.2,0.7,0.3c-1.2,1.2-2.6,2.2-4.1,3c-0.5,0.3-1,0.5-1.4,0.7
			C398.9,364.2,388.4,362.5,381.8,359.9L381.8,359.9z M413.4,355c-0.1-0.1,0-0.2-0.1-0.3l-3.6-3.6l5.4-5.3c0.4,0.3,0.8,0.5,1.3,0.5
			c0.4,0,0.8-0.2,1.2-0.5C416.7,349.2,415.3,352.3,413.4,355L413.4,355z M412.5,332.6l2.1,2.1c0.4,0.4,0.9,0.6,1.4,0.6
			c0.5,0,1-0.2,1.4-0.6c0,0,0,0,0-0.1c0.2,1.2,0.4,2.3,0.5,3.6c-0.5,0-1,0.2-1.4,0.6l-1.5,1.5l-5.5-5.5c0.5,0,0.9-0.2,1.3-0.5
			L412.5,332.6z M416.7,331.3l-1.5-1.5l0.7-0.7C416.2,329.9,416.5,330.5,416.7,331.3L416.7,331.3z M417.7,343.1l0.2-0.2
			c0,0.3,0,0.5,0,0.8C417.8,343.5,417.8,343.2,417.7,343.1L417.7,343.1z M369.5,338.1c0.7-15.2,15.5-38.6,32.4-28.5
			c5.6,3.3,9.7,9.7,12.4,15.6l-1.9,1.9l-5-5c-0.8-0.8-2-0.8-2.7,0c-0.8,0.8-0.8,2,0,2.7l5,5l-1.7,1.7c-0.5,0.5-0.5,1.2-0.4,1.8
			c-0.7-0.3-1.5-0.3-2.1,0.3c-0.8,0.8-0.8,2,0,2.7l6.7,6.7l-5.3,5.3l-6.1-6.1c-0.2-0.2-0.5-0.2-0.7-0.3l2.4-2.4c0.8-0.8,0.8-2,0-2.7
			c-0.8-0.8-2-0.8-2.7,0l-9.2,9.2l-0.9-0.9c-0.8-0.8-2-0.8-2.7,0c-0.8,0.8-0.8,2,0,2.7l0.9,0.9l-2.8,2.8l-4-4c-0.8-0.8-2-0.8-2.7,0
			c-0.8,0.8-0.8,2,0,2.7l4,4l-2.4,2.4c-0.6,0.6-0.6,1.5-0.2,2.2c-0.1-0.1-0.2-0.1-0.3-0.1c-0.9-0.4-1.8-1-2.7-1.8
			C371.8,353.1,369.2,346,369.5,338.1L369.5,338.1z M362.6,416.5l-3.6-3.6l4.1-4.1l9,9l-3,3c-0.7,0.7-0.6,1.7-0.1,2.4
			c-5.5-1-10.7-2.7-15.4-4.9l2.7-2.7l3.6,3.6c0.8,0.8,2,0.8,2.7,0C363.3,418.5,363.3,417.2,362.6,416.5L362.6,416.5z M374.9,420.6
			l3.6,3.6c0.1,0.1,0.2,0,0.2,0.1c-2.4-0.1-4.7-0.4-7-0.7c0,0,0.1,0,0.1-0.1L374.9,420.6z M380.7,424.4c0.2-0.1,0.4-0.1,0.5-0.2
			c0.8-0.8,0.8-2,0-2.7l-3.6-3.6l3.9-3.9l5.3,5.3l-0.7,0.7c-0.8,0.8-0.8,2,0,2.7c0.8,0.8,2,0.8,2.7,0l0.9-0.9
			c0.7,0.2,1.1,0.4,1.9-0.4c0.5-0.5,0.6-1.2,0.4-1.9l5.6-5.6l7.7,7.7C397.1,423.6,389,424.7,380.7,424.4L380.7,424.4z M389.5,405.9
			l5.3,5.3l-5.3,5.3l-5.3-5.3L389.5,405.9z M407.1,404.5l6.4,6.4l-3,3c-0.8,0.8-0.8,2,0,2.7c0.8,0.8,2,0.8,2.7,0l3-3l3.8,3.8
			c-3.4,1.2-6.9,2.2-10.5,3.2c-0.1-0.1,0-0.2-0.1-0.3l-9.1-9.1L407.1,404.5z M417.5,396.3l5.2,5.2l-6.6,6.6l-6.4-6.3l7.3-7.3
			C417,395.1,417,395.8,417.5,396.3z M424,416l-5.1-5.1l6.6-6.6l8,8c-0.2,0.1-0.5,0.2-0.7,0.3C430,413.7,427.1,414.8,424,416z
			 M437.3,410.6l-9.1-9.1l7.8-7.8l3,3l-5,5c-0.8,0.8-0.8,2,0,2.7c0.8,0.8,2,0.8,2.7,0l5-5l3.5,3.5c0.7,0.7,1.8,0.8,2.7,0
			c-0.1,0.1-0.1,0.2-0.1,0.2C445.2,406.5,441.4,408.7,437.3,410.6z M448.2,402.8c0.6-0.8,0.6-1.8-0.1-2.5l-3.5-3.5l5.7-5.7
			C452,394.8,450.7,399.5,448.2,402.8L448.2,402.8z M447.9,387.9l-6.1,6.1l-3-3l1.5-1.5c0.8-0.8,0.8-2,0-2.7c-0.8-0.8-2-0.8-2.7,0
			l-1.5,1.5l-0.9-0.9c-0.8-0.8-2-0.8-2.7,0c-0.8,0.8-0.8,2,0,2.7l0.9,0.9l-7.8,7.8l-5.2-5.2c-0.7-0.7-1.9-0.7-2.7,0
			c0.2-0.7,0.2-1.4-0.3-1.9c-0.8-0.8-2-0.8-2.7,0l-7.5,7.5c-0.7-0.4-1.6-0.4-2.3,0.2c-0.6,0.6-0.6,1.5-0.2,2.3l-6.9,6.9l-5.3-5.3
			l4.9-4.9c0.8-0.8,0.8-2,0-2.7c-0.8-0.8-2-0.8-2.7,0l-5.3,5.3c-0.5,0-1,0.2-1.4,0.6s-0.6,0.9-0.6,1.4l-5.7,5.7l-5.9-5.9
			c-0.8-0.8-2-0.8-2.7,0c-0.8,0.8-0.8,2,0,2.7l5.9,5.9l-3.9,3.9l-9-9l9.1-9.1c0.8-0.8,0.8-2,0-2.7c-0.8-0.8-2-0.8-2.7,0l-9.1,9.1
			c-0.8-0.6-1.9-0.6-2.6,0.1c-0.7,0.7-0.7,1.8-0.1,2.6l-4.1,4.1l-5.9-5.9c-0.8-0.8-2-0.8-2.7,0c-0.8,0.8-0.8,2,0,2.7l5.9,5.9
			l-3.5,3.5c-2.1-1.2-4.2-2.5-6.1-4c-11.6-8.9-16.2-23.3,8.3-26.7c16-2.1,22.3-4.7,27.6-18.2c9.4,3.5,20.7,3.8,27,1.8
			c2.9,6.4,8.7,11.7,15.3,13.7c5.7,1.8,10.7,1.3,16.5,1.9C441.6,385.2,445.3,386,447.9,387.9L447.9,387.9z"/>
		<path d="M65.4,418.6c13.6,10.5,31.4,14.4,48.5,13.5c18.2-0.9,35.3-7.1,48.1-12.4c6.5-2.7,13.3-5.8,18.1-11.5
			c8.6-10.2,8.2-29-14.4-31.1c-1.7-0.2-3.5-0.3-5.2-0.3c-7.8-0.4-16-1-20.4-11.4c6.3-4.6,10.9-12.1,11.8-20.6
			c1.3-11.2-2.9-21.3-6.7-27.8c-8.3-14.4-22.2-22.4-36.3-14.9c-20.1,10.8-29.8,47.4-9.8,61.8c-3.5,9-4.6,11.9-22.2,14.2
			C47.9,382.2,47,404.5,65.4,418.6L65.4,418.6z M113.4,424.4c-9,0.5-17.6-0.6-25.4-2.9l1.6-1.6l1.6,1.6c0.4,0.4,0.9,0.6,1.4,0.6
			c0.5,0,1-0.2,1.4-0.6c0.8-0.8,0.8-2,0-2.7l-1.6-1.6l2.7-2.7l9.1,9.1c0.4,0.4,0.9,0.6,1.4,0.6c0.5,0,1-0.2,1.4-0.6
			c0.4-0.4,0.5-0.8,0.5-1.3c0.2-0.1,0.4-0.1,0.6-0.2l4.9-4.9l4.4,4.4c0.4,0.4,0.9,0.6,1.4,0.6c0.4,0,0.7-0.2,1-0.4
			c-0.1,0.6,0,1.2,0.4,1.7c0.2,0.2,0.6,0.3,0.9,0.4C118.6,423.9,116,424.2,113.4,424.4L113.4,424.4z M131,418.5
			c0.4,0.4,0.9,0.6,1.4,0.6c0.5,0,1-0.2,1.4-0.6c0.8-0.8,0.8-2,0-2.7l-1.7-1.7l5.2-5.2l4.5,4.5c0.1,0.2,0.1,0.4,0.2,0.6
			c0.2,0.2,0.4,0.1,0.6,0.2l2.5,2.5c0.4,0.4,0.9,0.6,1.4,0.6c0.5,0,1-0.2,1.4-0.6c0.8-0.8,0.8-2,0-2.7l-1.5-1.5l4.2-4.2l5.5,5.5
			c-9.5,3.8-21.1,7.7-33.4,9.6c0.1-0.1,0.2,0,0.3-0.1l6.4-6.4L131,418.5z M140.1,406.1l4.2-4.2l3.6,3.5l-4.2,4.2L140.1,406.1z
			 M120.7,420c0-0.5-0.2-1-0.6-1.3l-4.4-4.4l5.5-5.5l5.4,5.4L120.7,420z M159.5,412.3c-0.1-0.4-0.2-0.8-0.5-1.1l-5.7-5.7l7-7
			l2.7,2.7l-0.8,0.8c-0.8,0.8-0.8,2,0,2.7c0.4,0.4,0.9,0.6,1.4,0.6c0.5,0,1-0.2,1.4-0.6l0.8-0.8l3.4,3.4c0,0,0,0,0,0
			C166.4,409.3,163,410.9,159.5,412.3L159.5,412.3z M171.8,386.6c1.4,0.6,2.7,1.4,3.6,2.5c-0.2,0.1-0.4,0.1-0.5,0.2l-9.1,9.1
			l-2.7-2.7l8.4-8.4C171.7,387.1,171.7,386.9,171.8,386.6L171.8,386.6z M174.1,403.3c-0.6,0.7-1.3,1.2-1.9,1.8
			c-0.1-0.2-0.1-0.4-0.2-0.5l-3.4-3.4l8.6-8.6C178,396.2,176.5,400.5,174.1,403.3L174.1,403.3z M109.9,360.6c0.1-0.1,0.2,0,0.3-0.1
			l4-4l6.1,6.1c0.1,0.1,0.2,0.1,0.3,0.1C116.7,362.4,112.7,361.5,109.9,360.6z M123,359.8l-6.1-6.1l1.8-1.8l6.3,6.3
			c-0.6,0.8-0.7,1.9,0.1,2.6c0.4,0.4,0.9,0.6,1.4,0.6c0.4,0,0.9-0.2,1.2-0.5l0.4,0.4c0.4,0.4,0.9,0.6,1.4,0.6s1-0.2,1.4-0.6
			c0.8-0.8,0.8-2,0-2.7l-0.3-0.3l5.4-5.4l3,3c-1.6,2-3.4,3.7-5.6,4.8c-0.5,0.3-1,0.5-1.4,0.7c-2.6,1.1-5.7,1.5-9.4,1.3
			c0.2-0.1,0.4-0.1,0.5-0.2C123.8,361.8,123.8,360.6,123,359.8L123,359.8z M126.8,343.8l6.3,6.3l-5.4,5.4l-6.3-6.3L126.8,343.8z
			 M137.2,325.9l2.6-2.6c1.1,2.2,2.2,4.6,3.1,7.4c-0.2,0-0.4,0.2-0.6,0.2L137.2,325.9z M112.6,309c10-5.4,19.2,1.1,25.2,10.9
			l-4.4,4.4c-0.5,0.5-0.5,1.1-0.4,1.7c-0.1,0.6-0.1,1.3,0.4,1.7l5.8,5.8l-5.5,5.5c-0.8,0.8-0.8,2,0,2.7c0.4,0.4,0.9,0.6,1.4,0.6
			s1-0.2,1.4-0.6l5.5-5.5l2,2c0.1,0.1,0.1,0,0.2,0.1c0.1,1.8,0.2,3.7,0,5.6c-0.4,3.1-1.5,6.1-3,8.8l-2.6-2.6l4-4
			c0.8-0.8,0.8-2,0-2.7c-2-2-4.7,2-6.8,4l-6.3-6.3l4.4-4.4c0.8-0.8,0.8-2,0-2.7c-0.8-0.8-2-0.8-2.7,0l-12.5,12.5l-2.8-2.8
			c-0.8-0.8-2-0.8-2.7,0c-0.8,0.8-0.8,2,0,2.7l2.8,2.8l-1.8,1.8l-2.2-2.2c-0.8-0.8-2-0.8-2.7,0c-0.8,0.8-0.8,2,0,2.7l2.2,2.2l-4,4
			c-0.4,0.4-0.5,1-0.5,1.6C87.2,350.2,96.6,317.5,112.6,309L112.6,309z M78.4,385.7c16.1-2.1,22.4-4.8,27.6-18.2
			c9.8,3.7,20.7,3.8,27,1.8c8.2,17.8,25.6,14.2,34.9,16.1l-7.6,7.6l-2.3-2.3c-0.8-0.8-2-0.8-2.7,0c-0.8,0.8-0.8,2,0,2.7l2.3,2.3
			l-7,7l-3.5-3.6l4.1-4.1c0.8-0.8,0.8-2,0-2.7c-0.8-0.8-2-0.8-2.7,0l-4.1,4.1l-0.1-0.1c-0.8-0.8-2-0.8-2.7,0c-0.8,0.8-0.8,2,0,2.7
			l0.1,0.1l-4.2,4.2l-3.4-3.4c-0.8-0.8-2-0.8-2.7,0c-0.8,0.8-0.8,2,0,2.7l3.4,3.4l-5.2,5.2L124,406l2.7-2.7c0.8-0.8,0.8-2,0-2.7
			c-0.8-0.8-2-0.8-2.7,0l-2.7,2.7l-0.6-0.6c-0.8-0.8-2-0.8-2.7,0c-0.8,0.8-0.8,2,0,2.7l0.6,0.6l-5.5,5.5l-4.9-4.9
			c-0.8-0.8-2-0.8-2.7,0c-0.8,0.8-0.8,2,0,2.7l4.9,4.9l-4.9,4.9l-7.5-7.5l10.5-10.5c0.8-0.8,0.8-2,0-2.7c-0.8-0.8-2-0.8-2.7,0
			l-10.5,10.5l-0.3-0.3c-0.8-0.8-2-0.8-2.7,0c-0.8,0.8-0.8,2,0,2.7l0.3,0.3l-2.7,2.7l-4.8-4.8c-0.8-0.8-2-0.8-2.7,0
			c-0.8,0.8-0.8,2,0,2.7l4.8,4.8l-3,3c-5.1-1.9-9.8-4.5-13.8-7.6C58.5,403.5,53.9,389.2,78.4,385.7z"/>
		<path d="M204.6,442.2c-33.4,4.7-34.2,30.1-13.2,46.2c32.3,24.8,74.7,16.6,112.3,1.3c7.6-3.1,15.4-6.7,20.9-13.2
			c8.7-10.3,12.7-33.9-22.5-35.7c-7.8-0.4-19.2-0.6-24.5-14c7.5-5.3,12.7-14.3,13.9-24.2c1.5-12.9-3.4-24.6-7.7-32.1
			c-4.4-7.6-9.3-12.9-15-16.3c-8.7-5.2-17.9-5.5-26.6-0.9c-14.2,7.6-23.4,26.9-24,41.1c-0.6,12,3.6,22.9,11.3,29.1
			c0.6,0.5,1.2,0.9,1.8,1.3c-0.1,0.3-0.3,0.7-0.4,1C226.9,436,225,439.5,204.6,442.2L204.6,442.2z M264.1,494.1l12.3-12.3l7.1,7.1
			c0,0,0,0,0,0C277.4,490.9,270.9,492.7,264.1,494.1L264.1,494.1z M300.8,482.5c-4.3,1.8-9.1,3.6-14.1,5.4c0.1-0.6,0-1.2-0.4-1.7
			l-7.1-7.1l7.1-7.1l5,5l-5.3,5.3c-0.8,0.8-0.8,2,0,2.7c0.4,0.4,0.9,0.6,1.4,0.6s1-0.2,1.4-0.6l5.3-5.3l2.4,2.4
			c0.4,0.4,0.9,0.6,1.4,0.6c0.5,0,1-0.2,1.4-0.6c0.8-0.8,0.8-2,0-2.7l-2.4-2.4l8.4-8.4l7.4,7.4c0.2,0.2,0.4,0.2,0.6,0.3
			C309.6,478.7,305.3,480.6,300.8,482.5L300.8,482.5z M296.7,461.5c0.3-0.3,0.4-0.7,0.5-1.1l5.4,5.4l-8.4,8.4l-5-5L296.7,461.5z
			 M301.8,448.4c25.9,1.2,23.5,15.2,17,22.9c-0.9,1-1.9,1.9-3,2.8c-0.1-0.4-0.1-0.8-0.4-1.1l-7.4-7.4l7.8-7.8c0.8-0.8,0.8-2,0-2.7
			c-0.8-0.8-2-0.8-2.7,0l-7.8,7.8l-6.1-6.1c-0.8-0.8-2-0.8-2.7,0c-0.4,0.4-0.6,1-0.5,1.5c-0.7-0.2-1.4-0.2-2,0.3l-7.7,7.7l-4.3-4.3
			c-0.8-0.8-2-0.8-2.7,0c-0.8,0.8-0.8,2,0,2.7l4.3,4.3l-7.1,7.1L267,467c-0.8-0.8-2-0.8-2.7,0c-0.8,0.8-0.8,2,0,2.7l9.3,9.3
			l-13.9,13.9c-0.6,0.6-0.6,1.3-0.3,2c-15.6,2.5-31.4,2.1-46.5-3.5l4.9-4.9l7.1,7.1c0.4,0.4,0.9,0.6,1.4,0.6s1-0.2,1.4-0.6
			c0.8-0.8,0.8-2,0-2.7l-7.1-7.1l5-5l10.7,10.7c-0.7,0.8-0.7,1.9,0,2.6c0.4,0.4,0.9,0.6,1.4,0.6c0.5,0,0.9-0.2,1.3-0.5l3.4,3.4
			c0.4,0.4,0.9,0.6,1.4,0.6c0.5,0,1-0.2,1.4-0.6c0.8-0.8,0.8-2,0-2.7l-3.4-3.4l7.3-7.3l7.8,7.8c0.4,0.4,0.9,0.6,1.4,0.6
			s1-0.2,1.4-0.6c0.8-0.8,0.8-2,0-2.7l-7.8-7.8l18.4-18.4c0.8-0.8,0.8-2,0-2.7c-0.8-0.8-2-0.8-2.7,0l-18.4,18.4l-7.4-7.4
			c-0.8-0.8-2-0.8-2.7,0c-0.8,0.8-0.8,2,0,2.7l7.4,7.4l-7.3,7.3L228.4,476l20.6-20.6c0.8-0.8,0.8-2,0-2.7c-0.8-0.8-2-0.8-2.7,0
			l-20.9,20.9c-0.7-0.2-1.4-0.2-2,0.3c-0.5,0.5-0.6,1.3-0.3,1.9l-5.3,5.3l-4.9-4.9c-0.8-0.8-2-0.8-2.7,0c-0.8,0.8-0.8,2,0,2.7
			l4.9,4.9l-5.6,5.6c-0.1,0.1-0.1,0.3-0.2,0.5c-4.8-2.1-9.2-4.6-13.1-7.6c-14.1-10.9-19.2-28.4,10-32.4c23.7-3.1,26.8-8.7,32-21.5
			c8.3,3.2,22.6,5.5,32.4,2.1C276.7,444.5,288.3,447.8,301.8,448.4L301.8,448.4z M245.3,420.4c0.8,0.8,2,0.8,2.7,0
			c0.8-0.8,0.8-2,0-2.7l-2-2l1.2-1.2l9.7,9.7c0,0,0.1,0,0.2,0.1c-5.4-0.3-11.6-1.4-16.4-3.3l2.5-2.5L245.3,420.4z M259.4,424.3
			c0.1-0.1,0.3,0,0.3-0.1c0.4-0.4,0.6-0.9,0.6-1.4c0.1-0.1,0.3-0.1,0.4-0.2l9.8-9.8l5.3,5.3C271,422.8,266,424.3,259.4,424.3z
			 M258.1,419.8l-8.1-8.1l9.7-9.7l8.1,8.1L258.1,419.8z M283.8,401.5c-0.6,5-2.7,9.7-5.6,13.5l-5-5l7.2-7.2c0.4,0.4,0.8,0.6,1.3,0.6
			c0.5,0,1-0.2,1.4-0.6c0.7-0.7,0.7-1.9,0-2.7l0.8-0.8C283.9,400.1,283.9,400.8,283.8,401.5C283.8,401.5,283.8,401.5,283.8,401.5
			L283.8,401.5z M277.1,374.2c1.1,1.9,2.2,4,3.2,6.4l-5.2-5.2l1.7-1.7C276.9,373.9,277,374,277.1,374.2L277.1,374.2z M281.1,386.6
			c0.3,0.1,0.5,0.3,0.9,0.3c0.2,0,0.3-0.2,0.5-0.2c0.8,2.8,1.3,5.7,1.5,8.8c-0.7-0.3-1.5-0.2-2,0.3l-1.5,1.5l-5-5L281.1,386.6z
			 M226,394.6c0.5-11.8,8.3-28.3,20-34.6c6.4-3.4,12.8-3,19,0.7c3.5,2.1,6.7,5.3,9.7,9.6l-2.3,2.3l-0.4-0.4c-0.8-0.8-2-0.8-2.7,0
			c-0.8,0.8-0.8,2,0,2.7l0.4,0.4l-0.1,0.1c-0.8,0.8-0.8,2,0,2.7c0.4,0.4,0.9,0.6,1.4,0.6c0.5,0,1-0.2,1.4-0.6l0.1-0.1l5.9,5.9
			l-5.6,5.6l-3-3c-0.8-0.8-2-0.8-2.7,0c-0.8,0.8-0.8,2,0,2.7l3.2,3.2c-0.2,0.6-0.1,1.3,0.4,1.8c0.4,0.4,0.9,0.6,1.4,0.6
			c0.2,0,0.3-0.1,0.5-0.2l5.3,5.3l-7.2,7.2l-8.1-8.1l3.3-3.3c0.8-0.8,0.8-2,0-2.7c-0.8-0.8-2-0.8-2.7,0l-3.3,3.3l-3-3
			c-0.8-0.8-2-0.8-2.7,0c-0.8,0.8-0.8,2,0,2.7l3,3l-9.7,9.7l-4.6-4.6c-0.8-0.8-2-0.8-2.7,0c-0.8,0.8-0.8,2,0,2.7l4.6,4.6l-1.2,1.2
			l-4.6-4.6c-0.8-0.8-2-0.8-2.7,0c-0.8,0.8-0.8,2,0,2.7l4.6,4.6l-2.8,2.8c-0.2,0.2-0.3,0.6-0.3,0.8c-1-0.5-2-1.1-2.9-1.9
			C228.7,412.7,225.5,404.2,226,394.6L226,394.6z"/>
		<path d="M129.3,260.4c11-6.3,17.5-4.9,121.3-5.9l0.3,67.2c0,2.1,1.7,3.9,3.9,3.9c2.1,0,3.9-1.7,3.9-3.9l0-67.3
			c106.3-1,112.2-2.6,123.2,3.4c7.1,3.8,12.7,13.2,9.3,20.4c-0.9,1.9-0.1,4.3,1.9,5.2c1.9,0.9,4.2,0.1,5.2-1.9
			c5.5-11.7-2.3-24.9-12.7-30.5c-12.9-7-18.3-5.4-126.9-4.3V227l-0.2-3c25-3.4,48.2-11.8,66.3-19.2c10.7-4.4,21.7-9.4,29.4-18.5
			c11.2-13.3,18.4-46-31.1-48.4c-9-0.4-29.8-0.4-37.3-22.4c11.1-7.2,18.8-20,20.5-34.4c2.1-18-4.7-34.4-10.9-44.9
			c-33.7-58.4-88.7-16.2-91,33.5c-0.8,16.7,5,31.8,15.6,40.4c1.2,1,2.4,1.8,3.5,2.5c-2.1,5.3-4.3,11.7-7.9,15.9
			c-16.1,18.6-53.5,2.7-67.2,30.5c-7.5,15.6,1.4,32.4,16.9,44.3c23.7,18.2,54.7,24.3,85.2,21.6l0.1,21.9
			c-105.7,1-112.1-0.6-125.1,6.9c-10.4,6-17.6,20-11.7,31.3c1,1.9,3.4,2.6,5.2,1.6s2.6-3.4,1.6-5.2
			C116.8,274.1,122.1,264.5,129.3,260.4z M348.2,181.3c-6.5,7.8-16.2,12.1-26.4,16.3c-1.9,0.8-3.9,1.6-6,2.4c0,0,0-0.1-0.1-0.1
			l-12.4-12.4l10.8-10.8l12,12l-2.6,2.6c-0.8,0.8-0.8,2,0,2.7c0.8,0.8,2,0.8,2.7,0l2.6-2.6l0.8,0.8c0.8,0.8,2,0.8,2.7,0
			c0.8-0.8,0.8-2,0-2.7l-0.8-0.8l16.4-16.4c0.8-0.8,0.8-2,0-2.7c-0.8-0.8-2-0.8-2.7,0l-2,2l-7.1-7.1c0.1,0,0.2,0.2,0.4,0.2
			c0.5,0,1-0.2,1.4-0.6l11.2-11.2C357.7,160.5,354.7,173.5,348.2,181.3L348.2,181.3z M316.8,173.9l11.7-11.7l12,12l-11.7,11.7
			L316.8,173.9z M230,107.3c-0.5-0.2-1-0.5-1.5-0.8l2.1-2.1l2.1,2.1c0.8,0.8,2,0.8,2.7,0s0.8-2,0-2.7l-2.1-2.1l3.4-3.4l7.2,7.2
			l-1.1,1.1c-0.8,0.8-0.8,2,0,2.7s2,0.8,2.7,0l1.1-1.1c0.9,0.9,2.4,2.8,3.6,2.8c0.5,0,1-0.2,1.4-0.6c0.8-0.8,0.8-2,0-2.7l-2.2-2.2
			l5.9-5.9l6.9,6.9l-0.4,0.4c-0.8,0.8-0.8,2,0,2.7c0.8,0.8,2,0.8,2.7,0l0.4-0.4l2,2c0.8,0.8,2,0.8,2.7,0c0.8-0.8,0.8-2,0-2.7l-2-2
			l8.1-8.1l8.5,8.5C268.3,119.9,240.2,112.9,230,107.3L230,107.3z M245.5,89.6l7.2,7.2l-5.9,5.9l-7.2-7.2L245.5,89.6z M256.3,78.8
			l7.2,7.2l-8.1,8.1l-7.2-7.2L256.3,78.8z M273.1,95.5l-8.1,8.1l-6.9-6.9l8.1-8.1L273.1,95.5z M269,85.9l8.4-8.4l6.8,6.9l-8.4,8.4
			L269,85.9z M287.2,104.2l-8.7-8.7l8.4-8.4l6.9,6.9c0.1,0.1,0.3,0.1,0.5,0.2C292.5,98,290,101.3,287.2,104.2z M298.5,80.2
			c-0.4,3.6-1.3,7.1-2.6,10.4l-6.2-6.2l8.8-8.8c0.1-0.1,0.1-0.3,0.2-0.4c0,0,0.1,0,0.1,0.1C298.7,76.9,298.7,78.5,298.5,80.2
			L298.5,80.2z M290,42.5c1.1,2.1,2.2,4.3,3.3,6.8l-5-5L290,42.5z M296.4,57.9c1.1,3.8,1.9,7.8,2.2,12l-8.6-8.6l4.9-4.9L296.4,57.9z
			 M212.1,70c1.7-37.8,44.7-83.3,75.8-31l-2.7,2.7c-0.7-0.2-1.4-0.2-2,0.3c-0.5,0.5-0.6,1.3-0.3,2l-2.6,2.6c-0.8,0.8-0.8,2,0,2.7
			c0.8,0.8,2,0.8,2.7,0l2.4-2.4l6.7,6.7l-5.1,5.1c-0.7-0.4-1.6-0.4-2.2,0.2c-0.6,0.6-0.6,1.5-0.2,2.2l-3.4,3.3c-0.8,0.8-0.8,2,0,2.7
			c0.8,0.8,2,0.8,2.7,0l3.2-3.2l8.7,8.7c-0.1,0.1-0.2,0-0.3,0.1l-8.8,8.8l-6.9-6.9l0,0c1.8-1.8-0.9-4.6-2.7-2.7l0,0l-6-6
			c-0.8-0.8-2-0.8-2.7,0c-0.8,0.8-0.8,2,0,2.7l6,6l-8.4,8.4L259,76l0.4-0.4c0.8-0.8,0.8-2,0-2.7c-0.8-0.8-2-0.8-2.7,0l-11.6,11.6
			c-0.5,0-1.1,0.1-1.5,0.5c-0.4,0.4-0.6,1-0.5,1.5l-6.2,6.3l-2.5-2.5c-0.8-0.8-2-0.8-2.7,0c-0.8,0.8-0.8,2,0,2.7l2.5,2.5l-3.4,3.4
			l-5.5-5.5c-0.8-0.8-2-0.8-2.7,0s-0.8,2,0,2.7l5.5,5.5l-2.6,2.6c-0.1-0.1-0.3-0.2-0.4-0.3C216.2,97,211.4,84.2,212.1,70L212.1,70z
			 M155.4,162.4c10.5-21.3,48.4-8.4,66.1-28.8c4.4-5.2,6.4-11.1,8.9-17.4c10.6,4.5,33.1,9,48.3,3.1c8,20.9,25.2,25.5,43.9,26.4
			c8.1,0.4,16.2,0.8,23.2,4.9l-10.7,10.7c-0.5,0.5-0.5,1.1-0.4,1.8l-3.4-3.5l7-7c0.8-0.8,0.8-2,0-2.7c-0.8-0.8-2-0.8-2.7,0l-7,7
			l-2.3-2.3c-0.8-0.8-2-0.8-2.7,0c-0.8,0.8-0.8,2,0,2.7l2.3,2.3l-11.7,11.7l-5.7-5.7c-0.8-0.8-2-0.8-2.7,0c-0.8,0.8-0.8,2,0,2.7
			l5.7,5.7l-10.8,10.8l-11.4-11.4l8.7-8.7c0.8-0.8,0.8-2,0-2.7c-0.8-0.8-2-0.8-2.7,0l-8.7,8.7l-3.2-3.2c-0.8-0.8-2-0.8-2.7,0
			c-0.8,0.8-0.8,2,0,2.7l3.2,3.2l-9.2,9.2l-10.9-10.9c-0.8-0.8-2-0.8-2.7,0c-0.5,0.5-0.6,1.2-0.4,1.8c-0.7-0.2-1.3-0.1-1.8,0.4l-9,9
			l-2.6-2.6c-0.8-0.8-2-0.8-2.7,0s-0.8,2,0,2.7l2.6,2.6l-7.7,7.7l-4.5-4.5c-0.8-0.8-2-0.8-2.7,0c-0.8,0.8-0.8,2,0,2.7l4.5,4.5l-4,4
			l-9.4-9.4c-0.5-0.5-1.1-0.5-1.8-0.4l4.5-4.5c0.8-0.8,0.8-2,0-2.7s-2-0.8-2.7,0l-15.5,15.5l-3.5-3.5c-0.8-0.8-2-0.8-2.7,0
			c-0.8,0.8-0.8,2,0,2.7l3.5,3.5l-3.7,3.7l-8.1-8.1c-0.8-0.8-2-0.8-2.7,0s-0.8,2,0,2.7l8.1,8.1l-3.1,3.1c-9.4-3.4-17.9-8-25.4-13.7
			C153,184,151.4,170.6,155.4,162.4L155.4,162.4z M288.6,196.7l-11.4-11.4l9.2-9.2l11.4,11.4L288.6,196.7z M252.4,185.6l9-9
			c0.3-0.3,0.4-0.8,0.5-1.2l9.9,9.9l-9.8,9.8L252.4,185.6z M259.2,197.9l-7.7,7.7L242,196l7.7-7.7L259.2,197.9z M221,211.5
			c-0.1,0.1,0,0.2-0.1,0.2l-10.5-10.5l9.6-9.6c-0.1,0.6-0.1,1.3,0.4,1.8l9.4,9.4L221,211.5z M199.5,212.1l2-2c0,0,0.1,0,0.1,0
			c0.5,0,1-0.2,1.4-0.6c0.4-0.4,0.6-0.9,0.5-1.5l4.1-4.1l11.6,11.6c0.4,0.4,0.9,0.6,1.4,0.6s1-0.2,1.4-0.6c0.2-0.2,0.2-0.5,0.3-0.8
			c0,0,0,0,0.1,0c0.5,0,1-0.2,1.4-0.6l8.8-8.8l6.3,6.3c0.8,0.8,2,0.8,2.7,0s0.8-2,0-2.7l-6.3-6.3l4-4l9.5,9.5l-0.8,0.8
			c-0.8,0.8-0.8,2,0,2.7c0.8,0.8,2,0.8,2.7,0l0.8-0.8l1.5,1.5c0.8,0.8,2,0.8,2.7,0c0.8-0.8,0.8-2,0-2.7l-1.5-1.5l7.7-7.7l6.5,6.5
			c0.8,0.8,2,0.8,2.7,0c0.8-0.8,0.8-2,0-2.7l-6.5-6.5l9.8-9.8l11.4,11.4l-2.3,2.3c-0.8,0.8-0.8,2,0,2.7c0.8,0.8,2,0.8,2.7,0
			l14.3-14.3l11.3,11.3C275.3,215.6,236.9,224,199.5,212.1L199.5,212.1z"/>
	</g>
</g>
</svg>
