<?xml version="1.0" encoding="utf-8"?>
<!-- Generator: Adobe Illustrator 25.0.0, SVG Export Plug-In . SVG Version: 6.00 Build 0)  -->
<svg version="1.1" id="Layer_1" xmlns:svgjs="http://svgjs.com/svgjs"
	 xmlns="http://www.w3.org/2000/svg" xmlns:xlink="http://www.w3.org/1999/xlink" x="0px" y="0px" viewBox="0 0 512 512"
	 style="enable-background:new 0 0 512 512;" xml:space="preserve">
<style type="text/css">
	.st0{fill:#FFFFFF;}
</style>
<g>
	<g>
		<g id="XMLID_1_">
			<path class="st0" d="M402.9,194.2L392,205.2l11.5,11.5c3.6-3.6,7.1-7.1,10.6-10.6c0.4-0.3,0.6-0.6,0.9-0.9
				c-0.1,0-0.1,0.1-0.2,0.1c-0.5,0-1-0.2-1.4-0.5L402.9,194.2z M373.9,251.8c-0.8,0.8-2,0.8-2.8,0c-0.7-0.8-0.7-2,0-2.8l11.4-11.3
				l-15-15c-0.8-0.7-0.8-1.9,0-2.7c0.7-0.8,1.9-0.8,2.7,0l15,15c4.3-4.3,11.4-11.4,15.5-15.6l-11.5-11.5l-10.4,10.4
				c-0.8,0.8-2,0.8-2.7,0c-0.8-0.7-0.8-1.9,0-2.7l10.4-10.4l-4.9-4.9c-0.7-0.7-0.7-1.9,0-2.7c0.8-0.8,2-0.8,2.8,0l4.8,4.8l10.9-10.9
				l-6.1-6.1c-0.7-0.7-0.7-1.9,0-2.7c0.8-0.8,2-0.8,2.8,0l6.1,6.1l5.8-5.7c0.8-0.8,1.9-0.8,2.7,0c0.8,0.7,0.8,1.9,0,2.7l-5.7,5.8
				l10.5,10.5c0.5,0.5,0.5,1.1,0.4,1.7c1.9-1.6,3.6-2.3,7.1-0.8c3.6,1.6,6.6,6.4,9.3,9.1c0.8,0.8,0.8,2,0,2.8c-0.8,0.7-2,0.8-2.7,0
				c-1.9-1.9-5.8-7.4-8.1-8.3c-2.7-1.2-2.8,0-5.4,2.4c-3.6,3.4-7.1,7-10.6,10.5l12.6,12.7c0.8,0.7,0.8,1.9,0,2.7
				c-0.8,0.8-1.9,0.8-2.7,0l-12.6-12.6c-4.1,4.1-11.4,11.4-15.6,15.5l12.2,12.2c0.8,0.7,0.8,1.9,0,2.7c-0.8,0.8-2,0.8-2.8,0
				l-12.1-12.1L373.9,251.8z"/>
			<path class="st0" d="M240.4,347.3c5.3-6.5,15-12,24.1-8.6c7.9,3,13.1,12.1,11.8,20.7c-1.2,8.1-7.8,15.2-16.1,17.4
				c-1.7,0.4-3.4,0.6-5.1,0.6c-6.9,0-13.5-3.3-17.1-8.7C234,362.4,234.9,354.2,240.4,347.3L240.4,347.3z M268.6,358.2
				c0.8-5-2.3-10.6-6.8-12.3c-0.9-0.4-1.9-0.5-3-0.5c-4.1,0-9,2.6-12.3,6.7c-1.3,1.6-5.2,7.2-1.9,12.3c2.6,4.1,8.6,6.1,13.7,4.8
				C263.6,367.9,267.9,363.4,268.6,358.2z"/>
			<path class="st0" d="M237,194.7l6,6l6.1-6.1C244.8,194.6,240.9,194.7,237,194.7z M220.5,199l4.3-4.3c-3,0.1-5.8,0.1-8.5,0.1
				L220.5,199z M209.1,240.9l2.9-2.8l-2.4-2.4C209.5,237.5,209.3,239.7,209.1,240.9L209.1,240.9z M212,195.9
				c0.1,6.4-0.2,12.8-0.5,19.2l0.9,0.9l9.9-9.9l-1.6-1.6l-0.1,0.1c-0.8,0.8-2,0.8-2.8,0c-0.7-0.7-0.7-1.9,0-2.7l0.2-0.2L212,195.9z
				 M274.4,174.6l8.5,8.5c-0.4-0.8-0.4-1.6,0.2-2.2l4.2-4.3l-7.5-7.6L274.4,174.6z M262.1,186.9h19.1l-9.5-9.5L262.1,186.9z
				 M234.4,126.5c26.5-20.7,38.5-15,60.4,7c9.4,9.3,18.8,18.7,28.1,28c0.6-0.1,1.2,0,1.6,0.5s0.5,1,0.5,1.6c2.5,2.4,4.9,4.9,7.4,7.3
				c1.9,1.9,7,7.1,7,13c0,1.4-0.3,2.8-0.9,4.3c-2.6,5.8-9.2,7.1-15.6,7c1.5,10.8,2.2,37,1.2,59.3c-1.1,26.1-11.8,31-29.9,30.2
				c-0.8-0.1-57.4-2.7-70.7-3.3c-18.4-0.8-24.8-7.5-23.4-25.7c1.3-19.5,4.6-40.5,4.1-61c-1.6,0-2.8,0-3.5,0
				c-14.9-0.6-31.6-17.8-5.8-37.5C207.4,147.5,221.8,136.2,234.4,126.5L234.4,126.5z M268.9,174.6l-5.4-5.4c-0.8-0.8-0.8-2,0-2.8
				c0.8-0.7,1.9-0.7,2.7,0l5.4,5.4l5.4-5.4l-0.9-0.9c-0.8-0.8-0.8-2,0-2.8s2-0.8,2.7,0l1,1l8.1-8.2c0.8-0.7,2-0.7,2.7,0
				c0.5,0.6,0.7,1.4,0.4,2.1c-0.1,0.2-0.2,0.5-0.4,0.7l-8.1,8.1l7.6,7.5l11.5-11.5c0.8-0.8,2-0.8,2.7,0c0.8,0.8,0.8,2,0,2.8
				l-11.5,11.5l4,4c0.8,0.8,0.8,2,0,2.7c-0.8,0.8-1.9,0.8-2.7,0l-4-4l-4.3,4.2c-0.4,0.4-0.9,0.5-1.4,0.5c-0.3,0-0.5-0.2-0.8-0.3
				l1.3,1.3c0.4,0.4,0.5,1,0.4,1.6c8.9,0,24,0.1,32.9,0.4c12.3,0.5,18.2-1.2,8.5-10.9c-2.3-2.3-4.7-4.7-7-6.9L309.3,180
				c-0.8,0.8-2,0.8-2.7,0c-0.8-0.8-0.8-2,0-2.7l10.5-10.6c-4.8-4.9-9.7-9.8-14.6-14.6l-7.2,7.2c-0.8,0.8-2,0.8-2.8,0
				c-0.3-0.4-0.5-0.9-0.5-1.4c0-0.5,0.2-0.9,0.5-1.3l7.3-7.3c-3.5-3.4-7-6.9-10.4-10.4c-19.8-19.7-27.5-24-50.3-6.3
				c-15.8,12.3-31.1,24.1-39.5,30.6c-19.9,15.3-6.4,23.4,1.4,23.7c4,0.2,51.8-0.1,56-0.1c0.2-0.2,0.2-0.5,0.3-0.8L268.9,174.6z
				 M278.3,246.5c0.6-7.8,0.5-12.6-14.3-11.1c-13.4,1.5-15,4.7-15,15.3c-0.1,4.7-0.2,20.2-0.3,24.1c9,0.5,18,0.9,27,1.2
				C275.9,274.7,278.1,247.9,278.3,246.5z M262.4,197.4l2.2-2.2c0.4-0.4,0.9-0.5,1.4-0.5s1,0.2,1.4,0.5c0.8,0.8,0.8,2,0,2.8
				l-2.2,2.2l1.9,1.9c0.8,0.8,0.8,1.9,0,2.7c-0.7,0.8-1.9,0.8-2.7,0l-1.9-1.9l-0.9,0.9c-0.8,0.8-2,0.8-2.8,0c-0.7-0.8-0.7-2,0-2.7
				l0.9-0.9l-5.6-5.6c-0.5,0-1,0-1.6,0c0.4,0.8,0.4,1.6-0.2,2.2l-6.5,6.5l3.1,3.2c0.8,0.8,0.8,2,0,2.7c-0.8,0.8-1.9,0.8-2.7,0
				l-3.2-3.1l-3.7,3.6c-0.7,0.8-1.9,0.8-2.7,0c-0.8-0.7-0.8-1.9,0-2.7l3.7-3.7l-8.7-8.7c-0.9,0-1.6,0-1.9,0c-0.2,1.2-5.5,6.1-6.4,7
				l2.9,2.9l7.9,7.9c0.8,0.8,0.8,2,0,2.8c-0.8,0.7-2,0.7-2.7,0l-6.6-6.6l-9.9,9.9l6.1,6.1c0.8,0.8,0.8,2,0,2.8c-0.8,0.7-2,0.7-2.8,0
				l-6-6.1l-1.6,1.5c-0.2,2.6-0.4,5.2-0.7,7.8l4.7,4.7l8.5-8.5c0.7-0.7,1.9-0.7,2.7,0c0.8,0.8,0.8,2,0,2.8l-8.4,8.4l1,1.1
				c0.8,0.7,0.8,1.9,0,2.7c-0.8,0.8-2,0.8-2.8,0l-1-1l-6.1,6.1c-0.2,3.1-0.6,6.3-0.9,9.3c-1,13.3,1.8,16.8,16.1,17.4l17.1,0.8
				c0.1-7.8,0.1-8.6,0.3-23.8c0.2-14.6,4.5-20.9,22-23c16.1-1.6,24.2,3.3,22.8,19.5c-0.2,1.9-2.3,27.6-2.6,29.3
				c3.7,0.2,7.4,0.4,11.2,0.5c13.3,0.6,20.8-0.6,21.7-22.8c0.9-22.8,0.2-49.5-1.3-59.2c-13.1-0.3-35.7-0.3-49-0.3
				c-2.2,0-4.3,0-6.4,0L262.4,197.4z"/>
			<path class="st0" d="M82.9,346.7c0-1.1,0.9-1.9,1.9-1.9h10.6v-7.3c0-1.1,0.9-1.9,1.9-1.9c1.1,0,1.9,0.9,1.9,1.9v7.3h28.4v-5.5
				c0-1.1,0.9-1.9,1.9-1.9s1.9,0.9,1.9,1.9v5.5h28.9c1.1,0,1.9,0.9,1.9,1.9s-0.9,1.9-1.9,1.9h-28.9v12.8H144v-7.3
				c0-1.1,0.9-1.9,1.9-1.9s1.9,0.9,1.9,1.9v7.3h20.2v-4.1c0-1.1,0.9-1.9,1.9-1.9s1.9,0.9,1.9,1.9v4.1h12.1v-3c0-1.1,0.9-1.9,1.9-1.9
				s1.9,0.9,1.9,1.9v3h5c1.1,0,1.9,0.9,1.9,1.9s-0.9,1.9-1.9,1.9h-5v8.2c0,1.1-0.9,1.9-1.9,1.9s-1.9-0.9-1.9-1.9v-8.2H172v9
				c0,1.1-0.9,1.9-1.9,1.9s-1.9-0.9-1.9-1.9v-9h-20.2v9.5c0,1-0.9,1.9-1.9,1.9s-1.9-0.9-1.9-1.9v-9.5h-12.4v10.2
				c0,1-0.9,1.9-1.9,1.9s-1.9-0.9-1.9-1.9v-10.2h-17.9c-1.1,0-1.9-0.9-1.9-1.9s0.9-1.9,1.9-1.9h17.9v-12.8H99.3v9.8
				c0,1.1-0.9,1.9-1.9,1.9c-1.1,0-1.9-0.9-1.9-1.9v-9.8H84.9C83.9,348.6,82.9,347.8,82.9,346.7z"/>
			<path class="st0" d="M68.2,109.5l7.6-7.6l-8.2-8.2c-0.8-0.7-0.8-1.9,0-2.7c0.7-0.8,1.9-0.8,2.7,0l8.2,8.2l3.5-3.6
				c0.8-0.8,2-0.8,2.8,0c0.8,0.8,0.8,2,0,2.8l-3.6,3.5l14,13.9c0.8,0.8,0.8,2,0,2.8c-0.8,0.8-2,0.8-2.8,0l-13.9-13.9l-7.6,7.6
				c-0.8,0.8-2,0.7-2.7,0C67.4,111.6,67.4,110.3,68.2,109.5L68.2,109.5z"/>
			<path class="st0" d="M494,331.2c0-1.2,0.1-2.4,0.1-3.6c0-0.6,0-1.2,0-1.7l-2.6,2.7L494,331.2z M488.6,331.3l-7.9,8l12,12
				c0.6-4.7,0.9-9.7,1.1-14.8L488.6,331.3z M482.4,364.7l5.4,5.4c2-4.5,3.3-9.4,4.2-14.6c-0.1,0-0.2-0.1-0.3-0.1L482.4,364.7z
				 M471.4,359.1l-7.1,7.1l5.7,5.7l7.1-7.1L471.4,359.1z M475.4,382.8l-5.5-5.5l-7.1,7.1l6.2,6.1c4.2-2.2,8.1-5,11.3-8.6
				c2.4-2.6,4.3-5.5,5.9-8.5c-0.4-0.1-0.8-0.2-1.1-0.5l-5.4-5.4l-7.1,7.1l5.4,5.4c0.8,0.8,0.8,2,0,2.8c-0.4,0.4-0.9,0.5-1.4,0.5
				C476.2,383.3,475.7,383.1,475.4,382.8z M461.5,368.9l-7.1,7.1l5.7,5.6l7.1-7.1L461.5,368.9z M409.4,391.1l9.2-9.2l-6.6-6.6
				l-9.2,9.2L409.4,391.1z M362.4,394.9c-0.4,0.4-0.9,0.5-1.4,0.5c-0.2,0-0.4-0.2-0.6-0.3l-2.1,2.2c-0.2,0.2-0.6,0.2-0.9,0.3
				c9.9,0.2,19.4,0.2,28.2,0.3c-0.2-0.1-0.4-0.1-0.5-0.2l-13.7-13.6l-8.7,8.7C362.9,393.5,362.9,394.2,362.4,394.9z M324.1,391.2
				l5.7,5.6c0.1,0.2,0.1,0.4,0.2,0.5l3.3,0.1c7.9,0,15.6,0.1,23,0.2c-0.3-0.1-0.6-0.1-0.9-0.3c-0.8-0.8-0.8-2,0-2.7l1.9-1.9
				l-5.9-5.9l-5.7,5.6l0.1,0.1c0.8,0.8,0.8,2,0,2.8c-0.4,0.3-0.9,0.5-1.4,0.5c-0.5,0-0.9-0.2-1.3-0.5l-0.1-0.1l-1.1,1.1
				c-0.4,0.4-0.9,0.5-1.4,0.5c-0.5,0-1-0.2-1.4-0.5c-0.8-0.8-0.8-2,0-2.8l1.1-1.1l-7.7-7.7c-0.4-0.4-0.5-0.9-0.5-1.4L324.1,391.2z
				 M324.8,397.3l-3.4-3.4l-3.3,3.3L324.8,397.3z M182.5,73.2l8.9-8.9c-5.7,0.2-11.3,0.5-17,0.9L182.5,73.2z M253.8,62.2
				c-4.1,0.2-8.3,0.3-12.4,0.4l6,6.1L253.8,62.2z M225,453.6l5.4-5.4l-4.8-4.9c-3.2,0.2-6.3,0.4-9.5,0.6l8.4,8.3
				C224.8,452.6,225,453,225,453.6z M161.2,455.3l7.3,7.3l8.8-8.8l-5.8-5.8c-5.4,0.4-10.6,1-15.4,2.3l4,3.9c0.2,0.1,0.5,0.2,0.8,0.4
				C161,454.7,161.1,455,161.2,455.3L161.2,455.3z M150.1,72l5.9-6c-3.7,0.2-7.5,0.4-11.2,0.6L150.1,72z M151.9,451.6
				c-2.4,0.9-4.7,2.1-7,3.6c-1.2,0.8-2.3,1.8-3.4,2.9l6.5,6.5l8.5-8.5L151.9,451.6z M136.5,476.1l8.7-8.8l-6.3-6.3
				c-2.9,4-4.4,8.9-3.1,13.6C136,475.2,136.3,475.6,136.5,476.1L136.5,476.1z M207.7,63.7l6.4,6.4l6.8-6.8
				C216.6,63.5,212.2,63.5,207.7,63.7z M199.8,445.4l6.4,6.4l5.5-5.5c0.2-0.2,0.6-0.3,0.9-0.4l-1.6-1.6
				C207.3,444.6,203.6,445,199.8,445.4L199.8,445.4z M302.9,62.4l0.9-0.9c-0.5,0-1.2,0-1.8,0L302.9,62.4z M282.2,441.5
				c-4.8,0-9.6,0-14.5,0.1c-2.7,0.1-5.4,0.1-8.1,0.2c-7.7,0.2-15.4,0.5-23,0.9c-1.9,0.1-4,0.2-5.9,0.4l2.5,2.4l2-2
				c0.8-0.8,2-0.8,2.7,0c0.8,0.8,0.8,1.9,0,2.7l-2,2l4.6,4.6c0.7,0.8,0.7,2,0,2.7c-0.4,0.4-0.9,0.6-1.4,0.6c-0.5,0-1-0.2-1.4-0.6
				l-4.5-4.5l-6.3,6.2c-0.4,0.4-0.9,0.5-1.3,0.5c-0.5,0-1-0.2-1.4-0.5c-0.5-0.5-0.5-1.2-0.4-1.9c-0.2,0.2-0.5,0.4-0.8,0.4
				c-0.5,0-1-0.2-1.4-0.6l-6.8-6.9c-0.1,0.4-0.2,0.7-0.4,1l-5.5,5.4l1.7,1.7c0.8,0.8,0.8,2,0,2.8c-0.4,0.4-0.9,0.5-1.3,0.5
				c-0.5,0-1-0.2-1.4-0.5l-1.7-1.7l-3.6,3.5c-0.4,0.4-0.9,0.5-1.3,0.5c-0.5,0-1-0.2-1.4-0.5c-0.8-0.8-0.8-2,0-2.8l3.5-3.5l-8.6-8.6
				c-1.2,0.2-2.5,0.2-3.7,0.4l-6.3,0.6c-2.6,0.3-5.4,0.5-8.1,0.7l3.4,3.4l2.7-2.7c0.8-0.8,2-0.7,2.8,0c0.8,0.8,0.8,2,0,2.8l-2.7,2.7
				l6.4,6.4c0.8,0.8,0.8,2,0,2.7c-0.4,0.4-0.9,0.6-1.4,0.6c-0.5,0-1-0.2-1.4-0.6l-6.4-6.4l-10,10.1c-0.4,0.4-0.9,0.5-1.4,0.5
				c-0.5,0-1-0.2-1.4-0.5c0-0.1,0-0.2-0.1-0.2c-0.2-0.2-0.5-0.2-0.8-0.4l-7.1-7.1l-8.5,8.5l6,6c0.8,0.8,0.8,2,0,2.8
				c-0.4,0.3-0.9,0.5-1.4,0.5c-0.5,0-0.9-0.2-1.3-0.5l-6-6.1l-9.4,9.4c2.1,2.6,5,4.8,8.6,6.3c5.6,2.2,12.1,2.6,18.5,2.9
				c57.9,3.2,116.7,0.9,174.4-7c7.3-0.9,14.3-2,19.9-5.3c4.8-2.6,9.9-7.8,9.9-14.3c0-6.3-5.3-11.7-10.6-14.4
				c-6.1-3-13.4-3.8-20.9-4.3c-0.9-0.1-1.4-0.1-2.1-0.1c-0.1,0-0.2,0-0.2-0.1c-0.1,0-0.1,0-0.1,0c-0.9,0-1.8-0.1-2.6-0.1
				c-8.1-0.5-16.1-1-24.1-1.2c-2.8-0.2-5.6-0.2-8.4-0.2C294.6,441.6,288.4,441.5,282.2,441.5L282.2,441.5z M284.3,61.7
				c-4.3,0.1-8.8,0.1-13.1,0.2l6.4,6.5L284.3,61.7z M260.3,433.9c5.1-0.1,10.3-0.1,15.4-0.1c3,0,6.1-0.1,9.1-0.1
				c4.8,0,9.5,0.2,14.4,0.3c3.5,0.1,7,0.1,10.5,0.2c4.1,0.2,8.1,0.4,12.3,0.6c3.6,0.2,7.4,0.3,11.1,0.5c0.7-5.2,0.4-11.3-0.8-18
				c-0.9-4.2-1.6-8.3-2.3-12.3l-65.2-0.4l-70.3-0.5c0.1,11.2,0.1,22.5,0.1,33.7c4.3-0.4,8.5-0.7,12.6-1.1c2.5-0.2,5-0.5,7.4-0.7
				c7.4-0.5,14.6-1.1,21.7-1.4C244.2,434.4,252.3,434.1,260.3,433.9L260.3,433.9z M186.6,404.2c-70-0.8-120.9,3.2-152-27.5
				C21.4,363.5,13.3,346,9.9,322.9c0,0,0,0,0-0.1c-4.3-28.6-2-43.8,8.8-219.7c4-64.1,22.2-91.2,106.9-88.8l295.1,8.1
				c71.4,2,84.1,27.1,83.5,77.3c-0.7,71.1-1.4,142.3-2.2,213.4c0,4.9,0,9.7-0.1,14.6c-0.2,22.6-1.6,44.1-15.8,59.5
				c-15.2,16.6-39.6,18.9-62.3,18.9c-1.9,0-3.8,0-5.7-0.1c-19.5-0.2-48.1-0.5-80.1-0.9c0.6,3.6,1.2,7.1,2,10.8
				c1.3,7.4,1.6,14,0.9,19.9c7.6,0.5,15.2,1.5,22,4.9c9.1,4.5,14.9,12.9,14.9,21.3c0,8.2-5.3,16.3-13.8,21
				c-6.9,3.9-14.7,5.1-22.7,6.2c-41.4,5.6-83.4,8.5-125.2,8.5c-16.9,0-33.7-0.5-50.6-1.4c-7-0.5-14.1-0.9-20.9-3.5
				c-8.1-3.3-14-9.3-16.1-16.1c-3.3-11.4,4-22.5,12.1-28c10.6-7.2,22.5-8.1,34-8.8c3.2-0.2,6.4-0.5,9.5-0.9l2.8-0.2
				C186.7,427.3,186.7,415.7,186.6,404.2z M344.9,320.2c-340.2,7.3-290.8,6.3-326.7,6.1c3.5,19.1,10.7,33.8,21.9,44.8
				c28.1,27.8,73.9,24.6,150.5,25.4l122.8,0.8c0-0.5,0.2-0.9,0.5-1.3l4.7-4.7l-3-3c-0.7-0.8-0.7-2,0-2.8c0.8-0.8,2-0.8,2.8,0l3,3
				l16.5-16.5c0.8-0.8,2-0.8,2.8,0c0.8,0.8,0.8,1.9,0,2.7l-6.7,6.7c0.5,0,1,0.2,1.3,0.5l7.8,7.8l5.6-5.7l-2.3-2.3
				c-0.8-0.8-0.8-2,0-2.7c0.8-0.8,2-0.8,2.7,0l2.4,2.3l19.4-19.4c0.7-0.8,1.9-0.8,2.7,0c0.8,0.7,0.8,1.9,0,2.7l-19.4,19.4l5.9,5.9
				l8.5-8.5l-1.6-1.6c-0.8-0.8-0.8-1.9,0-2.7c0.7-0.8,1.9-0.8,2.7,0l1.6,1.6l24-24c0.8-0.7,2-0.7,2.8,0c0.7,0.8,0.7,2,0,2.8
				L385.6,370l-11.4,11.4l13.6,13.6c0.8,0.8,0.8,1.9,0,2.7c-0.2,0.2-0.4,0.2-0.5,0.2c9,0.2,17.3,0.2,24.6,0.4c2.2,0,4.3,0.1,6.4,0.1
				c16.7,0.2,33.5-0.4,47.1-6.1l-5.4-5.4c-0.2,0.1-0.4,0.2-0.6,0.2c-0.5,0-1-0.2-1.4-0.5c-0.5-0.5-0.5-1.3-0.3-2l-5.8-5.8
				l-12.5,12.5c-0.4,0.4-0.9,0.5-1.4,0.5c-0.5,0-1-0.2-1.4-0.5c-0.8-0.8-0.8-2,0-2.8l12.5-12.5l-9.5-9.5l-15.4,15.4l8.1,8.2
				c0.8,0.8,0.8,2,0,2.7c-0.4,0.4-0.9,0.6-1.3,0.6c-0.5,0-1-0.2-1.4-0.6l-8.2-8.1l-9.2,9.2l0.9,0.9c0.8,0.8,0.8,2,0,2.8
				c-0.4,0.3-0.9,0.5-1.3,0.5c-0.5,0-1-0.2-1.4-0.5l-1.4-1.4c-0.5,0-1-0.2-1.4-0.5c-0.4-0.4-0.5-0.9-0.5-1.4l-7-7l-3.7,3.6
				c-0.4,0.4-0.9,0.6-1.4,0.6c-0.5,0-0.9-0.2-1.3-0.6c-0.8-0.7-0.8-1.9,0-2.7l3.7-3.7l-11.7-11.6c-0.8-0.8-0.8-2,0-2.8
				c0.8-0.8,2-0.8,2.7,0l11.7,11.7l9.2-9.2l-5.3-5.2c-0.7-0.8-0.7-2,0-2.8c0.8-0.7,2-0.7,2.8,0l5.2,5.3l16.3-16.3
				c0.8-0.8,2-0.8,2.7,0c0.8,0.8,0.8,2,0,2.7l-16.2,16.3l6.5,6.6l15.4-15.4l-2.3-2.3c-0.8-0.8-0.8-2,0-2.7c0.8-0.8,2-0.8,2.7,0
				l2.3,2.2l17.4-17.3c0.7-0.8,1.9-0.8,2.7,0c0.8,0.8,0.8,2,0,2.7l-17.3,17.4l9.5,9.5l7.1-7.1l-4.3-4.3c-0.8-0.8-0.8-2,0-2.7
				c0.8-0.8,2-0.8,2.7,0l4.3,4.3l7.1-7.1l-1.9-1.9c-0.8-0.8-0.8-1.9,0-2.7c0.7-0.8,1.9-0.8,2.7,0l1.9,1.9l5.9-5.9
				c0.7-0.8,1.9-0.8,2.7,0c0.8,0.8,0.8,2,0,2.7l-5.9,5.9l5.7,5.7l9.1-9.1L476,340.1c-0.8-0.7-0.8-1.9,0-2.7c0.5-0.5,1-0.5,1.6-0.5
				l8.3-8.3l-4.1-4.1c-0.8-0.8-0.8-2,0-2.8c0.8-0.8,2-0.8,2.8,0l4.1,4.1l5.4-5.4c0-1.2,0.1-2.2,0.1-3.3
				C444.4,318.1,394.6,319.1,344.9,320.2L344.9,320.2z M58.5,270.2l8.3-8.3l-8.7-8.7C58.3,258.9,58.3,264.5,58.5,270.2z M74.1,192.5
				l-11.2-11.2l-1,1c-0.8,0.8-2,0.8-2.7,0c-0.8-0.7-0.8-1.9,0-2.7l1-1l-2.2-2.2c-0.4,11.6-0.5,23.1-0.5,34.8L75.8,193
				C75.2,193.1,74.8,193.2,74.1,192.5L74.1,192.5z M62.9,175.9l10.6-10.6c-0.2-0.1-0.4-0.1-0.5-0.2l-13.9-13.9
				c-0.4,7.4-0.9,15-1.1,22.4c0.8-0.7,1.9-0.7,2.6,0.1L62.9,175.9z M52.7,123.4c3.1-47.8,18.9-60.3,62.8-63.1
				c37.7-2.3,75.6-3.9,113.6-5l1-1.1c0.8-0.8,2-0.8,2.7,0c0.3,0.3,0.3,0.6,0.4,0.9c9.5-0.3,19.1-0.7,28.6-0.9l0.2-0.2
				c0.8-0.8,2-0.8,2.8,0v0.2c48.3-1.1,96.7-1.2,144.6-0.2c38.6,0.7,53.4,11.3,56.9,54.3c5.5,66.8,6.3,134.6,2.2,201.5
				c8.6-0.2,17.2-0.3,25.8-0.5c0.8-69.9,1.5-139.8,2.2-209.7c0.5-45.8-9-67.5-76-69.4l-295.1-8.1c-81.2-2.3-95.2,22.7-98.9,81.5
				c-11,178-12.8,188.7-9.4,214.8c13.2,0.1,23.7,0.4,36.3,0.1C48.6,253.8,48.4,188.1,52.7,123.4L52.7,123.4z M77.2,78.2
				c-11.6,8.8-14.7,22.9-16.1,37.4c0.5,0,1,0.2,1.4,0.5l13.6,13.7l6.9-6.9c0.8-0.8,2-0.8,2.8,0c0.7,0.7,0.7,1.9,0,2.7l-17.9,17.8
				c-0.8,0.8-2,0.8-2.7,0c-0.8-0.7-0.8-1.9,0-2.7l8.2-8.2l-12.6-12.6c-0.2,1.3-0.2,2.7-0.3,4c-0.5,7.4-0.7,15-1.1,22.5
				c0.2,0.1,0.5,0.1,0.8,0.3l15.6,15.7c0.2,0.2,0.2,0.3,0.2,0.5l0.9-0.9c0.8-0.8,2-0.8,2.8,0c0.7,0.8,0.7,2,0,2.8l-13.9,13.9
				l11.1,11.2c0.7,0.7,0.7,1.7,0.2,2.5c0.6-0.2,1.4-0.2,1.9,0.3c0.7,0.8,0.7,2,0,2.8L60,214.3l13.3,13.3c0.8,0.8,0.8,2,0,2.7
				c-0.8,0.8-1.9,0.8-2.7,0l-13-13c0,9.8,0.2,19.6,0.5,29.5l19.3-19.3c0.8-0.8,2-0.8,2.8,0c0.7,0.7,0.7,1.9,0,2.7l-19.8,19.8
				l9.2,9.2l6.6-6.6c0.8-0.8,2-0.8,2.7,0c0.8,0.7,0.8,1.9,0,2.7l-6.6,6.6l2.2,2.1c0.7,0.8,0.7,2,0,2.8c-0.8,0.7-2,0.7-2.8,0
				l-2.1-2.2l-10.8,10.9c0.5,14.4,1.4,28.6,2.5,42.9c94.4-1.9,189.1-4,283.6-6c38.6-0.8,77.2-1.6,115.8-2.4
				c4.1-66.8,3.4-134.4-2.1-201.2c-3.2-39-14.9-46.5-49.3-47.2c-33.2-0.6-66.6-0.5-100-0.3l-3.6,3.7l4.6,4.7c0.8,0.8,0.8,2,0,2.8
				c-0.7,0.7-1.9,0.7-2.7,0l-4.7-4.7l-1.3,1.3c-0.8,0.7-1.9,0.8-2.7,0c-0.8-0.8-0.8-2,0-2.8l1.3-1.3l-3.6-3.6
				c-2.2,0.1-4.4,0.1-6.7,0.1l-9.5,9.5l1.1,1.1c0.7,0.8,0.7,2,0,2.7c-0.8,0.8-2,0.8-2.8,0l-1.7-1.7c-0.3-0.1-0.7-0.1-1-0.4
				c-0.2-0.3-0.3-0.6-0.4-1l-9.9-9.9c-2.1,0.1-4.2,0.1-6.2,0.2l-9.4,9.3l3.7,3.8c0.8,0.8,0.8,1.9,0,2.7c-0.7,0.8-1.9,0.8-2.7,0
				L238.3,65c-0.6-0.6-0.6-1.6-0.2-2.2c-3.8,0.1-7.6,0.2-11.3,0.4l-9.9,9.8l2.1,2c0.7,0.8,0.7,2,0,2.7c-0.8,0.8-2,0.8-2.8,0
				l-2.2-2.2c-0.6,0.2-1.2,0.5-2-0.3c-0.6-0.5-0.6-1.4-0.3-2.1l-9.2-9.2c-1.8,0.1-3.6,0.1-5.4,0.2l-11.9,11.8l6.4,6.4
				c0.8,0.8,0.8,2,0,2.8c-0.8,0.7-2,0.7-2.7,0l-19.8-19.7c-2.4,0.1-4.9,0.2-7.3,0.3l-9,9l6.8,6.8c0.8,0.8,0.8,2,0,2.8
				c-0.8,0.8-1.9,0.7-2.7,0l-6.9-6.9l-1.9,1.9c-0.8,0.8-2,0.8-2.8,0c-0.7-0.8-0.7-1.9,0-2.7l1.9-1.9l-7.8-7.8
				c-4.6,0.2-9.2,0.5-13.7,0.7c-3.3,0.2-6.6,0.3-9.9,0.5c-3.4,0.2-6.8,0.5-10.2,0.9l9,9l9.7-9.7c0.3-0.4,0.9-0.6,1.3-0.6
				c0.5,0,1,0.2,1.4,0.6c0.8,0.8,0.8,2,0,2.7l-9.7,9.7l8.6,8.6c0.8,0.8,0.8,2,0,2.8c-0.7,0.8-1.9,0.7-2.7,0l-8.6-8.7l-7.9,7.9
				c-0.8,0.8-2,0.8-2.7,0c-0.8-0.7-0.8-1.9,0-2.7l7.9-7.9l-11.2-11.1c-2.8,0.4-5.5,0.9-8.1,1.7c-4.4,1-8.5,2.6-12.3,4.7l3.4,3.4
				l7.5-7.4c0.3-0.4,0.9-0.6,1.3-0.6c0.5,0,1,0.2,1.4,0.6c0.8,0.7,0.8,1.9,0,2.7l-7.4,7.4l13.4,13.5c0.8,0.8,0.8,2,0,2.7
				c-0.7,0.8-1.9,0.8-2.7,0L83.9,84.9l-3.4,3.4c-0.8,0.8-1.9,0.8-2.7,0c-0.8-0.8-0.8-2,0-2.7l3.4-3.5L77.2,78.2z"/>
		</g>
	</g>
</g>
</svg>
