<?xml version="1.0" encoding="utf-8"?>
<!-- Generator: Adobe Illustrator 25.0.1, SVG Export Plug-In . SVG Version: 6.00 Build 0)  -->
<svg version="1.1" id="Layer_1" xmlns="http://www.w3.org/2000/svg" xmlns:xlink="http://www.w3.org/1999/xlink" x="0px" y="0px"
	 viewBox="0 0 512 512" style="enable-background:new 0 0 512 512;" xml:space="preserve">
<style type="text/css">
	.st0{fill:#FFFFFF;}
</style>
<path class="st0" d="M460.3,183.1c-12.7-16.4-31.4-24-52-21.6c-0.2-60.6,0.8-67.9-3.8-79.6c-4.3-10.9-13.4-18.4-23.1-19.1
	c-14.2-1.1-24.8,11-32.5,19.8c-29.8,33.8-66.3,59.1-106.7,75.9c-5-16.2-14.6-17.1-38.4-15.2c-8.8,0.7-2.8,0.6-56.5,0.3
	c-24.8-0.2-43.9,2.3-56.6,23.7c-37.2-2.9-61.9,35.4-48.7,73.9c6.7,19.3,22.1,33.6,43.7,29.9c8.3,13.3,19.8,18.3,35.2,20
	c2.5,18.6,4.5,37.5,6.5,55.9c0.9,8.5,1.8,17,2.8,25.5c0.6,5.1,1.2,10.5,2.2,15.9c-0.5,0.7-0.5,1.7,0.2,2.3c0.1,0.1,0.2,0.1,0.3,0.1
	c4.2,20.4,13,34.4,39.3,47.7c52.2,25.9,83.4-0.8,87.2-24.2c3.4-20.9-11.2-38.5-24.5-52.9c-10.3-11.1-21-22.6-23.7-36.7
	c-1.8-9.7,0.2-19.7,2.3-30.3c0.3-1.4,0.5-2.7,0.8-4.1c4.6-1.6,8.9-3.7,12.6-6.5c2.5-1.9,4.7-4.3,6.7-6.8
	c42.7,14.5,81.1,39.7,111.2,73l2.3,2.5c5.3,5.9,10.8,12,17.9,16.4c4.8,2.9,11,5.1,17.4,5.1c4,0,8-0.9,11.8-3
	c13-7.3,14.6-24.2,14.5-38.2c0-16.2-0.1-32.3-0.1-48.5c0.7,0,1.4,0.1,2.1,0.1c10.1,0,20.1-2.4,28.8-7
	C471.1,261.1,486.5,216.9,460.3,183.1L460.3,183.1z M408.6,272.5c0-4.1,0-8.1,0-12.2l6.1,6.1L408.6,272.5z M408.6,243l4.7,4.7
	l-4.6,4.6C408.6,249.2,408.6,246.1,408.6,243z M410.7,239.6c-0.6-0.6-1.5-0.6-2.2-0.2c0-1.7,0-3.4,0-5.1l4.3-4.3l8.2,8.2
	c0.3,0.3,0.8,0.5,1.2,0.5l-6.2,6.2L410.7,239.6z M408.5,228.8c0-1.1,0-2.1,0-3.2l1.6,1.6L408.5,228.8z M408.5,203.8l4.2,4.2
	l-4.2,4.2C408.5,209.3,408.5,206.6,408.5,203.8z M312.2,127.1l1.6,1.6l-8.1,8.1l-2.8-2.8C306.1,131.8,309.1,129.4,312.2,127.1z
	 M285.8,145.1l2.3,2.3l-7.8,7.8l-4.5-4.5C279.3,148.9,282.6,147.1,285.8,145.1L285.8,145.1z M240.1,211.6l-5-5l4.5-4.5
	C239.9,205.2,240,208.4,240.1,211.6L240.1,211.6z M243,259.1c0.1-0.3,0.2-0.5,0.3-0.8l1.8,1.8l-3.7,3.7
	C242,262.3,242.5,260.7,243,259.1L243,259.1z M245.1,254.7c-0.2-0.2-0.4-0.2-0.7-0.3c0.6-2.5,1.7-8,2.3-13l8.5,8.5l-7.4,7.4
	L245.1,254.7z M247.3,235.2c0.1-0.9,0.2-1.6,0.2-2.5c0.5-7.8,0.4-10.5,0.4-15.5l8.7,8.7L247.3,235.2z M246.3,188.7l2.2,2.2
	c0.1,0.2,0.1,0.4,0.2,0.6c0.2,0.2,0.4,0.1,0.6,0.2l8.7,8.7l-10.3,10.3C247.7,203.5,247.1,196.1,246.3,188.7L246.3,188.7z
	 M245.8,183.3c-0.5-5.7-0.8-10.6-1.7-16.5c0-0.1,0-0.2,0-0.4l13.6,13.6l-7.3,7.3C249.5,186.4,246.9,183.6,245.8,183.3L245.8,183.3z
	 M255.5,172.4l7.3-7.3l4.9,4.9l-7.3,7.3L255.5,172.4z M252.7,169.7l-5-5c3.4-1.4,6.7-3,10-4.5l2.3,2.3L252.7,169.7z M49.4,238.7
	c-10.7-31,6.6-63.7,37.7-63.8c-8,19.1-12.1,57.9-9.1,76c0.8,4.6,2.3,8.9,4.1,13C65.8,265.5,54.5,253.6,49.4,238.7z M128.6,266.2
	l10.5,10.5l-7.5,7.5c-1.7-0.1-3.5-0.2-5.2-0.3c1.5-0.7,1.4-2.2,0.6-3l-6.6-6.6L128.6,266.2z M175.2,282.1l-9.5-9.5l11.6-11.6
	l10.9,10.9l-7.1,7.1c-0.8,0.8-0.8,2,0,2.7c0.8,0.8,2,0.8,2.7,0l7.1-7.1l7.8,7.8c0.8,0.8,2,0.8,2.7,0c0.1-0.1,0.1-0.3,0.2-0.5
	c0.2-0.1,0.4-0.1,0.5-0.2l11.2-11.2l7.6,7.6c0.1,0.1,0.3,0.1,0.4,0.2c-3.3,2.4-7,4.3-11.4,5.5c-13.3,4-27.9,2.6-60,1.2
	c0.1-0.1,0.2,0,0.2-0.1c0.4-0.4,0.5-0.8,0.6-1.3c0.1,0.3,0.1,0.7,0.4,0.9c0.8,0.8,2,0.8,2.7,0l9.2-9.2l9.5,9.5
	C174.2,286.7,177,283.9,175.2,282.1L175.2,282.1z M210.6,267.9l-10.5,10.5l-6.5-6.4l10.5-10.5L210.6,267.9z M206.9,258.7l7.8-7.8
	l6.4,6.5l-7.8,7.8L206.9,258.7z M190.9,269.2L180,258.4l10.5-10.5l10.9,10.9L190.9,269.2z M174.8,294c0.4,0,0.7,0,1.1,0
	c2.1,0.1,4.2,0.1,6.3,0.2l-3.6,3.6L174.8,294L174.8,294L174.8,294z M169.7,293.8l-5.8,5.8l-6.3-6.3
	C161.7,293.4,165.7,293.6,169.7,293.8L169.7,293.8z M151,281.8c-0.4,0.4-0.5,0.8-0.6,1.3c-0.1-0.3-0.1-0.7-0.4-0.9l-5.5-5.5l9.9-9.9
	l5.8,5.8L151,281.8z M147.3,285c-3.5-0.2-7-0.3-10.5-0.5l5-5L147.3,285z M132,308.4c0.8,0.8,2,0.8,2.7,0l6.1-6.1l5.4,5.4l-8.8,8.8
	l-6.3-6.3c-0.7-6.1-1.4-12.3-2.2-18.4c0.5,0,1.1,0.1,1.6,0.1l7.6,7.6l-6.1,6.1C131.2,306.4,131.2,307.6,132,308.4L132,308.4z
	 M133.3,323.4c0.8,0.8,2,0.8,2.7,0l1.4-1.4l6.8,6.8l-8.8,8.8l-1.3-1.3c-0.7-6.6-1.5-13.2-2.2-19.9l2.8,2.8l-1.4,1.3
	C132.6,321.4,132.6,322.6,133.3,323.4L133.3,323.4z M139,380.1c-0.4-2.8-0.7-5.7-1-8.4c-0.1-1.3-0.3-2.6-0.4-3.9l7.7,7.7l-5.4,5.4
	L139,380.1z M136.9,361.6c-0.6-5.1-1.1-10.2-1.7-15.4c-0.1-1-0.2-2-0.3-2.9c0.2-0.1,0.4-0.1,0.5-0.2l10.5,10.5l-8.5,8.5L136.9,361.6
	z M124.2,283.7c0.1,0.1,0.2,0.1,0.3,0.1c-3.5-0.3-7.6-0.8-11.7-1.9l4.8-4.8L124.2,283.7z M229.3,366.8
	c11.6,12.5,25.5,28.6,22.5,46.4l0,0c-2.8,17.5-27.9,42.4-76.1,18.5c-24.5-12.4-32-24.6-35.7-45.1l2.9,2.9c0.8,0.8,2,0.8,2.7,0
	c0.8-0.8,0.8-2,0-2.7l-3.2-3.2l7.2-7.2c0.8-0.8,0.8-2,0-2.7c-0.4-0.4-0.9-0.6-1.4-0.6l-8.2-8.2l15.1-15.1c0.8-0.8,0.8-2,0-2.7
	c-0.8-0.8-2-0.8-2.7,0l-3.8,3.8l-10.5-10.5l8.8-8.8l3.9,3.9c0.8,0.8,2,0.8,2.7,0c0.8-0.8,0.8-2,0-2.7l-3.9-3.9l2.7-2.7
	c0.8-0.8,0.8-2,0-2.7c-0.8-0.8-2-0.8-2.7,0l-2.7,2.7l-6.8-6.8l8.8-8.8l4.5,4.5c0.8,0.8,2,0.8,2.7,0c0.8-0.8,0.8-2,0-2.7l-4.5-4.5
	l0.7-0.7c0.8-0.8,0.8-2,0-2.7c-0.8-0.8-2-0.8-2.7,0L149,305l-5.4-5.4l3.1-3.1c0.8-0.8,0.8-2,0-2.7c-1.8-1.8-3.9,1.2-5.8,3.1
	l-4.6-4.6c5.2,0.2,10.4,0.5,15.7,0.7l9.3,9.3l-3.4,3.4c-0.8,0.8-0.8,2,0,2.7c0.8,0.8,2,0.8,2.7,0l3.4-3.4l2.4,2.4
	c0.8,0.8,2,0.8,2.7,0c0.8-0.8,0.8-2,0-2.7l-2.4-2.4l5.4-5.4l3.7,3.7l-1,1c-0.8,0.8-0.8,2,0,2.7c0.8,0.8,2,0.8,2.7,0l1-1l1.7,1.7
	c0.8,0.8,2,0.8,2.7,0c0.8-0.8,0.8-2,0-2.7l-1.7-1.7l5.4-5.4l1.3,1.3l-1.7,1.7c-0.8,0.8-0.8,2,0,2.7c0.8,0.8,2,0.8,2.7,0l1.7-1.7
	l2.1,2.1c0.8,0.8,2,0.8,2.7,0c0.8-0.8,0.8-2,0-2.7l-2.1-2.1l2.5-2.5c3.5-0.2,6.7-0.6,10-1.2l0,0c0,0.1,0,0.1,0,0.2
	c-2.2,10.9-4.4,22.1-2.3,33.2C206.8,342.6,218.3,354.9,229.3,366.8L229.3,366.8z M224,276.2c-0.1-0.3-0.1-0.6-0.3-0.8l-7.6-7.6
	l7.8-7.8l3.5,3.5c0.8,0.8,2,0.8,2.7,0c0.8-0.8,0.8-2,0-2.7l-3.5-3.5l11.2-11.2c0.8-0.8,0.8-2,0-2.7s-2-0.8-2.7,0l-11.2,11.2
	l-6.5-6.5l3.8-3.8c0.8-0.8,0.8-2,0-2.7c-0.8-0.8-2-0.8-2.7,0l-3.8,3.8l-8.5-8.5c-0.8-0.8-2-0.8-2.7,0c-0.8,0.8-0.8,2,0,2.7l8.5,8.5
	l-7.8,7.8L193.3,245l2.1-2.1c0.8-0.8,0.8-2,0-2.7s-2-0.8-2.7,0l-2.1,2.1l-3.4-3.4c-0.8-0.8-2-0.8-2.7,0c-0.8,0.8-0.8,2,0,2.7
	l3.4,3.4l-10.5,10.5l-5.8-5.8c-0.8-0.8-2-0.8-2.7,0s-0.8,2,0,2.7l5.8,5.8l-11.6,11.6l-5.8-5.8l7.9-7.9c0.8-0.8,0.8-2,0-2.7
	s-2-0.8-2.7,0l-7.9,7.9l-0.7-0.7c-0.8-0.8-2-0.8-2.7,0c-0.8,0.8-0.8,2,0,2.7l0.7,0.7l-9.9,9.9l-10.5-10.5l11.2-11.2
	c0.8-0.8,0.8-2,0-2.7s-2-0.8-2.7,0l-22.1,22.1l-3.4-3.4c-0.8-0.8-2-0.8-2.7,0c-0.8,0.8-0.8,2,0,2.7l3.4,3.4l-6.2,6.2
	c-13.5-5-20.7-17.6-23-31c-2.9-17.1,1.3-58.8,10.5-76.3c10.8-20.3,28.2-21.9,51-21.8c53.7,0.3,48.1,0.4,57.2-0.3
	c24.9-2.1,28.5-0.3,31.4,13.6c1.2,6,3.3,28.3,3.7,34.2c-0.7-0.4-1.7-0.5-2.3,0.2l-4.8,4.8l-2.4-2.4c-0.8-0.8-2-0.8-2.7,0
	s-0.8,2,0,2.7l2.4,2.4l-2.4,2.4c-0.8,0.8-0.8,2,0,2.7s2,0.8,2.7,0l2.4-2.4l7.8,7.8c0,5,0.1,7.3-0.4,15.1l0,0
	c-0.1,1.8-0.3,3.4-0.5,5.1l-8.6-8.6l8.5-8.5c0.8-0.8,0.8-2,0-2.7s-2-0.8-2.7,0L228,226l-1.3-1.3c-0.8-0.8-2-0.8-2.7,0s-0.8,2,0,2.7
	l1.3,1.3L224,230c-0.8,0.8-0.8,2,0,2.7s2,0.8,2.7,0l1.3-1.3l10.8,10.8c-0.1,0.6-0.1,1.2-0.2,1.8C236.8,256.1,232.9,268.1,224,276.2
	L224,276.2z M401.1,333c0.1,11.8-1.1,26-10.6,31.4c-6.8,3.9-15.8,1.4-21.3-2c-6.1-3.8-11-9.2-16.2-15l-2.3-2.6
	c-30.4-33.6-69.2-59.3-112.4-74.4c0.2-0.4,0.3-0.8,0.5-1.1c0.4,0.3,0.8,0.5,1.2,0.5c0.5,0,1-0.2,1.4-0.6l6.4-6.4l5.7,5.7
	c0.8,0.8,2,0.8,2.7,0c0.8-0.8,0.8-2,0-2.7l-5.7-5.8l7.4-7.4l3.5,3.5c0.8,0.8,2,0.8,2.7,0c0.8-0.8,0.8-2,0-2.7l-3.5-3.5l7.3-7.3
	c0.8-0.8,0.8-2,0-2.7c-0.8-0.8-2-0.8-2.7,0l-7.3,7.3l-8.6-8.6l10-10l0.9,0.9c0.8,0.8,2,0.8,2.7,0c0.8-0.8,0.8-2,0-2.7l-0.9-0.9
	l10.2-10.2c0.8-0.8,0.8-2,0-2.7c-0.8-0.8-2-0.8-2.7,0l-10.2,10.2l-9.3-9.3c0.1-0.1,0.3-0.1,0.5-0.2l10.3-10.3l2,2
	c0.8,0.8,2,0.8,2.7,0c0.8-0.8,0.8-2,0-2.7l-2-2l11.1-11.1c0.8-0.8,0.8-2,0-2.7c-0.8-0.8-2-0.8-2.7,0L260.8,198l-7.8-7.8l7.3-7.3l0,0
	c0.8,0.8,2,0.8,2.7,0c0.8-0.8,0.8-2,0-2.7l0,0l7.3-7.3l3.1,3.1c0.8,0.8,2,0.8,2.7,0c0.8-0.8,0.8-2,0-2.7l-4-4
	c-0.1-0.2-0.1-0.4-0.3-0.6c-0.2-0.2-0.4-0.2-0.6-0.3l-5.8-5.8l3.2-3.2c0.8-0.8,0.8-2,0-2.7c-0.8-0.8-2-0.8-2.7,0l-3.2,3.2l-1.2-1.2
	c3.7-1.8,7.3-3.8,10.9-5.7l5.3,5.3l-2.4,2.4c-0.8,0.8-0.8,2,0,2.7c0.8,0.8,2,0.8,2.7,0l2.4-2.4l4.4,4.4c0.8,0.8,2,0.8,2.7,0
	c0.8-0.8,0.8-2,0-2.7l-4.4-4.4l7.8-7.8l5.4,5.4c0.8,0.8,2,0.8,2.7,0c0.8-0.8,0.8-2,0-2.7l-5.4-5.4l6.8-6.8c0.8-0.8,0.8-2,0-2.7
	c-0.8-0.8-2-0.8-2.7,0l-6.8,6.8l-1.7-1.7c3.5-2.2,7.1-4.4,10.5-6.7l3.2,3.2l-1.2,1.2c-0.8,0.8-0.8,2,0,2.7c0.8,0.8,2,0.8,2.7,0
	l1.2-1.2l4.3,4.3c0.8,0.8,2,0.8,2.7,0c0.8-0.8,0.8-2,0-2.7l-4.3-4.3l8.1-8.1l2.7,2.7c0.8,0.8,2,0.8,2.7,0c0.8-0.8,0.8-2,0-2.7l-3-3
	c0.1-0.6,0.1-1.3-0.4-1.8s-1.1-0.5-1.8-0.4l-1.5-1.5c1-0.8,2-1.5,3-2.3c3-2.4,6-4.9,8.9-7.5l3,3l-9.1,9.1c-0.8,0.8-0.8,2,0,2.7
	c0.8,0.8,2,0.8,2.7,0l9.3-9.3c0.8,0.4,1.5,0.6,2.3-0.2c0.6-0.6,0.6-1.5,0.2-2.3l3.5-3.5c0.8-0.8,0.8-2,0-2.7c-0.8-0.8-2-0.8-2.7,0
	l-3.4,3.4l-2.8-2.8c8.6-7.7,16.9-15.9,24.5-24.6c7.1-8,15.8-18,26.1-17.2c7.7,0.6,13.8,7.6,16.5,14.2c3.9,9.9,3.1,15.6,3.3,81.1
	c0.2,38.2,0.2,76.3,0.3,114.5C401,297.9,401.1,315.4,401.1,333L401.1,333L401.1,333z M452.1,257.5l-1.6-1.6l5.1-5.1l0.1,0.1
	c0.3,0.3,0.6,0.3,1,0.4C455.3,253.5,453.8,255.6,452.1,257.5L452.1,257.5z M458.5,248.1l-0.1-0.1l0.5-0.5
	C458.8,247.7,458.6,248,458.5,248.1C458.5,248.2,458.5,248.2,458.5,248.1L458.5,248.1z M461.7,241.3c-0.8-0.5-1.7-0.5-2.4,0.2
	l-3.8,3.8l-3.1-3.1c-0.8-0.8-2-0.8-2.7,0c-0.8,0.8-0.8,2,0,2.7l3.1,3.1l-5.1,5.1l-2-2c-0.8-0.8-2-0.8-2.7,0c-0.8,0.8-0.8,2,0,2.7
	l2,2l-2.3,2.3c-0.8,0.8-0.8,2,0,2.7c0.8,0.8,2,0.8,2.7,0l2.3-2.3l1.8,1.8c-3.7,3.8-7.8,7.1-12.4,9.7l-5.2-5.2c-0.8-0.8-2-0.8-2.7,0
	c-0.8,0.8-0.8,2,0,2.7l4.2,4.2c-7.3,3.3-15.4,5-23.6,4.9l7.6-7.6l2.6,2.6c0.8,0.8,2,0.8,2.7,0c0.8-0.8,0.8-2,0-2.7l-2.6-2.6
	l10.6-10.6l7.4,7.4c0.8,0.8,2,0.8,2.7,0c0.8-0.8,0.8-2,0-2.7l-7.4-7.4l3.6-3.6c0.8-0.8,0.8-2,0-2.7c-0.8-0.8-2-0.8-2.7,0l-3.6,3.6
	l-1.9-1.9c-0.8-0.8-2-0.8-2.7,0c-0.8,0.8-0.8,2,0,2.7l1.9,1.9l-10.6,10.6l-6.5-6.5c-0.7-0.7-1.6-0.6-2.4-0.2c0-0.1,0-0.3,0-0.4
	c0.1,0,0.2,0.1,0.2,0.1c0.5,0,1-0.2,1.4-0.6l5.8-5.8l5.2,5.2c0.8,0.8,2,0.8,2.7,0c0.8-0.8,0.8-2,0-2.7l-5.2-5.2l7.6-7.6
	c0.8-0.8,0.8-2,0-2.7c-0.6-0.6-1.4-0.6-2.1-0.3c0.1-0.6,0-1.2-0.5-1.6l-8.2-8.2l5.3-5.3c0.8-0.8,0.8-2,0-2.7c-0.8-0.8-2-0.8-2.7,0
	l-5.3,5.3l-4.4-4.4c0-1.3,0-2.6,0-3.9c0.1,0,0.2,0.1,0.4,0.1c0.5,0,1-0.2,1.4-0.6l5.2-5.2l6.4,6.3c0.7,0.7,2,0.8,2.7,0
	c0.8-0.8,0.7-2,0-2.7l-6.4-6.3l4.3-4.3c0.8-0.8,0.8-2,0-2.7c-0.8-0.8-2-0.8-2.7,0l-4.3,4.3l-7-6.9c0-0.1,0-0.1,0-0.2l5.7-5.7
	c0.8-0.8,0.8-2,0-2.7c-0.8-0.8-2-0.8-2.7,0l-3,3c0-7.8,0-15.7-0.1-23.5c18.1-2.5,34.7,4.2,45.8,18.6
	C465.5,202.6,469.6,221.8,461.7,241.3L461.7,241.3z"/>
<path class="st0" d="M214.2,169.8H210v-3c0-1.1-0.9-1.9-1.9-1.9c-1.1,0-1.9,0.9-1.9,1.9v3h-10.1v-1.5c0-1.1-0.9-1.9-1.9-1.9
	c-1.1,0-1.9,0.9-1.9,1.9v1.5h-13v-2.7c0-1.1-0.9-1.9-1.9-1.9c-1.1,0-1.9,0.9-1.9,1.9v2.7h-9.8V166c0-1.1-0.9-1.9-1.9-1.9
	c-1.1,0-1.9,0.9-1.9,1.9v3.9h-12.7v-3.6c0-1.1-0.9-1.9-1.9-1.9c-1.1,0-1.9,0.9-1.9,1.9v3.6H133v-4.4c0-1.1-0.9-1.9-1.9-1.9
	c-1.1,0-1.9,0.9-1.9,1.9v4.4h-8.5c-1.1,0-1.9,0.9-1.9,1.9c0,1.1,0.9,1.9,1.9,1.9h8.5v7.3c0,1.1,0.9,1.9,1.9,1.9
	c1.1,0,1.9-0.9,1.9-1.9v-7.3h12.4v4.8c0,1.1,0.9,1.9,1.9,1.9c1.1,0,1.9-0.9,1.9-1.9v-4.8h12.7v5.4c0,1.1,0.9,1.9,1.9,1.9
	c1.1,0,1.9-0.9,1.9-1.9v-5.4h9.8v6.9c0,1.1,0.9,1.9,1.9,1.9c1.1,0,1.9-0.9,1.9-1.9v-6.9h13v6.9c0,1.1,0.9,1.9,1.9,1.9
	c1.1,0,1.9-0.9,1.9-1.9v-6.9h10.1v4.5c0,0.5,0.2,1,0.6,1.4l0.9,0.9c0.4,0.4,0.9,0.6,1.4,0.6s1-0.2,1.4-0.6c0.8-0.8,0.7-2,0-2.7
	l-0.3-0.3v-3.6h4.2c1.1,0,1.9-0.9,1.9-1.9C216.1,170.7,215.3,169.8,214.2,169.8L214.2,169.8z"/>
</svg>
