<?xml version="1.0" encoding="utf-8"?>
<!-- Generator: Adobe Illustrator 25.0.0, SVG Export Plug-In . SVG Version: 6.00 Build 0)  -->
<svg version="1.1" id="Layer_1" xmlns="http://www.w3.org/2000/svg" xmlns:xlink="http://www.w3.org/1999/xlink" x="0px" y="0px"
	 viewBox="0 0 512 512" style="enable-background:new 0 0 512 512;" xml:space="preserve">
<g>
	<path d="M433.6,202.3c13.4-18.7,13.2-47.5-1.2-69.5C406.3,93,332.1,70.2,288.2,91.6c-2.2,1.1-4.4,2.4-6.5,3.8
		C159,2,36.3,109.5,83,196.9c-39.4,5.6-79.1,55.7-74.9,113.2c2.1,28.6,15,55.1,35.3,72.6c16.5,14.2,37.6,21.9,58.4,21.9
		c14.4,0,26.6-3.5,37.9-9.8c35.6,69.1,141.8,83.8,187.7,2.8c6.8,12.6,21.8,20.4,35.7,23.6c48.5,11.3,103-13.1,127.1-56.1
		C519.9,312.2,503,230,433.6,202.3z M71,390.5l2.4-2.4l5.1,5.1C76,392.4,73.5,391.6,71,390.5z M108.9,396.4l-9.3-9.3l7.8-7.8
		l8.4,8.4l-2.1,2.1c-0.8,0.8-0.8,2,0,2.7c0.8,0.8,2,0.8,2.7,0l2.1-2.1l1.3,1.3c0.8,0.8,2,0.8,2.7,0s0.8-2,0-2.7l-1.3-1.3l11-11l4,4
		l-2.1,2.1c-0.8,0.8-0.8,2,0,2.7s2,0.8,2.7,0l2.1-2.1l1.6,1.6C129.9,392.3,120,395.4,108.9,396.4z M141.9,380.7l14.9-14.9l0.4,0.4
		c0.4,0.4,0.9,0.6,1.4,0.6c0.4,0,0.8-0.2,1.1-0.5c-4.3,6.3-9.5,11.8-15.7,16.5L141.9,380.7z M199.1,437.9l1.6-1.6l3.4,3.4
		C202.5,439.1,200.8,438.5,199.1,437.9z M209.8,441.4c0.2-0.7,0.2-1.4-0.3-1.9l-6-6l6.1-6.1l10.5,10.5c-0.1,0.6,0,1.2,0.5,1.6
		c0.6,0.6,1,0.6,1.6,0.5l4.6,4.6C221,444,215.3,442.9,209.8,441.4z M232.6,445.1L232.6,445.1l-7.5-7.5l12.2-12.2l9.6,9.6l-1.3,1.3
		c-0.8,0.8-0.8,2,0,2.7s2,0.8,2.7,0l1.3-1.3l1.1,1.1c0.8,0.8,2,0.8,2.7,0s0.8-2,0-2.7l-1.1-1.1l11.3-11.3l6.6,6.6l-5.4,5.4
		c-0.8,0.8-0.8,2,0,2.7c0.8,0.8,2,0.8,2.7,0l5.4-5.4l2.2,2.2c0.3,0.3,0.8,0.5,1.2,0.5C263.4,442.2,249.3,445.7,232.6,445.1z
		 M266.5,420.9l11.6-11.6l6.6,6.6l-11.6,11.6L266.5,420.9z M483.5,361.3c-22.6,40.3-73.6,62.8-118.6,52.3c-1.8-0.4-3.7-0.9-5.5-1.6
		l-3-3l9.9-9.9l12.4,12.4c0.8,0.8,2,0.8,2.7,0c0.8-0.8,0.8-2,0-2.7L369,396.4l11-11l15.7,15.7l-6.3,6.3c-0.8,0.8-0.8,2,0,2.7
		c0.8,0.8,2,0.8,2.7,0l6.3-6.3l4.5,4.5c0.8,0.8,2,0.8,2.7,0c0.8-0.8,0.8-2,0-2.7l-4.5-4.5l14.6-14.6l5.5,5.5l-6.5,6.5
		c-0.8,0.8-0.8,2,0,2.7c0.8,0.8,2,0.8,2.7,0l6.7-6.7c0.7,0.4,1.3,0.6,2.2-0.2c0.6-0.6,0.6-1.5,0.2-2.2l19.4-19.4l7.8,7.8l-10.4,10.4
		c-0.8,0.8-0.8,2,0,2.7c0.8,0.8,2,0.8,2.7,0l11-10.6c0.4,0,0.9-0.2,1.2-0.5c0.3-0.3,0.5-0.8,0.5-1.2l27.1-27.1c0.8-0.8,0.8-2,0-2.7
		c-0.8-0.8-2-0.8-2.7,0l-16.1,16c0-0.5-0.2-1-0.6-1.4l-6.8-6.8l3.6-3.6c0.8-0.8,0.8-2,0-2.7c-1.9-1.9-4.3,1.6-6.3,3.6l-18.3-18.3
		c-1.8-1.8-4.6,0.9-2.7,2.7l18.3,18.3l-8.1,8.1l-18-18c-0.8-0.8-2-0.8-2.7,0c-0.8,0.8-0.8,2,0,2.7l18,18L424,389.4l-5.5-5.5
		l17.3-17.3c1.8-1.8-0.9-4.6-2.7-2.7l-17.3,17.3L400,365.4l2.2-2.2c0.8-0.8,0.8-2,0-2.7c-0.8-0.8-2-0.8-2.7,0l-2.2,2.2l-0.4-0.4
		c-0.8-0.8-2-0.8-2.7,0s-0.8,2,0,2.7l0.4,0.4l-28.4,28.3l-7.4-7.4c-0.8-0.8-2-0.8-2.7,0c-0.8,0.8-0.8,2,0,2.7l7.4,7.4l-9.9,9.9
		l-4.8-4.8c-0.8-0.8-2-0.8-2.7,0s-0.8,2,0,2.7l3.7,3.7c-8.4-4.4-15.5-11-17.6-19.6c6.5-14.6,10-30.5,9.3-46.6
		c-0.1-2.1-1.9-3.7-4-3.7c-2.1,0.1-3.8,1.9-3.7,4c0.6,13.9-2.1,27.6-7.4,40.3c-1.7,0.6-2.8,2.2-2.6,4c0,0.4,0.2,0.7,0.3,1.1
		c-9.6,20.1-25.8,37.2-45.7,47.4c0.5-0.8,0.5-1.8-0.1-2.4l-2.2-2.2l11.6-11.6l2.8,2.8c0.8,0.8,2,0.8,2.7,0c0.8-0.8,0.8-2,0-2.7
		l-2.8-2.8l12.1-12.1c0,0,0-0.1,0.1-0.1l1.3,1.3c0.8,0.8,2,0.8,2.7,0s0.8-2,0-2.7l-13.1-13.1l0,0c0.5,0,1-0.2,1.4-0.6l13.9-13.9
		l8.5,8.5c0.8,0.8,2,0.8,2.7,0c0.8-0.8,0.8-2,0-2.7l-8.5-8.5l7.5-7.5c0.8-0.8,0.8-2,0-2.7c-0.8-0.8-2-0.8-2.7,0l-7.5,7.5l-3.3-3.3
		c-0.8-0.8-2-0.8-2.7,0c-0.8,0.8-0.8,2,0,2.7l3.3,3.3l-13.9,13.9c-0.6,0.6-0.6,1.4-0.3,2.1c-0.7-0.3-1.5-0.3-2.1,0.3
		c-0.8,0.8-0.8,2,0,2.7l10.1,10.1c0,0-0.1,0-0.1,0.1l-12.1,12.1l-6.7-6.6l3.6-3.6c0.8-0.8,0.8-2,0-2.7c-0.8-0.8-2-0.8-2.7,0
		l-3.7,3.7c-0.8-0.5-1.8-0.6-2.5,0.1s-0.7,1.7-0.1,2.5l-11.7,11.7l-7.1-7.1c-0.8-0.8-2-0.8-2.7,0c-0.8,0.8-0.8,2,0,2.7l7.1,7.1
		l-11.3,11.3l-9.6-9.6l16.7-16.7c0.8-0.8,0.8-2,0-2.7s-2-0.8-2.7,0l-16.9,16.9c-0.7-0.3-1.5-0.3-2,0.3c-0.6,0.6-0.6,1.3-0.3,2
		L222.7,435l-10.2-10.2l14.3-14.3c0.8-0.8,0.8-2,0-2.7s-2-0.8-2.7,0l-15.7,15.7l0,0l0,0l-7.4,7.4l-4.5-4.5c-0.8-0.8-2-0.8-2.7,0
		s-0.8,2,0,2.7l4.5,4.5l-2.7,2.7c-20.8-9.2-38.7-25.1-49-45.6c15.7-10.9,27.2-27.2,30.8-45.5c0.4-2.1-0.9-4.1-3-4.6
		c-2.1-0.4-4.1,0.9-4.6,3c-1.6,7.8-4.9,15.2-9.3,21.9c0.2-0.7,0.2-1.4-0.3-2l-0.4-0.4l2.2-2.2c0.8-0.8,0.8-2,0-2.7
		c-0.8-0.8-2-0.8-2.7,0l-2.2,2.2l-9.2-9.2c-0.8-0.8-2-0.8-2.7,0c-0.8,0.8-0.8,2,0,2.7l9.2,9.2L139.5,378l-4-4l10.3-10.3
		c0.8-0.8,0.8-2,0-2.7c-0.8-0.8-2-0.8-2.7,0l-10.3,10.3l-6-6c-0.8-0.8-2-0.8-2.7,0s-0.8,2,0,2.7l6,6l-11,11l-8.4-8.4l12.8-12.7
		c0.8-0.8,0.8-2,0-2.7c-0.8-0.8-2-0.8-2.7,0l-13.1,13.1c-0.6-0.1-1.2,0-1.6,0.5c-0.4,0.4-0.5,1-0.5,1.6l-8.1,8.1l-6.8-6.8
		c-0.8-0.8-2-0.8-2.7,0c-0.8,0.8-0.8,2,0,2.7l6.8,6.8l-2.7,2.7c-0.8,0.8-0.8,2,0,2.7c0.8,0.8,2,0.8,2.7,0l2.7-2.7l6.8,6.8
		c-7.9,0.2-15.9-0.8-23.6-3c0.4-0.1,0.8-0.2,1.2-0.5c0.8-0.8,0.8-2,0-2.7l-5.1-5.1l22-22c0.8-0.8,0.8-2,0-2.7s-2-0.8-2.7,0l-22,22
		l-5.1-5.1c-0.8-0.8-2-0.8-2.7,0c-0.8,0.8-0.8,2,0,2.7l5.1,5.1l-3.5,3.5c-6.7-3.1-13-7.1-18.7-12c-18.8-16.2-30.7-40.7-32.7-67.3
		c-5.4-74.3,64.9-129.3,102.8-95.7l0,0c3.8,3.4,9-2.4,5.1-5.8c-8.5-7.6-20.3-11.6-32.6-11.6c-0.1-0.5-0.2-1-0.5-1.5
		C45.6,116,158.2,13.5,275,100.2c-17.8,15.1-29,40.3-20.3,63.1c0.8,2,3,3,5,2.3c2-0.8,3-3,2.3-5c-9.1-24.1,7.9-51.5,29.6-62
		c40.4-19.7,110.4,2,134.4,38.6c13.2,20.1,13,46.5,0.1,62.5c-5.3-1.7-10.7-3-16.1-4c0,0.3-0.1,0.6-0.2,1c-0.6,2.2-1,4.3-1.4,6.5
		c21.8,3.9,42.5,14,58,29.7C498.7,265.8,506.1,321,483.5,361.3z M382.7,382.7l14.6-14.6l15.7,15.7l-14.6,14.6L382.7,382.7z
		 M448.7,370.1l8.1-8.1l6.8,6.8c0.4,0.4,0.9,0.6,1.4,0.6l-8.5,8.5L448.7,370.1z"/>
	<path d="M407.8,202.6c1.2-2.2,2.4-4.5,3.4-6.8c-5.1-0.9-10.2-1.5-15.4-1.6c-2.1-0.1-3.8,1.6-3.9,3.7c-0.1,2.1,1.6,3.8,3.7,3.9
		c4,0.1,8.1,0.5,12,1.1C407.7,202.8,407.7,202.7,407.8,202.6z"/>
	<path d="M484.6,297.1l-10.1,10.1c-0.8,0.8-0.8,2,0,2.7c0.8,0.8,2,0.8,2.7,0l10.1-10.1l1,1c0.8,0.8,2,0.8,2.7,0c0.8-0.8,0.8-2,0-2.7
		l-1-1l2.5-2.5c0.8-0.8,0.8-2,0-2.7c-0.8-0.8-2-0.8-2.7,0l-2.5,2.5L474.9,282c-0.8-0.8-2-0.8-2.7,0c-0.8,0.8-0.8,2,0,2.7
		L484.6,297.1z"/>
	<path d="M450.3,340.4l5.1-5.1l7.6,7.6c0.1,0.3,0.1,0.7,0.4,1s0.6,0.3,1,0.4L475,355c0.8,0.8,2,0.8,2.7,0c0.8-0.8,0.8-2,0-2.7
		l-10-10l13.1-13.1l3.5,3.5c0.8,0.8,2,0.8,2.7,0c0.8-0.8,0.8-2,0-2.7l-3.5-3.5l2.6-2.6c0.8-0.8,0.8-2,0-2.7c-0.8-0.8-2-0.8-2.7,0
		l-2.6,2.6l-8.1-8.1c-0.1-0.1,0-0.2-0.1-0.2c-0.1-0.1-0.2,0-0.2-0.1l-1.6-1.6c-0.8-0.8-2-0.8-2.7,0c-0.8,0.8-0.8,2,0,2.7l0.4,0.4
		l-20.9,20.9c-0.8,0.8-0.8,2,0,2.7C448.3,341.2,449.5,341.2,450.3,340.4L450.3,340.4z M478.1,326.4L465,339.5l-6.9-6.9l13.1-13.1
		L478.1,326.4z"/>
	<path d="M313,351.9l-5.1,5.1c-0.8,0.8-0.8,2,0,2.7c0.8,0.8,2,0.8,2.7,0l5.1-5.1l8,8c0.8,0.8,2,0.8,2.7,0c0.8-0.8,0.8-2,0-2.7l-8-8
		l7.7-7.7c0.8-0.8,0.8-2,0-2.7c-0.8-0.8-2-0.8-2.7,0l-7.7,7.7l-1.6-1.6c-0.8-0.8-2-0.8-2.7,0c-0.8,0.8-0.8,2,0,2.7L313,351.9z"/>
	<g>
		<path d="M327.7,225.3c-2.1,0.7-3.2,2.9-2.5,5c15.2,47.2-24.9,94.4-73.9,87c-2.2-0.4-4.2,1.2-4.5,3.3c-0.3,2.2,1.2,4.2,3.3,4.5
			c4.9,0.7,9.8,0.9,14.7,0.7c20.4-1.1,40.4-10.7,53.7-26.3c16.4-19.3,22-47.4,14.2-71.6C332,225.8,329.7,224.6,327.7,225.3
			L327.7,225.3z"/>
		<path d="M311.4,236.4l14.7-19.8c8.2,6.7,15.3,15,20.7,24.2c0.8,1.3,2.2,2,3.6,1.9c0.6,0,1.2-0.2,1.8-0.5c1.9-1.1,2.5-3.5,1.4-5.4
			c-6.5-11.2-15.5-21.2-25.9-29c-1.7-1.3-4.2-0.9-5.5,0.8l-17.1,23c-1.3,1.7-0.9,4.2,0.8,5.5C307.7,238.5,310.1,238.2,311.4,236.4
			L311.4,236.4z"/>
		<path d="M199.9,291c2.1-0.7,3.2-3,2.4-5c-17.4-50.4,28.9-101.3,81.3-87.4c2.1,0.5,4.3-0.7,4.8-2.8c0.6-2.1-0.7-4.3-2.8-4.8
			c-26.2-6.9-56.2,1.7-74.7,21.6C181.4,244.3,190.7,294.2,199.9,291L199.9,291z"/>
		<path d="M181,299.8l19.4,3.4c6.4,1.1,9.9-1.4,10.7-7.9l2.8-22.5c0.3-2.2-1.3-4.1-3.4-4.4c-2.1-0.3-4.1,1.3-4.4,3.4
			c0,0.2-3,23.6-2.8,23.7c-0.7,0-20.2-3.5-20.9-3.6c-2.1-0.4-4.2,1-4.6,3.2C177.4,297.3,178.9,299.4,181,299.8z"/>
	</g>
	<path d="M412.7,203.9c0.2-0.8,0.4-1.6,0.4-2.4c-4.1-0.9-8.2-1.7-12.1-2.3c-1.6-0.2-2.4,0.2-1.8,1.1c0.6,0.8,2.4,1.7,4,2
		C406.2,202.7,409.4,203.3,412.7,203.9C412.6,203.9,412.6,203.9,412.7,203.9z"/>
</g>
</svg>
