<?xml version="1.0" encoding="utf-8"?>
<!-- Generator: Adobe Illustrator 25.0.0, SVG Export Plug-In . SVG Version: 6.00 Build 0)  -->
<svg version="1.1" id="Layer_1" xmlns:svgjs="http://svgjs.com/svgjs"
	 xmlns="http://www.w3.org/2000/svg" xmlns:xlink="http://www.w3.org/1999/xlink" x="0px" y="0px" viewBox="0 0 512 512"
	 style="enable-background:new 0 0 512 512;" xml:space="preserve">
<g>
	<g>
		<g>
			<path d="M95.1,312.8l0.5,53.1c0.7,45.1,14.7,58.8,59.9,58.4l33.6-0.4c12.5,14.7,23.5,27.8,35.5,42c28.4,33.5,48.4,36.6,83.4,6.7
				c20-17,39.9-34,59.9-50.9c36.1-0.5,46.3,0.1,47.1-40.1c21.8-18.5,43.6-37.1,65.4-55.6c6.7-5.6,13.3-11.9,14.7-20.6c0,0,0,0,0,0
				c1.5-10.5-5.1-19.6-11.4-27.2c-22.2-27-44.3-54.3-66.4-81.7c0.5-32.6,1-70.7,1.1-108.8c0.7-1.6,0.4-3.3-1.1-4.5
				c-16.8-18.7-39.5-42.8-66.3-63c-0.4-0.3-0.9-0.3-1.3-0.4c-1.3-0.9-2.4-0.9-3.8-0.3c-9.9,0.2-181.6,4.1-211,3.5
				C102.2,22,92.3,36.1,92.6,71l0.6,57.3c-7.1,6.1-50.2,42.6-57.5,48.4c-21.7,17.4-27.9,33.1-1.7,64
				C54.5,264.9,74.5,288.6,95.1,312.8L95.1,312.8z M93.5,157.1l-2.2-2.2l2.2-2.2L93.5,157.1z M93.6,162.6l0.1,13.5l0,0l-11.9-11.9
				l6.7-6.7L93.6,162.6z M93.8,181.7l0.1,11.3l-5.8-5.8L93.8,181.7L93.8,181.7z M94.1,211.3c-0.1,0-0.1,0-0.2,0.1l-2.4,2.4l-5.8-5.8
				l8.3-8.3L94.1,211.3z M94.2,222.1l0.1,10.9l-2.8,2.8l-8.3-8.3l8.3-8.3L94.2,222.1z M94.3,238.5v0.3l-0.2-0.2L94.3,238.5z
				 M94.6,261l-1.5-1.5l1.5-1.5L94.6,261z M94.8,281.3l-1.4-1.4l1.4-1.4L94.8,281.3z M339.2,435.8l-4.9-4.9l8.6-8.6
				c0.1-0.1,0.1-0.2,0.1-0.3c4.2,0,8.4-0.1,12.6-0.2C350.2,426.4,344.7,431.1,339.2,435.8L339.2,435.8z M319.1,440.6l-10-10l8.4-8.4
				c2.2,0,4.4-0.1,6.5-0.1c-0.3,0.1-0.6,0.1-0.8,0.3c-0.8,0.8-0.8,2,0,2.7l5.6,5.6L319.1,440.6z M244.9,427.1l4-4
				c5.1-0.1,10.1-0.1,15.2-0.2l2.2,2.2l-11.7,11.7L244.9,427.1z M228.1,436.3l-8.6-8.6l3.9-3.9c0.1-0.1,0.1-0.2,0.1-0.3
				c4-0.1,8.1-0.1,12.1-0.1l3.9,3.9L228.5,438C228.6,437.4,228.6,436.8,228.1,436.3L228.1,436.3z M218.1,423.5l-1.4,1.4l-1.4-1.4
				C216.2,423.5,217.2,423.5,218.1,423.5z M240.9,423.2c0.8,0,1.6,0,2.4,0l-1.2,1.2L240.9,423.2z M274.1,422.8
				c5.9-0.1,11.8-0.1,17.7-0.2l-11.3,11.3l-8.7-8.7L274.1,422.8z M312,422.3l-5.6,5.6l-5.4-5.4C304.7,422.4,308.3,422.4,312,422.3
				L312,422.3z M326,422.5c-0.2-0.2-0.6-0.3-0.9-0.4c4.2,0,8.4-0.1,12.6-0.2l-6.1,6.1L326,422.5z M199.1,423.7
				c3.6,0,7.3-0.1,10.9-0.1c0,0.1,0,0.1,0.1,0.2l3.9,3.9l-5.6,5.6c-0.3,0.3-0.3,0.6-0.4,0.9C205,430.7,202.1,427.2,199.1,423.7z
				 M302.9,466.7c-31.6,27-46.6,24.6-72.4-5.8c-7-8.2-13.5-15.9-20.6-24.3c0.4,0,0.8-0.2,1.2-0.5l5.6-5.6l8.6,8.6
				c0.8,0.8,1.5,0.6,2.3,0.2c-0.3,0.7-0.4,1.6,0.2,2.2c0.8,0.8,2,0.8,2.7,0l11.5-11.5l17.4,17.4c0.8,0.8,2,0.8,2.7,0
				c0.8-0.8,0.8-2,0-2.7l-4.9-4.9l11.7-11.7l8.7,8.7l-6,6c-0.8,0.8-0.8,2,0,2.7c0.8,0.8,2,0.8,2.7,0l6-6l8.9,8.9
				c0.8,0.8,2,0.8,2.7,0c0.8-0.8,0.8-2,0-2.7l-8.9-8.9l13.2-13.2l7.2,7.2l-8.8,8.8c-0.8,0.8-0.8,2,0,2.7c0.8,0.8,2,0.8,2.7,0
				l8.8-8.8l10,10l-2.9,2.9c-0.8,0.8-0.8,2,0,2.7c0.8,0.8,2,0.8,2.7,0l3-3c0.8,0.4,1.5,0.6,2.3-0.2c0.6-0.6,0.6-1.5,0.2-2.3l9.9-9.9
				l4.7,4.7C325.2,447.7,314,457.2,302.9,466.7L302.9,466.7z M409.2,135.4c-0.1-0.2-0.1-0.4-0.2-0.6l-6.9-6.9l8.4-8.4
				c0,5-0.1,9.9-0.1,14.8L409.2,135.4z M390.9,100.7l3.8,3.8l-6.3,6.3l-6-6l10.2-10.2c0,0,0-0.1,0-0.1c5-0.7,10-1.6,14.8-2.7l-10,10
				l-3.8-3.8c-0.8-0.8-2-0.8-2.7,0C390.2,98.7,390.2,99.9,390.9,100.7z M379.7,102l-5.6-5.6c0,0,0,0,0,0c4.2-0.3,8.3-0.7,12.4-1.1
				L379.7,102z M430.6,260.8l-11,11l-3.4-3.4c0.1-6.8,0.2-13.6,0.3-20.3c0.1,0,0.2,0.1,0.3,0.1c0.3,0,0.6-0.2,0.9-0.4L430.6,260.8z
				 M430.4,358.3l-5-5l17.6-17.6l6.4,6.4C443,347.5,436.7,352.9,430.4,358.3L430.4,358.3z M415.1,363.6l7.6-7.6l4.7,4.7
				c-4.1,3.5-8.2,7-12.4,10.5C415,368.8,415.1,366.2,415.1,363.6z M422.6,350.6l-3.8-3.8c-0.8-0.8-2-0.8-2.7,0c-0.8,0.8-0.8,2,0,2.7
				l3.8,3.8l-4.8,4.8c0-0.9,0-1.8,0-2.7c0-4.3,0.1-8.7,0.1-13c0-0.6,0-1.1,0-1.7l7.7-7.7l8.6,8.6L422.6,350.6z M415.3,335.2
				c0-3.3,0.1-6.5,0.1-9.8l4.8,4.8L415.3,335.2z M415.5,320c0-3.1,0.1-6.1,0.1-9.2l4.7-4.7l12.1,12.1l-9.3,9.3L415.5,320z
				 M415.6,305.3c0-1.2,0-2.4,0-3.7l1.8,1.8L415.6,305.3z M415.8,296.2c0.1-3.9,0.1-7.8,0.2-11.7c0-1.2,0-2.5,0.1-3.7l3.6-3.6
				l12.1,12.1l-11.4,11.4L415.8,296.2z M416.1,275.3c0-0.5,0-1,0-1.5l0.7,0.7L416.1,275.3z M416.8,222.3l1.3,1.3l-1.4,1.4
				L416.8,222.3z M475.3,320c-7.6,6.5-15.3,13-23,19.6l-6.6-6.6l0.5-0.5c0.8-0.8,0.8-2,0-2.7c-0.8-0.8-2-0.8-2.7,0l-0.5,0.5
				l-2.8-2.8c-0.8-0.8-2-0.8-2.7,0c-0.8,0.8-0.8,2,0,2.7l2.8,2.8l-5.9,5.9l-8.6-8.6l9.7-9.7c0,0,0.1,0,0.1,0c0.5,0,1-0.2,1.4-0.6
				c0.4-0.4,0.6-0.9,0.5-1.5l3.5-3.5c0.8-0.8,0.8-2,0-2.7c-0.8-0.8-2-0.8-2.7,0l-3.1,3.1l-12-12l11.4-11.4l7.7,7.7
				c0.8,0.8,2,0.8,2.7,0c0.8-0.8,0.8-2,0-2.7l-22.5-22.5l11-11l1.3,1.3c0.8,0.8,2,0.8,2.7,0c0.8-0.8,0.8-2,0-2.7l-16.8-16.8l8.3-8.3
				c1.8-1.8-0.9-4.6-2.7-2.7l-8.3,8.3l-1.3-1.3l0.2-10.7l4.2-4.2l7,7c0.8,0.8,2,0.8,2.7,0c0.8-0.8,0.8-2,0-2.7l-7-7l0.4-0.4
				c0.8-0.8,0.8-2,0-2.7c-0.8-0.8-2-0.8-2.7,0l-0.4,0.4l-2.1-2.1c-0.5-0.5-1.3-0.6-1.9-0.3l0.1-9.9c20.1,24.9,40.3,49.8,60.5,74.5
				C492.2,300.7,490,307.7,475.3,320L475.3,320z M407.4,83.7c-19.2,4.3-39.9,6.1-61.9,5l5.2-59C373,47.3,392.3,67.1,407.4,83.7z
				 M353.4,98.1c0.4-0.4,0.6-0.9,0.6-1.4c7.2,0.1,0.1,0.3,13-0.1l-7.7,7.7l-6-6L353.4,98.1z M134.7,30.6
				c28.8,0.6,183.2-2.9,208.5-3.5l-5.8,64.9c-0.2,2.2,1.4,4.1,3.6,4.2c1.9,0.1,3.7,0.1,5.6,0.2c0.1,0.4,0.2,0.8,0.5,1.1l0.7,0.7
				l-5.5,5.5c-0.8,0.8-0.8,2,0,2.7c0.8,0.8,2,0.8,2.7,0l5.5-5.5l6,6l-3.9,3.9c-0.8,0.8-0.8,2,0,2.7c0.8,0.8,2,0.8,2.7,0l3.9-3.9
				l6.7,6.7c0.8,0.8,2,0.8,2.7,0c0.8-0.8,0.8-2,0-2.7L362,107l7.9-7.9c0.7-0.7,0.7-1.8,0.1-2.6c0.4,0,0.9,0,1.3,0
				c-0.7,0.8-0.7,1.9,0,2.6l5.6,5.6l-7.5,7.5c-0.8,0.8-0.8,2,0,2.7c0.8,0.8,2,0.8,2.7,0l7.5-7.5l6,6l-1.8,1.8c-0.8,0.8-0.8,2,0,2.7
				c0.8,0.8,2,0.8,2.7,0l1.8-1.8l1.6,1.6c0.8,0.8,2,0.8,2.7,0c0.8-0.8,0.8-2,0-2.7l-1.6-1.6l6.3-6.3l7.8,7.8c0.8,0.8,2,0.8,2.7,0
				c0.8-0.8,0.8-2,0-2.7l-7.8-7.8l10.4-10.4c0,6.7-0.1,13.3-0.1,19.9l-11.2,11.2l-1.5-1.5c-0.8-0.8-2-0.8-2.7,0
				c-0.8,0.8-0.8,2,0,2.7l1.5,1.5l-0.5,0.5c-0.8,0.8-0.8,2,0,2.7c0.8,0.8,2,0.8,2.7,0l0.5-0.5l6.9,6.9c0.2,0.2,0.4,0.1,0.6,0.2
				l-9.9,9.9c-0.8,0.8-0.8,2,0,2.7c0.8,0.8,2,0.8,2.7,0l10.6-10.6c-0.1,5-0.1,9.9-0.2,14.8l-4.6,4.6l-9.2-9.2c-0.8-0.8-2-0.8-2.7,0
				c-0.8,0.8-0.8,2,0,2.7l9.2,9.2l-3.8,3.8c-0.8,0.8-0.8,2,0,2.7c0.8,0.8,2,0.8,2.7,0l3.8-3.8l0.1,0.1c0.8,0.8,2,0.8,2.7,0
				c0.8-0.8,0.8-2,0-2.7l-0.1-0.1l1.7-1.7c-0.2,13-0.3,25.6-0.5,37.5l-0.7,45.7c-0.7,44.7-1.4,91-1.6,136.3c0,0-0.1,1.8-0.1,6.9
				c0,29.8-11.4,26.8-40.8,27.2c-58.6,0.7-117.1,1.4-175.6,2.2l-35.4,0.5c-41.4,0.4-51.4-10.5-52-50.7c0-0.5-3-294.4-3-295
				C100,34.1,112.2,30,134.7,30.6L134.7,30.6z M93.3,138.5l0.1,8.7l-4.9,4.9l-5.2-5.2C86.3,144.6,90.3,141.1,93.3,138.5z
				 M40.6,182.8c13.3-10.6,23.6-20.1,39.8-33.3l5.4,5.4l-6.7,6.7c-0.8-0.7-2-0.7-2.7,0c-0.7,0.7-0.7,1.9,0,2.7l-2.5,2.5
				c-0.8,0.8-0.8,2,0,2.7s2,0.8,2.7,0l2.5-2.5l11.9,11.9l-5.6,5.6l-2.2-2.2c-0.8-0.8-2-0.8-2.7,0c-0.8,0.8-0.8,2,0,2.7l2.2,2.2
				l-3.4,3.4c-0.8,0.8-0.8,2,0,2.7s2,0.8,2.7,0l3.4-3.4l6.5,6.5l-13.9,13.9c-0.8,0.8-0.8,2,0,2.7s2,0.8,2.7,0l2.2-2.2l5.8,5.8
				l-11.9,11.9c-0.8,0.8-0.8,2,0,2.7s2,0.8,2.7,0l0.9-0.9l8.3,8.3l-9.4,9.4c-0.8,0.8-0.8,2,0,2.7s2,0.8,2.7,0l9.4-9.4l0.5,0.5
				c0.7,0.7,1.5,0.8,2.4,0.1l0.1,10.6l-4.2,4.2l-4.9-4.9c-0.8-0.8-2-0.8-2.7,0s-0.8,2,0,2.7l4.9,4.9l-5.2,5.2c-0.8,0.8-0.8,2,0,2.7
				c0.8,0.8,2,0.8,2.7,0l5.2-5.2l4.3,4.3l0.1,6.5l-4.1,4.1l-5.7-5.7c-0.8-0.8-2-0.8-2.7,0c-0.8,0.8-0.8,2,0,2.7l5.7,5.6l-0.3,0.2
				c-0.8,0.8-0.8,2,0,2.7c0.8,0.8,2,0.8,2.7,0l0.2-0.2l4.2,4.2l0.1,13.9c-17.3-20.4-38.9-46-55-65C15.2,206.5,24.1,196,40.6,182.8z"
				/>
		</g>
		<g>
			<path d="M138.2,71.4l132.9,3h0c1.1,0,1.9-0.8,1.9-1.9c0-1.1-0.8-2-1.9-2l-132.9-3c0,0,0,0,0,0c-1.1,0-1.9,0.8-1.9,1.9
				C136.3,70.5,137.1,71.4,138.2,71.4z"/>
		</g>
		<g>
			<path d="M134.4,126.1L134.4,126.1l220.5-4c1.1,0,1.9-0.9,1.9-2s-0.7-1.8-2-1.9l-220.5,4c-1.1,0-1.9,0.9-1.9,2
				C132.5,125.2,133.4,126.1,134.4,126.1L134.4,126.1z"/>
		</g>
		<g>
			<path d="M355.9,148.3c0-1.1-0.9-1.9-2-1.9l-216.7,3.9c-1.1,0-1.9,0.9-1.9,2c0,1.1,0.9,1.9,1.9,1.9h0l216.7-3.9
				C355.1,150.3,355.9,149.4,355.9,148.3L355.9,148.3z"/>
		</g>
		<g>
			<path d="M133.5,181.9L133.5,181.9L196,181c1.1,0,1.9-0.9,1.9-2c0-1.1-0.9-1.9-1.9-1.9c0,0,0,0,0,0l-62.6,0.9
				c-1.1,0-1.9,0.9-1.9,2C131.5,181.1,132.4,181.9,133.5,181.9z"/>
		</g>
		<g>
			<path d="M354.9,210.6l-220.5,3.9c-1.1,0-1.9,0.9-1.9,2c0,1.1,0.9,1.9,1.9,1.9h0l220.5-3.9c1.1,0,1.9-0.9,1.9-2
				C356.8,211.4,356.1,210.5,354.9,210.6L354.9,210.6z"/>
		</g>
		<g>
			<path d="M355.9,240.6c0-1.1-0.9-2-2-1.9l-216.7,3.9c-1.1,0-1.9,0.9-1.9,2c0,1.1,0.9,1.9,1.9,1.9h0l216.7-3.9
				C355.1,242.6,355.9,241.7,355.9,240.6L355.9,240.6z"/>
		</g>
		<g>
			<path d="M133.5,274.2L133.5,274.2l62.6-0.9c1.1,0,1.9-0.9,1.9-2s-1-2.1-2-1.9l-62.6,0.9c-1.1,0-1.9,0.9-1.9,2
				C131.5,273.4,132.4,274.2,133.5,274.2z"/>
		</g>
		<g>
			<path d="M354.9,306.6l-220.5,4c-1.1,0-1.9,0.9-1.9,2c0,1.1,0.9,1.9,1.9,1.9h0l220.5-4c1.1,0,1.9-0.9,1.9-2
				S356.1,306.7,354.9,306.6L354.9,306.6z"/>
		</g>
		<g>
			<path d="M353.9,334.7l-216.7,3.9c-1.1,0-1.9,0.9-1.9,2c0,1.1,0.9,1.9,1.9,1.9h0l216.7-3.9c1.1,0,1.9-0.9,1.9-2
				C355.9,335.6,355.1,334.8,353.9,334.7L353.9,334.7z"/>
		</g>
		<g>
			<path d="M133.5,370.2L133.5,370.2l62.6-0.9c1.1,0,1.9-0.9,1.9-2s-1-2-2-1.9l-62.6,0.9c-1.1,0-1.9,0.9-1.9,2
				C131.5,369.4,132.4,370.2,133.5,370.2z"/>
		</g>
		<g>
			<path d="M324.6,357.9l-14.2,14.2l-6.6-6.6c-0.8-0.8-2-0.8-2.7,0c-0.8,0.8-0.8,2,0,2.7l6.6,6.6l-9.9,9.9c-0.8,0.8-0.8,2,0,2.7
				c0.8,0.8,2,0.8,2.7,0l9.9-9.9l2.7,2.7c0.8,0.8,2,0.8,2.7,0c0.8-0.8,0.8-2,0-2.7l-2.7-2.7l14.2-14.2c0.8-0.8,0.8-2,0-2.7
				C326.6,357.2,325.4,357.2,324.6,357.9z"/>
		</g>
	</g>
</g>
</svg>
