<?xml version="1.0" encoding="utf-8"?>
<!-- Generator: Adobe Illustrator 25.0.0, SVG Export Plug-In . SVG Version: 6.00 Build 0)  -->
<svg version="1.1" id="Layer_1" xmlns:svgjs="http://svgjs.com/svgjs"
	 xmlns="http://www.w3.org/2000/svg" xmlns:xlink="http://www.w3.org/1999/xlink" x="0px" y="0px" viewBox="0 0 512 512"
	 style="enable-background:new 0 0 512 512;" xml:space="preserve">
<style type="text/css">
	.st0{fill:#FFFFFF;}
</style>
<g>
	<path class="st0" d="M167.9,207.4c3.5,6.6,7.2,13.1,11.4,19.4c4.2,6.2,8.7,12.2,13.5,17.9c4.9,5.8,10.2,11.2,15.9,16.1
		c5.8,5,12.2,9.3,19,12.8c7,3.6,14.5,6,22.3,7c8,1,16,0.5,23.8-1.5c15.5-4,29.1-13,40-23.9c10.7-10.9,19.7-23.5,26.5-37.2
		c6.8-13.5,12.1-27.6,15.9-42.2c3.9-14.4,6-29.3,6.3-44.2c0.1-15-2.9-29.9-9-43.7c-6.3-14-15.7-26.4-27.5-36.2
		c-1.5-1.2-3.1-2.3-4.6-3.5c-1.5-1.1-3.1-2.4-4.8-3.4l-5-3c-1.6-1-3.4-1.9-5.1-2.7l-5.3-2.5c-1.8-0.8-3.6-1.6-5.4-2.2
		c-3.7-1.4-7.5-2.5-11.3-3.4c-15.2-3.7-30.9-4.6-46.4-2.6c-15.6,1.9-30.7,7-44.3,15c-13.6,8.1-25.1,19.2-33.6,32.6
		c-8.5,13.3-13.5,28.5-14.8,44.2c-0.9,15.3,0.9,30.7,5.4,45.4C155.2,180.1,160.9,194.1,167.9,207.4z M155.5,121.2
		c3.5-28.1,20.3-52.9,45.1-66.7c12.3-6.7,25.7-11.1,39.5-13c14-2,28.2-1.5,42,1.2c13.9,2.6,27.2,7.9,39.2,15.5
		c12.1,7.9,22.2,18.5,29.3,31.2c7.1,12.9,10.8,27.5,10.8,42.2c-0.3,14.8-3,29.4-8.2,43.3c-5,13.8-11.5,26.9-19.6,39.2
		c-7.8,12.1-16.9,23.3-27.3,33.3c-10.2,9.7-22.1,17.8-35.2,21.9c-6.5,2.1-13.4,3-20.3,2.7c-7-0.4-14-1.9-20.5-4.5
		c-6.7-2.7-12.9-6.3-18.7-10.6c-5.8-4.4-11.2-9.3-16.1-14.7c-9.7-11-17.8-23.3-24-36.5c-6.4-13.2-11-27.1-13.9-41.5
		C154.6,150,153.8,135.5,155.5,121.2z"/>
	<path class="st0" d="M485.4,400.7c-0.1-5.1-0.5-10.3-1.2-15.4c-0.8-5.2-1.9-10.3-3.3-15.3c-1.5-5.1-3.5-10-5.9-14.7
		c-5-9.5-12-17.8-20.6-24.2c-8.5-6.1-17.9-10.8-27.8-14c-19.3-6.7-39.1-9.2-57-16.2c-8.8-3.6-17.1-8.5-22.8-16.1
		c-5.6-7.6-8.5-17.2-9.4-27c0-0.3-0.3-0.6-0.6-0.6c-0.3,0-0.6,0.2-0.6,0.6c0,0,0,0,0,0c-0.2,5.1,0.3,10.1,1.3,15.1
		c1.1,5.1,3,9.9,5.7,14.3c2.8,4.4,6.3,8.4,10.4,11.6c4.1,3.2,8.5,6,13.2,8.2c9.2,4.2,18.7,7.6,28.5,10.2c9.5,2.8,18.9,5.6,28,8.9
		c8.9,3.2,17.2,7.7,24.7,13.3c7.3,5.6,13.2,12.7,17.3,20.9c4.1,8.4,6.9,17.4,8.2,26.6c0.6,4.7,1.1,9.4,1.4,14.2
		c0.2,2.4,0.1,4.8,0.2,7.2v4.5c-16,9.1-32.3,17.7-49.2,25.4c-8.8,4.1-17.8,7.9-26.9,11.4c-4.5,1.8-9.2,3.3-13.8,5
		c-4.6,1.6-9.3,3.1-13.9,4.5c-18.7,5.6-37.8,9.7-57.2,12.3c-19.3,2.4-38.7,3.4-58.1,2.9c-19.4-0.5-38.8-2.4-57.9-5.6
		c-19.1-3.2-38-7.5-56.5-13c-18.6-5.5-36.7-12.2-54.5-20c-8.8-3.9-17.6-8-26.3-12.3l-13-6.6l-9.4-5.1v-3.5c0-2.4,0-4.8,0.1-7.2
		c0.2-4.8,0.6-9.6,1.2-14.3c1.2-9.3,3.6-18.4,7.4-27c3.8-8.4,9.4-15.8,16.4-21.8c7.3-6,15.5-10.7,24.4-14c9.2-3.4,18.6-6.3,28.1-8.6
		c9.9-2.3,19.6-5.3,29.1-8.9c4.9-1.9,9.5-4.4,13.8-7.4c8.8-6,14.7-15.4,16.4-26c0.8-5,1-10.2,0.5-15.2c0-0.3-0.3-0.6-0.6-0.6
		c-0.3,0-0.6,0.3-0.6,0.6l0,0c-0.2,9.9-2.3,19.9-8,27.5c-5.7,7.6-14.5,12-23.7,15.1c-18.5,5.9-38.7,7.6-58.4,14.3
		c-10.1,3.2-19.6,8.2-28,14.6c-8.5,6.8-15.4,15.4-20.2,25.2c-9.6,19.4-11.2,41.1-11.2,61.2v0.1c0,2.4,1.3,4.5,3.4,5.6l13.1,7
		l13.3,6.7c4.4,2.2,9,4.2,13.5,6.3c4.5,2.1,9.1,3.9,13.7,5.9c18.3,7.6,37.1,14,56.3,19.3c19.1,5.3,38.6,9.2,58.3,11.6
		c19.7,2.4,39.6,3.2,59.4,2.6c19.7-0.6,39.4-2.5,58.9-5.7c19.4-3.1,38.6-7.3,57.6-12.5c9.6-2.6,19-5.4,28.3-8.5
		c9.3-3.1,18.6-6.4,27.9-9.9c18.5-7.1,36.5-15.2,54.1-24.2c1.6-0.9,2.6-2.5,2.6-4.3v-0.1l0.1-7.4
		C485.4,405.8,485.6,403.2,485.4,400.7z"/>
</g>
</svg>
