<?xml version="1.0"?>
<svg xmlns="http://www.w3.org/2000/svg" xmlns:xlink="http://www.w3.org/1999/xlink" xmlns:svgjs="http://svgjs.com/svgjs" version="1.1" width="512" height="512" x="0" y="0" viewBox="0 0 66 66" style="enable-background:new 0 0 512 512" xml:space="preserve" class=""><g><g xmlns="http://www.w3.org/2000/svg"><path d="m3.996 50.256c.171 5.96 2.261 7.256 6.957 7.196l41.643-.53c8.256-.102 10.211-2.658 10.211-8.96 0-.001 0-.001 0-.002l-.12-26.321c-.023-3.804-.945-5.962-4.915-6.177.029-2.993-1.012-3.461-2.644-3.419-2.929.108-4.134.011-5.134.799-.635.508-1.091 1.369-1.088 2.618-3.89.014-3.985.016-5.772.012-.021-1.532.004-4.815-2.429-6.245-2.234-1.312-12.525-.519-14.413.645-1.777 1.095-2.458 3.606-1.591 5.487-3.765-.029-.516-.004-5.491-.042-.055-2.276-.495-3.328-2.643-3.273l-2.439.09c-2.335.082-3.688.849-3.791 3.146-2.492.032-4.874.795-6.174 2.866-1.461 2.31-1.063 2.804-.167 32.11zm.179-26.991 1.972 1.972-1.858 1.858c-.018-.579-.101-3.25-.114-3.83zm6.765 33.186c-4.118.049-5.788-.78-5.944-6.225l-.631-20.649c4.328 6.161 12.349 7.046 24.815 7.381.127 1.262.439 2.403 1.437 3.261-.018 5.304.021 10.674.114 15.98zm25.105-40.013c-.257 4.865-.449 9.797-.579 14.674-1.017-.191-2.642-.229-3.758.094.069-4.786.191-9.755.363-14.794 1.366.009 2.696.018 3.974.026zm-4.604 15.94c1.061-.573 3.355-.476 4.363-.157.689.206 1.083.574 1.333 1.073l-1.139 1.139-.32-.32c-.098-.098-.256-.098-.354 0s-.098.256 0 .354l2.114 2.115c.049.049.113.073.177.073.004 0 .008-.005.012-.005-.03 2.01-.799 2.642-2.555 3.083-.084-.108-1.906-1.923-2.012-2.028l1.615-1.615c.098-.098.098-.256 0-.354s-.256-.098-.354 0l-2.971 2.971c-.098.098-.098.256 0 .354s.256.098.353 0l1.003-1.003 1.81 1.81c-2.834.596-4.24-.281-4.392-3.429-.062-.964-.061-3.289 1.317-4.061zm6.173 3.671-1.263-1.263.976-.976c.203.702.253 1.528.287 2.239zm-5.996 4.784c1.183.434 2.451.179 3.673-.125-.056 4.896-.043 9.938.042 15.016-.056.138-.034.262-.021.417l-3.581.046c-.089-5.099-.126-10.254-.113-15.354zm20.962 15.089-13.655.174.906-.906.417.417c.098.098.256.098.354 0s.098-.256 0-.354l-.417-.417 1.512-1.512 1.611 1.611c.098.098.256.098.354 0s.098-.256 0-.354l-1.612-1.611 2.971-2.97c.098-.098.098-.256 0-.354s-.256-.098-.354 0l-2.971 2.971-.163-.163c-.098-.098-.256-.098-.354 0s-.098.256 0 .354l.163.163-1.512 1.512-1.011-1.01c-.098-.098-.256-.098-.354 0s-.098.256 0 .354l1.011 1.01-.926.926c-.093.093-.092.24-.006.338l-2.205.028c-.094-5.322-.11-10.609-.048-15.731 1.42-.562 2.245-1.542 2.333-3.457 3.435-.107 6.904-.327 10.319-.67 3.827-.377 9.959-1.09 12.781-5.915l.039 8.64-.689.689-.375-.375c-.098-.098-.256-.098-.353 0-.098.098-.098.256 0 .354l.374.375-.799.799c-.098.098-.098.256 0 .354s.256.098.354 0l.799-.799.699.699.031 6.875c.002 5.517-1.295 7.856-9.224 7.955zm9.192-15.543-.342-.342.339-.339zm-11.156-26.755c.787-.62 2.312-.501 4.542-.583 1.03-.031 1.632-.027 1.615 2.393-.779-.003 2.006-.011-6.87.021-.002-.699.18-1.405.713-1.831zm-1.123 2.833c.027-.011 7.703-.017 7.742-.016 3.669.081 4.428 1.532 4.452 5.202l.029 6.463c-.09.062-.165.148-.199.261-1.539 5.145-7.582 6.404-12.671 6.906-3.389.341-6.829.559-10.237.665-.113-2.11-.307-3.742-2.152-4.518.129-4.974.326-10.009.589-14.973 0-.001-.001-.002 0-.004.343.003 12.106.059 12.447.014zm-23.755-1.23c-.892-1.46-.377-3.606 1.08-4.504 1.609-.993 11.551-1.709 13.381-.634 1.874 1.101 1.912 3.754 1.935 5.38-4.165-.014-10.415-.058-16.345-.103-.012-.047-.024-.095-.051-.139zm-1.885 1.124-.476.476-.483-.483c.319.002.637.005.959.007zm-9.688-3.22 2.433-.089c1.146-.028 1.55.037 1.613 2.267-2.902-.017-5.351-.036-6.873-.036.086-1.921 1.393-2.091 2.827-2.142zm-8.232 4.514 1.147 1.147-1.385 1.385-.968-.968c.083-.182.175-.361.283-.532.252-.402.569-.742.923-1.032zm-1.401 2.076.809.809-.799.799c-.098.098-.098.256 0 .354s.256.098.353 0l.799-.799 1.545 1.545c.098.098.256.098.353 0 .098-.098.098-.256 0-.354l-1.544-1.545 1.385-1.385 1.439 1.439c.098.098.256.098.354 0s.098-.256 0-.354l-1.439-1.439.547-.546c.098-.098.098-.256 0-.354s-.256-.098-.353 0l-.547.547-1.089-1.088c1.052-.697 2.343-1.011 3.442-1.054-.023.012-.051.01-.071.029-.098.098-.098.256 0 .354l1.265 1.265-1.689 1.689c-.098.098-.098.256 0 .354s.256.098.354 0l1.689-1.689.927.927c.098.098.256.098.353 0 .098-.098.098-.256 0-.354l-.926-.927.885-.885c.098-.098.098-.256 0-.354s-.256-.098-.354 0l-.885.885-1.265-1.265c-.025-.025-.059-.025-.09-.037.888-.026 6.949.013 7.838.019-.014.009-.033.006-.045.019-.098.098-.098.256 0 .354l1.35 1.35-.162.162c-.098.098-.098.256 0 .354s.256.098.354 0l.224-.224c.059-.004.118-.022.163-.067s.064-.104.067-.163l1.01-1.01c.098-.098.098-.256 0-.354s-.256-.098-.354 0l-.948.948-1.35-1.35c-.012-.011-.029-.008-.042-.017.861.005 3.283.024 4.098.03v.001l.841.841-.587.586c-.098.098-.098.256 0 .354s.256.098.354 0l.586-.587.502.502c.098.098.256.098.354 0s.098-.256 0-.354l-.502-.502.512-.512c.087-.087.084-.217.016-.314 2.239.017 4.551.035 6.813.051-.179 5.213-.304 10.354-.372 15.291-1.381.994-1.607 3.015-1.593 4.259-12.435-.341-21.057-1.187-24.743-8.291.038-.012.078-.015.108-.045l2.064-2.064c.083.02.138.044.232-.05.064-.064.07-.15.05-.232l.98-.98c.098-.098.098-.256 0-.354s-.256-.098-.353 0l-.945.945-2.113-2.113c-.061-.061-.141-.07-.219-.056-.006-1.013.055-2.053.364-2.994z" fill="#707070" data-original="#000000" style=""/><path d="m61.088 49.1c-.044-.044-.103-.063-.161-.067l-1.533-1.533.405-.405c.098-.098.098-.256 0-.354s-.256-.098-.354 0l-.405.405-1.223-1.223c-.098-.098-.256-.098-.353 0-.098.098-.098.256 0 .353l1.223 1.223-2.488 2.488-1.809-1.809 1.817-1.817c.098-.098.098-.256 0-.354s-.256-.098-.354 0l-3.81 3.81-.502-.502c-.098-.098-.256-.098-.354 0s-.098.256 0 .354l.502.502-1.724 1.724-1.045-1.045 1.889-1.888c.098-.098.098-.256 0-.354s-.256-.098-.354 0l-1.889 1.888-1.095-1.096c-.098-.098-.256-.098-.354 0s-.098.256 0 .354l1.095 1.095-2.022 2.021-1.604-1.604c-.098-.098-.256-.098-.354 0s-.098.256 0 .354l1.604 1.604-1.689 1.689c-.098.098-.098.256 0 .354s.256.098.354 0l1.689-1.689 1.046 1.046-.035.035c-.098.098-.098.256 0 .354s.256.098.353 0l.035-.035.12.12c.098.098.256.098.354 0s.098-.256 0-.354l-.12-.12 2.021-2.021 1.809 1.809-.078.078c-.098.098-.098.256 0 .354s.256.098.354 0l.078-.078.081.081c.098.098.256.098.354 0s.098-.256 0-.354l-.081-.081 1.724-1.724 2.441 2.441c.098.098.256.098.354 0s.098-.256 0-.354l-.617-.617 1.639-1.639.687.687c.098.098.256.098.354 0s.098-.256 0-.353l-.687-.687 2.598-2.598c.099-.037.171-.072.162-.23.023-.084.018-.173-.048-.238zm-7.051-.568 1.809 1.809-1.64 1.64-1.809-1.809zm-6.446 5.739-1.046-1.046 2.022-2.021 1.046 1.046zm4.538-.212-1.809-1.809 1.724-1.724 1.809 1.809zm3.901-.255-1.47-1.47 1.639-1.64 1.47 1.47zm.523-3.463 2.488-2.488 1.47 1.47-2.488 2.488z" fill="#707070" data-original="#000000" style=""/><path d="m61.423 42.913c-.098-.098-.256-.098-.354 0l-.884.884-.756-.756c-.098-.098-.256-.098-.354 0s-.098.256 0 .354l.756.756-1.095 1.095c-.098.098-.098.256 0 .354s.256.098.354 0l1.096-1.096.586.586c.098.098.256.098.354 0s.098-.256 0-.353l-.587-.586.884-.884c.098-.098.098-.257 0-.354z" fill="#707070" data-original="#000000" style=""/><path d="m13.886 19.647 1.689-1.689.758.758c.098.098.256.098.354 0s.098-.256 0-.354l-.758-.758.561-.561c.098-.098.098-.256 0-.354s-.256-.098-.354 0l-.561.561-.756-.756c-.098-.098-.256-.098-.354 0s-.098.256 0 .354l.756.756-1.689 1.689c-.098.098-.098.256 0 .354s.257.098.354 0z" fill="#707070" data-original="#000000" style=""/><path d="m43.625 26.519.506-.506.95.95-.941.941c-.098.098-.098.256 0 .354s.256.098.354 0l.94-.941 2.249 2.249c.098.098.256.098.354 0s.098-.256 0-.354l-2.249-2.249 1.695-1.695.859.859c.098.098.256.098.354 0s.098-.256 0-.354l-.859-.859 1.633-1.633.917.917c.098.098.256.098.354 0s.098-.256 0-.354l-2.22-2.221 1.28-1.28c.098-.098.098-.256 0-.354s-.256-.098-.354 0l-1.28 1.28-.692-.692c-.098-.098-.256-.098-.354 0s-.098.256 0 .354l.692.692-1.633 1.633-1.189-1.189c-.098-.098-.256-.098-.354 0s-.098.256 0 .354l1.189 1.189-2.555 2.555c-.098.098-.098.256 0 .353.098.099.256.099.354.001zm4.542-4.541.95.95-1.633 1.633-.95-.95zm-1.037 2.937-1.695 1.695-.95-.95 1.695-1.695z" fill="#707070" data-original="#000000" style=""/><path d="m34.456 36.596c-.098.098-.098.256 0 .354l.754.755-.879.879c-.098.098-.098.256 0 .354.049.049.113.073.177.073s.128-.024.177-.073l.879-.879.428.428c.098.098.256.098.354 0s.098-.256 0-.353l-.428-.428.63-.63c.098-.098.098-.256 0-.354s-.256-.098-.354 0l-.63.63-.754-.755c-.098-.099-.257-.099-.354-.001z" fill="#707070" data-original="#000000" style=""/><path d="m19.249 44.546 1.116-1.116c.098-.098.098-.256 0-.354s-.256-.098-.353 0l-1.116 1.116-1.722-1.722 1.311-1.311c.098-.098.098-.256 0-.354s-.256-.098-.353 0l-1.311 1.311-.293-.293c-.098-.098-.256-.098-.354 0s-.098.256 0 .354l.293.293-1.058 1.058-.21-.209c-.098-.098-.256-.098-.353 0-.098.098-.098.256 0 .353l.209.21-1.434 1.434c-.098.098-.098.256 0 .354s.256.098.354 0l1.434-1.434 1.722 1.722-1.889 1.889-.729-.729 1.126-1.126c.098-.098.098-.256 0-.354s-.256-.098-.354 0l-1.126 1.126-2.448-2.448c-.098-.098-.256-.098-.354 0s-.098.256 0 .354l2.448 2.448-1.087 1.087c-.098.098-.098.256 0 .354s.256.098.353 0l1.087-1.087.729.729-1.628 1.628c-.098.098-.098.256 0 .354s.256.098.353 0l1.628-1.628 2.104 2.104c.098.098.256.098.354 0s.098-.256 0-.354l-2.103-2.105 1.889-1.889 1.045 1.045-1.298 1.298c-.098.098-.098.256 0 .354s.256.098.353 0l1.298-1.298 1.045 1.045c.098.098.256.098.353 0 .098-.098.098-.256 0-.354l-1.045-1.045 1.02-1.02c.015-.015.012-.037.023-.055l1.655 1.655c.098.098.256.098.354 0s.098-.256 0-.354zm-3.488-.663 1.058-1.058 1.722 1.722-1.058 1.058zm4.141 2.101-1.02 1.02-1.045-1.045 1.058-1.058 1.061 1.061c-.017.009-.039.007-.054.022z" fill="#707070" data-original="#000000" style=""/></g></g></svg>
