<?xml version="1.0"?>
<svg xmlns="http://www.w3.org/2000/svg" xmlns:xlink="http://www.w3.org/1999/xlink" xmlns:svgjs="http://svgjs.com/svgjs" version="1.1" width="512" height="512" x="0" y="0" viewBox="0 0 66 66" style="enable-background:new 0 0 512 512" xml:space="preserve" class=""><g><g xmlns="http://www.w3.org/2000/svg"><path d="m59.703 9.035c-.339-5.637-2.143-7.484-8.485-7.57l-33.722-.459c-7.667-.089-10.068 1.978-10.393 9.259-.14 3.112-.129 9.934-.154 17.498-.073.091-.073.214-.001.305-.014 4.253-.041 8.669-.113 12.694-.12.12-.114.269-.006.371-.065 3.503-.194 9.826-.747 13.225-.261 1.601-.531 3.255-.298 4.903.293 2.076 1.429 3.776 3.038 4.547 1.766.847.203.588 43.242 1.187 4.523.059 6.458-1.238 6.942-6.646 1.454-16.252 1.689-32.844.697-49.314zm-2.759 43.356-.028-.028c.255-.555.497-1.123.729-1.698l.511.511-1.209 1.209c-.002.002-.001.004-.003.006zm-8.177 9.885c.44-2.992-1.246-7.088-3.933-9.723 5.219-.333 10.097-2.834 13.407-6.806-1.854 6.65-4.919 11.999-9.474 16.529zm.471 1.68-.749-.01c.235-.218.466-.439.695-.661l.363.363zm.302-1.023c.339-.338.669-.681.991-1.028l.378.378-1.009 1.01zm1.333-1.392c.263-.291.518-.588.77-.885l.447.447-.828.828zm7.826-12.69c-.044-.016-.083-.023-.129-.013l-.175-.175c.134-.389.263-.783.388-1.181-.026.456-.057.912-.084 1.369zm-.124 2.036-.728-.728c.015-.04.032-.079.048-.12.1.065.554-.447.638-.532l.119.119c-.027.42-.049.841-.077 1.261zm-25.951-48.675-.497.497-.511-.511zm-6.325.152-.241-.241.566.008c-.056.005-.113.021-.156.064zm-2.719-.275-.62.621-.638-.638zm-5.321-.073 2.784.038c-.062.001-.124.024-.172.071l-1.251 1.252zm-.776-.01.059.001.48.48-1.537 1.537-.821-.821.118-.118c.098-.098.098-.256 0-.353-.098-.098-.256-.098-.353 0l-.119.117-.763-.763c.955-.087 1.95-.094 2.936-.08zm-3.566.158 1.039 1.039-1.492 1.492-1.904-1.905c.715-.321 1.515-.511 2.357-.626zm-5.714 8.7c.098.098.256.098.354 0l.929-.929.936.936-1.835 1.835-.307-.307c-.066-.066-.155-.071-.239-.047.017-.79.036-1.481.062-2.042.024-.56.058-1.11.108-1.649l.92.92-.928.929c-.098.098-.098.256 0 .354zm-1.489 47.388.736.736-.588.588c-.112-.516-.128-.713-.148-1.324zm.165-2.507.018.018-.023.023c.002-.013.003-.027.005-.041zm.47-3.445.262.262-.32.32c.02-.186.04-.382.058-.582zm.239-3.493.392.392-.437.437c.015-.273.031-.542.045-.829zm.123-3.025c.022-.671.043-1.36.061-2.072l.354-.354 1.005 1.006zm.093-3.455c.013-.611.025-1.232.036-1.863l.263-.263 1.236 1.236-1.213 1.213zm.061-3.071c-.001-.001-.004-.001-.005-.002.007-.495.014-.998.02-1.501l.776-.776.982.982-1.535 1.535zm.024-2.22c.003-.271.005-.546.008-.819l.406.405zm.039-4.657.328.328-.332.332c.001-.22.003-.44.004-.66zm.016-3.347.749.749-.756.756c.004-.503.006-1.004.007-1.505zm.013-4.041.875.875-.88.88c.002-.591.004-1.175.005-1.755zm.011-4.043 1.049 1.049-1.054 1.055c.001-.717.003-1.418.005-2.104zm.015-3.67 1.378 1.378-1.391 1.391c.004-.964.008-1.889.013-2.769zm.006-.888c.006-.856.014-1.66.024-2.403l.574-.574 1.19 1.19zm.034-3.121c.002-.14.005-.278.007-.413l.203.203zm.26-5.243c.013-.101.025-.202.04-.302.032-.012.068-.013.094-.039l1.321-1.32 1.305 1.305-1.558 1.558zm.189-1.102c.107-.489.25-.954.435-1.392l.479.479zm-1.464 53.197c.008-.007.02-.004.028-.011l.767-.768.185.185c.098.098.256.098.353 0 .098-.098.098-.256 0-.354l-.185-.185 1.516-1.516c.098-.098.098-.256 0-.354s-.256-.098-.354 0l-1.516 1.516-1.088-1.088c.011-.318.028-.636.062-.956l.473-.473.562.562c.098.098.256.098.353 0 .098-.098.098-.256 0-.354l-.562-.562 1.734-1.734c.098-.098.098-.256 0-.354s-.256-.098-.354 0l-1.731 1.735-.278-.278c.225-1.424.177-1.137.219-1.443l.773-.774.53.53c.098.098.256.098.354 0s.098-.256 0-.354l-.53-.53 1.546-1.546c.098-.098.098-.256 0-.354s-.256-.098-.354 0l-1.546 1.546-.558-.557c.032-.4.064-.817.092-1.263l.834-.834.896.896c.098.098.256.098.353 0 .098-.098.098-.256 0-.353l-.896-.896 1.132-1.132c.098-.098.098-.256 0-.354s-.256-.098-.353 0l-1.132 1.132-.714-.714c.024-.521.046-1.058.066-1.616l.026-.026c.126.126.784.841.945.841.064 0 .128-.024.177-.073.098-.098.098-.256 0-.354l-.768-.768 1.929-1.929c.098-.098.098-.256 0-.354s-.256-.098-.354 0l-.156.156-1.004-1.006 2.854-2.853c.098-.098.098-.256 0-.354s-.256-.098-.353 0l-1.287 1.287-1.236-1.236 3.1-3.1c.098-.098.098-.256 0-.354s-.256-.098-.354 0l-1.211 1.211-.982-.982 2.934-2.935c.098-.098.098-.256 0-.354s-.256-.098-.353 0l-2.934 2.935-.752-.752c.005-.586.01-1.175.015-1.766l.689-.69.51.51c.098.098.256.098.354 0s.098-.256 0-.354l-.51-.51 2.334-2.334c.098-.098.098-.256 0-.354s-.256-.098-.354 0l-2.334 2.335-.678-.678c.001-.143.002-.285.002-.427l1.113-1.113.082.082c.098.098.256.098.354 0s.098-.256 0-.354l-.082-.082 2.152-2.152c.098-.098.098-.256 0-.354s-.256-.098-.354 0l-2.152 2.152-1.1-1.1c.001-.293.002-.582.003-.873l1.236-1.236.525.525c.098.098.256.098.354 0s.098-.256 0-.354l-.525-.525 2.374-2.374c.098-.098.098-.256 0-.354s-.256-.098-.353 0l-2.374 2.374-1.227-1.227c0-.015.001-.515.001-.526l1.41-1.41.82.82c.098.098.256.098.354 0s.098-.256 0-.354l-.82-.82 1.507-1.507c.098-.098.098-.256 0-.354s-.256-.098-.354 0l-1.508 1.511-1.144-1.144 1.489-1.489.485.485c.098.098.256.098.353 0 .098-.098.098-.256 0-.354l-.485-.485.584-.584c.098-.098.098-.256 0-.353-.098-.098-.256-.098-.354 0l-.584.584-1.466-1.466 1.881-1.881.758.758c.098.098.256.098.353 0 .098-.098.098-.256 0-.353l-.758-.758.976-.976c.098-.098.098-.256 0-.354s-.256-.098-.354 0l-.976.976-1.19-1.19 1.835-1.835.283.283c.098.098.256.098.354 0s.098-.256 0-.354l-.283-.283.491-.491c.098-.098.098-.256 0-.354s-.256-.098-.353 0l-.491.491-.935-.935 1.601-1.601c.086.011.139.005.205-.061.057-.057.07-.132.061-.205l1.226-1.226c.098-.098.098-.256 0-.354s-.256-.098-.354 0l-1.182 1.182-1.305-1.305 1.73-1.729c.098-.098.098-.256 0-.353-.098-.098-.256-.098-.353 0l-1.73 1.729-.614-.615c.526-.991 1.16-1.55 1.974-2.009l2.014 2.013-.533.533c-.098.098-.098.256 0 .353.098.098.256.098.353 0l.533-.533 1.528 1.528c.098.098.256.098.354 0s.098-.256 0-.354l-1.528-1.528 1.492-1.492.821.821-.513.515c-.098.098-.098.256 0 .354s.256.098.354 0l.512-.512.135.135c.098.098.256.098.354 0s.098-.256 0-.353l-.135-.135 1.537-1.537.89.89-.284.284c-.098.098-.098.256 0 .353.098.098.256.098.354 0l.284-.284.726.726c.098.098.256.098.354 0s.098-.256 0-.354l-.726-.726 1.252-1.252c.098-.098.098-.256 0-.354-.047-.047-.109-.07-.171-.071l.551.007 1.001 1.001-.583.583c-.098.098-.098.256 0 .354s.256.098.353 0l.583-.584.404.404c.098.098.256.098.354 0s.098-.256 0-.353l-.404-.404.965-.965 1.063.014.605.605-.929.929c-.098.098-.098.256 0 .354s.256.098.354 0l.929-.929 1.13 1.13c.098.098.256.098.353 0 .098-.098.098-.256 0-.353l-1.13-1.13.169-.169c.098-.098.098-.256 0-.354-.043-.043-.099-.059-.154-.064l2.41.033.208.208-1.274 1.275c-.098.098-.098.256 0 .354s.256.098.353 0l1.274-1.275.576.576c.098.098.256.098.353 0 .098-.098.098-.256 0-.353l-.731-.731c-.007-.009-.004-.022-.013-.031-.008-.008-.021-.006-.03-.013l1.167.016c.012.037.015.077.044.106l.768.768-.354.353c-.098.098-.098.256 0 .354s.256.098.354 0l.353-.353.151.151c.098.098.256.098.354 0s.098-.256 0-.353l-.152-.152.803-.803c.011-.011.008-.027.016-.039l.635.009.166.165-.653.653c-.098.098-.098.256 0 .354s.256.098.354 0l.653-.653.254.254c.098.098.256.098.353 0 .098-.098.098-.256 0-.353l-.254-.254.151-.151 16.247.221c5.904.08 7.199 1.624 7.5 6.631.68 11.296.767 22.647.292 33.908-.01.012-.02.022-.029.035-.004.005-.009.008-.013.014-2.997 4.891-8.283 8.335-15.394 8.539-.47 0-.68.596-.313.89 3.962 3.184 5.78 9.202 3.755 11.444l-34.205-.476c-2.113-.032-4.741-.035-5.79-3.33zm45.069 3.874-1.496-.021-.327-.327 1.01-1.009.196.196c.098.098.256.098.354 0s.098-.256 0-.354l-.196-.196.828-.828.203.203c.098.098.256.098.353 0 .098-.098.098-.256 0-.354l-.248-.248c.008-.073-.008-.146-.063-.201-.056-.056-.129-.071-.201-.063l-.504-.504c-.006-.006-.014-.003-.021-.008.377-.456.738-.923 1.09-1.395l.195.195-.664.664c-.098.098-.098.256 0 .354s.256.098.353 0l.664-.664.235.235c.098.098.256.098.354 0s.098-.256 0-.354l-.235-.235 1.326-1.325c.098-.098.098-.256 0-.354s-.256-.098-.354 0l-1.325 1.325-.251-.251c.483-.667.944-1.347 1.38-2.047l1.091 1.091c.098.098.256.098.353 0 .098-.098.098-.256 0-.354l-1.179-1.179c.305-.507.6-1.021.882-1.546l.3.3-.959.959c-.098.098-.098.256 0 .353.098.098.256.098.353 0l.959-.959.423.423c.098.098.256.098.354 0s.098-.256 0-.354l-.423-.423.304-.304c.098-.098.098-.256 0-.354s-.256-.098-.354 0l-.304.304-.405-.405c.194-.374.38-.755.563-1.139l.699.699c.098.098.256.098.354 0s.098-.256 0-.354l-.449-.449c.002-.002.005-.001.007-.003l1.237-1.237c-.154 2.258-.326 4.512-.527 6.759-.461 5.125-2.191 5.794-5.935 5.738z" fill="#707070" data-original="#000000" style=""/><path d="m44.371 16.151c.273 0 .497-.22.5-.495.003-.276-.218-.502-.495-.505l-26.135-.288c-.296-.042-.502.218-.505.495-.003.276.218.502.495.505l26.135.288z" fill="#707070" data-original="#000000" style=""/><path d="m49.366 26.251c-.01-.276-.24-.497-.517-.482l-30.133 1.032c-.276.009-.492.241-.482.517.009.27.231.483.499.483.006 0 .012 0 .018-.001l30.133-1.032c.276-.009.492-.241.482-.517z" fill="#707070" data-original="#000000" style=""/><path d="m49.671 35.463c-.042-.272-.294-.459-.57-.418-9.283 1.433-18.75 2.074-28.149 1.894-.297.003-.504.214-.509.491-.005.276.214.504.491.509 1.019.019 2.038.028 3.058.028 8.445 0 16.929-.649 25.262-1.934.272-.042.459-.297.417-.57z" fill="#707070" data-original="#000000" style=""/></g></g></svg>
