<?xml version="1.0"?>
<svg xmlns="http://www.w3.org/2000/svg" xmlns:xlink="http://www.w3.org/1999/xlink" xmlns:svgjs="http://svgjs.com/svgjs" version="1.1" width="512" height="512" x="0" y="0" viewBox="0 0 66 66" style="enable-background:new 0 0 512 512" xml:space="preserve" class=""><g><g xmlns="http://www.w3.org/2000/svg"><g><path d="m12.261 40.328.07 6.845c.09 5.82 1.89 7.581 7.716 7.522l4.325-.057c1.61 1.897 3.025 3.581 4.578 5.411 3.661 4.313 6.243 4.717 10.746.867 2.574-2.191 5.149-4.382 7.722-6.564 4.649-.07 5.974.008 6.071-5.164 2.813-2.391 5.624-4.782 8.425-7.171.863-.726 1.72-1.53 1.892-2.656 0-.001 0-.002 0-.003.198-1.354-.654-2.522-1.468-3.51-2.861-3.483-5.712-7.004-8.554-10.526.061-4.2.124-9.12.146-14.03.092-.211.052-.426-.146-.582-2.167-2.414-5.093-5.512-8.541-8.123-.05-.038-.116-.04-.174-.057-.163-.112-.311-.121-.487-.038-1.281.028-23.412.529-27.197.453-4.215-.113-5.49 1.71-5.444 6.206l.076 7.389c-.912.786-6.468 5.491-7.408 6.235-2.799 2.246-3.601 4.261-.219 8.253 2.629 3.114 5.219 6.17 7.871 9.3zm-.206-20.08-.29-.29.284-.284zm.007.715.018 1.738-.003.003-1.529-1.529.863-.863zm.025 2.458.015 1.451-.743-.743.718-.718zm.04 3.823c-.007.006-.017.003-.023.01l-.315.315-.747-.747 1.07-1.07zm.014 1.385.015 1.411-.367.367-1.065-1.065 1.066-1.066zm.021 2.111v.043l-.021-.021zm.03 2.91-.196-.196.192-.192zm.027 2.611-.183-.183.179-.179zm31.511 19.913-.63-.63 1.109-1.109c.012-.012.009-.029.018-.042.541-.006 1.081-.014 1.622-.02-.707.599-1.413 1.201-2.119 1.801zm-2.59.623-1.285-1.285 1.078-1.078c.281-.003.563-.007.844-.01-.037.012-.077.015-.107.044-.098.098-.098.256 0 .354l.723.723zm-9.576-1.735.519-.519c.653-.008 1.306-.016 1.958-.024l.286.286-1.51 1.51zm-2.163 1.179-1.115-1.115.498-.498c.012-.012.009-.031.018-.045.519-.007 1.038-.013 1.557-.019l.497.497-1.402 1.402c.017-.079.008-.161-.053-.222zm-1.288-1.649-.181.181-.176-.176c.119-.002.238-.003.357-.005zm2.945-.036c.103-.001.206-.003.309-.004l-.156.156zm4.279-.053c.759-.009 1.518-.019 2.277-.028l-1.455 1.455-1.125-1.125zm4.88-.061-.716.716-.698-.698c.471-.006.942-.012 1.414-.018zm1.806.025c-.031-.031-.072-.035-.111-.046.541-.006 1.082-.014 1.623-.02l-.789.789zm-16.353.155c.467-.006.935-.011 1.402-.017.006.007.003.017.01.023l.498.498-.723.724c-.033.033-.038.076-.049.118-.38-.449-.759-.898-1.138-1.346zm13.376 5.534c-4.073 3.482-6.003 3.171-9.334-.754-.896-1.055-1.739-2.054-2.653-3.136.054-.006.109-.021.151-.062l.723-.724 1.115 1.115c.103.103.196.082.296.024-.045.093-.047.203.03.28.098.098.256.098.354 0l1.483-1.483 2.243 2.243c.098.098.256.098.354 0s.098-.256 0-.354l-.636-.636 1.51-1.51 1.125 1.125-.769.769c-.098.098-.098.256 0 .354s.256.098.354 0l.769-.769 1.146 1.146c.098.098.256.098.354 0s.098-.256 0-.354l-1.146-1.146 1.703-1.703.932.932-1.14 1.14c-.098.098-.098.256 0 .354s.256.098.354 0l1.14-1.14 1.285 1.285-.372.372c-.098.098-.098.256 0 .354s.256.098.354 0l.389-.389c.1.056.191.078.294-.025.081-.081.079-.199.025-.294l1.271-1.271.601.601c-1.437 1.217-2.871 2.435-4.305 3.656zm13.7-42.698c-.012-.024-.01-.051-.029-.071l-.893-.894 1.079-1.079c-.006.639-.012 1.275-.018 1.906zm-2.351-4.48.489.489-.811.811-.778-.778 1.32-1.32c.003-.003.002-.009.005-.012.648-.093 1.283-.209 1.907-.345l-1.29 1.29-.489-.489c-.098-.098-.256-.098-.354 0s-.097.256.001.354zm-1.454.168-.721-.721c-.001-.001-.002 0-.003-.001.538-.033 1.067-.084 1.592-.144zm6.562 20.467-1.42 1.42-.438-.438c.013-.874.026-1.747.039-2.614.016.004.028.019.044.019.042 0 .077-.027.115-.047zm-.027 12.572-.641-.641 2.263-2.263.823.822c-.815.694-1.629 1.388-2.445 2.082zm-1.971.689.977-.977.612.612c-.532.453-1.063.906-1.596 1.358.002-.329.005-.661.007-.993zm.976-1.683-.489-.489c-.098-.098-.256-.098-.354 0s-.098.256 0 .354l.489.489-.619.619c.001-.115.001-.229.002-.343.004-.559.008-1.116.013-1.675.001-.073.002-.146.002-.219l.999-.999 1.11 1.11zm-.947-1.981c.004-.421.009-.841.014-1.262l.624.624zm.022-1.961c.005-.394.008-.787.013-1.18l.602-.602 1.554 1.554-1.199 1.199zm.022-1.897c.002-.158.004-.314.006-.472l.233.233zm.016-1.17c.007-.502.013-1.005.021-1.506.002-.158.004-.317.007-.475l.461-.461 1.554 1.554-1.465 1.465zm.038-2.698c.001-.064.002-.128.003-.192l.094.094zm.102-6.833.172.172-.177.177zm7.533 12.604c-.986.841-1.976 1.682-2.964 2.523l-.851-.851.064-.064c.098-.098.098-.256 0-.354s-.256-.098-.354 0l-.064.064-.356-.355c-.098-.098-.256-.098-.354 0s-.098.256 0 .354l.356.355-.755.755-1.11-1.11 1.247-1.247c.005 0 .008.005.013.005.064 0 .128-.024.177-.073.052-.052.072-.121.068-.19l.449-.449c.098-.098.098-.256 0-.354s-.256-.098-.354 0l-.401.401-1.553-1.553 1.465-1.465.999.999c.098.098.256.098.354 0s.098-.256 0-.354l-2.906-2.906 1.42-1.42.172.172c.098.098.256.098.354 0s.098-.256 0-.354l-2.168-2.168 1.067-1.067c.232-.232-.119-.588-.354-.354l-1.067 1.067-.163-.163.021-1.383.541-.541.898.898c.098.098.256.098.354 0s.098-.256 0-.354l-.898-.898.046-.046c.098-.098.098-.256 0-.354s-.256-.098-.354 0l-.046.046-.267-.267c-.069-.069-.164-.072-.251-.042l.019-1.274c2.593 3.212 5.195 6.42 7.805 9.598 1.88 2.285 1.593 3.179-.299 4.773zm-8.756-30.46c-2.471.559-5.141.79-7.973.647l.675-7.608c2.868 2.257 5.352 4.821 7.298 6.961zm-6.952 1.85c.049-.049.073-.114.072-.179.934.016.012.043 1.674-.012l-.992.992-.778-.778zm-28.198-8.7c3.717.075 23.613-.376 26.877-.445l-.742 8.368c-.024.279.185.525.466.543.243.016.477.013.718.023.007.052.02.104.06.144l.089.089-.707.707c-.098.098-.098.256 0 .354s.256.098.354 0l.707-.707.778.778-.499.499c-.098.098-.098.256 0 .354s.256.098.354 0l.499-.499.866.866c.098.098.256.098.354 0s.098-.256 0-.354l-.866-.866 1.021-1.021c.093-.093.091-.238.007-.336.055-.003.112-.002.167-.005-.088.098-.089.247.005.341l.721.721-.962.962c-.098.098-.098.256 0 .354s.256.098.354 0l.962-.962.778.778-.226.226c-.098.098-.098.256 0 .354s.256.098.354 0l.226-.226.212.212c.098.098.256.098.354 0s.098-.256 0-.354l-.212-.212.811-.811 1.002 1.002c.098.098.256.098.354 0s.098-.256 0-.354l-1.002-1.002 1.335-1.335c-.005.859-.01 1.717-.017 2.57l-1.443 1.439-.189-.189c-.098-.098-.256-.098-.354 0s-.098.256 0 .354l.189.189-.061.061c-.098.098-.098.256 0 .354s.256.098.354 0l.061-.061.893.894c.02.02.048.018.071.029l-1.275 1.275c-.098.098-.098.256 0 .354s.256.098.354 0l1.364-1.364c-.007.643-.014 1.28-.022 1.909l-.587.587-1.187-1.187c-.098-.098-.256-.098-.354 0s-.098.256 0 .354l1.187 1.187-.494.494c-.098.098-.098.256 0 .354s.256.098.354 0l.494-.494.013.013c.098.098.256.098.354 0s.098-.256 0-.354l-.013-.013.225-.225c-.021 1.682-.043 3.306-.065 4.829l-.088 5.891c-.088 5.766-.18 11.729-.202 17.574 0 0-.01.234-.01.892 0 3.837-1.467 3.454-5.256 3.51-7.55.09-15.09.18-22.631.28l-4.558.06c-5.335.056-6.626-1.356-6.705-6.534-.001-.06-.389-37.954-.39-38.021-.05-4.743 1.517-5.277 4.419-5.197zm-5.331 13.904.012 1.125-.63.63-.664-.664c.378-.306.887-.75 1.282-1.091zm-6.798 5.709c1.72-1.363 3.047-2.585 5.128-4.298l.698.699-.864.864c-.098-.094-.253-.094-.349.002s-.096.251-.002.349l-.328.328c-.098.098-.098.256 0 .354s.256.098.354 0l.326-.326 1.529 1.529-.718.718-.287-.287c-.098-.098-.256-.098-.354 0s-.098.256 0 .354l.287.287-.437.437c-.098.098-.098.256 0 .354s.256.098.354 0l.437-.437.834.834-1.794 1.794c-.098.098-.098.256 0 .354s.256.098.354 0l.289-.289.747.747-1.535 1.535c-.098.098-.098.256 0 .354s.256.098.354 0l.116-.116 1.065 1.065-1.214 1.214c-.098.098-.098.256 0 .354s.256.098.354 0l1.214-1.214.066.066c.085.085.191.101.314.017l.014 1.366-.538.538-.634-.634c-.098-.098-.256-.098-.354 0s-.098.256 0 .354l.634.634-.665.665c-.098.098-.098.256 0 .354s.256.098.354 0l.665-.665.557.557.009.836-.525.525-.729-.729c-.098-.098-.256-.098-.354 0s-.098.256 0 .354l.729.728-.033.025c-.098.098-.098.256 0 .354s.256.098.354 0l.029-.029.544.544.018 1.787c-2.224-2.625-5.019-5.925-7.092-8.38-3.191-3.768-2.044-5.124.079-6.826z" fill="#707070" data-original="#000000" style=""/></g><g><path d="m17.815 9.204 17.132.385h.006c.136 0 .247-.108.25-.244.003-.138-.106-.253-.244-.256l-17.133-.385c-.001 0-.003 0-.005 0-.136 0-.247.108-.25.245s.106.252.244.255z" fill="#707070" data-original="#000000" style=""/></g><g><path d="m17.33 16.252h.004l28.422-.51c.138-.002.248-.116.246-.254s-.095-.237-.254-.246l-28.422.51c-.138.002-.248.116-.246.254.003.137.114.246.25.246z" fill="#707070" data-original="#000000" style=""/></g><g><path d="m45.88 19.118c-.002-.138-.11-.242-.254-.246l-27.928.508c-.138.002-.248.117-.246.254s.114.246.25.246h.004l27.928-.508c.138-.002.248-.116.246-.254z" fill="#707070" data-original="#000000" style=""/></g><g><path d="m17.203 23.449h.003l8.066-.112c.138-.002.249-.115.247-.253-.002-.137-.113-.247-.25-.247-.001 0-.002 0-.003 0l-8.066.112c-.138.002-.249.115-.247.253s.113.247.25.247z" fill="#707070" data-original="#000000" style=""/></g><g><path d="m45.748 27.143-28.422.509c-.138.002-.248.116-.246.254.002.137.114.246.25.246h.004l28.422-.509c.138-.002.248-.116.246-.254s-.095-.251-.254-.246z" fill="#707070" data-original="#000000" style=""/></g><g><path d="m45.88 31.018c-.002-.139-.11-.254-.254-.246l-27.928.508c-.138.002-.248.117-.246.254s.114.246.25.246h.004l27.928-.508c.138-.002.248-.116.246-.254z" fill="#707070" data-original="#000000" style=""/></g><g><path d="m17.203 35.349h.003l8.066-.112c.138-.002.249-.115.247-.253s-.129-.272-.253-.247l-8.066.112c-.138.002-.249.115-.247.253.002.137.113.247.25.247z" fill="#707070" data-original="#000000" style=""/></g><g><path d="m45.748 39.519-28.422.51c-.138.002-.248.116-.246.254.002.137.114.246.25.246h.004l28.422-.51c.138-.002.248-.116.246-.254s-.095-.234-.254-.246z" fill="#707070" data-original="#000000" style=""/></g><g><path d="m45.626 43.149-27.928.508c-.138.002-.248.117-.246.254s.114.246.25.246h.004l27.928-.508c.138-.002.248-.117.246-.254-.003-.138-.11-.238-.254-.246z" fill="#707070" data-original="#000000" style=""/></g><g><path d="m17.203 47.726h.003l8.066-.112c.138-.002.249-.115.247-.253s-.129-.256-.253-.247l-8.066.112c-.138.002-.249.115-.247.253.002.137.113.247.25.247z" fill="#707070" data-original="#000000" style=""/></g><g><path d="m41.842 46.139-1.825 1.825-.856-.856c-.098-.098-.256-.098-.354 0s-.098.256 0 .354l.856.856-1.27 1.27c-.098.098-.098.256 0 .354s.256.098.354 0l1.27-1.27.343.343c.098.098.256.098.354 0s.098-.256 0-.354l-.343-.343 1.825-1.825c.098-.098.098-.256 0-.354s-.256-.097-.354 0z" fill="#707070" data-original="#000000" style=""/></g></g></g></svg>
