<?xml version="1.0"?>
<svg xmlns="http://www.w3.org/2000/svg" xmlns:xlink="http://www.w3.org/1999/xlink" xmlns:svgjs="http://svgjs.com/svgjs" version="1.1" width="512" height="512" x="0" y="0" viewBox="0 0 66 66" style="enable-background:new 0 0 512 512" xml:space="preserve"><g><g xmlns="http://www.w3.org/2000/svg"><path d="m64.997 11.254c.078-7.639-2.157-10.418-10.625-10.237l-43.238.93c-5.875.135-8.685 1.57-9.36 9.569-.656 7.783-.895 15.687-.713 23.49.192 9.356 3.467 11.795 12.4 11.99 1.42.031 2.834.064 4.254.101-1.045 2.424-2.096 4.846-3.149 7.268-.817 1.879-1.633 3.758-2.448 5.642-1.212 2.848-.449 4.532 3.152 4.862 6.187.545 7.65-1.008 9.26-5.127.181-.458.36-.913.535-1.366l17.675.36.409 1.038c.487 1.25 1.094 2.805 2.315 3.84 1.872 1.569 4.481 1.471 6.933 1.255 3.293-.3 4.499-1.768 3.149-4.865-1.757-4.046-3.504-8.086-5.252-12.132 1.771.041 3.537.085 5.309.132 6.715.178 9.021-1.634 9.104-8.48.098-10.291.198-19.541.29-28.27zm-14.306 40.059-.245.245-.131-.131c-.098-.098-.256-.098-.354 0s-.098.256 0 .354l.131.131-.524.524-.898-.897 1.478-1.478c.181.417.363.835.543 1.252zm.374.864-.265-.265.105-.105c.053.123.107.247.16.37zm-1.979-1.761c.006-.07-.011-.141-.065-.195l-.984-.984 1.225-1.225c.224.519.449 1.037.673 1.556zm-4.113-1.127-1.108-1.108.459-.459c.532.013 1.065.027 1.597.041.011.04.016.082.047.113l.172.172-1.113 1.113c-.036.034-.045.082-.054.128zm-1.462-1.462-.13-.13c.084.002.169.004.253.006zm3.59-.035c.544.014 1.087.027 1.632.042l-1.049 1.049-.837-.837zm-4.381-.111c.012.037.015.077.044.106l.394.394-.656.656-.832-.831.342-.342c.485.011.708.017.708.017zm-1.403-.029-.006-.006h.012zm-2.974-.079 1.532 3.892c-4.481.091-8.455.095-12.097.011.544-1.369 1.087-2.741 1.624-4.115 2.984.068 5.959.136 8.941.212zm-17.769 1.015-.503-.503.122-.123c.098-.098.098-.256 0-.354s-.256-.098-.354 0l-.122.122-.6-.6c.441.009.882.02 1.322.03l.781.781zm-5.658 7.482c.184-.424.368-.848.552-1.272l.427.428-.911.912zm1.444-3.331c.213-.49.425-.981.638-1.471l.489.489-1.055 1.055zm1.526-3.521.172.172-.435.435c.088-.203.176-.405.263-.607zm.214-.493c.192-.443.385-.886.576-1.329l.688.688-.952.952zm6.103-1.481-.323.323-.338-.338c.221.005.441.01.661.015zm2.236.05-.253.253-.264-.264c.172.003.344.007.517.011zm-11.081 16.58c-3.071-.282-3.196-1.417-2.322-3.471.435-1.005.872-2.009 1.308-3.014.059-.003.118-.023.164-.068l.476-.476.172.173c.098.098.256.098.354 0s.098-.256 0-.354l-.172-.172.934-.934c.093.044.171.076.278-.031.077-.077.075-.185.031-.278l.219-.219c.098-.098.098-.256 0-.354s-.256-.098-.354 0l-.196.196-.567-.567.027-.063.723-.723.763.763c.098.098.256.098.354 0s.098-.256 0-.354l-.763-.763 1.054-1.054.197.197c.098.098.256.098.354 0s.098-.256 0-.354l-.225-.225c.032-.088.031-.186-.04-.257s-.168-.072-.256-.04l-.573-.573 1.116-1.116.973.973c.098.098.256.098.354 0s.098-.256 0-.354l-.973-.973.952-.952.503.504-.149.149c-.098.098-.098.256 0 .353.098.098.256.098.354 0l1.149-1.149.749.749c.098.098.256.098.354 0s.098-.256 0-.354l-.749-.749.215-.215c.098-.098.098-.256 0-.353-.098-.098-.256-.098-.354 0l-.215.215-.412-.412c.552.012 1.104.025 1.656.037l.708.708-.721.721c-.098.098-.098.256 0 .353.098.098.256.098.353 0l.721-.721.318.318c.098.098.256.098.354 0s.098-.256 0-.354l-.318-.318.342-.342c.09-.09.087-.228.011-.326.204.005.407.009.611.014l.634.634-.701.7c-.098.098-.098.256 0 .354s.256.098.354 0l.701-.701.609.609c.098.098.256.098.354 0s.098-.256 0-.354l-.612-.607.591-.591 1.209.027c-.345.882-4.664 11.844-4.756 12.075-1.424 3.652-2.495 4.965-8.225 4.463zm10.098-6.49c.65-1.639 1.295-3.277 1.933-4.916 3.858.095 8.077.092 12.876-.01 1.206 3.061.751 1.906 2.076 5.271zm29.537 5.316s0 .001-.001.001c-.378.857-1.636 1.077-2.688 1.172-5.703.507-6.8-.804-8.227-4.462-5.859-14.885 1.32 3.354-4.65-11.813l1.157.029.378.378-.428.428c-.098.098-.098.256 0 .353.098.098.256.098.354 0l.428-.428.831.831-.163.163c-.098.098-.098.256 0 .354s.256.098.354 0l.163-.163.195.195c.098.098.256.098.354 0s.098-.256 0-.354l-.195-.195.656-.656 1.996 1.996c.098.098.256.098.354 0s.098-.256 0-.354l-.61-.61c.046-.01.094-.018.13-.054l1.113-1.113.837.837-1.121 1.121c-.098.098-.098.256 0 .354s.256.098.354 0l1.121-1.121.984.984c.049.049.113.073.177.073.007 0 .012-.007.019-.008l-.546.545-.196-.196c-.098-.098-.256-.098-.354 0s-.098.256 0 .354l.196.196-.57.57c-.098.098-.098.256 0 .354s.256.098.354 0l.57-.57.898.897-.682.682c-.098.098-.098.256 0 .354s.256.098.354 0l.682-.682.502.502c.098.098.256.098.354 0s.098-.256 0-.354l-.502-.502.524-.524.963.963-1.17 1.17c-.235-.174-.508.099-.334.335l-.174.174c-.098.098-.098.256 0 .354s.256.098.353 0l.165-.165 1.817 1.817c.098.098.256.098.353 0 .098-.098.098-.256 0-.353l-1.817-1.817 1.098-1.098c.975 2.252 1.948 4.505 2.927 6.76.344.798.659 1.633.363 2.296zm9.004-51.457c-.092 8.724-.192 17.983-.292 28.271-.071 5.852-1.542 7.651-7.914 7.496l-.164-.004c-2.034-.054-4.06-.106-6.091-.151-2.699-.075-4.889-.126-10.836-.274-3.115-.08-6.223-.15-9.338-.221-1.001-.024-6.75-.158-10.88-.244-1.67-.046-3.33-.083-5-.119-8.505-.185-11.243-2.323-11.422-11.012-.181-7.77.057-15.637.71-23.385.639-7.55 3.117-8.532 8.386-8.653l43.238-.93c7.8-.17 9.676 2.092 9.603 9.226z" fill="#707070" data-original="#000000" style=""/><path d="m56.992 32.881c-.818-.322-1.695-.299-2.57-.299-2.602-4.087-3.423-9.043-2.648-13.43.096-.542.439-1.421.605-2.013.413-.088.79-.218 1.118-.434 1.221-.831 1.479-2.375 1.577-3.92v-.001c.239-4.017-1.6-4.224-3.7-4.269-.137 0-.269.057-.363.156-.095.1-.144.233-.137.371.009.154.195 2.863.124 2.999-.163.3-1.445.299-1.648.063-.181-.204-.379-2.933-.406-3.227-.024-.252-.233-.447-.486-.453-.828-.018-1.666-.046-2.493-.073-.261-.016-.49.19-.515.454-.029.305-.231 3.09-.419 3.304-.199.23-1.476.237-1.639-.074-.069-.124.12-3.089.128-3.242.006-.135-.042-.267-.134-.365-.092-.099-.22-.156-.355-.159-2.54-.058-3.638.685-3.81 3.539-.082 1.159-.204 2.91.812 4.136.463.539 1.115.92 1.891 1.137.051 1.293.843 4.749-.472 9.829-.03.012-.064.012-.089.037-.095.095-.094.245-.004.343-.493 1.78-1.199 3.506-2.105 5.137-2.758-.195-3.694.898-3.684 2.156.006.692.358 1.362.897 1.823-.672.768-1.917 2.192-1.302 3.614.567 1.321 2.146 1.516 3.582 1.451 5.189-.228 10.378-.456 15.571-.675 1.345-.067 2.68-.283 3.332-1.394.421-.71.463-1.736-.182-2.857.551-.359 1.016-.941 1.036-1.661 0-.003 0-.005 0-.008.012-.947-.748-1.683-1.512-1.995zm-3.757-.301c-4.015-.009-8.045-.017-12.067-.017-.235 0-.577-.029-.814-.051.033-.062.059-.127.091-.189.11-.097 1.026-1.017 1.129-1.121l.737.737c.098.098.256.098.354 0s.098-.256 0-.354l-.737-.737 1.499-1.499c.121.097.245.074.329-.01.091-.091.088-.231.01-.329l.249-.249c.098-.098.098-.256 0-.354s-.256-.098-.354 0l-.241.243-.864-.865 1.935-1.935.034.034c.098.098.256.098.354 0s.098-.256 0-.353l-.034-.034.281-.281c.098-.098.098-.256 0-.354s-.256-.098-.354 0l-.281.281-.975-.975 1.233-1.234.311.311c.098.098.256.098.354 0s.098-.256 0-.354l-.311-.311.608-.608c.098-.098.098-.256 0-.353-.098-.098-.256-.098-.353 0l-.608.608-1.123-1.123 1.27-1.27.346.346c.098.098.256.098.354 0s.098-.256 0-.354l-.346-.346.267-.267c.098-.098.098-.256 0-.354s-.256-.098-.354 0l-.267.267-.68-.68c.091-.091 1.064-1.059 1.147-1.156h.089l1.046 1.046-.34.34c-.237.237.125.582.354.353l.34-.34.603.603c.098.098.256.098.354 0s.098-.256 0-.354l-.603-.603 1.049-1.049.901.901-.192.192c-.098.098-.098.256 0 .354s.256.098.354 0l.201-.201c.123.091.238.07.321-.013.089-.089.086-.224.013-.321l.933-.933c.168.003.338.005.513.001-1.532 4.636-.85 10.586 1.935 15.314zm-12.058-1.776.045.045-.124.124c.025-.057.054-.112.079-.169zm3.49-13.513-.804.804-.837-.837c.486.024 1.153.031 1.641.033zm2.891-.012-.705.705-.695-.695c.37-.002.543-.003 1.4-.01zm1.952.557-.569-.569c.431-.003.819-.005 1.143-.005zm-6.23 1.195c.098.098.256.098.354 0l.229-.229.68.68-1.27 1.27-.09-.09c-.016-.928-.066-1.801-.185-2.726l.512.512-.229.229c-.098.098-.098.256-.001.354zm-.221 4.681c.082-.75.121-1.503.132-2.258.02-.003.036-.015.054-.023l1.15 1.15-1.234 1.234zm-.105.725c.042.028.086.056.134.056.011 0 .02-.011.032-.013l1.018 1.018-1.725 1.725c.238-.917.41-1.849.541-2.786zm-.818 3.713c.019-.007.038-.011.055-.023l.876.877-1.492 1.492-.199-.199c.288-.705.539-1.421.76-2.147zm-1.919-16.279c.113-1.874.498-2.568 2.276-2.606-.031.597-.254 2.761.019 3.245.523 1.002 2.651.975 3.271.255.492-.556.431-1.431.617-3.401.529.017 1.06.034 1.589.047.18 1.913.12 2.799.606 3.348.622.721 2.737.758 3.285-.25.26-.499.058-2.371.023-2.983 1.371.046 2.348.249 2.172 3.195-.081 1.292-.276 2.567-1.135 3.152-.469.31-.997.368-1.557.388-.09-.063-.203-.063-.29.005-8.032.028-9.216.288-10.298-.97-.696-.84-.671-2.097-.578-3.425zm16.572 27.021s-.001.001-.001.001c-.413.703-1.456.849-2.517.902-5.189.219-10.379.447-15.57.675-1.464.073-2.347-.217-2.618-.848-.379-.877.63-1.975 1.255-2.698.771.288 1.77.314 2.586.304l14.871-.127c.545-.008 1.23-.032 1.76-.168.364.581.578 1.376.234 1.959zm-2.009-2.79-14.867.127c-1 .01-3.33.061-3.345-1.657-.015-1.793 3.106-1.01 4.6-1.01 5.669 0 14.407-.166 15.452.246.429.175.887.578.884 1.049-.037 1.087-1.642 1.23-2.724 1.245z" fill="#707070" data-original="#000000" style=""/><path d="m27.869 18.246c-3.05-.054-5.628 1.235-5.062 4.203.193 1.009.136 12.524.039 14.733-.029.66-.065 1.482.249 2.207.688 1.582 2.503 1.854 4.009 1.915 4.096.171 5.07-1.446 5.121-4.673l.223-14.284c.045-3.097-1.335-4.022-4.579-4.101zm2.242 1.631-.421-.421c.232.059.448.138.647.236-.022.011-.049.009-.068.028zm-1.233-.526.291.291-.502.502-.449-.449.135-.135c.081-.081.078-.197.025-.292.161.01.322.022.481.039.01.014.007.032.019.044zm-.921-.1-.092.092-.096-.096c.026.001.05-.001.076 0 .037 0 .074.003.112.004zm-1.369.9.398-.398c.098-.098.098-.256 0-.354s-.256-.098-.354 0l-.399.398-.352-.352c.365-.094.764-.157 1.195-.184l.434.434-.689.689zm-2.041 1.687c.098.098.256.098.354 0l.118-.118.235.235-1.118 1.118-.251-.251c-.012-.012-.029-.009-.042-.018-.015-.251-.032-.439-.052-.542-.121-.633-.053-1.151.189-1.581l.685.685-.118.118c-.098.098-.098.256 0 .354zm-.679 14.657c.009-.342.017-.754.024-1.221l.879.879-.623.622zm.036-2.068c.005-.399.01-.823.014-1.266l.626.626zm.024-2.699.348.348-.352.353c.002-.231.003-.465.004-.701zm.008-2.345.634.634-.637.637c.002-.422.003-.848.003-1.271zm-.007-2.601.655.655-.649.649c-.001-.446-.003-.882-.006-1.304zm-.042-2.831c.047-.009.095-.018.131-.054l.117-.117.89.89-1.105 1.105c-.008-.68-.019-1.298-.033-1.824zm.396-3.673c.265-.269.625-.492 1.063-.662l.535.535-.863.862zm7.164 2.054-.223 14.284c-.041 2.668-.551 3.831-4.08 3.689-1.289-.052-2.669-.249-3.132-1.314-.152-.35-.183-.772-.181-1.191l.318-.318.353.354c.098.098.256.098.353 0 .098-.098.098-.256 0-.354l-.353-.354 1.17-1.17c.098-.098.098-.256 0-.354s-.256-.098-.354 0l-.194.196-.943-.943.716-.716.067.067c.098.098.256.098.354 0s.098-.256 0-.354l-.067-.067.666-.666c.098-.098.098-.256 0-.354s-.256-.098-.354 0l-.666.666-.636-.636.402-.402c.087.024.144.049.24-.047.066-.066.071-.156.047-.24l.76-.76c.098-.098.098-.256 0-.354s-.256-.098-.353 0l-.727.727-.55-.55c.024-.012.052-.01.071-.03l.81-.81c.083.018.137.036.226-.053.063-.063.07-.146.053-.226l.596-.596c.098-.098.098-.256 0-.354s-.256-.098-.354 0l-.559.559-.93-.93.986-.986c.185.025.29-.105.268-.268l1.19-1.19c.098-.098.098-.256 0-.354s-.256-.098-.354 0l-1.147 1.147-.81-.81 1.26-1.26c.124.093.24.07.323-.013.089-.089.086-.225.013-.322l.481-.481c.098-.098.098-.256 0-.353-.098-.098-.256-.098-.354 0l-.472.472-.889-.89 1.117-1.117.219.219c.098.098.256.098.354 0s.098-.256 0-.354l-.219-.219.144-.145c.098-.098.098-.256 0-.354s-.256-.098-.353 0l-.145.145-.235-.235.863-.862 1.152 1.152c.098.098.256.098.354 0s.098-.256 0-.354l-.564-.565.689-.689.461.461c-.066.097-.069.225.017.311.084.084.188.1.311.017l.135.135c.098.098.256.098.354 0s.098-.256 0-.354l-.123-.123.502-.503.235.235-.131.131c-.098.098-.098.256 0 .354s.256.098.353 0l.131-.131.031.031c.098.098.256.098.354 0s.098-.256 0-.354l-.031-.031.157-.157c.046-.046.066-.106.069-.166.776.587.773 1.447.758 2.431z" fill="#707070" data-original="#000000" style=""/><path d="m13.667 24.724c-1.131-.02-3.846.089-4.808 1.494-.172.252-.226.65-.194 7.322.01 2.103.02 4.09-.018 4.695-.03.474-.07 1.124.282 1.695.698 1.136 2.404 1.334 3.981 1.379 3.118.086 5.047-.397 5.115-3.442l.223-10.093c.058-2.556-1.77-3.002-4.581-3.05zm.46 1.013-.045.045-.047-.047c.031 0 .061 0 .092.002zm-4.453 10.565c0-.3 0-.621-.001-.961l.481.481zm-.027 2.68c-.024-.198-.018-.422-.002-.685.007-.116.013-.287.017-.482l.576.576zm.015-6.07c0-.12-.001-.24-.002-.362l.182.182zm-.004-1.071c-.001-.239-.001-.478-.002-.717.003.06.023.12.069.167.098.098.256.098.353 0l.571-.571.603.603-1.057 1.057zm.067-.904c-.046.046-.066.106-.069.167-.001-.471-.001-.935 0-1.378l.64.64zm7.523-3.186-.223 10.093c-.033 1.501-.2 2.583-4.086 2.464-.699-.019-2.503-.077-3.087-.825l.74-.74c.13.13.28.116.375.021.098-.098.098-.256 0-.354l-.021-.021 1.206-1.206c.098-.098.098-.256 0-.354s-.256-.098-.353 0l-1.206 1.206-.92-.92c0-.034 0-.071.001-.106l.835-.835.151.151c.098.098.256.098.354 0s.098-.256 0-.354l-.151-.151.939-.939c.098-.098.098-.256 0-.354s-.256-.098-.353 0l-.939.939-.84-.834c-.001-.329-.003-.667-.005-1.016l.53-.53.565.564c.098.098.256.098.353 0 .098-.098.098-.256 0-.354l-.564-.564 1.199-1.199c.098-.098.098-.256 0-.354 0 0-.001 0-.002-.001-.011-.042-.016-.086-.049-.118l-.694-.694.639-.639c.098-.098.098-.256 0-.354s-.256-.098-.354 0l-.639.639-.99-.99c.006-.854.019-1.566.043-1.987l.917.917-.745.745c-.098.098-.098.256 0 .354s.256.098.354 0l.745-.745.61.61c.098.098.256.098.353 0 .098-.098.098-.256 0-.354l-.61-.61.475-.475c.098-.098.098-.256 0-.354s-.256-.098-.353 0l-.476.475-1.056-1.056c.216-.181.519-.336.894-.461l1.921 1.919c.098.098.256.098.354 0s.098-.256 0-.353l-1.718-1.717c.561-.125 1.224-.195 1.954-.202l.408.408-.757.757c-.098.098-.098.256 0 .354s.256.098.354 0l.757-.757.733.733c.098.098.256.098.353 0 .098-.098.098-.256 0-.354l-.733-.733.181-.181c.051-.051.072-.118.07-.185.319.025.635.062.929.119l-.5.5c-.098.098-.098.256 0 .354s.256.098.353 0l.507-.507.613.613c.098.098.256.098.354 0s.098-.256 0-.353l-.141-.141c.46.355.46.796.446 1.396z" fill="#707070" data-original="#000000" style=""/><path d="m23.369 7.546v1.647c0 .138.112.25.25.25s.25-.112.25-.25v-1.647h3.173v1.575c0 .138.112.25.25.25s.25-.112.25-.25v-1.575h1.867v1.062c0 .138.112.25.25.25s.25-.112.25-.25v-1.062h.569c.138 0 .25-.112.25-.25s-.112-.25-.25-.25h-.569v-.648c0-.138-.112-.25-.25-.25s-.25.112-.25.25v.648h-1.867v-.811c0-.138-.112-.25-.25-.25s-.25.112-.25.25v.811h-3.173v-.567c0-.138-.112-.25-.25-.25s-.25.112-.25.25v.566h-2.03v-1.137c0-.138-.112-.25-.25-.25s-.25.112-.25.25v1.138h-2.683v-1.464c0-.138-.112-.25-.25-.25s-.25.112-.25.25v1.464h-4.157c-.138 0-.25.112-.25.25s.112.25.25.25h4.157v1.302c0 .138.112.25.25.25s.25-.112.25-.25v-1.302h2.683v1.563c0 .138.112.25.25.25s.25-.112.25-.25v-1.563z" fill="#707070" data-original="#000000" style=""/></g></g></svg>
