<?xml version="1.0" encoding="utf-8"?>
<!-- Generator: Adobe Illustrator 25.0.1, SVG Export Plug-In . SVG Version: 6.00 Build 0)  -->
<svg version="1.1" id="Layer_1" xmlns="http://www.w3.org/2000/svg" xmlns:xlink="http://www.w3.org/1999/xlink" x="0px" y="0px"
	 viewBox="0 0 400 400" style="enable-background:new 0 0 400 400;" xml:space="preserve">
<style type="text/css">
	.st0{fill:#F64E60;}
</style>
<g>
	<path class="st0" d="M263.6,375.6c7.3-7.3,17.6-49.1,8.3-74.4c-5-13.5-14.9-21.3-28.7-22.5c-6.5-0.5-119.8-5.6-151.8-5.7
		c-9.3,0-28.7-0.1-37.8,17.3c-8.3,15.8-7,59.3,2.2,74.2c9,14.5,25.6,14.7,34.5,14.8c4.1,0,158.4,2.9,162.3,2.3
		C256.7,380.9,260.3,379,263.6,375.6L263.6,375.6z M63.9,289.1c0.1,0.3,0.1,0.6,0.3,0.8l5.6,5.6l-11.7,11.7c-0.4,0-0.9,0.2-1.2,0.5
		c-0.2,0.2-0.2,0.4-0.3,0.7c0.6-5.4,1.7-10.3,3.8-14.5C61.5,292,62.6,290.5,63.9,289.1z M99.2,324.9L88,336.1l-13-13l11.2-11.2
		L99.2,324.9z M72.2,320.3l-10.9-10.9l11.2-11.2l10.9,10.9L72.2,320.3z M62.4,360.4c-7.2-11.6-6.7-41.4-6-50
		c0.1,0.3,0.1,0.6,0.4,0.9c0.4,0.4,0.9,0.6,1.5,0.5L69.5,323l-8.2,8.2c-0.8,0.8-0.8,2,0,2.7c0.8,0.8,2,0.8,2.7,0l8.2-8.2l13.1,13.1
		L75.2,349l-14.8-14.8c-0.8-0.8-2-0.8-2.7,0c-0.8,0.8-0.8,2,0,2.7l14.8,14.8l-0.6,0.6c-0.8,0.8-0.8,2,0,2.7c0.8,0.8,2,0.8,2.7,0
		l0.6-0.6l14.4,14.4c0.8,0.8,2,0.8,2.7,0c0.8-0.8,0.8-2,0-2.7l-14.4-14.4L88,341.6l8.6,8.6c0.8,0.8,2,0.8,2.7,0c0.8-0.8,0.8-2,0-2.7
		l-8.6-8.6l11.2-11.2l1.8,1.8c0.8,0.8,2,0.8,2.7,0c0.8-0.8,0.8-2,0-2.7l-17.6-17.6l6-6c0.8-0.8,0.8-2,0-2.7c-0.8-0.8-2-0.8-2.7,0
		l-6,6l-10.9-10.9l6.3-6.3c0.8-0.8,0.8-2,0-2.7c-0.8-0.8-2-0.8-2.7,0l-6.3,6.3l-5.6-5.6c-0.2-0.2-0.5-0.2-0.7-0.3
		c6.1-4.9,14.7-6.1,25.2-6.1c31.9,0.1,144.7,5.2,151.2,5.7c10.9,0.9,18.1,6.6,22.1,17.4c8.6,23.5-2.2,62-6.5,66.3
		c-2.2,2.2-4.3,3.4-6.7,3.8c-4.6,0.5-127.9-1.9-132.5-2c0-0.1,0-0.1-0.1-0.2l20.1-20.1c0.8-0.8,0.8-2,0-2.7c-0.8-0.8-2-0.8-2.7,0
		l-10.6,10.6c0.3-0.7,0.3-1.6-0.2-2.1l-12.2-12.2l3.8-3.8c0.8-0.8,0.8-2,0-2.7c-0.8-0.8-2-0.8-2.7,0l-3.8,3.8l-5.2-5.2
		c-0.8-0.8-2-0.8-2.7,0c-0.8,0.8-0.8,2,0,2.7l5.2,5.2l-13.5,13.5c-0.8,0.8-0.8,2,0,2.7c0.8,0.8,2,0.8,2.7,0l3.3-3.3
		c0,0,0,0.1,0.1,0.1l13.3,13.3l-0.1,0.1c0,0,0,0.1-0.1,0.1c-8.5-0.1-16.3-0.2-23-0.3C79.6,371.4,68.6,370.4,62.4,360.4L62.4,360.4z
		 M102.8,355.4l7.6-7.6l12.2,12.2c0.6,0.6,1.4,0.6,2.1,0.2l-8.5,8.5L103,355.5C102.9,355.5,102.9,355.5,102.8,355.4L102.8,355.4z"/>
</g>
<g>
	<path class="st0" d="M337.5,247.8c13.9-10.3,38.5-93.3-26.5-97.3c-8.8-0.5-162.3-5.6-205.6-5.7c-19.6,0-39.1,2-49.8,16.9
		c-11.4,16-9.5,60.3,3,75.1c10.9,13,29.1,14.2,45.3,14.3c48,0.4,214.7,2.9,219.7,2.3C328.6,252.8,333.2,250.9,337.5,247.8
		L337.5,247.8z M76.1,238.9l3.8-3.8l7.3,7.3c-4.2-0.6-8.3-1.6-12-3.1C75.6,239.1,75.9,239.1,76.1,238.9L76.1,238.9z M160,244l10-10
		l10.3,10.3C173.4,244.1,166.6,244,160,244L160,244z M310.5,158.3c56.5,3.5,30.9,76.9,22.3,83.3c-3.2,2.4-6.4,3.7-10.2,4.1
		c-5.1,0.5-114.6-1.1-138.3-1.4c0.2-0.6,0.1-1.3-0.4-1.8l-11.2-11.2l4.5-4.5c0.8-0.8,0.8-2,0-2.7s-2-0.8-2.7,0l-4.5,4.5l-6.7-6.7
		c-0.8-0.8-2-0.8-2.7,0s-0.8,2,0,2.7l6.7,6.7l-9.7,9.7c0.4-0.7,0.4-1.6-0.2-2.2l-8.9-8.9l4.5-4.5c0.8-0.8,0.8-2,0-2.7s-2-0.8-2.7,0
		l-4.5,4.5l-7.4-7.4c-0.8-0.8-2-0.8-2.7,0s-0.8,2,0,2.7l7.4,7.4l-4.3,4.3c-0.8,0.8-0.8,2,0,2.7s2,0.8,2.7,0l4.3-4.3l8.9,8.9
		c0.6,0.6,1.5,0.6,2.2,0.2l-1.9,1.9c-0.1,0.1-0.1,0.2-0.2,0.4c-19.1-0.2-36.7-0.4-50.9-0.6c-3.7,0-7.5-0.1-11.3-0.4
		c-0.1-0.4-0.2-0.8-0.5-1.1l-9.5-9.5l11.2-11.2l6.5,6.5c0.8,0.8,2,0.8,2.7,0c0.8-0.8,0.8-2,0-2.7l-6.5-6.5l13.4-13.4l10.8,10.8
		c0.8,0.8,2,0.8,2.7,0c0.8-0.8,0.8-2,0-2.7l-10.8-10.8l7.1-7.1c0.8-0.8,0.8-2,0-2.7s-2-0.8-2.7,0l-7.1,7.1l-11.2-11.2l7.1-7.1
		c0.8-0.8,0.8-2,0-2.7s-2-0.8-2.7,0l-7.1,7.1l-13-13.4l6-6c0.8-0.8,0.8-2,0-2.7s-2-0.8-2.7,0l-6,6l-10.6-10.6
		c9.3-5.6,22.5-6.6,35.7-6.5C148.6,152.6,301.8,157.7,310.5,158.3L310.5,158.3z M68.7,218.3l11.2-11.2l11.2,11.2l-11.2,11.2
		L68.7,218.3z M80.3,175.2l13.1,13.1L80,201.7l-13.1-13.1L80.3,175.2z M96.1,191l11.2,11.2l-13.4,13.4l-11.2-11.2L96.1,191z
		 M64.5,231.8c-10.1-12-11.9-52.5-2.6-65.6c1.3-1.9,2.9-3.4,4.6-4.8l11,11L61,188.9c-0.8,0.8-0.8,2,0,2.7s2,0.8,2.7,0l0.4-0.4
		l13.1,13.1L66,215.6l-1.9-1.9c-0.8-0.8-2-0.8-2.7,0s-0.8,2,0,2.7l15.9,15.9l-3.8,3.8c-0.8,0.8-0.6,1.5-0.2,2.2
		C69.9,236.7,66.9,234.6,64.5,231.8L64.5,231.8z"/>
</g>
<g>
	<path class="st0" d="M234.3,120.3c6-7,16.3-51.7,5.8-77.6c-4.6-11.4-12.8-18-23.8-19c-5.6-0.5-102.9-5.6-130.4-5.7
		c-8.1,0-25.1-0.1-33.1,17.5c-7,15.6-6,59,1.9,73.8c7.8,14.7,22.4,14.9,30.2,15c16.9,0.2,41.7,0.7,65.7,1.3
		c50.6,1.1,71.4,1.5,73.9,1C228.1,125.8,231.3,123.8,234.3,120.3L234.3,120.3z M85.8,25.7c27.3,0.1,124.2,5.2,129.7,5.7
		c8.2,0.8,13.8,5.4,17.4,14.2c9.3,23-0.4,64.9-4.5,69.7c-2.3,2.7-4.2,3.4-5.3,3.6c-3.1,0.4-40-0.4-72.4-1.1
		c-5.2-0.1-10.4-0.2-15.5-0.3l5.8-5.8l3.8,3.8c0.8,0.8,2,0.8,2.7,0c0.8-0.8,0.8-2,0-2.7l-3.8-3.8l2.7-2.7c0.8-0.8,0.8-2,0-2.7
		s-2-0.8-2.7,0l-2.7,2.7l-7.1-7.1c-0.8-0.8-2-0.8-2.7,0s-0.8,2,0,2.7l7.1,7.1l-8.4,8.4c-15.8-0.3-30.7-0.6-42.4-0.8l-5.1-5.1
		L101,92.9l12,12l-8.2,8.2c-0.8,0.8-0.8,2,0,2.7c0.8,0.8,2,0.8,2.7,0l8.2-8.2l6.1,6.1c0.8,0.8,2,0.8,2.7,0s0.8-2,0-2.7l-6.1-6.1l6-6
		c0.8-0.8,0.8-2,0-2.7s-2-0.8-2.7,0l-6,6L103.5,90c0.2-0.7,0.1-1.3-0.4-1.8s-1.2-0.6-1.8-0.4l-4-4c-0.8-0.8-2-0.8-2.7,0
		s-0.8,2,0,2.7l3.8,3.8L92.7,96l-12-12l10.8-10.8c0.3-0.3,0.4-0.7,0.4-1c0.4-0.1,0.8-0.1,1.1-0.4c0.8-0.8,0.8-2,0-2.7L76.8,53
		l1.9-1.9c0.8-0.8,0.8-2,0-2.7s-2-0.8-2.7,0l-2,1.8l-6.8-6.8l5.6-5.6c0.8-0.8,0.8-2,0-2.7s-2-0.8-2.7,0l-5.6,5.6L60.8,37
		C65.8,27.7,74.2,25.6,85.8,25.7L85.8,25.7z M56.8,85.9c-0.4-4.3-0.5-8.6-0.6-12.4l4.3-4.3L75,83.9L64.9,94L56.8,85.9z M62.1,96.7
		l-2.9,2.9c-0.7-2.4-1.2-4.9-1.6-7.5L62.1,96.7z M57,50.1c0.1,0.2,0.1,0.4,0.2,0.6c0.8,0.8,2,0.8,2.7,0l4.6-4.6l6.8,6.8l-10.8,11
		l-4.3-4.3C56.3,56.3,56.5,53.1,57,50.1L57,50.1z M57.3,47.9c0.4-2.5,1.1-4.9,1.9-7.1l2.6,2.6L57.3,47.9z M88.6,70.3
		C88.6,70.3,88.5,70.3,88.6,70.3L77.7,81.1L63.2,66.6l10.9-10.9L88.6,70.3z M57.7,66.6l-1.6,1.6c0-1.1,0-2.2-0.1-3.3L57.7,66.6z
		 M77.7,86.6l12,12l-10.1,10.1l-12-12L77.7,86.6z M61.5,105.6c-0.3-0.6-0.6-1.3-0.9-1.9l4.2-4.2l16.9,16.9
		C73.6,116,66.2,114.3,61.5,105.6z"/>
</g>
<g>
	<path class="st0" d="M114.5,225.9l-8.5-8.5c-0.8-0.8-2-0.8-2.7,0s-0.8,2,0,2.7l8.5,8.5l-6.5,6.5c-0.8,0.8-0.8,2,0,2.7s2,0.8,2.7,0
		l6.5-6.5l8.9,8.9c0.8,0.8,2,0.8,2.7,0s0.8-2,0-2.7l-8.9-8.9l11.5-11.5c0.8-0.8,0.8-2,0-2.7c-0.8-0.8-2-0.8-2.7,0L114.5,225.9z"/>
</g>
<g>
	<path class="st0" d="M78.5,365.5l-15.2-15.2c-0.8-0.8-2-0.8-2.7,0c-0.8,0.8-0.8,2,0,2.7l15.2,15.2c0.8,0.8,2,0.8,2.7,0
		C79.2,367.5,79.2,366.3,78.5,365.5z"/>
</g>
<g>
	<path class="st0" d="M231.1,311v-10.5h7.9c1.1,0,1.9-0.9,1.9-1.9c0-1.1-0.9-1.9-1.9-1.9h-7.9v-4.1c0-1.1-0.9-1.9-1.9-1.9
		c-1.1,0-1.9,0.9-1.9,1.9v4.1h-14.5c-0.2-0.8-0.9-1.5-1.8-1.5s-1.6,0.7-1.8,1.5h-6.9v-3.4c0-1.1-0.9-1.9-1.9-1.9
		c-1.1,0-1.9,0.9-1.9,1.9v3.4h-12V294c0-1.1-0.9-1.9-1.9-1.9c-1.1,0-1.9,0.9-1.9,1.9v2.6h-2.9c-1.1,0-1.9,0.9-1.9,1.9
		c0,1.1,0.9,1.9,1.9,1.9h2.9v5.1c0,1.1,0.9,1.9,1.9,1.9c1.1,0,1.9-0.9,1.9-1.9v-5.1h12v3.8c0,1.1,0.9,1.9,1.9,1.9
		c1.1,0,1.9-0.9,1.9-1.9v-3.8h6.7v7.3c0,1.1,0.9,1.9,1.9,1.9c1.1,0,1.9-0.9,1.9-1.9v-7.3h14.3V311c0,1.1,0.9,1.9,1.9,1.9
		C230.2,312.9,231.1,312,231.1,311z"/>
</g>
<g>
	<path class="st0" d="M294.7,160.6v7.9h-17.3v-6.4c0-1.1-0.9-1.9-1.9-1.9s-1.9,0.9-1.9,1.9v6.4h-17.4v-4.9c0-1.1-0.9-1.9-1.9-1.9
		c-1.1,0-1.9,0.9-1.9,1.9v4.9h-15.8v-1.9c0-1.1-0.9-1.9-1.9-1.9c-1.1,0-1.9,0.9-1.9,1.9v1.9h-4.4c-1.1,0-1.9,0.9-1.9,1.9
		s0.9,1.9,1.9,1.9h4.4v4.6c0,1.1,0.9,1.9,1.9,1.9c1.1,0,1.9-0.9,1.9-1.9v-4.6h15.8v3.6c0,1.1,0.9,1.9,1.9,1.9c1.1,0,1.9-0.9,1.9-1.9
		v-3.6h17.4v7.5c0,1.1,0.9,1.9,1.9,1.9s1.9-0.9,1.9-1.9v-7.5h17.3v9.4c0,1.1,0.9,1.9,1.9,1.9s1.9-0.9,1.9-1.9v-9.4h10.2
		c1.1,0,1.9-0.9,1.9-1.9s-0.9-1.9-1.9-1.9h-10.2v-7.9c0-1.1-0.9-1.9-1.9-1.9S294.7,159.5,294.7,160.6z"/>
</g>
<g>
	<path class="st0" d="M196.1,37.8v6.4h-15.8v-2.6c0-1.1-0.9-1.9-1.9-1.9c-1.1,0-1.9,0.9-1.9,1.9v2.6h-9V40c0-1.1-0.9-1.9-1.9-1.9
		c-1.1,0-1.9,0.9-1.9,1.9v4.1h-7.4c-1.1,0-1.9,0.9-1.9,1.9s0.9,1.9,1.9,1.9h7.4v8.7c0,1.1,0.9,1.9,1.9,1.9c1.1,0,1.9-0.9,1.9-1.9V48
		h9v8.8c0,1.1,0.9,1.9,1.9,1.9c1.1,0,1.9-0.9,1.9-1.9V48h15.8v10.1c0,1.1,0.9,1.9,1.9,1.9c1.1,0,1.9-0.9,1.9-1.9V48h7.9
		c1.1,0,1.9-0.9,1.9-1.9s-0.9-1.9-1.9-1.9H200v-6.4c0-1.1-0.9-1.9-1.9-1.9C197,35.8,196.1,36.7,196.1,37.8z"/>
</g>
</svg>
