<?xml version="1.0"?>
<svg xmlns="http://www.w3.org/2000/svg" xmlns:xlink="http://www.w3.org/1999/xlink" xmlns:svgjs="http://svgjs.com/svgjs" version="1.1" width="512" height="512" x="0" y="0" viewBox="0 0 66 66" style="enable-background:new 0 0 512 512" xml:space="preserve" class=""><g><g xmlns="http://www.w3.org/2000/svg"><path d="m23.01 50.627c10.4 5.033 37.697-3.11 28.188-23.696-2.558-5.527-8.453-11.453-9.978-12.826 1.511-1.879 4.686-6.673 4.491-9.034-.122-1.288-1.31-3.209-4.073-1.353-1.184.795-1.897 1.254-3.71-.649-2.194-2.33-3.586-2.562-6.217-.152-2.629 2.352-3.024.668-4.634.151-2.077-.676-4.765 1.426-3.872 4.962.551 2.171 3.064 5.725 4.699 7.3-7.696 5.395-13.725 13.205-13.096 22.398.376 5.614 3.595 10.677 8.202 12.899zm5.86-34.75c.006-.004.129-.09.135-.094.254-.192.267-.57.027-.777-2.11-1.831-4.431-5.548-4.857-7.222-.693-2.741 1.246-4.205 2.594-3.764 1.252.403 2.406 2.511 5.613-.361 2.248-2.055 3.015-1.819 4.867.148 2.196 2.306 3.494 1.718 4.947.741.584-.393 1.086-.729 1.605-.623.533.109.864.707.914 1.235.153 1.833-2.74 6.522-4.571 8.677-.178.21-.153.525.057.704 1.509 1.288 7.522 7.26 10.09 12.809 9.072 19.642-17.259 27.01-26.845 22.376-4.289-2.069-7.287-6.805-7.638-12.066-.614-8.946 5.379-16.503 13.062-21.783z" fill="#707070" data-original="#000000" style=""/><path d="m30.729 41.593c.494.122.957.218 1.401.292-.271 1.349-.468 2.992.633 3.817 1.162.87 2.903.437 3.717-1.191.281-.554.435-1.21.47-2.015.005-.208.006-.457-.017-.718 1.668-.442 3.057-1.357 3.944-2.607 0-.001.001-.001.002-.002 1.166-1.66 1.287-3.917.293-5.49-1.848-2.894-6.657-2.794-7.81-4.799-.678-1.159.358-2.289 2.191-1.25.994.565 1.837 1.279 2.995 1.26 1.897-.022 3.109-2.097 2.303-3.603-.527-.985-1.872-1.715-4.002-2.172.758-3.889-2.325-5.199-3.965-3.312-.679.8-.831 2.01-.913 3.082-1.149.223-2.172.687-2.978 1.353-1.779 1.455-2.427 3.955-1.508 5.814 1.906 3.858 7.397 2.453 8.532 5.122.553 1.31-.481 2.739-1.87 2.656-.984-.062-1.956-.917-2.76-1.525-3.863-2.822-6.082 1.028-4.208 3.401.895 1.134 2.299 1.591 3.55 1.887zm2.778 3.389c.034-.012.072-.014.099-.041l.775-.774.622.622c-.52.415-1.048.441-1.496.193zm2.762-4.074c-.132.027-.247.106-.32.22s-.097.251-.066.382c.075.323.076.684.069.952-.028.65-.147 1.172-.364 1.6-.068.135-.148.258-.235.372l-.62-.62.668-.668c.036.018.069.045.108.045.064 0 .128-.024.177-.073.079-.079.077-.191.028-.285l.02-.02c.098-.098.098-.256 0-.354-.098-.097-.256-.097-.353 0l-.674-.675c-.009-.009-.023-.006-.033-.014l1.784-1.784.67.669c-.28.095-.559.191-.859.253zm3.793-2.316c-.218.307-.477.586-.764.843-.011-.041-.016-.083-.048-.115l-.663-.663.948-.948.549.55c.039.039.091.051.142.059-.053.091-.102.186-.164.274zm-6.77-17.487c.09-.25.202-.476.351-.651.044-.051.097-.09.147-.134l.33.33-.641.641zm-4.337 8.214-.842-.842c-.008-.008-.019-.005-.028-.011-.009-.128-.006-.255 0-.384.014.003.026.017.041.017.064 0 .128-.024.177-.073l.415-.415.972.973zm-.572.289c-.039-.079-.057-.162-.088-.243l.307.307-.113.113c-.035-.058-.076-.115-.106-.177zm-.219-2.15c.023-.11.042-.22.074-.327l.127.127zm.269-.839c.175-.396.404-.761.674-1.081l.489.488-.878.878zm2.363 10.492c1.032.78 2.025 1.637 3.293 1.717 2.086.134 3.701-2.027 2.85-4.044-1.326-3.117-6.002-1.901-8.162-4.579l.199-.199c.237.119.422-.096.313-.313l.887-.887c.081-.081.079-.199.024-.294.013-.184-.997-1.123-1.128-1.255l.878-.878c.119.119.333.383.487.383.221 0 .334-.269.177-.427l-.31-.31.798-.798c.098-.098.098-.256 0-.353-.098-.098-.256-.098-.354 0l-.798.798-.495-.495c.059-.055.113-.117.174-.167.349-.288.744-.523 1.173-.715.117.117 1.287 1.348 1.452 1.348.064 0 .128-.024.177-.073.098-.098.098-.256 0-.354l-1.116-1.116c.377-.128.771-.233 1.198-.293.127-.018.235-.09.313-.188l.063.063-.676.676c-.233.233.12.587.354.354l.676-.676c.338.338.688-.019.353-.354.23-.231.573-.47.345-.699-.098-.098-.256-.098-.354 0l-.345.345-.279-.279c.019-.256.043-.527.077-.8.021.006.038.025.06.025.064 0 .128-.024.177-.073l.202-.202.396.396c.098.098.256.098.354 0 .236-.236-.153-.506-.396-.749l.641-.641c.227.227.461.552.683.33.098-.098.098-.256 0-.354l-.344-.344c.061-.097.064-.22-.02-.305-.084-.084-.208-.081-.305-.02l-.27-.27c.21-.084.428-.11.627-.071.354.083.697.389.89.789.324.709.26 1.868.025 2.588-.094.291.091.593.385.646 2.061.378 3.419 1.005 3.825 1.765.457.856-.297 2.119-1.436 2.132-.813.045-1.759-.715-2.487-1.13-2.805-1.592-4.701.654-3.549 2.622 1.418 2.465 6.203 2.284 7.831 4.833.189.3.324.633.41.984l-.201.2-.174-.174c-.098-.098-.256-.098-.354 0s-.098.256 0 .353l.174.174-.324.324c-.098.098-.098.256 0 .354s.256.098.354 0l.324-.324.209.209c.026.026.062.027.094.039-.031.528-.169 1.058-.399 1.557-.002-.002-.001-.006-.003-.008l-.926-.926c-.098-.098-.256-.098-.354 0s-.098.256 0 .354l.023.023-.948.948-.124-.124c-.098-.098-.256-.098-.354 0s-.098.256 0 .354l.124.124c-.285.285-.888.715-.625.978.049.049.113.073.177.073.161 0 .679-.576.801-.698l.663.663c.015.015.036.012.053.022-.393.3-.827.562-1.309.768l-.832-.832c-.08-.08-.195-.077-.29-.026-.006-.007-.003-.018-.01-.024-.098-.098-.256-.098-.354 0l-1.903 1.903c-.098.098-.098.256 0 .354.018.018.045.016.067.028-.041.092-.042.197.034.273l.674.674-.646.647-.124-.124c-.098-.098-.256-.098-.354 0s-.098.256 0 .354l.124.124-.775.774c-.041.041-.054.094-.061.147-.291-.336-.28-.622-.256-1.012.205-3.383 1.169-2.33-1.971-3.102-1.088-.258-2.295-.642-3-1.534-1.145-1.452-.091-4.115 2.833-1.976z" fill="#707070" data-original="#000000" style=""/><path d="m64.857 62.294c-1.307-7.179-1.274-8.367-2.274-9.021-.252-.164-.68-.331-1.291-.182-.168.042-.474.119-2.176 1.738l-4.568-4.879c-.353-.378-.791-.85-1.37-1.155-2.263-1.156-5.077.911-4.613 3.901.31 1.919 1.856 3.291 3.413 4.529l2.554 2.039c-.425.351-1.186 1.048-1.112 1.973.035.56.389 1.098.938 1.432.431.273.919.398 1.376.515l6.542 1.655c1.996.534 2.961-.413 2.581-2.545zm-1.823-4.394-.106-.106.073-.073c.011.06.022.12.033.179zm-8.616 3.266c-.035-.435.435-.875.846-1.207.098-.079.226-.196.382-.343.168-.157.195-.566-.086-.805l-2.959-2.367c-1.462-1.164-2.796-2.339-3.049-3.904-.337-2.169 1.637-3.638 3.165-2.857.673.355 5.494 5.644 6.014 6.199.173.185.492.234.713.018 1.667-1.612 2.054-1.821 2.086-1.837.312-.076.458.017.504.048.491.321.586 1.556.833 2.893l-.032.174-.263.263-.422-.422c-.098-.098-.256-.098-.354 0s-.098.256 0 .354l.422.422-.333.333c-.158.158-.044.427.177.427.064 0 .128-.024.177-.073l.333-.333.618.618c.227 1.234.455 2.469.68 3.705.274 1.537-.197 1.707-1.343 1.402-.002 0-.004-.001-.006-.002l-1.036-.262c.064 0 .128-.024.177-.073l.444-.444c.196.196.373.431.579.225.204-.204-.022-.376-.225-.579l.829-.829c.098-.098.098-.256 0-.354s-.256-.098-.354 0l-.089.089c-.01-.044-.017-.089-.051-.123l-.801-.801c.287-.287.897-.724.634-.987-.098-.098-.256-.098-.354 0l-.634.634-1.309-1.309c-.098-.098-.256-.098-.354 0s-.098.256 0 .354l.067.067-1.686 1.686-.732-.732c-.035-.035-.082-.042-.126-.052l.396-.396c.098-.098.098-.256 0-.354s-.256-.098-.354 0l-1.401 1.401-.377-.377c-.098-.098-.256-.098-.354 0s-.098.256 0 .354l.377.377-.582.582c-.11-.045-.225-.085-.322-.147-.266-.165-.45-.419-.465-.656zm2.805-.505c.01.045.017.091.052.126l.732.732-.688.688-.822-.822zm.451 1.901-.001-.001.689-.688 1.011 1.011c.012.025.01.055.031.076s.05.019.076.031l.148.148-1.916-.485c-.012-.031-.012-.066-.038-.092zm3.615-1.841-.422.422-.888-.888.422-.422zm.354.354.801.801c.034.034.079.041.123.051l-.459.458-.888-.888zm-2.018-.466.888.888-.91.91-.888-.888zm.669 2.489-.338-.338.91-.91.888.888-.444.444c-.098.098-.098.256 0 .354.049.049.113.073.177.073l-1.139-.288c.017-.079.008-.161-.054-.223zm-4.558-.95.408-.408.693.693-.882-.223c-.075-.02-.145-.042-.219-.062z" fill="#707070" data-original="#000000" style=""/><path d="m10.247 2.815-6.541-1.655c-1.932-.515-2.974.336-2.582 2.546.444 2.436.887 4.862 1.339 7.294.234 1.308.953 2.213 2.224 1.909.181-.045.475-.119 2.177-1.738 4.51 4.817 5.048 5.564 5.938 6.034 1.128.576 2.575.328 3.517-.548.873-.801 1.293-2.085 1.097-3.353-.311-1.919-1.856-3.289-3.413-4.529l-2.554-2.039c1.679-1.39 1.662-3.189-1.202-3.921zm3.016 13.502c-.193-.102-.371-.24-.54-.391l.614-.614.61.61c-.211.236.11.557.346.347l.208.208c-.428.076-.868.029-1.238-.16zm.427-1.358.895-.895.607.607-.895.895zm-2.974-8.917c-.098.079-.226.195-.382.342-.169.159-.193.567.088.808l2.957 2.364c.698.556 1.363 1.115 1.898 1.716l-.236.236-.448-.448c-.098-.098-.256-.098-.353 0-.098.098-.098.256 0 .353l.447.448-.159.159c-.098.098-.098.256 0 .354s.256.098.354 0l.159-.159.7.7c.098.098.256.098.353 0 .098-.098.098-.256 0-.353l-.7-.7.2-.2c1.535 2.01.828 4.073-.623 4.667-.006-.054-.021-.109-.062-.151l-.259-.259.907-.907c.042.029.087.057.137.057.064 0 .128-.024.177-.073.098-.098.098-.256 0-.354l-.932-.932.035-.035c.098-.098.098-.256 0-.354s-.256-.098-.354 0l-.035.035-.327-.327c-.098-.098-.256-.098-.353 0-.098.098-.098.256 0 .353l.327.327-.895.895-.375-.375c-.098-.098-.256-.098-.353 0-.098.098-.098.256 0 .353l.375.375-.62.62c-.068-.071-.135-.142-.199-.211l-4.915-5.25c-.092-.096-.219-.153-.354-.157-.004 0-.008 0-.013 0-.129 0-.254.05-.348.141-1.588 1.535-2.701 2.893-3.089.721-.451-2.434-.895-4.86-1.338-7.292-.286-1.616.26-1.673 1.35-1.401l6.566 1.662c1.926.492 1.936 1.244.692 2.252z" fill="#707070" data-original="#000000" style=""/><path d="m62.286 1.134c-2.436.443-4.862.887-7.294 1.339-1.309.234-2.215.957-1.909 2.226.058.231.251.613 1.738 2.176-4.824 4.516-5.565 5.049-6.034 5.938-1.027 2.015.51 4.66 3.283 4.66.205 0 .412-.016.618-.047 1.919-.31 3.29-1.856 4.529-3.413l2.039-2.555c.352.426 1.064 1.189 1.974 1.112.561-.035 1.097-.389 1.432-.938.273-.431.398-.919.515-1.376l1.656-6.541c.118-.444.362-1.365-.171-2.053-.653-.836-1.861-.623-2.376-.528zm1.671 1.901-.362-.362.15-.15c.088-.088.085-.22.015-.318.036.026.086.037.113.071.137.177.134.46.084.759zm-12.871 13.258.328-.328.494.495c-.285-.017-.56-.074-.822-.167zm3.471-3.472.586.586-1.429 1.429-.586-.586zm-1.196 2.369-.092.092c-.098.098-.098.256 0 .354s.256.098.354 0l.092-.092.265.265c.011.011.028.008.041.017-.447.294-.921.508-1.439.6l-.813-.813 1.007-1.007zm1.018.376c-.011-.039-.015-.08-.046-.111l-.265-.265 1.429-1.429.347.347c-.468.553-.95 1.056-1.465 1.458zm3.571-5.601.679.679-1.014 1.269-.806-.806zm3.208 1.607c-.429.045-.876-.435-1.207-.845-.01-.012-.026-.029-.037-.043l.739-.739 1.05 1.05c.037.037.086.046.133.055-.01.016-.014.037-.024.053-.164.271-.417.454-.654.469zm1.935-5.062c-.012-.026-.011-.056-.032-.077l-.165-.165c.077-.098.079-.237-.011-.327s-.229-.088-.327-.011l-.348-.348c-.098-.098-.256-.098-.353 0-.098.098-.098.256 0 .354l.341.341-.686.686c-.098.098-.098.256 0 .353.098.098.256.098.354 0l.686-.686.157.157c.084.084.187.101.311.018l-.397 1.566-.949-.949c-.098-.098-.256-.098-.354 0s-.098.256 0 .353l1.006 1.006c.048.048.111.071.174.072l-.299 1.18c-.052.203-.104.4-.167.585l-1.027-1.027.553-.553c.098-.098.098-.256 0-.354s-.256-.098-.354 0l-.553.553-.513-.511c-.098-.098-.256-.098-.354 0s-.098.256 0 .354l.514.513-.73.73c-.099-.078-.238-.104-.37-.102-.071.002-.148.028-.219.067l-.676-.676.739-.739c.098-.098.098-.256 0-.354s-.256-.098-.354 0l-2.234 2.234-.111-.111c-.098-.098-.256-.098-.353 0-.098.098-.098.256 0 .354l.16.16c-.002.067.019.134.07.185.049.049.113.073.177.073.003 0 .005-.003.008-.003l.895.895-.866 1.083c-.09.113-.18.223-.27.333l-.315-.315.993-.993c.098-.098.098-.256 0-.353-.098-.098-.256-.098-.353 0l-.993.993-.586-.586.465-.465c.098-.098.098-.256 0-.353-.098-.098-.256-.098-.353 0l-2.247 2.247-.111-.111c-.098-.098-.256-.098-.354 0s-.098.256 0 .354l.111.111-1.007 1.007-.475-.475c-.098-.098-.256-.098-.354 0s-.098.256 0 .353l.475.475-.46.46c-1.081-.644-1.367-1.932-.926-2.799.356-.674 5.633-5.484 6.199-6.014.098-.092.155-.219.159-.353.003-.134-.047-.264-.141-.361-1.539-1.593-2.89-2.701-.721-3.089 2.435-.452 4.86-.896 7.292-1.339.373-.066.81-.129 1.16.001-.082-.02-.167-.013-.231.051l-.28.28c-.022.011-.048.009-.066.027s-.016.044-.027.066l-.09.089c-.098.098-.098.256 0 .353.104.104.194.08.293.025l.446.446c.049.049.113.073.177.073.001 0 .001-.001.001-.001l-.187.746-.295-.296.092-.092c.098-.098.098-.256 0-.353-.098-.098-.256-.098-.354 0l-.092.092-.111-.111c-.098-.098-.256-.098-.354 0s-.098.256 0 .353l.111.111-.303.303c-.098.098-.098.256 0 .353.098.098.256.098.354 0l.303-.302.418.418c.028.027.065.029.1.041z" fill="#707070" data-original="#000000" style=""/><path d="m2.815 64.963c.352 0 .673-.057.882-.095 2.435-.443 4.862-.887 7.294-1.339 1.309-.234 2.215-.957 1.909-2.226-.058-.231-.251-.613-1.738-2.176 4.824-4.516 5.565-5.049 6.034-5.938 1.153-2.263-.906-5.074-3.901-4.613-1.919.311-3.29 1.856-4.529 3.413l-2.04 2.555c-1.39-1.69-2.772-1.213-3.405-.175-.445.702-.55 1.515-2.171 7.917-.487 1.832.331 2.677 1.665 2.677zm.704-1.079c-.142.025-.299.046-.458.06l.758-.758.521.521c.012.012.03.009.044.018-.287.053-.576.107-.865.159zm1.568-1.965.884.884-.648.648c-.031.031-.035.072-.046.111-.188.034-.376.069-.565.104.066-.097.069-.226-.017-.312l-.521-.521zm2.651-.177 1.002-1.002.913.913-1.002 1.001zm.559 1.265c-.427.079-.854.157-1.28.235-.001-.062-.024-.124-.071-.172l-.268-.268.707-.707zm-1.793.329c-.147.027-.294.054-.441.081l.261-.261zm5.424-1.793c.076.314-.018.457-.048.504-.146.224-.525.401-1.068.498-.549.102-1.096.201-1.645.302l.84-.84.304.304c.049.049.113.073.177.073s.128-.024.177-.073c.098-.098.098-.256 0-.354l-.304-.304.768-.768c.082-.082.079-.201.023-.297.645.72.764.932.776.955zm-9.811.998c0-.002.001-.004.001-.006.148-.583 1.731-7.132 2.051-7.638.528-.865 1.219-.417 1.862.378.079.098.196.226.344.383.159.169.567.193.807-.088l2.364-2.957c1.164-1.462 2.339-2.796 3.904-3.049 2.155-.34 3.638 1.632 2.857 3.165-.356.674-5.633 5.484-6.199 6.014-.206.193-.211.513-.018.713.422.437.743.781.995 1.059-.097-.065-.225-.068-.311.018l-.767.767-.913-.914.191-.191c.232-.232-.119-.588-.354-.354l-.191.192-.295-.295c-.098-.098-.256-.098-.353 0-.098.098-.098.256 0 .354l.295.295-1.002 1.002-.648-.648c-.098-.098-.256-.098-.353 0-.098.098-.098.256 0 .354l.648.648-.707.707-.884-.884.532-.532c.098-.098.098-.256 0-.354s-.256-.098-.354 0l-.58.58c-.068-.003-.135.018-.187.069-.052.052-.072.119-.069.187l-.963.963-.501-.501c-.098-.098-.256-.098-.354 0s-.098.256 0 .354l.501.501-1.031 1.031c-.012.012-.009.03-.018.044-.573-.165-.456-.782-.3-1.367z" fill="#707070" data-original="#000000" style=""/><path d="m54.806 54.444.397-.397c.098-.098.098-.256 0-.354s-.256-.098-.354 0l-.397.397-.991-.992.507-.507c.098-.098.098-.256 0-.354s-.256-.098-.353 0l-.507.507-.558-.558.174-.174c.098-.098.098-.256 0-.354s-.256-.098-.354 0l-.174.174-.143-.143c-.098-.098-.256-.098-.354 0s-.098.256 0 .354l.142.142-.188.188c-.098.098-.098.256 0 .354s.256.098.354 0l.188-.188.558.558-.416.416c-.098.098-.098.256 0 .354s.256.098.354 0l.416-.416.992.992-.439.439c-.098.098-.098.256 0 .354s.256.098.354 0l.439-.439.827.827c.098.098.256.098.354 0s.098-.256 0-.354z" fill="#707070" data-original="#000000" style=""/><path d="m9.388 55.968-.471.471c-.098.098-.098.256 0 .354s.256.098.353 0l.471-.471.503.504c.098.098.256.098.354 0s.098-.256 0-.354l-.503-.503 1.237-1.237.401.401c.098.098.256.098.354 0s.098-.256 0-.354l-.109-.109c.001 0 .001.001.001.001.139 0 .251-.112.251-.25v-.587l1.133-1.133c.098-.098.098-.256 0-.354s-.256-.098-.354 0l-.779.779v-.458c0-.138-.112-.25-.25-.25s-.25.112-.25.25v.958l-.398.398-.177-.177c-.098-.098-.256-.098-.354 0s-.098.256 0 .354l.177.177-1.237 1.237-.648-.648c-.098-.098-.256-.098-.354 0s-.098.256 0 .353zm2.342-1.635v.087c0 .001.001.001.001.001l-.045-.044z" fill="#707070" data-original="#000000" style=""/><path d="m40.421 45.429c.042.134.184.206.313.165 1.06-.327 2.064-.824 2.995-1.436.119.119.304.352.455.352.221 0 .335-.269.177-.427l-.218-.219c.759-.543 1.456-1.167 2.08-1.864l.136.124c.088.081.208.191.374.239.051.015.103.022.153.022.182 0 .349-.091.429-.246.064-.123.016-.287-.106-.35-.124-.064-.274-.029-.337.093-.053-.015-.118-.075-.176-.128l-.145-.132c.681-.822 1.258-1.723 1.705-2.686l.337.139c.124.052.273-.005.327-.135.053-.128-.008-.274-.135-.327l-.325-.135c.346-.837.595-1.603.757-2.708.151-.006.301-.036.44-.102.125-.059.179-.208.12-.333s-.208-.176-.333-.12c-.058.027-.121.034-.184.043.094-.91.093-1.83-.015-2.743l.263-.076c.132-.038.209-.177.171-.31-.039-.132-.176-.211-.31-.171l-.204.059c-.1-.63-.242-1.251-.434-1.858l.458-.215c.125-.059.179-.207.12-.332s-.207-.179-.333-.12l-.396.186c-.277-.769-.641-1.502-1.062-2.198l.049-.026c.122-.064.168-.216.104-.338-.065-.122-.217-.169-.338-.104l-.066.035c-.276-.415-.576-.814-.903-1.189-.09-.104-.249-.116-.353-.024-.104.09-.115.249-.024.353.302.347.578.716.834 1.098l-.803.427c-.122.064-.168.216-.104.338.065.123.218.168.338.104l.826-.439c.419.688.779 1.414 1.051 2.176l-.415.195c-.125.059-.179.208-.12.333.057.122.203.18.333.12l.348-.164c.181.583.316 1.179.409 1.783l-.77.221c-.132.038-.209.177-.171.31.039.134.179.209.31.171l.711-.204c.094.834.087 1.672.005 2.503-.111-.065-.212-.148-.27-.262-.064-.122-.215-.171-.337-.107-.123.064-.17.215-.107.337.139.268.389.457.671.56-.156 1.07-.394 1.797-.726 2.601l-1.177-.486c-.128-.052-.274.008-.327.135-.053.128.008.274.135.327l1.164.481c-.424.911-.969 1.763-1.611 2.542l-.779-.709c-.102-.094-.26-.085-.353.016-.093.102-.086.26.016.353l.787.717c-.618.691-1.312 1.308-2.068 1.842l-.906-.906c-.098-.099-.256-.098-.354-.001-.098.098-.098.256 0 .354l.846.848c-.869.559-1.803 1.012-2.786 1.316-.132.04-.207.18-.166.312z" fill="#707070" data-original="#000000" style=""/><path d="m8.814 5.348c-.138-.04-.277-.08-.416-.119l.326-.357c.093-.102.086-.26-.016-.353s-.26-.086-.353.016l-.494.542c-.315-.089-.629-.179-.943-.268l.164-.198c.088-.106.073-.264-.033-.352s-.264-.073-.352.033l-.305.368c-.345-.098-.692-.196-1.037-.295.123-.113.255-.216.4-.3.12-.069.16-.223.091-.342-.07-.12-.224-.16-.342-.091-.262.152-.49.354-.691.579-.3-.086-.601-.17-.901-.256-.137-.041-.272.039-.309.172-.038.133.039.271.171.309.24.069.48.136.72.205-.119.196-.224.4-.293.619-.041.131.032.271.164.313.025.007.05.011.075.011.107 0 .205-.068.238-.175.071-.225.185-.433.318-.627.349.1.698.198 1.047.298l-.358.434c-.088.106-.073.264.033.352.107.088.264.073.352-.033l.5-.603c.305.087.609.174.914.26l-.079.086c-.093.102-.086.26.016.353.101.093.26.086.353-.016l.247-.27c.219.061.438.124.658.186.134.037.271-.04.309-.173.036-.133-.041-.271-.174-.308z" fill="#707070" data-original="#000000" style=""/></g></g></svg>
