<?xml version="1.0" encoding="utf-8"?>
<!-- Generator: Adobe Illustrator 25.0.0, SVG Export Plug-In . SVG Version: 6.00 Build 0)  -->
<svg version="1.1" id="Layer_1" xmlns:svgjs="http://svgjs.com/svgjs"
	 xmlns="http://www.w3.org/2000/svg" xmlns:xlink="http://www.w3.org/1999/xlink" x="0px" y="0px" viewBox="0 0 512 512"
	 style="enable-background:new 0 0 512 512;" xml:space="preserve">
<style type="text/css">
	.st0{fill:#FFFFFF;}
</style>
<g>
	<g>
		<path class="st0" d="M217.2,409.5c28.8,22.7,49.7,22,77.7,0c73.9-58.3,119.5-149.2,122-243.3c0,0,0,0,0,0c0.9-35-17-36.7-46.7-33
			c-37.1,4.4-60.5-13-86.1-35.5c-18.7-16.4-38.6-16.4-56.1,0.1c-25.3,23.9-51.5,39.5-86,35.4c-30.5-3.9-47.7-1.4-46.7,33
			C97.7,260.4,143.3,351.3,217.2,409.5L217.2,409.5z M111.6,180.6l-7.2,7.2c-0.5-5.1-0.9-10.3-1.1-15.4L111.6,180.6z M104.2,167.7
			c0.9,0.7,1.9,0.6,2.5-0.1l10.8-10.8l8.9,8.9l-12.1,12.1L104.2,167.7z M135.4,295.9l3.2-3.2l8.8,8.8l-6,6
			C139.4,303.6,137.3,299.8,135.4,295.9z M133.7,292.1c-1.3-2.8-2.7-5.5-3.9-8.3l6.1,6.1L133.7,292.1z M125.9,274.4
			c-1.7-4.2-3.3-8.5-4.9-12.8l1.7-1.7l11.2,11.2l-5.7,5.7L125.9,274.4z M119.6,257.6c-0.1-0.4-0.3-0.7-0.4-1.1l0.8,0.8L119.6,257.6z
			 M116.5,248.3c-0.4-1.4-0.8-2.8-1.2-4.2l7.7-7.7l8.9,8.9l-9.2,9.2L116.5,248.3z M114.1,239.8c-1.3-4.6-2.4-9.2-3.5-13.8
			c0.1-0.1,0.3-0.1,0.4-0.2l0.8-0.8l8.5,8.5L114.1,239.8z M110.7,218.5c-0.5-0.5-1.2-0.5-1.8-0.4c-0.5-2.5-0.9-4.9-1.3-7.4
			c0.1,0.3,0.1,0.6,0.4,0.9c0.8,0.8,2,0.8,2.7,0l4.9-4.9l4.6,4.6l-8.3,8.3L110.7,218.5z M107.9,208.9c-0.3,0.3-0.4,0.7-0.5,1.2
			c-0.8-4.5-1.5-9-2.1-13.5l7.4,7.4L107.9,208.9z M106,191.6l8.3-8.3l9.6,9.6l-8.3,8.3L106,191.6z M157.2,325.1l-0.4-0.4
			c-0.8-0.8-2-0.8-2.7,0c-0.8,0.8-0.8,2,0,2.7l0.4,0.4l-0.6,0.6c-1.6-2.5-3.2-5.1-4.7-7.7l3.1-3.1l5.8,5.8c0.1,0.1,0.4,0.1,0.5,0.2
			L157.2,325.1z M253.4,94.4l2.2,2.2l-12.1,12.1l-7.4-7.4c0,0-0.1,0-0.1,0c5.6-4.6,11.3-7.1,17-7.7
			C253.1,93.8,253.1,94.2,253.4,94.4L253.4,94.4z M258,93.5c5,0.5,10.1,2.3,15.3,5.8l-4.7,4.7L258,93.5z M219.1,115.4l3.3,3.3
			l-13.5,13.5l-5.3-5.3l0.3-0.3c2.5-1.6,4.9-3.2,7.3-5C215,118.6,215.1,118.5,219.1,115.4L219.1,115.4z M192.2,132.8l-9.1,9.1
			l-4.1-4.1C183.5,136.5,187.9,134.8,192.2,132.8z M169.7,140l-7.7,7.7l-6.2-6.2C160.5,141.3,165.1,140.8,169.7,140L169.7,140z
			 M141,141c2.7,0.3,5.5,0.5,8.2,0.6l-7.8,7.8l-9.5-9.5C133.4,140,139.2,140.8,141,141L141,141z M125.9,139.3l12.7,12.7l-4.6,4.6
			c-0.8,0.8-0.8,2,0,2.7s2,0.8,2.7,0l4.6-4.6l6.5,6.5c0.8,0.8,2,0.8,2.7,0s0.8-2,0-2.7l-6.5-6.5l8.4-8.4l6.7,6.7l-3.5,3.5
			c-0.8,0.8-0.8,2,0,2.7s2,0.8,2.7,0l3.5-3.5l7.1,7.1c0.8,0.8,2,0.8,2.7,0s0.8-2,0-2.7l-7.1-7.1l10.7-10.7l4.9,4.9l-1.3,1.3
			c-0.8,0.8-0.8,2,0,2.7s2,0.8,2.7,0l1.3-1.3l3.7,3.7c0.8,0.8,2,0.8,2.7,0c0.8-0.8,0.8-2,0-2.7l-3.7-3.7l14.9-14.9l5.3,5.3l-2.4,2.4
			c-0.8,0.8-0.8,2,0,2.7s2,0.8,2.7,0l2.4-2.4l0.9,0.9c0.8,0.8,2,0.8,2.7,0s0.8-2,0-2.7l-0.9-0.9l13.5-13.5l4,4c0.8,0.8,2,0.8,2.7,0
			c0.8-0.8,0.8-2,0-2.7l-4-4l4.9-4.9c0.8-0.8,0.8-2,0-2.7s-2-0.8-2.7,0l-4.9,4.9l-3-3c3.8-3,7.5-6.1,11-9.5c0.1,0.2,0.1,0.3,0.2,0.5
			l7.4,7.4l-7,7c-0.8,0.8-0.8,2,0,2.7s2,0.8,2.7,0l7-7l2.9,2.9c0.8,0.8,2,0.8,2.7,0c0.8-0.8,0.8-2,0-2.7l-2.9-2.9l12.1-12.1l7.4,7.4
			l-7.7,7.7c-0.8,0.8-0.8,2,0,2.7c0.8,0.8,2,0.8,2.7,0l7.7-7.7l4.8,4.8c0.8,0.8,2,0.8,2.7,0c0.8-0.8,0.8-2,0-2.7l-4.8-4.8l5.1-5.1
			c0.8,0.7,1.7,1.2,2.5,1.9c26.5,23.3,52,42.1,92.1,37.4c25.4-3.2,38.8-4.4,38.1,25.1c-2.4,91.8-46.9,180.5-119,237.4
			c-26.8,21.1-43.5,19.4-68,0c-25.7-20.3-47.8-44.6-65.8-71.7l1.1-1.1l5.3,5.3c0.8,0.8,2,0.8,2.7,0c0.8-0.8,0.8-2,0-2.7l-5.3-5.3
			l3.5-3.5c0.8-0.8,0.8-2,0-2.7c-0.7-0.7-1.7-0.7-2.5-0.1c-0.1-0.2-0.1-0.5-0.3-0.7L155,315l6.5-6.5c0.8-0.8,0.8-2,0-2.7
			c-0.8-0.8-2-0.8-2.7,0l-6.5,6.5l-2.7-2.7c-0.8-0.8-2-0.8-2.7,0c-0.8,0.8-0.8,2,0,2.7l2.7,2.7l-2.4,2.4c-1.2-2.1-2.5-4.2-3.7-6.3
			l8-8c0.1-0.1,0.2,0,0.3-0.1c0.1-0.1,0-0.2,0.1-0.3l2.7-2.7c0.8-0.8,0.8-2,0-2.7c-0.8-0.8-2-0.8-2.7,0l-1.5,1.5l-8.8-8.8l7.5-7.5
			c0.8-0.8,0.8-2,0-2.7c-0.8-0.8-2-0.8-2.7,0l-7.5,7.5l-7.6-7.6l18.7-18.7c0.8-0.8,0.8-2,0-2.7c-0.8-0.8-2-0.8-2.7,0l-10.3,10.3
			l-11.2-11.2l9.5-9.5c1.6,0.4,2.5-0.8,2.2-2.2l6.3-6.4c0.8-0.8,0.8-2,0-2.7c-0.8-0.8-2-0.8-2.7,0l-6.1,6.1l-8.9-8.9l16.3-16.3
			c0.8-0.8,0.8-2,0-2.7s-2-0.8-2.7,0l-16.3,16.3l-8.5-8.5l8.3-8.3l5.9,5.9c0.8,0.8,2,0.8,2.7,0s0.8-2,0-2.7l-5.9-5.9l15.4-15.4
			c0.8-0.8,0.8-2,0-2.7s-2-0.8-2.7,0l-15.4,15.4l-4.6-4.6l9.5-9.5c0.1-0.1,0.2,0,0.3-0.1s0.1-0.2,0.1-0.3l13-13c0.8-0.8,0.8-2,0-2.7
			s-2-0.8-2.7,0l-11.8,11.8l-9.6-9.6l13.3-13.3c0,0,0,0,0-0.1c0.1,0,0.1,0,0.2-0.1c0.8-0.8,0.8-2,0-2.7l-10.3-10.3l7.1-7.1
			c0.8-0.8,0.8-2,0-2.7s-2-0.8-2.7,0l-7.1,7.1l-8.2-8.2C113.6,139.7,119.5,139,125.9,139.3z M106.7,146l8.1,8.1L104,164.9
			c-0.7,0.7-0.7,1.8-0.1,2.5l-0.9-0.9c0-0.2,0-0.3,0-0.4C102.8,159,103.1,151.3,106.7,146L106.7,146z"/>
		<path class="st0" d="M200.1,480c42.1,33.2,71.4,31.8,111.7,0c108.1-85.2,174.7-218.2,178.4-355.7c0,0,0,0,0,0
			c1.1-45.5-20-52.6-59.9-47.4c-57.7,7.6-89.5-12.1-134.4-51.7c-26.6-23.4-55-23.4-79.9,0.1C174.3,64.5,137,84.2,81.6,76.9
			c-40.1-5.3-61.2,2.1-59.8,47.4C25.4,261.8,92.1,394.8,200.1,480L200.1,480z M255.1,496.4c-5.5,0.2-10.9-0.8-16.1-2.5l8.2-8.2
			l8.8,8.8c0.8,0.8,1.4,0.6,2.1,0.2c0.1,1.1,0.4,1.2,1,1.5C259.2,496.3,255.1,496.4,255.1,496.4z M294.9,473.5l-0.1,0.1
			c-0.8,0.8-0.8,2,0,2.7c0.7,0.7,1.9,0.9,2.9-0.1l2,2c0.3,0.3,0.7,0.4,1.1,0.4c-4.5,3.3-9.1,6.4-14,9.1c0.2-0.6,0.1-1.3-0.4-1.8
			l-7.4-7.4l10.5-10.5L294.9,473.5z M292.2,465.3l12-12l5.4,5.4l-12,12L292.2,465.3z M283.6,488.7c0.2,0.2,0.5,0.3,0.8,0.3
			c-7.4,3.8-15.1,6.5-23.1,7.1c0.1,0,0.1,0,0.2-0.1l14.7-14.7L283.6,488.7z M307,473.9c-1.3,1.1-2.8,2.1-4.2,3.2
			c0.1-0.6-0.1-1.1-0.5-1.6l-2-2l12-12l4.3,4.3C313.5,468.5,310.3,471.3,307,473.9L307,473.9z M319.7,463.3l-4.6-4.6l11.3-11.3
			l5.3,5.3C327.8,456.3,323.8,459.8,319.7,463.3L319.7,463.3z M334.6,450.1l-5.4-5.4l18.5-18.5l5.5,5.5
			C347.2,438,340.9,444.1,334.6,450.1L334.6,450.1z M383.8,396.3l-6.7-6.7l14.7-14.7l3.9,3.9c0.3,0.3,0.6,0.3,1,0.4
			C392.5,384.9,388.2,390.6,383.8,396.3L383.8,396.3z M374.4,386.8l-2.8-2.8l14.7-14.7l2.8,2.8L374.4,386.8z M371.6,389.5l-6.8,6.8
			c-0.8,0.8-0.8,2,0,2.7c0.8,0.8,2,0.8,2.7,0l6.8-6.8l7.1,7.1c-4.3,5.4-8.8,10.7-13.3,16c-0.2-1.2-12.7-13.3-13.6-14.3l14.3-14.3
			L371.6,389.5z M364.9,416.9c0.4,0.4,0.9,0.5,1.3,0.6c-3.4,3.9-6.9,7.6-10.4,11.4l-5.6-5.6c0.5-0.8,0.6-1.8-0.1-2.4
			s-1.7-0.7-2.4-0.1l-6.4-6.4l10.5-10.5L364.9,416.9z M405.3,334.1l10.7,10.7c0.8,0.8,2,0.8,2.7,0c0.8-0.8,0.8-2,0-2.7L408,331.3
			l8.4-8.4l8.1,8.1c0.4,0.4,0.9,0.6,1.4,0.6c0.1,0,0.2-0.1,0.3-0.1c-4.9,9-10,17.8-15.4,26.5l-14.7-14.7L405.3,334.1z M449.3,279.8
			l-10.6-10.6l11.3-11.3l4.1,4.1c0.8,0.8,2,0.8,2.7,0c0,0,0,0,0-0.1c-2.2,6.4-4.6,12.7-7.1,19C449.8,280.5,449.6,280.1,449.3,279.8
			L449.3,279.8z M463.4,241.9l-9.4-9.4c-0.1-0.1-0.1,0-0.2-0.1l7.9-7.9l3,3c0.8,0.8,2,0.8,2.7,0c0.1-0.1,0-0.1,0.1-0.2
			C466.3,232.2,464.8,237.1,463.4,241.9z M461.9,245.9c0.1,0.1,0.2,0.1,0.3,0.1c-1.5,4.9-3.2,9.7-4.8,14.5c0-0.4-0.2-0.9-0.5-1.2
			l-4.1-4.1L461.9,245.9z M477.7,177.8l-4.5-4.5l5.8-5.8C478.6,170.9,478.2,174.3,477.7,177.8L477.7,177.8z M80.6,84.6
			c56.9,7.5,96.4-12,140.7-53.6C236.6,16.6,261,4.9,290.8,31c46.1,40.5,80,61.5,140.6,53.5c35.5-4.7,52.1-0.8,51.1,39.5
			c-0.3,12.6-1.4,25.1-2.8,37.5c-0.2,0.1-0.4,0.1-0.5,0.2l-8.7,8.7l-0.1-0.1c-0.8-0.8-2-0.8-2.7,0c-0.8,0.8-0.8,2,0,2.7l0.1,0.1
			l-3.6,3.6c-0.8,0.8-0.8,2,0,2.7c0.8,0.8,2,0.8,2.7,0l3.6-3.6l5.9,5.9c0.2,0.2,0.4,0.2,0.6,0.2c-2.3,14.7-5.3,29.3-9,43.8
			c0-0.4-0.2-0.8-0.5-1.2l-3-3l4.9-4.9c0.8-0.8,0.8-2,0-2.7c-2-2-5.4,2.7-7.6,4.9l-4.7-4.7c-0.8-0.8-2-0.8-2.7,0
			c-0.8,0.8-0.8,2,0,2.7l4.7,4.7l-15.7,15.7c-0.8,0.8-0.8,2,0,2.7c0.8,0.8,2,0.8,2.7,0l5.1-5.1c0,0.1,0,0.1,0.1,0.2l7.9,7.9
			l-9.2,9.2l-4.3-4.3c-0.8-0.8-2-0.8-2.7,0c-0.8,0.8-0.8,2,0,2.7l4.3,4.3l-21,21c-0.8,0.8-0.8,2,0,2.7c0.8,0.8,2,0.8,2.7,0l7-7
			l10.6,10.6c0.7,0.7,1.7,0.8,2.6,0.1c-1.3,3.3-2.6,6.7-4.1,10l-9.8-9.8l3-3c0.8-0.8,0.8-2,0-2.7c-0.8-0.8-2-0.8-2.7,0l-3,3
			l-0.9-0.9c-0.8-0.8-2-0.8-2.7,0c-0.8,0.8-0.8,2,0,2.7l0.9,0.9l-27.1,27.1c-0.8,0.8-0.8,2,0,2.7c0.8,0.8,2,0.8,2.7,0l13.1-13.1
			c0.1,0.4,0.1,0.7,0.4,1l12.3,12.3c0.8,0.8,2,0.8,2.7,0c0.8-0.8,0.8-2,0-2.7l-12.3-12.3c-0.3-0.3-0.7-0.3-1-0.4l11.8-11.8l9.9,9.9
			c0.4,0.4,0.8,0.5,1.3,0.5c-4.9,11.2-10.4,22.2-16.1,32.9c-0.1-0.2-0.1-0.5-0.3-0.7l-8.1-8.1l7.4-7.4c0.8-0.8,0.8-2,0-2.7
			c-0.8-0.8-2-0.8-2.7,0l-7.4,7.4l-6.4-6.4c-0.8-0.8-2-0.8-2.7,0c-0.8,0.8-0.8,2,0,2.7l6.4,6.4l-8.5,8.5c-0.8-0.5-1.7-0.5-2.4,0.1
			c-0.7,0.7-0.6,1.7-0.1,2.4l-9.5,9.5c-0.7-0.3-1.5-0.3-2,0.3c-0.6,0.6-0.6,1.3-0.3,2l-1.7,1.7c-0.8,0.8-0.8,2,0,2.7
			c0.8,0.8,2,0.8,2.7,0l1.5-1.5l15.4,15.4c-3.3,5.1-6.7,10-10.2,15c-0.1-0.1,0-0.2-0.1-0.3l-3.9-3.9l6.7-6.7c0.8-0.8,0.8-2,0-2.7
			c-0.8-0.8-2-0.8-2.7,0l-6.7,6.7l-2.8-2.8l7.9-7.9c1.8-1.8-0.9-4.6-2.7-2.7l-7.9,7.9l-6.2-6.2c-0.8-0.8-2-0.8-2.7,0
			c-0.8,0.8-0.8,2,0,2.7l6.2,6.2l-14.7,14.7l-2.8-2.8c-0.8-0.8-2-0.8-2.7,0c-0.8,0.8-0.8,2,0,2.7l2.8,2.8l-14.3,14.3l-1.3-1.3
			c-0.8-0.8-2-0.8-2.7,0c-0.8,0.8-0.8,2,0,2.7l1.3,1.3l-10.8,10.8c-0.4,0.4-0.6,0.9-0.5,1.4c-0.1,0-0.2,0-0.2,0.1
			c-0.8,0.8-0.8,2,0,2.7l7.3,7.3l-18.5,18.5l-8.9-8.9c-0.8-0.8-2-0.8-2.7,0c-0.8,0.8-0.8,2,0,2.7l8.9,8.9L312.4,456l-5.4-5.4
			l2.6-2.6c0.8-0.8,0.8-2,0-2.7c-0.8-0.8-2-0.8-2.7,0l-2.6,2.6l-1.9-1.9c-0.8-0.8-2-0.8-2.7,0c-0.8,0.8-0.8,2,0,2.7l1.9,1.9l-12,12
			l-3.7-3.7c-0.8-0.8-2-0.8-2.7,0c-0.8,0.8-0.8,2,0,2.7l3.7,3.7l-10.5,10.5l-6-6c-0.8-0.8-2-0.8-2.7,0c-0.8,0.8-0.8,2,0,2.7l6,6
			l-14.2,14.2c-0.1-0.4-0.1-0.8-0.4-1l-8.8-8.8l16.3-16.3c0.8-0.8,0.8-2,0-2.7c-0.8-0.8-2-0.8-2.7,0l-16.3,16.3l-6.6-6.6
			c-0.8-0.8-2-0.8-2.7,0c-0.8,0.8-0.8,2,0,2.7l6.6,6.6l-9.6,9.6c-10.8-4.3-20.9-11.5-30-18.6C98.7,390.1,33.1,259.4,29.6,124.1
			C28.4,83.4,45.9,80,80.6,84.6L80.6,84.6z"/>
		<path class="st0" d="M242.1,271.9c7.8,31.2,33.9,31.9,42.3,0.9c7.2-26.6,9.2-55,5.8-82.3c-1-7.8-2.6-15.9-8-22.1
			c-13.8-15.7-55.7-11.7-47.7,40.9C236.9,224.6,233.6,237.7,242.1,271.9L242.1,271.9z M250.9,172c7.8-5.8,19.7-5.1,25.5,1.5
			c4,4.5,5.3,11.3,6.1,17.9c3.3,26.3,1.3,53.8-5.6,79.4c-6.2,22.9-21.3,23.1-27.3-0.7c-8.3-33.5-5-45.8-7.4-61.9
			C240,193.6,239.2,180.7,250.9,172L250.9,172z"/>
		<path class="st0" d="M274.5,360.5c25.1-15.5,11.1-53.1-10.6-51.2c-6.3,0.5-25.4,2-30.8,20.3C226.2,353.5,252.9,373.9,274.5,360.5z
			 M240.6,331.7c2.6-9.1,10-13.6,23.9-14.7c13.9-1.1,24.1,25.7,5.9,36.9C254.8,363.6,235.6,348.7,240.6,331.7z"/>
		<path class="st0" d="M458.6,203.8l1.5-1.5l6.5,6.5c0.8,0.8,2,0.8,2.7,0c0.8-0.8,0.8-2,0-2.7l-6.5-6.5l7.1-7.1l1.5,1.5
			c0.8,0.8,2,0.8,2.7,0c0.8-0.8,0.8-2,0-2.7l-1.5-1.5c0.6-0.8,0.6-1.9-0.1-2.6s-1.8-0.7-2.6-0.1c-2.2-2.2-5.3-6.6-7.3-4.6
			c-0.8,0.8-0.8,2,0,2.7l4.5,4.5l-11.3,11.3c-0.8,0.8-0.8,2,0,2.7C456.6,204.6,457.8,204.6,458.6,203.8L458.6,203.8z"/>
	</g>
</g>
</svg>
