<?xml version="1.0" encoding="utf-8"?>
<!-- Generator: Adobe Illustrator 25.0.0, SVG Export Plug-In . SVG Version: 6.00 Build 0)  -->
<svg version="1.1" id="Layer_1" xmlns:svgjs="http://svgjs.com/svgjs"
	 xmlns="http://www.w3.org/2000/svg" xmlns:xlink="http://www.w3.org/1999/xlink" x="0px" y="0px" viewBox="0 0 512 512"
	 style="enable-background:new 0 0 512 512;" xml:space="preserve">
<g>
	<g>
		<path d="M336.6,51.4c0.3-26.2-8.2-34.5-33.8-35.4C75.8,7.8,97.4,8.6,89.5,8.2c-22.3-1-59.5-3-60.6,28.3
			c-0.3,7.8-10.6,452.7-7.2,464.9c0.5,1.7,2,2.8,3.7,2.8h461.8c2.2,0,3.9-1.8,3.9-4c-1.1-48.9-2.1-139.5-3.1-186.7
			c-0.6-23-8-31.1-31.2-30.2l-4.6,0.1c0.2-4.8,0.2-9,0.3-13.2c0.1-5.2,0.1-10.4,0.4-17c0.1-2.2-1.7-4.1-3.9-4.1c0,0,0,0,0,0
			c-0.8,0-75,0.6-115-0.1C334.7,183.2,335.7,117.3,336.6,51.4L336.6,51.4z M320,496.5H28.4c-2-10.1,8.7-474.8,8.2-459.7
			C37.4,14,65.3,14.8,89.1,16l213.4,7.8c21.8,0.8,26.6,6.2,26.3,27.5C322.4,504.5,323.9,481.3,320,496.5L320,496.5z M457,291.1
			c18.2-0.6,22.7,3.5,23.2,22.7c1,45.2,2,133.5,3,182.7H328.1c3.2-13.8,2.4-11.5,5.1-201.7L457,291.1z M397.5,285.1l2.9-2.9l2.7,2.7
			L397.5,285.1z M435.2,284l9.4-9.4c0,2.8-0.1,5.8-0.2,9.1L435.2,284z M444.8,257L444.8,257c-0.1,0.2-0.3,0.1-0.4,0.3l-7.9,7.9
			c-0.8,0.8-0.8,2,0,2.7c0.8,0.8,2,0.8,2.7,0l5.4-5.4c-0.1,2.7-0.1,5.2-0.1,7.7c0,0.5,0,1.1,0,1.6c-0.8-0.7-1.9-0.7-2.7,0
			l-10.3,10.3c-0.1-0.4-0.2-0.8-0.5-1.1l-6.6-6.6l7.6-7.6c0.8-0.8,0.8-2,0-2.7c-0.8-0.8-2-0.8-2.7,0l-7.6,7.6l-3.4-3.4
			c-0.8-0.8-2-0.8-2.7,0c-0.8,0.8-0.8,2,0,2.7l3.4,3.4l-6.5,6.5c-0.8,0.8-0.8,2,0,2.7c0.8,0.8,2,0.8,2.7,0l6.5-6.5l6.6,6.6
			c0.3,0.3,0.6,0.3,1,0.4l-21.5,0.6c-0.1-0.4-0.1-0.7-0.4-1l-4.3-4.3l10.6-10.6c0.8-0.8,0.8-2,0-2.7c-0.8-0.8-2-0.8-2.7,0
			l-10.6,10.6l-2.1-2.1c-0.8-0.8-2-0.8-2.7,0c-0.8,0.8-0.8,2,0,2.7l2.1,2.1c-0.8,0.8-5,4.8-5.5,5.8l-3.1,0.1
			c0.2-0.1,0.4-0.1,0.6-0.2c0.8-0.8,0.8-2,0-2.7l-4.6-4.6c-0.8-0.8-2-0.8-2.7,0c-0.8,0.8-0.8,2,0,2.7l4.6,4.6
			c0.2,0.2,0.4,0.2,0.7,0.3l-13.5,0.4l15.5-15.5c0.8-0.8,0.8-2,0-2.7c-0.8-0.8-2-0.8-2.7,0L370.4,284l-3-3c-0.8-0.8-2-0.8-2.7,0
			c-0.8,0.8-0.8,2,0,2.7l2.3,2.3l-33.6,1c0.1-10.1,0.3-20.1,0.4-30.2C368.4,257.5,428.7,257.2,444.8,257L444.8,257z"/>
		<path d="M62.8,118.4c13.5,0.1,26.7,1.6,40.5,1.7h0c1.7,0,3.2-1.1,3.7-2.8c3.8-12.5,5-24.7,3.8-38.5c-0.1-1.6-1.2-2.9-2.7-3.4
			c-15.5-4.9-31.6-3.7-45.4-1.8c-1.9,0.3-3.3,1.9-3.4,3.8l-0.5,36.9C58.9,116.6,60.6,118.3,62.8,118.4z M103.3,82.1
			c0.7,10.8-0.2,20.3-2.9,30.1c-11.2-0.3-22.2-1.3-33.7-1.6l0.2-16c0.1-0.1,0.2,0,0.3-0.1l5.9-5.9l3.4,3.4l-2.8,2.8
			c-0.8,0.8-0.8,2,0,2.7c0.8,0.8,2,0.8,2.7,0l2.8-2.8l1.1,1.1c0.8,0.8,2,0.8,2.7,0c0.8-0.8,0.8-2,0-2.7L82,92.1l5.3-5.3
			c0.8-0.8,0.8-2,0-2.7s-2-0.8-2.7,0l-5.3,5.4L75.9,86l5.4-5.4c0.2-0.2,0.2-0.4,0.3-0.6C88.7,79.7,96.1,80.2,103.3,82.1L103.3,82.1z
			 M71,81.2c-0.3-0.3-0.7-0.4-1.1-0.5c2.1-0.2,4.2-0.5,6.3-0.6l-3.1,3.1L71,81.2z M69.3,80.8c-0.3,0.1-0.7,0.1-1,0.4
			c-0.8,0.8-0.8,2,0,2.7l2.1,2.1L67,89.3l0.1-8.4C67.8,80.9,68.5,80.8,69.3,80.8z"/>
		<path d="M127.3,118.4c13.5,0.1,26.7,1.6,40.5,1.7h0c1.7,0,3.2-1.1,3.7-2.8c3.8-12.5,5-24.7,3.8-38.5c-0.1-1.6-1.2-2.9-2.7-3.4
			c-15.5-4.9-31.6-3.7-45.4-1.8c-1.9,0.3-3.3,1.9-3.4,3.8l-0.5,36.9C123.4,116.6,125.1,118.3,127.3,118.4z M134.8,81.2
			c-0.3-0.3-0.6-0.3-1-0.4c2-0.2,4-0.4,6.1-0.6l-3.1,3.1L134.8,81.2z M167.9,82.1c0.7,10.8-0.2,20.3-2.9,30.1
			c-11.3-0.3-22.2-1.3-33.7-1.6l0.2-16.6l5.3-5.3l3.4,3.4l-2.8,2.8c-0.8,0.8-0.8,2,0,2.7c0.8,0.8,2,0.7,2.7,0l2.8-2.8l1.1,1.1
			c0.8,0.8,2,0.8,2.7,0c0.8-0.8,0.8-2,0-2.7l-1.1-1.1l5.4-5.4c0.8-0.8,0.8-2,0-2.7c-0.8-0.8-2-0.8-2.7,0l-5.4,5.4l-3.4-3.4l5.4-5.4
			c0.2-0.2,0.2-0.4,0.3-0.6C152.7,79.7,160.4,80.1,167.9,82.1L167.9,82.1z M131.6,88.5l0.1-5.5c0.3,1,1.6,2.1,2.4,3L131.6,88.5z
			 M132.7,80.9c-0.7,0.3-0.7,0-1.1,1.2l0-1.1C132,80.9,132.4,80.9,132.7,80.9L132.7,80.9z"/>
		<path d="M191.9,118.4c13.6,0.1,26.7,1.6,40.5,1.7h0c1.7,0,3.2-1.1,3.7-2.8c3.8-12.5,5-24.7,3.8-38.5c-0.1-1.6-1.2-2.9-2.7-3.4
			c-15.5-4.9-31.6-3.7-45.4-1.8c-1.9,0.3-3.3,1.9-3.4,3.8l-0.5,36.9C188,116.6,189.7,118.3,191.9,118.4z M196.2,85.7l0.3,0.3
			l-0.3,0.3L196.2,85.7z M197.1,81.2c-0.1-0.1-0.3-0.1-0.5-0.2c1.8-0.2,3.6-0.4,5.4-0.5l-2.8,2.8L197.1,81.2z M232.4,82.1
			c0.7,10.8-0.2,20.3-2.9,30.1c-11.2-0.3-22.2-1.3-33.7-1.6l0.2-18.9l3.1-3.1l3.4,3.4l-2.8,2.8c-0.8,0.8-0.8,2,0,2.7
			c0.8,0.8,2,0.8,2.7,0l2.8-2.8l1.1,1.1c0.8,0.8,2,0.8,2.7,0c0.8-0.8,0.8-2,0-2.7l-1.1-1.1l5.3-5.3c0.8-0.8,0.8-2,0-2.7
			s-2-0.8-2.7,0l-5.3,5.4l-3.4-3.4l5.4-5.4c0.1-0.1,0.1-0.4,0.2-0.5C215.7,79.6,224.2,79.9,232.4,82.1z"/>
		<path d="M256.4,118.4c13.6,0.1,26.7,1.6,40.5,1.7h0c1.7,0,3.2-1.1,3.7-2.8c3.8-12.5,5-24.7,3.8-38.5c-0.1-1.6-1.2-2.9-2.7-3.4
			c-15.4-4.9-31.6-3.7-45.4-1.8c-1.9,0.3-3.3,1.9-3.4,3.8l-0.5,36.9C252.5,116.6,254.3,118.3,256.4,118.4z M260.7,85.7L261,86
			l-0.3,0.3L260.7,85.7z M261.6,81.2c-0.1-0.1-0.3-0.1-0.5-0.2c1.8-0.2,3.6-0.4,5.4-0.5l-2.8,2.8L261.6,81.2z M297,82.1
			c0.7,10.8-0.2,20.3-2.9,30.1c-11.2-0.3-22.2-1.3-33.7-1.6l0.2-18.9l3.1-3.1l3.4,3.4l-2.8,2.8c-0.8,0.8-0.8,2,0,2.7
			c0.8,0.8,2,0.7,2.7,0l2.8-2.8L271,96c0.8,0.8,2,0.8,2.7,0c0.8-0.8,0.8-2,0-2.7l-1.1-1.1l5.4-5.4c0.8-0.8,0.8-2,0-2.7
			c-0.8-0.8-2-0.8-2.7,0l-5.4,5.4l-3.4-3.4l5.4-5.4c0.1-0.1,0.1-0.4,0.2-0.5C280.3,79.6,288.8,79.9,297,82.1L297,82.1z"/>
		<path d="M301.1,143.4c-13.6-0.1-26.6-1.6-40.5-1.7c-1.9,0.3-3.2,1.1-3.7,2.7c-3.8,12.5-5,24.7-3.8,38.5c0.1,1.6,1.2,2.9,2.7,3.4
			c14.7,4.7,30.1,3.9,45.4,1.8c1.9-0.3,3.3-1.9,3.4-3.8l0.5-36.9C305,145.2,303.3,143.4,301.1,143.4L301.1,143.4z M263.6,149.5
			c0.1,0,0.1,0,0.2,0l-0.1,0.1L263.6,149.5z M269,149.7c2.3,0.1,4.6,0.2,6.8,0.3c-0.2,0.1-0.5,0.1-0.7,0.3l-5.4,5.4l-3.4-3.4
			L269,149.7z M296.8,180.8c-11.4,1.4-24.1,2.1-36.2-1.2c-0.5-8-0.1-15.3,1.2-22.6l2-2l3.4,3.4l-2.8,2.8c-0.8,0.8-0.8,2,0,2.7
			c0.8,0.8,2,0.7,2.7,0l2.8-2.8l1.1,1.1c0.8,0.8,2,0.8,2.7,0c0.8-0.8,0.8-2,0-2.7l-1.1-1.1l5.4-5.4c0.8-0.8,0.8-2,0-2.7
			c-0.1-0.1-0.3-0.1-0.5-0.2c5.3,0.3,14.5,0.8,19.7,0.9L296.8,180.8z"/>
		<path d="M236.5,143.4c-13.6-0.1-26.6-1.6-40.5-1.7c-1.8,0.3-3.2,1.1-3.7,2.7c-3.8,12.5-5,24.7-3.8,38.5c0.1,1.6,1.2,2.9,2.7,3.4
			c14.7,4.7,30.1,3.9,45.4,1.8c1.9-0.3,3.3-1.9,3.4-3.8l0.5-36.9C240.4,145.2,238.7,143.4,236.5,143.4L236.5,143.4z M199.1,149.5
			c0.1,0,0.1,0,0.2,0l-0.1,0.1L199.1,149.5z M204.5,149.7c2.3,0.1,4.6,0.2,6.8,0.3c-0.2,0.1-0.5,0.1-0.7,0.3l-5.3,5.4l-3.4-3.4
			L204.5,149.7z M232.2,180.8c-11.4,1.4-24.1,2.1-36.2-1.2c-0.5-8-0.1-15.3,1.2-22.6l2-2l3.4,3.4l-2.8,2.8c-0.8,0.8-0.8,2,0,2.7
			c0.8,0.8,2,0.8,2.7,0l2.8-2.8l1.1,1.1c0.8,0.8,2,0.8,2.7,0c0.8-0.8,0.8-2,0-2.7l-1.1-1.1l5.3-5.4c0.8-0.8,0.8-2,0-2.7
			c-0.1-0.1-0.3-0.1-0.5-0.2c5.6,0.3,14.7,0.8,19.7,0.9L232.2,180.8z"/>
		<path d="M172,143.4c-13.6-0.1-26.6-1.6-40.5-1.7c-1.8,0.3-3.3,1.1-3.7,2.7c-3.8,12.5-5,24.8-3.8,38.5c0.1,1.6,1.2,2.9,2.7,3.4
			c14.7,4.7,30.1,3.9,45.4,1.8c1.9-0.3,3.3-1.9,3.4-3.8l0.5-36.9C175.9,145.2,174.1,143.4,172,143.4L172,143.4z M133.8,152l0.3,0.3
			l-0.5,0.5C133.6,152.6,133.7,152.3,133.8,152L133.8,152z M142,149.8c2.2,0.1,4.5,0.2,6.7,0.3c-0.1,0.1-0.3,0.1-0.5,0.2l-5.4,5.4
			l-3.4-3.4L142,149.8z M167.6,180.8c-11.4,1.4-24.1,2.1-36.2-1.2c-0.5-7.1-0.1-13.6,0.8-20l4.5-4.5l3.4,3.4l-2.8,2.8
			c-0.8,0.8-0.8,2,0,2.7c0.8,0.8,2,0.7,2.7,0l2.8-2.8l1.1,1.1c0.8,0.8,2,0.8,2.7,0c0.8-0.8,0.8-2,0-2.7l-1.1-1.1l5.4-5.4
			c0.8-0.8,0.8-2,0-2.7c-0.1-0.1-0.2,0-0.2-0.1c0.2,0,0.5,0,0.7,0c5.5,0.3,11,0.6,16.5,0.8L167.6,180.8z"/>
		<path d="M107.4,143.4c-13.6-0.1-26.6-1.6-40.5-1.7c-1.7,0.3-3.3,1.1-3.7,2.7c-3.8,12.5-5,24.7-3.8,38.5c0.1,1.6,1.2,2.9,2.7,3.4
			c14.7,4.7,30.1,3.9,45.4,1.8c1.9-0.3,3.3-1.9,3.4-3.8l0.5-36.9C111.3,145.2,109.6,143.4,107.4,143.4L107.4,143.4z M69.4,151.3l1,1
			l-1.6,1.6C69,153.1,69.2,152.2,69.4,151.3z M78.3,149.9c2.2,0.1,4.4,0.2,6.6,0.3c-0.1,0.1-0.3,0.1-0.4,0.2l-5.3,5.4l-3.4-3.4
			L78.3,149.9z M103.1,180.8c-11.4,1.4-24.1,2.1-36.2-1.2c-0.4-6.7-0.2-12.9,0.7-19l5.5-5.5l3.4,3.4l-2.8,2.8c-0.8,0.8-0.8,2,0,2.7
			c0.8,0.8,2,0.8,2.7,0l2.8-2.8l1.1,1.1c0.8,0.8,2,0.8,2.7,0c0.8-0.8,0.8-2,0-2.7l-1.1-1.1l5.3-5.4c0.8-0.8,0.8-2,0-2.7
			c0,0-0.1,0-0.1-0.1c5.4,0.3,10.8,0.6,16.3,0.8L103.1,180.8z"/>
		<path d="M62.8,257.7c13.6,0.1,26.6,1.6,40.5,1.7h0c1.7,0,3.2-1.1,3.7-2.7c3.8-12.5,5-24.7,3.8-38.5c-0.1-1.6-1.2-2.9-2.7-3.4
			c-15.4-4.9-31.6-3.7-45.4-1.8c-1.9,0.3-3.3,1.9-3.4,3.8l-0.5,36.9C58.9,255.8,60.6,257.6,62.8,257.7z M100.4,251.6
			c-11.3-0.3-22.1-1.3-33.7-1.6l0.3-20.2c0.1-0.1,0.2,0,0.2-0.1l5.9-5.9l3.4,3.4l-2.8,2.8c-0.8,0.8-0.8,2,0,2.7c0.8,0.8,2,0.8,2.7,0
			l2.8-2.8l1.1,1.1c0.8,0.8,2,0.8,2.7,0c0.8-0.8,0.8-2,0-2.7l-1.1-1.1l5.3-5.4c0.7-0.7,0.7-1.8,0.1-2.5c5.3,0.2,10.7,0.8,15.9,2.2
			C104,232.2,103.1,241.7,100.4,251.6z M77.6,219.3c2.3-0.1,4.6-0.2,7-0.2l-5.3,5.3l-3.4-3.4L77.6,219.3z M69.4,220l1,1l-3.3,3.3
			l0.1-4.1C67.8,220.2,68.6,220.1,69.4,220z"/>
		<path d="M127.3,257.7c13.6,0.1,26.6,1.6,40.5,1.7h0c1.7,0,3.2-1.1,3.7-2.7c3.8-12.5,5-24.7,3.8-38.5c-0.1-1.6-1.2-2.9-2.7-3.4
			c-15.5-4.9-31.6-3.7-45.4-1.8c-1.9,0.3-3.3,1.9-3.4,3.8l-0.5,36.9C123.4,255.8,125.1,257.6,127.3,257.7z M133.2,220.1l0.9,0.9
			l-2.5,2.5l0-3.2C132.1,220.2,132.7,220.2,133.2,220.1z M148.2,219.1l-5.3,5.3l-3.4-3.4l1.7-1.7
			C143.5,219.2,145.9,219.2,148.2,219.1L148.2,219.1z M164.9,251.6c-11.3-0.3-22.1-1.3-33.7-1.6l0.3-20.9l5.3-5.3l3.4,3.4l-2.8,2.8
			c-0.8,0.8-0.8,2,0,2.7c0.8,0.8,2,0.7,2.7,0l2.8-2.8l1.1,1.1c0.8,0.8,2,0.8,2.7,0c0.8-0.8,0.8-2,0-2.7l-1.1-1.1l5.4-5.4
			c0.7-0.7,0.7-1.8,0.1-2.6c5.6,0.1,11.3,0.7,16.8,2.2C168.5,232.2,167.6,241.7,164.9,251.6z"/>
		<path d="M191.9,257.7c13.6,0.1,26.6,1.6,40.5,1.7h0c1.7,0,3.2-1.1,3.7-2.7c3.8-12.5,5-24.7,3.8-38.5c-0.1-1.6-1.2-2.9-2.7-3.4
			c-15.5-4.9-31.6-3.7-45.4-1.8c-1.9,0.3-3.3,1.9-3.4,3.8l-0.5,36.9C188,255.8,189.7,257.6,191.9,257.7z M196.2,220.8l0.2,0.2
			l-0.2,0.2L196.2,220.8z M210.5,219.2l-5.2,5.2l-3.4-3.4l1.5-1.5C205.7,219.4,208.1,219.3,210.5,219.2L210.5,219.2z M232.4,221.4
			c0.7,10.8-0.2,20.3-2.9,30.1c-11.3-0.3-22.1-1.3-33.7-1.6l0.3-23.2l3-3l3.4,3.4l-2.8,2.8c-0.8,0.8-0.8,2,0,2.7
			c0.8,0.8,2,0.8,2.7,0l2.8-2.8l1.1,1.1c0.8,0.8,2,0.8,2.7,0c0.8-0.8,0.8-2,0-2.7l-1.1-1.1l5.3-5.4c0.7-0.7,0.7-1.9,0-2.7
			C219.7,219.1,226.1,219.7,232.4,221.4L232.4,221.4z"/>
		<path d="M256.4,257.7c13.6,0.1,26.6,1.6,40.5,1.7h0c1.7,0,3.2-1.1,3.7-2.7c3.8-12.5,5-24.7,3.8-38.5c-0.1-1.6-1.2-2.9-2.7-3.4
			c-15.4-4.9-31.6-3.7-45.4-1.8c-1.9,0.3-3.3,1.9-3.4,3.8l-0.5,36.9C252.5,255.8,254.3,257.6,256.4,257.7z M260.8,220.8l0.2,0.2
			l-0.2,0.2L260.8,220.8z M275,219.2l-5.2,5.2l-3.4-3.4l1.5-1.5C270.3,219.4,272.6,219.3,275,219.2L275,219.2z M297,221.4
			c0.7,10.8-0.2,20.3-2.9,30.1c-11.3-0.3-22.1-1.3-33.7-1.6l0.3-23.2l3-3l3.4,3.4l-2.8,2.8c-0.8,0.8-0.8,2,0,2.7
			c0.8,0.8,2,0.7,2.7,0l2.8-2.8l1.1,1.1c0.8,0.8,2,0.8,2.7,0c0.8-0.8,0.8-2,0-2.7l-1.1-1.1l5.4-5.4c0.7-0.7,0.7-1.9,0-2.7
			C284.3,219.1,290.7,219.7,297,221.4L297,221.4z"/>
		<path d="M301.1,282.7c-9.6-0.1-18.1-0.8-29-1.3c0.3-0.7,0.3-1.5-0.3-2.1c-0.8-0.8-2-0.8-2.7,0l-1.9,1.9c-2.2-0.1-4.4-0.2-6.6-0.2
			c-1.9,0.3-3.2,1.1-3.7,2.7c-3.8,12.5-5,24.7-3.8,38.5c0.1,1.6,1.2,2.9,2.7,3.4c14.8,4.7,30.2,3.9,45.4,1.8
			c1.9-0.3,3.3-1.9,3.4-3.8l0.5-36.9C305,284.5,303.3,282.7,301.1,282.7L301.1,282.7z M271.4,289.1l-1.6,1.6L268,289
			C269.2,289,270.3,289.1,271.4,289.1z M296.8,320.1c-11.4,1.4-24.1,2.1-36.2-1.2c-0.7-10,0.2-18.9,2.4-28l0.7-0.7l3.4,3.4l-2.8,2.8
			c-0.8,0.8-0.8,2,0,2.7c0.8,0.8,2,0.7,2.7,0l2.8-2.8l1.1,1.1c0.8,0.8,2,0.8,2.7,0c0.8-0.8,0.8-2,0-2.7l-1.1-1.1l4.1-4.1
			c5.2,0.3,15.2,0.8,20.4,1L296.8,320.1z"/>
		<path d="M236.5,282.7c-9.6-0.1-18.1-0.8-29-1.3c0.3-0.7,0.3-1.5-0.3-2.1c-0.8-0.8-2-0.8-2.7,0l-1.9,1.9c-2.2-0.1-4.4-0.2-6.6-0.2
			c-1.8,0.3-3.2,1.1-3.7,2.7c-3.8,12.5-5,24.7-3.8,38.5c0.1,1.6,1.2,2.9,2.7,3.4c14.8,4.7,30.3,3.8,45.4,1.8
			c1.9-0.3,3.3-1.9,3.4-3.8l0.5-36.9c0-1-0.4-2-1.1-2.8C238.6,283.1,237.6,282.7,236.5,282.7L236.5,282.7z M206.9,289.1l-1.6,1.6
			l-1.8-1.8C204.6,289,205.8,289.1,206.9,289.1z M232.2,320.1c-11.4,1.4-24.1,2.1-36.2-1.2c-0.7-10,0.2-18.9,2.4-28l0.7-0.7l3.4,3.4
			l-2.8,2.8c-0.8,0.8-0.8,2,0,2.7c0.8,0.8,2,0.8,2.7,0l2.8-2.8l1.1,1.1c0.8,0.7,2,0.8,2.7,0c0.8-0.8,0.8-2,0-2.7l-1.1-1.1l4.1-4.1
			c5.3,0.3,15.2,0.8,20.4,1L232.2,320.1z"/>
		<path d="M172,282.7c-8.4-0.1-15.5-0.6-26.8-1.2c0.4-0.7,0.4-1.6-0.2-2.2c-0.8-0.8-2-0.8-2.7,0l-2,2c-2.9-0.1-5.8-0.2-8.8-0.3
			c-1.8,0.3-3.3,1.1-3.7,2.7c-3.8,12.5-5,24.7-3.8,38.5c0.1,1.6,1.2,2.9,2.7,3.4c14.7,4.7,30.2,3.8,45.4,1.8
			c1.9-0.3,3.3-1.9,3.4-3.8l0.5-36.9C175.9,284.5,174.1,282.7,172,282.7L172,282.7z M144.5,289.2l-1.5,1.5l-1.7-1.7
			C142.3,289.1,143.4,289.2,144.5,289.2z M167.6,320.1c-11.4,1.4-24.1,2.1-36.2-1.2c-0.6-8.9,0-17,1.8-25.1l3.6-3.6l3.4,3.4
			l-2.8,2.8c-0.8,0.8-0.8,2,0,2.7c0.8,0.8,2,0.7,2.7,0l2.8-2.8l1.1,1.1c0.8,0.8,2,0.8,2.7,0c0.8-0.8,0.8-2,0-2.7l-1.1-1.1l4-4
			c5.6,0.3,13.1,0.7,18.3,0.9L167.6,320.1z"/>
		<path d="M107.4,282.7c-8-0.1-14.8-0.6-26-1.2c0.4-0.7,0.4-1.6-0.2-2.2c-0.8-0.8-2-0.8-2.7,0l-2,2c-3.2-0.1-6.4-0.3-9.6-0.3
			c-1.7,0.3-3.3,1.1-3.7,2.7c-3.8,12.5-5,24.7-3.8,38.5c0.1,1.6,1.2,2.9,2.7,3.4c14.7,4.7,30.1,3.9,45.4,1.8
			c1.9-0.3,3.3-1.9,3.4-3.8l0.5-36.9C111.3,284.5,109.6,282.7,107.4,282.7L107.4,282.7z M80.7,289.3l-1.5,1.5l-1.6-1.6
			C78.6,289.2,79.7,289.2,80.7,289.3L80.7,289.3z M103.1,320.1c-11.4,1.4-24.1,2.1-36.2-1.2c-0.6-8.5-0.1-16.3,1.5-24l4.7-4.7
			l3.4,3.4l-2.8,2.8c-0.8,0.8-0.8,2,0,2.7c0.8,0.8,2,0.8,2.7,0l2.8-2.8l1.1,1.1c0.7,0.7,2,0.8,2.7,0c0.8-0.8,0.8-2,0-2.7l-1.1-1.1
			l4-4c5.6,0.3,12.1,0.7,17.5,0.8L103.1,320.1z"/>
		<path d="M62.8,397c13.6,0.1,26.6,1.6,40.5,1.7h0c1.7,0,3.2-1.1,3.7-2.7c3.8-12.5,5-24.7,3.8-38.5c-0.1-1.6-1.2-2.9-2.7-3.4
			c-15.5-4.9-31.6-3.7-45.4-1.8c-1.9,0.3-3.3,1.9-3.4,3.8L58.9,393C58.9,395.1,60.6,396.9,62.8,397L62.8,397z M103.3,360.7
			c0.7,10.8-0.2,20.3-2.9,30.1c-11.3-0.3-22.2-1.3-33.7-1.6l0.2-18.6c0.1-0.1,0.2,0,0.3-0.1l5.9-5.9l3.4,3.4l-2.8,2.8
			c-0.8,0.8-0.8,2,0,2.7c0.8,0.8,2,0.8,2.7,0l2.8-2.8l1.1,1.1c0.8,0.8,2,0.8,2.7,0c0.8-0.8,0.8-2,0-2.7L82,368l5.3-5.4
			c0.8-0.8,0.8-2,0-2.7c-0.8-0.8-2-0.8-2.7,0l-5.3,5.4l-3.4-3.4l3.4-3.4C87.1,358.2,95.3,358.6,103.3,360.7z M73.1,359.2l-0.2-0.2
			c0.2,0,0.3,0,0.5,0L73.1,359.2z M68.1,359.5c0.1,0.1,0.1,0.3,0.2,0.4l2.1,2.1l-3.3,3.3l0.1-5.7C67.4,359.5,67.8,359.5,68.1,359.5z
			"/>
		<path d="M127.3,397c13.6,0.1,26.6,1.6,40.5,1.7h0c1.7,0,3.2-1.1,3.7-2.7c3.8-12.5,5-24.7,3.8-38.5c-0.1-1.6-1.2-2.9-2.7-3.4
			c-15.5-4.9-31.6-3.7-45.4-1.8c-1.9,0.3-3.3,1.9-3.4,3.8l-0.5,36.9C123.4,395.1,125.1,396.9,127.3,397L127.3,397z M131.9,359.5
			c0.1,0.1,0,0.2,0.1,0.3l2.1,2.1l-2.5,2.5l0.1-4.9C131.7,359.5,131.8,359.5,131.9,359.5z M136.7,359.1c0.1,0,0.2,0,0.3,0l-0.2,0.2
			L136.7,359.1z M167.9,360.7c0.7,10.8-0.2,20.3-2.9,30.1c-11.3-0.3-22.3-1.3-33.7-1.6l0.2-19.3l5.3-5.3l3.4,3.4l-2.8,2.8
			c-0.8,0.8-0.8,2,0,2.7c0.8,0.8,2,0.7,2.7,0l2.8-2.8l1.1,1.1c0.8,0.8,2,0.8,2.7,0c0.8-0.8,0.8-2,0-2.7l-1.1-1.1l5.4-5.4
			c0.8-0.8,0.8-2,0-2.7c-0.8-0.8-2-0.8-2.7,0l-5.4,5.4l-3.4-3.4l3.3-3.3C151.1,358.2,159.6,358.5,167.9,360.7z"/>
		<path d="M191.9,397c13.6,0.1,26.6,1.6,40.5,1.7h0c1.7,0,3.2-1.1,3.7-2.7c3.8-12.5,5-24.7,3.8-38.5c-0.1-1.6-1.2-2.9-2.7-3.4
			c-15.5-4.9-31.6-3.7-45.4-1.8c-1.9,0.3-3.3,1.9-3.4,3.8L188,393C188,395.1,189.7,396.9,191.9,397L191.9,397z M196.2,361.7l0.2,0.2
			l-0.2,0.2V361.7z M232.4,360.7c0.7,10.8-0.2,20.3-2.9,30.1c-11.3-0.3-22.2-1.3-33.7-1.6l0.3-21.5l3-3l3.4,3.4l-2.8,2.8
			c-0.8,0.8-0.8,2,0,2.7c0.8,0.8,2,0.8,2.7,0l2.8-2.8l1.1,1.1c0.8,0.8,2,0.8,2.7,0c0.8-0.8,0.8-2,0-2.7L208,368l5.3-5.4
			c0.8-0.8,0.8-2,0-2.7c-0.8-0.8-2-0.8-2.7,0l-5.3,5.4l-3.4-3.4l3.3-3.3C214,358.1,223.4,358.3,232.4,360.7L232.4,360.7z"/>
		<path d="M256.4,397c13.6,0.1,26.6,1.6,40.5,1.7h0c1.7,0,3.2-1.1,3.7-2.7c3.8-12.5,5-24.7,3.8-38.5c-0.1-1.6-1.2-2.9-2.7-3.4
			c-15.5-4.9-31.6-3.7-45.4-1.8c-1.9,0.3-3.3,1.9-3.4,3.8l-0.5,36.9C252.5,395.1,254.3,396.9,256.4,397L256.4,397z M260.7,361.7
			l0.2,0.2l-0.2,0.2L260.7,361.7z M297,360.7c0.7,10.8-0.2,20.3-2.9,30.1c-11.3-0.3-22.2-1.3-33.7-1.6l0.3-21.5l3.1-3.1l3.4,3.4
			l-2.8,2.8c-0.8,0.8-0.8,2,0,2.7c0.8,0.8,2,0.7,2.7,0l2.8-2.8l1.1,1.1c0.8,0.8,2,0.8,2.7,0c0.8-0.8,0.8-2,0-2.7l-1.1-1.1l5.4-5.4
			c0.8-0.8,0.8-2,0-2.7c-0.8-0.8-2-0.8-2.7,0l-5.4,5.4l-3.4-3.4l3.3-3.3C278.6,358.1,288,358.3,297,360.7z"/>
		<path d="M301.1,422c-9.6-0.1-18.2-0.8-29-1.3c-0.1-0.2-0.1-0.3-0.2-0.5c-0.8-0.8-2-0.8-2.7,0l-0.4,0.3c-2.7-0.1-5.4-0.2-8.2-0.2
			c-1.9,0.3-3.2,1.1-3.7,2.7c-3.8,12.5-5,24.7-3.8,38.5c0.1,1.6,1.2,2.9,2.7,3.4c14.7,4.7,30.2,3.9,45.4,1.8
			c1.9-0.3,3.3-1.9,3.4-3.8l0.5-36.9c0-1-0.4-2-1.1-2.8C303.1,422.4,302.1,422,301.1,422L301.1,422z M266.6,428.2
			c2.2,0.1,4.3,0.2,6.4,0.3l-3.2,3.2L266.6,428.2L266.6,428.2z M296.8,459.4c-11.3,1.4-24.1,2.1-36.2-1.2
			c-0.6-9.2,0.1-17.5,1.9-25.9l1.2-1.2l3.4,3.4l-2.8,2.8c-0.8,0.8-0.8,2,0,2.7c0.8,0.8,2,0.7,2.7,0l2.8-2.8l1.1,1.1
			c0.8,0.8,2,0.8,2.7,0c0.8-0.8,0.8-2,0-2.7l-1.1-1.1l5.4-5.4c0.1-0.1,0.1-0.2,0.1-0.3c5.6,0.3,13.9,0.8,19.1,0.9L296.8,459.4z"/>
		<path d="M236.5,422c-9.6-0.1-18.3-0.8-29-1.3c-0.8-1.5-2.1-1.3-3.3-0.1c-2.7-0.1-5.4-0.2-8.2-0.2c-1.8,0.3-3.2,1.1-3.7,2.7
			c-3.8,12.5-5,24.7-3.8,38.5c0.1,1.6,1.2,2.9,2.7,3.4c14.7,4.7,30.2,3.9,45.4,1.8c1.9-0.3,3.3-1.9,3.4-3.8l0.5-36.9
			c0-1-0.4-2-1.1-2.8C238.6,422.4,237.6,422,236.5,422L236.5,422z M202,428.2c2.2,0.1,4.3,0.2,6.4,0.3l-3.2,3.2L202,428.2L202,428.2
			z M232.2,459.4c-11.3,1.4-24.1,2.1-36.2-1.2c-0.6-9.2,0.1-17.5,1.9-25.9l1.2-1.2l3.4,3.4l-2.8,2.8c-0.8,0.8-0.8,2,0,2.7
			c0.8,0.8,2,0.8,2.7,0l2.8-2.8l1.1,1.1c0.8,0.8,2,0.8,2.7,0c0.8-0.8,0.8-2,0-2.7l-1.1-1.1c0.8-0.8,4.9-4.8,5.5-5.7
			c5.6,0.3,13.9,0.8,19.1,0.9L232.2,459.4z"/>
		<path d="M172,422c-8.4-0.1-15.5-0.6-26.8-1.2c-0.7-1.4-1.9-1.7-3.4-0.2c-3.4-0.2-6.8-0.3-10.3-0.3c-1.8,0.3-3.3,1.1-3.7,2.7
			c-3.8,12.5-5,24.7-3.8,38.5c0.1,1.6,1.2,2.9,2.7,3.4c14.7,4.7,30.2,3.9,45.4,1.8c1.9-0.3,3.3-1.9,3.4-3.8l0.5-36.9
			C175.9,423.8,174.1,422,172,422L172,422z M146,428.6l-3.1,3.1l-3.4-3.4C141.7,428.4,143.9,428.5,146,428.6L146,428.6z
			 M167.6,459.4c-11.4,1.4-24.1,2.1-36.2-1.2c-0.5-8.2-0.1-15.6,1.3-23.1l4.1-4.1l3.4,3.4l-2.8,2.8c-0.8,0.8-0.8,2,0,2.7
			c0.8,0.8,2,0.7,2.7,0l2.8-2.8l1.1,1.1c0.8,0.8,2,0.8,2.7,0c0.8-0.8,0.8-2,0-2.7l-1.1-1.1l5.4-5.4c0.1-0.1,0-0.1,0.1-0.2
			c0.1,0,0.3,0,0.4,0c5.5,0.3,10.9,0.6,16.5,0.8L167.6,459.4z"/>
		<path d="M107.4,422c-8-0.1-14.8-0.6-25.9-1.2c-0.1-0.2-0.1-0.5-0.3-0.6c-0.8-0.8-2-0.8-2.7,0l-0.5,0.5c-3.7-0.2-7.4-0.3-11.1-0.3
			c-1.7,0.3-3.3,1.1-3.7,2.7c-3.8,12.5-5,24.7-3.8,38.5c0.1,1.6,1.2,2.9,2.7,3.4c14.7,4.7,30.2,3.9,45.4,1.8
			c1.9-0.3,3.3-1.9,3.4-3.8l0.5-36.9C111.3,423.8,109.6,422,107.4,422z M69.8,428.1c0.1,0,0.2,0,0.3,0l0.2,0.2l-0.8,0.8
			C69.7,428.8,69.7,428.4,69.8,428.1z M82.2,428.6l-3,3l-3.3-3.3C78,428.4,80.1,428.5,82.2,428.6L82.2,428.6z M103.1,459.4
			c-11.4,1.4-24.1,2.1-36.2-1.2c-0.5-7.8-0.1-15,1.1-22l5.1-5.1l3.4,3.4l-2.8,2.8c-0.8,0.8-0.8,2,0,2.7c0.8,0.8,2,0.8,2.7,0l2.8-2.8
			l1.1,1.1c0.8,0.8,2,0.8,2.7,0c0.8-0.8,0.8-2,0-2.7l-1.1-1.1c0.8-0.8,4.7-4.7,5.4-5.5c5.3,0.3,10.7,0.6,16.1,0.8L103.1,459.4z"/>
		<path d="M350.5,411.6c13.6,0.1,26.6,1.6,40.5,1.7h0c1.7,0,3.2-1.1,3.7-2.7c3.8-12.5,5-24.7,3.8-38.5c-0.1-1.6-1.2-2.9-2.7-3.4
			c-15.4-4.9-31.6-3.7-45.4-1.8c-1.9,0.3-3.3,1.9-3.4,3.8l-0.5,36.9C346.6,409.8,348.3,411.6,350.5,411.6z M354.6,395.9l2.6,2.6
			l-2.7,2.7L354.6,395.9z M354.8,379.7l1.9,1.9l-2,2L354.8,379.7z M375.3,373.2l0.9,0.9l-2.5,2.5l-3.4-3.4
			C372,373.1,373.7,373.2,375.3,373.2L375.3,373.2z M365,373.3l6,6l-1.3,1.3c-0.8,0.8-0.8,2,0,2.7c0.8,0.8,2,0.8,2.7,0l1.4-1.4
			c1,0.6,1.7,0.5,2.4-0.2c0.7-0.7,0.6-1.6,0.2-2.4l2.6-2.6l4.3,4.3c0.8,0.8,2,0.8,2.7,0c0.8-0.8,0.8-2,0-2.7l-4.8-4.8
			c3.3,0.4,6.6,0.9,9.9,1.8c0.7,10.8-0.2,20.3-2.9,30.1c-10.4-0.2-17.5-1-31.1-1.5l2.9-2.9c0.9,0.7,1.8,0.5,2.5-0.1
			c0.7-0.7,0.7-1.7,0.1-2.5l2.4-2.4c0.8-0.8,0.8-2,0-2.7c-0.8-0.8-2-0.8-2.7,0l-2.3,2.3l-5.3-5.3l0-3.1c0.7,0.3,1.2,0.5,2.1-0.3
			l2.7-2.7l1.9,1.9c0.8,0.8,2,0.8,2.7,0c0.8-0.8,0.8-2,0-2.7l-1.9-1.9l3.4-3.4c0.8-0.8,0.8-2,0-2.7c-0.8-0.8-2-0.8-2.7,0l-3.4,3.4
			l-4.6-4.6v0C358.1,373.8,361.5,373.5,365,373.3L365,373.3z"/>
		<path d="M415.1,411.6c13.6,0.1,26.6,1.6,40.5,1.7h0c1.7,0,3.2-1.1,3.7-2.7c3.8-12.5,5-24.7,3.8-38.5c-0.1-1.6-1.2-2.9-2.7-3.4
			c-15.4-4.9-31.6-3.7-45.4-1.8c-1.9,0.3-3.3,1.9-3.4,3.8l-0.5,36.9C411.2,409.8,412.9,411.6,415.1,411.6z M428.4,373.4l1.1,1.1
			c-0.8-0.7-1.9-0.7-2.6,0l-2.2,2.2l-2.8-2.8C424.1,373.7,426.2,373.5,428.4,373.4z M422,379.5l-2.4,2.4c-0.2,0.2-0.2,0.4-0.3,0.7
			l0.1-5.7L422,379.5z M419.2,393.2l2.2,2.2l-2.3,2.3L419.2,393.2z M452.7,405.5c-11.3-0.3-22.1-1.3-33.7-1.6l0-0.7l5.1-5.1l0,0
			c0.8,0.8,2,0.8,2.7,0c0.8-0.8,0.8-2,0-2.7l0,0l4.2-4.2c0.8-0.8,0.8-2,0-2.7c-0.8-0.8-2-0.8-2.7,0l-4.2,4.2l-4.9-4.9l0-3.8
			c0.1,0.2,0.1,0.5,0.3,0.7c0.8,0.8,2,0.8,2.7,0l2.4-2.4l3.8,3.8c0.8,0.8,2,0.7,2.7,0c0.8-0.8,0.8-2,0-2.7l-3.8-3.8l2.2-2.2
			c0.7-0.7,0.7-1.9,0.1-2.6l5,5l-1.1,1.1c-0.8,0.8-0.8,2,0,2.7c0.8,0.8,2,0.7,2.7,0l1.2-1.2c1,0.6,1.7,0.5,2.4-0.1
			c0.7-0.7,0.6-1.6,0.1-2.4l2.9-2.9l1.6,1.6c0.7,0.8,2,0.8,2.7,0c0.8-0.8,0.8-2,0-2.7l-1.6-1.6c0.1-0.1,0.1-0.3,0.2-0.4
			c3.3,0.4,6.5,0.9,9.7,1.8C456.3,386.2,455.4,395.7,452.7,405.5z M439.4,373.2l0.8,0.8l-2.8,2.8l-3.7-3.7
			C435.6,373.1,437.5,373.1,439.4,373.2z"/>
		<path d="M459.7,436.7c-13.6-0.1-26.6-1.6-40.5-1.7c-1.5,0.2-3.2,1.1-3.7,2.7c-3.8,12.5-5,24.7-3.8,38.5c0.1,1.6,1.2,2.9,2.7,3.4
			c14.7,4.7,30.2,3.9,45.4,1.8c1.9-0.3,3.3-1.9,3.4-3.8l0.5-36.9C463.6,438.5,461.9,436.7,459.7,436.7L459.7,436.7z M444.5,446.6
			l-3-3c2,0.1,4,0.2,6.1,0.3c-0.2,0.1-0.5,0.1-0.7,0.3L444.5,446.6z M430.3,443.1l-2.9,2.9l-3.2-3.2
			C426.3,442.9,428.3,443,430.3,443.1L430.3,443.1z M419.1,471c-0.2-3.7-0.1-7.2,0.1-10.7l5.3,5.3L419.1,471z M455.4,474
			c-10.4,1.3-22,1.8-33.2-0.6l5.1-5.1l1.3,1.3c0.8,0.8,2,0.8,2.7,0c0.8-0.8,0.8-2,0-2.7l-1.3-1.3l1.9-1.9c0.8-0.8,0.8-2,0-2.7
			c-0.8-0.8-2-0.8-2.7,0l-1.9,1.9l-7.6-7.6c0.4-3.3,1-6.5,1.8-9.8l3.2,3.2l-2.4,2.4c-0.8,0.8-0.8,2,0,2.7c0.8,0.8,2,0.8,2.7,0
			l2.4-2.4l9,9c0.8,0.8,2,0.8,2.7,0c0.8-0.8,0.8-2,0-2.7l-9-9l5.4-5.4c0.1,0,0.2,0,0.2,0l6,6l-2.1,2.1c-0.8,0.8-0.8,2,0,2.7
			c0.8,0.7,2,0.8,2.7,0l2.1-2.1l3.7,3.7c0.8,0.8,2,0.8,2.7,0c0.8-0.8,0.8-2,0-2.7l-3.7-3.7l2.4-2.4c0.8-0.8,0.8-2,0-2.7
			c-0.2-0.2-0.4-0.1-0.6-0.2c2.3,0.1,4.5,0.3,6.8,0.3L455.4,474z"/>
		<path d="M395.2,436.7c-13.6-0.1-26.6-1.6-40.5-1.7c0,0,0,0,0,0c-1.7,0-3.2,1.1-3.7,2.7c-3.8,12.5-5,24.7-3.8,38.5
			c0.1,1.6,1.2,2.9,2.7,3.4c14.8,4.7,30.2,3.9,45.4,1.8c1.9-0.3,3.3-1.9,3.4-3.8l0.5-36.9C399,438.5,397.4,436.7,395.2,436.7z
			 M391.1,449.9l-5.8-5.8c2,0.1,3.9,0.2,5.9,0.3L391.1,449.9z M379.6,443.8l0.6,0.6l-3.3,3.3l-4.2-4.2c0.7,0,1.4,0.1,2.1,0.1
			C376.3,443.6,377.9,443.7,379.6,443.8z M366.5,443.2l-3.7,3.7l-4.1-4.1C361.3,442.9,363.9,443,366.5,443.2z M354.6,472.9
			c-0.2-3.7-0.2-7.2-0.1-10.7l6,6l-4.9,4.9C355.3,473,355,473,354.6,472.9L354.6,472.9z M360.2,473.9l3.1-3.1l0,0
			c0.8,0.8,2,0.8,2.7,0c0.8-0.8,0.8-2,0-2.7l0,0l4.8-4.8c0.8-0.8,0.8-2,0-2.7c-0.8-0.8-2-0.8-2.7,0l-4.8,4.8l-8.4-8.4
			c0.4-3.6,1-7.1,1.8-10.7l3.3,3.3l-3,3c-0.8,0.8-0.8,2,0,2.7c0.8,0.8,2,0.8,2.7,0l3-3l3.8,3.8c0.8,0.8,2,0.8,2.7,0
			c0.8-0.8,0.8-2,0-2.7l-3.8-3.8l3.9-3.9l4.7,4.7l-0.1,0.1c-0.8,0.8-0.8,2,0,2.7c0.8,0.7,2,0.8,2.7,0l0.1-0.1l0.2,0.2
			c0.8,0.8,2,0.8,2.7,0c0.8-0.8,0.8-2,0-2.7l-0.2-0.2l3.3-3.3l5.7,5.7c0.7,0.7,1.7,0.8,2.6,0.1l-0.3,21.2
			C381.2,475.2,370.6,475.8,360.2,473.9L360.2,473.9z"/>
	</g>
</g>
</svg>
