<?xml version="1.0"?>
<svg xmlns="http://www.w3.org/2000/svg" xmlns:xlink="http://www.w3.org/1999/xlink" xmlns:svgjs="http://svgjs.com/svgjs" version="1.1" width="512" height="512" x="0" y="0" viewBox="0 0 66 66" style="enable-background:new 0 0 512 512" xml:space="preserve" class=""><g><g xmlns="http://www.w3.org/2000/svg"><g id="XMLID_1_"><path d="m51.94 25.04-1.41 1.41 1.48 1.48c.46-.46.91-.92 1.37-1.36.05-.04.08-.08.11-.11-.01 0-.01.01-.02.01-.07 0-.13-.03-.18-.07zm-3.74 7.42c-.1.1-.26.1-.36 0-.09-.1-.09-.26 0-.36l1.47-1.46-1.94-1.94c-.1-.09-.1-.25 0-.35.09-.1.25-.1.35 0l1.94 1.94c.56-.56 1.47-1.47 2-2.01l-1.48-1.48-1.34 1.34c-.1.1-.26.1-.35 0-.1-.09-.1-.25 0-.35l1.34-1.34-.63-.63c-.09-.09-.09-.25 0-.35.1-.1.26-.1.36 0l.62.62 1.41-1.4-.79-.79c-.09-.09-.09-.25 0-.35.1-.1.26-.1.36 0l.78.78.75-.74c.1-.1.25-.1.35 0 .1.09.1.25 0 .35l-.74.75 1.35 1.35c.06.06.07.14.05.22.24-.21.46-.3.92-.1.47.2.85.82 1.2 1.17.1.1.1.26 0 .36-.1.09-.26.1-.35 0-.24-.24-.75-.95-1.05-1.07-.35-.15-.36 0-.69.31-.46.44-.91.9-1.36 1.35l1.63 1.64c.1.09.1.25 0 .35s-.25.1-.35 0l-1.63-1.63c-.53.53-1.47 1.47-2.01 2l1.57 1.57c.1.09.1.25 0 .35s-.26.1-.36 0l-1.56-1.56z" fill="#707070" data-original="#000000" style="" class=""/><path d="m30.99 44.77c.68-.84 1.94-1.55 3.11-1.11 1.02.39 1.69 1.56 1.52 2.67-.16 1.05-1.01 1.96-2.08 2.24-.22.05-.44.08-.66.08-.89 0-1.74-.42-2.2-1.12-.52-.82-.4-1.87.31-2.76zm3.64 1.41c.1-.65-.3-1.36-.88-1.58-.12-.05-.25-.07-.39-.07-.53 0-1.16.33-1.59.87-.17.2-.67.93-.25 1.58.34.53 1.11.79 1.77.62.69-.18 1.24-.76 1.34-1.42z" fill="#707070" data-original="#000000" style="" class=""/><path d="m30.55 25.1.77.77.78-.78c-.54 0-1.05.01-1.55.01zm-2.12.55.55-.55c-.39.01-.75.01-1.09.01zm-1.47 5.4.37-.36-.31-.31c-.02.24-.04.52-.06.67zm.37-5.8c.01.82-.02 1.65-.07 2.47l.11.11 1.27-1.27-.21-.2-.01.01c-.1.1-.26.1-.36 0-.09-.09-.09-.25 0-.35l.02-.02zm8.04-2.74 1.1 1.1c-.05-.1-.05-.21.03-.28l.54-.55-.97-.98zm-1.59 1.58h2.46l-1.23-1.23zm-3.57-7.78c3.42-2.67 4.96-1.94 7.79.9 1.21 1.2 2.42 2.41 3.62 3.61.08-.01.15 0 .21.06s.07.13.06.21c.32.31.63.63.95.94.24.25.9.91.9 1.68 0 .18-.04.36-.12.55-.34.75-1.18.92-2.01.9.19 1.39.28 4.77.16 7.65-.14 3.36-1.52 4-3.85 3.89-.1-.01-7.4-.35-9.11-.43-2.37-.1-3.2-.97-3.02-3.31.17-2.51.59-5.22.53-7.86-.21 0-.36 0-.45 0-1.92-.08-4.07-2.29-.75-4.84 1.61-1.25 3.47-2.7 5.09-3.95zm4.45 6.2-.7-.7c-.1-.1-.1-.26 0-.36.1-.09.25-.09.35 0l.7.7.7-.7-.12-.12c-.1-.1-.1-.26 0-.36s.26-.1.35 0l.13.13 1.05-1.06c.1-.09.26-.09.35 0 .07.08.09.18.05.27-.01.03-.02.07-.05.09l-1.05 1.05.98.97 1.48-1.48c.1-.1.26-.1.35 0 .1.1.1.26 0 .36l-1.48 1.48.52.52c.1.1.1.26 0 .35-.1.1-.25.1-.35 0l-.52-.51-.55.54c-.05.05-.11.07-.18.07-.04 0-.07-.02-.1-.04l.17.17c.05.05.07.13.05.21 1.15 0 3.09.01 4.24.05 1.58.06 2.34-.16 1.1-1.4-.3-.3-.6-.6-.9-.89l-1.36 1.35c-.1.1-.26.1-.35 0-.1-.1-.1-.26 0-.35l1.35-1.36c-.62-.63-1.25-1.26-1.88-1.88l-.93.93c-.1.1-.26.1-.36 0-.04-.05-.07-.11-.07-.18 0-.06.03-.12.07-.17l.94-.94c-.45-.44-.9-.89-1.34-1.34-2.55-2.54-3.55-3.1-6.48-.81-2.04 1.58-4.01 3.11-5.09 3.95-2.56 1.97-.82 3.01.18 3.05.52.02 6.68-.01 7.22-.01.02-.03.02-.07.04-.1zm1.21 9.26c.08-1 .07-1.63-1.84-1.43-1.73.19-1.93.6-1.94 1.97-.01.6-.03 2.61-.04 3.11 1.16.06 2.32.11 3.48.16.03-.17.32-3.63.34-3.81zm-2.05-6.32.29-.29c.05-.05.11-.07.18-.07s.13.02.18.07c.1.1.1.26 0 .36l-.29.29.24.25c.1.1.1.25 0 .35-.09.1-.25.1-.35 0l-.25-.25-.11.12c-.1.1-.26.1-.36 0-.09-.1-.09-.26 0-.35l.12-.12-.72-.72c-.07 0-.13 0-.2 0 .05.1.05.21-.03.29l-.84.84.4.41c.1.1.1.26 0 .35-.1.1-.25.1-.35 0l-.41-.4-.48.47c-.09.1-.25.1-.35 0-.1-.09-.1-.25 0-.35l.48-.48-1.12-1.12c-.11 0-.2 0-.24 0-.03.15-.71.79-.82.9l.38.38 1.02 1.02c.1.1.1.26 0 .36-.1.09-.26.09-.35 0l-.85-.85-1.27 1.27.78.78c.1.1.1.26 0 .36-.1.09-.26.09-.36 0l-.77-.78-.2.19c-.02.33-.05.67-.09 1l.6.6 1.09-1.09c.09-.09.25-.09.35 0 .1.1.1.26 0 .36l-1.08 1.08.13.14c.1.09.1.25 0 .35s-.26.1-.36 0l-.13-.13-.79.79c-.03.4-.08.81-.11 1.2-.13 1.72.23 2.16 2.07 2.24l2.2.1c.01-1 .01-1.11.04-3.07.02-1.88.58-2.7 2.83-2.96 2.07-.21 3.12.43 2.94 2.51-.02.24-.3 3.56-.33 3.78.48.03.96.05 1.44.07 1.71.08 2.68-.08 2.8-2.94.12-2.94.03-6.38-.17-7.63-1.69-.04-4.6-.04-6.31-.04-.28 0-.56 0-.83 0z" fill="#707070" data-original="#000000" style="" class=""/><path d="m10.69 44.69c0-.14.12-.25.25-.25h1.36v-.94c0-.14.11-.25.25-.25s.25.11.25.25v.94h3.66v-.71c0-.14.11-.25.25-.25s.25.11.25.25v.71h3.73c.14 0 .25.11.25.25s-.11.25-.25.25h-3.73v1.65h1.6v-.94c0-.14.11-.25.25-.25s.25.11.25.25v.94h2.61v-.53c0-.14.11-.25.25-.25s.25.11.25.25v.53h1.56v-.39c0-.14.11-.25.25-.25s.25.11.25.25v.39h.64c.14 0 .25.11.25.25s-.11.25-.25.25h-.64v1.06c0 .14-.11.25-.25.25s-.25-.11-.25-.25v-1.06h-1.56v1.16c0 .14-.11.25-.25.25s-.25-.11-.25-.25v-1.16h-2.61v1.22c0 .13-.11.25-.25.25s-.25-.12-.25-.25v-1.22h-1.6v1.31c0 .13-.11.25-.25.25s-.25-.12-.25-.25v-1.31h-2.31c-.14 0-.25-.11-.25-.25s.11-.25.25-.25h2.31v-1.65h-3.66v1.26c0 .14-.11.25-.25.25s-.25-.11-.25-.25v-1.26h-1.36c-.13 0-.25-.11-.25-.25z" fill="#707070" data-original="#000000" style="" class=""/><path d="m8.79 14.12.98-.98-1.06-1.06c-.1-.09-.1-.25 0-.35.09-.1.25-.1.35 0l1.06 1.06.45-.46c.1-.1.26-.1.36 0s.1.26 0 .36l-.46.45 1.8 1.79c.1.1.1.26 0 .36s-.26.1-.36 0l-1.79-1.79-.98.98c-.1.1-.26.09-.35 0-.1-.1-.1-.26 0-.36z" fill="#707070" data-original="#000000" style="" class=""/><path d="m63.68 42.69c0-.15.01-.31.01-.46 0-.08 0-.15 0-.22l-.34.35zm-.69.02-1.02 1.03 1.55 1.55c.08-.61.12-1.25.14-1.91zm-.8 4.3.7.7c.26-.58.42-1.21.54-1.88-.01 0-.02-.01-.04-.01zm-1.43-.72-.91.91.73.73.91-.92zm.52 3.05-.71-.71-.91.92.8.79c.54-.29 1.04-.64 1.46-1.11.31-.33.55-.71.76-1.1-.05-.01-.1-.02-.14-.06l-.7-.7-.91.91.7.7c.1.1.1.26 0 .36-.05.05-.11.07-.18.07-.06 0-.13-.02-.17-.07zm-1.79-1.79-.91.92.73.72.91-.91zm-6.71 2.86 1.19-1.18-.85-.85-1.19 1.18zm-6.07.49c-.05.05-.11.07-.18.07-.03 0-.05-.03-.08-.04l-.27.28c-.03.03-.08.03-.11.04 1.28.02 2.5.03 3.63.04-.02-.01-.05-.01-.07-.03l-1.76-1.75-1.12 1.12c.03.09.03.19-.04.27zm-4.93-.47.73.72c.01.02.01.05.02.07l.43.01c1.02 0 2.01.01 2.97.02-.04-.01-.08-.01-.11-.04-.1-.1-.1-.26 0-.35l.25-.25-.76-.76-.73.72.01.01c.1.1.1.26 0 .36-.05.04-.11.07-.18.07-.06 0-.12-.03-.17-.07l-.01-.01-.14.14c-.05.05-.12.07-.18.07-.07 0-.13-.02-.18-.07-.1-.1-.1-.26 0-.36l.14-.14-.99-.99c-.05-.05-.07-.11-.07-.18zm.09.79-.44-.44-.43.43zm-18.35-41.79 1.15-1.15c-.74.03-1.46.07-2.19.11zm9.2-1.41c-.53.02-1.07.04-1.6.05l.77.78zm-3.72 50.45.7-.7-.62-.63c-.41.03-.81.05-1.23.08l1.08 1.07c.05.05.07.11.07.18zm-8.22.22.94.94 1.14-1.14-.75-.75c-.69.05-1.36.13-1.99.3l.51.5c.03.01.07.02.1.05.03.02.04.06.05.1zm-1.43-49.41.76-.77c-.48.03-.97.05-1.45.08zm.23 48.93c-.31.12-.61.27-.9.47-.16.1-.3.23-.44.37l.84.84 1.09-1.1zm-1.98 3.16 1.12-1.13-.81-.81c-.37.52-.57 1.15-.4 1.75.02.07.06.13.09.19zm9.18-53.16.83.83.88-.88c-.57.02-1.14.03-1.71.05zm-1.03 49.2.82.82.71-.71c.03-.03.08-.04.12-.05l-.2-.2c-.48.04-.96.09-1.45.14zm13.29-49.37.11-.11c-.07 0-.15 0-.23 0zm-2.66 48.87c-.62 0-1.24 0-1.87.01-.35.01-.7.01-1.05.02-.99.02-1.98.06-2.96.11-.25.01-.51.03-.76.05l.32.31.26-.26c.1-.1.26-.1.35 0 .1.1.1.25 0 .35l-.26.26.59.59c.09.1.09.26 0 .35-.05.05-.12.08-.18.08-.07 0-.13-.03-.18-.08l-.58-.58-.81.8c-.05.05-.11.07-.17.07-.07 0-.13-.02-.18-.07-.07-.07-.07-.16-.05-.25-.03.02-.06.05-.1.05-.06 0-.13-.03-.18-.08l-.88-.89c-.01.05-.02.09-.05.13l-.71.7.22.22c.1.1.1.26 0 .36-.05.05-.11.07-.17.07-.07 0-.13-.02-.18-.07l-.22-.22-.46.45c-.05.05-.11.07-.17.07-.07 0-.13-.02-.18-.07-.1-.1-.1-.26 0-.36l.45-.45-1.11-1.11c-.16.02-.32.03-.48.05l-.81.08c-.34.04-.7.06-1.05.09l.44.44.35-.35c.1-.1.26-.09.36 0 .1.1.1.26 0 .36l-.35.35.83.83c.1.1.1.26 0 .35-.05.05-.12.08-.18.08s-.13-.03-.18-.08l-.83-.83-1.29 1.3c-.05.05-.12.07-.18.07-.07 0-.13-.02-.18-.07 0-.01 0-.02-.01-.02-.03-.02-.07-.02-.1-.05l-.92-.92-1.1 1.09.77.77c.1.1.1.26 0 .36-.05.04-.11.07-.18.07-.06 0-.12-.03-.17-.07l-.77-.78-1.21 1.21c.27.33.64.62 1.11.81.72.28 1.56.33 2.38.38 7.47.41 15.04.11 22.48-.9.94-.12 1.84-.26 2.57-.68.62-.34 1.27-1 1.27-1.84 0-.81-.68-1.51-1.36-1.85-.79-.39-1.73-.49-2.7-.55-.11-.01-.18-.01-.27-.01-.01 0-.02 0-.03-.01-.01 0-.01 0-.01 0-.11 0-.23-.01-.34-.01-1.04-.07-2.07-.13-3.11-.16-.36-.02-.72-.02-1.08-.03-.8-.02-1.6-.04-2.4-.04zm.27-48.96c-.56.01-1.13.01-1.69.02l.83.84zm-3.09 47.98c.66-.01 1.33-.01 1.99-.01.39 0 .78-.01 1.17-.01.62 0 1.23.02 1.85.04.45.01.9.01 1.35.03.53.02 1.05.05 1.58.08.47.02.95.04 1.43.07.09-.67.05-1.46-.1-2.32-.11-.54-.21-1.07-.3-1.59l-8.41-.05-9.06-.06c.01 1.45.01 2.9.01 4.35.55-.05 1.09-.09 1.63-.14.32-.03.64-.06.95-.09.95-.07 1.88-.14 2.8-.18 1.03-.05 2.07-.09 3.11-.12zm-9.5-3.83c-9.02-.1-15.58.41-19.59-3.55-1.71-1.69-2.76-3.95-3.2-6.92 0 0 0 0 0-.01-.56-3.69-.26-5.64 1.14-28.32.52-8.26 2.86-11.75 13.78-11.45l38.04 1.04c9.2.26 10.84 3.49 10.76 9.96-.09 9.17-.18 18.34-.29 27.51 0 .63 0 1.25-.01 1.88-.03 2.91-.21 5.69-2.04 7.67-1.96 2.14-5.1 2.44-8.03 2.44-.25 0-.49 0-.74-.01-2.52-.03-6.2-.07-10.33-.11.08.46.16.91.26 1.39.17.95.21 1.81.11 2.57.98.07 1.96.19 2.84.63 1.17.58 1.92 1.66 1.92 2.75 0 1.06-.68 2.1-1.78 2.71-.89.5-1.9.66-2.93.8-5.34.72-10.75 1.09-16.14 1.09-2.18 0-4.35-.06-6.52-.18-.9-.06-1.82-.12-2.69-.45-1.04-.42-1.81-1.2-2.07-2.08-.43-1.47.51-2.9 1.56-3.61 1.37-.93 2.9-1.04 4.38-1.14.41-.03.82-.06 1.22-.11l.36-.03c0-1.49 0-2.98-.01-4.47zm20.4-10.83c-43.85.94-37.49.81-42.11.78.45 2.46 1.38 4.36 2.82 5.78 3.62 3.58 9.53 3.17 19.4 3.27l15.83.1c0-.06.02-.12.07-.17l.6-.6-.39-.39c-.09-.1-.09-.26 0-.36.1-.1.26-.1.36 0l.39.39 2.13-2.13c.1-.1.26-.1.36 0s.1.25 0 .35l-.86.86c.06 0 .13.03.17.07l1 1 .72-.73-.3-.3c-.1-.1-.1-.26 0-.35.1-.1.26-.1.35 0l.31.3 2.5-2.5c.09-.1.25-.1.35 0 .1.09.1.25 0 .35l-2.5 2.5.76.76 1.1-1.1-.21-.21c-.1-.1-.1-.25 0-.35.09-.1.25-.1.35 0l.21.21 3.1-3.1c.1-.09.26-.09.36 0 .09.1.09.26 0 .36l-1.63 1.63-1.47 1.47 1.75 1.75c.1.1.1.25 0 .35-.02.02-.05.02-.07.03 1.16.02 2.23.03 3.17.05.29 0 .56.01.82.01 2.15.03 4.32-.05 6.07-.79l-.69-.69c-.03.01-.05.03-.08.03-.06 0-.13-.02-.18-.07-.07-.07-.07-.17-.04-.26l-.75-.75-1.61 1.61c-.05.05-.12.07-.18.07-.07 0-.13-.02-.18-.07-.1-.1-.1-.26 0-.36l1.61-1.61-1.22-1.22-1.98 1.98 1.05 1.06c.1.1.1.26 0 .35-.05.05-.11.08-.17.08-.07 0-.13-.03-.18-.08l-1.06-1.05-1.18 1.19.12.12c.1.1.1.26 0 .36-.05.04-.11.07-.17.07-.07 0-.13-.03-.18-.07l-.18-.18c-.06 0-.13-.02-.18-.07s-.07-.12-.07-.18l-.9-.9-.48.47c-.05.05-.11.08-.18.08-.06 0-.12-.03-.17-.08-.1-.09-.1-.25 0-.35l.48-.48-1.51-1.5c-.1-.1-.1-.26 0-.36s.26-.1.35 0l1.51 1.51 1.19-1.19-.68-.67c-.09-.1-.09-.26 0-.36.1-.09.26-.09.36 0l.67.68 2.1-2.1c.1-.1.26-.1.35 0 .1.1.1.26 0 .35l-2.09 2.1.84.85 1.99-1.98-.3-.3c-.1-.1-.1-.26 0-.35.1-.1.26-.1.35 0l.3.29 2.24-2.23c.09-.1.25-.1.35 0s.1.26 0 .35l-2.23 2.24 1.22 1.22.91-.91-.56-.56c-.1-.1-.1-.26 0-.35.1-.1.26-.1.35 0l.56.55.91-.91-.24-.25c-.1-.1-.1-.25 0-.35.09-.1.25-.1.35 0l.25.25.76-.76c.09-.1.25-.1.35 0s.1.26 0 .35l-.76.76.73.73 1.17-1.17-1.65-1.65c-.1-.09-.1-.25 0-.35.06-.06.13-.07.2-.06l1.07-1.07-.53-.53c-.1-.1-.1-.26 0-.36s.26-.1.36 0l.53.53.7-.7c0-.15.01-.29.01-.43-6.42.14-12.83.27-19.24.4zm-36.92-6.44 1.07-1.07-1.12-1.12c.02.73.02 1.46.05 2.19zm2.01-10.01-1.44-1.44-.13.13c-.1.1-.26.1-.35 0-.1-.09-.1-.25 0-.35l.13-.13-.28-.28c-.05 1.49-.06 2.98-.06 4.48l2.35-2.35c-.08.01-.13.02-.22-.06zm-1.44-2.15 1.37-1.36c-.03-.01-.05-.01-.07-.03l-1.79-1.79c-.05.96-.11 1.93-.14 2.89.1-.09.25-.09.34.01zm-1.32-6.76c.4-6.16 2.43-7.77 8.09-8.13 4.86-.3 9.75-.5 14.65-.65l.13-.14c.1-.1.26-.1.35 0 .04.04.04.08.05.12 1.23-.04 2.46-.09 3.69-.12l.02-.02c.1-.1.26-.1.36 0v.02c6.23-.14 12.46-.15 18.64-.03 4.98.09 6.88 1.46 7.33 7 .71 8.61.81 17.35.28 25.98 1.11-.02 2.22-.04 3.33-.07.1-9.01.19-18.02.29-27.03.07-5.91-1.16-8.7-9.8-8.95l-38.04-1.04c-10.47-.3-12.27 2.92-12.75 10.51-1.42 22.95-1.65 24.33-1.21 27.69 1.7.01 3.06.05 4.68.01-.61-8.35-.64-16.81-.09-25.15zm3.16-5.83c-1.49 1.13-1.89 2.95-2.07 4.82.06 0 .13.02.18.07l1.75 1.76.89-.89c.1-.1.26-.1.36 0 .09.09.09.25 0 .35l-2.31 2.3c-.1.1-.26.1-.35 0-.1-.09-.1-.25 0-.35l1.06-1.06-1.63-1.63c-.02.17-.03.35-.04.52-.07.96-.09 1.93-.14 2.9.03.01.07.01.1.04l2.01 2.02c.02.02.02.04.03.07l.11-.12c.1-.1.26-.1.36 0 .09.1.09.26 0 .36l-1.79 1.79 1.43 1.44c.09.09.09.22.02.32.08-.03.18-.03.25.04.09.1.09.26 0 .36l-2.44 2.43 1.71 1.71c.1.1.1.26 0 .35-.1.1-.25.1-.35 0l-1.68-1.67c0 1.26.03 2.53.06 3.8l2.49-2.49c.1-.1.26-.1.36 0 .09.09.09.25 0 .35l-2.55 2.55 1.19 1.19.85-.85c.1-.1.26-.1.35 0 .1.09.1.25 0 .35l-.85.85.28.27c.09.1.09.26 0 .36-.1.09-.26.09-.36 0l-.27-.28-1.39 1.4c.07 1.85.18 3.69.32 5.53 12.17-.25 24.37-.51 36.56-.77 4.97-.1 9.95-.2 14.93-.31.53-8.61.44-17.33-.27-25.93-.41-5.03-1.92-6-6.35-6.08-4.28-.08-8.58-.07-12.89-.04l-.47.48.59.6c.1.1.1.26 0 .36-.09.09-.25.09-.35 0l-.6-.6-.17.17c-.1.09-.25.1-.35 0s-.1-.26 0-.36l.17-.17-.46-.46c-.29.01-.57.01-.86.01l-1.22 1.22.14.14c.09.1.09.26 0 .35-.1.1-.26.1-.36 0l-.22-.22c-.04-.01-.09-.01-.13-.05-.03-.04-.04-.08-.05-.13l-1.27-1.27c-.27.01-.54.01-.8.02l-1.21 1.2.48.49c.1.1.1.25 0 .35-.09.1-.25.1-.35 0l-1.66-1.66c-.08-.08-.08-.2-.03-.29-.49.01-.98.03-1.46.05l-1.27 1.26.27.26c.09.1.09.26 0 .35-.1.1-.26.1-.36 0l-.29-.28c-.08.03-.15.07-.26-.04-.08-.07-.08-.18-.04-.27l-1.19-1.18c-.23.01-.46.01-.69.02l-1.53 1.52.83.83c.1.1.1.26 0 .36-.1.09-.26.09-.35 0l-2.55-2.54c-.31.01-.63.03-.94.04l-1.16 1.16.88.88c.1.1.1.26 0 .36s-.25.09-.35 0l-.89-.89-.24.25c-.1.1-.26.1-.36 0-.09-.1-.09-.25 0-.35l.25-.25-1.01-1.01c-.59.03-1.18.06-1.77.09-.42.02-.85.04-1.27.07-.44.03-.88.06-1.31.11l1.16 1.16 1.25-1.25c.04-.05.11-.08.17-.08.07 0 .13.03.18.08.1.1.1.26 0 .35l-1.25 1.25 1.11 1.11c.1.1.1.26 0 .36-.09.1-.25.09-.35 0l-1.11-1.12-1.02 1.02c-.1.1-.26.1-.35 0-.1-.09-.1-.25 0-.35l1.02-1.02-1.44-1.43c-.36.05-.71.12-1.05.22-.57.13-1.1.33-1.58.61l.44.44.97-.96c.04-.05.11-.08.17-.08.07 0 .13.03.18.08.1.09.1.25 0 .35l-.96.96 1.73 1.74c.1.1.1.26 0 .35-.09.1-.25.1-.35 0l-1.74-1.73-.44.44c-.1.1-.25.1-.35 0s-.1-.26 0-.35l.44-.45z" fill="#707070" data-original="#000000" style="" class=""/></g></g></g></svg>
