<?xml version="1.0"?>
<svg xmlns="http://www.w3.org/2000/svg" xmlns:xlink="http://www.w3.org/1999/xlink" xmlns:svgjs="http://svgjs.com/svgjs" version="1.1" width="512" height="512" x="0" y="0" viewBox="0 0 66 66" style="enable-background:new 0 0 512 512" xml:space="preserve"><g><g xmlns="http://www.w3.org/2000/svg"><path d="m64.37 22.041c-3.605-.018-6.908-11.839-.658-20.238.312-.422-.159-.985-.633-.742-6.399 3.346-12.106 7.692-16.972 12.912l-44.489 1.437c-.275.01-.494.24-.483.521.684 16.018 1.148 32.131 1.823 48.248.012.258.217.465.474.479 15.929.836 31.633.207 47.242-2.722.275-.05.458-.321.397-.598-.628-2.89-1.595-16.055-2.12-28.832 4.636-4.079 9.882-7.277 15.599-9.5.51-.198.369-.963-.18-.965zm-32.294 17.101c-2.146-4.772-4.588-9.335-6.628-14.047-.189-.433-.772-.378-.926.019-2.022 5.266-7.273 9.562-13.065 10.691-.236.047-.404.253-.404.493-.067-.003-.134.018-.185.07l-.371.371c.006-.071-.011-.142-.065-.197l-1.263-1.262 2.166-2.166c.098-.098.098-.256 0-.354s-.256-.098-.354 0l-1.034 1.034-1.317-1.318c-.032-.874-.066-1.75-.098-2.626l1.127 1.127-.729.729c-.098.098-.098.256 0 .354.099.099.257.097.354 0l.729-.729.146.146c.097.097.255.098.353 0s.098-.256 0-.353l-.146-.146 1.613-1.612c.098-.098.098-.256 0-.354s-.256-.098-.353 0l-1.613 1.612-1.509-1.509c-.002-.046-.004-.093-.005-.139.012.037.015.077.044.107.097.097.255.098.353 0l1.02-1.02.551.551c.097.097.256.098.354 0s.098-.256 0-.354l-.551-.551 1.053-1.053c.098-.098.098-.256 0-.354s-.256-.098-.354 0l-1.053 1.053-1.102-1.102 1.217-1.217c.098-.098.098-.256 0-.353-.097-.097-.255-.099-.354 0l-1.217 1.217-.086-.086c-.045-1.125-.085-2.246-.132-3.373l.9.9-.599.6c-.098.098-.098.256 0 .354.097.097.255.098.353 0l.6-.6 1.666 1.666c.097.097.255.098.354 0 .098-.098.098-.256 0-.354l-.063-.063c.059-.004.117-.022.162-.067l1.311-1.312.931.931c.049.049.112.073.177.073.058 0 .112-.026.158-.066l-.149.149c-.098.098-.098.256 0 .353.097.097.255.098.353 0l1.876-1.876c.098-.098.098-.256 0-.354s-.256-.098-.353 0l-1.701 1.701c.083-.098.085-.243-.008-.335l-.931-.931.093-.093c.098-.098.098-.256 0-.354s-.256-.098-.354 0l-.093.093-.747-.747 3.641-.117 2.139 2.14c.099.099.257.096.353 0 .098-.098.098-.256 0-.354l-1.807-1.808 2.681-.086c.012.026.011.056.032.078l.535.535-.794.794c-.098.098-.098.256 0 .354.097.097.255.098.353 0l.794-.794 1.251 1.25c.097.096.255.099.354 0 .098-.098.098-.256 0-.353l-1.251-1.25.675-.675 2.207-.071.131.131-1.279 1.279c-.098.098-.098.256 0 .354.097.097.255.098.354 0l1.279-1.279 1.25 1.25c.097.097.255.098.354 0 .098-.098.098-.256 0-.354l-1.25-1.25.163-.163 2.412-.077-1.131 1.132c-.098.098-.098.256 0 .354.097.097.255.098.354 0l1.409-1.409 1.478 1.479c.099.099.257.096.354 0 .02-.02.018-.048.029-.071 0 0 0 .001.001.002.096.097.255.099.353 0l1.628-1.629.03-.001c.008.051.02.102.059.142l1.085 1.085-.632.632c-.098.098-.098.256 0 .354s.256.097.354 0l.632-.632.313.313c.096.096.255.099.353 0 .098-.098.098-.256 0-.354l-.313-.313 1.328-1.328.879-.028.967.968-.632.632c-.098.098-.098.256 0 .353.099.099.257.096.354 0l.632-.632.116.116c.099.099.257.096.354 0 .098-.098.098-.256 0-.354l-.116-.116.773-.773c.076-.076.075-.183.033-.275l.591-.019.42.42-.373.373c-.098.098-.098.256 0 .353.097.097.255.098.354 0l.451-.451c.168-.027.223-.137.195-.279.023-.165-.056-.23-.183-.261l-.178-.178 1.21-.039c-3.584 5.228-6.533 11.461-8.21 17.933zm2.17 15.412c1.806-5.453 4.591-10.635 8.371-15.386.179 3.397.744 13.074 1.302 16.418-10.409 1.902-21.413 2.547-33.571 1.991.048-.009.096-.018.133-.055.098-.098.098-.256 0-.354l-.471-.471.947-.946c.083.016.136.031.222-.055.061-.061.07-.143.054-.222l2.069-2.068c.098-.098.098-.256 0-.354-.098-.097-.256-.099-.353 0l-2.03 2.03-1.505-1.506c-.003-.002-.007-.001-.009-.004-.003-.069-.005-.138-.008-.207l.973-.973.197.197c.097.097.255.098.354 0 .098-.098.098-.256 0-.354l-.197-.197 1.498-1.498c.098-.098.098-.256 0-.354s-.256-.098-.353 0l-1.498 1.498-.98-.98c.007-.006.018-.003.025-.01l1.21-1.21c.042-.011.086-.016.118-.049.033-.033.038-.077.049-.118l1.847-1.847c.098-.098.098-.256 0-.354s-.256-.098-.354 0l-1.754 1.754-1.36-1.361c-.044-1.188-.086-2.375-.128-3.563l1.167 1.167-.956.956c-.098.098-.098.256 0 .354.099.099.257.096.354 0l.956-.956.297.297c.099.099.257.096.354 0 .098-.098.098-.256 0-.354l-.297-.297 1.409-1.409c.098-.098.098-.256 0-.354-.097-.097-.255-.099-.354 0l-1.409 1.409-1.408-1.409c-.037-.037-.087-.048-.136-.056-.01-.283-.021-.565-.031-.848l1.283-1.283.839.839c.097.097.255.098.353 0s.098-.256 0-.354l-.839-.84.724-.724c.098-.098.098-.256 0-.354s-.256-.098-.354 0l-.724.724-1.393-1.394 2.343-2.343c.012-.012.009-.03.018-.044.065.054.14.097.229.113 9.679 1.659 18.251 8.642 21.838 17.789.173.447.794.417.939-.021zm-4.998-31.777c-.02.02-.018.048-.03.071 0 0 0-.001-.001-.002l-1.24-1.24 2.521-.081zm-18.055 1.909-1.344-1.344 1.133-1.134c.016-.016.013-.039.024-.058l.488-.016 1.078 1.078-1.311 1.312c-.045.045-.064.103-.068.162zm-2.786 1.973.053-.053 1.103 1.102-1.02 1.02c-.033.033-.039.077-.049.119-.029-.727-.058-1.458-.087-2.188zm1.903-4.487-.815.815-.765-.765zm10.095-.323-.298.298-.28-.28zm13.304-.427-.951.951-.893-.892zm3.61-.116-.679.679-.636-.637zm-28.578 14.253 1.337 1.337c.056.056.108.072.197.065l-1.432 1.432c-.034-.944-.068-1.889-.102-2.834zm.069-.626c-.027-.022-.06-.029-.092-.038-.02-.562-.04-1.123-.06-1.685l.938.938zm.083 4.854 1.025 1.026-.954.954c-.008-.223-.067-1.85-.071-1.98zm.649 16.443c-.01-.01-.024-.007-.035-.014-.026-.639-.05-1.275-.075-1.913l1.132 1.133-.908.908zm-.225-4.89.699.699-.646.646c-.018-.448-.036-.897-.053-1.345zm-.12-3.096.98.98-.907.907c-.024-.628-.05-1.258-.073-1.887zm.46 8.807.471.471c.034.034.08.041.124.052-.233-.011-.459-.014-.693-.026-.005-.128-.01-.256-.015-.384zm-5.719 6.632c-.663-15.883-1.115-31.545-1.783-47.29l43-1.39c-1.441 1.605-3.055 3.647-4.152 5.184l-33.305 1.069c-.283.01-.494.247-.484.521.52 12.313.853 24.136 1.365 36.268.012.257.217.464.474.478 11.841.62 23.743.16 35.542-2.044.271-.05.459-.318.396-.599-.604-2.737-1.282-14.868-1.433-17.875 1.186-1.403 2.667-2.984 4.238-4.451.063-.058.126-.116.189-.174.508 11.929 1.389 24.02 2.011 27.665-14.212 2.623-29.289 3.485-46.058 2.638zm29.789-10.685c-3.68-8.214-11.277-14.556-19.996-16.75 4.878-1.586 9.153-5.246 11.264-9.698 2.161 4.835 4.67 9.507 6.758 14.338.192.443.838.382.946-.086 2.713-11.738 8.975-19.833 8.975-19.833 4.782-6.832 11.746-13.358 20.124-18.076-4.751 8.193-2.075 18.052.99 19.748-13.371 5.639-24.133 16.682-29.061 30.357z" fill="#707070" data-original="#000000" style=""/><path d="m56.82 22.248c-.159.08-.31.174-.468.256l-.778-.623c-.106-.086-.265-.067-.352.039-.086.107-.068.265.039.352l.616.493c-.6.321-1.202.639-1.787.985l-.367-.326c-.104-.094-.262-.083-.353.02-.092.104-.083.262.021.353l.26.23c-1.031.626-2.033 1.296-3.012 1.997l-1.005-.703c-.113-.079-.27-.052-.349.062-.079.113-.052.269.062.349l.863.603c-.826.605-1.632 1.235-2.417 1.891l-1.124-.779c-.153-.11-.382-.01-.393.193l-.007.191c-.004.138.104.253.242.258.052.004.104-.014.146-.041l.735.509c-.787.672-1.552 1.367-2.294 2.088-.493-.404-.971-.829-1.408-1.295-.096-.102-.254-.105-.353-.012-.101.095-.106.253-.012.354.438.466.914.892 1.405 1.298-.909.902-1.77 1.85-2.604 2.822-.393-.288-.753-.621-1.062-.999-.087-.107-.246-.123-.352-.035-.107.087-.123.245-.035.352.329.402.71.759 1.128 1.068-.406.483-.817.962-1.204 1.462l-1.437-1.287c-.102-.09-.26-.083-.354.02-.092.103-.083.262.02.353l1.474 1.32c-.478.632-.954 1.265-1.401 1.921-.077.114-.048.27.066.348.11.075.267.051.348-.066.434-.637.897-1.253 1.362-1.867l.429.384c.105.092.261.082.354-.02.092-.103.083-.261-.02-.353l-.467-.418c.401-.518.825-1.017 1.247-1.517.256.159.519.306.795.427.129.055.275-.004.329-.13.055-.126-.003-.273-.13-.329-.233-.102-.456-.222-.673-.354.826-.96 1.679-1.894 2.578-2.784.082.063.158.134.241.195.112.083.269.056.35-.053.082-.111.059-.268-.053-.35-.058-.043-.112-.093-.169-.137.752-.729 1.53-1.431 2.329-2.11l.469.325c.118.081.272.048.348-.063.079-.113.051-.27-.063-.348l-.354-.245c.788-.654 1.595-1.281 2.423-1.884l.649.454c.114.079.269.051.349-.062.079-.113.052-.27-.062-.349l-.507-.355c.966-.686 1.952-1.342 2.968-1.955l.609.54c.103.093.262.082.353-.021.092-.103.083-.262-.021-.353l-.498-.442c.595-.35 1.206-.671 1.817-.995l.038.031c.105.085.263.07.352-.039.053-.066.054-.146.032-.222.11-.057.215-.122.326-.178.123-.063.172-.213.109-.336-.063-.122-.213-.17-.336-.108z" fill="#707070" data-original="#000000" style=""/></g></g></svg>
