<?xml version="1.0" encoding="utf-8"?>
<!-- Generator: Adobe Illustrator 25.0.0, SVG Export Plug-In . SVG Version: 6.00 Build 0)  -->
<svg version="1.1" id="Layer_1" xmlns:svgjs="http://svgjs.com/svgjs"
	 xmlns="http://www.w3.org/2000/svg" xmlns:xlink="http://www.w3.org/1999/xlink" x="0px" y="0px" viewBox="0 0 512 512"
	 style="enable-background:new 0 0 512 512;" xml:space="preserve">
<g>
	<path d="M276.6,293.7c7.2,3.9,48.4,32.5,32.8,36.7C297.2,329.2,278.8,302.3,276.6,293.7z"/>
	<path d="M408.4,420.6c-19.1,32-59.4-24.6-72.5-38.5c-10.5-17.3-29.8-23.4-31.1-41.2c15.1-39,36-13.6,53.5,3.2
		C376.8,363.6,425.4,406.3,408.4,420.6z M407.6,419.8c10.5-12.8-8.4-20.7-17.7-28.8c-12.2-9.7-23.8-20.2-34.6-31.5
		c-15.8-12.5-23.4-36.1-37-26.5c-5.3,5-10.2,6.3-7.5,15.3c11,15.3,27.1,25.6,41.4,38.2C382.7,408.9,386.3,443.8,407.6,419.8z"/>
	<path d="M112.3,130.3c27.1-39.3,114.5-41.7,139,0.5C195.2,93.1,164.2,95.8,112.3,130.3z"/>
	<path d="M313.3,176.1c2.6,12.1,9.6,28.7,0.6,41.1C310.4,206.5,313.1,187.9,313.3,176.1z"/>
	<path d="M310.4,237.7c-46,160.1-257.5,114.7-264.9-37C43.7,44.3,251.7,9,305.4,147c0.7,1.9,1,3,1.9,5.6c0,0.8,1.9,4.4-0.3,3.3
		c-16.5-39.1-50.3-68.2-91.4-78.7C128,55.5,49.4,124.5,52.4,209.3C65.1,361.6,262.3,362.1,310.4,237.7L310.4,237.7z"/>
</g>
</svg>
