<?xml version="1.0" encoding="utf-8"?>
<!-- Generator: Adobe Illustrator 25.0.1, SVG Export Plug-In . SVG Version: 6.00 Build 0)  -->
<svg version="1.1" id="Layer_1" xmlns="http://www.w3.org/2000/svg" xmlns:xlink="http://www.w3.org/1999/xlink" x="0px" y="0px"
	 viewBox="0 0 1024 1024" style="enable-background:new 0 0 1024 1024;" xml:space="preserve">
<style type="text/css">
	.st0{fill:#F05161;}
	.st1{fill:#FFFFFF;}
</style>
<g>
	<g>
		<g>
			<g>
				<path class="st0" d="M513.1,256.4c-140.6,0-257,114.4-257,255s116.4,257,257,257s255-116.4,255-257S653.7,256.4,513.1,256.4z
					 M648.1,541.4h-105v107c0,16.5-13.5,30-30,30c-16.5,0-30-13.5-30-30v-107h-107c-16.5,0-30-13.5-30-30s13.5-30,30-30h107v-105
					c0-16.5,13.5-30,30-30c16.5,0,30,13.5,30,30v105h105c16.5,0,30,13.5,30,30S664.6,541.4,648.1,541.4z"/>
			</g>
		</g>
	</g>
	<g>
		<path class="st1" d="M543.6,541.9h114.5c12.6,0,22.9-10.3,22.9-22.9v-15.3c0-12.7-10.3-22.9-22.9-22.9H543.6V366.3
			c0-12.6-10.3-22.9-22.9-22.9h-15.3c-12.6,0-22.9,10.3-22.9,22.9v114.5H368.1c-12.7,0-22.9,10.3-22.9,22.9V519
			c0,12.6,10.3,22.9,22.9,22.9h114.5v114.5c0,12.6,10.3,22.9,22.9,22.9h15.3c12.6,0,22.9-10.3,22.9-22.9L543.6,541.9z"/>
	</g>
</g>
</svg>
