<?xml version="1.0"?>
<svg xmlns="http://www.w3.org/2000/svg" xmlns:xlink="http://www.w3.org/1999/xlink" xmlns:svgjs="http://svgjs.com/svgjs" version="1.1" width="512" height="512" x="0" y="0" viewBox="0 0 66 66" style="enable-background:new 0 0 512 512" xml:space="preserve"><g><g xmlns="http://www.w3.org/2000/svg"><g><path d="m39.474 5.478c-28.832.29-29.313-.21-31.231 1.867-1.341 1.464-1.341 1.464-.727 23.098.009.31.506 21.06.735 21.269.194.178 12.32 11.176 12.582 11.208.005.001.008.005.013.006 26.344 2.334 31.241 4.975 32.888-5.89 1.962-13.025 2.745-26.281 2.331-39.405 9.112-10.412-5.903-23.744-16.591-12.153zm14.763 39.015-.479-.479.579-.579c-.031.353-.068.705-.1 1.058zm.258-2.978-.284-.284.329-.329c-.016.205-.029.409-.045.613zm.175-2.413-.168-.168.194-.194c-.008.121-.018.241-.026.362zm-.761-20.697-1.249-1.249 1.331-1.331 1.245 1.245c-.415.466-.791.852-1.327 1.335zm3.383-5.702.444-.445c-.046.237-.117.472-.184.708-.088-.092-.169-.172-.26-.263zm.148.658c-.16.478-.35.953-.596 1.42l-.841-.841c.136-.054.832-.78.936-.884.155.157.296.366.501.305zm-1.738.279-1.027-1.026.91-.911 1 1c-.103.104-.829.801-.883.937zm-1.38-.673 1.052 1.052c-.097-.061-.22-.064-.304.02l-1.079 1.079-.911-.911c.119-.115 1.124-1.122 1.242-1.24zm1.101 1.426c.084-.084.081-.208.02-.304.103.103 1.034 1.043 1.141 1.123-.294.5-.64.989-1.033 1.467l-1.207-1.207zm2.169-5.782-.36-.36.171-.171c.063.178.139.353.189.531zm-.354-.993c-.139.024-.248.168-.359.279l-.725-.726c-.097-.097-.255-.099-.354 0-.098.098-.098.256 0 .354l.725.726-.666.666c-.158.158-.044.427.177.427.161 0 .718-.614.842-.739l.366.366c.099.099.257.096.354 0 .034-.034.04-.079.051-.122.223.9.273 1.816.176 2.731-.174-.007-.75.635-.885.77l-1-1 .789-.789c.119.119.596.654.757.654.221 0 .334-.269.177-.427l-1.329-1.329c-.098-.098-.256-.098-.354 0-.236.236.152.506.395.749l-.789.789c-.281-.281-.636.071-.353.354-.119.119-2.387 2.386-2.503 2.507l-.186-.186c-.232-.232-.588.119-.354.354l1.448 1.448-1.331 1.331-.951-.951c.169-.235-.098-.502-.333-.333-.23-.23-.47-.573-.698-.345-.225.225.103.457.335.688l-1.18 1.18-.364-.365c-.234-.234-.586.121-.354.354l.364.365-1.271 1.271c-.261-.261-.591-.733-.839-.485s.224.578.485.839l-.726.726c-.158.158-.044.427.177.427.161 0 .777-.673.902-.799l1.893 1.893c.097.097.255.098.354 0 .261-.261-.318-.672-.599-.953l1.271-1.271.703.703c.099.099.257.096.354 0 .098-.098.098-.256 0-.354l-.703-.703 1.181-1.181 1.226 1.226c-1.915 1.645-10.694 7.937-11.706 8.659-.03-.142-.366-.441-.478-.553l1.03-1.03c.27.27.631.782.883.53s-.259-.613-.53-.883l1.361-1.361.608.609c.099.099.257.096.354 0 .262-.262-.326-.68-.608-.962l1.692-1.692.882.882c.097.097.255.098.354 0 .098-.098.098-.256 0-.354l-.882-.882.365-.365c.232-.232-.119-.588-.354-.354l-.365.365-1.417-1.417c-.098-.098-.256-.098-.354 0s-.098.256 0 .354l1.417 1.417-1.692 1.692-1.12-1.121.268-.268c.232-.232-.119-.588-.354-.354l-.268.268c-.207-.208-.39-.452-.598-.244-.207.207.037.39.244.598l-1.361 1.361c-.196-.196-.364-.418-.568-.214s.018.372.214.568l-1.03 1.03-.395-.395c-.232-.232-.588.119-.354.354l.395.395-1 1-.906-.906c-.232-.232-.588.119-.354.354l.906.906-1.116 1.116c-1.613-.96-3.089-2.633-4.007-4.264-1.529-2.727-2.347-5.555 6.19-15.893 8.007-9.69 16.179-5.201 18.358-.065zm-9.03 11.402 1.271-1.271.94.94-1.271 1.271zm1.624-1.624 1.18-1.18.94.94-1.18 1.18zm-14.534 15.737-.504-.504.975-.975.094.094c-.199.455-.378.922-.565 1.385zm.85-1.999c-.025-.212-.215-.263-.365-.171l-.652-.652c-.098-.098-.256-.098-.354 0-.263.263.349.702.637.99l-.975.975c-.253-.253-.606.101-.354.354l-.175.175c-.158.158-.044.427.177.427.142 0 .242-.139.352-.249.111.111.527.577.683.592-.171.436-.356.864-.517 1.306l-.246-.246c.254-.254-.1-.607-.354-.354l-.446-.446c-.232-.232-.588.119-.354.354l.446.446-.731.731c-.253-.253-.606.101-.354.354-.27.27-.811.653-.555.909.097.097.255.098.354 0l.555-.555c.112.112.833.883.988.9-.116.362-.243.716-.353 1.082-.059-.025-.114-.026-.174-.004l-1.342-1.342c-.232-.232-.588.119-.354.354l1.314 1.314-1.083 1.083-.948-.948.677-.677c.232-.232-.119-.588-.354-.354l-1.978 1.978-.799-.799c-.096-.096-.251-.096-.349-.002l1.159-1.158c.098-.098.098-.256 0-.354-.097-.097-.255-.099-.354 0l-2.531 2.53-.704-.704c.246-.246.637-.519.401-.755-.251-.251-.599.246-.865.512-.122.046-.087.011-.133.133l-1.004 1.004-.881-.881c-.084-.084-.209-.081-.306-.02.038-.265-.258-.365-.413-.21l-1.274 1.273c-.095-.095-.369-.377-.476-.459.073-.282-.242-.396-.403-.235l-1.345 1.345c-.2-.2-.376-.437-.583-.229-.207.207.029.383.229.583l-1.333 1.333c-.025.014-.051.026-.076.041 2.231-5.152 2.959-10.826 2.062-16.21 4.12-.186 8.255-1.464 11.772-3.638.977 2.65 3.407 5.524 5.957 6.596-.32.645-.616 1.313-.916 1.978zm-2.084 5.374-.789-.789.731-.731c.093.093.323.329.425.413-.129.365-.245.738-.367 1.107zm-14.441 4.772c-.078-.104-.128-.147-.228-.247l1.083-1.083.433.433-.665.665c-.21.073-.417.151-.623.232zm-.488.2c-.115.049-.228.103-.342.155l.249-.249zm2.675-.9c-.093-.1-.095-.1-.192-.197l1.215-1.214c.004.16.812.912.935 1.035-.664.089-1.317.216-1.958.376zm3.575-1.254.71.71c-.505.006-1.004.035-1.499.079zm1.408.723c-.003-.004-.002-.008-.005-.012l1.373-1.372c-.094.098-.095.253.002.349l.805.805c-.192.231.099.544.342.342l.118.118c-.875-.138-1.754-.209-2.635-.23zm3.468.391c-.067-.12-.491-.527-.591-.627l.948-.948.948.948c-.21.21-.469.399-.257.611.099.099.257.096.354 0l.257-.257c.123.123.648.706.809.706.027 0 .048-.022.074-.031-.02.081-.045.159-.065.24-.82-.272-1.647-.475-2.477-.642zm2.646.012c-.079-.084-.553-.557-.635-.639l1.109-1.108c-.166.578-.325 1.16-.474 1.747zm4.251-12.366 1.01-1.011c.117.117 1.345 1.407 1.511 1.407.221 0 .334-.269.177-.427l-1.334-1.333 1-1 1.144 1.144c-.094.208.068.416.307.307.101.101.383.399.501.47-1.555 1.051-2.615 1.272-4.316.443zm4.868-2.628-1.03 1.03-1.12-1.12 1.03-1.03zm-.767-1.474 1.361-1.361 1.12 1.121-1.361 1.361zm-10.435-2.436c-3.582 2.279-7.858 3.585-12.088 3.669-.309.006-.539.289-.481.593 1.115 5.901.184 12.207-2.623 17.755-.236.466.32.938.741.629 4.784-3.503 10.998-3.992 16.553-1.988.291.101.59-.07.657-.357 1.022-4.401 2.528-8.559 4.459-12.378 2.411.542 3.543-.661 8.272-4.087 4.981-3.605 7.278-5.255 8.782-6.719.173 6.449.053 12.928-.351 19.393-.144.032-.494.42-.603.53-.236-.194-.535.106-.341.341-.255.255-.686.555-.443.797.242.242.538-.184.791-.438l.473.473c-.014.199-.029.397-.043.596-.086-.026-.178-.023-.246.045l-.496.496c-.227-.119-.433.087-.314.314l-.684.684c-.158.158-.044.427.177.427.161 0 .717-.614.841-.738.113.113.474.476.59.586-.025.302-.05.604-.076.906-.109-.133-.269-.114-.362-.021l-1.816 1.816c-.158.158-.044.427.177.427.161 0 .909-.806 1.035-.932l.771.771c-.032.339-.062.679-.096 1.018-.085-.025-.175-.021-.242.046l-1.516 1.516c-.098.098-.098.256 0 .354.097.097.255.098.354 0l.394-.394c.055.111.601.703.773.74-.005.046-.011.092-.016.138-.007-.228-.273-.32-.424-.17l-1.986 1.986c-.098.098-.098.256 0 .354.097.097.255.098.354 0 .123-.123 2.046-1.992 2.054-2.15-.102.918-.208 1.836-.322 2.753l-.892-.892c-.232-.232-.588.119-.354.354.105.105 1.044 1.07 1.177 1.127-.13 1.022-.277 2.042-.422 3.062-.106-.106-1.343-1.38-1.488-1.419l1.48-1.48c.098-.098.098-.256 0-.354s-.256-.098-.354 0l-1.752 1.752c-.158.158-.044.427.177.427.058 0 .113-.026.16-.066.043.18 1.58 1.67 1.701 1.681-.144 1-.176 1.407-.384 2.495l-1.189-1.188.956-.956c.232-.232-.119-.588-.354-.354l-.956.956-.341-.341c-.098-.099-.256-.097-.354 0-.229.229.111.465.341.694l-.858.858c-.158.158-.044.427.177.427.161 0 .91-.806 1.035-.932.101.101 1.301 1.32 1.426 1.39-.206.936-.453 1.725-.764 2.382l-.631-.631.568-.568c.232-.232-.119-.588-.354-.354l-.568.568-1.441-1.441c-.232-.232-.588.119-.354.354l1.441 1.441-1.038 1.038-1.07-1.07.735-.735c.232-.232-.119-.588-.353-.354l-.768.768c-.201-.057-.345.084-.287.287l-1.783 1.783-.858-.858c-.098-.098-.256-.098-.354 0s-.098.256 0 .354l.858.858-.978.978c-.093-.106-1.16-1.169-1.26-1.268l2.419-2.419c.098-.098.098-.256 0-.354s-.256-.098-.354 0l-2.419 2.419c-.099-.099-.513-.534-.638-.596l.771-.771c.098-.098.098-.256 0-.354s-.256-.098-.354 0l-2.4 2.4c-.106-.106-1.154-1.191-1.298-1.23l1.649-1.649c.098-.098.098-.256 0-.354s-.256-.098-.354 0l-2.78 2.78-.406-.406c-.098-.098-.256-.098-.354 0s-.098.256 0 .354l.406.406-.665.665c-.098.098-.098.256 0 .354.049.049.112.073.177.073s.128-.024.177-.073l.665-.665.806.806c.049.049.112.073.177.073s.128-.024.177-.073c.098-.098.098-.256 0-.354l-.806-.806.845-.845c.039.145 1.124 1.192 1.23 1.298l-.47.47c-.098.098-.098.256 0 .354.049.049.112.073.177.073s.128-.024.177-.073l.47-.47.536.536c.049.049.112.073.177.073s.128-.024.177-.073c.098-.098.098-.256 0-.354l-.536-.536 1.317-1.317c.062.124.497.539.596.637l-1.214 1.214c-.098.098-.098.256 0 .354.049.049.112.073.177.073.063 0 .128-.024.177-.073l1.214-1.214c.1.1 1.162 1.167 1.268 1.26-.099.099-.184.155-.188.287-2.142-.042-4.792-.269-8.12-.602.059-.096.062-.218-.021-.302l-.673-.673 2.408-2.407c.098-.098.098-.256 0-.354s-.256-.098-.354 0l-2.408 2.407c-.265-.265-.607-.752-.856-.503-.25.25.238.591.503.856l-.374.373c-.233.233.12.587.354.354l.374-.373.573.573c-.86-.087-1.757-.179-2.707-.277.064-.097.067-.224-.018-.309l-.568-.568 2.714-2.714c.098-.098.098-.256 0-.354-.097-.098-.255-.098-.354 0l-2.715 2.714-.406-.405c-.237-.234-.585.122-.354.354l.406.405c-.107.107-.574.552-.632.678-.241-.025-.482-.05-.728-.075.235-.05.251-.283.128-.407l-.391-.391 2.132-2.131c.098-.098.098-.256 0-.354-.097-.098-.255-.098-.354 0l-2.132 2.131-.794-.794c-.232-.232-.588.119-.354.354l.794.794c-.095.095-.538.527-.615.636-.749-.076-1.524-.153-2.319-.23l.505-.505c.116.116.541.598.702.598.221 0 .334-.269.177-.427l-.525-.525 1.69-1.69c.098-.098.098-.256 0-.354s-.256-.098-.354 0l-1.691 1.69-.276-.276c-.099-.098-.257-.098-.354 0-.216.216.061.415.276.629l-.796.796c-.541-.052-1.095-.105-1.659-.158l.511-.511.533.533c.097.097.255.098.354 0 .253-.253-.261-.615-.533-.886l1.299-1.299c.232-.232-.119-.588-.354-.354l-1.299 1.299c-.207-.207-.39-.451-.597-.244-.098.098-.098.256 0 .354l.244.244-.804.804c-.518-.048-1.045-.096-1.582-.144 1.124-4.762.825-10.287-3.297-12.139-2.981-1.34-6.112.187-9.151.662-.215-8.219-.402-14.811-.551-20.09-.04-1.394-.076-2.69-.11-3.907l.787-.787c.082.082.131.146.249.146.221 0 .334-.269.177-.427l-.072-.072 1.581-1.581c.098-.098.098-.256 0-.354s-.256-.098-.354 0l-1.581 1.581c-.098-.098-.744-.751-.852-.838-.019-.696-.037-1.367-.054-2l.368-.368.651.651c.097.097.255.098.354 0 .098-.098.098-.256 0-.354l-.651-.651 1.505-1.505c.232-.232-.119-.588-.354-.354l-1.505 1.505c-.109-.114-.266-.3-.398-.337-.007-.273-.013-.533-.02-.794.124-.068.755-.718.855-.818.119.119.329.38.483.38.221 0 .334-.269.177-.427l-.307-.307 1.067-1.067c.098-.098.098-.256 0-.354s-.256-.098-.354 0l-1.067 1.067c-.138-.138-.732-.798-.908-.79-.006-.303-.012-.598-.018-.88l.782-.782.55.55c.097.097.255.098.354 0 .098-.098.098-.256 0-.354l-.55-.55.842-.842c.098-.098.098-.256 0-.354s-.256-.098-.354 0l-.842.842-.816-.816c-.001-.133-.002-.258-.003-.385l1.25-1.25.707.707c.097.097.255.098.354 0 .098-.098.098-.256 0-.354l-.706-.705 1.116-1.116c.232-.232-.119-.588-.354-.354l-1.116 1.116-.795-.795 1.549-1.549c.12.12 1.061 1.12 1.224 1.12.221 0 .334-.269.177-.427l-1.047-1.047 1.441-1.441 1.011 1.011c-.245.245-.633.515-.397.751.097.097.255.098.354 0l.397-.397c.109.109.197.231.335.231.221 0 .334-.269.177-.427l-.158-.158 1.549-1.549.743.743c.031.127.045.141.172.172.285.285.669.851.937.583.098-.098.098-.256 0-.354l-.493-.493 1.393-1.163c.007-.007.004.206.01.206h.092c.01 0 .007-.194.021-.18l1.179 1.065c-.032.088-.031.128.04.199.049.049.112.044.177.044.029 0 .052-.038.079-.047.341.288.621-.094.382-.339.209-.151 1.122-.741.872-.741.193 0 .387-.248.58-.25 0 0-.053-.075.785.692l-.649.618c-.098.098-.098.241 0 .338.049.049.112.066.177.066.063 0 .128-.028.177-.077l.649-.651.826.825c.049.049.112.073.177.073s.128-.025.177-.073c.098-.098.098-.256 0-.354l-.826-.826.35-.35c.098-.098.098-.256 0-.354-.097-.097-.255-.099-.354 0l-.35.349-.528-.528c.833-.008 1.667-.016 2.5-.024l.941.941-.685.685c-.098.098-.098.256 0 .354.049.049.112.073.177.073s.128-.024.177-.073l.685-.685.078.078c.049.049.112.073.177.073.063 0 .128-.024.177-.073.098-.098.098-.256 0-.354l-.078-.078c.113-.113.859-.816.889-.966.15-.001.3-.003.45-.004l1.006 1.006c-.241.241.12.588.354.354l.493.493c.049.049.112.073.177.073s.128-.024.177-.073c.098-.098.098-.256 0-.354l-.493-.493 1.032-1.032c.27-.003.541-.125.811-.127l.825.706h-.187c-.138 0-.25.362-.25.5s.112.5.25.5h1.908c.066 0 .13-.157.177-.204l.467-.532c.179.098.454-.122.317-.374.318-.34-.057-.654-.335-.38l-.129-.122c1.501-.015 3.002-.028 4.504-.043-2.854 3.389-8.717 10.75-7.752 15.061zm23.084 26.304c-.097-.097-.404-.424-.527-.486l.645-.645c-.039.377-.077.754-.118 1.131zm-6.715 15.608-1.07-1.07 1.749-1.749 1.07 1.07zm2.103-1.396.812.812c-.673.469-1.51.768-2.563.939zm-17.157.96c-.283-.029-.572-.059-.862-.089l.386-.386zm-2.318-.239c-.273-.028-.554-.056-.833-.085l.346-.346c.109.109.354.382.487.431zm-21.683-51.186.881.881-.9.9c0-.687.006-1.276.019-1.781zm-.005 3.585.455.455-.441.441c-.006-.312-.01-.61-.014-.896zm.057 3.072.542.542-.517.517c-.01-.365-.018-.718-.025-1.059zm.077 3.164.034.034-.032.032c-.001-.022-.002-.044-.002-.066zm.093 3.469.479.479-.453.452c-.009-.313-.018-.63-.026-.931zm7.305-18.184c.528-.005 1.057-.01 1.585-.015l-1.057 1.057-.652-.652c.129-.128.226-.205.124-.39zm-.478.037-.032-.032c.022 0 .043 0 .065-.001zm3.525-.066c.576-.005 1.151-.011 1.727-.017l-.872.872zm6.471-.062c.4-.004.8-.008 1.2-.011l-.606.606zm2.987-.028c.443-.004.887-.008 1.33-.013l-.672.672zm5.202-.05.472.353-.375.256h-1.056c.056 0-.645-.615-.687-.653.548-.005 1.097.05 1.646.044zm-18.734.179c-.047.184.058.243.196.381l-1.549 1.549-1.091-1.091c-.023-.13-.063-.171-.193-.193l-.507-.507c.981-.145 2.051-.129 3.144-.139zm-3.737.252.667.667-1.441 1.441-1.103-1.102c.493-.541 1.168-.837 1.877-1.006zm-2.197 1.393 1.069 1.069-1.549 1.549c-.024-.024-.035-.012-.062-.028.074-1.58.248-2.167.542-2.59zm.747 43.092c3.008-.526 5.847-1.823 8.356-.697 3.492 1.569 3.713 6.588 2.798 10.738-3.991-3.64-7.206-6.438-11.154-10.041zm35.053 12.556 1.265-1.265 1.117 1.117c-.001.015 0 .026.002.041-.811.086-1.587.11-2.384.107zm6.002-1.44s.041.04-.857-.858l1.038-1.038c.103.103.631.647.75.718-.265.462-.57.856-.931 1.178z" fill="#707070" data-original="#000000" style=""/></g><g><path d="m26.608 30.568c-2.482.813-3.386 4.099-.583 4.943 1.991.602 3.905-1.123 3.556-3.146-.248-1.428-1.588-2.249-2.973-1.797zm-.35 2.52-.614-.613c.097-.138.208-.27.336-.391l.673.674c-.131.037-.28.215-.395.33zm-.836.836c-.176-.317-.155-.64-.025-.989l.507.507zm.961-2.145c.092-.058.188-.11.287-.156l-.221.222zm-.617 2.508.509-.509c.241.139.448-.099.32-.32.199-.199.429-.342.335-.567.241-.029.28-.284.149-.415l-.277-.278.261-.261c.118.117.445.497.601.497.221 0 .334-.269.177-.427l-.424-.424c.095-.095.03-.026.113-.124 2.258.237.698 4.54-1.764 2.828z" fill="#707070" data-original="#000000" style=""/></g><g><path d="m40.695 7.782c.077.017.147.055.219.087-.295.329-.584.678-.868 1.051-.151-.111-.311-.212-.483-.288-.126-.057-.273 0-.329.128-.056.126.002.273.128.329.138.061.254.157.375.245-.264.368-.523.761-.78 1.171-.192-.205-.355-.434-.565-.238-.229.216.076.448.294.68-.278.466-.554.949-.826 1.469-.086.167.033.366.222.366.09 0 .177-.049.222-.134.243-.466.489-.902.737-1.323l.495.529c.097.103.255.104.354.012.101-.095.106-.253.012-.354l-.59-.63c.261-.423.525-.826.793-1.203.087.104.185.199.25.318.045.083.131.13.219.13.041 0 .082-.01.12-.031.121-.066.165-.218.099-.339-.101-.185-.231-.35-.373-.504.298-.395.603-.762.914-1.104.178.186.306.42.347.67.019.124.126.211.246.211.014 0 .027-.001.041-.003.463-.079.039-.902-.299-1.242.284-.292.575-.56.872-.813.169.215.362.411.589.565.043.029.092.043.141.043.08 0 .158-.038.207-.109.077-.114.048-.27-.066-.348-.188-.127-.347-.29-.486-.469.829-.65.983-.696 1.453-.954l.188.412c.042.092.133.146.228.146.035 0 .07-.007.104-.022.295-.135.056-.48-.081-.779.65-.314 1.32-.539 1.993-.689.094.269.174.718.428.718.409 0 .202-.429.07-.807.543-.087 1.083-.126 1.613-.104.081.437.436 1.208.771.916.104-.091.115-.249.024-.353-.128-.147-.216-.327-.272-.517.476.054.939.152 1.382.299-.044.376-.222.971.132 1.011.141.016.262-.085.277-.219l.072-.612c.233.1.467.2.686.328.12.069.272.028.342-.09.2-.343-.59-.61-.967-.76l.085-.716c.04-.332-.459-.381-.496-.059l-.073.616c-.48-.151-.978-.257-1.491-.308.02-.243.096-.453-.155-.517-.299-.069-.319.204-.342.484-.578-.021-1.167.018-1.758.119l-.141-.404c-.108-.308-.581-.15-.473.164l.118.339c-.688.157-1.373.385-2.036.705l-.166-.363c-.058-.128-.21-.183-.331-.124-.126.058-.182.206-.124.331l.183.399c-.503.274-.676.331-1.512.981-.063-.136-.115-.278-.148-.425-.03-.134-.165-.216-.3-.188-.135.031-.219.165-.188.3.051.223.14.433.246.636-.34.288-.675.591-.999.928-.288-.162-.69-.313-.762.008-.031.135.054.268.189.298z" fill="#707070" data-original="#000000" style=""/></g><g><path d="m30.05 24.358c-.428.263-.868.507-1.314.742-.18-.285-.342-.691-.623-.521-.274.173.003.476.176.75-.427.213-.86.416-1.3.602-.111-.153-.21-.315-.278-.49-.119-.302-.587-.129-.467.182.068.176.162.341.267.499-.555.22-1.117.42-1.686.596-.166-.319-.155-.781-.471-.733-.353.061-.165.55-.013.874-.541.154-1.086.287-1.636.4-.149-.303-.269-.713-.56-.572-.271.134-.08.404.052.674-.338.061-.676.119-1.015.164-.316.043-.276.527.066.496.394-.053.788-.117 1.18-.191.112.228.271.704.503.704.186 0 .306-.195.225-.36l-.223-.453c.564-.119 1.124-.257 1.679-.418.103.132.346.428.513.428.232 0 .342-.297.156-.444-.054-.043-.1-.095-.149-.145.578-.183 1.149-.387 1.711-.614.272.278.774.728.963.386.147-.272-.214-.384-.463-.596.41-.177.814-.366 1.212-.566.204.324.436.894.74.707.298-.187-.094-.62-.293-.936.444-.235.882-.478 1.308-.741.118-.072.154-.227.082-.344-.07-.117-.224-.153-.342-.08z" fill="#707070" data-original="#000000" style=""/></g></g></g></svg>
