<?xml version="1.0" encoding="utf-8"?>
<!-- Generator: Adobe Illustrator 25.0.0, SVG Export Plug-In . SVG Version: 6.00 Build 0)  -->
<svg version="1.1" id="Layer_1" xmlns:svgjs="http://svgjs.com/svgjs"
	 xmlns="http://www.w3.org/2000/svg" xmlns:xlink="http://www.w3.org/1999/xlink" x="0px" y="0px" viewBox="0 0 512 512"
	 style="enable-background:new 0 0 512 512;" xml:space="preserve">
<style type="text/css">
	.st0{fill:#FFFFFF;}
</style>
<g>
	<g>
		<g>
			<path class="st0" d="M306.2,42.5C82.6,44.7,78.8,40.9,63.9,57c-10.4,11.4-10.4,11.4-5.6,179.2c0.1,2.4,3.9,163.4,5.7,165
				c1.5,1.4,95.6,86.7,97.6,86.9c0,0,0.1,0,0.1,0c204.4,18.1,242.4,38.6,255.1-45.7c15.2-101,21.3-203.9,18.1-305.7
				C505.6,56,389.1-47.4,306.2,42.5z M420.7,345.2l-3.7-3.7l4.5-4.5C421.3,339.7,421,342.4,420.7,345.2z M422.7,322.1l-2.2-2.2
				l2.6-2.6C423,318.9,422.9,320.5,422.7,322.1z M424.1,303.3l-1.3-1.3l1.5-1.5C424.2,301.5,424.2,302.4,424.1,303.3z M418.2,142.8
				l-9.7-9.7l10.3-10.3l9.7,9.7C425.3,136,422.4,139,418.2,142.8L418.2,142.8z M444.4,98.5l3.4-3.5c-0.4,1.8-0.9,3.7-1.4,5.5
				C445.8,99.9,445.2,99.3,444.4,98.5L444.4,98.5z M445.6,103.6c-1.2,3.7-2.7,7.4-4.6,11l-6.5-6.5c1.1-0.4,6.5-6.1,7.3-6.9
				C442.9,102.5,444,104.1,445.6,103.6z M432.1,105.8l-8-8l7.1-7.1l7.8,7.8C438.2,99.4,432.5,104.8,432.1,105.8z M421.4,100.6
				l8.2,8.2c-0.8-0.5-1.7-0.5-2.4,0.2l-8.4,8.4l-7.1-7.1C412.7,109.3,420.5,101.5,421.4,100.6z M429.9,111.7
				c0.7-0.7,0.6-1.6,0.2-2.4c0.8,0.8,8,8.1,8.9,8.7c-2.3,3.9-5,7.7-8,11.4l-9.4-9.4L429.9,111.7z M446.8,66.8L444,64l1.3-1.3
				C445.8,64.1,446.4,65.4,446.8,66.8z M444,59.1c-1.1,0.2-1.9,1.3-2.8,2.2l-5.6-5.6c-0.8-0.8-2-0.8-2.7,0c-0.8,0.8-0.8,2,0,2.7
				l5.6,5.6l-5.2,5.2c-1.2,1.2-0.3,3.3,1.4,3.3c1.2,0,5.6-4.8,6.5-5.7l2.8,2.8c0.8,0.8,2,0.7,2.7,0c0.3-0.3,0.3-0.6,0.4-0.9
				c1.7,7,2.1,14.1,1.4,21.2c-1.3-0.1-5.8,4.9-6.9,6L434,88l6.1-6.1c0.9,0.9,4.6,5.1,5.9,5.1c1.7,0,2.6-2.1,1.4-3.3L437,73.4
				c-0.8-0.8-2-0.8-2.7,0c-1.8,1.8,1.2,3.9,3.1,5.8l-6.1,6.1c-2.2-2.2-4.9,0.6-2.7,2.7c-0.9,0.9-18.5,18.5-19.4,19.4l-1.4-1.4
				c-1.8-1.8-4.6,0.9-2.7,2.7l11.2,11.2l-10.3,10.3l-7.4-7.4c1.3-1.8-0.8-3.9-2.6-2.6c-1.8-1.8-3.6-4.4-5.4-2.7
				c-1.7,1.7,0.8,3.5,2.6,5.3l-9.2,9.2l-2.8-2.8c-1.8-1.8-4.5,0.9-2.7,2.7l2.8,2.8l-9.9,9.9c-2-2-4.6-5.7-6.5-3.8s1.7,4.5,3.8,6.5
				l-5.6,5.6c-1.2,1.2-0.3,3.3,1.4,3.3c1.2,0,6-5.2,7-6.2l14.7,14.7c0.8,0.8,2,0.8,2.7,0c2-2-2.5-5.2-4.6-7.4l9.9-9.9l5.5,5.5
				c0.8,0.8,2,0.7,2.7,0c0.8-0.8,0.8-2,0-2.7l-5.5-5.5l9.2-9.2l9.5,9.5c-14.9,12.8-83,61.6-90.8,67.2c-0.2-1.1-2.8-3.4-3.7-4.3l8-8
				c2.1,2.1,4.9,6.1,6.8,4.1c2-2-2-4.8-4.1-6.8l10.6-10.6l4.7,4.7c0.8,0.8,2,0.7,2.7,0c2-2-2.5-5.3-4.7-7.5l13.1-13.1l6.8,6.8
				c0.8,0.8,2,0.8,2.7,0c0.8-0.8,0.8-2,0-2.7l-6.8-6.8l2.8-2.8c1.8-1.8-0.9-4.6-2.7-2.7l-2.8,2.8l-11-11c-0.8-0.8-2-0.8-2.7,0
				c-0.8,0.8-0.8,2,0,2.7l11,11l-13.1,13.1l-8.7-8.7l2.1-2.1c1.8-1.8-0.9-4.6-2.7-2.7l-2.1,2.1c-1.6-1.6-3-3.5-4.6-1.9
				c-1.6,1.6,0.3,3,1.9,4.6l-10.6,10.6c-1.5-1.5-2.8-3.2-4.4-1.7c-1.6,1.6,0.1,2.9,1.7,4.4l-8,8l-3.1-3.1c-1.8-1.8-4.6,0.9-2.7,2.7
				l3.1,3.1l-7.8,7.8l-7-7c-1.8-1.8-4.6,0.9-2.7,2.7l7,7l-8.7,8.7c-12.5-7.4-24-20.4-31.1-33.1c-11.9-21.2-18.2-43.1,48-123.3
				C363.7-15.6,427.1,19.3,444,59.1L444,59.1z M374,147.5l9.9-9.9l7.3,7.3l-9.9,9.9L374,147.5z M386.6,135l9.2-9.2l7.3,7.3l-9.2,9.2
				L386.6,135z M273.8,257l-3.9-3.9l7.6-7.6l0.7,0.7C276.7,249.8,275.3,253.4,273.8,257L273.8,257z M280.4,241.5
				c-0.2-1.6-1.7-2-2.8-1.3l-5.1-5.1c-0.8-0.8-2-0.8-2.7,0c-2,2,2.7,5.4,4.9,7.7l-7.6,7.6c-2-2-4.7,0.8-2.7,2.7l-1.4,1.4
				c-1.2,1.2-0.3,3.3,1.4,3.3c1.1,0,1.9-1.1,2.7-1.9c0.9,0.9,4.1,4.5,5.3,4.6c-1.3,3.4-2.8,6.7-4,10.1l-1.9-1.9c2-2-0.8-4.7-2.7-2.7
				l-3.5-3.5c-1.8-1.8-4.6,0.9-2.7,2.7l3.5,3.5l-5.7,5.7c-2-2-4.7,0.8-2.7,2.7c-2.1,2.1-6.3,5.1-4.3,7.1c0.8,0.8,2,0.8,2.7,0
				l4.3-4.3c0.9,0.9,6.5,6.8,7.7,7c-0.9,2.8-1.9,5.6-2.7,8.4c-0.5-0.2-0.9-0.2-1.3,0l-10.4-10.4c-1.8-1.8-4.6,0.9-2.7,2.7l10.2,10.2
				l-8.4,8.4l-7.4-7.4l5.3-5.3c1.8-1.8-0.9-4.6-2.7-2.7l-15.3,15.3l-6.2-6.2c-0.7-0.7-1.9-0.7-2.7,0l9-9c0.8-0.8,0.8-2,0-2.7
				c-0.8-0.8-2-0.8-2.7,0l-19.6,19.6l-5.5-5.5c1.9-1.9,4.9-4,3.1-5.9c-1.9-1.9-4.6,1.9-6.7,4c-0.9,0.4-0.7,0.1-1,1l-7.8,7.8
				l-6.8-6.8c-0.7-0.7-1.6-0.6-2.4-0.2c0.3-2.1-2-2.8-3.2-1.6l-9.9,9.9c-0.7-0.7-2.9-2.9-3.7-3.6c0.6-2.2-1.9-3.1-3.1-1.8
				l-10.4,10.4c-1.6-1.6-2.9-3.4-4.5-1.8c-1.6,1.6,0.2,3,1.8,4.5l-10.3,10.3c-0.2,0.1-0.4,0.2-0.6,0.3c17.3-40,23-84,16-125.8
				c32-1.4,64-11.4,91.3-28.2c7.6,20.6,26.4,42.9,46.2,51.2C285,231.2,282.7,236.4,280.4,241.5z M264.3,283.2l-6.1-6.1l5.7-5.7
				c0.7,0.7,2.5,2.6,3.3,3.2C266.1,277.5,265.2,280.4,264.3,283.2L264.3,283.2z M152.2,320.2c-0.6-0.8-1-1.1-1.8-1.9l8.4-8.4
				l3.4,3.4l-5.2,5.2C155.4,319,153.8,319.6,152.2,320.2L152.2,320.2z M148.4,321.8c-0.9,0.4-1.8,0.8-2.7,1.2l1.9-1.9L148.4,321.8z
				 M169.2,314.8c-0.7-0.8-0.7-0.8-1.5-1.5l9.4-9.4c0,1.2,6.3,7.1,7.3,8C179.2,312.6,174.2,313.6,169.2,314.8z M196.9,305.1l5.5,5.5
				c-3.9,0-7.8,0.3-11.6,0.6L196.9,305.1z M207.8,310.7C207.8,310.7,207.8,310.6,207.8,310.7l10.6-10.7c-0.7,0.8-0.7,2,0,2.7
				l6.2,6.2c-1.5,1.8,0.8,4.2,2.7,2.7l0.9,0.9C221.5,311.4,214.7,310.8,207.8,310.7L207.8,310.7z M234.8,313.7
				c-0.5-0.9-3.8-4.1-4.6-4.9l7.4-7.4l7.4,7.4c-1.6,1.6-3.6,3.1-2,4.7c0.8,0.8,2,0.7,2.7,0l2-2c1,1,5,5.5,6.3,5.5
				c0.2,0,0.4-0.2,0.6-0.2c-0.2,0.6-0.3,1.2-0.5,1.9C247.6,316.6,241.2,315,234.8,313.7L234.8,313.7z M255.3,313.8
				c-0.6-0.7-4.3-4.3-4.9-5l8.6-8.6C257.7,304.7,256.4,309.3,255.3,313.8L255.3,313.8z M288.3,217.9l7.8-7.8
				c0.9,0.9,10.4,10.9,11.7,10.9c1.7,0,2.6-2.1,1.4-3.3l-10.3-10.3l7.8-7.8l8.9,8.9c-0.7,1.6,0.5,3.2,2.4,2.4c0.8,0.8,3,3.1,3.9,3.6
				C309.7,222.6,301.5,224.3,288.3,217.9L288.3,217.9z M326,197.5l-8,8l-8.7-8.7l8-8L326,197.5z M320.1,186.1l10.6-10.6l8.7,8.7
				l-10.6,10.6L320.1,186.1z M239.1,167.2c-27.8,17.7-61,27.8-93.8,28.5c-2.4,0-4.2,2.2-3.7,4.6c8.6,45.8,1.4,94.7-20.3,137.7
				c-1.8,3.6,2.5,7.3,5.7,4.9c37.1-27.2,85.3-31,128.4-15.4c2.3,0.8,4.6-0.5,5.1-2.8c7.9-34.1,19.6-66.4,34.6-96
				c18.7,4.2,27.5-5.1,64.2-31.7c38.6-28,56.5-40.8,68.1-52.1c1.3,50,0.4,100.3-2.7,150.4c-1.1,0.2-3.8,3.3-4.7,4.1
				c-1.8-1.5-4.2,0.8-2.6,2.6c-2,2-5.3,4.3-3.4,6.2c1.9,1.9,4.2-1.4,6.1-3.4l3.7,3.7c-0.1,1.5-0.2,3.1-0.3,4.6
				c-0.7-0.2-1.4-0.2-1.9,0.3l-3.8,3.8c-1.8-0.9-3.4,0.7-2.4,2.4l-5.3,5.3c-1.2,1.2-0.3,3.3,1.4,3.3c1.2,0,5.6-4.8,6.5-5.7
				c0.9,0.9,3.7,3.7,4.6,4.5c-0.2,2.3-0.4,4.7-0.6,7c-0.8-1-2.1-0.9-2.8-0.2l-14.1,14.1c-1.2,1.2-0.3,3.3,1.4,3.3
				c1.2,0,7.1-6.3,8-7.2l6,6c-0.2,2.6-0.5,5.3-0.7,7.9c-0.7-0.2-1.4-0.2-1.9,0.4l-11.8,11.8c-0.8,0.8-0.8,2,0,2.7
				c0.8,0.8,2,0.8,2.7,0l3.1-3.1c0.4,0.9,4.7,5.5,6,5.7c0,0.4-0.1,0.7-0.1,1.1c-0.1-1.8-2.1-2.5-3.3-1.3l-15.4,15.4
				c-0.8,0.8-0.8,2,0,2.7c0.8,0.8,2,0.8,2.7,0c1-1,15.9-15.5,15.9-16.7c-0.8,7.1-1.6,14.2-2.5,21.4l-6.9-6.9
				c-1.8-1.8-4.6,0.9-2.7,2.7c0.8,0.8,8.1,8.3,9.1,8.7c-1,7.9-2.1,15.8-3.3,23.8c-0.8-0.8-10.4-10.7-11.5-11l11.5-11.5
				c0.8-0.8,0.8-2,0-2.7c-0.8-0.8-2-0.8-2.7,0l-13.6,13.6c-1.2,1.2-0.3,3.3,1.4,3.3c0.4,0,0.9-0.2,1.2-0.5c0.3,1.4,12.3,13,13.2,13
				c-1.1,7.8-1.4,10.9-3,19.4l-9.2-9.2l7.4-7.4c1.8-1.8-0.9-4.6-2.7-2.7l-7.4,7.4l-2.6-2.6c-0.8-0.8-2-0.8-2.7,0
				c-1.8,1.8,0.9,3.6,2.6,5.4l-6.7,6.7c-1.2,1.2-0.3,3.3,1.4,3.3c1.2,0,7.1-6.3,8-7.2c0.8,0.8,10.1,10.2,11.1,10.8
				c-1.6,7.3-3.5,13.4-5.9,18.5l-4.9-4.9l4.4-4.4c1.8-1.8-0.9-4.6-2.7-2.7l-4.4,4.4L382,454c-1.8-1.8-4.6,0.9-2.7,2.7l11.2,11.2
				l-8.1,8.1l-8.3-8.3l5.7-5.7c1.8-1.8-0.9-4.6-2.7-2.7l-6,6c-1.6-0.4-2.7,0.7-2.2,2.2L355,481.3l-6.7-6.7c-0.8-0.8-2-0.8-2.7,0
				c-0.8,0.8-0.8,2,0,2.7l6.7,6.7l-7.6,7.6c-0.7-0.8-9-9.1-9.8-9.8l18.8-18.8c0.8-0.8,0.8-2,0-2.7c-0.8-0.8-2-0.8-2.7,0L332.2,479
				c-0.8-0.8-4-4.1-4.9-4.6l6-6c0.8-0.8,0.8-2,0-2.7c-0.8-0.8-2-0.8-2.7,0l-18.6,18.6c-0.8-0.8-9-9.2-10.1-9.5l12.8-12.8
				c0.8-0.8,0.8-2,0-2.7c-0.8-0.8-2-0.8-2.7,0l-21.6,21.6l-3.1-3.1c-0.8-0.8-2-0.8-2.7,0c-0.8,0.8-0.8,2,0,2.7l3.1,3.1l-5.2,5.2
				c-0.8,0.8-0.8,2,0,2.7c0.4,0.4,0.9,0.6,1.4,0.6c0.5,0,1-0.2,1.4-0.6l5.2-5.2l6.3,6.3c0.4,0.4,0.9,0.6,1.4,0.6
				c0.5,0,1-0.2,1.4-0.6c0.8-0.8,0.8-2,0-2.7l-6.3-6.3l6.6-6.6c0.3,1.1,8.7,9.2,9.5,10.1l-3.6,3.6c-0.8,0.8-0.8,2,0,2.7
				c0.4,0.4,0.9,0.6,1.4,0.6s1-0.2,1.4-0.6l3.6-3.6l4.2,4.2c0.4,0.4,0.9,0.6,1.4,0.6c0.5,0,1-0.2,1.4-0.6c0.8-0.8,0.8-2,0-2.7
				l-4.2-4.2l10.2-10.2c0.5,1,3.9,4.2,4.6,4.9l-9.4,9.4c-0.8,0.8-0.8,2,0,2.7c0.4,0.4,0.9,0.6,1.4,0.6c0.5,0,1-0.2,1.4-0.6l9.4-9.4
				c0.8,0.8,9,9.1,9.8,9.8c-0.8,0.8-1.4,1.2-1.5,2.2c-16.6-0.3-37.2-2.1-63-4.7c0.5-0.7,0.5-1.7-0.2-2.3l-5.2-5.2l18.7-18.7
				c0.8-0.8,0.8-2,0-2.7c-0.8-0.8-2-0.8-2.7,0l-18.7,18.7c-2.1-2.1-4.7-5.8-6.6-3.9c-1.9,1.9,1.8,4.6,3.9,6.6l-2.9,2.9
				c-1.8,1.8,0.9,4.6,2.7,2.7l2.9-2.9l4.4,4.4c-6.7-0.7-13.6-1.4-21-2.1c0.5-0.8,0.5-1.7-0.1-2.4l-4.4-4.4l21.1-21.1
				c0.8-0.8,0.8-2,0-2.7c-0.8-0.8-2-0.8-2.7,0l-21.1,21.1l-3.1-3.1c-1.8-1.8-4.5,0.9-2.7,2.7l3.1,3.1c-0.8,0.8-4.5,4.3-4.9,5.3
				c-1.9-0.2-3.7-0.4-5.6-0.6c1.8-0.4,1.9-2.2,1-3.2l-3-3l16.5-16.5c0.8-0.8,0.8-2,0-2.7c-0.8-0.8-2-0.8-2.7,0l-16.5,16.5l-6.2-6.2
				c-1.8-1.8-4.6,0.9-2.7,2.7l6.2,6.2c-0.7,0.7-4.2,4.1-4.8,4.9c-5.8-0.6-11.8-1.2-18-1.8l3.9-3.9c0.9,0.9,4.2,4.6,5.4,4.6
				c1.7,0,2.6-2.1,1.4-3.3l-4.1-4.1l13.1-13.1c0.8-0.8,0.8-2,0-2.7c-0.8-0.8-2-0.8-2.7,0l-13.1,13.1l-2.1-2.1c-0.8-0.8-2-0.8-2.7,0
				c-1.7,1.7,0.5,3.2,2.1,4.9l-6.2,6.2c-4.2-0.4-8.5-0.8-12.9-1.2l4-4l4.1,4.1c0.8,0.8,2,0.8,2.7,0c2-2-2-4.8-4.1-6.9l10.1-10.1
				c1.8-1.8-0.9-4.6-2.7-2.7L188.1,473c-1.6-1.6-3-3.5-4.6-1.9c-0.8,0.8-0.8,2,0,2.7l1.9,1.9l-6.2,6.2c-4-0.4-8.1-0.7-12.3-1.1
				c8.7-36.9,6.4-79.8-25.6-94.2c-23.1-10.4-47.4,1.5-71,5.1C68.6,328,67.2,276.9,66,235.9c-0.3-10.8-0.6-20.9-0.9-30.3l6.1-6.1
				c0.6,0.6,1,1.1,1.9,1.1c1.7,0,2.6-2.1,1.4-3.3l-0.6-0.6l12.3-12.3c0.8-0.8,0.8-2,0-2.7s-2-0.8-2.7,0L71.3,194
				c-0.8-0.8-5.8-5.8-6.6-6.5c-0.1-5.4-0.3-10.6-0.4-15.5l2.9-2.9l5.1,5.1c0.8,0.8,2,0.8,2.7,0c0.8-0.8,0.8-2,0-2.7l-5.1-5.1
				l11.7-11.7c1.8-1.8-0.9-4.6-2.7-2.7l-11.7,11.7c-0.8-0.9-2.1-2.3-3.1-2.6c-0.1-2.1-0.1-4.1-0.2-6.2c1-0.5,5.9-5.6,6.6-6.3
				c0.9,0.9,2.6,2.9,3.7,2.9c1.7,0,2.6-2.1,1.4-3.3l-2.4-2.4l8.3-8.3c0.8-0.8,0.8-2,0-2.7c-0.8-0.8-2-0.8-2.7,0l-8.3,8.3
				c-1.1-1.1-5.7-6.2-7-6.1c0-2.4-0.1-4.6-0.1-6.8l6.1-6.1l4.3,4.3c0.8,0.8,2,0.8,2.7,0c0.8-0.8,0.8-2,0-2.7l-4.3-4.3l6.5-6.5
				c0.8-0.8,0.8-2,0-2.7c-0.8-0.8-2-0.8-2.7,0l-6.5,6.5l-6.3-6.3c0-1,0-2,0-3l9.7-9.7l5.5,5.5c0.8,0.8,2,0.8,2.7,0
				c0.8-0.8,0.8-2,0-2.7l-5.5-5.5l8.7-8.7c1.8-1.8-0.9-4.6-2.7-2.7l-8.7,8.7l-6.2-6.2l12-12c0.9,0.9,8.2,8.7,9.5,8.7
				c1.7,0,2.6-2.1,1.4-3.3l-8.1-8.1L92.5,62l7.8,7.8c-1.9,1.9-4.9,4-3.1,5.8c0.8,0.8,2,0.8,2.7,0l3.1-3.1c0.8,0.8,1.5,1.8,2.6,1.8
				c1.7,0,2.6-2.1,1.4-3.3l-1.2-1.2l12-12l5.8,5.8c0.2,1,0.3,1.1,1.3,1.3c2.2,2.2,5.2,6.6,7.3,4.5c0.8-0.8,0.8-2,0-2.7l-3.8-3.8
				l10.8-9c0.1-0.1,0,1.6,0.1,1.6h0.7c0.1,0,0.1-1.5,0.2-1.4l9.1,8.3c-0.2,0.7-0.2,1,0.3,1.5c0.4,0.4,0.9,0.3,1.4,0.3
				c0.2,0,0.4-0.3,0.6-0.4c2.6,2.2,4.8-0.7,3-2.6c1.6-1.2,8.7-5.7,6.8-5.7c1.5,0,3-1.9,4.5-1.9c0,0-0.4-0.6,6.1,5.4l-5,4.8
				c-0.8,0.8-0.8,1.9,0,2.6c0.4,0.4,0.9,0.5,1.4,0.5c0.5,0,1-0.2,1.4-0.6l5-5.1l6.4,6.4c0.4,0.4,0.9,0.6,1.4,0.6s1-0.2,1.4-0.6
				c0.8-0.8,0.8-2,0-2.7l-6.4-6.4l2.7-2.7c0.8-0.8,0.8-2,0-2.7c-0.8-0.8-2-0.8-2.7,0l-2.7,2.7l-4.1-4.1c6.5-0.1,12.9-0.1,19.4-0.2
				l7.3,7.3l-5.3,5.3c-0.8,0.8-0.8,2,0,2.7c0.4,0.4,0.9,0.6,1.4,0.6c0.5,0,1-0.2,1.4-0.6l5.3-5.3l0.6,0.6c0.4,0.4,0.9,0.6,1.4,0.6
				c0.5,0,1-0.2,1.4-0.6c0.8-0.8,0.8-2,0-2.7l-0.6-0.6c0.9-0.9,6.7-6.3,6.9-7.5c1.2,0,2.3,0,3.5,0l7.8,7.8c-1.9,1.9,0.9,4.6,2.7,2.7
				l3.8,3.8c0.4,0.4,0.9,0.6,1.4,0.6c0.5,0,1-0.2,1.4-0.6c0.8-0.8,0.8-2,0-2.7l-3.8-3.8l8-8c2.1,0,4.2-1,6.3-1l6.4,5.5h-1.5
				c-1.1,0-1.9,2.8-1.9,3.9s0.9,3.9,1.9,3.9h14.8c0.5,0,1-1.2,1.4-1.6l3.6-4.1c1.4,0.8,3.5-0.9,2.5-2.9c2.5-2.6-0.4-5.1-2.6-2.9
				l-1-0.9c11.6-0.1,23.3-0.2,34.9-0.3C277.1,76.6,231.6,133.7,239.1,167.2L239.1,167.2z M418.2,371.2c-0.8-0.8-3.1-3.3-4.1-3.8l5-5
				C418.8,365.4,418.5,368.3,418.2,371.2z M366.1,492.3l-8.3-8.3l13.6-13.6l8.3,8.3L366.1,492.3z M382.4,481.5l6.3,6.3
				c-5.2,3.6-11.7,6-19.9,7.3L382.4,481.5z M249.3,488.9c-2.2-0.2-4.4-0.5-6.7-0.7l3-3L249.3,488.9z M231.3,487.1
				c-2.1-0.2-4.3-0.4-6.5-0.7l2.7-2.7C228.4,484.6,230.3,486.7,231.3,487.1z M63.1,90l6.8,6.8l-7,7C63,98.5,63,93.9,63.1,90z
				 M63.1,117.8l3.5,3.5l-3.4,3.4C63.2,122.3,63.1,120,63.1,117.8z M63.5,141.6l4.2,4.2l-4,4C63.7,147,63.6,144.3,63.5,141.6z
				 M64.1,166.2l0.3,0.3l-0.2,0.2C64.1,166.5,64.1,166.3,64.1,166.2z M64.9,193.1l3.7,3.7l-3.5,3.5C65,197.9,64.9,195.4,64.9,193.1z
				 M121.5,52c4.1,0,8.2-0.1,12.3-0.1l-8.2,8.2l-5.1-5.1C121.6,54,122.3,53.4,121.5,52z M117.8,52.3l-0.2-0.2c0.2,0,0.3,0,0.5,0
				L117.8,52.3z M145.2,51.8c4.5,0,8.9-0.1,13.4-0.1l-6.8,6.8L145.2,51.8z M195.4,51.3c3.1,0,6.2-0.1,9.3-0.1l-4.7,4.7L195.4,51.3z
				 M218.5,51.1c3.4,0,6.9-0.1,10.3-0.1l-5.2,5.2L218.5,51.1z M258.9,50.7l3.7,2.7l-2.9,2h-8.2c0.4,0-5-4.8-5.3-5.1
				C250.4,50.3,254.6,50.7,258.9,50.7z M113.6,52.1c-0.4,1.4,0.4,1.9,1.5,3l-12,12l-8.5-8.5c-0.2-1-0.5-1.3-1.5-1.5l-3.9-3.9
				C96.8,52,105.1,52.2,113.6,52.1z M84.6,54l5.2,5.2L78.6,70.4L70,61.9C73.8,57.7,79.1,55.4,84.6,54z M67.5,64.9l8.3,8.3l-12,12
				c-0.2-0.2-0.3-0.1-0.5-0.2C63.9,72.7,65.2,68.1,67.5,64.9z M73.3,399.1c23.3-4.1,45.4-14.1,64.8-5.4
				c27.1,12.2,28.8,51.1,21.7,83.3C128.9,448.8,103.9,427.1,73.3,399.1z M345.2,496.5l9.8-9.8l8.7,8.7c0,0.1,0,0.2,0,0.3
				C357.4,496.4,351.4,496.6,345.2,496.5z M391.8,485.4c0,0,0.3,0.3-6.6-6.7l8.1-8.1c0.8,0.8,4.9,5,5.8,5.6
				C397,479.8,394.6,482.9,391.8,485.4z"/>
		</g>
		<g>
			<path class="st0" d="M206.4,237.1c-19.3,6.3-26.3,31.8-4.5,38.3c15.4,4.7,30.3-8.7,27.6-24.4C227.6,240,217.2,233.6,206.4,237.1z
				 M203.7,256.7l-4.8-4.8c0.8-1.1,1.6-2.1,2.6-3l5.2,5.2C205.7,254.4,204.6,255.8,203.7,256.7L203.7,256.7z M197.2,263.2
				c-1.4-2.5-1.2-5-0.2-7.7l3.9,3.9L197.2,263.2z M204.7,246.5c0.7-0.4,1.5-0.9,2.2-1.2l-1.7,1.7L204.7,246.5z M199.9,266l3.9-3.9
				c1.9,1.1,3.5-0.8,2.5-2.5c1.5-1.5,3.3-2.7,2.6-4.4c1.9-0.2,2.2-2.2,1.2-3.2l-2.1-2.2l2-2c0.9,0.9,3.5,3.9,4.7,3.9
				c1.7,0,2.6-2.1,1.4-3.3l-3.3-3.3c0.7-0.7,0.2-0.2,0.9-1C231.1,245.9,219,279.3,199.9,266z"/>
		</g>
		<g>
			<path class="st0" d="M315.7,60.4c0.6,0.1,1.1,0.4,1.7,0.7c-2.3,2.6-4.5,5.3-6.7,8.2c-1.2-0.9-2.4-1.6-3.7-2.2c-1-0.4-2.1,0-2.6,1
				c-0.4,1,0,2.1,1,2.6c1.1,0.5,2,1.2,2.9,1.9c-2,2.9-4.1,5.9-6.1,9.1c-1.5-1.6-2.8-3.4-4.4-1.8c-1.8,1.7,0.6,3.5,2.3,5.3
				c-2.2,3.6-4.3,7.4-6.4,11.4c-0.7,1.3,0.3,2.8,1.7,2.8c0.7,0,1.4-0.4,1.7-1c1.9-3.6,3.8-7,5.7-10.3l3.8,4.1c0.8,0.8,2,0.8,2.7,0.1
				c0.8-0.7,0.8-2,0.1-2.7l-4.6-4.9c2-3.3,4.1-6.4,6.2-9.3c0.7,0.8,1.4,1.5,1.9,2.5c0.3,0.6,1,1,1.7,1c0.3,0,0.6-0.1,0.9-0.2
				c0.9-0.5,1.3-1.7,0.8-2.6c-0.8-1.4-1.8-2.7-2.9-3.9c2.3-3.1,4.7-5.9,7.1-8.6c1.4,1.4,2.4,3.3,2.7,5.2c0.1,1,1,1.6,1.9,1.6
				c0.1,0,0.2,0,0.3,0c3.6-0.6,0.3-7-2.3-9.6c2.2-2.3,4.5-4.3,6.8-6.3c1.3,1.7,2.8,3.2,4.6,4.4c0.3,0.2,0.7,0.3,1.1,0.3
				c0.6,0,1.2-0.3,1.6-0.8c0.6-0.9,0.4-2.1-0.5-2.7c-1.5-1-2.7-2.2-3.8-3.6c6.4-5,7.6-5.4,11.3-7.4l1.5,3.2c0.3,0.7,1,1.1,1.8,1.1
				c0.3,0,0.5-0.1,0.8-0.2c2.3-1,0.4-3.7-0.6-6c5-2.4,10.2-4.2,15.5-5.3c0.7,2.1,1.3,5.6,3.3,5.6c3.2,0,1.6-3.3,0.5-6.3
				c4.2-0.7,8.4-1,12.5-0.8c0.6,3.4,3.4,9.4,6,7.1c0.8-0.7,0.9-1.9,0.2-2.7c-1-1.1-1.7-2.5-2.1-4c3.7,0.4,7.3,1.2,10.7,2.3
				c-0.3,2.9-1.7,7.5,1,7.8c1.1,0.1,2-0.7,2.1-1.7l0.6-4.7c1.8,0.8,3.6,1.6,5.3,2.5c0.9,0.5,2.1,0.2,2.7-0.7
				c1.6-2.7-4.6-4.7-7.5-5.9l0.7-5.6c0.3-2.6-3.6-3-3.8-0.5l-0.6,4.8c-3.7-1.2-7.6-2-11.6-2.4c0.2-1.9,0.7-3.5-1.2-4
				c-2.3-0.5-2.5,1.6-2.7,3.8c-4.5-0.2-9.1,0.1-13.6,0.9l-1.1-3.1c-0.8-2.4-4.5-1.2-3.7,1.3l0.9,2.6c-5.3,1.2-10.7,3-15.8,5.5
				l-1.3-2.8c-0.4-1-1.6-1.4-2.6-1c-1,0.4-1.4,1.6-1,2.6l1.4,3.1c-3.9,2.1-5.2,2.6-11.7,7.6c-0.5-1.1-0.9-2.2-1.1-3.3
				c-0.2-1-1.3-1.7-2.3-1.5c-1,0.2-1.7,1.3-1.5,2.3c0.4,1.7,1.1,3.4,1.9,4.9c-2.6,2.2-5.2,4.6-7.7,7.2c-2.2-1.3-5.4-2.4-5.9,0.1
				C314,59.1,314.6,60.1,315.7,60.4L315.7,60.4z"/>
		</g>
		<g>
			<path class="st0" d="M233.1,189c-3.3,2-6.7,3.9-10.2,5.8c-1.4-2.2-2.7-5.4-4.8-4c-2.1,1.3,0,3.7,1.4,5.8
				c-3.3,1.7-6.7,3.2-10.1,4.7c-0.9-1.2-1.6-2.4-2.2-3.8c-0.9-2.3-4.6-1-3.6,1.4c0.5,1.4,1.3,2.6,2.1,3.9c-4.3,1.7-8.7,3.3-13.1,4.6
				c-1.3-2.5-1.2-6.1-3.7-5.7c-2.7,0.5-1.3,4.3-0.1,6.8c-4.2,1.2-8.4,2.2-12.7,3.1c-1.2-2.4-2.1-5.5-4.3-4.4c-2.1,1-0.6,3.1,0.4,5.2
				c-2.6,0.5-5.2,0.9-7.9,1.3c-2.5,0.3-2.1,4.1,0.5,3.8c3.1-0.4,6.1-0.9,9.2-1.5c0.9,1.8,2.1,5.5,3.9,5.5c1.4,0,2.4-1.5,1.7-2.8
				l-1.7-3.5c4.4-0.9,8.7-2,13-3.2c0.8,1,2.7,3.3,4,3.3c1.8,0,2.7-2.3,1.2-3.4c-0.4-0.3-0.8-0.7-1.2-1.1c4.5-1.4,8.9-3,13.3-4.8
				c2.1,2.2,6,5.6,7.5,3c1.1-2.1-1.7-3-3.6-4.6c3.2-1.4,6.3-2.8,9.4-4.4c1.6,2.5,3.4,6.9,5.7,5.5c2.3-1.5-0.7-4.8-2.3-7.3
				c3.4-1.8,6.8-3.7,10.1-5.7c0.9-0.6,1.2-1.8,0.6-2.7C235.2,188.7,234,188.4,233.1,189L233.1,189z"/>
		</g>
	</g>
</g>
</svg>
