<?xml version="1.0" encoding="utf-8"?>
<!-- Generator: Adobe Illustrator 25.0.0, SVG Export Plug-In . SVG Version: 6.00 Build 0)  -->
<svg version="1.1" id="Layer_1" xmlns:svgjs="http://svgjs.com/svgjs"
	 xmlns="http://www.w3.org/2000/svg" xmlns:xlink="http://www.w3.org/1999/xlink" x="0px" y="0px" viewBox="0 0 512 512"
	 style="enable-background:new 0 0 512 512;" xml:space="preserve">
<style type="text/css">
	.st0{fill:#FFFFFF;}
</style>
<g>
	<g>
		<path class="st0" d="M367.9,61.1c-9.6-0.3-19.1-0.6-28.7-0.9c-6-18.4-19.6-19.5-31.7-19.9l-5-0.1l0-0.1
			C297,15.8,290.4,9.6,266.3,8.2C251,7.4,231.8,6.5,216.6,16c-7.4,4.7-14.2,12-19.1,20.8c0,0,0,0,0,0c-16.3,0-31.4,4.2-36.4,19.7
			c-11.3-0.6-22.3-1.2-33.3-1c-32,0.4-57.3,11.9-67.8,30.9c-10.1,18.1-6.8,8.8-6.8,360.1c0.2,39.4,11.5,58,67.9,57.7l281-1.9
			c31.5-0.2,48.7-8.5,51.8-57.4c7.1-114,7.3-226.4,0.6-333.9C451,57.9,423,62.9,367.9,61.1L367.9,61.1z M171.3,60.1l8.7,8.7
			l-10.1,10.1l-3.3-3.3c0,0-0.1,0-0.1,0c0.1-7.2-0.4-7.7,0.3-12.1c0.6,0.1,1,0.3,1.6-0.4L171.3,60.1z M166.3,80.3l1.1,1.1l-1.2,1.2
			C166.2,81.9,166.3,81.1,166.3,80.3L166.3,80.3z M165.6,99.9v-1c0,0,0,0,0,0v-0.2c0-0.2,0-0.4,0-0.7l6.1,6.1l-4.1,4.1
			C166.6,105.7,165.8,102.9,165.6,99.9z M158.7,102.5c0,0.2,0.1,0.3,0.1,0.5c1.3,8.7,5.7,17.2,13.1,21.7c7.7,4.7,17.4,4.6,24.9,4.4
			c35.9-0.9,71.8-1.9,107.6-2.9c7.9-0.2,17.8-0.5,25.4-6.1c5.2-3.8,8.6-10,10.2-16.1c18.8,0.2,37.4,0.4,55.8,0.8
			c-0.5,53.5-2,108.1-3.6,161.1c-0.8,27.8-1.6,55.7-2.3,83.5c-6.1-1-19.6-2-51.7-1.7c-23.8,0.3-35,6.6-34.6,30.7
			c0.3,18.3,2.6,36.5,6.9,54.2c-81,0.5-143.7-2.6-202.1-10.1c-7.1-106.4-4.5-214.3,7.6-320.7C125.4,102,136,102.2,158.7,102.5
			L158.7,102.5z M236.9,115.6l5,5c0,0,0,0,0,0c-3.5,0.1-6.9,0.2-10.3,0.3L236.9,115.6z M333.2,64.5c0.2,0.6,0.3,1.3,0.4,2l-4.4-4.4
			l2.4-2.4C332.2,61.2,332.7,62.8,333.2,64.5z M317.3,430.1c-4.1-17-6.3-34.4-6.6-51.8c-0.2-19.4,7.1-23.2,27.5-23.5
			c29.5-0.3,42.7,0.5,48.6,1.3L317.3,430.1z M231.4,17.4l-5.1,5.1l-2.3-2.3C226.4,19.1,228.9,18.1,231.4,17.4z M220.4,22.1
			c0.1-0.1,0.2-0.1,0.3-0.2l3.1,3.1l-2.6,2.6c-0.7,0.7-0.7,1.8,0,2.5c0.7,0.7,1.8,0.7,2.5,0l2.6-2.6l9.4,9.4c0.7,0.7,1.8,0.7,2.5,0
			c0.7-0.7,0.7-1.8,0-2.5l-9.4-9.4l9-9c9.5-1.5,19.4-1.1,28.1-0.7c20.3,1.2,24.6,4.6,29.6,26.3l0.7,2.8c0.4,1.6,1.8,2.7,3.4,2.7
			l7.7,0.2c9.6,0.3,17.3,0.9,22.5,9l-3.2,3.1l-0.7-0.7c-0.7-0.7-1.8-0.7-2.5,0c-0.7,0.7-0.7,1.8,0,2.5l0.7,0.7l-0.7,0.7
			c-0.7,0.7-0.7,1.8,0,2.5c0.7,0.7,1.8,0.7,2.5,0l0.7-0.7l4.5,4.5l-4.8,4.8l-4.6-4.6c-0.7-0.7-1.8-0.7-2.5,0c-0.7,0.7-0.7,1.8,0,2.5
			l4.6,4.6l-1.5,1.5c-0.7,0.7-0.7,1.8,0,2.5c0.7,0.7,1.8,0.7,2.5,0l1.5-1.5l5.3,5.3c0.7,0.7,1.8,0.7,2.5,0c0.7-0.7,0.7-1.8,0-2.5
			l-5.3-5.3l5.5-5.5c0.4,3.5,0.6,7.4,0.6,12c0,5.5-0.1,11.1-1.3,16.4c0,0.1,0,0.1,0,0.2c-1.4,6.8-4,11.6-8.1,14.7
			c-0.1,0.1-0.3,0.1-0.4,0.2c0.2-0.6,0.2-1.3-0.3-1.8l-9.7-9.7l6.4-6.4l4.3,4.3c0.1,0.1,0.3,0.1,0.5,0.2l-4.7,4.7
			c-0.7,0.7-0.7,1.8,0,2.5c0.7,0.7,1.8,0.7,2.5,0l8.1-8.1c0.7-0.7,0.7-1.8,0-2.5c-0.7-0.7-1.8-0.7-2.5,0l-1.1,1.1
			c-0.1-0.1-0.1-0.3-0.2-0.5l-4.3-4.3l4.3-4.3c0.7-0.7,0.7-1.8,0-2.5c-0.7-0.7-1.8-0.7-2.5,0l-4.3,4.3l-7-7l0.3-0.3
			c0.7-0.7,0.7-1.8,0-2.5s-1.8-0.7-2.5,0l-20.5,20.5l-3.4-3.4c-0.7-0.7-1.8-0.7-2.5,0s-0.7,1.8,0,2.5l3.4,3.4l-8.8,8.8
			c-0.7,0.7-0.7,1.8,0,2.5c0.7,0.7,1.8,0.7,2.5,0l8.8-8.8l8.8,8.8c0.7,0.7,1.8,0.7,2.5,0c0.4-0.4,0.5-1,0.4-1.6l9-9l9.7,9.7
			c0.2,0.2,0.5,0.2,0.8,0.3c-5.5,2.9-12.5,3.2-18.8,3.4c-19.1,0.5-38.3,1-57.5,1.5l6.6-6.6l5.8,5.8c0.7,0.7,1.8,0.7,2.5,0
			c0.7-0.7,0.7-1.8,0-2.5l-5.8-5.8l10.2-10.2c0.7-0.7,0.7-1.8,0-2.5c-0.7-0.7-1.8-0.7-2.5,0l-10.3,10.3c-0.7-0.6-1.7-0.6-2.4,0.1
			c-0.7,0.7-0.6,1.7-0.1,2.4l-6.6,6.6l-4.8-4.8l6.1-6.1c0.7-0.7,0.7-1.8,0-2.5c-0.7-0.7-1.8-0.7-2.5,0l-6.8,6.8
			c-0.2,0.1-0.5,0.1-0.7,0.3c-0.2,0.2-0.2,0.4-0.3,0.7l-8.3,8.3c-0.1,0.1-0.1,0.3-0.2,0.5c-10,0.3-20.1,0.5-30.1,0.8
			c-8.2,0.2-15.4,0.1-21-3.3c-2.6-1.6-4.7-4-6.4-6.9l18.2-18.2c0.7-0.7,0.7-1.8,0-2.5c-0.7-0.7-1.8-0.7-2.5,0l-10.7,10.7l-8.7-8.7
			c0.1-1.7,0.2-3.4,0.3-5.2c0.1-0.1,0.3-0.1,0.4-0.2l3.7-3.7l6.7,6.7c0.7,0.7,1.8,0.7,2.5,0c0.7-0.7,0.7-1.8,0-2.5l-6.7-6.7
			l10.1-10.1l0.6,0.6c0.7,0.7,1.8,0.7,2.5,0c0.7-0.7,0.7-1.8,0-2.5l-0.6-0.6l0.9-0.9c0.7-0.7,0.7-1.8,0-2.5s-1.8-0.7-2.5,0l-0.9,0.9
			l-8.7-8.7l7.3-7.3l9.2,9.2c0,0.4,0.1,0.8,0.4,1c0.3,0.3,0.7,0.4,1,0.4l0.7,0.7c0.7,0.7,1.8,0.7,2.5,0c0.7-0.7,0.7-1.8,0-2.5
			l-0.1-0.2l7.9-7.9l6.6,6.5c0.7,0.7,1.8,0.7,2.5,0c0.7-0.7,0.7-1.8,0-2.5l-6.6-6.5l9.2-9.2l5.8,5.8l-7,7c-0.7,0.7-0.7,1.8,0,2.5
			c0.7,0.7,1.8,0.7,2.5,0l7-7l0.2,0.2c0.7,0.7,1.8,0.7,2.5,0c0.7-0.7,0.7-1.8,0-2.5l-0.2-0.2l7.4-7.4c0.7-0.7,0.7-1.8,0-2.5
			c-0.7-0.7-1.8-0.7-2.5,0l-7.4,7.4l-12.1-12.1C213.7,27.1,217,24.3,220.4,22.1L220.4,22.1z M301.3,111.8l-7-7l8.7-8.7l7,7
			L301.3,111.8z M305.5,93.5l6.4-6.4l7,7l-6.4,6.4L305.5,93.5z M195.9,44.1c0,0,0,0.1,0.1,0.2l4.3,4.3l-7.9,7.9l-8.7-8.7l2.9-2.9
			C189.7,44.3,192.9,44.1,195.9,44.1L195.9,44.1z M202.9,42.1c1.6-3.2,3.6-6,5.6-8.7l3.5,3.5l-9.2,9.2l-2.2-2.2
			C201.6,43.5,202.4,43,202.9,42.1z M178.6,47.3c0,0.1,0.1,0.2,0.1,0.3l-7.7,7.7c-0.5,0-1,0.1-1.4,0.5c-0.4,0.4-0.5,0.9-0.5,1.4
			l-1.1,1.1C170,52.5,173.5,49.6,178.6,47.3L178.6,47.3z M282.4,491.8l4.1,4.1c0.1,0.1,0.2,0.1,0.3,0.1L279,496
			c0-0.2-0.1-0.4-0.3-0.6L282.4,491.8z M298.4,490.1l5.7,5.7l-11.5,0.1L298.4,490.1z M312.7,495.8l3.5-3.5l3.5,3.5L312.7,495.8z
			 M358,493.7c1,0,1.8-0.8,1.8-1.8l6-6l7.8,7.8c0,0.5,0.1,1,0.5,1.4c0.1,0.1,0.3,0.1,0.5,0.2l-18.3,0.1L358,493.7z M379.5,472.2
			c0,0.1,0,0.1,0.1,0.2l7.3,7.3l-11.2,11.2l-7.5-7.5L379.5,472.2z M402,495.2l-25.9,0.2c0.2-0.1,0.3-0.1,0.5-0.2l12.9-12.9
			l10.5,10.5c0.7,0.7,1.8,0.7,2.5,0c0.7-0.7,0.7-1.8,0-2.5L392,479.7l10.5-10.5l6.8,6.8l-8.1,8.1c-0.7,0.7-0.7,1.8,0,2.5
			c0.7,0.7,1.8,0.7,2.5,0l8.1-8.1l8.2,8.2c0.7,0.7,1.8,0.7,2.5,0c0.7-0.7,0.7-1.8,0-2.5l-8.2-8.2l9.3-9.3l4.7,4.7l-7,7
			c-0.7,0.7-0.7,1.8,0,2.5c0.7,0.7,1.8,0.7,2.5,0l7-7l6.9,6.9c0.1,0.1,0.2,0,0.2,0.1C429.8,494.2,417.7,495,402,495.2L402,495.2z
			 M444.1,465.5c-1,4.5-2.4,8.7-4.2,12.4l-6.5-6.5l8.2-8.2C442.3,464,443.2,465.1,444.1,465.5L444.1,465.5z M430.9,468.9l-4.7-4.7
			l8.2-8.2l4.7,4.7L430.9,468.9z M449.9,372.3c0.2-0.2,0.3-0.5,0.3-0.8c0,0.4,0,0.8,0,1.1C450.2,372.6,450.3,372.6,449.9,372.3z
			 M443,365.4l7.8-7.8c-0.1,4.4-0.3,8.9-0.5,13.3c-0.1-0.4-0.1-0.7-0.4-1c-0.7-0.7-1.7-0.6-2.4-0.1L443,365.4z M451.5,329.2
			l-2.9-2.9l3.1-3.1C451.6,325.2,451.5,327.3,451.5,329.2C451.5,329.3,451.5,329.3,451.5,329.2L451.5,329.2z M451.8,312.9l-2.2-2.2
			l2.2-2.2C451.8,309.9,451.8,311.4,451.8,312.9L451.8,312.9z M451,350.1l-6.6-6.6l7-7C451.2,341.1,451.1,345.6,451,350.1z
			 M448.1,418.2c-0.1-0.2-0.1-0.5-0.3-0.6l-3.8-3.8l4.5-4.5C448.5,412.3,448.3,415.3,448.1,418.2z M447,439l-5.1-5.1l5.7-5.7
			C447.4,431.8,447.2,435.4,447,439z M451.9,303.4l-4.8,4.8l-2.3-2.3c-0.7-0.7-1.8-0.7-2.5,0s-0.7,1.8,0,2.5l2.3,2.3l-2.4,2.4
			c-0.7,0.7-0.7,1.8,0,2.5c0.7,0.7,1.8,0.7,2.5,0l2.4-2.4l2.4,2.4c0.6,0.6,1.4,0.8,2.3,0.1c0,0.8,0,1.5,0,2.3l-5.8,5.8
			c-1.6-1.6-3.1-3.7-4.6-2.1c-0.7,0.7-0.7,1.8,0,2.5l2.1,2.1l-3.4,3.4c-0.7,0.7-0.7,1.8,0,2.5c0.7,0.7,1.8,0.7,2.5,0l3.4-3.4
			l2.9,2.9c0.3,0.3,0.8,0.5,1.3,0.5c0.4,0,0.9-0.2,1.2-0.5c0,0.4,0,0.8,0,1.2c-0.6-0.2-1.3-0.2-1.9,0.3l-7.7,7.7l-2.1-2.1
			c-0.7-0.7-1.8-0.7-2.5,0s-0.7,1.8,0,2.5l2.1,2.1l-4,4c-0.7,0.7-0.7,1.8,0,2.5s1.8,0.7,2.5,0l4-4l7.3,7.3c0.2,0.2,0.4,0.2,0.6,0.3
			l-9.3,9.3l-4.9-4.9c-0.7-0.7-1.8-0.7-2.5,0s-0.7,1.8,0,2.5l4.9,4.9l-3.3,3.3c-0.7,0.7-0.7,1.8,0,2.5c0.7,0.7,1.8,0.7,2.5,0
			l3.3-3.3l4.4,4.4l-7.8,7.8c-0.7,0.7-0.7,1.8,0,2.5c0.7,0.7,1.8,0.7,2.5,0l7.8-7.8l0.2,0.2c0.3,0.3,0.8,0.5,1.3,0.5
			c0.4,0,0.8-0.2,1.2-0.5c-0.2,4.4-0.3,8.8-0.5,13.2c-0.1-0.2-0.1-0.4-0.3-0.6c-0.7-0.7-1.8-0.7-2.5,0l-3.8,3.8l-4.3-4.3
			c-0.7-0.7-1.8-0.7-2.5,0c-0.7,0.7-0.7,1.8,0,2.5l4.3,4.3l-5,5c-0.7,0.7-0.7,1.8,0,2.5s1.8,0.7,2.5,0l5-5l1.8,1.8
			c0.7,0.7,1.8,0.7,2.5,0c0.7-0.7,0.7-1.8,0-2.5l-1.8-1.8l3.8-3.8c0.1-0.1,0.1-0.3,0.2-0.5c-0.2,5.5-0.5,11-0.7,16.6
			c-0.7-0.5-1.7-0.5-2.3,0.1l-4.9,4.9l-2.8-2.8c-0.7-0.7-1.8-0.7-2.5,0s-0.7,1.8,0,2.5l2.8,2.8l-3.8,3.8c-0.7,0.7-0.7,1.8,0,2.5
			s1.8,0.7,2.5,0l3.8-3.8l3.8,3.8c0.7,0.7,1.8,0.7,2.5,0c0.1-0.1,0.1-0.3,0.2-0.4c-0.1,1-0.1,2.1-0.2,3.1l-8.5,8.5L437,429
			c-0.7-0.7-1.8-0.7-2.5,0c-0.7,0.7-0.7,1.8,0,2.5l2.4,2.4l-3.7,3.7c-0.7,0.7-0.7,1.8,0,2.5c0.7,0.7,1.8,0.7,2.5,0l3.7-3.7l7.4,7.4
			c0,0.2,0,0.4,0,0.7c-0.4,5.8-0.9,11.5-1.9,17l-1.3-1.3c-0.1-0.3-0.1-0.7-0.4-0.9c-0.3-0.3-0.6-0.3-0.9-0.4l-5.3-5.3l0.1-0.1
			c0.7-0.7,0.7-1.8,0-2.5s-1.8-0.7-2.5,0l-0.1,0.1l-4.8-4.8c-0.7-0.7-1.8-0.7-2.5,0c-0.7,0.7-0.7,1.8,0,2.5l4.8,4.8l-8.2,8.2
			l-2.5-2.5c-0.7-0.7-1.8-0.7-2.5,0c-0.7,0.7-0.7,1.8,0,2.5l2.5,2.5l-9.3,9.3l-6.8-6.8l6-6c0.7-0.7,0.7-1.8,0-2.5s-1.8-0.7-2.5,0
			l-6,6l-1.3-1.3c-0.7-0.7-1.8-0.7-2.5,0c-0.7,0.7-0.7,1.8,0,2.5l1.3,1.3l-10.5,10.5l-7.3-7.3c-0.1-0.1-0.1,0-0.2-0.1l0.8-0.8
			c0.7-0.7,0.7-1.8,0-2.5s-1.8-0.7-2.5,0l-14.4,14.4l-2.7-2.7c-0.7-0.7-1.8-0.7-2.5,0s-0.7,1.8,0,2.5l2.7,2.7l-5.6,5.6l-9-9
			c-0.7-0.7-1.8-0.7-2.5,0s-0.7,1.8,0,2.5l9,9l-2.5,2.5c-0.4,0.4-0.5,1-0.4,1.5l-21.7,0.1l6.7-6.7l5.7,5.7c0.7,0.7,1.8,0.7,2.5,0
			c0.7-0.7,0.7-1.8,0-2.5l-5.7-5.7l13.1-13.1c0.7-0.7,0.7-1.8,0-2.5s-1.8-0.7-2.5,0l-13.1,13.1l-2.5-2.5c-0.7-0.7-1.8-0.7-2.5,0
			s-0.7,1.8,0,2.5l2.5,2.5l-9.2,9.2l-1.2,0c-0.1-0.4-0.1-0.7-0.4-1l-5-5l9.7-9.7c0.7-0.7,0.7-1.8,0-2.5s-1.8-0.7-2.5,0l-9.7,9.7
			l-0.1-0.1c-0.7-0.7-1.8-0.7-2.5,0c-0.7,0.7-0.7,1.8,0,2.5l0.1,0.1l-6.1,6.1h-0.6c0.4-0.7,0.5-1.6-0.1-2.2l-6-6l6.6-6.6
			c0.7-0.7,0.7-1.8,0-2.5s-1.8-0.7-2.5,0l-15.7,15.7c-0.1-0.3-0.1-0.6-0.3-0.8l-4.1-4.1l2.7-2.7c0.7-0.7,0.7-1.8,0-2.5
			s-1.8-0.7-2.5,0l-2.9,2.9c-0.7-0.3-1.5-0.4-2.1,0.2s-0.6,1.4-0.2,2.1l-3.7,3.7l-4.8-4.8c-0.7-0.7-1.8-0.7-2.5,0s-0.7,1.8,0,2.5
			l4.8,4.8l-0.8,0.8l-152,1c-54.5,0.2-60.5-17-60.7-50.6c0-351.2-3-340.7,5.9-356.6c9.2-16.7,32.2-26.9,61.6-27.2
			c10.5-0.1,22.5,0.5,31.6,0.9c-0.2,1.8-0.3,4.9-0.1,7.4c0.4,7.3-0.7,13-0.9,22.5c0,0.6-0.1,1.1-0.1,1.7
			c-15.2-0.2-30.4-0.4-45.3-0.7c-1.8,0.1-3.4,1.3-3.6,3.2C96.7,206.6,94.1,317,101.5,425.9c0.1,1.7,1.4,3.1,3.1,3.3
			c70.3,9.1,141.2,11.1,212,10.5c1,0,1.9-0.4,2.6-1.1l76.8-81.6c0.6-0.6,0.9-1.5,1-2.4c0.7-29.4,1.5-58.9,2.4-88.4
			c1.6-54.1,3.2-110.1,3.6-164.7c0-2-1.5-3.6-3.5-3.6c-19.2-0.4-38.5-0.7-58.1-0.9c1-7.4,1-21.1-0.3-29.5c8.9,0.3,17.7,0.6,26.6,0.9
			c57.6,2,76.8-2.3,79.7,43.3C451.2,174,452.7,238.2,451.9,303.4L451.9,303.4z"/>
		<path class="st0" d="M166,243.6c185.3,0,177.7,1.2,185.8-3.1c12.4-6.5,15.4-27-11.7-28.8c-53.3-3.5-107.4-4.9-161.5-4.1
			c-10.6,0.1-30.3,0.4-36.4,12.3c-3.2,6.3-1.9,11-0.2,13.7C146.9,241.5,159.8,243.6,166,243.6L166,243.6z M332.4,218.4l-0.4,0.4
			l-0.5-0.5C331.8,218.4,332.1,218.4,332.4,218.4z M268.9,215.5l-1.7,1.7l-1.8-1.8C266.6,215.4,267.7,215.4,268.9,215.5z
			 M240.6,215.4l-0.7-0.7c0.5,0,0.9,0,1.4,0c0,0-0.1,0-0.1,0.1L240.6,215.4z M213.6,214.6l2.3,2.3l-4.5,4.5c-0.7,0.7-0.7,1.8,0,2.5
			s1.8,0.7,2.5,0l4.5-4.5l3.2,3.2c0.7,0.7,1.8,0.7,2.5,0c0.7-0.7,0.7-1.8,0-2.5l-3.2-3.2l1.2-1.2c0.3-0.3,0.4-0.7,0.4-1.1
			c4.1,0,8.2,0,12.3,0.1c0,0.1,0,0.1,0.1,0.2l3,3l-5.2,5.2c-0.7,0.7-0.7,1.8,0,2.5c0.7,0.7,1.8,0.7,2.5,0l5.2-5.2l3.4,3.4
			c0.7,0.7,1.8,0.7,2.5,0c0.7-0.7,0.7-1.8,0-2.5l-3.4-3.4l0.6-0.6c0.7-0.7,0.7-1.8,0-2.5h0c5.5,0.1,11,0.3,16.5,0.4l4.4,4.4
			l-4.3,4.3c-0.7,0.7-0.7,1.8,0,2.5c0.7,0.7,1.8,0.7,2.5,0l4.3-4.3l3.2,3.2c0.7,0.7,1.8,0.7,2.5,0c0.7-0.7,0.7-1.8,0-2.5l-3.2-3.2
			l4.1-4.1c5.1,0.2,10.2,0.4,15.3,0.6l0.9,0.9l-5.6,5.6c-0.7,0.7-0.7,1.8,0,2.5c0.7,0.7,1.8,0.7,2.5,0l5.6-5.6l4,4
			c0.7,0.7,1.8,0.7,2.5,0c0.7-0.7,0.7-1.8,0-2.5l-4-4l0.6-0.6c4.7,0.2,9.4,0.4,14.1,0.6l1.9,1.9l-4.1,4.1c-0.7,0.7-0.7,1.8,0,2.5
			c0.7,0.7,1.8,0.7,2.5,0l4.1-4.1l2.6,2.6c0.7,0.7,1.8,0.7,2.5,0c0.7-0.7,0.7-1.8,0-2.5l-2.6-2.6l1.4-1.4c2.7,0.1,5.3,0.3,8,0.5
			l3.3,3.3l-2.2,2.2c-0.7,0.7-0.7,1.8,0,2.5c0.7,0.7,1.8,0.7,2.5,0l2.2-2.2l2,2c0.7,0.7,1.8,0.7,2.5,0c0.7-0.7,0.7-1.8,0-2.5l-2-2
			l2.7-2.7c5.5,0.4,14.3,0.7,16.3,5.9c1.3,3.5-1.5,7.7-5,9.6c-7.1,3.7-7.4,2.3-182.5,2.3c-4.7,0-10.4-1.3-14.2-3.5l7.8-7.8l3.5,3.5
			c0.7,0.7,1.8,0.7,2.5,0s0.7-1.8,0-2.5l-3.5-3.5l3.7-3.7c0.7-0.7,0.7-1.8,0-2.5s-1.8-0.7-2.5,0l-3.7,3.7l-2.8-2.8
			c4.2-1.4,9.3-2.1,14-2.4l2.1,2.1l-3,3c-0.7,0.7-0.7,1.8,0,2.5c0.7,0.7,1.8,0.7,2.5,0l3-3l0.7,0.7c0.7,0.7,1.8,0.7,2.5,0
			c0.7-0.7,0.7-1.8,0-2.5l-0.7-0.7l2.4-2.4c4.3-0.1,8.5-0.1,12.8-0.1l1.8,1.8l-5.4,5.4c-0.7,0.7-0.7,1.8,0,2.5
			c0.7,0.7,1.8,0.7,2.5,0l5.4-5.4l2.4,2.4c0.7,0.7,1.8,0.7,2.5,0c0.7-0.7,0.7-1.8,0-2.5l-2.4-2.4l1.9-1.9
			C203.9,214.5,211.7,214.6,213.6,214.6L213.6,214.6z M153.2,218.9l3.8,3.8l-8.1,8.1c-0.3-0.3-0.6-0.6-0.7-0.9
			C146.5,227.3,147.4,222.1,153.2,218.9L153.2,218.9z"/>
		<path class="st0" d="M159.9,301.2c126.8,1.3,128,3.2,135.1-2c9.1-6.6,11.2-26.5-9.3-28.6c-38.6-3.9-77.7-5.7-116.9-5.4
			c-7.4,0.1-22.8,0.2-27.3,12.5C136.1,292.7,148.9,301.1,159.9,301.2L159.9,301.2z M161.7,272.7l0.3,0.3l-7,7l-3.8-3.8
			C153.9,274.1,157.8,273.1,161.7,272.7z M152.4,282.6l-4.6,4.6c-0.7-2-0.6-4.3,0.4-7c0.1-0.4,0.4-0.7,0.6-1.1L152.4,282.6z
			 M290.8,293.4c-4.4,3.2-3.5,2-130.9,0.6c-3.3,0-7.6-1.5-10.2-4.1c0.2-0.1,0.4-0.1,0.5-0.2l4.6-4.6c1.3,1.3,2.5,2.7,3.8,1.3
			c0.7-0.7,0.7-1.8,0-2.5l-1.3-1.3l7-7c0.8,0.8,3.8,4.2,4.9,4.2c0.3,0,0.5-0.2,0.7-0.3c0.1,1.7,2,2.1,3,1.1l7.6-7.6
			c0.9,0.9,7.5,8,8.7,8c1.6,0,2.4-1.9,1.3-3.1l-5.4-5.4c4,0,8,0.1,12,0.2l2.8,2.8c-1.9,1.9-5.5,4.4-3.7,6.2c0.7,0.7,1.8,0.7,2.5,0
			l3.7-3.7c0.8,0.8,2.4,2.8,3.5,2.8c1.6,0,2.4-1.9,1.3-3.1l-2.2-2.2l2.6-2.6c2.3,0.1,4.6,0.2,6.9,0.3c0,0.4,0.2,0.9,0.5,1.2l4.1,4.1
			c-1.6,1.6-3.8,3.2-2.2,4.8c0.3,0.3,0.8,0.5,1.3,0.5c0.5,0,0.9-0.2,1.3-0.5l2.2-2.2c0.8,0.8,1.4,1.7,2.4,1.7c1.6,0,2.4-1.9,1.3-3.1
			l-1.1-1.1l4.8-4.8c2.1,0.1,4.2,0.2,6.3,0.3l3.3,3.4c-1.4,1.4-3,2.6-1.5,4c0.7,0.7,1.8,0.7,2.5,0l1.5-1.5c0.9,0.9,2.8,3.2,3.9,3.2
			c0.5,0,0.9-0.2,1.3-0.5c0.7-0.7,0.7-1.8,0-2.5l-2.6-2.6l2.6-2.6c0.8,0,1.5,0.1,2.3,0.1c0.8,0.8,7.9,8.3,9.1,8.3c0,0,0,0,0,0
			c0.3,0.3,0.8,0.5,1.3,0.5s0.9-0.2,1.3-0.5l6.3-6.3c0.2-0.2,0.2-0.5,0.3-0.7c0.4,0,0.9,0.1,1.3,0.1l3.4,3.4l-2,2
			c-1.1,1.1-0.3,3.1,1.3,3.1c0.5,0,0.9-0.2,1.3-0.5l2-2c0.8,0.8,1.6,1.9,2.7,1.9c1.6,0,2.4-1.9,1.3-3.1l-1.4-1.4l2.4-2.4
			c1.1,0.1,2.2,0.2,3.2,0.3l2.3,2.3c-2.2,2.2,0.2,4.8,2.5,2.5c1,1,2.1,0.9,2.7,0.2c0.7-0.7,0.7-1.8,0-2.5l-0.2-0.2l0.7-0.7
			C296.6,282.1,295.1,290.3,290.8,293.4L290.8,293.4z M202.4,272.6c0.2,0,0.3,0,0.5,0l-0.2,0.2L202.4,272.6z M219.2,273.2
			c1.7,0.1,3.4,0.1,5.1,0.2l-2.4,2.4L219.2,273.2z M240.8,274.2c0.3,0,0.6,0,0.9,0.1l-0.4,0.4L240.8,274.2z M258.8,279.7l-4.6-4.6
			c2.9,0.2,5.7,0.4,8.5,0.6L258.8,279.7z M273.9,276.7c0.2,0,0.5,0,0.7,0.1l-0.3,0.3L273.9,276.7z M169.4,272.4c2.3,0,4.6,0,6.9,0
			l-5.2,5.2c-0.1-0.3-0.1-0.7-0.4-0.9l-3.7-3.7c0.1-0.2,0.2-0.3,0.2-0.5C167.9,272.4,168.7,272.4,169.4,272.4L169.4,272.4z"/>
		<path class="st0" d="M161.1,181.9c51.5,3.4,105.6,4.9,161.5,4.1c10.6-0.1,30.3-0.4,36.4-12.3c7.5-14.6-7.6-23.7-23.7-23.7H167.7
			c-5.5,0-12.4,0-18.3,3.1C137,159.6,134,180.1,161.1,181.9z M330.9,164.5c-0.1-0.1,0-0.2-0.1-0.3l-5.3-5.3l1.2-1.2
			c0.2-0.2,0.2-0.4,0.2-0.6h6.3l2.5,2.5L330.9,164.5z M313.5,165.9l-3.9-3.9l3.1-3.1c0.5-0.5,0.5-1.1,0.3-1.7h6.5
			c0,0.5,0.1,1,0.5,1.4l0.4,0.4L313.5,165.9z M284.6,163.2c0,0,0-0.1-0.1-0.1l-5.8-5.8l0.1-0.1h7.6c0.1,0.2,0.1,0.3,0.2,0.5l1.8,1.8
			L284.6,163.2z M267.2,163.6l-6.2-6.2l0.4-0.4h12.3L267.2,163.6z M251.1,162.4l-5.3-5.3h10.6L251.1,162.4z M230.8,163.4l-6.3-6.3
			h12.6L230.8,163.4z M217.7,157.1l-4.5,4.5l-4.5-4.5H217.7z M202.1,157.1l-3,3l-3-3H202.1z M175.3,167.7l-5.5-5.5l4.7-4.7
			c0.1-0.1,0.1-0.3,0.2-0.4h1.6c0,0.5,0.1,1,0.5,1.3l3.9,3.9L175.3,167.7z M180.5,157.1h5.4l-2.7,2.7L180.5,157.1z M169.8,157.1
			l-2.6,2.6l-2.5-2.5c0,0,0,0,0,0c1,0,2,0,3,0L169.8,157.1L169.8,157.1z M152.7,159.4c2.8-1.5,6.1-2,9.4-2.1c-0.6,0.7-0.6,1.8,0,2.4
			l2.5,2.5l-4.7,4.7l-4.2-4.2c-0.7-0.7-1.8-0.7-2.5,0c-0.7,0.7-0.7,1.8,0,2.5l4.2,4.2c-0.6,0.7-0.6,1.7,0,2.4c0.6,0.6,1.6,0.8,2.4,0
			l0.7,0.7c0.7,0.7,1.8,0.7,2.5,0c0.7-0.7,0.7-1.8,0-2.5l-0.7-0.7l4.7-4.7l5.6,5.6c-0.3,0.7-0.4,1.5,0.2,2c0.7,0.7,1.8,0.7,2.5,0
			l7.6-7.6l4.2,4.2c0.7,0.7,1.8,0.7,2.5,0c0.7-0.7,0.7-1.8,0-2.5l-4.2-4.2l3.7-3.7c0.4-0.4,0.5-1,0.4-1.5h1.6
			c0.1,0.2,0.1,0.5,0.3,0.7l4.8,4.8l-8.4,8.4c-0.7,0.7-0.7,1.8,0,2.5s1.8,0.7,2.5,0l8.4-8.4l1.3,1.3c0.7,0.7,1.8,0.7,2.5,0
			c0.7-0.7,0.7-1.8,0-2.5l-1.3-1.3l3.8-3.8l5.3,5.3l-6.1,6.1c-0.7,0.7-0.7,1.8,0,2.5c0.3,0.3,0.8,0.5,1.3,0.5c0.5,0,0.9-0.2,1.3-0.5
			l6.1-6.1l0.1,0.1c0.3,0.3,0.8,0.5,1.3,0.5c0.5,0,0.9-0.2,1.3-0.5c0.7-0.7,0.7-1.8,0-2.5l-0.1-0.1l5.5-5.5c0,0,0,0,0-0.1
			c0.1,0.2,0.1,0.4,0.2,0.6l6.8,6.8l-7.2,7.2c-0.7,0.7-0.7,1.8,0,2.5c0.7,0.7,1.8,0.7,2.5,0l7.3-7.3c0.9,0.7,1.7,0.5,2.3-0.1
			c0.6-0.6,0.6-1.6,0.1-2.3l8.4-8.5c0,0.4,0.1,0.8,0.4,1l6.3,6.3l-3.1,3.1c-0.7,0.7-0.7,1.8,0,2.5c0.7,0.7,1.8,0.7,2.5,0l3.2-3.2
			c0.7,0.5,1.5,0.6,2.2-0.1c0.6-0.6,0.6-1.5,0.1-2.2l5-5l6.2,6.2l-5.8,5.8c-0.7,0.7-0.7,1.8,0,2.5c0.7,0.7,1.8,0.7,2.5,0l14.7-14.7
			l5.8,5.8c0,0,0.1,0,0.1,0.1l-5.3,5.3c-0.7,0.7-0.7,1.8,0,2.5c0.7,0.7,1.8,0.7,2.5,0l11.6-11.6l4.2,4.2c0.7,0.7,1.8,0.7,2.5,0
			c0.7-0.7,0.7-1.8,0-2.5l-4.2-4.2l1.9-1.9c0.1-0.1,0.1-0.3,0.2-0.4h13.9l-2.3,2.3l-1.4-1.4c-0.7-0.7-1.8-0.7-2.5,0
			c-0.7,0.7-0.7,1.8,0,2.5l1.4,1.4l-11.4,11.4c-0.7,0.7-0.7,1.8,0,2.5c0.7,0.7,1.8,0.7,2.5,0l11.4-11.4l3.9,3.9l-2.9,2.9
			c-0.7,0.7-0.7,1.8,0,2.5c0.7,0.7,1.8,0.7,2.5,0l12.4-12.4l5.3,5.3c0.1,0.1,0.2,0.1,0.3,0.1l-4.9,4.9c-0.7,0.7-0.7,1.8,0,2.5
			c0.7,0.7,1.8,0.7,2.5,0l12.2-12.2c0.8,0.8,1.9,2.2,2.9,2.2c0.5,0,0.9-0.2,1.3-0.5c0.7-0.7,0.7-1.8,0-2.5l-1.7-1.7l1.6-1.6
			c12,2.8,12.5,7.8,10.1,12.4c-4.1,8.1-21.7,8.3-30.7,8.4c-53.2,0.8-107.1-0.6-160.3-4.1C142.8,173.5,145.6,163.2,152.7,159.4
			L152.7,159.4z"/>
		<path class="st0" d="M265.7,106l3.6,3.6l-5.5,5.5c-0.7,0.7-0.7,1.8,0,2.5s1.8,0.7,2.5,0l5.5-5.5l5.5,5.5c0.7,0.7,1.8,0.7,2.5,0
			c0.7-0.7,0.7-1.8,0-2.5l-5.5-5.5l14.3-14.3c0.7-0.7,0.7-1.8,0-2.5s-1.8-0.7-2.5,0l-14.3,14.3l-3.6-3.6c-0.7-0.7-1.8-0.7-2.5,0
			C265,104.2,265,105.3,265.7,106z"/>
	</g>
</g>
</svg>
