<?xml version="1.0"?>
<svg xmlns="http://www.w3.org/2000/svg" xmlns:xlink="http://www.w3.org/1999/xlink" xmlns:svgjs="http://svgjs.com/svgjs" version="1.1" width="512" height="512" x="0" y="0" viewBox="0 0 66 66" style="enable-background:new 0 0 512 512" xml:space="preserve" class=""><g><g xmlns="http://www.w3.org/2000/svg"><path d="m11.902 62.843c15.027.177 29.196.203 42.133.113 7.991-.057 10.152-2.76 10.492-10.328.51-11.268.607-22.705.29-33.992-.144-5.162-1.713-7.804-8.885-7.542l-12.847.474c-5.703.211-6.764-.602-9.269-4.006-2.627-3.57-4.004-4.743-10.761-4.548l-13.535.383c-5.226.149-7.308 1.574-7.484 8.134l-.235 8.859c-.116.154-.139.36-.015.546l-.77 28.962c-.291 10.857 3.378 12.856 10.886 12.945zm21.149-54.717c2.727 3.704 4.109 4.615 10.07 4.392l12.847-.474c6.67-.245 7.772 2.055 7.899 6.618.014.482.015.968.027 1.45l-61.134.009.015-.552 1.402-1.402.669.669c.092.092.243.093.336 0s.093-.243 0-.336l-.669-.67 2.53-2.53c.093-.093.093-.243 0-.336s-.243-.093-.336 0l-1.115 1.115-1.079-1.078 2.313-2.313c.093-.093.093-.243 0-.336s-.243-.093-.336 0l-.792.792-1.692-1.693 1.745-1.746.816.816c.092.092.243.093.336 0s.093-.243 0-.336l-.816-.816.216-.216c.093-.093.093-.243 0-.336s-.243-.093-.336 0l-.216.216-1.078-1.078 1.546-1.546.945.945c.092.092.243.093.336 0s.093-.243 0-.336l-.945-.945.76-.759c.093-.093.093-.243 0-.336s-.243-.093-.336 0l-.76.759-.684-.684c.733-.376 1.591-.547 2.539-.628.005.005.003.013.008.018l1.103 1.103-.772.773c-.093.093-.093.243 0 .336.092.092.243.093.336 0l.772-.773 1.118 1.118c.092.092.243.093.336 0s.093-.243 0-.336l-1.118-1.118 1.242-1.242 1.279-.036 1.391 1.391-.446.446c-.093.093-.093.243 0 .336.092.092.243.093.336 0l.446-.446 1.452 1.452c.092.092.243.093.336 0s.093-.243 0-.336l-1.452-1.452 1.438-1.438c.014-.014.012-.036.022-.053l.477-.014c.011.034.014.071.041.098l1.273 1.274-.953.953c-.093.093-.093.243 0 .336.092.092.243.093.336 0l.953-.953.98.98c.092.092.243.093.336 0s.093-.243 0-.336l-.979-.98 1.231-1.231c.011.021.009.046.026.064l1.22 1.22-.313.312c-.093.093-.093.243 0 .336.094.094.244.092.336 0l.312-.312 1.167 1.167c.092.092.243.093.336 0s.093-.243 0-.336l-1.167-1.167.945-.945c.093-.093.093-.243 0-.336-.093-.092-.243-.093-.336 0l-.945.944-1.19-1.19 2.823-.08c-.002.063.02.125.067.173l1.326 1.326-.473.472c-.093.093-.093.243 0 .336.094.094.244.092.336 0l.473-.472 1.285 1.285c.092.092.243.093.336 0s.093-.243 0-.336l-1.285-1.285 1.238-1.237c.07-.07.07-.169.033-.255.066.004.132.011.198.016-.012.073-.001.147.055.203l1.406 1.406-.446.446c-.093.093-.093.243 0 .336.092.092.243.093.336 0l.446-.446.954.954c.092.092.243.093.336 0s.093-.243 0-.336l-.951-.952.772-.772c.056-.056.067-.131.055-.204 1.662.687 2.68 2.05 3.744 3.496zm-29.517-.638.467.467-.285.286c-.093.093-.093.243 0 .336.092.092.243.093.336 0l.285-.286 1.078 1.078-1.745 1.746-.637-.637c.06-1.058.19-2.088.501-2.99zm-.2 3.963-.353.353.007-.248c.004-.145.011-.29.016-.435zm-.206 4.599c.092.092.243.093.336 0l.713-.713 1.079 1.078-1.079 1.079-1.312-1.313.056-2.101.92.92-.713.713c-.093.093-.093.244 0 .337zm-.19-2.624.025-.944c.006-.005.015-.003.021-.009l.686-.686 1.692 1.692-1.185 1.185zm.903 4.404-1.048 1.048.054-2.041zm9.191-13.58 2.209-.062-1.136 1.136zm3.945-.112 2.165-.061-1.113 1.113zm9.94-.096c.689.081 1.368.221 2.029.443-.101.076-.705.688-.801.784zm-1.193-.089-1.184 1.183-1.176-1.176c.891-.025 1.486-.042 2.36-.007zm-16.177.395.86-.024-.886.886-.827-.827c.279-.015.562-.027.853-.035zm-4.433.956.769.769-1.546 1.546-.606-.607c.389-.863.829-1.331 1.383-1.708zm-3.147 44.619.767-28.848c.019-.004.045-.007.052-.011h61.126c.24 10.484.139 21.073-.333 31.521-.331 7.282-2.281 9.369-9.551 9.419-13.616.096-27.788.057-42.115-.112-6.983-.082-10.223-1.657-9.946-11.969z" fill="#707070" data-original="#000000" style=""/><path d="m13.556 54.409c2.186.097 3.572.052 15.79-.351 1.667-.044 2.774-.605 3.095-2.561.422-2.541-1.233-5.243-3.691-6.022-1.658-.525-4.1-.222-4.718-1.895 1.3-1.021 2.51-2.723 2.961-6.385.245-1.99.156-3.555-.278-4.924-1.237-3.943-5.16-5.2-7.546-3.266-.999.805-2.669-.57-4.044 2.848-1.318 3.269-.877 7.258 1.121 10.161.46.671.975 1.226 1.53 1.671-1.296 2.945-5.523 1.385-8.106 4.522-1.119 1.358-1.274 3.318-.359 4.561.992 1.341 2.791 1.581 4.245 1.641zm-1.06-1.046.738-.738.643.643-.028.028c-.046.046-.068.106-.069.166-.061-.002-.123 0-.184-.002-.352-.016-.726-.045-1.1-.097zm2.089.108c.016-.07.007-.139-.041-.198l.997-.997.817.817-.202.202c-.054.054-.067.125-.058.195-.506.004-1.009-.009-1.513-.019zm4.224-.263c-.064.064-.067.15-.044.231-.474.014-.952.025-1.432.035-.008-.046-.018-.094-.054-.13l-.25-.25.969-.969.947.947zm-2.057.28c-.04.001-.079.002-.12.003l.061-.061zm2.536-.062c-.008 0-.016 0-.024.001l.029-.029c.019.014.041.019.063.026zm.342-.011-.119.004c.029-.012.061-.012.084-.035.084-.084.081-.21.014-.303l.913-.913.963.963c-.043.073-.043.152-.002.226-.617.018-1.236.039-1.853.058zm5.401-2.916.963.963-1.208 1.208-1.1-1.099 1.3-1.3c-.022.079-.018.165.045.228zm2.43.167.969.969-.795.795-.969-.969zm-.162 2.101-.18.18c-.064.064-.068.151-.043.232-.661.021-1.321.042-1.982.063.041-.069.042-.144.008-.215l1.228-1.228zm.336.336.056.056c-.038.001-.077.002-.115.004zm-3.185-.097-.265.265c-.714.023-1.428.046-2.142.068.047-.052.063-.116.056-.181l1.251-1.251zm4.868.102c-.325.011-.65.02-.976.031l-.371-.371.795-.795 1.083 1.083c.013.013.033.01.048.02-.193.019-.39.027-.579.032zm-.215-1.472 1.078-1.078.571.571c.019.019.047.018.07.029l-1.098 1.098zm2.401-.294c-.132.807-.497 1.505-1.305 1.683.07-.093.072-.222-.012-.306l-.125-.125 1.457-1.457c-.01.068-.004.136-.015.205zm.046-.696c-.085-.034-.181-.034-.25.036l-.182.182c-.011-.023-.01-.051-.029-.07l-.571-.571.305-.305c.093-.093.093-.243 0-.336-.212-.212-.425.088-.641.305l-.578-.578.469-.469.224.224c.092.092.243.093.336 0s.093-.243 0-.336l-.224-.224.347-.347c.494.736.787 1.604.794 2.489zm-1.079-2.878-.399.399-.578-.577.403-.403c.208.176.399.371.574.581zm-9.207-5.073-.792.792c-.09.09-.109.244.029.348-.095-.008-.192-.007-.286-.023.223-.047.24-.269.123-.387l-.691-.69.829-.829zm-.452-1.124 1.074-1.074.788.788-1.074 1.074zm-.751 2.217c-.357-.079-.705-.23-1.044-.421l.294-.294c.095.094.633.65.75.715zm1.539-.756.55.55c-.471.182-.948.278-1.416.273.122-.057.766-.723.866-.823zm.964.375c-.006-.052-.02-.104-.06-.144l-.568-.568 1.074-1.074.857.857c-.448.44-.833.692-1.303.929zm1.621-1.283-.839-.838.768-.768.457.458c.092.092.243.093.336 0s.093-.243 0-.336l-1.152-1.153.931-.931.335.335c.092.092.242.094.336 0 .093-.093.093-.243 0-.336l-.335-.335.801-.801c.041-.041.057-.095.062-.149.053-.002.104-.023.146-.06-.346 2.661-1.076 4.008-1.846 4.914zm1.878-5.204c-.01-.016-.007-.037-.021-.051l-.815-.815.665-.666c.097.097.157.174.271.229-.014.41-.047.844-.1 1.303zm.099-2.198c-.081-.054-.179-.054-.259.003l-.308-.308.493-.493c.032.259.062.52.074.798zm-9.132 6.752c-1.823-2.648-2.224-6.285-1.022-9.266.853-2.125 1.657-1.89 2.634-1.945.777-.037.902-.455 1.499-.788 2.069-1.169 5.137.152 5.867 3.902-.121.054-.649.605-.751.706-.228-.214-.546.122-.33.339l.163.163.466.465-.684.684c-.089-.046-.196-.049-.272.027-.08.08-.077.199-.019.291-.059.092-.062.21.019.291.103.103.183.073.272.027l.683.684c-.023.011-.05.01-.069.028l-.801.801-.445-.445c-.093-.093-.243-.093-.336 0s-.093.243 0 .336l.445.445-.931.931-.159-.159c-.093-.093-.243-.093-.336 0s-.093.243 0 .336l.854.854-.768.768-.788-.788.129-.129c.093-.093.093-.243 0-.336s-.243-.093-.336 0l-.129.129-.179-.179c-.093-.093-.243-.093-.336 0s-.093.243 0 .336l.179.18-1.074 1.074-.323-.323c-.093-.093-.243-.093-.336 0s-.093.243 0 .336l.323.323-.828.828-.506-.506c-.093-.093-.243-.093-.336 0s-.093.243 0 .336l.507.507-.381.381c-.569-.407-1.095-.958-1.565-1.644zm-6.627 7.336c2.301-2.79 6.648-1.309 8.172-4.578 1.529.846 3.191.735 4.657-.093 1.012 2.058 3.701 1.757 5.231 2.243.376.119.719.308 1.042.525l-.428.428c-.07.07-.07.169-.034.255-.036.086-.037.185.034.255l.659.659-.493.493c-.086-.035-.182-.035-.252.035-.093.093-.093.243 0 .336l.055.055c.011.025.01.054.031.075s.05.02.075.031l.693.693-1.078 1.078-.969-.969.588-.588c.093-.093.093-.243 0-.336s-.243-.093-.336 0l-.621.621c-.078-.019-.16-.013-.221.048s-.067.143-.048.221l-.829.829-.963-.963c-.063-.063-.148-.067-.228-.045l.083-.083c.093-.093.093-.243 0-.336s-.243-.093-.336 0l-1.536 1.536-.681-.68c-.093-.093-.243-.093-.336 0s-.093.243 0 .336l.68.68-1.208 1.208-.947-.947 1.692-1.692c.093-.093.093-.243 0-.336s-.243-.093-.336 0l-1.692 1.692-.332-.332c-.093-.093-.243-.093-.336 0s-.093.243 0 .336l.332.332-.904.904-.947-.947 1.444-1.444c.093-.093.093-.243 0-.336s-.243-.093-.336 0l-1.444 1.444-.115-.115c-.093-.093-.243-.093-.336 0s-.093.243 0 .336l.115.115-.969.969-.817-.817 1.049-1.049c.093-.093.093-.243 0-.336s-.243-.093-.336 0l-1.064 1.064c-.091-.054-.205-.056-.283.022s-.076.192-.022.283l-1.006 1.006-.643-.643.895-.895c.093-.093.093-.243 0-.336s-.243-.093-.336 0l-.895.895-.05-.05c-.093-.093-.243-.093-.336 0s-.093.243 0 .336l.05.05-.599.599-.594-.593c-.094-.093-.244-.092-.336 0-.093.093-.093.243 0 .336l.594.593-.034.034c-.739-.169-1.424-.474-1.854-1.055-.758-1.026-.398-2.514.325-3.392z" fill="#707070" data-original="#000000" style=""/><path d="m37.317 34.408c1.116.806 1.229.582 16.934.439.63-.006 1.413-.013 2.086-.404.742-.431 1.231-1.439.776-2.252-.478-.856-1.616-.882-2.101-.894-15.35-.357-15.75-.524-17.418.128-1.315.517-1.498 2.103-.277 2.983zm.624-2.096c1.459-.572 1.926-.416 17.048-.063.503.012 1.104.069 1.294.407.171.306-.087.77-.424.966-.454.265-1.071.27-1.616.275-14.21.13-15.457.4-16.369-.259-.299-.215-.456-.506-.422-.778.03-.239.208-.439.489-.548z" fill="#707070" data-original="#000000" style=""/><path d="m39.674 42.043c.093 0 .183 0 .269-.001l14.307-.13c.63-.006 1.413-.012 2.086-.404 1.302-.757 1.618-3.075-1.325-3.146l-13.391-.312c-1.84-.045-4.878-.084-5.111 1.755-.121.95.599 2.238 3.165 2.238zm.968-3.058c.319 0 .639.007.956.015l13.392.312c.503.012 1.104.069 1.294.407.171.305-.087.77-.424.966-.454.265-1.071.27-1.616.275l-14.308.13c-.821.006-1.544-.017-2.061-.389-.299-.215-.456-.506-.422-.778.106-.861 2.325-.938 3.189-.938z" fill="#707070" data-original="#000000" style=""/><path d="m38.888 48.735c.066 0 .13 0 .19-.001l10.125-.13c.456-.006 1.079-.014 1.607-.448.969-.797 1.133-3.031-1.063-3.102l-9.474-.312c-1.62-.054-3.52.057-3.755 1.665-.146.985.435 2.328 2.37 2.328zm-1.43-2.191c.137-.946 1.91-.881 2.861-.85l9.396.309c.54.018.693.142.775.351.137.348-.043.868-.284 1.067-.251.206-.579.226-1.015.231-9.979.129-11.99.641-11.733-1.108z" fill="#707070" data-original="#000000" style=""/><path d="m11.961 49.966c1.453-2.408 6.1-1.048 7.195-4.108.045-.124-.02-.26-.144-.304-.121-.043-.26.019-.304.143-.979 2.733-5.567 1.388-7.154 4.024-.068.112-.032.259.081.326.112.068.258.033.326-.081z" fill="#707070" data-original="#000000" style=""/></g></g></svg>
