<?xml version="1.0"?>
<svg xmlns="http://www.w3.org/2000/svg" xmlns:xlink="http://www.w3.org/1999/xlink" xmlns:svgjs="http://svgjs.com/svgjs" version="1.1" width="512" height="512" x="0" y="0" viewBox="0 0 66 66" style="enable-background:new 0 0 512 512" xml:space="preserve" class=""><g><path xmlns="http://www.w3.org/2000/svg" d="m43.838 40.499c-3.825-.088-7.584 2.877-8.492 6.623-4.396-1.012-8.502-3.312-11.588-6.599-2.886-3.074-4.873-6.981-5.718-11.114.131.091.299.125.458.064 2.521-.965 4.517-3.294 5.084-5.935.566-2.64-.298-5.583-2.201-7.497-3.073-3.091-8.687-3.267-12.512-.39-3.329 2.502-5.29 6.918-5.247 11.812.056 6.392 3.243 11.812 5.907 15.233 3.269 4.197 7.319 7.588 11.89 11.271 2.657 2.14 5.851 4.688 9.531 6.185.01.044.017.089.051.123.049.049.113.073.177.073.045 0 .086-.027.125-.052.73.281 1.472.534 2.24.717 10.351 2.47 19.845-5.56 18.638-13.255-.617-3.937-4.36-7.193-8.343-7.259zm-11.748 19.038.023-.023.043.043c-.022-.008-.044-.012-.066-.02zm.619.184c.078-.098.081-.238-.01-.329l-.232-.232.796-.796 1.304 1.304-.434.434c-.118-.025-.239-.036-.357-.064-.362-.085-.713-.206-1.067-.317zm2.211.301.27.27c-.154-.021-.306-.056-.459-.082zm.998.345c-.012-.032-.013-.068-.039-.093l-.606-.606 1.251-1.251.636.636-.545.545c-.098.098-.098.256 0 .354s.256.098.354 0l.545-.545.79.79c.098.098.256.098.354 0s.098-.256 0-.354l-.79-.79.983-.983 1.001 1.001c-.053.095-.055.212.025.292.109.109.198.078.292.025l.104.104c.098.098.256.098.354 0s.098-.256 0-.353l-.087-.087 1.224-1.224.676.676c-.014.078-.004.157.056.217.084.084.137.071.217.056l.454.454c.023.023.055.022.083.035-2.312.943-4.842 1.324-7.332 1.101zm4.51-3.874.983.983-1.224 1.224-.983-.983zm4.218-.273-1.892 1.892-.636-.636 1.892-1.892zm-1.124 2.66-.414-.414 1.892-1.893 1.14 1.14c-.817.561-1.678 1.051-2.585 1.442.042-.092.043-.199-.033-.275zm3.012-1.43c-.012-.029-.012-.062-.035-.085l-1.145-1.145.983-.983.973.973c.098.098.256.098.354 0s.098-.256 0-.354l-.973-.973.545-.545c.098-.098.098-.256 0-.354s-.256-.098-.354 0l-.545.545-.759-.759c-.098-.098-.256-.098-.354 0s-.098.256 0 .354l.759.759-.983.983-.651-.651c.06-.096.063-.219-.021-.303s-.206-.081-.303-.021l-.48-.48c-.098-.098-.256-.098-.354 0s-.098.256 0 .354l.465.465-1.892 1.892-.983-.983.022-.022c.098-.098.098-.256 0-.354s-.256-.098-.354 0l-.051.051c-.088-.031-.184-.029-.254.041s-.072.167-.041.254l-1.253 1.253-.866-.866c-.098-.098-.256-.098-.353 0-.098.098-.098.256 0 .354l.866.866-.983.984-.636-.636.587-.587c.098-.098.098-.256 0-.354s-.256-.098-.354 0l-.587.587-.839-.839c-.098-.098-.256-.098-.354 0s-.098.256 0 .354l.839.839-1.251 1.251-1.304-1.304.907-.907c.098-.098.098-.256 0-.354s-.256-.098-.354 0l-.907.907-.037-.037c-.098-.098-.256-.098-.354 0s-.098.256 0 .354l.037.037-.796.796-1.187-1.186c-.098-.098-.256-.098-.354 0s-.098.256 0 .354l1.187 1.186-.171.171c-3.659-1.427-6.877-3.998-9.542-6.146-4.521-3.643-8.524-6.993-11.728-11.106-2.569-3.299-5.643-8.514-5.696-14.625-.04-4.578 1.772-8.692 4.848-11.005 3.443-2.586 8.468-2.454 11.202.296 1.671 1.681 2.43 4.265 1.933 6.583-.498 2.317-2.25 4.362-4.464 5.21-.09.035-.158.098-.212.17-.196-1.136-.327-2.283-.345-3.436-.005-.276-.204-.506-.508-.492-.276.004-.497.231-.492.508.091 5.851 2.439 11.653 6.444 15.918 4.004 4.267 9.647 6.977 15.481 7.436.013.001.026.002.04.002.258 0 .478-.199.498-.461.022-.275-.184-.516-.459-.537-.761-.06-1.516-.168-2.267-.306.796-3.269 4.022-5.842 7.391-5.842.036 0 .073 0 .109.001 3.52.059 6.827 2.935 7.372 6.412.089.568.086 1.15.043 1.733l-.696-.696.567-.567c.098-.098.098-.256 0-.354s-.256-.098-.354 0l-.567.567-.117-.117c-.098-.098-.256-.098-.354 0s-.098.256 0 .354l.117.117-.759.759c-.098.098-.098.256 0 .354s.256.098.354 0l.759-.759.885.885c.03.03.07.033.108.045-.387 2.649-2.053 5.311-4.643 7.217z" fill="#ffffff" data-original="#000000" style=""/><path xmlns="http://www.w3.org/2000/svg" d="m52.486 5.636c-4.971-1.358-10.305-1.465-15.423-.305-3.169.725-5.328 1.767-6.983 4.948-1.1 2.133-2.125 4.701-1.391 7.581.427 1.698 1.334 3.308 2.634 4.68-1.395 1.708-2.259 2.403-2.417 3.104-1.895 2.602-.25 4.885 2.823 3.311 1.728-.874 3.416-1.855 5.02-2.919 2.974 1.081 6.414 1.381 10.794.95 4.538-.444 7.831-1.511 10.365-3.354 0 0 .001 0 .001-.001 2.771-2.025 5.169-5.848 4.283-9.824-1.016-4.495-5.266-6.941-9.706-8.171zm-5.041 20.355c-4.34.431-7.703.119-10.583-.978-.151-.059-.322-.039-.457.052-1.634 1.096-3.359 2.104-5.13 3-2.034 1.046-2.939.038-1.49-1.929.063-.086.096-.169.096-.275.057-.288.898-1.181 1.215-1.518.476-.505.34-.36 1.283-1.515.165-.2.149-.494-.036-.676-1.34-1.31-2.269-2.879-2.686-4.536-.651-2.558.296-4.911 1.309-6.876 1.484-2.852 3.365-3.758 6.317-4.434 4.954-1.121 10.119-1.021 14.938.294 5.997 1.661 8.367 4.649 8.996 7.427.855 3.843-1.484 10.762-13.772 11.964z" fill="#ffffff" data-original="#000000" style=""/><path xmlns="http://www.w3.org/2000/svg" d="m35.301 12.471c-2.004.814-2.596 2.694-2.293 4.196.301 1.494 1.558 2.99 3.69 2.99h.052c3.277-.037 4.914-4.05 2.596-6.368-1.03-1.031-2.692-1.368-4.045-.818zm-1.313 3.999c-.205-1.018.115-2.433 1.69-3.073.999-.405 2.212-.15 2.961.6.048.048.088.103.132.155l-.731.731c-.285-.284-.693.014-.306.401-.009.152.102.27.258.258l.596.596-.772.773-.364-.364.441-.441c.098-.098.098-.256 0-.353-.098-.098-.256-.098-.354 0l-.489.489c-.069-.004-.138.015-.191.068s-.072.122-.068.191l-.452.452-.355-.355c-.098-.098-.256-.098-.354 0s-.098.256 0 .354l.355.355-.486.486-.499-.499c-.098-.098-.256-.098-.353 0-.098.098-.098.256 0 .354l.499.499-.037.037c-.638-.435-.996-1.096-1.121-1.714zm2.707.834.404-.404.363.364-.404.404zm-.893 1.201c.013-.009.031-.006.042-.017.094-.094.092-.241.006-.339l.49-.49.411.411c-.009.146.094.27.258.258.344.344.648-.059.401-.306l.404-.404.497.497c-.782.572-1.626.668-2.509.39zm2.886-.722-.519-.519c.105-.105.716-.707.799-.817.083.02.138.045.232-.05.098-.098.098-.256 0-.354l-.806-.806.669-.669c.558.994.518 2.282-.375 3.215z" fill="#ffffff" data-original="#000000" style=""/><path xmlns="http://www.w3.org/2000/svg" d="m43.848 12.471c-2.004.814-2.596 2.694-2.293 4.196.301 1.494 1.558 2.99 3.69 2.99h.052c3.277-.037 4.915-4.049 2.596-6.368-1.03-1.031-2.692-1.367-4.045-.818zm2.213 4.506-.732.732-.383-.383.845-.845c-.086.215.09.316.27.496zm-.379 1.085.732-.731.634.635c-.283.246-.613.438-.968.556-.043-.135-.292-.355-.398-.46zm-.707 0c-.19.19-.403.344-.217.552-.169-.026-.325-.066-.473-.116.025-.085.021-.176-.046-.243l-.112-.112.465-.465zm.311.596c-.014 0-.027 0-.041 0-.059 0-.109-.012-.166-.015.012-.008.027-.005.037-.015l.212-.212.219.219c-.087.009-.174.022-.261.023zm2.11-1.052-.629-.629c.274-.274.823-.663.566-.92s-.646.292-.92.566c-.18-.18-.281-.356-.497-.271.265-.264-.107-.6-.335-.372l-.991.991c-.194-.194-.362-.416-.566-.212-.098.098-.098.256 0 .354l.213.212-.465.465c-.307-.308-.662-.722-.779-.257-.234-.337-.388-.708-.459-1.063-.205-1.018.115-2.433 1.69-3.073.995-.403 2.209-.153 2.961.6.05.05.092.107.137.161l-.539.539c-.185-.034-.309.09-.275.275l-.395.395c-.237.237.125.583.354.354l.356-.356.906.906c.049.049.113.073.177.073.014 0 .024-.013.037-.015-.062.458-.204.852-.547 1.277zm.574-1.801-.794-.794.438-.438c.21.377.333.801.356 1.232z" fill="#ffffff" data-original="#000000" style=""/><path xmlns="http://www.w3.org/2000/svg" d="m51.936 12.471c-2.004.814-2.596 2.694-2.293 4.196.301 1.494 1.558 2.99 3.691 2.99h.052c3.277-.037 4.914-4.05 2.596-6.368-1.03-1.031-2.694-1.367-4.046-.818zm1.438 6.187c-.546-.007-.991-.135-1.365-.327l.607-.607.457.457c-.113.114-.098.268-.006.36.049.049.113.073.177.073s.128-.024.177-.073l.006-.006.103.103c.003.003.009.002.013.005-.057.004-.112.014-.169.015zm.311-2.003.458.458-.715.715-.458-.458zm.199 1.629-.103-.103.715-.715.558.558c.001.001.004.001.006.002-.337.273-.734.468-1.155.563.06-.097.063-.221-.021-.305zm1.53-.596c-.004-.005-.002-.012-.007-.017l-.558-.558.282-.282c.098-.098.098-.256 0-.353-.098-.098-.256-.098-.354 0l-.282.282-.458-.458.092-.092c.098-.098.098-.256 0-.353-.098-.098-.256-.098-.354 0l-1.165 1.165c-.098-.086-.245-.088-.339.006s-.092.241-.006.339l-.688.688c-.534-.429-.842-1.022-.956-1.584-.205-1.018.115-2.433 1.69-3.073.994-.403 2.209-.153 2.961.6.298.298.513.669.644 1.069l-.545.545c-.095-.051-.209-.053-.289.027-.098.098-.098.256 0 .354l.011.01c.002.062.023.123.07.17s.109.069.17.071l.579.579c-.016.045-.025.092-.043.136-.107.267-.265.511-.455.729zm.631-1.443-.299-.299.295-.295c.022.197.025.396.004.594z" fill="#ffffff" data-original="#000000" style=""/><path xmlns="http://www.w3.org/2000/svg" d="m50.252 50.828-.226.226-.866-.866c-.098-.098-.256-.098-.354 0s-.098.256 0 .354l.866.866-1.438 1.438-.626-.626c-.098-.098-.256-.098-.354 0s-.098.256 0 .354l.626.626-.305.305c-.098.098-.098.256 0 .354s.256.098.354 0l.305-.305.358.358c.098.098.256.098.354 0s.098-.256 0-.354l-.358-.358 1.438-1.438.015.015c.098.098.256.098.354 0s.098-.256 0-.353l-.015-.015.226-.226c.098-.098.098-.256 0-.353-.098-.1-.256-.1-.354-.002z" fill="#ffffff" data-original="#000000" style=""/><path xmlns="http://www.w3.org/2000/svg" d="m11.733 18.299c-.664.35-1.274.811-1.821 1.351-.28-.28-.583-.536-.909-.755-.114-.077-.269-.047-.347.067-.077.114-.046.269.068.347.304.204.582.447.842.708-.575.64-1.061 1.377-1.441 2.188l-.694-.836c-.088-.106-.246-.12-.352-.032s-.121.246-.033.352l.852 1.026c-.276.693-.479 1.4-.606 2.283l-.915-.271c-.132-.038-.272.037-.311.17-.039.132.037.271.169.311l1.002.296c-.094.954-.071 1.946.073 2.958l-.584-.026c-.154-.011-.255.101-.261.239s.101.254.239.261l.689.031c.159.882.346 1.612.776 2.748l-1.152.159c-.137.019-.232.146-.213.282.017.125.123.227.282.214l1.282-.177c.213.519.457 1.045.73 1.578l-1.08.345c-.132.042-.204.184-.162.314.041.127.177.204.314.162l1.158-.371c.139.258.292.521.446.783l-1.187.496c-.127.054-.187.201-.134.329.055.131.206.187.327.134l1.255-.524c.128.209.239.412.375.624.077.12.235.147.345.074.116-.074.15-.229.075-.346-.12-.186-.217-.364-.329-.547l.67-.28c.127-.053.188-.199.134-.327-.053-.127-.2-.188-.327-.134l-.738.308c-.152-.257-.305-.515-.442-.767.087-.061.141-.161.107-.267-.042-.132-.183-.202-.314-.162l-.011.002c-.261-.505-.495-1.004-.701-1.495l.701-.097c.137-.019.232-.145.213-.282-.019-.138-.149-.228-.282-.214l-.831.115c-.555-1.437-.598-1.828-.754-2.654l.763.034h.011c.133 0 .244-.104.25-.238.006-.139-.1-.255-.238-.262l-.886-.04c-.145-.971-.164-1.917-.082-2.832.112.033.342.088.421.168.024.023.034.061.038.061-.09.105-.078.263.026.353s.262.079.352-.026c.196-.227.123-.556-.063-.741-.189-.188-.477-.248-.74-.325.126-.914.28-1.406.489-1.981l.266.32c.088.106.246.12.352.032.107-.088.121-.246.033-.353l-.44-.53c.362-.829.842-1.58 1.413-2.228.169.203.347.401.486.625.075.12.23.152.344.081.117-.073.153-.228.08-.345-.163-.262-.353-.508-.554-.744.516-.512 1.091-.947 1.718-1.277.122-.064.169-.216.105-.338s-.214-.169-.337-.105z" fill="#ffffff" data-original="#000000" style=""/></g></svg>
