<?xml version="1.0"?>
<svg xmlns="http://www.w3.org/2000/svg" xmlns:xlink="http://www.w3.org/1999/xlink" xmlns:svgjs="http://svgjs.com/svgjs" version="1.1" width="512" height="512" x="0" y="0" viewBox="0 0 66 66" style="enable-background:new 0 0 512 512" xml:space="preserve"><g><g xmlns="http://www.w3.org/2000/svg"><path d="m27.993 52.792c3.709 2.926 6.412 2.836 10.01 0 9.527-7.51 15.406-19.234 15.726-31.36 0 0 0 0 0-.001.11-4.506-2.189-4.734-6.023-4.25-4.777.565-7.796-1.67-11.097-4.574-2.408-2.118-4.977-2.115-7.233.012-3.266 3.075-6.635 5.088-11.086 4.563-3.933-.497-6.146-.177-6.017 4.25.32 12.129 6.197 23.853 15.72 31.36zm-13.611-29.516-.923.923c-.065-.661-.111-1.324-.142-1.989zm-.947-1.654c.122.094.242.072.326-.011l1.39-1.39 1.143 1.144-1.558 1.559zm4.019 16.518.414-.414 1.139 1.139-.77.77c-.269-.494-.534-.991-.783-1.495zm-.225-.482c-.17-.357-.344-.713-.504-1.076l.79.79zm-1.004-2.283c-.22-.544-.43-1.091-.627-1.645l.22-.22 1.443 1.443-.729.729zm-.807-2.171c-.016-.048-.033-.096-.05-.144l.097.097zm-.396-1.196c-.055-.179-.101-.361-.154-.541l.996-.996 1.143 1.144-1.19 1.19zm-.31-1.092c-.163-.589-.31-1.181-.446-1.777.015-.01.034-.007.047-.02l.1-.1 1.097 1.098zm-.444-2.75c-.064-.064-.15-.07-.233-.05-.064-.316-.112-.635-.168-.953.011.04.016.082.047.113.098.098.256.098.353 0l.629-.629.591.591-1.074 1.074zm-.354-1.243c-.041.041-.056.096-.062.15-.1-.577-.191-1.155-.266-1.736l.957.957zm-.253-2.219 1.075-1.075 1.236 1.236-1.075 1.075zm6.608 17.208-.051-.051c-.098-.098-.256-.098-.354 0s-.098.256 0 .354l.051.051-.078.078c-.212-.326-.409-.661-.611-.994l.394-.394.752.753c.019.019.047.017.07.029zm12.393-29.745.284.284-1.558 1.558-.952-.952c-.004-.004-.01-.002-.015-.006.719-.587 1.452-.918 2.195-.994.012.039.016.08.046.11zm.595-.112c.649.061 1.305.298 1.966.744l-.611.611zm-5.02 2.826.426.425-1.742 1.742-.683-.683.042-.042c.321-.202.634-.417.935-.648.502-.384.518-.4 1.022-.794zm-3.464 2.242-1.17 1.17-.534-.534c.583-.169 1.151-.385 1.704-.636zm-2.899.919-.988.988-.797-.796c.599-.024 1.196-.082 1.785-.192zm-3.701.133c.351.041.703.061 1.055.071l-1.001 1.001-1.22-1.22c.189.023.934.118 1.166.148zm-1.941-.216 1.642 1.642-.597.597c-.098.098-.098.256 0 .354s.256.098.354 0l.597-.597.843.843c.098.098.256.098.354 0s.098-.256 0-.354l-.843-.843 1.084-1.084.867.867-.445.445c-.098.098-.098.256 0 .354s.256.098.354 0l.445-.445.91.91c.098.098.256.098.354 0s.098-.256 0-.354l-.91-.909 1.374-1.374.636.637-.169.169c-.098.098-.098.256 0 .354s.256.098.354 0l.167-.171.481.481c.098.098.256.098.353 0 .098-.098.098-.256 0-.354l-.481-.481 1.927-1.926.683.683-.307.307c-.098.098-.098.256 0 .354s.256.098.354 0l.307-.307.117.117c.098.098.256.098.354 0s.098-.256 0-.354l-.117-.117 1.742-1.742.517.517c.098.098.256.098.353 0 .098-.098.098-.256 0-.354l-.517-.517.631-.631c.098-.098.098-.256 0-.354s-.256-.098-.353 0l-.631.631-.382-.382c.486-.389.966-.792 1.423-1.222.011.02.008.045.025.061l.952.952-.906.906c-.098.098-.098.256 0 .354s.256.098.354 0l.906-.906.38.38c.098.098.256.098.353 0 .098-.098.098-.256 0-.354l-.38-.38 1.558-1.558.959.959-.998.998c-.098.098-.098.256 0 .354s.256.098.354 0l.998-.998.616.615c.098.098.256.098.353 0 .098-.098.098-.256 0-.353l-.615-.615.657-.657c.108.085.216.155.325.251 3.416 3.003 6.706 5.429 11.874 4.816 3.279-.415 5.002-.567 4.907 3.231-.311 11.833-6.048 23.273-15.345 30.601-3.455 2.726-5.607 2.496-8.771 0-3.313-2.612-6.163-5.753-8.487-9.243l.144-.144.682.682c.098.098.256.098.354 0s.098-.256 0-.354l-.682-.682.457-.457c.098-.098.098-.256 0-.354-.088-.087-.219-.084-.317-.015-.012-.029-.012-.062-.035-.086l-.752-.753.841-.841c.098-.098.098-.256 0-.354s-.256-.098-.354 0l-.841.841-.351-.346c-.098-.098-.256-.098-.354 0s-.098.256 0 .354l.349.349-.307.307c-.16-.271-.322-.54-.476-.814l1.03-1.03c.01-.007.024-.005.033-.014s.006-.023.014-.033l.347-.347c.098-.098.098-.256 0-.354s-.256-.098-.354 0l-.194.194-1.139-1.14.969-.969c.098-.098.098-.256 0-.354s-.256-.098-.354 0l-.969.969-.982-.983 2.41-2.41c.098-.098.098-.256 0-.354s-.256-.098-.353 0l-1.327 1.329-1.443-1.443 1.226-1.226c.208.05.325-.099.282-.282l.818-.819c.098-.098.098-.256 0-.353-.098-.098-.256-.098-.354 0l-.782.782-1.143-1.143 2.099-2.099c.098-.098.098-.256 0-.354s-.256-.098-.353 0l-2.099 2.099-1.098-1.098 1.074-1.074.766.766c.098.098.256.098.354 0s.098-.256 0-.353l-.766-.766 1.989-1.989c.098-.098.098-.256 0-.354s-.256-.098-.354 0l-1.989 1.989-.591-.591 1.226-1.226c.011-.008.026-.005.036-.015s.007-.025.015-.036l1.675-1.675c.098-.098.098-.256 0-.354s-.256-.098-.354 0l-1.524 1.524-1.236-1.236 1.711-1.711c.002-.002.001-.006.004-.009.008-.006.019-.004.026-.011.098-.098.098-.256 0-.354l-1.325-1.326.913-.913c.098-.098.098-.256 0-.354s-.256-.098-.353 0l-.913.913-1.054-1.055c.548-.451 1.308-.54 2.134-.495zm-2.479.863 1.045 1.045-1.39 1.39c-.09.09-.087.228-.011.326l-.12-.12c-.001-.02-.003-.039-.003-.058-.028-.909.015-1.903.479-2.583z" fill="#707070" data-original="#000000" style=""/><path d="m25.796 61.87c5.422 4.274 9.205 4.096 14.402 0 13.929-10.981 22.524-28.121 22.991-45.849 0 0 0 0 0-.001.143-5.862-2.578-6.785-7.721-6.108-7.434.976-11.538-1.566-17.328-6.662-3.43-3.017-7.089-3.014-10.301.012-5.366 5.053-10.173 7.588-17.314 6.65-5.163-.679-7.884.267-7.712 6.109.467 17.733 9.059 34.873 22.983 45.849zm7.091 2.117c-.711.022-1.404-.107-2.078-.321l1.057-1.057 1.14 1.14c.108.108.184.075.276.032.007.14.057.15.127.19-.002 0-.522.016-.522.016zm5.123-2.954-.019.019c-.098.098-.098.256 0 .354.093.094.243.111.372-.019l.263.263c.038.038.088.048.137.057-.574.423-1.179.822-1.806 1.172.021-.083.015-.169-.05-.234l-.951-.951 1.357-1.356zm-.343-1.05 1.552-1.552.697.697-1.552 1.552zm-1.113 3.014c.029.03.07.033.107.044-.949.494-1.949.836-2.981.915.007-.006.017-.003.024-.01l1.9-1.9zm3.025-1.912c-.174.137-.355.274-.536.411.008-.072-.008-.145-.063-.201l-.262-.262 1.552-1.552.559.559c-.417.349-.823.709-1.25 1.045zm1.635-1.366-.591-.591 1.454-1.454.684.684c-.507.463-1.023.915-1.547 1.361zm1.912-1.703-.696-.695 2.383-2.383.713.713c-.776.81-1.576 1.599-2.4 2.365zm6.354-6.936-.869-.869 1.894-1.894.501.501c.034.034.08.041.124.051-.53.751-1.084 1.485-1.65 2.211zm-1.222-1.223-.355-.355 1.894-1.894.355.355zm-.353.354-.874.874c-.098.098-.098.256 0 .354s.256.098.354 0l.874-.874.916.916c-.555.7-1.131 1.382-1.717 2.057-.022-.153-1.632-1.716-1.752-1.837l1.845-1.845zm-.861 3.536c.048.048.11.07.173.072-.439.498-.889.986-1.345 1.47l-.716-.716c.068-.097.071-.228-.016-.315s-.217-.084-.315-.016l-.831-.83 1.357-1.357zm5.196-10.683 1.384 1.384c.098.098.256.098.353 0 .098-.098.098-.256 0-.353l-1.384-1.384 1.088-1.088 1.045 1.045c.049.049.113.073.177.073.013 0 .023-.013.036-.015-.627 1.157-1.285 2.297-1.986 3.412l-1.894-1.894zm5.679-6.999-1.368-1.367 1.454-1.454.532.532c.098.098.256.098.354 0 .002-.002.001-.006.004-.009-.287.824-.59 1.641-.912 2.452-.006-.056-.021-.112-.064-.154zm1.814-4.88-1.208-1.209c-.007-.007-.018-.005-.026-.011l1.022-1.022.383.383c.098.098.256.098.354 0 .008-.007.005-.019.011-.027-.166.632-.349 1.26-.536 1.886zm-.187.518c.01.01.025.007.036.015-.193.627-.41 1.245-.624 1.865-.004-.058-.022-.117-.067-.161l-.532-.532zm2.031-8.789-.579-.579.751-.752c-.055.445-.107.889-.172 1.331zm-51.182-12.01c7.329.969 12.429-1.543 18.131-6.913 1.97-1.855 5.123-3.36 8.955.011 5.938 5.225 10.314 7.923 18.118 6.902 4.573-.605 6.719-.098 6.59 5.091-.043 1.621-.177 3.233-.356 4.839-.023.012-.05.01-.069.029l-1.119 1.119-.019-.019c-.098-.098-.256-.098-.353 0-.098.098-.098.256 0 .354l.019.019-.458.458c-.098.098-.098.256 0 .354s.256.098.354 0l.458-.458.759.759c.021.021.051.02.077.032-.3 1.899-.68 3.783-1.162 5.641-.006-.054-.021-.108-.062-.149l-.383-.383.63-.63c.098-.098.098-.256 0-.354-.263-.263-.697.344-.984.63l-.605-.605c-.098-.098-.256-.098-.353 0-.098.098-.098.256 0 .354l.605.605-2.022 2.022c-.098.098-.098.256 0 .354s.256.098.353 0l.662-.661c.006.008.004.019.011.026l1.02 1.021-1.185 1.185-.557-.557c-.098-.098-.256-.098-.354 0s-.098.256 0 .354l.556.556-2.706 2.706c-.098.098-.098.256 0 .354s.256.098.354 0l.898-.898 1.368 1.367c.085.085.214.106.333.009-.173.431-.34.865-.523 1.293l-1.263-1.263.389-.389c.098-.098.098-.256 0-.354s-.256-.098-.353 0l-.389.389-.116-.117c-.098-.098-.256-.098-.354 0s-.098.256 0 .354l.116.117-3.487 3.487c-.098.098-.098.256 0 .354s.256.098.353 0l1.694-1.694c.009.046.018.094.054.13l1.588 1.588c.098.098.256.098.354 0s.098-.256 0-.354l-1.588-1.588c-.036-.036-.084-.044-.13-.054l1.517-1.517 1.273 1.273c.046.046.105.065.165.068-.632 1.445-1.339 2.856-2.081 4.247-.012-.028-.012-.061-.035-.084l-1.045-1.045.95-.95c.098-.098.098-.256 0-.354s-.256-.098-.354 0l-.95.95-.825-.825c-.098-.098-.256-.098-.354 0s-.098.256 0 .354l.825.825-1.101 1.1c-.097-.065-.225-.068-.31.018-.086.086-.083.213-.018.31l-1.219 1.219c-.09-.035-.19-.035-.263.037-.073.073-.073.173-.038.263l-.222.222c-.098.098-.098.256 0 .354s.256.098.354 0l.195-.195 1.98 1.98c-.419.654-.865 1.291-1.309 1.929-.009-.013-.006-.031-.018-.042l-.501-.501.861-.861c.098-.098.098-.256 0-.354s-.256-.098-.354 0l-.861.861-.355-.355 1.024-1.023c.232-.232-.119-.588-.354-.354l-1.024 1.024-.801-.8c-.098-.098-.256-.098-.354 0s-.098.256 0 .354l.801.8-1.894 1.894-.361-.361c-.098-.098-.256-.098-.354 0s-.098.256 0 .354l.361.361-1.846 1.845-.165-.165c-.098-.098-.256-.098-.353 0-.098.098-.098.256 0 .354l.165.165-1.387 1.387c-.051.051-.072.118-.07.184-.008.006-.02.004-.028.011-.098.098-.098.256 0 .354l.947.947-2.383 2.383-1.142-1.142c-.098-.098-.256-.098-.354 0s-.098.256 0 .353l1.142 1.143-1.454 1.454-.697-.697.338-.338c.098-.098.098-.256 0-.354s-.256-.098-.354 0l-.338.338-.239-.239c-.098-.098-.256-.098-.354 0s-.098.256 0 .354l.239.239-1.552 1.552-.483-.483c-.098-.098-.256-.098-.353 0-.098.098-.098.256 0 .354l.483.483-1.356 1.356-.776-.776c-.098-.098-.256-.098-.354 0s-.098.256 0 .354l.776.776-1.836 1.836c-.009-.048-.019-.097-.056-.134l-1.14-1.14 2.096-2.095c.098-.098.098-.256 0-.354s-.256-.098-.354 0l-2.095 2.096-.849-.849c-.098-.098-.256-.098-.353 0-.098.098-.098.256 0 .354l.849.849-1.234 1.234c-1.398-.553-2.7-1.487-3.863-2.403-13.69-10.799-22.139-27.655-22.599-45.096-.156-5.247 2.106-5.678 6.582-5.089z" fill="#707070" data-original="#000000" style=""/><path d="m31.214 35.056c1.004 4.017 4.365 4.11 5.45.111.93-3.423 1.19-7.094.751-10.615-.126-1.011-.338-2.056-1.03-2.845-1.775-2.02-7.179-1.512-6.143 5.278.298 1.961-.126 3.657.972 8.071zm1.131-12.882c1.006-.746 2.542-.655 3.288.194.514.585.683 1.455.79 2.308.423 3.392.173 6.93-.724 10.229-.802 2.955-2.75 2.978-3.514-.091-1.076-4.323-.639-5.9-.955-7.979-.287-1.885-.402-3.538 1.115-4.661z" fill="#707070" data-original="#000000" style=""/><path d="m35.387 46.476c3.24-1.992 1.436-6.846-1.366-6.603-.811.065-3.28.261-3.966 2.611-.899 3.081 2.542 5.711 5.332 3.992zm-4.373-3.712c.341-1.167 1.292-1.752 3.085-1.894 1.786-.136 3.102 3.315.764 4.754-2.02 1.242-4.488-.668-3.849-2.86z" fill="#707070" data-original="#000000" style=""/><path d="m59.111 26.275.19-.19.836.836c.098.098.256.098.353 0 .098-.098.098-.256 0-.354l-.835-.836.917-.917.191.191c.098.098.256.098.354 0s.098-.256 0-.354l-.198-.198c.079-.098.081-.239-.01-.33s-.232-.089-.33-.01c-.278-.278-.682-.847-.941-.587-.098.098-.098.256 0 .354l.581.58-1.46 1.46c-.098.098-.098.256 0 .354.096.098.254.098.352.001z" fill="#707070" data-original="#000000" style=""/></g></g></svg>
