<?xml version="1.0"?>
<svg xmlns="http://www.w3.org/2000/svg" xmlns:xlink="http://www.w3.org/1999/xlink" xmlns:svgjs="http://svgjs.com/svgjs" version="1.1" width="512" height="512" x="0" y="0" viewBox="0 0 66 66" style="enable-background:new 0 0 512 512" xml:space="preserve" class=""><g><g xmlns="http://www.w3.org/2000/svg"><path d="m12.072 64.152h.261l42.711-.132c6.829-.021 9.306-1.925 9.564-9.431.515-15.064.516-30.337.001-45.397-.195-5.736-2.081-7.392-7.747-7.342-50.613.456-49.086.026-51.648 1.593-1.828 1.119-3.078 3.245-3.431 5.834-.467 3.433.524 6.848.405 10.171l-1.156 32.144c-.361 10.081 2.966 12.56 11.04 12.56zm48.623-47.783-.972-.972 1.294-1.294 1.015 1.015-.407.406c-.098.098-.098.256 0 .353.098.098.256.098.354 0l.407-.406.897.897h-2.588zm-1.326-1.326-1.317-1.316 1.294-1.294 1.316 1.316zm4.42 1.21c-.007-.052-.02-.104-.06-.144l-.991-.991.997-.996c.019.71.038 1.42.054 2.131zm-.172-6.762c.007.215.009.431.017.646l-.332-.331zm.027 1.364c.002.002.005.001.008.003.022.694.033 1.392.053 2.087l-.814-.814c.004-.068-.016-.137-.068-.189s-.121-.072-.189-.068l-.702-.702c.002-.002.004-.001.006-.003l1.01-1.01zm-.146 2.591c.04.04.093.053.146.06l-1.259 1.258-1.015-1.014 1.216-1.216zm.293 2.869c0 .018.001.036.001.054h-.024c.008-.019.02-.035.023-.054zm-61.017-6.903c.312-2.29 1.392-4.154 2.962-5.116 2.252-1.377.951-.994 51.135-1.447 3.917-.029 6.094.58 6.599 4.469l-.526-.526c-.098-.098-.256-.098-.354 0s-.098.256 0 .354l.959.959c.018.234.032.468.042.704l-.644.644-.729-.729c-.098-.098-.256-.098-.354 0s-.098.256 0 .354l.729.729-1.01 1.01c-.002.002-.001.004-.003.006l-.288-.288c-.098-.098-.256-.098-.354 0s-.098.256 0 .354l1.292 1.292-1.216 1.216-1.314-1.317.707-.707c.098-.098.098-.256 0-.354s-.256-.098-.354 0l-.707.707-.105-.105c-.098-.098-.256-.098-.354 0s-.098.256 0 .354l.105.105-1.294 1.294-.857-.857c-.098-.098-.256-.098-.354 0s-.098.256 0 .353l.858.857-1.037 1.037-1.413-1.413c-.098-.098-.256-.098-.354 0s-.098.256 0 .354l1.413 1.413-.689.689c-.098.098-.098.256 0 .354s.256.098.354 0l.688-.689.752.752c.098.098.256.098.353 0 .098-.098.098-.256 0-.354l-.751-.752 1.037-1.037 1.317 1.316-.208.208c-.098.098-.098.256 0 .354s.256.098.354 0l.208-.208.618.618h-8.707c.041-.011.084-.016.116-.048l1.332-1.332 1.19 1.19c.098.098.256.098.354 0s.098-.256 0-.353l-1.19-1.19 3.612-3.612c.098-.098.098-.256 0-.354s-.256-.098-.354 0l-3.612 3.612-.769-.769c-.098-.098-.256-.098-.354 0s-.098.256 0 .354l.769.769-1.332 1.332c-.098.098-.098.256 0 .354.032.032.075.037.116.048h-4.199c.046-.093.047-.203-.03-.281l-1.252-1.252 2.172-2.172c.098-.098.098-.256 0-.353-.098-.098-.256-.098-.354 0l-2.171 2.172-.165-.165c-.098-.098-.256-.098-.354 0s-.098.256 0 .354l.166.165-1.332 1.332c-.049.049-.073.113-.073.178l-1.449-1.45 1.948-1.948c.098-.098.098-.256 0-.353-.098-.098-.256-.098-.354 0l-1.988 1.988c-.078-.014-.158-.004-.218.056s-.07.14-.056.218l-1.111 1.111c-.098.098-.098.256 0 .354.032.032.075.037.116.048h-.266c.034-.089.033-.188-.039-.26l-1.293-1.293.587-.587c.098-.098.098-.256 0-.354s-.256-.098-.353 0l-.587.587-.185-.185c-.098-.098-.256-.098-.354 0s-.098.256 0 .353l.185.185-1.216 1.216-1.135-1.135.748-.748c.098-.098.098-.256 0-.354s-.256-.098-.354 0l-1.673 1.674-.83-.83c-.098-.098-.256-.098-.354 0s-.098.256 0 .354l.83.83-.507.507c-.011.011-.008.027-.016.039h-2.535l.515-.515.353.353c.049.049.113.073.177.073s.128-.024.177-.073c.098-.098.098-.256 0-.354l-.354-.355 1.993-1.993c.098-.098.098-.256 0-.354s-.256-.098-.354 0l-1.993 1.993-.306-.306c-.098-.098-.256-.098-.354 0s-.098.256 0 .353l.306.306-.749.749c-.033.033-.039.077-.049.12h-27.409c-.23-2.483-.594-4.695-.286-6.956zm38.988 5.838 1.118 1.119h-2.305c.041-.011.084-.016.115-.048zm4.74 1.119h-2.357l1.179-1.179zm-11.34-.258-.289-.289.572-.572 1.118 1.119h-1.361c.032-.089.031-.187-.04-.258zm-.45.258h-.386l.193-.193zm4.99 0h-2.398l1.199-1.199zm-37.671 35.259 1.156-32.144c.025-.706.001-1.413-.046-2.116h60.677c.269 12.382.213 24.852-.209 37.186-.238 6.949-2.268 8.445-8.567 8.465l-42.712.132c-7.622.008-10.646-1.811-10.299-11.523z" fill="#707070" data-original="#000000" style=""/><path d="m9.061 12.734c1.195.635 2.768.411 3.739-.542.968-.951 1.225-2.519.61-3.729-.13-.257-.303-.485-.497-.693-.012-.026-.011-.056-.032-.078-.016-.016-.038-.013-.057-.023-.721-.71-1.776-1.079-2.785-.912-1.394.229-2.44 1.263-2.664 2.633-.224 1.369.438 2.682 1.686 3.344zm1.141-4.991c.106-.017.214-.026.323-.026.519 0 1.029.212 1.433.543l-.77.77-.365-.365.093-.093c.098-.098.098-.256 0-.354s-.256-.098-.354 0l-.092.093-.508-.508c.079-.021.155-.046.24-.06zm-.753.254.668.668-.49.49-.726-.727c.149-.165.331-.313.548-.431zm-1.087 1.554c.038-.232.123-.474.249-.706l.663.663-.771.771c-.237.237.125.583.354.354l.771-.771.46.46c.098.098.256.098.354 0s.098-.256 0-.354l-.46-.46.49-.49.406.406c.012.012.029.009.042.017.006.054.021.108.062.149.098.098.256.098.354 0l.972-.972c.074.097.157.188.212.296.415.818.235 1.919-.419 2.562s-1.759.804-2.57.374c-1.049-.555-1.291-1.552-1.169-2.299z" fill="#707070" data-original="#000000" style=""/><path d="m17.516 12.734c1.2.639 2.773.405 3.738-.542.969-.951 1.225-2.519.61-3.729-.614-1.209-2.034-1.928-3.371-1.706-1.393.229-2.439 1.263-2.663 2.633-.223 1.369.438 2.682 1.686 3.344zm-.699-3.183c.015-.093.037-.189.066-.284l.938.938-.758.758c-.258-.465-.316-.979-.246-1.412zm1.84-1.808h.003l-.256.256-.154-.155c.126-.043.262-.077.407-.101zm-.88.336.273.273-.197.198c-.098.098-.098.256 0 .354s.256.098.354 0l.198-.198.505.505c.098.098.256.098.354 0s.098-.256 0-.354l-.505-.505.469-.469.776.776c.098.098.256.098.354 0s.098-.256 0-.354l-.297-.295c.385.21.716.518.912.905.415.818.235 1.919-.42 2.563-.653.643-1.759.804-2.569.373-.262-.139-.474-.306-.642-.49.016-.01.037-.007.051-.021l.799-.799c.038.022.075.049.118.049.184 0 .307-.182.201-.368l.197-.197c.232-.232-.119-.588-.354-.354l-.18.18-1.073-1.073c.158-.266.381-.509.676-.699z" fill="#707070" data-original="#000000" style=""/><path d="m25.852 12.734c1.209.642 2.779.4 3.739-.543.967-.951 1.224-2.519.61-3.729-.615-1.209-2.031-1.928-3.371-1.706-1.394.229-2.44 1.263-2.664 2.633s.438 2.683 1.686 3.345zm-.713-3.041 1.002 1.002-.551.551c-.385-.484-.499-1.058-.451-1.553zm4.17-.777c.415.818.235 1.919-.419 2.562-.655.643-1.758.804-2.57.374-.142-.075-.266-.159-.379-.249l.553-.554.233.233c.098.098.256.098.354 0s.098-.256 0-.353l-.233-.233.688-.688c.098-.098.098-.256 0-.354s-.256-.098-.353 0l-.688.688-1.22-1.22c.096-.254.241-.503.447-.721l.514.514c0 .064.024.128.073.177s.113.073.177.073l.293.293c.098.098.256.098.354 0s.098-.256 0-.354l-.243-.242.469-.469.872.872c.098.098.256.098.354 0s.098-.256 0-.354l-.873-.871.16-.16c.022-.022.02-.052.033-.078.593.165 1.128.569 1.404 1.114zm-2.544-1.116.24.24-.469.469-.427-.427c.188-.121.406-.217.656-.282z" fill="#707070" data-original="#000000" style=""/><path d="m14.057 27.54c-.617-1.065-1.59-1.916-2.744-2.366-.257-.1-.547.026-.648.284-.1.257.027.547.284.647 1.227.479 2.204 1.512 2.614 2.764.064.198.245.334.453.344h.023c.199 0 .38-.119.46-.303 1.063-2.476 3.143-4.516 5.857-5.746.251-.114.363-.411.249-.662-.114-.252-.41-.363-.662-.249-2.581 1.17-4.636 3.024-5.886 5.287z" fill="#707070" data-original="#000000" style=""/><path d="m9.224 32.026c.088 0 .16-.022.217-.048h7.957c.244 0 .442-.132.483-.372.027-.05.078-.142.106-.352v-4.784c0-.276-.224-.5-.5-.5s-.5.224-.5.5v4.509h-7.263l-.002-7.247c.005-.021.013-.041.021-.062h6.172c.076 0 .152-.009.228-.021l.073-.009c.275-.018.484-.256.466-.532s-.264-.474-.532-.466c-.052.003-.104.011-.235.028h-6.541c-.276 0-.498.201-.498.477-.007.034-.024.067-.039.101-.047.115-.113.272-.113.462v7.818c0 .275.224.498.5.498z" fill="#707070" data-original="#000000" style=""/><path d="m19.941 34.318c-2.579 1.169-4.634 3.023-5.885 5.286-.617-1.064-1.59-1.916-2.744-2.366-.257-.1-.547.026-.648.284-.1.257.027.547.284.647 1.227.479 2.204 1.512 2.614 2.764.064.198.245.334.453.344h.023c.199 0 .38-.119.46-.303 1.063-2.476 3.143-4.516 5.857-5.746.251-.114.363-.411.249-.662-.115-.25-.411-.361-.663-.248z" fill="#707070" data-original="#000000" style=""/><path d="m9.224 44.09c.088 0 .16-.022.217-.048h7.957c.244 0 .442-.132.483-.372.027-.05.078-.142.106-.353v-4.784c0-.276-.224-.5-.5-.5s-.5.224-.5.5v4.509h-7.263l-.002-7.247c.005-.021.013-.042.021-.062h6.172c.076 0 .152-.009.228-.021l.073-.009c.275-.018.484-.256.466-.532s-.264-.479-.532-.466c-.052.003-.104.011-.235.028h-6.541c-.276 0-.498.201-.498.477-.007.034-.024.067-.039.101-.047.115-.113.272-.113.461v7.818c0 .277.224.5.5.5z" fill="#707070" data-original="#000000" style=""/><path d="m19.941 46.382c-2.58 1.169-4.634 3.023-5.885 5.286-.617-1.065-1.59-1.916-2.744-2.366-.257-.1-.547.026-.648.284-.1.257.027.547.284.648 1.227.479 2.204 1.512 2.614 2.764.065.198.245.334.453.344h.023c.199 0 .38-.119.46-.303 1.063-2.476 3.143-4.516 5.857-5.746.251-.114.363-.411.249-.662-.115-.251-.411-.363-.663-.249z" fill="#707070" data-original="#000000" style=""/><path d="m9.224 56.154c.088 0 .16-.022.217-.048h7.957c.244 0 .442-.131.483-.372.027-.049.077-.141.106-.352v-4.785c0-.276-.224-.5-.5-.5s-.5.224-.5.5v4.509h-7.263l-.002-7.247c.005-.021.013-.042.021-.062h6.172c.076 0 .152-.009.228-.021l.073-.009c.275-.018.484-.256.466-.532s-.264-.483-.532-.466c-.052.003-.104.011-.235.028h-6.541c-.276 0-.498.201-.498.477-.007.034-.024.067-.039.101-.047.115-.113.272-.113.461v7.818c0 .277.224.5.5.5z" fill="#707070" data-original="#000000" style=""/><path d="m24.925 24.876h32.087c.276 0 .5-.224.5-.5s-.224-.5-.5-.5h-32.087c-.276 0-.5.224-.5.5s.224.5.5.5z" fill="#707070" data-original="#000000" style=""/><path d="m24.357 29.985h17.179c.276 0 .5-.224.5-.5s-.224-.5-.5-.5h-17.179c-.276 0-.5.224-.5.5s.224.5.5.5z" fill="#707070" data-original="#000000" style=""/><path d="m57.013 36.342h-32.088c-.276 0-.5.224-.5.5s.224.5.5.5h32.087c.276 0 .5-.224.5-.5.001-.276-.223-.5-.499-.5z" fill="#707070" data-original="#000000" style=""/><path d="m24.357 42.452h17.179c.276 0 .5-.224.5-.5s-.224-.5-.5-.5h-17.179c-.276 0-.5.224-.5.5 0 .277.224.5.5.5z" fill="#707070" data-original="#000000" style=""/><path d="m57.013 48.407h-32.088c-.276 0-.5.224-.5.5s.224.5.5.5h32.087c.276 0 .5-.224.5-.5s-.223-.5-.499-.5z" fill="#707070" data-original="#000000" style=""/><path d="m24.357 54.516h17.179c.276 0 .5-.224.5-.5s-.224-.5-.5-.5h-17.179c-.276 0-.5.224-.5.5s.224.5.5.5z" fill="#707070" data-original="#000000" style=""/><path d="m48.752 14.595-1.252 1.252c-.098.098-.098.256 0 .354s.256.098.354 0l1.252-1.252 1.292 1.292c.098.098.256.098.354 0s.098-.256 0-.353l-1.292-1.292 2.231-2.232c.098-.098.098-.256 0-.353-.098-.098-.256-.098-.354 0l-2.231 2.231-.286-.286c-.098-.098-.256-.098-.354 0s-.098.256 0 .354z" fill="#707070" data-original="#000000" style=""/></g></g></svg>
