<?xml version="1.0" encoding="utf-8"?>
<!-- Generator: Adobe Illustrator 25.0.0, SVG Export Plug-In . SVG Version: 6.00 Build 0)  -->
<svg version="1.1" id="Layer_1" xmlns:svgjs="http://svgjs.com/svgjs"
	 xmlns="http://www.w3.org/2000/svg" xmlns:xlink="http://www.w3.org/1999/xlink" x="0px" y="0px" viewBox="0 0 512 512"
	 style="enable-background:new 0 0 512 512;" xml:space="preserve">
<style type="text/css">
	.st0{fill:#707070;}
</style>
<g>
	<g>
		<path class="st0" d="M482.9,195C437.2,148,399.7,109.6,347.5,56C298.4,5.3,268.4-2.1,212,37.6C142.7,86.1,79.4,143.4,23.9,207.8
			c-34,39.5-8.1,64.6,17.7,55.7c6.1-2.2,11.2-5.9,16.2-9.8c0,155.6,0,118.6,0,182c-0.2,32.5,4.1,64.1,48.9,64.1H395
			c56.3,0,71.8,2.4,71.8-55c0-137.3,0.9-184.1,0.9-184.1c17,2.3,31.4-7.2,33.1-14.1C511.1,227.5,496.5,208.9,482.9,195L482.9,195z
			 M161.9,164l0.2,0.2c-0.8,0.8-14.7,14.4-15,15.5l-1.3-1.3C153.6,171.5,144.4,179.9,161.9,164z M164.8,161.4
			c0.4-0.4,0.9-0.8,1.3-1.2L164.8,161.4L164.8,161.4z M110.2,213l-1.7-1.7c4.8-4.1,12.5-10.8,16.7-14.5l6.6,6.6L116.2,219l-3.3-3.3
			l0.2-0.2C114.9,213.8,112.4,210.8,110.2,213L110.2,213z M65.6,247.3c0.9-0.7,1.7-1.4,2.6-2.1l4.9,4.9l-7.5,7.5V247.3z M71.1,242.7
			c3.1-2.6,15-12.5,15.3-12.7l3.4,3.4l-14,14L71.1,242.7z M89.4,227.4c3.5-2.9,14.8-12.6,16-13.6l2,2l-14.8,14.8L89.4,227.4z
			 M244.5,330.4l1.5-1.5c0.8-0.8,0.8-2,0-2.7c-0.2-0.2-0.4-0.2-0.7-0.3c4.2,0.2,8.4,0.3,12.6,0.4l-8.8,8.8L244.5,330.4z
			 M243.3,326.1l-1.5,1.5l-2-2c1,0,1.9,0.1,2.9,0.1c0.5,0,0.9,0,1.4,0.1C243.8,325.9,243.5,325.9,243.3,326.1L243.3,326.1z
			 M235.8,327.2l3.2,3.2l-6.5,6.5L221,325.3c1.5-0.1,3.1-0.2,4.8-0.1c3.2,0.1,6.3,0.2,9.5,0.3C235.3,326.1,235.4,326.7,235.8,327.2z
			 M216.2,325.9l5.3,5.3c-0.3,0.1-0.7,0.1-0.9,0.4l-8.8,8.8l-7.2-7.2C207,328.8,211,326.9,216.2,325.9z M203.1,425.7
			c0.8,0.8,2,0.8,2.7,0l4.3-4.3l5.5,5.5c0.1,0.1,0.2,0,0.2,0.1l-7.5,7.5l-4.5-4.5c-0.5-0.5-1.3-0.6-1.9-0.3v-16.6l5.5,5.5l-4.3,4.3
			C202.4,423.8,202.4,425,203.1,425.7z M201.9,478.6l4,4l-4,4V478.6z M201.9,457.2l2.2,2.2l-2.2,2.2V457.2z M201.9,451.7v-5.4
			c0.1-0.1,0.3-0.1,0.4-0.2l6-6l7.5,7.5l-9,9L201.9,451.7z M201.9,441.1v-7.4l3.7,3.7L201.9,441.1z M201.9,391.8l1.9,1.9l-1.9,1.9
			V391.8z M201.9,492l6.7-6.7l3.3,3.3c0.8,0.8,2,0.8,2.7,0c0.8-0.8,0.8-2,0-2.7l-3.3-3.3l13-13c0.8-0.8,0.8-2,0-2.7
			c-0.8-0.8-2-0.8-2.7,0l-13,13l-6.7-6.7v-7.8c0.2,0.1,0.4,0.2,0.6,0.2c0.5,0,1-0.2,1.4-0.6l3-3l5.7,5.7c0.8,0.8,2,0.8,2.7,0
			c0.8-0.8,0.8-2,0-2.7l-5.7-5.7l10.8-10.8c0.8-0.8,0.8-2,0-2.7c-0.4-0.4-0.9-0.6-1.4-0.6l-7.9-7.9l9.5-9.5c0.8-0.8,0.8-2,0-2.7
			c-0.5-0.5-1.3-0.6-1.9-0.3c-0.1-0.2-0.1-0.4-0.2-0.6l-5.5-5.5l13.3-13.3c0.8-0.8,0.8-2,0-2.7c-0.8-0.8-2-0.8-2.7,0L210.1,416
			l-7.8-7.8c-0.1-0.1-0.3-0.1-0.4-0.2v-6.9l4.7-4.7l4.8,4.8c0.8,0.8,2,0.8,2.7,0c0.8-0.8,0.8-2,0-2.7l-4.8-4.8l8-8
			c0.8-0.8,0.8-2,0-2.7c-0.8-0.8-2-0.8-2.7,0l-8,8.1l-4.7-4.7c0-20.8,0.1-18.5-0.2-25.4l4.7,4.7l-3.7,3.7c-1.2,1.2-0.3,3.3,1.4,3.3
			c0.5,0,1-0.2,1.4-0.6l3.7-3.7l9.4,9.4c0.8,0.8,2,0.8,2.7,0c0.8-0.8,0.8-2,0-2.7l-9.4-9.4l7.7-7.7c0.8-0.8,0.8-2,0-2.7
			c-0.8-0.8-2-0.8-2.7,0l-7.7,7.7l-7.7-7.7c-0.3-6.2-0.2-12.8,1.5-18.1l6.1,6.1l-6.8,6.8c-0.8,0.8-0.8,2,0,2.7c0.8,0.8,2,0.8,2.7,0
			l6.8-6.8l9.2,9.2c0.8,0.8,2,0.8,2.7,0c0.8-0.8,0.8-2,0-2.7l-9.2-9.2l8.8-8.8c0.3-0.3,0.3-0.6,0.4-0.9l6.2,6.2l-5.8,5.8
			c-0.8,0.8-0.8,2,0,2.7c0.8,0.8,2,0.8,2.7,0l5.8-5.8l1.4,1.4c0.8,0.8,2,0.8,2.7,0c0.8-0.8,0.8-2,0-2.7l-1.4-1.4l6.5-6.5l12,12
			c0.8,0.8,2,0.8,2.7,0c0.8-0.8,0.8-2,0-2.7l-4.6-4.6l10.3-10.3l7,7l-4.3,4.2c-0.8,0.8-0.8,2,0,2.7c0.8,0.8,2,0.8,2.7,0l4.2-4.2
			l5.6,5.6c0.8,0.8,2,0.8,2.7,0c0.8-0.8,0.8-2,0-2.7l-5.6-5.6l7.9-7.9h0.7c0,0,0,0.1,0,0.1l6.8,6.8l-2.2,2.2c-0.8,0.8-0.8,2,0,2.7
			c0.8,0.8,2,0.8,2.7,0l2.2-2.2l3.5,3.5c0.8,0.8,2,0.8,2.7,0c0.8-0.8,0.8-2,0-2.7l-3.5-3.5l5.7-5.7l5.4,5.4l-2.5,2.5
			c-0.8,0.8-0.8,2,0,2.7c0.8,0.8,2,0.8,2.7,0l2.5-2.5l3.8,3.8c0.8,0.8,2,0.8,2.7,0c0.8-0.8,0.8-2,0-2.7l-3.8-3.8
			c0.8-0.8,4.5-4.4,5-5.3c4,3.5,3.4,14.6,3.3,19.9c-0.1,4.3-0.1,139.9-0.1,144.2L201.9,492L201.9,492z M266.7,326.5
			c3.6,0.1,7.1,0.1,10.4,0.1l-5.1,5.1L266.7,326.5z M288.7,326.5c5-0.1,4.5,0,8.9-0.4l-4.7,4.7L288.7,326.5z M304.5,325.5
			c3.3-0.2,6.6-0.1,9.3,0.6l-4.3,4.3L304.5,325.5z M459.1,444.7c0,51.3-10.1,47.3-64.1,47.3h-66.8c0-4.4,0-139.7,0.1-144
			c1-39.7-4.7-28-102.2-30.6c-10.5-0.3-21.4,1.7-27.4,10.4c-2-1-3.9,1.2-1.8,3.3c-4,8.5-3.5,19.5-3,28.8c0.4,7.5,0.3,5.9,0.3,22.5
			c-0.1,0.4-0.1,0.8,0,1.2V492h-87.4c-36.3,0-41.3-22.3-41.1-56.3l0-174.9c0.9,0.6,1.8,0.5,2.4-0.1l7.8-7.8l5.4,5.4
			c0.8,0.8,2,0.8,2.7,0c0.8-0.8,0.8-2,0-2.7l-5.4-5.4l14-14l9.1,9.1c0.8,0.8,2,0.8,2.7,0s0.8-2,0-2.7l-9.1-9.1l14.8-14.8l3.3,3.3
			l-6.6,6.6c-0.8,0.8-0.8,2,0,2.7s2,0.8,2.7,0l6.6-6.6l1.2,1.2c0.8,0.8,2,0.8,2.7,0c0.8-0.8,0.8-2,0-2.7l-1.2-1.2l16-16
			c0.5,0,1-0.2,1.4-0.6c0.4-0.4,0.6-0.9,0.6-1.4l3.8-3.8c0.8-0.8,0.8-2,0-2.7s-2-0.8-2.7,0l-3.4,3.4l-6.4-6.4
			c7.8-6.8,4.6-4,14.9-13.2l8.2,8.2c0.8,0.8,2,0.8,2.7,0c0.8-0.8,0.8-2,0-2.7l-4.5-4.5c0.3-0.1,0.6-0.1,0.9-0.4l14.6-14.6l6.6,6.6
			c0.8,0.8,2,0.8,2.7,0s0.8-2,0-2.7l-6.6-6.6l5.8-5.8c0.8-0.8,0.8-2,0-2.7c-0.5-0.5-1.2-0.6-1.9-0.3c0.8-0.8,1.7-1.6,2.5-2.3
			l11.4,11.4c0.8,0.8,2,0.8,2.7,0c0.8-0.8,0.8-2,0-2.7l-11.3-11.3c5.9-5.4,11.9-10.9,17.9-16.6l3.3,3.3l-11.4,11.4
			c-0.8,0.8-0.8,2,0,2.7s2,0.8,2.7,0l11.4-11.4l2.7,2.7c0.8,0.8,2,0.8,2.7,0s0.8-2,0-2.7l-2.7-2.7l5.8-5.8c0.8-0.8,0.8-2,0-2.7
			s-2-0.8-2.7,0l-5.8,5.8l-3.2-3.2c3.7-3.5,7.4-6.9,11.2-10.5l9.4,9.4c0.8,0.8,2,0.8,2.7,0c0.8-0.8,0.8-2,0-2.7l-9.4-9.4
			c4.6-4.4,9.2-8.8,13.9-13.3l3.3,3.3l-4.6,4.6c-0.8,0.8-0.8,2,0,2.7c0.8,0.8,2,0.8,2.7,0l4.6-4.6l1.9,1.9c0.8,0.8,2,0.8,2.7,0
			s0.8-2,0-2.7l-1.9-1.9l10-10l2,2c0.8,0.8,2,0.8,2.7,0c0.8-0.8,0.8-2,0-2.7l-2-2l2.6-2.6c0.8-0.8,0.8-2,0-2.7c-0.8-0.8-2-0.8-2.7,0
			l-2.6,2.6l-3.8-3.8c3.4-3.4,7-6.6,10.6-8.7l9.4,9.4c0.8,0.8,2,0.8,2.7,0c0.8-0.8,0.8-2,0-2.7l-2.6-2.6l3.4-3.4
			c0.2-0.2,0.1-0.4,0.2-0.6c9.1,6.3,18,21.7,24.9,29.5c43.7,49.2,92,94,143.5,133.3c7.7,6,17.7,12.9,27.1,16.1
			C459.9,258.9,459.1,326.3,459.1,444.7L459.1,444.7z M237.9,91.5l3.7,3.7l-10,10l-3.3-3.3C231.3,98.8,234.5,95.1,237.9,91.5z
			 M255,78.3c1.6-0.5,3.2-0.8,4.6-0.6c0.4,0.1,0.9,0.3,1.4,0.5l-3.1,3.1L255,78.3z M464.1,252.1c-9.1-2.8-17.2-8.2-26.6-15.5
			c-51.2-39-99.1-83.5-142.5-132.4c-24.2-27.3-30-55-67.7-12.8c-13.2,14.8-106.3,101.2-170.5,153c-33.1,27-45.3,5.6-40.6-10.4
			c2.4-7.8,7.5-14.2,13.6-21.2C84.9,148.9,147.6,92.1,216.5,44C266.8,8.5,292.9,10.8,342,61.4c39.5,40.6,91.2,93.5,135.4,139
			C515.9,239.9,486.8,258.5,464.1,252.1L464.1,252.1z"/>
		<path class="st0" d="M216.6,192.9c-10.1,17.8-4.8,42.3,11.9,54.5c33.7,24.7,81.7-10.3,65-51.3
			C280.5,164.3,233.1,163.9,216.6,192.9L216.6,192.9z M258,182.1c0.7-0.7,0.7-1.7,0.1-2.5c0.2,0,0.5,0.1,0.7,0.1
			c-0.1,0.6,0,1.2,0.4,1.7l2.5,2.5l-1.3,1.3l-2.7-2.7L258,182.1z M263.8,180.5c0.3,0.1,0.6,0.2,0.9,0.2l-0.3,0.3L263.8,180.5z
			 M255.1,179.4l-0.5,0.5c-0.6-0.1-1.1,0-1.6,0.5c-0.4,0.4-0.6,1-0.5,1.6l-4.7,4.7l-5.2-5.2c3.9-1.3,8-2.1,12.3-2.1
			C255,179.4,255,179.4,255.1,179.4z M229.2,189.3c1.4-1.3,3-2.5,4.6-3.6l-4.1,4.1L229.2,189.3z M220.1,220l9.2,9.2l-3.7,3.7
			c0,0,0,0.1,0,0.1C222.9,229.2,221.1,224.7,220.1,220z M233.1,241.1c-2-1.5-3.7-3.2-5.3-5.1c0.2-0.1,0.4-0.1,0.6-0.3l19-19
			c0.8-0.8,0.8-2,0-2.7s-2-0.8-2.7,0l-12.5,12.5l-11.8-11.8c-0.3-0.3-0.6-0.3-0.9-0.4c-0.3-6.1,1-12.3,4-17.6c0.9-1.6,2-3.1,3.2-4.6
			l7,7l-5.6,5.6l-3.2-3.2c-0.8-0.8-2-0.8-2.7,0s-0.8,2,0,2.7l3.2,3.2c-0.7,0.8-0.7,1.9,0.1,2.6c0.7,0.7,1.7,0.8,2.6,0.1l8.1,8.1
			c0.8,0.8,2,0.8,2.7,0c0.8-0.8,0.8-2,0-2.7l-8.1-8.1l5.6-5.7l3.7,3.7c0.8,0.8,2,0.8,2.7,0s0.8-2,0-2.7l-3.7-3.7l1.5-1.5
			c0.8-0.8,0.8-2,0-2.7s-2-0.8-2.7,0l-1.5,1.5l-3.8-3.8l7.8-7.8l4.7,4.7l-3.7,3.7c-0.8,0.8-0.8,2,0,2.7s2,0.8,2.7,0l3.7-3.7l3.8,3.8
			c0.8,0.8,2,0.8,2.7,0c0.8-0.8,0.8-2,0-2.7l-3.8-3.8l4.4-4.4l2.7,2.7l-2.1,2.1c-0.8,0.8-0.8,2,0,2.7c0.8,0.8,2,0.8,2.7,0l2.1-2.1
			l2.1,2.1c0.8,0.8,2,0.8,2.7,0c0.8-0.8,0.8-2,0-2.7l-2.1-2.1l1.3-1.3l6.1,6.1c0.8,0.8,2,0.8,2.7,0c0.8-0.8,0.8-2,0-2.7l-6.1-6.1
			l1.1-1.1c0.2-0.2,0.2-0.5,0.3-0.8c8.1,3.1,14.5,9.1,17.8,17.1C300,232.6,260.5,261.3,233.1,241.1L233.1,241.1z"/>
		<path class="st0" d="M434.1,188.8l4-4c0.8-0.8,0.8-2,0-2.7c-0.8-0.8-2-0.8-2.7,0l-4,4l-11.4-11.4l3.4-3.4c0.8-0.8,0.8-2,0-2.7
			c-0.8-0.8-2-0.8-2.7,0l-3.4,3.4L406,160.7l5.3-5.3c0.8-0.8,0.8-2,0-2.7c-0.8-0.8-2-0.8-2.7,0l-5.3,5.3l-14.4-14.4l3.9-3.9
			c0.8-0.8,0.8-2,0-2.7c-0.8-0.8-2-0.8-2.7,0l-3.9,3.9l-7.3-7.3l7-7c0.8-0.8,0.8-2,0-2.7c-0.8-0.8-2-0.8-2.7,0l-7,7l-8.8-8.8
			l0.7-0.7c0.8-0.8,0.8-2,0-2.7c-0.8-0.8-2-0.8-2.7,0l-0.7,0.7l-6.6-6.6c-0.8-0.8-2-0.8-2.7,0c-0.8,0.8-0.8,2,0,2.7l6.6,6.6
			l-4.8,4.8c-0.8,0.8-0.8,2,0,2.7c0.8,0.8,2,0.8,2.7,0l4.8-4.8l8.9,8.9c-0.6,0.8-0.6,1.8,0.1,2.5c0.7,0.7,1.5,0.8,2.5,0.1l7.4,7.4
			l-3.4,3.4c-0.8,0.8-0.8,2,0,2.7c0.8,0.8,2,0.8,2.7,0l3.4-3.4l14.4,14.4l-2.2,2.2c-0.8,0.8-0.8,2,0,2.7c0.8,0.8,2,0.8,2.7,0
			l2.2-2.2l11.1,11.1l-3,3.1c-0.8,0.8-0.8,2,0,2.7c0.8,0.8,2,0.8,2.7,0l3.1-3.1l11.4,11.4l-5.4,5.4c-0.8,0.8-0.8,2,0,2.7
			c0.8,0.8,2,0.8,2.7,0l5.4-5.4l11.8,11.8c0.8,0.8,2,0.8,2.7,0s0.8-2,0-2.7L434.1,188.8z"/>
		<path class="st0" d="M440.4,344.3h-6.9v-8.9c0-1.1-0.9-1.9-1.9-1.9s-1.9,0.9-1.9,1.9v8.9h-2.8c-1.1,0-1.9,0.9-1.9,1.9
			c0,1.1,0.9,1.9,1.9,1.9h2.8v11.5l-4.9,4.9c-0.8,0.8-0.8,2,0,2.7c0.8,0.8,2,0.8,2.7,0l2.1-2.1V387h-7.6c-1.1,0-1.9,0.9-1.9,1.9
			c0,1.1,0.9,1.9,1.9,1.9h7.6v15.8h-5.5c-1.1,0-1.9,0.9-1.9,1.9s0.9,1.9,1.9,1.9h5.5v17.2h-10.3c-1.1,0-1.9,0.9-1.9,1.9
			c0,1.1,0.9,1.9,1.9,1.9h10.3v17.1c0,1.1,0.9,1.9,1.9,1.9s1.9-0.9,1.9-1.9v-17.1h5.6c1.1,0,1.9-0.9,1.9-1.9c0-1.1-0.9-1.9-1.9-1.9
			h-5.6v-17.2h4.3c1.1,0,1.9-0.9,1.9-1.9s-0.9-1.9-1.9-1.9h-4.3v-15.8h3.2c1.1,0,1.9-0.9,1.9-1.9c0-1.1-0.9-1.9-1.9-1.9h-3.2v-25.8
			l2.8-2.8c0.8-0.8,0.8-2,0-2.7c-0.8-0.8-2-0.8-2.7,0l-0.1,0.1v-7.6h6.9c1.1,0,1.9-0.9,1.9-1.9C442.3,345.1,441.5,344.3,440.4,344.3
			L440.4,344.3z"/>
		<path class="st0" d="M106.4,469.9c-4.9,2.6-10.5,0.9-14.9-2.5l3.9-6.2c0.6-0.9,0.3-2.1-0.6-2.7c-0.9-0.5-2.1-0.3-2.7,0.6l-3.5,5.5
			c-3.1-3.5-4.3-7.1-5.2-11.9l5.2-5c0.8-0.7,0.8-2,0.1-2.7c-0.7-0.8-2-0.8-2.7-0.1l-3.3,3.1c-0.4-5.5,0-12.1,0.3-17.8l8.3-4.1
			c1-0.5,1.3-1.6,0.9-2.6c-0.5-1-1.6-1.3-2.6-0.9l-6.4,3.2l0.8-17.9c2.4-0.9,4.6-2.2,6.4-4.1c0.8-0.8,0.8-2,0-2.7
			c-0.8-0.7-2-0.8-2.7,0c-1,1-2.2,1.8-3.5,2.4l1-21.4l4.4,0h0c1.1,0,1.9-0.9,1.9-1.9c0-1.1-0.9-1.9-1.9-1.9l-4.2,0l0.6-13.9
			c0-1.1-0.8-2-1.8-2c-1.1,0-2,0.8-2,1.8l-0.6,14.1l-6.2,0c0,0,0,0,0,0c-1.1,0-1.9,0.9-1.9,1.9c0,1.1,0.9,1.9,1.9,1.9l6,0l-1,22.8
			c-1.5,0.3-3.1,0.4-4.6,0.2c-1.1-0.2-2,0.6-2.2,1.6c-0.2,1.1,0.6,2.1,1.6,2.2c2.3,0.4,3.4,0.2,5,0l-0.9,18.9l-3.3,1.6
			c-1,0.5-1.3,1.6-0.9,2.6c0.5,1,1.7,1.3,2.6,0.9l1.3-0.7c-0.3,6.4-0.7,12.8,0.2,19.2l-6,5.8c-0.8,0.7-0.8,2-0.1,2.7
			c0.7,0.8,1.9,0.8,2.7,0.1l4.2-4c1.5,6,3.6,9.1,6.5,12.1l-2,3.2c-0.6,0.9-0.3,2.1,0.6,2.7c1,0.6,2.1,0.3,2.7-0.6l1.7-2.7
			c6.9,5.1,13.6,5.3,18.8,2.6c0.9-0.5,1.3-1.7,0.8-2.6C108.5,469.8,107.3,469.4,106.4,469.9L106.4,469.9z"/>
	</g>
</g>
</svg>
