<?xml version="1.0" encoding="utf-8"?>
<!-- Generator: Adobe Illustrator 25.0.0, SVG Export Plug-In . SVG Version: 6.00 Build 0)  -->
<svg version="1.1" id="Layer_1" xmlns:svgjs="http://svgjs.com/svgjs"
	 xmlns="http://www.w3.org/2000/svg" xmlns:xlink="http://www.w3.org/1999/xlink" x="0px" y="0px" viewBox="0 0 512 512"
	 style="enable-background:new 0 0 512 512;" xml:space="preserve">
<g>
	<path d="M340.1,314.2c-29.7-0.7-58.8,22.3-65.9,51.4c-34.1-7.9-66-25.7-89.9-51.2c-22.4-23.8-37.8-54.2-44.4-86.2
		c1,0.7,2.3,1,3.6,0.5c19.6-7.5,35-25.6,39.4-46c4.4-20.5-2.3-43.3-17.1-58.2c-23.8-24-67.4-25.3-97.1-3
		c-25.8,19.4-41,53.7-40.7,91.6c0.4,49.6,25.2,91.6,45.8,118.2c25.4,32.6,56.8,58.9,92.2,87.4c20.6,16.6,45.4,36.4,73.9,48
		c0.1,0.3,0.1,0.7,0.4,1c0.4,0.4,0.9,0.6,1.4,0.6c0.3,0,0.7-0.2,1-0.4c5.7,2.2,11.4,4.1,17.4,5.6c80.3,19.2,153.9-43.1,144.6-102.8
		C400,339.9,371,314.7,340.1,314.2L340.1,314.2z M248.9,461.9l0.2-0.2l0.3,0.3C249.3,462,249.1,461.9,248.9,461.9L248.9,461.9z
		 M253.7,463.3c0.6-0.8,0.6-1.8-0.1-2.6l-1.8-1.8l6.2-6.2l10.1,10.1l-3.4,3.4c-0.9-0.2-1.9-0.3-2.8-0.5
		C259.2,465.1,256.5,464.2,253.7,463.3L253.7,463.3z M270.9,465.6l2.1,2.1c-1.2-0.2-2.4-0.4-3.6-0.6L270.9,465.6z M278.6,468.3
		c-0.1-0.2-0.1-0.5-0.3-0.7l-4.7-4.7l9.7-9.7l4.9,4.9l-4.2,4.2c-0.8,0.8-0.8,2,0,2.7c0.8,0.8,2,0.8,2.7,0l4.2-4.2l6.1,6.1
		c0.8,0.8,2,0.8,2.7,0c0.8-0.8,0.8-2,0-2.7l-6.1-6.1l7.6-7.6l7.8,7.8c-0.4,0.7-0.4,1.6,0.2,2.3c0.8,0.8,1.5,0.6,2.3,0.2l0.8,0.8
		c0.8,0.8,2,0.8,2.7,0c0.8-0.8,0.8-2,0-2.7l-0.7-0.7l9.5-9.5l5.2,5.2c-0.1,0.6,0,1.2,0.4,1.7c0.7,0.7,1.1,0.6,1.7,0.4l3.5,3.5
		c0.2,0.2,0.4,0.2,0.6,0.3C317.6,467.1,298,470,278.6,468.3L278.6,468.3z M313.6,438.2l7.6,7.6l-9.5,9.5l-7.6-7.6L313.6,438.2z
		 M346.3,436.1l-14.7,14.7l-4.9-4.9l14.7-14.7L346.3,436.1z M337.6,456.8l-3.2-3.2l14.7-14.7l8.8,8.8c-6.3,4.4-13,8.2-20.1,11.2
		C338.2,458.2,338.2,457.4,337.6,456.8L337.6,456.8z M361,445.7c-0.1-0.2-0.1-0.5-0.3-0.7l-8.9-8.9l7.6-7.6l7.5,7.5
		c0.8,0.8,2,0.8,2.7,0c0.8-0.8,0.8-2,0-2.7l-7.5-7.5l4.2-4.2c0.8-0.8,0.8-2,0-2.7c-0.8-0.8-2-0.8-2.7,0l-4.2,4.2l-5.9-5.9
		c-0.8-0.8-2-0.8-2.7,0c-0.8,0.8-0.8,2,0,2.7l5.9,5.9l-7.6,7.6l-5.1-5.1c0.5-0.7,0.5-1.7-0.2-2.4c-0.7-0.7-1.6-0.6-2.4-0.2l-3.7-3.7
		c-0.8-0.8-2-0.8-2.7,0c-0.8,0.8-0.8,2,0,2.7l3.6,3.6L324,443.1l-7.6-7.6l0.2-0.2c0.8-0.8,0.8-2,0-2.7c-0.8-0.8-2-0.8-2.7,0
		l-0.4,0.4c-0.7-0.2-1.4-0.2-2,0.3s-0.6,1.3-0.3,2l-9.7,9.7l-6.7-6.7c-0.8-0.8-2-0.8-2.7,0c-0.8,0.8-0.8,2,0,2.7l6.7,6.7l-7.6,7.6
		l-4.9-4.9l4.6-4.6c0.8-0.8,0.8-2,0-2.7c-0.8-0.8-2-0.8-2.7,0l-4.6,4.6l-6.5-6.5c-0.8-0.8-2-0.8-2.7,0c-0.8,0.8-0.8,2,0,2.7l6.5,6.5
		l-9.7,9.7L260.8,450l7-7c0.8-0.8,0.8-2,0-2.7c-0.8-0.8-2-0.8-2.7,0l-7,7l-0.3-0.3c-0.8-0.8-2-0.8-2.7,0c-0.8,0.8-0.8,2,0,2.7
		l0.3,0.3l-6.2,6.2l-9.2-9.2c-0.8-0.8-2-0.8-2.7,0c-0.8,0.8-0.8,2,0,2.7l9.2,9.2l-1.3,1.3c-28.4-11.1-53.3-31-74-47.7
		c-35.1-28.3-66.1-54.2-91-86.2c-19.9-25.6-43.8-66-44.2-113.5c-0.3-35.5,13.7-67.4,37.6-85.4c26.7-20.1,65.7-19,86.9,2.3
		c13,13,18.9,33.1,15,51.1c-3.9,18-17.5,33.8-34.6,40.4c-0.7,0.3-1.2,0.8-1.6,1.3c-1.5-8.8-2.5-17.7-2.7-26.7c0-2.1-1.6-3.9-3.9-3.8
		c-2.1,0-3.9,1.8-3.8,3.9c0.7,45.4,18.9,90.4,50,123.5c31.1,33.1,74.8,54.1,120.1,57.7c0.1,0,0.2,0,0.3,0c2,0,3.7-1.5,3.9-3.6
		c0.2-2.1-1.4-4-3.6-4.2c-5.9-0.5-11.8-1.3-17.6-2.4c6.2-25.4,31.2-45.3,57.3-45.3c0.3,0,0.6,0,0.8,0c27.3,0.5,53,22.8,57.2,49.7
		c0.7,4.4,0.7,8.9,0.3,13.4l-5.4-5.4l4.4-4.4c0.8-0.8,0.8-2,0-2.7c-0.8-0.8-2-0.8-2.7,0l-4.4,4.4l-0.9-0.9c-0.8-0.8-2-0.8-2.7,0
		c-0.8,0.8-0.8,2,0,2.7l0.9,0.9l-5.9,5.9c-0.8,0.8-0.8,2,0,2.7c0.8,0.8,2,0.8,2.7,0l5.9-5.9l6.9,6.9c0.2,0.2,0.5,0.3,0.8,0.3
		C394,410.2,381.1,430.9,361,445.7L361,445.7z"/>
	<path d="M407.2,43.7c-38.6-10.5-79.9-11.4-119.6-2.4c-24.6,5.6-41.3,13.7-54.2,38.4c-8.5,16.5-16.5,36.5-10.8,58.8
		c3.3,13.2,10.3,25.7,20.4,36.3c-10.8,13.2-17.5,18.6-18.8,24.1c-14.7,20.2-1.9,37.9,21.9,25.7c13.4-6.8,26.5-14.4,38.9-22.6
		c23.1,8.4,49.8,10.7,83.7,7.4c35.2-3.4,60.7-11.7,80.4-26c0,0,0,0,0,0c21.5-15.7,40.1-45.4,33.2-76.2
		C474.6,72.2,441.6,53.3,407.2,43.7L407.2,43.7z M368.1,201.6c-33.7,3.3-59.8,0.9-82.1-7.6c-1.2-0.5-2.5-0.3-3.5,0.4
		c-12.7,8.5-26.1,16.3-39.8,23.3c-15.8,8.1-22.8,0.3-11.6-15c0.5-0.7,0.7-1.3,0.7-2.1c0.4-2.2,7-9.2,9.4-11.8
		c3.7-3.9,2.6-2.8,10-11.8c1.3-1.6,1.2-3.8-0.3-5.2c-10.4-10.2-17.6-22.3-20.8-35.2c-5.1-19.8,2.3-38.1,10.2-53.3
		c11.5-22.1,26.1-29.2,49-34.4c38.4-8.7,78.5-7.9,115.9,2.3c46.5,12.9,64.9,36.1,69.8,57.6C481.5,138.6,463.4,192.3,368.1,201.6
		L368.1,201.6z"/>
	<path d="M273.9,96.7c-15.5,6.3-20.1,20.9-17.8,32.6c2.3,11.6,12.1,23.2,28.6,23.2h0.4c25.4-0.3,38.1-31.4,20.1-49.4
		C297.2,95.1,284.3,92.5,273.9,96.7L273.9,96.7z M263.7,127.8c-1.6-7.9,0.9-18.9,13.1-23.8c7.7-3.1,17.2-1.2,23,4.7
		c0.4,0.4,0.7,0.8,1,1.2l-5.7,5.7c-2.2-2.2-5.4,0.1-2.4,3.1c-0.1,1.2,0.8,2.1,2,2l4.6,4.6l-6,6l-2.8-2.8l3.4-3.4
		c0.8-0.8,0.8-2,0-2.7c-0.8-0.8-2-0.8-2.7,0l-3.8,3.8c-0.5,0-1.1,0.1-1.5,0.5s-0.6,0.9-0.5,1.5l-3.5,3.5l-2.8-2.8
		c-0.8-0.8-2-0.8-2.7,0c-0.8,0.8-0.8,2,0,2.7l2.8,2.8l-3.8,3.8l-3.9-3.9c-0.8-0.8-2-0.8-2.7,0c-0.8,0.8-0.8,2,0,2.7l3.9,3.9
		l-0.3,0.3C267.4,137.7,264.6,132.6,263.7,127.8L263.7,127.8z M284.7,134.2l3.1-3.1l2.8,2.8l-3.1,3.1L284.7,134.2z M277.7,143.6
		c0.1-0.1,0.2,0,0.3-0.1c0.7-0.7,0.7-1.9,0-2.6l3.8-3.8l3.2,3.2c-0.1,1.1,0.7,2.1,2,2c2.7,2.7,5-0.5,3.1-2.4l3.1-3.1l3.9,3.9
		C291.1,145,284.6,145.7,277.7,143.6L277.7,143.6z M300.1,138l-4-4c0.8-0.8,5.6-5.5,6.2-6.3c0.6,0.2,1.1,0.3,1.8-0.4
		c0.8-0.8,0.8-2,0-2.7l-6.3-6.3l5.2-5.2C307.4,120.7,307.1,130.7,300.1,138L300.1,138z"/>
	<path d="M340.2,96.7c-15.5,6.3-20.1,20.9-17.8,32.6c2.3,11.6,12.1,23.2,28.6,23.2h0.4c25.4-0.3,38.1-31.4,20.1-49.4
		C363.5,95.1,350.7,92.5,340.2,96.7z M357.3,131.7l-5.7,5.7l-3-3l6.6-6.6C354.6,129.5,355.9,130.3,357.3,131.7L357.3,131.7z
		 M354.4,140.1l5.7-5.7l4.9,4.9c-2.2,1.9-4.8,3.4-7.5,4.3C357.1,142.6,355.2,140.9,354.4,140.1z M348.9,140.1
		c-1.5,1.5-3.1,2.7-1.7,4.3c-1.3-0.2-2.5-0.5-3.7-0.9c0.2-0.7,0.2-1.4-0.4-1.9l-0.9-0.9l3.6-3.6L348.9,140.1z M351.3,144.7
		c-0.1,0-0.2,0-0.3,0c-0.5,0-0.8-0.1-1.3-0.1c0.1-0.1,0.2,0,0.3-0.1l1.6-1.6l1.7,1.7C352.7,144.6,352,144.7,351.3,144.7L351.3,144.7
		z M367.7,136.6l-4.9-4.9c2.1-2.1,6.4-5.1,4.4-7.1c-2-2-5,2.3-7.1,4.4c-1.4-1.4-2.2-2.8-3.9-2.1c2.1-2-0.8-4.7-2.6-2.9l-7.7,7.7
		c-1.5-1.5-2.8-3.2-4.4-1.6c-0.8,0.8-0.8,2,0,2.7l1.7,1.6l-3.6,3.6c-2.4-2.4-5.1-5.6-6-2c-1.8-2.6-3-5.5-3.6-8.2
		c-1.6-7.9,0.9-18.9,13.1-23.8c7.7-3.1,17.1-1.2,23,4.7c0.4,0.4,0.7,0.8,1.1,1.2l-4.2,4.2c-1.4-0.3-2.4,0.7-2.1,2.1l-3.1,3.1
		c-1.8,1.8,1,4.5,2.7,2.7l2.8-2.8l7,7c0.4,0.4,0.9,0.6,1.4,0.6c0.1,0,0.2-0.1,0.3-0.1C371.4,130.2,370.3,133.3,367.7,136.6
		L367.7,136.6z M372.1,122.6l-6.2-6.2l3.4-3.4C371,116,372,119.3,372.1,122.6z"/>
	<path d="M402.9,96.7c-15.5,6.3-20.1,20.9-17.8,32.6c2.3,11.6,12.1,23.2,28.6,23.2h0.4c25.4-0.3,38.1-31.4,20.1-49.4
		C426.3,95.1,413.4,92.5,402.9,96.7L402.9,96.7z M414.1,144.7c-4.2-0.1-7.7-1-10.6-2.5l4.7-4.7l3.5,3.5c-0.9,0.9-0.8,2.1,0,2.8
		c0.4,0.4,0.9,0.6,1.4,0.6s1-0.2,1.4-0.6l0,0l0.8,0.8c0,0,0.1,0,0.1,0C414.9,144.7,414.5,144.7,414.1,144.7L414.1,144.7z
		 M416.5,129.2l3.6,3.6l-5.5,5.5l-3.6-3.6L416.5,129.2z M418,141.8l-0.8-0.8l5.5-5.5l4.3,4.3c0,0,0,0,0,0c-2.6,2.1-5.7,3.6-9,4.4
		C418.6,143.5,418.7,142.5,418,141.8z M429.9,137.2c0,0,0-0.1-0.1-0.1l-4.3-4.3l2.2-2.2c0.8-0.8,0.8-2,0-2.7c-0.8-0.8-2-0.8-2.7,0
		l-2.2,2.2l-3.6-3.6l0.7-0.7c0.8-0.8,0.8-2,0-2.7c-0.8-0.8-2-0.8-2.7,0l-9,9c-0.8-0.7-1.9-0.7-2.6,0c-0.7,0.7-0.7,1.9,0,2.6
		l-5.3,5.3c-4.1-3.3-6.5-7.9-7.4-12.3c-1.6-7.9,0.9-18.9,13.1-23.8c7.7-3.1,17.1-1.2,23,4.7c2.3,2.3,4,5.2,5,8.3l-4.2,4.2
		c-0.7-0.4-1.6-0.4-2.2,0.2c-0.8,0.8-0.8,2,0,2.7l0.1,0.1c0,0.5,0.2,1,0.5,1.3c0.4,0.4,0.8,0.5,1.3,0.6l4.5,4.5
		c-0.1,0.3-0.2,0.7-0.3,1.1C432.6,133.6,431.4,135.5,429.9,137.2L429.9,137.2z M434.8,126l-2.3-2.3l2.3-2.3
		C434.9,122.9,434.9,124.5,434.8,126z"/>
	<path d="M389.8,394.3l-1.8,1.8l-6.7-6.7c-0.8-0.8-2-0.8-2.7,0c-0.8,0.8-0.8,2,0,2.7l6.7,6.7L374.2,410l-4.9-4.9
		c-0.8-0.8-2-0.8-2.7,0c-0.8,0.8-0.8,2,0,2.7l4.9,4.9l-2.4,2.4c-0.8,0.8-0.8,2,0,2.7c0.8,0.8,2,0.8,2.7,0l2.4-2.4l2.8,2.8
		c0.8,0.8,2,0.8,2.7,0c0.8-0.8,0.8-2,0-2.7l-2.8-2.8l11.2-11.2l0.1,0.1c0.8,0.8,2,0.8,2.7,0c0.8-0.8,0.8-2,0-2.7l-0.1-0.1l1.8-1.8
		c0.8-0.8,0.8-2,0-2.7C391.8,393.5,390.6,393.5,389.8,394.3z"/>
	<path d="M91,142c-5.2,2.7-9.9,6.3-14.1,10.5c-2.2-2.2-4.5-4.2-7.1-5.9c-0.9-0.6-2.1-0.4-2.7,0.5c-0.6,0.9-0.4,2.1,0.5,2.7
		c2.4,1.6,4.5,3.5,6.5,5.5c-4.5,5-8.2,10.7-11.2,17l-5.4-6.5c-0.7-0.8-1.9-0.9-2.7-0.2c-0.8,0.7-0.9,1.9-0.3,2.7l6.6,8
		c-2.1,5.4-3.7,10.9-4.7,17.7l-7.1-2.1c-1-0.3-2.1,0.3-2.4,1.3c-0.3,1,0.3,2.1,1.3,2.4l7.8,2.3c-0.7,7.4-0.6,15.1,0.6,22.9l-4.5-0.2
		c-1.2-0.1-2,0.8-2,1.9c0,1.1,0.8,2,1.9,2l5.3,0.2c1.2,6.8,2.7,12.5,6,21.3l-8.9,1.2c-1.1,0.1-1.8,1.1-1.7,2.2c0.1,1,1,1.8,2.2,1.7
		l9.9-1.4c1.7,4,3.5,8.1,5.7,12.2l-8.4,2.7c-1,0.3-1.6,1.4-1.3,2.4c0.3,1,1.4,1.6,2.4,1.3l9-2.9c1.1,2,2.3,4,3.5,6.1l-9.2,3.8
		c-1,0.4-1.5,1.6-1,2.6c0.4,1,1.6,1.5,2.5,1l9.7-4.1c1,1.6,1.9,3.2,2.9,4.8c0.6,0.9,1.8,1.1,2.7,0.6c0.9-0.6,1.2-1.8,0.6-2.7
		c-0.9-1.4-1.7-2.8-2.6-4.2l5.2-2.2c1-0.4,1.5-1.5,1-2.5c-0.4-1-1.6-1.5-2.5-1l-5.7,2.4c-1.2-2-2.4-4-3.4-6c0.7-0.5,1.1-1.2,0.8-2.1
		c-0.3-1-1.4-1.6-2.4-1.3l-0.1,0c-2-3.9-3.8-7.8-5.4-11.6l5.4-0.8c1.1-0.1,1.8-1.1,1.7-2.2c-0.1-1.1-1.2-1.8-2.2-1.7l-6.4,0.9
		c-4.3-11.1-4.6-14.2-5.8-20.6l5.9,0.3h0.1c1,0,1.9-0.8,1.9-1.8c0-1.1-0.8-2-1.8-2l-6.9-0.3c-1.1-7.5-1.3-14.9-0.6-22
		c0.9,0.3,2.7,0.7,3.3,1.3c0.2,0.2,0.3,0.5,0.3,0.5c-0.7,0.8-0.6,2,0.2,2.7s2,0.6,2.7-0.2c1.5-1.8,1-4.3-0.5-5.7
		c-1.5-1.5-3.7-1.9-5.7-2.5c1-7.1,2.2-10.9,3.8-15.4l2.1,2.5c0.7,0.8,1.9,0.9,2.7,0.2c0.8-0.7,0.9-1.9,0.3-2.7l-3.4-4.1
		c2.8-6.4,6.5-12.3,11-17.3c1.3,1.6,2.7,3.1,3.8,4.8c0.6,0.9,1.8,1.2,2.7,0.6c0.9-0.6,1.2-1.8,0.6-2.7c-1.3-2-2.7-3.9-4.3-5.8
		c4-4,8.5-7.3,13.3-9.9c0.9-0.5,1.3-1.7,0.8-2.6C93.1,141.8,92,141.5,91,142L91,142z"/>
</g>
</svg>
