<?xml version="1.0"?>
<svg xmlns="http://www.w3.org/2000/svg" xmlns:xlink="http://www.w3.org/1999/xlink" xmlns:svgjs="http://svgjs.com/svgjs" version="1.1" width="512" height="512" x="0" y="0" viewBox="0 0 250 250" style="enable-background:new 0 0 512 512" xml:space="preserve" class=""><g><path xmlns="http://www.w3.org/2000/svg" d="M82,101.25c1.73,3.23,3.53,6.41,5.57,9.45a98.47,98.47,0,0,0,6.61,8.76,67,67,0,0,0,7.78,7.84,47,47,0,0,0,9.29,6.26A34.13,34.13,0,0,0,122.15,137a31.17,31.17,0,0,0,11.62-.72c7.59-1.94,14.21-6.37,19.53-11.68a71.3,71.3,0,0,0,12.95-18.16A103.27,103.27,0,0,0,174,85.83a89.24,89.24,0,0,0,3.09-21.58,52.19,52.19,0,0,0-4.38-21.34,48.93,48.93,0,0,0-13.41-17.69c-.73-.59-1.51-1.13-2.26-1.69s-1.51-1.16-2.32-1.64l-2.45-1.45a20.08,20.08,0,0,0-2.51-1.33l-2.58-1.2a21.47,21.47,0,0,0-2.65-1.05A42.87,42.87,0,0,0,139,15.19a62.49,62.49,0,0,0-22.64-1.28,56.32,56.32,0,0,0-21.61,7.3A49.08,49.08,0,0,0,78.34,37.12a47.18,47.18,0,0,0-7.21,21.57,63.79,63.79,0,0,0,2.63,22.17A106.59,106.59,0,0,0,82,101.25ZM75.92,59.19a43.51,43.51,0,0,1,22-32.57,55.47,55.47,0,0,1,19.31-6.35,61.43,61.43,0,0,1,20.51.59,54.68,54.68,0,0,1,19.14,7.57,43.47,43.47,0,0,1,14.3,15.21,42.37,42.37,0,0,1,5.25,20.61,63.55,63.55,0,0,1-4,21.13,91,91,0,0,1-9.55,19.14,90.21,90.21,0,0,1-13.34,16.24c-5,4.75-10.77,8.71-17.17,10.7a28.51,28.51,0,0,1-9.89,1.3,30.78,30.78,0,0,1-10-2.22,40.63,40.63,0,0,1-9.12-5.16,56.87,56.87,0,0,1-7.85-7.2A75.07,75.07,0,0,1,83.8,100.34,85.28,85.28,0,0,1,77,80.09,63.06,63.06,0,0,1,75.92,59.19Z" fill="#707070" data-original="#000000" style=""/><path xmlns="http://www.w3.org/2000/svg" d="M237,195.64a63.32,63.32,0,0,0-.6-7.51,57.18,57.18,0,0,0-1.61-7.47,38.28,38.28,0,0,0-2.9-7.18,34.89,34.89,0,0,0-10.08-11.84,49.65,49.65,0,0,0-13.58-6.83c-9.42-3.26-19.11-4.49-27.85-7.89-4.31-1.74-8.37-4.16-11.11-7.88s-4.14-8.4-4.58-13.17a.29.29,0,0,0-.29-.27.29.29,0,0,0-.31.29,31,31,0,0,0,.64,7.35,22.38,22.38,0,0,0,2.8,7,22.78,22.78,0,0,0,5.1,5.67,33.1,33.1,0,0,0,6.46,4,92.93,92.93,0,0,0,13.91,5c4.65,1.37,9.25,2.71,13.65,4.37a46.17,46.17,0,0,1,12.08,6.51,29.66,29.66,0,0,1,8.43,10.22,43.5,43.5,0,0,1,4,13c.31,2.29.56,4.6.68,6.94.08,1.17.07,2.35.12,3.53l0,2.19c-7.81,4.44-15.77,8.65-24,12.39q-6.48,3-13.15,5.55c-2.2.9-4.47,1.62-6.72,2.42s-4.52,1.49-6.8,2.18a185.09,185.09,0,0,1-27.92,6A184.32,184.32,0,0,1,125,231.61a204.06,204.06,0,0,1-28.27-2.74,228.16,228.16,0,0,1-27.61-6.35,228.85,228.85,0,0,1-26.6-9.76c-4.32-1.9-8.6-3.91-12.85-6l-6.33-3.22-4.6-2.49,0-1.73c0-1.17,0-2.35.07-3.53.1-2.35.28-4.68.6-7A48,48,0,0,1,23,175.63,30.55,30.55,0,0,1,31,165a41.09,41.09,0,0,1,11.91-6.84,129.1,129.1,0,0,1,13.74-4.21,116.44,116.44,0,0,0,14.22-4.34A32.09,32.09,0,0,0,77.62,146a18.92,18.92,0,0,0,8-12.69,29.5,29.5,0,0,0,.24-7.44.31.31,0,0,0-.3-.28.3.3,0,0,0-.3.3c-.1,4.82-1.12,9.73-3.91,13.44s-7.09,5.88-11.55,7.35c-9.05,2.87-18.92,3.69-28.52,7a45.09,45.09,0,0,0-13.69,7.15,36.21,36.21,0,0,0-9.86,12.29c-4.69,9.49-5.49,20.09-5.45,29.9v.06a3.14,3.14,0,0,0,1.64,2.75l6.39,3.44,6.48,3.28c2.17,1.07,4.38,2.06,6.57,3.1s4.46,1.91,6.68,2.87a237.47,237.47,0,0,0,27.48,9.43A197.55,197.55,0,0,0,96,233.6a191.94,191.94,0,0,0,29,1.27,222.93,222.93,0,0,0,28.75-2.77A257.59,257.59,0,0,0,181.87,226q7-1.89,13.82-4.15T209.3,217a261.88,261.88,0,0,0,26.4-11.83,2.44,2.44,0,0,0,1.29-2.1V203l.06-3.63C237,198.13,237.09,196.89,237,195.64Z" fill="#707070" data-original="#000000" style=""/></g></svg>
