<?xml version="1.0" encoding="utf-8"?>
<!-- Generator: Adobe Illustrator 25.0.0, SVG Export Plug-In . SVG Version: 6.00 Build 0)  -->
<svg version="1.1" id="Layer_1" xmlns:svgjs="http://svgjs.com/svgjs"
	 xmlns="http://www.w3.org/2000/svg" xmlns:xlink="http://www.w3.org/1999/xlink" x="0px" y="0px" viewBox="0 0 512 512"
	 style="enable-background:new 0 0 512 512;" xml:space="preserve">
<style type="text/css">
	.st0{fill:#F64E60;}
</style>
<g>
	<path class="st0" d="M417.5,309.5c-5.9-38.5,4.2-79.4-3.7-119.1c-64.9-8.4-132.5-2-199.1-1.4c-38.9-2-80.7-4.5-119.6,1.4
		C88.8,222,93,255.4,94,289c-2.2,47.2-6,93.3,1.1,140.2c42,2.1,87.7,6.9,130.7,1.4c22.1-2.8-34-6.2-38-5.6
		c5.4-53.5-5.8-40.4,40.9-42.6c1.2,13.5,0.3,34.4,4.3,46.3c4.8-15.1-2.4-50.9,9.5-46c57.9,2.7,114.8,5,171.3-1.7
		C418.3,358.3,418.4,333.6,417.5,309.5L417.5,309.5z M182.6,369.3c0,3,0.1,6,0.2,9c-10.4-0.7-26.4-0.7-37.6-0.5
		c0.4-12.1,0-27.1-0.4-40.8c12.8,0.2,24.4,0.4,38.3-0.5C182.9,345.8,182.5,358.3,182.6,369.3L182.6,369.3z M410.5,239.1
		c1.6,14.4,3,30.5,1.1,46.4c-41.3-5.7-41.7,8-40.4-26.3c1.1-5-0.4-13.1,2.5-17.6C384.6,241.1,398.7,240.1,410.5,239.1z M366.7,241.8
		c-0.5,9.8,8.3,45.5-5,40.5c-9.5-0.3-17.6-0.5-27.7-0.6h-5.4c-1.8-0.4-3.4,1.3-2.9-2.8C322,226.3,330.8,246.6,366.7,241.8
		L366.7,241.8z M321.1,242.6c-0.6,8.8,6.8,38.9-2,39.1c-13.2-2.2-36.1,5.5-39.1-2C276.8,225.8,283.1,245.3,321.1,242.6L321.1,242.6z
		 M275.3,241.6c6.5,57,1.1,38-41.4,43c-0.1-14,2.5-29.6,2.3-44.8C248,240.1,262,241.1,275.3,241.6L275.3,241.6z M229.3,250.3
		c-1.7,9.2,7.1,31-0.7,34.4c-11.4-1.2-42.7,2.7-40.4-4.7c0.3-9.8,1.7-21.3,2.2-32.1c1.1-7.1,0.1-7.1,3.2-7.3c-3.1,5.3-3.1,3.4-3,0.2
		C208.6,242,233.1,231.5,229.3,250.3L229.3,250.3z M183.5,250.3c0.5,10,2,22,2,32.9c-12.7-0.9-29.3-0.9-43.2-0.5
		c0-12.7,2.3-26.8,2.3-40.9c12.9,0.2,24.6,0.4,38.6-0.5C183.3,244.3,183.4,247.3,183.5,250.3L183.5,250.3z M138,324.7
		c-1,0.5,2,6-2.1,5.8c-11.7,0.4-24.5,1.1-37.1,2.4c-0.4-14-2.4-30.7-2.3-46.4C152.5,292.6,139.1,277.8,138,324.7L138,324.7z
		 M137.9,250.3c0,9.2,3.1,23.7,1.6,32.5c-14.9,0.5-28.5,1.2-43,2.7c-0.2-14.4,2.5-30.7,2.3-46.4
		C117.4,243.5,141.4,234.6,137.9,250.3L137.9,250.3z M98.9,339.5c0-1.7,0-3.5-0.2-5.2c11.7,1.2,26.2,2,38.7,2.4
		c-1.2,56.8,6.5,37.2-38.3,43.7C99.7,368.4,99.4,353.1,98.9,339.5z M174.9,330.3c-8.2-0.4-20.7-0.2-29.8,0
		c-1.8-10.6-2.1-27.6-2.7-40.9c14.3,0.4,27.9,0.5,43.2-0.5c0,13.6-1.7,26.6-2.2,42C180.6,330.5,177.8,330.4,174.9,330.3L174.9,330.3
		z M190.1,324.7c1.7-7.8-7-35.5,1-36.2c12.5,1,39.2-6,40.3,1.7c-0.2,12-1.2,21.5-2,34.6c-1.3,7.7-0.3,7.6-3.2,7.7c3.1-6,3-3.6,2.9,0
		C214.7,330.6,186.5,336.8,190.1,324.7L190.1,324.7z M235.8,324.7c-0.6-11-2-24.7-2-37.3c12.9,0.3,27.6,1.3,42,2
		c-3.3,7.7,2.6,40-4.6,41.3C258.8,328.8,232.3,339.1,235.8,324.7L235.8,324.7z M282,309.5c-0.2-5.8-0.5-12.3-1.3-20.1
		c12.2,0.3,26.9,0.6,40.6,0.8c-3.6,52.1,6.8,36.8-38.8,39.9C282.6,323.2,282.3,316.4,282,309.5z M327.7,309.5
		c-0.2-5.4-0.5-12-1.2-19.3c12,0,27.3-0.3,40.6-0.9c-1.2,12-1.6,26.8-1.8,40.7C327.5,327.2,327.6,338,327.7,309.5L327.7,309.5z
		 M373.4,309.5c-0.2-5.9-0.5-12.4-1.3-20.3c11.7-0.5,26.5-1.4,39.2-2.6c-1.4,13.9-2,30.6-2,46.3C369.8,328.4,374,338.4,373.4,309.5
		L373.4,309.5z M413.3,190.8c-2.7,15.5-3.6,31.2-3,46.9c-10.9-1-24.9-2-36.7-2.5c-1-11-0.4-28-3.1-41.6
		C383.2,193.2,399.4,192.2,413.3,190.8L413.3,190.8z M368.8,193.7c-2.1,13.6-3,27.4-2.6,41.2c-12.1-0.4-25.6-0.8-38.7-0.8
		c0.3-13.2-0.5-26.4-2.5-39.5C338,194.7,354.7,194.3,368.8,193.7L368.8,193.7z M323,194.6c-1.9,13.1-2.8,26.3-2.5,39.5
		c-12.4,0.1-25,0.4-38.7,0.8c0.4-13.8-0.5-27.5-2.6-41.2C292.3,194.2,308.5,194.5,323,194.6L323,194.6z M274.3,193.6h3.1
		c-6.9,53.5,9.3,39.4-41.3,43.3c-0.1-15.1-1.1-30.2-3-45.2C245.7,192,260.2,193,274.3,193.6L274.3,193.6z M232,191.7
		c-8,45.6,9,47.2-23.4,45.2c-5.9-0.7-12.4,0.2-18.2-1.5c-0.1-14.2-1.1-28.3-2.9-42.4C201.6,192,216.8,191.3,232,191.7L232,191.7z
		 M155.1,194c9.7,0.2,20,0,31.1-0.8c-1.8,14-2.7,28.2-2.8,42.3c-10.7-0.8-27.1-0.8-38.6-0.5c-0.1-13.8-1-27.7-2.7-41.4
		C144,193.8,152.6,194,155.1,194L155.1,194z M140.4,193.7c-5.1,58.8,4.5,36.8-41.7,44c0-15.7-1.1-31.4-3.2-46.9
		C109.4,192.4,125.8,193.2,140.4,193.7L140.4,193.7z M95.6,428.8c2-15.6,3-31.2,3.5-46.8c11.5,1.2,25.1,2,37.7,2.4
		c2.9,11.2,1,29.2,3.8,42.5C126.2,427.3,110.6,428,95.6,428.8z M186,425.1c-12,0.4-32,1.3-44.2,1.7c6.8-59.6-7.6-37.4,41.2-42.6
		C183.5,397.8,184.4,411.4,186,425.1L186,425.1z M214.7,379.9c-5.1-1.8-23.1,2.7-23.7-3.5c0.4-12.7,0-25.1-0.4-38.6
		c7-6,26.9-1.5,38.4-2.9c-0.5,14-1,29.8-0.4,45.1C224,380,219.3,380,214.7,379.9L214.7,379.9z M254.4,379c-6,0.3-12,0.6-17.8,0.7
		c0.6-13.8,0.1-29.7-0.4-44.7c55.9-0.4,32.5,3.8,41.2,42.9C271.1,378,262.3,378.6,254.4,379L254.4,379z M279.1,377.8
		c1.9-13.5,3-27.1,3.3-40.8c4,0.1,7.8,0.2,11.7,0.3c8.6,0.2,17.1,0.4,25.7,0.5c0.3,13.1,1.4,26.1,3.2,39.1
		C308.9,377.1,294.4,377.4,279.1,377.8L279.1,377.8z M325,376.9c6-54-5.7-35.6,40.6-39.8c0.3,13.6,1.4,27.3,3.3,40.8
		C354.6,377.3,340.3,376.9,325,376.9L325,376.9z M370.5,377.9c6.4-55.3-5.5-37.7,38.9-43.6c0.2,15.5,1.5,31.1,3.8,46.4
		c-13.6-1.3-28.2-2.3-42.7-2.8L370.5,377.9z"/>
	<path class="st0" d="M477.1,331.7c-15.3-275.5,36.6-250.2-64.9-244c-0.8-15.7,9.8-57-18.6-51.7c-7.5,1.5-22.5-0.9-23.5,11.8
		c0,12,0.7,45.2-7,40.5c-85.5-0.9-144.7-5.2-218.9-0.3c1.9-34,7.7-68-39.8-46.3c-4.5,12.8-1,31.1-4.9,46.1
		c-23.3,1.4-63.2-12.5-64,9.6c-4.9,109.2,6.2,211.3,0.2,323c-0.8,26.3-7.3,56.4,29,55.9c87.2,0,228.7,4,288.7-6.5
		c-347.8-19.4-304,24.5-310.1-50C38,334.8,45.6,241.1,44.6,152c54.6,6.8,110,3.1,165.8,0.6c86.5,2.8,169.9,8.7,256.1-0.7
		c5.8,61.9,0.8,123.2-0.9,185.9c-4.5,151.4,19.4,121-46.2,133.6c38,4.4,58.4,7,57.4-34C478.3,398.8,478,367.5,477.1,331.7
		L477.1,331.7z M374.2,49.7c-1.6-8.5,24.9-6,26.5-0.8c-3.6,22.8,4,45.8,3.2,68.6c-5.9,4.5-18.5,3.4-26.6-0.9
		c-2.3-6.4,1.3-12.7,0.2-21.2C376.8,79.4,372.9,66.2,374.2,49.7z M106.2,49.7c-1.6-8.5,24.9-6,26.5-0.8c-3.6,22.8,4,45.8,3.2,68.6
		c-6,4.5-18.5,3.4-26.6-0.9c-2.3-6.4,1.3-12.7,0.2-21.2C108.8,79.4,104.9,66.2,106.2,49.7z M417.4,146c-67.7-4.4-135.6,0.8-204,2.9
		c-56.4-2-111.8-6.6-168.9,0.6C43.1,71,33.9,97.7,99.3,89.7c-0.2,15-4.7,39,20.7,32.3c7-1.5,15,2.2,19.5-6.4
		c4.4-10.7-2-31.1,17.1-25.3c69.2,3.6,142.2-0.5,210.8-1.1c-0.3,14.8-5.1,39.6,20.6,32.8c6.4-1.5,13.1,2,18.6-4.7
		c5.2-5,0.4-26.2,8.3-27c17.3,3.1,34.7-0.3,51.3,4.8c1.2,18-1,36.2,0.4,54.7C450.1,148,433.8,146.9,417.4,146z"/>
</g>
</svg>
