<?xml version="1.0" encoding="utf-8"?>
<!-- Generator: Adobe Illustrator 25.0.0, SVG Export Plug-In . SVG Version: 6.00 Build 0)  -->
<svg version="1.1" id="Layer_1" xmlns:svgjs="http://svgjs.com/svgjs"
	 xmlns="http://www.w3.org/2000/svg" xmlns:xlink="http://www.w3.org/1999/xlink" x="0px" y="0px" viewBox="0 0 512 512"
	 style="enable-background:new 0 0 512 512;" xml:space="preserve">
<g>
	<g>
		<path d="M31,389.9c1.3,46.2,17.5,56.3,54,55.8l323-4.1c64-0.8,79.2-20.6,79.2-69.5c0,0,0,0,0,0l-0.9-204.2
			c-0.2-29.5-7.3-46.3-38.1-47.9c0.2-23.2-7.9-26.8-20.5-26.5c-22.7,0.8-32.1,0.1-39.8,6.2c-4.9,3.9-8.5,10.6-8.4,20.3
			c-30.2,0.1-30.9,0.1-44.8,0.1c-0.2-11.9,0-37.4-18.8-48.4c-17.3-10.2-97.2-4-111.8,5c-13.8,8.5-19.1,28-12.3,42.6
			c-29.2-0.2-4,0-42.6-0.3c-0.4-17.7-3.8-25.8-20.5-25.4l-18.9,0.7c-18.1,0.6-28.6,6.6-29.4,24.4c-19.3,0.2-37.8,6.2-47.9,22.2
			C21,158.7,24,162.5,31,389.9L31,389.9z M32.4,180.5l15.3,15.3l-14.4,14.4C33.1,205.7,32.5,185,32.4,180.5z M84.9,437.9
			c-31.9,0.4-44.9-6.1-46.1-48.3l-4.9-160.2c33.6,47.8,95.8,54.7,192.5,57.3c1,9.8,3.4,18.6,11.1,25.3c-0.1,41.1,0.2,82.8,0.9,124
			L84.9,437.9z M279.6,127.5c-2,37.7-3.5,76-4.5,113.8c-7.9-1.5-20.5-1.8-29.2,0.7c0.5-37.1,1.5-75.7,2.8-114.8
			C259.4,127.4,269.7,127.5,279.6,127.5L279.6,127.5z M243.9,251.2c8.2-4.4,26-3.7,33.8-1.2c5.3,1.6,8.4,4.5,10.3,8.3l-8.8,8.8
			l-2.5-2.5c-0.8-0.8-2-0.8-2.7,0c-0.8,0.8-0.8,2,0,2.7l16.4,16.4c0.4,0.4,0.9,0.6,1.4,0.6c0,0,0.1,0,0.1,0
			c-0.2,15.6-6.2,20.5-19.8,23.9c-0.7-0.8-14.8-14.9-15.6-15.7L269,280c0.8-0.8,0.8-2,0-2.7c-0.8-0.8-2-0.8-2.7,0l-23,23
			c-0.8,0.8-0.8,2,0,2.7c0.8,0.8,2,0.8,2.7,0l7.8-7.8l14,14c-22,4.6-32.9-2.2-34.1-26.6C233.2,275.2,233.2,257.2,243.9,251.2
			L243.9,251.2z M291.8,279.7l-9.8-9.8l7.6-7.6C291.1,267.7,291.5,274.1,291.8,279.7L291.8,279.7z M245.3,316.8
			c9.2,3.4,19,1.4,28.5-1c-0.4,38-0.3,77.1,0.3,116.5c-0.4,1.1-0.3,2-0.2,3.2l-27.8,0.4C245.5,396.3,245.2,356.3,245.3,316.8
			L245.3,316.8z M407.9,433.8L302,435.2l7-7l3.2,3.2c0.8,0.8,2,0.8,2.7,0c0.8-0.8,0.8-2,0-2.7l-3.2-3.2l11.7-11.7l12.5,12.5
			c0.8,0.8,2,0.8,2.7,0c0.8-0.8,0.8-2,0-2.7l-12.5-12.5l23-23c0.8-0.8,0.8-2,0-2.7c-0.8-0.8-2-0.8-2.7,0l-23,23l-1.3-1.3
			c-0.8-0.8-2-0.8-2.7,0c-0.8,0.8-0.8,2,0,2.7l1.3,1.3L309,422.7l-7.8-7.8c-0.8-0.8-2-0.8-2.7,0c-0.8,0.8-0.8,2,0,2.7l7.8,7.8
			l-7.2,7.2c-0.7,0.7-0.7,1.9,0,2.6l-17.1,0.2c-0.7-41.3-0.9-82.3-0.4-122c11-4.4,17.4-12,18.1-26.8c26.6-0.8,53.6-2.5,80.1-5.2
			c29.7-2.9,77.3-8.5,99.1-45.9l0.3,67l-5.3,5.3l-2.9-2.9c-0.8-0.8-2-0.8-2.7,0c-0.8,0.8-0.8,2,0,2.7l2.9,2.9l-6.2,6.2
			c-0.8,0.8-0.8,2,0,2.7c0.8,0.8,2,0.8,2.7,0l6.2-6.2l5.4,5.4l0.2,53.3C479.5,414.9,469.4,433.1,407.9,433.8L407.9,433.8z
			 M479.2,313.2l-2.7-2.7l2.6-2.6L479.2,313.2z M392.7,105.7c6.1-4.8,17.9-3.9,35.2-4.5c8-0.2,12.7-0.2,12.5,18.6
			c-6,0,15.6-0.1-53.3,0.2C387.1,114.5,388.5,109,392.7,105.7L392.7,105.7z M383.9,127.7c0.2-0.1,59.8-0.1,60.1-0.1
			c28.5,0.6,34.4,11.9,34.5,40.4l0.2,50.1c-0.7,0.5-1.3,1.1-1.5,2c-11.9,39.9-58.8,49.7-98.3,53.6c-26.3,2.6-53,4.3-79.4,5.2
			c-0.9-16.4-2.4-29-16.7-35c1-38.6,2.5-77.6,4.6-116.2c0,0,0,0,0,0C290,127.6,381.3,128,383.9,127.7L383.9,127.7z M199.7,118.1
			c-6.9-11.3-2.9-28,8.4-34.9c12.5-7.7,89.6-13.3,103.8-4.9c14.5,8.5,14.8,29.1,15,41.7c-32.3-0.1-80.8-0.4-126.8-0.8
			C200,118.8,199.9,118.5,199.7,118.1L199.7,118.1z M185,126.8l-3.7,3.7l-3.7-3.7C180.1,126.8,182.5,126.8,185,126.8z M109.9,101.9
			l18.9-0.7c8.9-0.2,12,0.3,12.5,17.6c-22.5-0.1-41.5-0.3-53.3-0.3C88.6,103.6,98.8,102.3,109.9,101.9z M46,136.9l8.9,8.9
			l-10.7,10.7l-7.5-7.5c0.6-1.4,1.4-2.8,2.2-4.1C40.8,141.8,43.3,139.1,46,136.9z M35.2,153l6.3,6.3l-6.2,6.2c-0.8,0.8-0.8,2,0,2.7
			s2,0.8,2.7,0l6.2-6.2l12,12c0.8,0.8,2,0.8,2.7,0c0.8-0.8,0.8-2,0-2.7l-12-12l10.7-10.7l11.2,11.2c0.8,0.8,2,0.8,2.7,0s0.8-2,0-2.7
			l-11.2-11.2l4.2-4.2c0.8-0.8,0.8-2,0-2.7s-2-0.8-2.7,0l-4.2,4.2l-8.4-8.4c8.2-5.4,18.2-7.8,26.7-8.2c-0.2,0.1-0.4,0.1-0.6,0.2
			c-0.8,0.8-0.8,2,0,2.7l9.8,9.8l-13.1,13.1c-0.8,0.8-0.8,2,0,2.7s2,0.8,2.7,0l13.1-13.1l7.2,7.2c0.8,0.8,2,0.8,2.7,0
			c0.8-0.8,0.8-2,0-2.7l-7.2-7.2l6.9-6.9c0.8-0.8,0.8-2,0-2.7s-2-0.8-2.7,0l-6.9,6.9l-9.8-9.8c-0.2-0.2-0.5-0.2-0.7-0.3
			c6.9-0.2,53.9,0.1,60.8,0.1c-0.1,0.1-0.3,0-0.3,0.1c-0.8,0.8-0.8,2,0,2.7l10.5,10.5l-1.3,1.3c-0.8,0.8-0.8,2,0,2.7s2,0.8,2.7,0
			l1.7-1.7c0.5,0,0.9-0.2,1.3-0.5c0.3-0.3,0.5-0.8,0.5-1.3l7.8-7.8c0.8-0.8,0.8-2,0-2.7s-2-0.8-2.7,0l-7.4,7.4l-10.5-10.5
			c-0.1-0.1-0.2-0.1-0.3-0.1c6.7,0,25.5,0.2,31.8,0.2v0l6.5,6.5l-4.6,4.5c-0.8,0.8-0.8,2,0,2.7c0.8,0.8,2,0.8,2.7,0l4.5-4.6l3.9,3.9
			c0.8,0.8,2,0.8,2.7,0s0.8-2,0-2.7l-3.9-3.9l4-4c0.7-0.7,0.7-1.7,0.1-2.4c17.4,0.1,35.3,0.3,52.9,0.4c-1.4,40.4-2.4,80.3-2.9,118.6
			c-10.7,7.7-12.5,23.4-12.4,33c-96.5-2.6-163.4-9.2-191.9-64.3c0.3-0.1,0.6-0.1,0.8-0.3l16-16c0.6,0.2,1.1,0.3,1.8-0.4
			c0.5-0.5,0.5-1.2,0.4-1.8l7.6-7.6c0.8-0.8,0.8-2,0-2.7s-2-0.8-2.7,0l-7.3,7.3L34,176.6c-0.5-0.5-1.1-0.5-1.7-0.4
			C32.3,168.4,32.8,160.3,35.2,153L35.2,153z"/>
		<path d="M473.9,380.9c-0.3-0.3-0.8-0.5-1.2-0.5l-11.9-11.9l3.1-3.1c0.8-0.8,0.8-2,0-2.7c-0.8-0.8-2-0.8-2.7,0l-3.1,3.1l-9.5-9.5
			c-0.8-0.8-2-0.8-2.7,0c-0.8,0.8-0.8,2,0,2.7l9.5,9.5L436,387.8l-14-14l14.1-14.1c0.8-0.8,0.8-2,0-2.7c-0.8-0.8-2-0.8-2.7,0
			l-29.6,29.6l-3.9-3.9c-0.8-0.8-2-0.8-2.7,0c-0.8,0.8-0.8,2,0,2.7l3.9,3.9l-13.4,13.4l-8.1-8.1l14.7-14.6c0.8-0.8,0.8-2,0-2.7
			c-0.8-0.8-2-0.8-2.7,0l-14.7,14.6l-8.5-8.5c-0.8-0.8-2-0.8-2.7,0c-0.8,0.8-0.8,2,0,2.7l8.5,8.5l-15.7,15.7l-12.4-12.4
			c-0.8-0.8-2-0.8-2.7,0c-0.8,0.8-0.8,2,0,2.7l12.4,12.4L342.5,426c-0.8,0.8-0.8,2,0,2.7c0.8,0.8,2,0.8,2.7,0l13.1-13.1l8.1,8.1
			l-0.3,0.3c-0.8,0.8-0.8,2,0,2.7c0.8,0.8,2,0.8,2.7,0l0.3-0.3l0.9,0.9c0.8,0.8,2,0.8,2.7,0c0.8-0.8,0.8-2,0-2.7l-0.9-0.9l15.7-15.7
			l14,14l-0.6,0.6c-0.8,0.8-0.8,2,0,2.7c0.8,0.8,2,0.8,2.7,0l0.6-0.6l0.6,0.6c0.8,0.8,2,0.8,2.7,0c0.8-0.8,0.8-2,0-2.7l-0.6-0.6
			l13.4-13.4l18.9,18.9c0.8,0.8,2,0.8,2.7,0c0.8-0.8,0.8-2,0-2.7l-4.8-4.8l12.7-12.7l5.3,5.3c0.8,0.8,2,0.8,2.7,0
			c0.8-0.8,0.8-2,0-2.7l-5.3-5.3l20.2-20.2c0.8-0.3,1.3-0.6,1.3-1.8C474.4,382.1,474.4,381.4,473.9,380.9z M419.2,376.5l14,14
			l-12.7,12.7l-14-14L419.2,376.5z M369.2,421l-8.1-8.1l15.7-15.7l8.1,8.1L369.2,421z M404.4,419.4l-14-14l13.4-13.4l14,14
			L404.4,419.4z M434.7,417.4L423.3,406l12.7-12.7l11.4,11.4L434.7,417.4z M438.7,390.5l19.3-19.3l11.4,11.4l-19.3,19.3L438.7,390.5
			z"/>
		<path d="M476.5,332.9c-0.8-0.8-2-0.8-2.7,0l-6.9,6.9l-5.9-5.9c-0.8-0.8-2-0.8-2.7,0c-0.8,0.8-0.8,2,0,2.7l5.9,5.9l-8.5,8.5
			c-0.8,0.8-0.8,2,0,2.7c0.8,0.8,2,0.8,2.7,0l8.5-8.5l4.5,4.5c0.8,0.8,2,0.8,2.7,0c0.8-0.8,0.8-2,0-2.7l-4.6-4.5l6.9-6.9
			C477.3,334.9,477.3,333.7,476.5,332.9L476.5,332.9z"/>
		<path d="M107.7,152.4l13.1-13.1l5.9,5.9c0.8,0.8,2,0.8,2.7,0s0.8-2,0-2.7l-5.9-5.9l4.4-4.4c0.8-0.8,0.8-2,0-2.7
			c-0.8-0.8-2-0.8-2.7,0l-4.4,4.4L115,128c-0.8-0.8-2-0.8-2.7,0c-0.8,0.8-0.8,2,0,2.7l5.9,5.9L105,149.7c-0.8,0.8-0.8,2,0,2.7
			S107,153.2,107.7,152.4z"/>
		<path d="M338.4,205.7l3.9-3.9l7.4,7.4l-7.3,7.3c-0.8,0.8-0.8,2,0,2.7c0.8,0.8,2,0.8,2.7,0l7.3-7.3l17.4,17.4c0.8,0.8,2,0.8,2.7,0
			c0.8-0.8,0.8-2,0-2.7l-17.4-17.4l13.1-13.1l6.7,6.7c0.8,0.8,2,0.8,2.7,0c0.8-0.8,0.8-2,0-2.7l-6.7-6.7l12.7-12.7l7.1,7.1
			c0.8,0.8,2,0.8,2.7,0c0.8-0.8,0.8-2,0-2.7l-17.2-17.2l9.9-9.9c0.8-0.8,0.8-2,0-2.7c-0.8-0.8-2-0.8-2.7,0l-9.9,9.9l-5.4-5.4
			c-0.8-0.8-2-0.8-2.7,0c-0.8,0.8-0.8,2,0,2.7l5.4,5.4l-12.7,12.7l-9.2-9.2c-0.8-0.8-2-0.8-2.7,0c-0.8,0.8-0.8,2,0,2.7l9.2,9.2
			L335.7,203c-0.8,0.8-0.8,2,0,2.7C336.4,206.5,337.7,206.5,338.4,205.7L338.4,205.7z M373.7,170.5l7.4,7.4l-12.7,12.7l-7.4-7.4
			L373.7,170.5z M365.6,193.3l-13.1,13.1l-7.4-7.4l13.1-13.1L365.6,193.3z"/>
		<path d="M267.3,283.9c-0.8,0.8-0.8,2,0,2.7l5.8,5.9l-6.8,6.8c-0.8,0.8-0.8,2,0,2.7c0.4,0.4,0.9,0.6,1.4,0.6s1-0.2,1.4-0.6l6.8-6.8
			l3.3,3.3c0.8,0.8,2,0.8,2.7,0c0.8-0.8,0.8-2,0-2.7l-3.3-3.3l4.9-4.9c0.8-0.8,0.8-2,0-2.7c-0.8-0.8-2-0.8-2.7,0l-4.9,4.9l-5.8-5.9
			C269.3,283.1,268,283.1,267.3,283.9L267.3,283.9z"/>
		<path d="M149.3,345.6l8.7-8.7c0.8-0.8,0.8-2,0-2.7c-0.8-0.8-2-0.8-2.7,0l-8.7,8.7l-13.4-13.4l10.2-10.2c0.8-0.8,0.8-2,0-2.7
			c-0.8-0.8-2-0.8-2.7,0l-10.2,10.2l-2.3-2.3c-0.8-0.8-2-0.8-2.7,0c-0.8,0.8-0.8,2,0,2.7l2.3,2.3l-8.2,8.2l-1.6-1.6
			c-0.8-0.8-2-0.8-2.7,0c-0.8,0.8-0.8,2,0,2.7l1.6,1.6l-11.1,11.1c-0.8,0.8-0.8,2,0,2.7c0.8,0.8,2,0.8,2.7,0l11.1-11.1l13.4,13.4
			l-14.7,14.7l-5.7-5.7l8.7-8.7c0.8-0.8,0.8-2,0-2.7c-0.8-0.8-2-0.8-2.7,0l-8.7,8.7l-19-19c-0.8-0.8-2-0.8-2.7,0
			c-0.8,0.8-0.8,2,0,2.7l19,19l-8.4,8.4c-0.8,0.8-0.8,2,0,2.7c0.8,0.8,2,0.8,2.7,0l8.4-8.4l5.7,5.7l-12.6,12.6c-0.8,0.8-0.8,2,0,2.7
			c0.8,0.8,2,0.8,2.7,0l12.6-12.6l16.3,16.3c0.8,0.8,2,0.8,2.7,0c0.8-0.8,0.8-2,0-2.7L121,373.9l14.7-14.7l8.1,8.1l-10.1,10.1
			c-0.8,0.8-0.8,2,0,2.7c0.8,0.8,2,0.8,2.7,0l10.1-10.1l8.1,8.1c0.8,0.8,2,0.8,2.7,0c0.8-0.8,0.8-2,0-2.7l-8.1-8.1l7.9-7.9
			c0.1-0.1,0.1-0.3,0.2-0.4l12.8,12.8c0.8,0.8,2,0.8,2.7,0c0.8-0.8,0.8-2,0-2.7L149.3,345.6z M122.3,340.4l8.2-8.2l13.4,13.4
			l-8.2,8.2L122.3,340.4z M154.4,356.7l-7.9,7.9l-8.1-8.1l8.2-8.2l8.2,8.2C154.7,356.6,154.5,356.6,154.4,356.7L154.4,356.7z"/>
	</g>
</g>
</svg>
