<?xml version="1.0" encoding="utf-8"?>
<!-- Generator: Adobe Illustrator 25.0.0, SVG Export Plug-In . SVG Version: 6.00 Build 0)  -->
<svg version="1.1" id="Layer_1" xmlns:svgjs="http://svgjs.com/svgjs"
	 xmlns="http://www.w3.org/2000/svg" xmlns:xlink="http://www.w3.org/1999/xlink" x="0px" y="0px" viewBox="0 0 512 512"
	 style="enable-background:new 0 0 512 512;" xml:space="preserve">
<style type="text/css">
	.st0{fill:#F64E60;}
</style>
<g>
	<g>
		<path class="st0" d="M463.2,70.1c-2.6-43.7-16.6-58.1-65.8-58.7L135.7,7.8C76.2,7.1,57.6,23.1,55.1,79.6
			c-1.1,24.1-1,77.1-1.2,135.7c-0.6,0.7-0.6,1.7,0,2.4c-0.1,33-0.3,67.3-0.9,98.5c-0.9,0.9-0.9,2.1,0,2.9
			c-0.5,27.2-1.5,76.2-5.8,102.6c-2,12.4-4.1,25.3-2.3,38C47.1,475.8,56,489,68.4,495c13.7,6.6,1.6,4.6,335.5,9.2
			c35.1,0.5,50.1-9.6,53.9-51.6C469,326.6,470.8,197.9,463.2,70.1L463.2,70.1z M441.7,406.4l-0.2-0.2c2-4.3,3.9-8.7,5.7-13.2l4,4
			L441.7,406.4C441.8,406.4,441.8,406.4,441.7,406.4L441.7,406.4z M378.3,483.1c3.4-23.2-9.7-55-30.5-75.4
			c40.5-2.6,78.3-22,104-52.8C437.4,406.5,413.6,448,378.3,483.1z M382,496.1l-5.8-0.1c1.8-1.7,3.6-3.4,5.4-5.1l2.8,2.8L382,496.1z
			 M384.3,488.2c2.6-2.6,5.2-5.3,7.7-8l2.9,2.9l-7.8,7.8L384.3,488.2z M394.7,477.4c2-2.3,4-4.6,6-6.9l3.5,3.5l-6.4,6.4L394.7,477.4
			z M455.4,379c-0.3-0.1-0.6-0.2-1-0.1l-1.4-1.4c1-3,2-6.1,3-9.2C455.8,371.9,455.6,375.4,455.4,379z M454.4,394.8l-5.6-5.6
			c0.1-0.3,0.2-0.6,0.4-0.9c0.8,0.5,4.3-3.5,4.9-4.1l0.9,0.9C454.8,388.2,454.6,391.5,454.4,394.8z M253.1,17.2l-3.9,3.9l-4-4
			L253.1,17.2z M204,18.3l-1.9-1.9l4.4,0.1c-0.4,0-0.9,0.2-1.2,0.5L204,18.3z M182.9,16.2l-4.8,4.8l-4.9-4.9L182.9,16.2z
			 M141.6,15.6l21.6,0.3c-0.5,0-1,0.2-1.3,0.6l-9.7,9.7L141.6,15.6z M135.6,15.6l0.5,0l3.7,3.7l-11.9,11.9l-6.4-6.4l0.9-0.9
			c0.8-0.8,0.8-2,0-2.7c-0.8-0.8-2-0.8-2.7,0l-0.9,0.9l-5.9-5.9C120.3,15.5,128,15.5,135.6,15.6z M108,16.8l8.1,8.1l-11.6,11.6
			L89.7,21.6C95.2,19.2,101.4,17.7,108,16.8z M63.6,84.3c0.8,0.8,2,0.8,2.7,0l7.2-7.2l7.3,7.3L66.6,98.6l-2.4-2.4
			c-0.5-0.5-1.2-0.6-1.9-0.4c0.1-6.1,0.3-11.5,0.5-15.8c0.2-4.3,0.4-8.6,0.8-12.8l7.1,7.1l-7.2,7.2C62.9,82.3,62.9,83.5,63.6,84.3z
			 M52.1,451.9l5.7,5.7l-4.6,4.6C52.4,458.2,52.2,456.6,52.1,451.9z M53.4,432.4l0.1,0.1l-0.2,0.2C53.3,432.7,53.3,432.6,53.4,432.4
			z M57,405.7l2,2l-2.5,2.5C56.7,408.8,56.9,407.3,57,405.7z M58.9,378.6l3,3l-3.4,3.4C58.6,382.9,58.8,380.9,58.9,378.6z
			 M59.8,355.2c0.2-5.2,0.3-10.6,0.5-16.1l2.7-2.7l7.8,7.8L59.8,355.2z M60.5,328.4c0.1-4.7,0.2-9.6,0.3-14.5l2-2l9.6,9.6l-9.4,9.4
			L60.5,328.4z M61,304.5C61,304.5,61,304.5,61,304.5c0-3.9,0.1-7.8,0.1-11.7l6-6l7.6,7.6l-11.9,11.9L61,304.5z M61.2,287.3
			c0-2.1,0-4.2,0.1-6.4l3.1,3.1L61.2,287.3z M61.5,251.2l2.5,2.5l-2.6,2.6C61.5,254.6,61.5,252.9,61.5,251.2z M61.6,225.2l5.8,5.8
			l-5.9,5.9C61.6,233,61.6,229.1,61.6,225.2L61.6,225.2z M61.7,193.9l6.8,6.8l-6.8,6.8C61.7,202.9,61.7,198.4,61.7,193.9z
			 M61.8,162.5l8.1,8.1l-8.2,8.2C61.8,173.3,61.8,167.8,61.8,162.5z M61.9,134l10.7,10.7l-10.8,10.8C61.9,148,61.9,140.9,61.9,134
			L61.9,134z M62,127.1c0-6.6,0.1-12.9,0.2-18.6l4.5-4.5l9.2,9.2L62,127.1z M62.2,102.9c0-1.1,0-2.2,0.1-3.2l1.6,1.6L62.2,102.9z
			 M64.3,62.3c0.1-0.8,0.2-1.6,0.3-2.3c0.2-0.1,0.5-0.1,0.7-0.3l10.2-10.2l10.1,10.1L73.6,71.6L64.3,62.3z M65.7,53.7
			c0.8-3.8,1.9-7.4,3.4-10.8l3.7,3.7L65.7,53.7z M54.4,466.4c0.1-0.1,0.2,0,0.2-0.1l6-6l1.4,1.4c0.8,0.8,2,0.8,2.7,0
			c0.8-0.8,0.8-2,0-2.7l-1.4-1.4L75,445.8c0.8-0.8,0.8-2,0-2.7c-0.8-0.8-2-0.8-2.7,0l-11.8,11.8l-8.4-8.4c0.1-2.5,0.2-4.9,0.5-7.4
			l3.7-3.7l4.4,4.4c0.8,0.8,2,0.8,2.7,0c0.8-0.8,0.8-2,0-2.7l-4.4-4.4l13.5-13.5c0.8-0.8,0.8-2,0-2.7c-0.8-0.8-2-0.8-2.7,0
			l-13.4,13.5l-2.2-2.2c1.7-11,1.4-8.8,1.7-11.2l6-6l4.1,4.1c0.8,0.8,2,0.8,2.7,0c0.8-0.8,0.8-2,0-2.7l-4.1-4.1l12-12
			c0.8-0.8,0.8-2,0-2.7c-0.8-0.8-2-0.8-2.7,0l-12,12l-4.3-4.3c0.2-3.1,0.5-6.3,0.7-9.8l6.5-6.5l7,7c0.8,0.8,2,0.8,2.7,0
			c0.8-0.8,0.8-2,0-2.7l-7-7l8.8-8.8c0.8-0.8,0.8-2,0-2.7c-0.8-0.8-2-0.8-2.7,0l-8.8,8.8l-5.5-5.5c0.2-4,0.4-8.2,0.5-12.5l0.2-0.2
			c1,1,6.1,6.5,7.3,6.5c0.5,0,1-0.2,1.4-0.6c0.8-0.8,0.8-2,0-2.7l-6-6l15-15c0.8-0.8,0.8-2,0-2.7c-0.8-0.8-2-0.8-2.7,0l-1.2,1.2
			l-7.8-7.8l22.1-22.1c0.8-0.8,0.8-2,0-2.7c-0.8-0.8-2-0.8-2.7,0l-10,10l-9.6-9.6l24-24c0.8-0.8,0.8-2,0-2.7c-0.8-0.8-2-0.8-2.7,0
			l-9.4,9.4l-7.6-7.6l22.8-22.8c0.8-0.8,0.8-2,0-2.7c-0.8-0.8-2-0.8-2.7,0l-22.8,22.8l-5.8-5.8c0-4.5,0.1-9.1,0.1-13.7l5.3-5.4l4,4
			c0.8,0.8,2,0.8,2.7,0c0.8-0.8,0.8-2,0-2.7l-4-4l18.1-18.1c0.8-0.8,0.8-2,0-2.7s-2-0.8-2.7,0L66.8,251l-5.3-5.3c0-1.1,0-2.2,0-3.3
			l8.6-8.6l0.6,0.6c0.8,0.8,2,0.8,2.7,0s0.8-2,0-2.7l-0.6-0.6l16.7-16.7c0.8-0.8,0.8-2,0-2.7s-2-0.8-2.7,0l-16.7,16.7l-8.5-8.5
			c0-2.3,0-4.5,0-6.8l9.6-9.6l4.1,4.1c0.8,0.8,2,0.8,2.7,0s0.8-2,0-2.7l-4.1-4.1l18.4-18.4c0.8-0.8,0.8-2,0-2.7s-2-0.8-2.7,0
			l-18.4,18.4l-9.5-9.5c0-0.1,0-4,0-4.1l10.9-10.9l6.4,6.4c0.8,0.8,2,0.8,2.7,0s0.8-2,0-2.7l-6.4-6.4l11.7-11.7c0.8-0.8,0.8-2,0-2.7
			s-2-0.8-2.7,0l-11.7,11.7l-8.9-8.9l11.6-11.6l3.8,3.8c0.8,0.8,2,0.8,2.7,0c0.8-0.8,0.8-2,0-2.7l-3.8-3.8l4.5-4.5
			c0.8-0.8,0.8-2,0-2.7c-0.8-0.8-2-0.8-2.7,0l-4.5,4.5L64,130.6L78.6,116l5.9,5.9c0.8,0.8,2,0.8,2.7,0c0.8-0.8,0.8-2,0-2.7l-5.9-5.9
			l7.6-7.6c0.8-0.8,0.8-2,0-2.7s-2-0.8-2.7,0l-7.6,7.6l-9.2-9.2l14.2-14.2l2.2,2.2c0.8,0.8,2,0.8,2.7,0c0.8-0.8,0.8-2,0-2.7
			l-2.2-2.2l3.8-3.8c0.8-0.8,0.8-2,0-2.7s-2-0.8-2.7,0l-3.8,3.8l-7.3-7.3l12.4-12.4c0.7,0.1,1.1,0,1.6-0.5c0.4-0.4,0.5-1,0.5-1.6
			l9.5-9.5c0.8-0.8,0.8-2,0-2.7s-2-0.8-2.7,0l-9.2,9.2L78.3,46.6l13.4-13.4c0.8-0.8,0.8-2,0-2.7c-0.8-0.8-2-0.8-2.7,0L75.5,43.9
			l-4.8-4.8c4.1-7.7,9-12,15.3-15.6l15.6,15.6l-4.1,4.1c-0.8,0.8-0.8,2,0,2.7c0.8,0.8,2,0.8,2.7,0l4.1-4.1l11.9,11.9
			c0.8,0.8,2,0.8,2.7,0c0.8-0.8,0.8-2,0-2.7l-11.9-11.9l11.6-11.6l6.4,6.4l-4,4c-0.8,0.8-0.8,2,0,2.7c0.8,0.8,2,0.8,2.7,0l4-4l1,1
			c0.8,0.8,2,0.8,2.7,0s0.8-2,0-2.7l-1-1L142.6,22l6.9,6.9l-2.2,2.2c-0.8,0.8-0.8,2,0,2.7c0.8,0.8,2,0.8,2.7,0l2.2-2.2l5.6,5.6
			c0.8,0.8,2,0.8,2.7,0s0.8-2,0-2.7l-5.6-5.6l9.7-9.7c0.8-0.8,0.8-2,0-2.7c-0.4-0.4-0.8-0.5-1.3-0.6l4.3,0.1l7.8,7.8l-4.5,4.5
			c-0.8,0.8-0.8,2,0,2.7c0.8,0.8,2,0.8,2.7,0l4.5-4.5l3.1,3.1c0.8,0.8,2,0.8,2.7,0s0.8-2,0-2.7l-3.1-3.1l7.5-7.5l8.2,0.1l4.7,4.7
			l-7.2,7.2c-0.8,0.8-0.8,2,0,2.7s2,0.8,2.7,0l7.2-7.2l8.8,8.8c0.8,0.8,2,0.8,2.7,0c0.8-0.8,0.8-2,0-2.7l-8.8-8.8l1.3-1.3
			c0.8-0.8,0.8-2,0-2.7c-0.3-0.3-0.8-0.5-1.2-0.5l18.7,0.3l1.6,1.6l-9.9,9.9c-0.8,0.8-0.8,2,0,2.7s2,0.8,2.7,0l9.9-9.9l4.5,4.5
			c0.8,0.8,2,0.8,2.7,0c0.8-0.8,0.8-2,0-2.7l-5.7-5.7c-0.1-0.1,0-0.2-0.1-0.2c-0.1-0.1-0.2,0-0.2-0.1l9.1,0.1
			c0.1,0.3,0.1,0.6,0.3,0.8l6,6l-2.7,2.7c-0.8,0.8-0.8,2,0,2.7s2,0.8,2.7,0l2.7-2.7l1.2,1.2c0.8,0.8,2,0.8,2.7,0s0.8-2,0-2.7
			l-1.2-1.2l6.2-6.2c0.1-0.1,0.1-0.2,0.1-0.3l4.9,0.1l1.3,1.3l-5.1,5.1c-0.8,0.8-0.8,2,0,2.7c0.8,0.8,2,0.8,2.7,0l5.1-5.1l2,2
			c0.8,0.8,2,0.8,2.7,0c0.8-0.8,0.8-2,0-2.7l-2-2l1.2-1.2l126,1.7c45.8,0.6,55.8,12.6,58.2,51.4c5.3,87.6,6,175.7,2.3,263
			c-0.1,0.1-0.2,0.2-0.2,0.3c0,0-0.1,0.1-0.1,0.1c-23.2,37.9-64.3,64.7-119.4,66.2c-3.6,0-5.3,4.6-2.4,6.9
			c30.7,24.7,44.8,71.4,29.1,88.8l-265.3-3.7C82.9,492,62.5,492,54.4,466.4L54.4,466.4z M404,496.4l-11.6-0.2l-2.5-2.5l7.8-7.8
			l1.5,1.5c0.8,0.8,2,0.8,2.7,0c0.8-0.8,0.8-2,0-2.7l-1.5-1.5l6.4-6.4l1.6,1.6c0.8,0.8,2,0.8,2.7,0c0.8-0.8,0.8-2,0-2.7l-1.9-1.9
			c0.1-0.6-0.1-1.1-0.5-1.6c-0.4-0.4-1-0.6-1.6-0.5l-3.9-3.9c0,0-0.1,0-0.2-0.1c2.9-3.5,5.7-7.2,8.5-10.8l1.5,1.5l-5.2,5.2
			c-0.8,0.8-0.8,2,0,2.7c0.8,0.8,2,0.8,2.7,0l5.2-5.2l1.8,1.8c0.8,0.8,2,0.8,2.7,0c0.8-0.8,0.8-2,0-2.7l-1.8-1.8l10.3-10.3
			c0.8-0.8,0.8-2,0-2.7c-0.8-0.8-2-0.8-2.7,0l-10.3,10.3l-1.9-1.9c3.7-5.2,7.3-10.4,10.7-15.9l8.5,8.5c0.8,0.8,2,0.8,2.7,0
			c0.8-0.8,0.8-2,0-2.7l-9.1-9.1c2.4-3.9,4.7-7.9,6.8-12l2.3,2.3l-7.4,7.4c-0.8,0.8-0.8,2,0,2.7c0.8,0.8,2,0.8,2.7,0l7.4-7.4
			l3.3,3.3c0.8,0.8,2,0.8,2.7,0c0.8-0.8,0.8-2,0-2.7l-3.3-3.3l2.4-2.4c0.8-0.8,0.8-2,0-2.7c-0.8-0.8-2-0.8-2.7,0l-2.4,2.4l-3.1-3.1
			c1.5-2.9,2.9-5.9,4.4-8.8l5.4,5.4c0.8,0.8,2,0.8,2.7,0c0.8-0.8,0.8-2,0-2.7l-3.5-3.5c0,0,0,0,0.1,0l9.6-9.6
			c-1.2,17.5-2.5,35-4.1,52.4C446.5,491.7,433,496.9,404,496.4L404,496.4z"/>
		<path class="st0" d="M344.2,125.3c2.1,0,3.9-1.7,3.9-3.8c0-2.1-1.7-3.9-3.8-3.9l-202.7-2.2c-2.3-0.3-3.9,1.7-3.9,3.8
			c0,2.1,1.7,3.9,3.8,3.9L344.2,125.3L344.2,125.3z"/>
		<path class="st0" d="M383,203.6c-0.1-2.1-1.9-3.9-4-3.7l-233.8,8c-2.1,0.1-3.8,1.9-3.7,4c0.1,2.1,1.8,3.7,3.9,3.7c0,0,0.1,0,0.1,0
			l233.8-8C381.4,207.6,383,205.8,383,203.6z"/>
		<path class="st0" d="M385.3,275.1c-0.3-2.1-2.3-3.6-4.4-3.2c-72,11.1-145.5,16.1-218.4,14.7c-2.3,0-3.9,1.7-3.9,3.8
			c0,2.1,1.7,3.9,3.8,3.9c7.9,0.1,15.8,0.2,23.7,0.2c65.5,0,131.3-5,196-15C384.2,279.2,385.7,277.2,385.3,275.1L385.3,275.1z"/>
	</g>
</g>
</svg>
