<?xml version="1.0" encoding="utf-8"?>
<!-- Generator: Adobe Illustrator 25.0.0, SVG Export Plug-In . SVG Version: 6.00 Build 0)  -->
<svg version="1.1" id="Layer_1" xmlns:svgjs="http://svgjs.com/svgjs"
	 xmlns="http://www.w3.org/2000/svg" xmlns:xlink="http://www.w3.org/1999/xlink" x="0px" y="0px" viewBox="0 0 512 512"
	 style="enable-background:new 0 0 512 512;" xml:space="preserve">
<style type="text/css">
	.st0{fill:#F64E60;}
</style>
<g>
	<g>
		<g>
			<path class="st0" d="M485.2,258.3c14.3-16.3,19.3-40.8,19-79.4c-0.6-59.2-20.9-69.8-63.2-70.3c-9-0.1-32.8-0.3-57.5-0.5
				c-0.1-9.5-7-19.4-16.9-23.8c0.2-3.9,0.1-3.6-0.3-16.9c-0.7-23.1-1.1-37.8-29.8-37.8h-0.9c-30.1,0-54.6,0.9-74.6,1
				c-89,0.2-90.7,0.6-101.1,8c-15.7,11.2-15.5,28.5-12.6,46c-9,4-15.9,11.9-17.6,22.2c-24.8-0.2-35.9,0.4-49.4,0.4
				c-15.3,0-31.5-0.2-45.7,6.9C17.7,122.5,9.2,137.5,11,156c0.9,9.2-0.2,18.1-1.4,27.6c-0.9,7.5-1.9,15.2-1.8,23.3
				c0.2,20.1,6.2,37.9,16.8,50.2c1.6,1.9,3.5,3.7,5.5,5.6c-0.1,1.4-0.1,2.9-0.2,4.4c-12.5,212.8-44.9,214,197.5,214
				c269.5-0.2,266.7,22.1,264.9-120.7C491.5,296.8,491.2,278.1,485.2,258.3L485.2,258.3z M484.1,428.3l-9.1-9.1l7.7-7.7l2.4,2.4
				C484.9,419.3,484.6,424,484.1,428.3L484.1,428.3z M393.4,283.3c-0.1-1.2-3.5-4.2-4.4-5.1l9.6-9.6l11,11c0.4,0.4,0.9,0.6,1.4,0.6
				c1.7,0,2.6-2.1,1.4-3.3l-11-11l12.4-12.4l8.6,8.6L412,272.5c-0.8,0.8-0.8,2,0,2.7c0.8,0.8,2,0.8,2.7,0l10.5-10.5
				c0.9,0.9,8.2,8.7,9.5,8.7c1.7,0,2.6-2.1,1.4-3.3L428,262l10.5-10.5c0.9,0.9,9.7,10.2,11,10.2c1.7,0,2.6-2.1,1.4-3.3l-9.6-9.6
				l13.4-13.4l11.5,11.5l-20.9,20.9c-0.8,0.8-0.8,2,0,2.7c0.8,0.8,2,0.8,2.7,0l20.9-20.9c1.9,1.9,4.9,5.9,6.8,4c0.8-0.8,0.8-2,0-2.7
				l-4-4l9.1-9.1c0.9,0.9,4.5,4.9,5.7,5C476.1,263.2,457.6,273.1,393.4,283.3L393.4,283.3z M307.3,292.6l10.7-10.7
				c1,1,7.5,7.9,8.7,7.9c1.7,0,2.6-2.1,1.4-3.3l-7.4-7.4l6.8-6.8c0.7,0.7,8.4,8.4,9.1,9.1l-5.3,5.3c-1.8,1.8,0.9,4.6,2.7,2.7
				l5.3-5.3c0.9,0.9,4.7,5.1,5.9,5.1c1.7,0,2.6-2.1,1.4-3.3l-4.6-4.6l6.3-6.3l9.6,9.6c-1.2,1.2-2.2,2-1.1,3.5
				C336.8,290.6,328.8,291.3,307.3,292.6L307.3,292.6z M283.7,336.9c-1.3,1.7-2.7,3.2-4.2,4.6c-1.1,1-3,2.5-4.9,3.7
				c-0.5,0.3-0.9,0.6-1.4,0.9c-1.8,1-3.7,2-5.8,2.8c-2.3,0.9-4.7,1.5-7,2c-1.2,0.2-2.4,0.4-3.6,0.5c-1,0.1-2.1,0.2-3.1,0.3
				c-1.1,0-2.2,0-3.4-0.1c12.4-12.4,9.2-9.2,15.1-15.1l4.9,4.9c-1.8,1.8-4.8,3.9-2.9,5.7c0.4,0.4,0.9,0.6,1.4,0.6
				c0.5,0,1-0.2,1.4-0.6l3.1-3.1c1.8,0.7,2.9-0.7,2.3-2.3l6.2-6.2c1.9,1.5,4-0.8,2.6-2.6c2.7-2.7-0.1-5.4-2.7-2.8l-10-10
				c-1.8-1.8-4.6,0.9-2.7,2.7l2.4,2.4l-5.9,5.9c-0.9-0.9-6-6.4-7.2-6.5c0-0.5-0.2-0.9-0.5-1.3c-0.8-0.8-2-0.8-2.7,0l-10.6,10.6
				l-1.7-1.7c-0.8-0.8-2-0.8-2.7,0c-0.8,0.8-0.8,2,0,2.7l1.7,1.7l-5.1,5.1l-7-7c-0.8-0.8-2-0.8-2.7,0c-0.8,0.8-0.8,2,0,2.7l7,7
				l-1.7,1.7c-7.4-4.3-13.5-11.1-17.2-19.4c-0.1-0.3-0.3-0.6-0.4-0.9c-0.9-2.1-1.7-4.3-2.2-6.5c-0.1-0.5-0.2-1-0.4-1.5
				c-0.4-1.6-0.6-3-0.8-4.7c-0.2-1.5-0.3-4.3-0.3-4.3h0.9c-0.1-7.8,1.8-7.8,1.8-11.4c0,0,0,0,0,0c0,0-0.9,0-0.9,0
				c8.4-47.4,67.1-74.7,78-22.7c-0.6-0.1-1.2,0-1.6,0.5l-5.5,5.5c-2-2-4.8,0.7-2.7,2.7l-0.7,0.7c-1.2,1.2-0.3,3.3,1.4,3.3
				c0.9,0,1.4-0.6,2-1.2l4.1,4.1l-5.8,5.8c-1.9-1-3.5,0.9-2.4,2.6c-1.1,1.6,0.4,3.6,2.4,2.6l4.5,4.5l-4.6,4.6l-2.9-2.9
				c-1.8-1.8-4.6,0.9-2.7,2.7l2.9,2.9c-1.7,1.7-4.2,3.4-2.4,5.2c0.8,0.8,2,0.8,2.7,0l2.4-2.4c0.9,0.9,4.4,4.8,5.7,4.8
				c1.7,0,2.6-2.1,1.4-3.3l-4.3-4.3l5.1-5.1c1.3-0.1,1.8-1.1,1.6-2.2c0.2-1.1-0.3-1.9-1.5-2.1l-4.9-4.9l5.9-5.9
				c1.1,0.3,1.6,0.3,2.1-1c0.1,1.2-0.8,2.4-0.8,3.6c0,0.6-0.9,1.2-0.9,1.8c0,17.3-1.2,30.1-7.8,39.1
				C283,336.6,283.9,336.8,283.7,336.9L283.7,336.9z M239.2,344.5l5.1-5.1l6.4,6.4c-1.9,1.9-4.7,3.8-3.3,5.7
				c-4.1-0.5-8.1-1.6-11.8-3.3l0.9-0.9C239.3,350.1,242.1,347.4,239.2,344.5L239.2,344.5z M256.4,327.3c0.5,1,5.4,5.7,6.2,6.5
				l-9.2,9.2l-6.4-6.4L256.4,327.3z M278.9,332.9l-5.9,5.9l-4.9-4.9l5.9-5.9L278.9,332.9z M193,292l8.4-8.4l4.4,4.4
				c-0.5,1.5-1,3.1-1.4,4.6C201.6,292.6,197,292.3,193,292L193,292z M168.9,290.1l6.3-6.3l7.4,7.4
				C178.8,291,171.9,290.4,168.9,290.1L168.9,290.1z M82.5,276.7c0.5-1.7-1-2.6-2.4-4l4.9-4.9l7.6,7.6l-3,3
				C81.5,276.5,85,277.3,82.5,276.7L82.5,276.7z M67.8,265.7c0.6,0.9,6.1,6.3,6.8,7.1l-1.5,1.5c-1.4-0.4-3.7-1.1-5.1-1.5
				c-0.4-1-2.6-3-3.5-3.8L67.8,265.7z M94.3,279.4l1.2-1.2l1.8,1.8C96.6,279.8,94.6,279.4,94.3,279.4z M103,270.6l8.6,8.6l-2.9,2.9
				c-3.6-0.6,1.3,0.3-7.1-1.3c0.9-1.9-1.7-3.7-3.5-5.4L103,270.6z M122.7,273.7c0.6,0.9,6.2,6.5,7,7.3l-4,4c-0.9-0.1-2-0.3-3.6-0.5
				c-0.6-0.8-4.2-4.4-5-5.1L122.7,273.7z M115.7,283.4c-0.8-0.1-1.5-0.3-2.3-0.4l1-1L115.7,283.4z M130.5,285.6l2-2l2.6,2.6
				C131.5,285.8,134.2,286.2,130.5,285.6L130.5,285.6z M143.3,275.4l7.3,7.3l-4.8,4.8c-6-0.7-0.3,0-5.4-0.7c0-1.3-4.2-5.1-5.2-6l8-8
				C142.6,273.7,142.6,274.8,143.3,275.4L143.3,275.4z M150.7,288.2l2.7-2.7l3.4,3.4C155,288.7,152.4,288.4,150.7,288.2L150.7,288.2
				z M188.7,270.3c0.2,1.2,9.1,9.7,10,10.6l-10.5,10.5l-10.3-10.3L188.7,270.3z M225.2,246.8c0.3,1.1,4,4.6,4.8,5.4
				c-2.3,1.9-3.5,3-5.7,5.2l-4.9-4.9L225.2,246.8z M207.2,284l-3-3l9.2-9.2C211.1,275.4,208.7,280,207.2,284z M286.1,283.4l5-5
				c0.3,1.8,0.6,2.8,1.3,11.5C291.9,289.1,286.9,284.2,286.1,283.4L286.1,283.4z M383.6,278.2c-2.7,2.7-6.7,6-2.9,7
				c-6.7,1-13.5,1.9-20.3,2.8l16.5-16.5L383.6,278.2z M379.6,268.7l9.6-9.6l6.7,6.7l-9.6,9.6L379.6,268.7z M382,284.9
				c0.9-0.5,3.5-3.3,4.3-4l3,3C386.9,284.3,384.4,284.6,382,284.9L382,284.9z M466.5,223.5L478,235l-9.1,9.1l-11.5-11.5L466.5,223.5
				z M496.5,180.3c0,3,0,6-0.1,8.8l-4.4-4.4L496.5,180.3z M375.7,108.1c-45.7-0.3-49.5-0.4-57.2-0.5
				C322.6,82.5,374.8,81.5,375.7,108.1z M154.7,82.2c-1.7-9.8-4.2-27,9.7-36.9c8.2-5.9,10-6.7,96.6-6.9c20,0,44.5-1,74.7-1h0.9
				c19.8,0,22.7,2.8,22.5,44.1c-0.4-0.1-0.8,0-1.2,0c-1.7-0.3-3.4-0.4-5.2-0.5c-1-0.1-1.9-0.2-3-0.2c-0.3,0-0.5,1.3-0.8,1.3
				c-2.8,0-5.5,2-8.1,2c0,0,0,0,0,0c-2.7-15.5-11.2-15.9-23.8-16.7c-37.5-2.6-76-3.7-114-1.9c-19.8,1-23.9,8-25.7,16.5
				C169.3,80.3,160.4,80.8,154.7,82.2L154.7,82.2z M152.8,91.8L152.8,91.8c2,0,5-2.1,6.9-2.4c3-0.5,6-0.8,6.8-0.8
				c8.1-0.2,18.3,2.3,23.8,8.5c2.4,2.7,3.7,5.9,3.9,9.6c-19-0.1-37.9,0.2-56.9,0C139.1,99,145.3,91.8,152.8,91.8L152.8,91.8z
				 M184.5,84.1c1.1-6.3,2.5-10.8,18.7-11.6c37.7-1.8,75.9-1.4,113.1,1.2c11.8,0.8,15.4,3.2,16.7,9.4c-11.8,3.8-20.8,11.7-22.3,24.5
				c-23.5-0.1-66.5-0.5-108.8-0.8C201.5,95.7,194.6,88.2,184.5,84.1z M15.5,206.8c-0.1-7.6,0.9-15.1,1.8-22.4
				c1.2-9.5,2.4-19.4,1.5-29.5c-1.6-15.4,5.3-27.7,19.2-34.6c20.9-10.3,12.2-6.8,403-3.9c35.8,0.4,53.5,6.4,55.3,56.4l-6.2-6.2l2-2
				c0.8-0.8,0.8-2,0-2.7c-0.8-0.8-2-0.8-2.7,0l-2,2l-4.3-4.3c-0.8-0.8-2-0.8-2.7,0c-0.8,0.8-0.8,2,0,2.7l4.3,4.3l-5.3,5.3
				c-0.8,0.8-0.8,2,0,2.7c0.4,0.4,0.9,0.6,1.4,0.6c0.5,0,1-0.2,1.4-0.6l5.3-5.3c0.8,0.8,6.5,6.5,7.3,7.2c-0.8,0.6-4.7,4.6-5.4,5.3
				l-4.3-4.3c-0.8-0.8-2-0.8-2.7,0c-0.8,0.8-0.8,2,0,2.7l4.3,4.3l-5.3,5.3c-0.8,0.8-0.8,2,0,2.7c0.4,0.4,0.9,0.6,1.4,0.6
				c0.5,0,1-0.2,1.4-0.6l5.3-5.3l5.3,5.3c0.4,0.4,0.9,0.6,1.4,0.6c0.1,0,0.2-0.1,0.3-0.1c-0.2,5.4-0.5,10.3-1,15
				c-0.5-0.9-4.4-4.6-5.2-5.4l2.5-2.5c0.8-0.8,0.8-2,0-2.7c-0.8-0.8-2-0.8-2.7,0l-2.5,2.5l-7.2-7.2c-0.8-0.8-2-0.8-2.7,0
				c-0.8,0.8-0.8,2,0,2.7l7.2,7.2l-7.2,7.2c-1.9-1.9-4.6,0.8-2.7,2.7l-2.9,2.9c-0.8,0.8-0.8,2,0,2.7c0.4,0.4,0.9,0.6,1.4,0.6
				c0.5,0,1-0.2,1.4-0.6l2.9-2.9l10.6,10.6c0.4,0.4,0.9,0.6,1.4,0.6c0.5,0,1-0.2,1.4-0.6c0.8-0.8,0.8-2,0-2.7l-10.6-10.6l7.2-7.2
				l5,5c0.4,0.4,0.9,0.6,1.4,0.6c0.5,0,0.9-0.2,1.3-0.5c-1.3,11.7-3.6,21.3-7,29.1c-0.7-0.8-3.8-3.8-4.6-4.6l2.5-2.5
				c0.8-0.8,0.8-2,0-2.7c-0.8-0.8-2-0.8-2.7,0l-2.5,2.5l-11.8-11.8c0.1-0.6,0-1.2-0.4-1.7c-0.8-0.8-2-0.8-2.7,0l-11.1,11.1
				c-1.2-1.2-2.4-2.4-3.7-1s-0.2,2.5,1,3.7L438.5,246l-6.7-6.7c-1.8-1.8-4.6,0.9-2.7,2.7l6.7,6.7l-10.5,10.5l-8.6-8.6l13.9-13.9
				c0.8-0.8,0.8-2,0-2.7c-0.8-0.8-2-0.8-2.7,0l-13.9,13.9c-1.6-1.6-3.1-3.6-4.7-1.9s0.3,3.1,1.9,4.7l-12.4,12.4l-6.7-6.7l6.9-6.9
				c1.8-1.8-0.9-4.6-2.7-2.7l-6.9,6.9c-1.2-1.2-2.4-2.4-3.7-1s-0.2,2.5,1,3.7l-9.6,9.6l-7.6-7.6c-1.8-1.8-4.6,0.9-2.7,2.7l7.6,7.6
				l-13.4,13.4l-9.6-9.6l16.7-16.7c1.8-1.8-0.9-4.6-2.7-2.7l-17,17c-1.2-0.1-2.1,0.8-2,2l-6.6,6.6c-0.7-0.7-8.4-8.4-9.1-9.1
				l10.2-10.2c1.8-1.8-0.9-4.6-2.7-2.7L318,276.4c-2.2-2.2-5.5-6.8-7.5-4.8c-0.8,0.8-0.8,2,0,2.7l4.8,4.8c-1,1-13,12.4-12.9,13.8
				c-0.5,0-1,0.1-1.8,0.1c-1-22.1-5.2-43.3-24.8-51.7c-1-0.4-2.1-0.7-3.1-1c-3.1-1-6.4-1.6-10-1.6c-9.8,0-20.1,3.9-29.5,10.9
				c-0.8-0.8-4.6-4.8-5.7-5.2l10.1-10.1c0.8-0.8,0.8-2,0-2.7s-2-0.8-2.7,0l-18.4,18.4c-1.2-0.1-2.1,0.8-2,2l-3.8,3.8
				c-1.2,1.2-0.3,3.3,1.4,3.3c1.2,0,3.9-3.1,4.8-4l5,5c-1.8,2-3.5,4.2-5.1,6.4l-10-10c-1.8-1.8-4.6,0.9-2.7,2.7l8.2,8.2l-10.6,10.6
				c-0.9-0.9-9.4-9.8-10.6-10l5.1-5.1c1.8-1.8-0.9-4.6-2.7-2.7l-18,18l-5.7-5.7c-0.8-0.8-2-0.8-2.7,0c-0.8,0.8-0.8,2,0,2.7l5.7,5.7
				l-8.5,8.5c-1.3-0.1-1.4-0.1-3-0.3c0.3-0.7,0.3-1.5-0.3-2l-4.5-4.5l23.3-23.3c1.8-1.8-0.9-4.6-2.7-2.7L153.3,280l-7.3-7.3
				c-0.7-0.7-1.8-0.7-2.5-0.1l9-9c0.8-0.8,0.8-2,0-2.7s-2-0.8-2.7,0l-17.4,17.4c-0.8-0.8-6.3-6.4-7.3-7l9.3-9.3
				c1.8-1.8-0.9-4.6-2.7-2.7l-17.4,17.4l-8.6-8.6c2.1-2.1,6-4.8,4.1-6.8c-0.8-0.8-2-0.8-2.7,0l-11.6,11.6l-7.6-7.6l4.3-4.3
				c0.8-0.8,0.8-2,0-2.7c-0.8-0.8-2-0.8-2.7,0l-12,12c-0.8-0.8-6.2-6.3-7.1-6.8l1.9-1.9c0.8-0.8,0.8-2,0-2.7c-0.8-0.8-2-0.8-2.7,0
				l-7.7,7.7l-4.2-4.2c-0.8-0.8-2-0.8-2.7,0c-0.8,0.8-0.8,2,0,2.7l4.2,4.2l-0.6,0.6c-11-4.1-20.6-8.7-28-17.4
				C21,241.1,15.7,225,15.5,206.8L15.5,206.8z M267.8,473.4l4.2-4.2l4,4c0.1,0.1,0.3,0.1,0.4,0.2L267.8,473.4z M293,471.9
				c5.1-3.8,0.2,1,8.8-7.5l7.1,7.2l-0.8,0C307.9,472,293.5,471.9,293,471.9z M345.3,465.6l8.7-8.7l8.9,8.9l-7.6,7.6
				c-6.1,0-12,0-17.7-0.1l5-5l3.7,3.7c0.8,0.8,2,0.8,2.7,0C350.8,470.1,347.3,467.6,345.3,465.6L345.3,465.6z M389.1,447.3l8.1,8.1
				l-9.4,9.4l-9.3-9.3l10.3-10.3C388.6,446,388.6,446.7,389.1,447.3L389.1,447.3z M385.1,467.6l-6,6c-1.4,0-2.8,0-4.2,0
				c0.1-0.6,0-1.2-0.5-1.6l-6.1-6.1l7.5-7.5L385.1,467.6z M387.8,470.3l3.4,3.4c-2.2,0-4.5,0-6.7,0L387.8,470.3z M370.5,473.5
				c-3.3,0-6.6,0-9.9-0.1l4.9-4.9L370.5,473.5z M320.8,465.3l8.1,8.1c-5.6,0-11,0-16.2,0L320.8,465.3z M395,473.7
				c0.2-0.7,0.2-1.4-0.3-2l-4.1-4.1l9.4-9.4l9.6,9.6l-2.7,2.7c-1.2,1.2-0.3,3.3,1.4,3.3c1.2,0,3.1-2.3,4.1-3.3l3.3,3.3
				C409.7,473.9,420.1,473.9,395,473.7L395,473.7z M452.2,430.6l10.4,10.4l-9.6,9.6l-10.4-10.4L452.2,430.6z M450.3,453.4L438.7,465
				l-10.4-10.4l11.6-11.6L450.3,453.4z M445,471.3l-3.5-3.5l11.6-11.6l9.4,9.4C457.6,468.1,451.8,470,445,471.3z M440.3,472.1
				c-1.2,0.2-2.5,0.3-3.7,0.5l2.1-2.1L440.3,472.1z M436,467.8c-1.8,1.8-4.3,3.4-2.8,5.3c-3.8,0.4-7.8,0.6-12.1,0.7l-6-6l10.4-10.4
				L436,467.8z M412.4,465l-9.6-9.6l10.4-10.4l9.6,9.6L412.4,465z M465.8,463.5l-10-10l9.6-9.6c0.9,0.9,8.2,8.7,9.5,8.7
				c1.7,0,2.6-2.1,1.4-3.3l-8.1-8.1l9.1-9.1c0.8-0.8,0.8-2,0-2.7c-0.8-0.8-2-0.8-2.7,0l-9.1,9.1c-0.9-0.9-10.8-11.2-12-11.3
				c-0.9-1.1-2.1-0.9-2.8-0.2l-10.7,10.7l-8.9-8.9c-0.8-0.8-2-0.8-2.7,0c-0.8,0.8-0.8,2,0,2.7l8.9,8.9l-11.6,11.6l-9.6-9.6l8.2-8.2
				c1.8-1.8-0.9-4.6-2.7-2.7l-8.2,8.2c-1.7-1.7-3.4-4-5.1-2.3s0.6,3.4,2.3,5.1L400,452.6l-8.1-8.1c-0.5-0.5-1.3-0.6-2-0.3l7.9-7.9
				c0.8-0.8,0.8-2,0-2.7c-0.8-0.8-2-0.8-2.7,0l-19.3,19.3L371,448c-1.8-1.8-4.6,0.9-2.7,2.7l4.8,4.8l-7.5,7.5l-8.9-8.9l14.6-14.6
				c0.8-0.8,0.8-2,0-2.7c-0.8-0.8-2-0.8-2.7,0l-14.6,14.6l-0.7-0.8c-1.8-1.8-4.6,0.9-2.7,2.7l0.8,0.8l-8.7,8.7l-7.9-7.9
				c-0.8-0.8-2-0.8-2.7,0c-0.8,0.8-0.8,2,0,2.7l7.9,7.9l-7.3,7.3c0.2-0.7,0.2-1.4-0.3-1.9l-8.5-8.5l19.9-19.9c0.8-0.8,0.8-2,0-2.7
				c-0.8-0.8-2-0.8-2.7,0l-19.9,19.9l-2.9-2.9c-1.8-1.8-4.6,0.9-2.7,2.7l2.9,2.9l-6.4,6.4l-7.1-7.1l12.9-12.9c0.8-0.8,0.8-2,0-2.7
				c-0.8-0.8-2-0.8-2.7,0L301.8,459l-1.3-1.3c-1.8-1.8-4.6,0.9-2.7,2.7l1.3,1.3l-4.4,4.4l-8.1-8.1c-0.8-0.8-2-0.8-2.7,0
				c-0.8,0.8-0.8,2,0,2.7l8.1,8.1l-3.9,3.1c0,0,1-0.2-9.7-0.2c0.1,0,0.3,0.7,0.4,0.6c0.8-0.8,0.8-1.6,0-2.4l-4-3.9l18.3-18.3
				c1.8-1.8-0.9-4.5-2.7-2.7L272,463.7l-1.7-1.7c-0.8-0.8-2-0.8-2.7,0c-0.8,0.8-0.8,2,0,2.7l1.7,1.7l-6.4,6.4
				c-0.2,0.2-0.2,0.4-0.2,0.6l-35.3,0C42.6,473.4,26,468.7,30,396.8l7.5-128.4c35.1,21.7,124.7,29.8,165.6,32.1
				c-7.6,72.1,98.4,85.4,97.6,0.3c39.9-2.1,147-10.5,178.2-36c4.5,17.5,4.7,37.6,5.4,95.7c0.2,13.6,0.5,26.8,0.5,44.8
				c0-0.3-1.3-0.4-2.3,0.7c-2.1-2.1-4.8-6-6.7-4c-2,2,2,4.7,4.1,6.8l-7.7,7.7c-2.1-2.1-4.8,0.7-2.7,2.7l-6.4,6.4
				c-1.2,1.2-0.3,3.3,1.4,3.3c0.5,0,1-0.2,1.4-0.6l6.4-6.4l11.2,11.2C481.1,446.3,476.6,456.4,465.8,463.5L465.8,463.5z"/>
		</g>
		<g>
			<path class="st0" d="M250.2,263.1l-3.9-4.3c-1.8-1.9-4.6,0.7-2.9,2.6l3.2,3.6c-3.3,2-6.4,4.4-9.2,7.1c-2.4-1.8-5.8-5.4-7.4-3.1
				c-1.6,2.2,2.4,4.3,4.7,6c-1.5,1.8-3,3.7-4.3,5.6l-4.2-2.3c-2.2-1.2-4.1,2.1-1.9,3.4l4.1,2.3c-2.2,4.1-8.3,18.9-3.7,19.4
				c1.1,0.1,2-0.7,2.1-1.7c0.6-5.6,2.4-10.9,4.9-15.8c0.7,0.4,3.2,2,4,2c2,0,2.7-2.7,1-3.6l-3-1.7c1.2-1.8,2.5-3.6,4-5.2
				c3.3,2.5,5.1-1,2.7-2.8c2.6-2.5,5.5-4.7,8.7-6.5c3.3,3.6,5.5,0.3,3.7-1.8c3.3-1.5,6.8-2.7,10.5-3.4c1.1-0.2,1.8-1.2,1.6-2.2
				C264.4,256.8,253.6,261.4,250.2,263.1L250.2,263.1z"/>
		</g>
		<g>
			<path class="st0" d="M33.3,160.1l7,2.8c-0.3,3.7-0.1,7.5,0.4,11.3l-3.7-0.2c-1.2-0.2-2,0.8-2,1.8c0,1.1,0.8,2,1.8,2l4.4,0.2
				c0.4,2.4,0.8,4.7,1.3,7c0.2,0.9,1,1.5,1.9,1.5c0.1,0,0.3,0,0.4,0c1-0.2,1.7-1.3,1.5-2.3c-0.4-1.9-0.8-4.7-1.1-6.8l7.4-0.4h0.1
				c1,0,1.9,0,1.9-1.1c0-1.1-0.8-1.6-1.9-1.6l-8.2-0.2c-0.4-3.4-0.7-6.6-0.5-9.9l1.8,0.8c0.2,0.1,0.5,0.2,0.7,0.2
				c0.8,0,1.5-0.4,1.8-1.2c0.4-1-0.1-2.1-1.1-2.5l-2.9-1.1c0.7-4.9,2.5-9.4,5.9-12.7c0.4-0.4,0.9-0.6,1.4-1c1.8,1.9,3.8,3.7,5.9,5.3
				c0.3,0.3,0.8,0.4,1.2,0.4c0.6,0,1.2-0.3,1.6-0.8c0.6-0.9,0.5-2.1-0.4-2.7c-1.7-1.3-3.2-2.9-4.8-4.4c3.9-1.9,8.5-2.6,13.4-3.1
				l2,3.5c0.4,0.6,1,1,1.7,1c0.3,0,0.7-0.1,1-0.3c0.9-0.5,1.3-1.7,0.7-2.6l-1.1-2c9.1-0.7,18.2-1.2,27.3-1.7l1.1,3.3
				c0.3,0.8,1,1.3,1.8,1.3c0.2,0,0.4,0,0.6-0.1c1-0.3,1.6-1.4,1.2-2.5l-0.7-2.2c4.5-0.2,9-0.4,13.4-0.6l2.1,4
				c1.2,2.3,4.6,0.4,3.4-1.8l-1.2-2.2c8.2-0.2,16.4-0.3,24.7-0.3c0.9,1.5,2.7,5.3,4.4,5.3c1.6,0,2.5-1.9,1.5-3.1
				c-0.5-0.7-0.9-1.4-1.3-2.1c5.1,0,10.2,0,15.3,0.1l3.4,5.7c0.4,0.6,1,0.9,1.7,0.9c1.5,0,2.4-1.6,1.7-2.9l-2.1-3.6
				c6.4,0.2,12.8,0.4,19.1,0.6c0.8,1.5,2.9,5.7,4.6,5.7c1.6,0,2.5-1.9,1.5-3.1c-0.6-0.7-1.1-1.5-1.6-2.3c4.3,0.2,8.6,0.4,12.9,0.7
				c0.6,2.3,1.1,6.6,3.3,6.6c1.3,0,2.2-1.2,1.9-2.4l-1-3.9c5.9,0.4,11.9,0.9,17.8,1.4c0.2,2.6-0.1,12,2.5,12c1.3,0,2-2,1.9-3.2
				l-0.6-8c8,0.7,16,1.3,24,2.2c1,0.1,2-0.8,2.1-1.8c0.1-1.1-0.6-2.1-1.7-2.2c-8.2-0.9-16.5-1.8-24.7-2.5l-0.3-4.5
				c-0.2-2.6-4.1-2.3-3.9,0.3l0.3,3.9c-6.2-0.5-12.4-1-18.6-1.4c-0.6-2.3-0.9-4.9-3.2-4.3c-2,0.6-1.4,2.3-0.9,4.1
				c-4.6-0.3-9.2-0.5-13.8-0.8c-0.8-2-1.3-4-1.5-6.1c-0.3-2.5-4.2-2.1-3.9,0.4c0.2,1.9,0.7,3.7,1.2,5.4c-6.6-0.3-13.3-0.5-19.9-0.6
				c-1.4-2.3-2.5-5.3-4.7-4c-0.9,0.6-1.2,1.7-0.7,2.7l0.8,1.2c-5.1-0.1-10.2-0.1-15.4-0.1c-1-2-1.8-4.2-2.3-6.3
				c-0.3-1-1.3-1.7-2.4-1.4c-1,0.3-1.7,1.3-1.4,2.4c0.5,1.9,1.2,3.6,2,5.4c-8.3,0-16.5,0.1-24.8,0.3c-1.3-2.5-2.7-6.6-5.1-5.3
				c-0.9,0.5-1.3,1.7-0.8,2.6l1.5,2.8c-4.2,0.1-8.5,0.3-12.7,0.5l-2.7-8.2c-0.3-1-1.4-1.6-2.5-1.2c-1,0.3-1.6,1.4-1.2,2.5l2.4,7.1
				c-9.5,0.5-18.6,1-28.2,1.7l-3.3-5.8c-0.5-0.9-1.7-1.3-2.6-0.7c-0.9,0.5-1.3,1.7-0.7,2.6l2.4,4.3c-4.9,0.6-9.8,1.6-14.1,3.9
				c-1.7-2.1-3.3-4.2-4.6-6.5c-0.5-0.9-1.7-1.2-2.6-0.7c-0.9,0.5-1.3,1.7-0.7,2.6c1.4,2.4,3,4.6,4.7,6.8c-0.5,0.4-1,0.7-1.4,1.2
				c-3.9,3.8-6,8.6-6.9,14l-6-2.4c-1-0.4-2.1,0.1-2.5,1.1C31.8,158.6,32.3,159.7,33.3,160.1L33.3,160.1z"/>
		</g>
		<g>
			<path class="st0" d="M144.8,445.7l-10.6-1.2l2.5-3.6c1.5-2.1-1.7-4.3-3.2-2.2l-3.7,5.3l-11.6-1.3c1.4-2.6,4.5-6.7,2-8
				c-1-0.5-2.1-0.1-2.6,0.8l-3.5,6.7l-12.6-1.4l1.9-3.1c1.3-2.1-1.9-4.2-3.3-2.1l-2.9,4.7c-3.8-0.4-6.2-0.6-9.8-1.3
				c1.9-2.5,6.3-6.4,4-8.2c-0.8-0.7-2.1-0.5-2.7,0.3l-5.5,7c-6-1.5-10.5-3.6-13.8-6.2l7.1-5.6c2-1.6-0.4-4.6-2.4-3l-7.5,6
				c-4-4.7-5.4-10.5-5.7-17c2.5-1.8,7.4-4.3,5.7-6.6c-1.5-2-3.7,0.3-5.7,1.8c0.1-4.9,0.6-10.3,0.8-15.5l7.8-3.2
				c2.4-1,0.9-4.6-1.5-3.6l-6.2,2.5c0-3.4,0.3-12.6-3-12c-1.1,0.2-1.8,1.2-1.6,2.2c0.6,3.6,0.7,7.5,0.6,11.4c-2.8,1.2-8.2,2.4-7.1,5
				c1,2.5,4.4,0.3,7-0.8c-0.3,5.6-0.8,11.2-0.8,16.8l-7.9,5.8c-2.1,1.5,0.2,4.6,2.3,3.1l5.8-4.3c0.5,6.2,2.2,12,6.3,16.7
				c-2.4,1.9-7.2,4.5-5.4,6.8c1.8,2.2,5.7-2.1,8.1-4c3.4,2.9,8,5.3,14.3,7c-1.5,1.9-3.7,3.9-1.8,5.4c2.1,1.7,4.2-2.2,5.9-4.4
				c4.3,0.9,6.3,1.1,10.2,1.5c-1.4,2.3-3.9,5-1.7,6.4c2.4,1.5,4.4-3.4,6-5.9l12.9,1.4c-1.3,2.5-3.9,5.8-1.6,7.1
				c2.6,1.3,4.3-3.9,5.7-6.6l11,1.2c-1.5,2.1-3.7,4.3-1.6,5.7c2.3,1.6,4.3-2.8,6-5.2c13.6,1.5,13,1.4,13,1.4c1,0,1.8-0.7,1.9-1.7
				C146.6,446.8,145.9,445.9,144.8,445.7L144.8,445.7z"/>
		</g>
	</g>
</g>
</svg>
