<?xml version="1.0"?>
<svg xmlns="http://www.w3.org/2000/svg" xmlns:xlink="http://www.w3.org/1999/xlink" xmlns:svgjs="http://svgjs.com/svgjs" version="1.1" width="512" height="512" x="0" y="0" viewBox="0 0 66 66" style="enable-background:new 0 0 512 512" xml:space="preserve" class=""><g><g xmlns="http://www.w3.org/2000/svg"><path d="m62.248 25.136c-5.887-6.052-10.724-11.003-17.448-17.911-6.335-6.536-10.198-7.499-17.47-2.376-8.938 6.255-17.094 13.637-24.243 21.939-4.379 5.089-1.043 8.332 2.283 7.175.783-.289 1.446-.755 2.084-1.258 0 20.062 0 15.288-.001 23.455-.02 4.185.53 8.264 6.301 8.264h37.161c7.251 0 9.261.313 9.261-7.096 0-17.694.12-23.726.12-23.726 2.197.297 4.045-.93 4.268-1.822 1.323-2.453-.567-4.851-2.316-6.644zm-41.374-3.991.027.027c-.106.106-1.889 1.853-1.93 1.997l-.167-.167c1.001-.895-.19.183 2.07-1.857zm.372-.335c.057-.052.113-.102.17-.153l-.162.162zm-7.045 6.65-.224-.224c.622-.534 1.609-1.393 2.157-1.872l.854.854-2.015 2.015-.419-.419.031-.031c.226-.225-.091-.616-.384-.323zm-5.747 4.419c.112-.093.218-.182.33-.275l.636.637-.966.966zm.716-.596c.405-.336 1.936-1.611 1.974-1.643l.439.439-1.809 1.809zm2.358-1.966c.449-.378 1.91-1.623 2.067-1.757l.253.253-1.912 1.912zm19.993 13.272.196-.196c.098-.098.098-.256 0-.354-.024-.024-.058-.024-.088-.036.541.021 1.082.042 1.623.058l-1.13 1.13zm-.158-.55-.196.196-.258-.258c.124.005.248.008.372.013.061.002.122.004.184.007-.035.012-.073.014-.102.042zm-.965.134.416.416-.832.832-1.49-1.49c.198-.012.399-.023.621-.016.409.011.818.028 1.227.043-.012.077-.001.155.058.215zm-2.531-.161.678.678c-.043.01-.089.017-.122.051l-1.14 1.14-.924-.924c.33-.575.838-.812 1.508-.945zm-1.683 12.869c.098.098.256.098.354 0l.548-.548.712.713c.008.008.02.005.028.012l-.972.972-.58-.58c-.069-.069-.164-.072-.251-.042v-2.136l.708.709-.548.548c-.096.096-.096.254.001.352zm-.16 6.818.511.511-.511.511zm0-2.765.28.28-.28.28zm0-.707v-.69c.017-.01.039-.007.053-.022l.778-.778.963.963-1.161 1.161zm0-1.366v-.956l.478.478zm0-6.355.247.247-.247.247zm.004 12.917.86-.86.427.427c.098.098.256.098.353 0 .098-.098.098-.256 0-.354l-.427-.427 1.673-1.674c.098-.098.098-.256 0-.354s-.256-.098-.354 0l-1.673 1.674-.864-.864v-1c.026.009.047.031.074.031.064 0 .128-.024.177-.073l.383-.383.739.739c.098.098.256.098.354 0s.098-.256 0-.354l-.739-.739 1.389-1.389c.098-.098.098-.256 0-.354-.048-.048-.112-.072-.175-.073l-1.016-1.016 1.221-1.222c.098-.098.098-.256 0-.354-.069-.069-.162-.071-.249-.043-.012-.024-.01-.052-.03-.072l-.712-.713 1.72-1.72c.098-.098.098-.256 0-.353-.098-.098-.256-.098-.354 0l-1.72 1.72-1.009-1.009c-.015-.015-.036-.012-.053-.022v-.888l.601-.601.618.618c.098.098.256.098.354 0s.098-.256 0-.354l-.618-.618 1.034-1.034c.098-.098.098-.256 0-.354s-.256-.098-.354 0l-1.034 1.039-.601-.601c0-2.684.014-2.385-.032-3.276l.608.608-.481.481c-.158.158-.044.427.177.427.064 0 .128-.024.177-.073l.481-.481 1.213 1.213c.098.098.256.098.353 0 .098-.098.098-.256 0-.354l-1.212-1.213.99-.99c.098-.098.098-.256 0-.354s-.256-.098-.354 0l-.99.99-.995-.995c-.033-.8-.023-1.647.189-2.33l.781.781-.876.876c-.098.098-.098.256 0 .354s.256.098.354 0l.876-.876 1.182 1.182c.098.098.256.098.354 0s.098-.256 0-.354l-1.182-1.182 1.14-1.14c.034-.034.04-.079.051-.122l.802.802-.745.745c-.098.098-.098.256 0 .354s.256.098.354 0l.745-.745.186.186c.098.098.256.098.353 0 .098-.098.098-.256 0-.354l-.186-.186.832-.832 1.542 1.542c.098.098.256.098.354 0s.098-.256 0-.354l-.587-.587 1.325-1.325.897.897-.548.547c-.098.098-.098.256 0 .354s.256.098.354 0l.547-.547.716.716c.098.098.256.098.354 0s.098-.256 0-.354l-.716-.716 1.018-1.017h.094c.002.003.001.007.004.009l.877.877-.284.284c-.098.098-.098.256 0 .354s.256.098.354 0l.284-.284.449.449c.098.098.256.098.354 0s.098-.256 0-.354l-.449-.449.733-.733.7.7-.317.317c-.098.098-.098.256 0 .354s.256.098.353 0l.317-.317.492.492c.098.098.256.098.354 0s.098-.256 0-.354l-.492-.492c.099-.099.581-.561.645-.684.511.453.442 1.88.424 2.566-.014.558-.009 18.031-.009 18.59h-15.279zm8.348-21.337c.468.009.916.014 1.337.016l-.661.661zm2.833.002c.641-.013.583-.005 1.144-.058l-.601.601zm2.042-.131c.426-.023.855-.014 1.199.082l-.558.559zm19.925 15.37c0 6.611-1.306 6.096-8.261 6.096h-8.61c0-.561-.005-18.006.009-18.564.129-5.124-.607-3.606-13.173-3.943-1.352-.038-2.756.224-3.529 1.336-.257-.13-.506.16-.238.428-.518 1.093-.449 2.516-.387 3.716.05.97.037.763.037 2.899-.018.053-.018.1 0 .153v13.975h-11.27c-4.683 0-5.323-2.87-5.301-7.259l.001-22.545c.122.083.228.068.313-.017l1.007-1.007.701.701c.098.098.256.098.354 0s.098-.256 0-.354l-.701-.701 1.809-1.809 1.167 1.167c.098.098.256.098.354 0s.098-.256 0-.354l-1.167-1.167 1.911-1.911.419.419-.853.853c-.098.098-.098.256 0 .354s.256.098.354 0l.853-.853.158.157c.098.098.256.098.353 0 .098-.098.098-.256 0-.354l-.157-.158 2.066-2.066c.064 0 .128-.024.177-.073s.073-.113.073-.177l.494-.494c.098-.098.098-.256 0-.354s-.256-.098-.354 0l-.442.442-.829-.829c1.001-.878.595-.52 1.918-1.699l1.059 1.059c.098.098.256.098.353 0 .098-.098.098-.256 0-.354l-.585-.586c.04-.011.083-.016.114-.047l1.882-1.882.856.856c.098.098.256.098.354 0s.098-.256 0-.353l-.856-.856.751-.751c.098-.098.098-.256 0-.354-.069-.067-.16-.071-.246-.045.108-.098.217-.2.324-.298l1.472 1.473c.098.098.256.098.353 0 .098-.098.098-.256 0-.354l-1.458-1.458c.762-.699 1.531-1.411 2.305-2.135l.421.421-1.47 1.471c-.098.098-.098.256 0 .354s.256.098.354 0l1.47-1.471.342.342c.098.098.256.098.354 0s.098-.256 0-.353l-.342-.342.752-.752c.098-.098.098-.256 0-.354s-.256-.098-.354 0l-.752.752-.41-.41c.478-.448.955-.895 1.44-1.354l1.214 1.214c.098.098.256.098.354 0s.098-.256 0-.354l-1.206-1.206c.595-.565 1.191-1.133 1.798-1.716l.421.421-.595.596c-.098.098-.098.256 0 .353.098.098.256.098.354 0l.596-.596.244.244c.098.098.256.098.354 0s.098-.256 0-.354l-.244-.244 1.294-1.294.259.259c.098.098.256.098.354 0s.098-.256 0-.354l-.259-.259.339-.339c.098-.098.098-.256 0-.354s-.256-.098-.353 0l-.339.339-.484-.484c.438-.442.906-.849 1.368-1.117l1.207 1.207c.098.098.256.098.354 0s.098-.256 0-.354l-.341-.341.444-.443c.021-.021.019-.05.031-.075 1.173.818 2.32 2.796 3.208 3.797 5.629 6.339 11.855 12.123 18.501 17.188.987.768 2.282 1.659 3.495 2.076-.002.004-.107 8.695-.107 23.963zm-28.509-45.538.478.478-1.294 1.294-.421-.421c.386-.401.803-.887 1.237-1.351zm2.202-1.696c.206-.066.408-.105.597-.076.057.01.117.041.175.061l-.394.394zm26.952 22.399c-1.174-.355-2.216-1.053-3.424-1.992-6.6-5.03-12.778-10.77-18.364-17.061-3.125-3.518-3.869-7.092-8.723-1.644-1.698 1.902-13.706 13.049-21.98 19.727-4.271 3.48-5.839.724-5.236-1.345.304-1.002.973-1.833 1.751-2.737 7.094-8.24 15.188-15.565 24.059-21.774 6.482-4.566 9.847-4.279 16.178 2.254 5.098 5.24 11.75 12.055 17.458 17.922 4.959 5.081 1.212 7.477-1.719 6.65z" fill="#f64e60" data-original="#000000" style="" class=""/><path d="m27.927 24.868c-1.302 2.3-.617 5.449 1.528 7.021 4.338 3.18 10.527-1.331 8.376-6.612-1.668-4.098-7.784-4.155-9.904-.409zm5.325-1.4c.088-.088.085-.221.014-.319.03.002.059.008.089.011-.013.077-.003.157.057.216l.318.318-.164.164-.352-.352zm.759-.2c.039.009.077.02.115.03l-.043.043zm-1.128-.138-.067.067c-.073-.009-.147.006-.204.062-.056.056-.071.13-.062.204l-.608.608-.676-.676c.502-.168 1.037-.265 1.591-.265.01-.001.018 0 .026 0zm-3.333 1.275c.182-.172.383-.324.593-.465l-.529.529zm-1.175 3.955 1.191 1.191-.482.482c-.004.004-.002.01-.006.015-.341-.509-.582-1.084-.703-1.688zm1.671 2.722c-.259-.19-.483-.418-.688-.662.027-.012.058-.011.08-.033l2.445-2.445c.098-.098.098-.256 0-.354s-.256-.098-.354 0l-1.609 1.61-1.517-1.517c-.034-.034-.079-.04-.122-.05-.035-.791.128-1.584.516-2.27.119-.21.261-.403.414-.587l.896.896-.728.728-.411-.411c-.098-.098-.256-.098-.354 0s-.098.256 0 .354l.416.416c-.084.098-.086.244.007.337.084.084.218.108.337.007l1.049 1.049c.098.098.256.098.353 0 .098-.098.098-.256 0-.354l-1.044-1.044.728-.729.482.482c.098.098.256.098.354 0s.098-.256 0-.354l-.482-.482.194-.194c.098-.098.098-.256 0-.354s-.256-.098-.354 0l-.193.193-.493-.493 1.011-1.011.611.611-.482.482c-.098.098-.098.256 0 .354s.256.098.353 0l.482-.482.488.488c.098.098.256.098.353 0 .098-.098.098-.256 0-.354l-.488-.488.564-.564.352.352-.27.271c-.098.098-.098.256 0 .354s.256.098.354 0l.27-.271.265.265c.098.098.256.098.354 0s.098-.256 0-.353l-.265-.265.164-.164.787.787c.098.098.256.098.354 0s.098-.256 0-.353l-.787-.787.137-.137c.028-.028.031-.067.043-.103 1.05.404 1.869 1.167 2.289 2.199 1.761 4.336-3.326 8.025-6.861 5.43z" fill="#f64e60" data-original="#000000" style="" class=""/><path d="m55.956 24.334.52-.52c.098-.098.098-.256 0-.354s-.256-.098-.354 0l-.52.52-1.474-1.475.434-.434c.098-.098.098-.256 0-.354s-.256-.098-.354 0l-.434.434-1.436-1.436.681-.681c.098-.098.098-.256 0-.354s-.256-.098-.354 0l-.681.681-1.855-1.855.508-.508c.098-.098.098-.256 0-.354s-.256-.098-.353 0l-.509.508-.941-.941.899-.899c.098-.098.098-.256 0-.353-.098-.098-.256-.098-.354 0l-.899.899-1.132-1.132.09-.09c.098-.098.098-.256 0-.354s-.256-.098-.353 0l-.09.09-.852-.852c-.098-.098-.256-.098-.354 0s-.098.256 0 .353l.852.852-.623.623c-.098.098-.098.256 0 .354s.256.098.354 0l.623-.623 1.142 1.142c-.071.098-.074.231.014.319.084.084.198.103.319.014l.951.951-.432.432c-.098.098-.098.256 0 .354s.256.098.354 0l.432-.432 1.855 1.855-.28.28c-.098.098-.098.256 0 .353.098.098.256.098.354 0l.28-.28 1.436 1.436-.393.397c-.098.098-.098.256 0 .354s.256.098.354 0l.395-.395 1.474 1.474-.699.699c-.098.098-.098.256 0 .354s.256.098.354 0l.699-.699 1.517 1.517c.098.098.256.098.354 0s.098-.256 0-.354z" fill="#f64e60" data-original="#000000" style="" class=""/><path d="m56.769 44.378h-.889v-1.149c0-.138-.112-.25-.25-.25s-.25.112-.25.25v1.149h-.362c-.138 0-.25.112-.25.25s.112.25.25.25h.362v1.484l-.626.627c-.098.098-.098.256 0 .354s.256.098.354 0l.273-.273v2.821h-.975c-.138 0-.25.112-.25.25s.112.25.25.25h.975v2.037h-.712c-.138 0-.25.112-.25.25s.112.25.25.25h.712v2.212h-1.325c-.138 0-.25.112-.25.25s.112.25.25.25h1.325v2.2c0 .138.112.25.25.25s.25-.112.25-.25v-2.2h.726c.138 0 .25-.112.25-.25s-.112-.25-.25-.25h-.727v-2.212h.559c.138 0 .25-.112.25-.25s-.112-.25-.25-.25h-.559v-2.038h.41c.138 0 .25-.112.25-.25s-.112-.25-.25-.25h-.41v-3.321l.362-.363c.098-.098.098-.256 0-.354s-.256-.098-.354 0l-.009.009v-.983h.889c.138 0 .25-.112.25-.25s-.111-.25-.249-.25z" fill="#f64e60" data-original="#000000" style="" class=""/><path d="m13.711 60.578c-.627.332-1.355.119-1.922-.316l.499-.795c.074-.116.039-.271-.079-.345-.115-.07-.271-.039-.344.079l-.448.714c-.395-.451-.556-.921-.67-1.539l.676-.649c.1-.096.103-.254.007-.354-.095-.101-.253-.101-.354-.008l-.421.404c-.055-.708.001-1.565.034-2.29l1.068-.53c.123-.062.174-.211.113-.335-.062-.124-.212-.172-.336-.112l-.82.407.106-2.304c.308-.115.595-.289.827-.523.097-.098.097-.256-.001-.354-.099-.096-.257-.098-.354.002-.129.13-.284.229-.447.314l.127-2.761.565.003h.001c.138 0 .25-.111.25-.249s-.111-.25-.249-.251l-.544-.003.082-1.791c.006-.139-.1-.255-.238-.262-.143-.002-.254.101-.261.238l-.083 1.812-.793-.004s0 0-.001 0c-.138 0-.25.111-.25.249s.111.25.249.251l.772.004-.135 2.936c-.197.037-.398.054-.596.023-.136-.021-.264.073-.285.209-.021.137.073.265.209.285.294.047.432.024.649-.006l-.112 2.434-.421.209c-.123.061-.174.211-.113.334.063.129.219.174.335.113l.173-.086c-.038.827-.088 1.646.026 2.47l-.777.749c-.1.096-.103.254-.007.354.092.097.25.105.353.008l.541-.519c.197.778.465 1.173.833 1.554l-.262.417c-.073.117-.038.271.079.345.123.075.274.033.345-.079l.217-.346c.885.659 1.758.683 2.419.339.122-.064.169-.216.105-.338-.063-.123-.215-.171-.337-.107z" fill="#f64e60" data-original="#000000" style="" class=""/></g></g></svg>
