<svg id="Layer_1" enable-background="new 0 0 66 66" height="512" viewBox="0 0 66 66" width="512" xmlns="http://www.w3.org/2000/svg"><g><path d="m9.238 19.667-.064.064c-.098.098-.098.256 0 .354.023.023.056.023.084.035.251 5.73.581 14.554.534 18.568l-.127 10.293c-.048 4.047 1.013 6.294 6.232 6.414 0 0 27.324-.054 33.439.006 5.769 0 7.049-1.976 6.992-6.419-.231-18.71.552-32.833.674-34.16.218-2.383-1.19-5.193-3.826-6.314.06-.096.063-.22-.021-.303-.098-.098-.256-.098-.353 0l-.118.118c-1.617-.553-3.389-.563-4.869-.563h-29.637c-2.281 0-4.578.049-6.443 1.351-.137-.002-.163.057-.206.135-1.683 1.284-2.721 3.5-2.532 5.577.025.274.123 2.181.241 4.844zm1.427 29.327.007-.528.651.651-.656.656c-.005-.254-.006-.513-.002-.779zm.041-3.328.729.729-.747.747zm.049-4.034.964.963-.988.988zm.037-2.932c.005-.4.005-.851.003-1.34l1.604 1.605-1.631 1.631zm.507-1.542-.51-.51c-.007-.693-.019-1.448-.036-2.249l.582-.582 1.615 1.615c.007.007.017.004.024.01l-1.645 1.645c-.02.02-.018.047-.03.071zm-.561-3.451c-.004-.165-.008-.332-.012-.5l.256.256zm-.156-5.294 1.136 1.137-1.065 1.065c-.021-.725-.045-1.462-.071-2.202zm.117-.59-.142-.142c-.031-.892-.064-1.782-.098-2.656.009.001.016.01.025.01.064 0 .128-.024.177-.073l.391-.39c.117.117 1.284 1.345 1.448 1.345.01 0 .018-.01.028-.012l-1.767 1.767c-.041.042-.056.096-.062.151zm-.261-3.345c-.007-.181-.014-.361-.021-.54l.281.281zm-.213-5.092.259-.259 1.234 1.234-1.391 1.392c-.035-.837-.069-1.633-.102-2.367zm-.058-1.283c-.062-1.347-.114-2.378-.146-2.937l.69-.69 1.859 1.859-2.085 2.085zm-.176-3.614c-.008-.234 0-.468.028-.704l.338.338zm40.479-3.952-1.235-1.235.263-.263c.069-.069.071-.163.043-.249.627.029 1.257.09 1.87.215v.591zm-1.589-1.589-.184-.184c.12.002.24.003.362.006zm-.84-.188c.012.033.013.069.039.095l.447.447-1.808 1.809c-.098.098-.098.256 0 .354.097.097.255.098.354 0l1.808-1.809 1.235 1.235-.22.22c-.098.098-.098.256 0 .354.097.097.255.098.354 0l1.161-1.161v1.216c0 .138.112.25.25.25s.25-.112.25-.25v-1.717l.516-.516c2.569.915 3.759 3.495 3.58 5.443-.092 1-.924 14.274-.678 34.264.049 3.771-.687 5.407-5.987 5.407-4.948-.049-33.948-.018-33.421-.006-3.194-.073-5.014-.893-5.226-3.943l.981-.981.205.205c.097.097.255.098.354 0 .098-.098.098-.256 0-.354l-.205-.205 2.172-2.172c.098-.098.098-.256 0-.354s-.256-.098-.354 0l-2.172 2.172-.996-.996.001-.058c.011.001.019.013.03.013.064 0 .128-.025.177-.073l.901-.901.409.409c.097.097.255.098.354 0 .098-.098.098-.256 0-.354l-.409-.409 2.517-2.516c.098-.098.098-.256 0-.354s-.256-.098-.354 0l-2.517 2.516-1.074-1.074.008-.669 1.35-1.35.822.821c.097.097.255.098.353 0s.098-.256 0-.354l-.822-.822 2.567-2.567c.098-.098.098-.256 0-.354s-.256-.098-.353 0l-2.567 2.567-1.121-1.121 1.801-1.802.333.333c.099.099.257.096.354 0 .098-.098.098-.256 0-.354l-.333-.333 2.521-2.521c.098-.098.098-.256 0-.354s-.256-.098-.354 0l-2.521 2.521-1.141-1.142c.023-.012.051-.01.071-.03l3.015-3.015c.098-.098.098-.256 0-.354s-.256-.098-.353 0l-1.03 1.03c-.006-.007-.003-.017-.01-.024l-1.615-1.615 2.466-2.466c.098-.098.098-.256 0-.354s-.256-.098-.354 0l-2.466 2.466-.628-.628c-.01-.387-.022-.782-.033-1.18l1.398-1.398.298.299c.097.097.255.098.354 0 .098-.098.098-.256 0-.354l-.299-.299 2.084-2.083c.098-.098.098-.256 0-.354s-.256-.098-.353 0l-2.083 2.083-1.108-1.109c.055-.006.109-.021.151-.063l3.032-3.032c.098-.098.098-.256 0-.354s-.256-.098-.353 0l-1.056 1.056c.009-.074-.005-.148-.062-.205l-1.272-1.272 1.913-1.913c.098-.098.098-.256 0-.354s-.256-.098-.354 0l-1.913 1.913-.664-.664c-.01-.26-.021-.515-.031-.769l1.717-1.717.687.687c.097.097.255.098.354 0 .098-.098.098-.256 0-.354l-.687-.687 1.008-1.008c.098-.098.098-.256 0-.354s-.256-.098-.354 0l-1.007 1.008-1.234-1.234 2.085-2.085.247.247c.097.097.255.098.354 0 .098-.098.098-.256 0-.354l-.247-.247 1.258-1.258c.098-.098.098-.256 0-.354s-.256-.098-.353 0l-1.258 1.258-1.859-1.859 2.539-2.539.781.781-1.354 1.354c-.098.098-.098.256 0 .354.097.097.255.098.354 0l1.354-1.355.802.802c.097.097.255.098.354 0 .098-.098.098-.256 0-.354l-.802-.802 1.164-1.164c.098-.098.098-.256 0-.353-.098-.098-.256-.098-.353 0l-1.164 1.164-.876-.876c-.011-.041-.016-.084-.048-.116s-.075-.037-.116-.048l-.819-.819.955-.955c.958-.297 1.986-.396 2.992-.425-.06.003-.12.023-.167.069-.098.098-.098.256 0 .354l1.752 1.752-.39.39c-.098.098-.098.256 0 .353.097.097.255.098.354 0l.39-.39.853.853c.097.097.255.098.354 0 .098-.098.098-.256 0-.354l-.853-.853 2.188-2.188h.363l1.28 1.28-.39.39c-.098.098-.098.256 0 .354.099.099.257.096.353 0l.39-.39 1.305 1.305c.097.097.255.098.354 0 .098-.098.098-.256 0-.354l-1.305-1.305 1.136-1.136c.04-.04.053-.093.06-.144h2.44l-1.557 1.557c-.098.098-.098.256 0 .353.097.097.255.098.353 0l1.865-1.865.838.838-1.128 1.128c-.098.098-.098.256 0 .353.097.097.255.098.354 0l1.128-1.128.787.787c.097.097.255.098.353 0s.098-.256 0-.354l-.787-.787.348-.348c.098-.098.098-.256 0-.354s-.256-.098-.354 0l-.348.348-.529-.529h4.965l1.28 1.28-.958.958c-.098.098-.098.256 0 .354.097.097.255.098.354 0l.958-.958.797.797c.097.097.255.098.354 0 .098-.098.098-.256 0-.354l-.797-.797.694-.694c.098-.098.098-.256 0-.354s-.256-.098-.354 0l-.694.694-.927-.926h3.49l.486.486-1.752 1.752c-.098.098-.098.256 0 .354.097.097.255.098.354 0l1.752-1.752 1.601 1.601c-.036.09-.036.191.037.264.097.097.255.098.354 0l2.381-2.381c.081-.076.079-.213.004-.311h2.667l-.87.87-.674-.674c-.098-.098-.256-.098-.353 0-.098.098-.098.256 0 .354l.674.674-1.127 1.128c-.098.098-.098.256 0 .354.097.097.255.098.354 0l1.127-1.128 1.668 1.668c.097.097.255.098.354 0 .098-.098.098-.256 0-.354l-1.668-1.668 1.223-1.224h1.441c.074 0 .15.001.225.001zm-35.515 1.039-.009-.009c.018-.011.035-.024.053-.035zm9.85-1.04h1.853l-.927.927zm18.168 2.061-1.575-1.575.275-.276c.058-.058.07-.135.059-.21h3.301zm-1.928-1.928-.132-.132h.265zm-18.017-.133-1.834 1.834-1.752-1.752c-.046-.046-.107-.067-.167-.069.452-.013.899-.013 1.332-.013zm-8.507 1.314.08.08c-.264.264-.754.607-.504.858.049.049.112.073.177.073.161 0 .566-.463.681-.577l.724.724-2.539 2.539-.589-.589c.29-1.204 1.005-2.351 1.97-3.108z"/><path d="m3.07 54.009c-.066 5.071 1.302 7.824 7.323 8.097-.159 2.031 1.45 2.918 8.332 2.918 3.865 0 7.522-.046 7.139-2.919 4.855-.007 10.184-.007 14.988 0-.178 2.391 2.075 2.92 8.333 2.92 4.099 0 7.556-.107 7.129-2.962 6.078-.496 6.659-4.06 6.607-8.054-.298-24.232.715-42.382.869-44.041 0-.001 0-.001 0-.001.273-2.981-1.461-6.201-4.124-7.655-2.37-1.29-5.254-1.29-7.572-1.29-42.313 0-42.606-.432-45.771 1.29-2.659 1.452-4.39 4.671-4.116 7.655.094 1.003 1.183 17.959.863 44.042zm21.53 9.25c-1.009 1.061-11.997 1.036-12.997-.211-.183-.225-.253-.525-.214-.913 0 0 4.455-.03 13.473-.03.096.43 0 .88-.262 1.154zm30.461 0c-.997 1.05-11.992 1.042-12.996-.208-.185-.232-.255-.549-.211-.946.274 0 13.205.026 13.473.016.09.425-.008.868-.266 1.138zm-48.258-60.068c2.861-1.557 2.554-1.168 45.292-1.168 2.319 0 4.948 0 7.094 1.168 2.291 1.251 3.841 4.125 3.606 6.685-.092 1.001-1.194 18.036-.873 44.146.048 3.687-.235 6.783-6.278 7.084-.222.013-30.132-.001-30.433-.001-6.512 0-14.227.023-14.227.023-6.069-.139-6.974-2.537-6.915-7.107.299-24.231-.711-42.477-.864-44.144-.236-2.563 1.312-5.437 3.598-6.686z"/><path d="m38.631 39.196c.146-.517.197-1.032.15-1.518l4.539-2.47c.635-.344 1.426-.773 1.962-1.473.001 0 .001-.001.002-.001.919-1.21.77-2.702-.674-2.754-.988-.025-2.831.988-3.7 1.458l-.091.049c-1.327.726-2.639 1.476-3.952 2.232-.482-.309-1.03-.543-1.61-.69-.118-2.317-.149-4.564-.177-6.936l-.006-.458c-.034-2.324-1.916-2.266-2.549-1.08-.393.784-.259 1.675-.359 8.489-.787.226-1.213.478-1.626.819-2.149-1.111-4.173-2.257-6.278-3.44-2.345-1.288-3.532 1.156-1.128 2.577 2.586 1.553 4.306 2.587 5.967 3.579-.05.581.013 1.183.182 1.758-1.943 1.229-3.864 2.352-5.892 3.532l-.436.254c-1.089.626-1.215 1.285-1.128 1.729.134.664.81 1.016 1.398 1.016h.029c.852-.033 1.4-.498 7.748-3.951.324.239.665.413 1.036.564-.101 6.609-.204 7.195.23 8.211.249.604.89 1.44 1.653 1.44.102 0 .206-.015.312-.047.309-.091.575-.305.774-.623.758-1.243.549-5.856.538-8.915.342-.128.67-.303.987-.511l4.882 2.929c1.564.942 3.63 1.589 4.456-.063.31-1.377-1.287-2.323-7.239-5.706zm2.667-5.831.089-.048c.523-.283 3.014-1.673 3.444-1.263.113.111-.038.673-.343 1.074-.406.53-1.064.887-1.644 1.202l-4.306 2.343c-.196-.476-.533-.968-.834-1.283 1.194-.686 2.389-1.365 3.594-2.025zm-7.49-7.61c.159.054.259.389.267.893l.006.456c.027 2.311.054 4.503.163 6.743-.377-.035-.762-.032-1.073-.004.067-4.614-.16-8.347.637-8.088zm-10.161 7.386c-1.167-.69-1.125-1.534.13-.844l.722.405c1.807 1.017 3.523 1.982 5.324 2.919-.207.288-.369.578-.5.926-1.315-.787-1.713-1.028-5.676-3.406zm-.42 11.727c-.214.009-.398-.113-.417-.21-.032-.165.215-.421.647-.67l.438-.255c1.96-1.141 3.82-2.223 5.759-3.441.138.266.393.659.592.898-.4.218-6.565 3.661-7.019 3.678zm10.446-10.046c.299-.001.6.023.897.074.008.002.035.007.061.012.025.005.05.009.055.01 2.165.408 3.655 2.066 2.931 4.201 0 .001-.004.03-.004.031-.021.033-.039.067-.053.104-.405 1.094-1.318 2.048-2.65 2.46-5.065 1.392-7.177-6.874-1.237-6.892zm.273 16.305c-.161.046-.57-.377-.754-.823-.407-.951-.234-2.43-.156-7.525.491.083 1.044.088 1.516.026.022 1.594.242 8.068-.606 8.322zm9.858-6.209c-1-.124-1.951-.858-6.437-3.548.294-.299.683-.825.895-1.237 1.478.841 6.814 3.68 6.635 4.546-.041.15-.621.3-1.093.239z"/><path d="m31.646 11.123 1.829-1.829c.098-.098.098-.256 0-.354s-.256-.098-.354 0l-1.829 1.829c-.098.098-.098.256 0 .353.098.099.256.1.354.001z"/></g></svg>