<?xml version="1.0"?>
<svg xmlns="http://www.w3.org/2000/svg" xmlns:xlink="http://www.w3.org/1999/xlink" xmlns:svgjs="http://svgjs.com/svgjs" version="1.1" width="512" height="512" x="0" y="0" viewBox="0 0 66 66" style="enable-background:new 0 0 512 512" xml:space="preserve" class=""><g><g xmlns="http://www.w3.org/2000/svg"><path d="m43.39 6.624c.042-3.373-1.059-4.444-4.357-4.561-29.264-1.063-26.483-.96-27.499-1.004-2.871-.132-7.675-.382-7.818 3.643-.036 1.001-1.372 58.361-.927 59.933.062.215.258.364.482.364h59.531c.285 0 .506-.235.5-.511-.137-6.307-.269-17.98-.402-24.063-.081-2.964-1.035-4.004-4.027-3.899l-.597.018c.022-.622.028-1.163.034-1.702.007-.672.014-1.345.054-2.189.014-.289-.217-.524-.499-.524-.001 0-.003 0-.003 0-.101.001-9.671.08-14.829-.018.117-8.496.236-16.994.357-25.487zm-2.139 57.375h-37.586c-.253-1.301 1.119-61.207 1.051-59.261.104-2.936 3.707-2.825 6.771-2.68l27.511 1.003c2.811.102 3.427.798 3.393 3.549-.835 58.429-.634 55.434-1.14 57.389zm17.654-26.473c2.34-.083 2.929.455 2.994 2.923.127 5.826.261 17.203.392 23.55h-19.996c.408-1.785.308-1.488.656-25.998zm-7.671-.772.372-.372.35.35zm4.863-.145 1.206-1.206c-.005.367-.014.751-.029 1.171zm1.246-3.475v.01c-.018.011-.04.008-.055.023l-1.018 1.017c-.098.098-.098.256 0 .354.097.097.255.098.354 0l.702-.702c-.007.342-.012.672-.015.995-.001.068-.002.136-.002.204-.098-.092-.251-.093-.346.003l-1.329 1.329c-.008-.051-.02-.102-.059-.141l-.848-.848.977-.977c.098-.098.098-.256 0-.354s-.256-.098-.354 0l-.977.977-.434-.434c-.098-.098-.256-.098-.354 0s-.098.256 0 .354l.434.434-.84.84c-.098.098-.098.256 0 .354.097.097.255.098.354 0l.84-.84.848.848c.035.035.081.042.125.052l-2.776.083c-.009-.046-.018-.094-.053-.129l-.556-.556 1.366-1.366c.098-.098.098-.256 0-.354s-.256-.098-.353 0l-1.367 1.366-.27-.27c-.097-.097-.255-.099-.353 0-.098.098-.098.256 0 .354l.27.27c-.099.099-.642.621-.706.746l-.398.012c.023-.012.051-.01.071-.029.098-.098.098-.256 0-.354l-.592-.592c-.098-.098-.256-.098-.353 0-.098.098-.098.256 0 .354l.592.592c.023.024.056.023.085.035l-1.735.052 2-2c.098-.098.098-.256 0-.354s-.256-.098-.354 0l-2.12 2.12-.392-.392c-.098-.098-.256-.098-.354 0s-.098.256 0 .354l.299.299-4.333.127c.018-1.297.037-2.592.055-3.889 4.473.086 12.24.039 14.324.023z" fill="#f64e60" data-original="#000000" style="" class=""/><path d="m8.09 15.259c1.746.018 3.438.201 5.22.22h.005c.22 0 .414-.144.479-.355.491-1.614.648-3.19.492-4.961-.018-.201-.154-.372-.346-.433-1.992-.636-4.076-.472-5.852-.226-.246.034-.43.241-.433.489l-.061 4.76c-.003.272.216.503.496.506zm5.225-4.67c.09 1.387-.027 2.611-.375 3.883-1.45-.033-2.861-.165-4.34-.204l.026-2.058c.012-.009.028-.006.039-.016l.759-.758.434.434-.364.365c-.098.098-.098.256 0 .353.097.097.255.098.354 0l.365-.365.148.148c.097.097.255.098.354 0 .098-.098.098-.256 0-.353l-.148-.148.689-.689c.098-.098.098-.256 0-.354s-.256-.098-.353 0l-.689.69-.434-.434.697-.696c.023-.023.022-.055.035-.083.927-.024 1.878.035 2.803.285zm-4.157-.127c-.04-.04-.093-.052-.144-.06.269-.03.537-.059.814-.078l-.404.404zm-.23-.051c-.044.01-.09.017-.124.051-.098.098-.098.256 0 .354l.266.266-.435.435.014-1.078c.091-.012.187-.018.279-.028z" fill="#f64e60" data-original="#000000" style="" class=""/><path d="m16.411 15.259c1.745.018 3.439.201 5.221.22h.005c.22 0 .414-.144.479-.355.49-1.611.646-3.188.492-4.961-.018-.201-.154-.372-.346-.433-1.994-.636-4.077-.472-5.853-.226-.245.034-.429.241-.432.489l-.061 4.76c-.004.272.215.503.495.506zm.96-4.797c-.034-.034-.079-.041-.123-.051.258-.029.518-.058.785-.078l-.396.396zm4.266.127c.091 1.389-.027 2.613-.374 3.884-1.451-.033-2.861-.165-4.34-.204l.027-2.146.687-.687.433.434-.365.365c-.098.098-.098.256 0 .353.099.099.257.096.354 0l.365-.365.148.148c.097.097.255.098.354 0 .098-.098.098-.256 0-.353l-.148-.148.69-.69c.098-.098.098-.256 0-.354-.097-.097-.255-.098-.354 0l-.69.69-.434-.434.697-.697c.022-.022.021-.053.033-.08.965-.03 1.956.024 2.917.284zm-4.678.817.009-.709c.035.134.202.271.315.385zm.147-.981c-.095.038-.096.002-.137.152l.002-.138c.044-.006.091-.008.135-.014z" fill="#f64e60" data-original="#000000" style="" class=""/><path d="m24.732 15.259c1.748.018 3.438.201 5.221.22h.005c.22 0 .414-.144.479-.355.49-1.611.646-3.188.492-4.961-.018-.201-.154-.372-.346-.433-1.994-.636-4.077-.472-5.853-.226-.245.034-.429.241-.432.489l-.062 4.76c-.003.272.217.503.496.506zm.553-4.211.034.034-.035.035zm.121-.586c-.019-.019-.045-.016-.068-.028.227-.028.463-.048.698-.07l-.364.364zm4.552.127c.091 1.389-.027 2.613-.374 3.884-1.45-.033-2.859-.165-4.34-.204l.031-2.436.398-.397.434.434-.364.365c-.098.098-.098.256 0 .353.097.097.255.098.354 0l.365-.365.148.148c.097.097.255.098.354 0 .098-.098.098-.256 0-.353l-.148-.148.689-.689c.098-.098.098-.256 0-.354s-.256-.098-.354 0l-.689.69-.434-.434.697-.696c.019-.019.017-.047.029-.07 1.052-.056 2.147-.014 3.204.272z" fill="#f64e60" data-original="#000000" style="" class=""/><path d="m33.054 15.259c1.747.018 3.438.201 5.22.22h.005c.22 0 .414-.144.479-.355.491-1.614.647-3.19.492-4.961-.017-.201-.154-.372-.346-.433-1.991-.636-4.076-.472-5.853-.226-.245.034-.429.241-.432.489l-.061 4.76c-.003.272.217.503.496.506zm.552-4.212.035.035-.036.036zm.122-.585c-.019-.019-.045-.017-.068-.028.227-.028.464-.048.698-.07l-.364.364zm4.552.127c.09 1.387-.027 2.611-.375 3.883-1.45-.033-2.86-.165-4.34-.204l.031-2.435.398-.398.433.434-.365.365c-.098.098-.098.256 0 .353.099.099.257.096.354 0l.365-.365.148.148c.097.097.255.098.354 0 .098-.098.098-.256 0-.353l-.148-.148.69-.69c.098-.098.098-.256 0-.354-.097-.097-.255-.098-.354 0l-.69.69-.434-.434.697-.697c.019-.019.017-.047.029-.07 1.055-.053 2.149-.011 3.207.275z" fill="#f64e60" data-original="#000000" style="" class=""/><path d="m38.813 18.484c-1.749-.018-3.428-.202-5.221-.22-.245.037-.418.142-.483.354-.49 1.611-.646 3.188-.492 4.962.018.201.154.372.346.433 1.896.604 3.879.498 5.853.226.245-.034.429-.241.432-.489l.062-4.76c.002-.273-.217-.503-.497-.506zm-4.831.787c.008 0 .016.001.024.001l-.012.012zm.699.032c.294.013.587.025.879.041-.03.012-.064.012-.089.037l-.69.69-.434-.434zm3.572 4.001c-1.466.183-3.11.269-4.665-.15-.067-1.032-.018-1.972.153-2.909l.254-.254.434.434-.365.365c-.098.098-.098.256 0 .354.099.099.257.096.354 0l.365-.365.148.148c.097.097.255.098.354 0 .098-.098.098-.256 0-.354l-.148-.148.69-.69c.098-.098.098-.256 0-.354-.018-.018-.044-.016-.066-.027.687.04 1.874.103 2.542.121z" fill="#f64e60" data-original="#000000" style="" class=""/><path d="m30.492 18.484c-1.75-.017-3.43-.202-5.221-.22-.236.037-.418.142-.483.354-.49 1.611-.646 3.188-.492 4.962.018.201.154.372.346.433 1.896.604 3.879.498 5.852.226.245-.034.429-.241.432-.489l.062-4.76c.003-.273-.217-.503-.496-.506zm-4.833.787c.008 0 .016.001.024.001l-.012.012zm.7.032c.294.012.587.025.879.041-.03.012-.064.012-.089.037l-.689.69-.434-.434zm3.572 4.001c-1.466.183-3.11.269-4.665-.15-.068-1.032-.019-1.973.153-2.91l.253-.253.434.434-.364.365c-.098.098-.098.256 0 .354.097.097.255.098.354 0l.365-.365.148.148c.097.097.255.098.354 0 .098-.098.098-.256 0-.354l-.148-.148.689-.69c.098-.098.098-.256 0-.354-.018-.018-.045-.016-.066-.027.718.041 1.897.104 2.544.121z" fill="#f64e60" data-original="#000000" style="" class=""/><path d="m22.17 18.484c-1.748-.017-3.43-.202-5.22-.22-.229.037-.419.142-.483.354-.491 1.614-.647 3.191-.492 4.962.017.201.154.372.346.433 1.893.603 3.877.499 5.853.226.245-.034.429-.241.432-.489l.061-4.76c.002-.273-.218-.503-.497-.506zm-4.926 1.113.04.04-.064.063c.008-.034.016-.068.024-.103zm1.067-.281c.287.014.577.024.863.04-.019.011-.043.008-.06.025l-.69.69-.434-.434zm3.299 3.988c-1.467.181-3.11.27-4.666-.15-.059-.91-.019-1.748.107-2.577l.586-.586.434.434-.365.365c-.098.098-.098.256 0 .354.099.099.257.096.354 0l.365-.365.148.148c.097.097.255.098.354 0 .098-.098.098-.256 0-.354l-.148-.148.69-.69c.098-.098.098-.256 0-.354-.008-.008-.021-.006-.03-.012.029.002.059.002.088.004.706.042 1.413.083 2.133.102z" fill="#f64e60" data-original="#000000" style="" class=""/><path d="m13.848 18.484c-1.748-.017-3.43-.202-5.22-.22-.22.037-.419.142-.483.354-.491 1.611-.648 3.188-.493 4.962.018.201.154.372.346.433 1.893.603 3.878.499 5.854.226.245-.034.429-.242.432-.489l.061-4.76c.003-.273-.217-.503-.497-.506zm-4.905 1.025.128.128-.204.204c.024-.11.048-.221.076-.332zm1.151-.188c.285.014.572.023.856.04-.016.01-.035.007-.049.02l-.689.69-.434-.434zm3.195 3.983c-1.467.182-3.111.269-4.666-.15-.057-.864-.022-1.663.088-2.45l.713-.713.434.434-.364.365c-.098.098-.098.256 0 .354.097.097.255.098.354 0l.365-.365.148.148c.097.097.255.098.354 0 .098-.098.098-.256 0-.354l-.148-.148.689-.69c.098-.098.098-.256 0-.354-.004-.004-.011-.003-.016-.007.695.041 1.391.081 2.099.1z" fill="#f64e60" data-original="#000000" style="" class=""/><path d="m8.09 33.214c1.748.018 3.43.202 5.22.22h.005c.22 0 .414-.144.479-.354.491-1.614.648-3.19.492-4.961-.018-.201-.154-.372-.346-.433-1.989-.636-4.075-.472-5.852-.227-.245.034-.429.241-.432.489l-.061 4.76c-.004.272.215.503.495.506zm4.85-.786c-1.455-.033-2.847-.165-4.34-.205l.033-2.604c.01-.007.023-.004.032-.013l.758-.758.434.434-.364.365c-.098.098-.098.256 0 .354.097.097.255.098.354 0l.365-.365.148.148c.097.097.255.098.354 0 .098-.098.098-.256 0-.354l-.148-.148.689-.69c.091-.091.088-.23.01-.328.686.025 1.376.099 2.05.281.09 1.386-.027 2.61-.375 3.883zm-2.943-4.154c.297-.017.595-.031.897-.029l-.682.683-.434-.434zm-1.056.091.129.129-.428.428.007-.528c.095-.012.196-.018.292-.029z" fill="#f64e60" data-original="#000000" style="" class=""/><path d="m16.411 33.214c1.749.018 3.428.202 5.221.22h.005c.22 0 .414-.144.479-.354.49-1.611.646-3.187.492-4.961-.018-.201-.154-.372-.346-.433-1.993-.637-4.076-.473-5.853-.227-.245.034-.429.241-.432.489l-.061 4.76c-.004.272.215.503.495.506zm.753-4.839.119.119-.317.317.005-.417c.063-.008.13-.012.193-.019zm1.939-.126-.679.679-.434-.434.216-.216c.296-.019.596-.028.897-.029zm2.159 4.179c-1.455-.033-2.847-.165-4.34-.205l.034-2.696.68-.68.434.434-.365.365c-.098.098-.098.256 0 .354.099.099.257.096.354 0l.365-.364.148.148c.097.097.255.098.354 0 .098-.098.098-.256 0-.354l-.148-.148.69-.69c.093-.093.091-.237.008-.335.722.019 1.451.096 2.161.288.09 1.388-.028 2.612-.375 3.883z" fill="#f64e60" data-original="#000000" style="" class=""/><path d="m24.732 33.214c1.75.018 3.43.202 5.221.22h.005c.22 0 .414-.144.479-.354.49-1.611.646-3.187.492-4.961-.018-.201-.154-.372-.346-.433-1.993-.637-4.076-.473-5.853-.227-.245.034-.429.241-.432.489l-.062 4.76c-.003.272.217.503.496.506zm.56-4.747.027.027-.028.028zm1.837-.208-.669.669-.434-.434.192-.192c.299-.025.603-.036.911-.043zm2.829.285c.091 1.389-.027 2.613-.374 3.884-1.454-.033-2.845-.165-4.34-.205l.038-2.986.39-.39.434.434-.364.365c-.098.098-.098.256 0 .354.097.097.255.098.354 0l.365-.365.148.148c.097.097.255.098.354 0 .098-.098.098-.256 0-.354l-.148-.148.689-.69c.095-.095.094-.247.003-.345.816.003 1.644.081 2.451.298z" fill="#f64e60" data-original="#000000" style="" class=""/><path d="m33.054 33.214c1.748.018 3.43.202 5.22.22h.005c.22 0 .414-.144.479-.354.491-1.614.647-3.19.492-4.961-.017-.201-.154-.372-.346-.433-1.989-.636-4.074-.472-5.853-.227-.245.034-.429.241-.432.489l-.061 4.76c-.003.272.217.503.496.506zm.559-4.748.028.028-.029.028zm1.838-.208-.67.669-.434-.434.192-.192c.301-.024.605-.035.912-.043zm2.829.287c.09 1.387-.027 2.611-.375 3.883-1.455-.033-2.847-.165-4.34-.205l.038-2.985.391-.391.434.434-.365.365c-.098.098-.098.256 0 .354.099.099.257.096.354 0l.365-.364.148.148c.097.097.255.098.354 0 .098-.098.098-.256 0-.354l-.148-.148.69-.69c.096-.096.095-.247.004-.346.815.003 1.643.081 2.45.299z" fill="#f64e60" data-original="#000000" style="" class=""/><path d="m38.813 36.439c-1.239-.012-2.329-.103-3.733-.172.039-.091.039-.194-.035-.269-.098-.098-.256-.098-.354 0l-.246.246c-.283-.01-.565-.023-.853-.026-.245.037-.418.142-.483.354-.49 1.611-.646 3.188-.492 4.961.018.201.154.372.346.433 1.903.607 3.895.497 5.853.226.245-.034.429-.241.432-.489l.062-4.76c.002-.27-.217-.501-.497-.504zm-3.822.834-.21.209-.23-.23c.148.007.294.014.44.021zm3.262 3.987c-1.467.182-3.109.269-4.665-.15-.084-1.289.02-2.437.312-3.611l.095-.095.434.434-.365.365c-.098.098-.098.256 0 .354.099.099.257.096.354 0l.365-.365.148.148c.097.097.255.098.354 0 .098-.098.098-.256 0-.354l-.148-.148.532-.531c.676.038 1.961.107 2.635.125z" fill="#f64e60" data-original="#000000" style="" class=""/><path d="m30.492 36.439c-1.241-.012-2.329-.103-3.734-.172.038-.091.039-.194-.035-.269-.098-.098-.256-.098-.354 0l-.246.246c-.283-.01-.565-.023-.852-.026-.236.037-.418.142-.483.354-.49 1.611-.646 3.188-.492 4.961.018.201.154.372.346.433 1.913.61 3.911.494 5.852.226.245-.034.429-.241.432-.489l.062-4.759c.002-.133-.05-.261-.143-.356-.093-.093-.22-.147-.353-.149zm-3.823.834-.209.209-.23-.23c.147.007.293.014.439.021zm3.262 3.986c-1.464.183-3.108.271-4.665-.15-.084-1.29.02-2.438.312-3.613l.094-.094.434.434-.365.365c-.098.098-.098.256 0 .354.097.097.255.098.354 0l.365-.365.148.148c.097.096.255.099.354 0 .098-.098.098-.256 0-.354l-.148-.148.531-.531c.678.039 1.959.107 2.636.125z" fill="#f64e60" data-original="#000000" style="" class=""/><path d="m22.17 36.439c-1.089-.011-1.992-.079-3.454-.156.048-.094.049-.206-.029-.284-.098-.098-.256-.098-.354 0l-.254.254c-.374-.016-.749-.03-1.13-.034-.229.037-.419.142-.483.354-.491 1.614-.647 3.19-.492 4.961.017.201.154.372.346.433 1.898.606 3.893.496 5.853.226.245-.034.429-.241.432-.489l.061-4.759c.003-.272-.217-.503-.496-.506zm-3.549.847-.197.197-.216-.216c.138.006.276.012.413.019zm2.989 3.973c-1.464.183-3.108.271-4.666-.15-.075-1.152.003-2.192.227-3.241l.466-.465.434.434-.365.365c-.098.098-.098.256 0 .354.099.099.257.096.354 0l.365-.365.148.148c.097.097.255.098.354 0 .098-.098.098-.256 0-.354l-.148-.148.519-.519c.72.042 1.692.095 2.362.112z" fill="#f64e60" data-original="#000000" style="" class=""/><path d="m13.848 36.439c-1.031-.01-1.902-.072-3.348-.151.051-.095.054-.21-.026-.29-.098-.098-.256-.098-.354 0l-.257.257c-.408-.018-.819-.033-1.235-.037-.22.037-.419.142-.483.354-.491 1.611-.648 3.187-.493 4.961.018.201.154.372.346.433 1.898.606 3.886.497 5.854.226.245-.034.429-.242.432-.489l.061-4.759c.003-.271-.217-.502-.497-.505zm-3.444.852-.192.192-.211-.211c.134.007.269.012.403.019zm2.885 3.968c-1.467.183-3.111.27-4.666-.15-.072-1.102-.007-2.1.195-3.1l.607-.607.434.434-.365.365c-.098.098-.098.256 0 .354.097.097.255.098.354 0l.365-.365.148.148c.096.096.255.099.354 0 .098-.098.098-.256 0-.354l-.148-.148.513-.514c.719.042 1.563.089 2.259.107z" fill="#f64e60" data-original="#000000" style="" class=""/><path d="m8.09 51.17c1.754.018 3.433.202 5.22.22h.005c.22 0 .414-.144.479-.354.491-1.613.648-3.19.492-4.961-.018-.201-.154-.372-.346-.433-1.993-.636-4.076-.472-5.852-.226-.245.034-.429.241-.432.489l-.061 4.76c-.004.271.215.502.495.505zm5.225-4.67c.09 1.387-.027 2.611-.375 3.883-1.454-.033-2.866-.165-4.34-.204l.031-2.397c.011-.008.025-.005.035-.014l.759-.758.434.434-.364.364c-.098.098-.098.256 0 .354.097.097.255.098.354 0l.365-.365.148.148c.097.097.255.098.354 0 .098-.098.098-.256 0-.354l-.148-.148.689-.69c.098-.098.098-.256 0-.354s-.256-.098-.353 0l-.689.69-.434-.434.434-.434c1.019-.044 2.076.002 3.1.279zm-3.891-.197-.028-.028c.021-.002.041-.004.062-.006zm-.642.033c.01.017.007.039.022.054l.266.266-.43.431.009-.737c.043-.006.09-.009.133-.014z" fill="#f64e60" data-original="#000000" style="" class=""/><path d="m16.411 51.17c1.753.018 3.434.202 5.221.22h.005c.22 0 .414-.144.479-.354.49-1.611.646-3.187.492-4.961-.018-.201-.154-.372-.346-.433-1.993-.636-4.076-.472-5.853-.226-.245.034-.429.241-.432.489l-.061 4.76c-.004.271.215.502.495.505zm.588-4.823c.009.014.006.031.018.043l.266.266-.32.32.008-.627c.01-.001.019-.001.028-.002zm.62-.062c.014-.001.026-.003.04-.004l-.022.022zm4.018.215c.091 1.389-.027 2.613-.374 3.883-1.453-.033-2.869-.165-4.34-.204l.032-2.487.683-.682.433.434-.365.364c-.098.098-.098.256 0 .354.099.099.257.096.354 0l.365-.364.148.148c.097.097.255.098.354 0 .098-.098.098-.256 0-.354l-.148-.148.69-.69c.098-.098.098-.256 0-.354-.097-.097-.255-.098-.354 0l-.69.69-.434-.434.43-.43c1.056-.054 2.154-.013 3.216.274z" fill="#f64e60" data-original="#000000" style="" class=""/><path d="m24.732 51.17c1.755.018 3.435.202 5.221.22h.005c.22 0 .414-.144.479-.354.49-1.611.646-3.187.492-4.961-.018-.201-.154-.372-.346-.433-1.993-.636-4.076-.472-5.853-.226-.245.034-.429.241-.432.489l-.062 4.76c-.003.271.217.502.496.505zm.557-4.543.03.029-.03.03zm4.669-.127c.091 1.389-.027 2.613-.374 3.883-1.454-.033-2.866-.165-4.34-.204l.035-2.777.393-.393.434.434-.364.364c-.098.098-.098.256 0 .354.097.097.255.098.354 0l.365-.365.148.148c.097.097.255.098.354 0 .098-.098.098-.256 0-.354l-.148-.148.689-.69c.098-.098.098-.256 0-.354s-.256-.098-.354 0l-.689.69-.434-.434.42-.42c1.144-.077 2.351-.048 3.511.266z" fill="#f64e60" data-original="#000000" style="" class=""/><path d="m33.054 51.17c1.754.018 3.433.202 5.22.22h.005c.22 0 .414-.144.479-.354.491-1.613.647-3.19.492-4.961-.017-.201-.154-.372-.346-.433-1.993-.636-4.076-.472-5.853-.226-.245.034-.429.241-.432.489l-.061 4.76c-.003.271.217.502.496.505zm.557-4.544.03.03-.031.031zm4.669-.126c.09 1.387-.027 2.611-.375 3.883-1.454-.033-2.866-.165-4.34-.204l.035-2.776.394-.394.433.434-.365.364c-.098.098-.098.256 0 .354.099.099.257.096.354 0l.365-.364.148.148c.097.097.255.098.354 0 .098-.098.098-.256 0-.354l-.148-.148.69-.69c.098-.098.098-.256 0-.354-.097-.097-.255-.098-.354 0l-.69.69-.434-.434.42-.42c1.147-.079 2.353-.049 3.513.265z" fill="#f64e60" data-original="#000000" style="" class=""/><path d="m38.813 54.394c-1.237-.012-2.351-.104-3.743-.172-.011-.02-.008-.045-.026-.062-.098-.098-.256-.098-.354 0l-.046.045c-.349-.014-.698-.028-1.053-.032-.245.038-.418.142-.483.354-.49 1.611-.646 3.187-.492 4.961.018.201.154.372.346.433 1.899.605 3.89.497 5.853.226.245-.034.429-.241.432-.489l.062-4.76c.002-.133-.05-.261-.143-.356-.093-.092-.22-.146-.353-.148zm-4.453.805c.278.01.553.024.829.038l-.407.407-.434-.434zm3.893 4.016c-1.462.183-3.107.272-4.665-.15-.078-1.191.008-2.261.25-3.343l.157-.157.434.434-.365.365c-.098.098-.098.256 0 .353.099.099.257.096.354 0l.365-.364.148.148c.097.097.255.098.354 0 .098-.098.098-.256 0-.354l-.148-.148.69-.69c.011-.011.008-.028.017-.041.723.042 1.796.099 2.46.117z" fill="#f64e60" data-original="#000000" style="" class=""/><path d="m30.492 54.394c-1.24-.012-2.358-.104-3.744-.172-.107-.19-.271-.17-.424-.016-.349-.014-.698-.028-1.052-.032-.236.038-.418.142-.483.354-.49 1.611-.646 3.187-.492 4.961.018.201.154.372.346.433 1.899.605 3.89.497 5.852.226.245-.034.429-.241.432-.489l.062-4.76c.002-.133-.05-.261-.143-.356-.094-.093-.221-.147-.354-.149zm-4.454.805c.278.01.554.024.829.038l-.407.407-.434-.434zm3.893 4.016c-1.462.183-3.107.272-4.665-.15-.078-1.191.008-2.262.25-3.344l.156-.156.434.434-.364.365c-.098.098-.098.256 0 .353.097.097.255.098.354 0l.365-.365.148.148c.097.097.255.098.354 0 .098-.098.098-.256 0-.354l-.148-.148c.101-.101.632-.621.706-.73.724.042 1.793.099 2.461.117z" fill="#f64e60" data-original="#000000" style="" class=""/><path d="m22.17 54.394c-1.082-.011-1.996-.079-3.451-.156-.084-.181-.246-.217-.439-.024-.44-.02-.882-.035-1.33-.04-.229.038-.419.142-.483.354-.491 1.613-.647 3.19-.492 4.961.017.201.154.372.346.433 1.899.605 3.89.497 5.853.226.245-.034.429-.241.432-.489l.061-4.76c.002-.271-.218-.502-.497-.505zm-3.351.856-.395.395-.433-.433c.277.011.553.023.828.038zm2.791 3.965c-1.466.183-3.107.271-4.666-.15-.068-1.054-.015-2.014.166-2.972l.527-.527.434.434-.365.365c-.098.098-.098.256 0 .353.099.099.257.096.354 0l.365-.364.148.148c.097.097.255.098.354 0 .098-.098.098-.256 0-.354l-.148-.148.69-.69c.008-.008.005-.019.011-.028.017.001.033.001.05.002.706.042 1.411.083 2.13.102z" fill="#f64e60" data-original="#000000" style="" class=""/><path d="m13.848 54.394c-1.026-.01-1.905-.072-3.34-.15-.012-.028-.011-.06-.034-.083-.098-.098-.256-.098-.354 0l-.059.059c-.474-.023-.95-.04-1.433-.045-.22.038-.419.142-.483.354-.491 1.61-.648 3.187-.493 4.961.018.201.154.372.346.433 1.899.605 3.891.497 5.854.226.245-.034.429-.242.432-.489l.061-4.76c.003-.272-.217-.503-.497-.506zm-4.85.787c.015 0 .03.002.045.002l.028.028-.103.104c.011-.045.018-.089.03-.134zm1.603.074-.39.39-.428-.428c.274.012.547.023.818.038zm2.688 3.96c-1.464.182-3.107.271-4.666-.15-.066-1.008-.018-1.928.144-2.842l.658-.658.434.434-.364.365c-.098.098-.098.256 0 .353.097.097.255.098.354 0l.365-.365.146.148c.097.097.255.098.354 0 .098-.098.098-.256 0-.354l-.148-.148c.099-.1.61-.603.699-.712.687.04 1.374.08 2.074.099z" fill="#f64e60" data-original="#000000" style="" class=""/><path d="m45.182 53.062c1.748.017 3.43.202 5.22.22h.005c.22 0 .414-.144.479-.354.491-1.614.647-3.19.492-4.961-.018-.201-.154-.372-.346-.433-1.989-.635-4.074-.472-5.853-.227-.245.034-.429.241-.432.489l-.061 4.76c-.003.272.217.503.496.506zm.524-2.029.334.333-.342.342zm.027-2.087.25.25-.256.257zm2.651-.834.113.113-.318.318-.442-.442c.215-.003.43.003.647.011zm-1.332.011.773.773-.166.166c-.098.098-.098.256 0 .354.097.097.255.098.354 0l.18-.18c.125.08.223.063.306-.02.085-.085.082-.209.02-.306l.331-.331.552.553c.099.099.257.097.354 0 .098-.098.098-.256 0-.354l-.618-.618c.426.048.851.119 1.27.233.09 1.387-.027 2.611-.375 3.883-1.343-.031-2.262-.127-4.007-.189l.378-.378c.121.085.231.07.316-.016.087-.087.084-.218.016-.316l.304-.304c.098-.098.098-.256 0-.354s-.256-.098-.354 0l-.293.293-.678-.678.005-.397c.092.037.161.067.265-.037l.351-.351.239.24c.099.099.257.097.354 0 .098-.098.098-.256 0-.354l-.24-.24.443-.443c.098-.098.098-.256 0-.354s-.256-.098-.354 0l-.443.443-.595-.595v-.006c.425-.051.866-.09 1.312-.117z" fill="#f64e60" data-original="#000000" style="" class=""/><path d="m53.504 53.062c1.748.017 3.43.202 5.22.22h.005c.22 0 .414-.144.479-.354.491-1.611.647-3.187.493-4.961-.017-.201-.154-.372-.346-.433-1.991-.635-4.075-.472-5.854-.227-.245.034-.429.242-.432.489l-.061 4.76c-.003.272.216.503.496.506zm1.719-4.934.146.146c-.098-.085-.245-.087-.338.006l-.285.285-.357-.357c.276-.03.551-.06.834-.08zm-.829.791-.309.309c-.023.023-.023.056-.035.085l.009-.729zm-.362 1.764.29.29-.297.297zm4.322 1.593c-1.455-.033-2.847-.165-4.34-.205l.001-.085.66-.66.005.005c.097.097.255.098.354 0 .098-.098.098-.256 0-.354l-.005-.005.54-.54c.098-.098.098-.256 0-.354-.097-.097-.255-.099-.354 0l-.54.54-.634-.634.006-.493c.012.031.012.065.037.09.097.097.255.098.354 0l.309-.309.484.484c.099.099.257.096.354 0 .098-.098.098-.256 0-.354l-.484-.484.285-.285c.093-.093.091-.24.007-.338l.641.641-.147.147c-.098.098-.098.256 0 .354.099.099.257.096.354 0l.161-.161c.124.081.224.065.308-.019.085-.085.082-.211.019-.308l.38-.38.206.206c.096.097.255.099.354 0 .098-.098.098-.256 0-.354l-.208-.208c.015-.015.013-.037.023-.054.419.048.836.119 1.248.231.088 1.391-.03 2.616-.378 3.886zm-1.709-4.167.109.108-.367.367-.478-.478c.244-.006.488-.006.736.003z" fill="#f64e60" data-original="#000000" style="" class=""/><path d="m59.262 56.287c-1.748-.017-3.43-.202-5.22-.22-.189.03-.418.142-.483.354-.491 1.614-.647 3.19-.492 4.961.018.201.154.372.346.433 1.894.604 3.888.498 5.853.227.245-.034.429-.241.432-.489l.061-4.76c.003-.272-.217-.503-.497-.506zm-1.967 1.284-.381-.381c.258.015.52.024.78.037-.032.012-.068.013-.094.039zm-1.83-.449-.37.37-.407-.407c.262.009.519.025.777.037zm-1.435 3.596c-.023-.472-.018-.928.01-1.373l.681.681zm4.673.389c-1.346.166-2.838.236-4.279-.076l.651-.651.17.17c.097.097.255.098.354 0 .098-.098.098-.256 0-.354l-.171-.17.239-.239c.098-.098.098-.256 0-.354s-.256-.098-.354 0l-.239.239-.976-.976c.051-.422.129-.842.23-1.263l.413.413-.314.314c-.098.098-.098.256 0 .354.097.097.255.098.354 0l.314-.314 1.161 1.161c.097.097.255.098.354 0 .098-.098.098-.256 0-.354l-1.161-1.161.692-.692c.01.001.021.001.031.001l.769.769-.275.275c-.098.098-.098.256 0 .354.097.096.255.099.354 0l.275-.275.478.478c.097.097.255.098.354 0 .098-.098.098-.256 0-.354l-.478-.478.305-.305c.098-.098.098-.256 0-.354-.02-.02-.049-.018-.073-.03.291.014.578.034.872.042z" fill="#f64e60" data-original="#000000" style="" class=""/><path d="m50.941 56.287c-1.75-.017-3.428-.202-5.221-.22-.002 0-.003 0-.005 0-.22 0-.414.144-.479.354-.49 1.611-.646 3.188-.492 4.961.017.201.154.372.346.433 1.903.607 3.895.497 5.853.227.245-.034.429-.241.432-.489l.062-4.76c.003-.272-.216-.503-.496-.506zm-.521 1.705-.75-.75c.253.011.503.029.759.036zm-1.492-.786.071.071-.43.431-.544-.544c.09.005.182.007.272.013.209.011.422.017.631.029zm-1.687-.079-.479.479-.526-.526c.339.009.671.03 1.005.047zm-1.525 3.83c-.031-.479-.028-.934-.009-1.383l.771.771-.636.636c-.042-.011-.085-.013-.126-.024zm.718.138.397-.397.001.001c.097.097.255.098.354 0 .098-.098.098-.256 0-.354l-.001-.001.616-.616c.098-.098.098-.256 0-.354s-.256-.098-.354 0l-.616.616-1.083-1.083c.047-.462.131-.917.237-1.374l.425.425-.386.386c-.098.098-.098.256 0 .354.099.099.257.097.354 0l.386-.386.488.488c.097.097.255.098.354 0 .098-.098.098-.256 0-.354l-.488-.488.499-.498.601.601-.01.011c-.098.098-.098.256 0 .354.097.096.255.099.354 0l.01-.011.028.028c.097.097.255.098.354 0 .098-.098.098-.256 0-.354l-.028-.028.43-.431.73.731c.086.086.214.106.333.009l-.035 2.737c-1.247.155-2.614.221-3.95-.012z" fill="#f64e60" data-original="#000000" style="" class=""/></g></g></svg>
