<?xml version="1.0" encoding="utf-8"?>
<!-- Generator: Adobe Illustrator 25.0.0, SVG Export Plug-In . SVG Version: 6.00 Build 0)  -->
<svg version="1.1" id="Layer_1" xmlns:svgjs="http://svgjs.com/svgjs"
	 xmlns="http://www.w3.org/2000/svg" xmlns:xlink="http://www.w3.org/1999/xlink" x="0px" y="0px" viewBox="0 0 512 512"
	 style="enable-background:new 0 0 512 512;" xml:space="preserve">
<style type="text/css">
	.st0{fill:#FFFFFF;}
</style>
<g>
	<g>
		<path class="st0" d="M44,444.4c-0.1,28.1,11.3,36.7,41.4,38.8c309,22,291.9,21,303.4,21c20.1,0,40.2-3.3,54.2-17.5
			c23.4-23.6,17.8-33.2,24.9-381.2c0-0.9-0.3-1.9-0.9-2.6c-28.4-33.5-97.7-82-113-92.5c-0.5-0.8-1.3-1.4-2.3-1.6
			c-0.3-0.2-0.5-0.3-0.6-0.4c-0.7-0.4-1.5-0.4-2.2-0.7L130.3,8.2c-65.9,0.1-84.8,20.5-85,83.9L44,444.4z M420.4,121.8l0.6-0.6
			c5.1-0.9,10.3-1.9,15.3-3.1l-9.9,9.9L420.4,121.8z M443.7,116.2c0,0,0-0.1,0-0.1c2.5-0.7,4.9-1.5,7.3-2.2l0.8,0.8l-6.3,6.3
			l-3.3-3.3L443.7,116.2z M460.1,111.9l-0.1,5.4l-2.6-2.6L460.1,111.9z M457.1,103.5c-26.2,9.9-90.2,23.1-105.6,0.5
			c-7.2-10.6-4.3-21.7,2.4-84.2C373.8,33.7,429.8,73.9,457.1,103.5z M392,123.8c1.2,0,2.4,0,3.6-0.1l-1.8,1.8L392,123.8z
			 M377.5,123.6l-0.3,0.3l-0.4-0.4C377,123.5,377.3,123.6,377.5,123.6z M362.4,120.6l-0.5,0.5l-1-1
			C361.4,120.3,361.9,120.5,362.4,120.6z M53,92.1c0.2-59,15.8-76,77.3-76.2l216.3-0.4c-7.2,66.6-10.7,79.3-1.5,92.9
			c1.6,2.4,3.6,4.5,5.9,6.3l-3.8,3.8c-0.8,0.8-0.8,2,0,2.7c0.8,0.8,2,0.8,2.7,0l3.3-3.3l5.9,5.9l-2,2c-0.8,0.8-0.8,2,0,2.7
			c0.8,0.8,2,0.8,2.7,0l2-2l3.2,3.2c0.8,0.8,2,0.8,2.7,0c0.8-0.8,0.8-2,0-2.7l-3.2-3.2l2-2c1.3,0.3,2.7,0.7,4.1,0.9
			c0.1,0.1,0.1,0.3,0.2,0.4l3.5,3.5l-5,5c-0.8,0.8-0.8,2,0,2.7c0.8,0.8,2,0.8,2.7,0l5-5l4.6,4.6c0.8,0.8,2,0.8,2.7,0
			c0.8-0.8,0.8-2,0-2.7l-4.6-4.6l2.8-2.8c2.4,0.1-0.7,0.1,4,0.1l5.1,5.1c0.1,0.3,0.1,0.7,0.4,0.9c0.2,0.2,0.6,0.3,0.9,0.4l7.1,7.1
			c0.8,0.8,2,0.8,2.7,0c0.8-0.8,0.8-2,0-2.7l-6.3-6.3l4.9-4.9c4.4-0.3,8.8-0.7,13.1-1.3l-7,7c-0.8,0.8-0.8,2,0,2.7
			c0.8,0.8,2,0.8,2.7,0l7.4-7.4l10,10c0.8,0.8,2,0.8,2.7,0c0.8-0.8,0.8-2,0-2.7l-1.1-1.1l10.2-10.2l3.3,3.3l-8.5,8.5
			c-0.8,0.8-0.8,2,0,2.7c0.8,0.8,2,0.8,2.7,0l8.5-8.5l2.3,2.3c0.8,0.8,2,0.8,2.7,0c0.8-0.8,0.8-2,0-2.7l-2.3-2.3l6.3-6.3l5.1,5.1
			l-18.2,18.2c-0.8,0.8-0.8,2,0,2.7c0.8,0.8,2,0.8,2.7,0l15.6-15.6l-0.3,15.6l-2.8,2.8l-5-5c-0.8-0.8-2-0.8-2.7,0
			c-0.8,0.8-0.8,2,0,2.7l5,5l-5.8,5.8c-0.8,0.8-0.8,2,0,2.7c0.8,0.8,2,0.8,2.7,0l5.8-5.8l2.5,2.5l-0.2,7.7c0,0-0.1,0-0.1,0.1
			l-6.4,6.4l-3.7-3.7c-0.8-0.8-2-0.8-2.7,0c-0.8,0.8-0.8,2,0,2.7l3.7,3.7l-2.3,2.3c-0.8,0.8-0.8,2,0,2.7c0.8,0.8,2,0.8,2.7,0
			l2.3-2.3l2.5,2.5c0.8,0.8,2,0.8,2.7,0c0.8-0.8,0.8-2,0-2.7l-2.5-2.5l3.7-3.7c-5.8,283.6-1.4,293.6-21.4,313.8
			c-23.6,23.9-42.9,16.2-351.5-5.8c-32.3-2.3-34.4-12.9-34.3-31.1L53,92.1z"/>
		<path class="st0" d="M394.5,341c-18.3-12.4-41-14.5-60.8-5.8c-15.6,7-28.3,20.8-33.7,37c-8,23.7,1.9,52,9.7,58
			c35.5,46.5,110.5,22.2,112.4-36C422.9,373,412.5,353.1,394.5,341L394.5,341z M374.8,344.7l-5.9-5.9c3.3,0.6,6.5,1.6,9.7,2.8
			c-0.4,0.1-0.8,0.1-1.1,0.4L374.8,344.7z M344.6,339.7l9.2,9.2l-6.2,6.2l-7.3-7.3c-0.1-0.1-0.1-0.3-0.2-0.4s-0.3-0.1-0.4-0.2
			l-4.2-4.2c0.5-0.2,0.9-0.5,1.4-0.7C339.4,341.2,342,340.4,344.6,339.7z M332.3,345.3l3.6,3.6l-9.1,9.1l-5.2-5.2
			c3.2-3.1,6.7-5.8,10.5-8C332.1,345,332.1,345.2,332.3,345.3L332.3,345.3z M309,413.4l7.2,7.2l-2.2,2.2
			C312,419.9,310.3,416.7,309,413.4L309,413.4z M304.7,392.7l4,4l-3.4,3.4C305,397.6,304.8,395.2,304.7,392.7L304.7,392.7z
			 M304.9,387.3c0.3-4.3,1.1-8.5,2.5-12.6c0.2-0.7,0.6-1.5,0.9-2.2l12.3,12.3l-9.1,9.1L304.9,387.3z M316.3,426.1l19.1-19.1
			c0.8-0.8,0.8-2,0-2.7c-0.8-0.8-2-0.8-2.7,0L319,417.9l-12.1-12.1c-0.1-0.1-0.3-0.1-0.4-0.2c-0.1-0.5-0.2-1-0.3-1.4
			c0.4-0.1,0.8-0.1,1.1-0.4l4.3-4.3l9.6,9.6c0.8,0.8,2,0.8,2.7,0c0.8-0.8,0.8-2,0-2.7l-9.6-9.6l9.1-9.1c0.9,0.8,2,0.6,2.6-0.1
			c0.7-0.7,0.7-1.8,0.1-2.6l4.5-4.5c0.8-0.8,0.8-2,0-2.7c-0.8-0.8-2-0.8-2.7,0l-4.5,4.5l-13.4-13.4c2.3-4.8,5.3-9.2,8.9-13.2
			l5.2,5.2l-7.6,7.6c-0.8,0.8-0.8,2,0,2.7c0.8,0.8,2,0.8,2.7,0l7.6-7.6l6.6,6.6c0.8,0.8,2,0.8,2.7,0c0.8-0.8,0.8-2,0-2.7l-6.6-6.6
			l9.1-9.1l6.2,6.2l-2.1,2.1c-0.8,0.8-0.8,2,0,2.7c0.8,0.8,2,0.8,2.7,0l11.1-11.1l4.5,4.5c0.8,0.8,2,0.8,2.7,0c0.8-0.8,0.8-2,0-2.7
			l-4.5-4.5l2.5-2.5c0.8-0.8,0.8-2,0-2.7c-0.8-0.8-2-0.8-2.7,0l-2.5,2.5l-7.5-7.5c7.1-1.3,10.4-1,15.2-0.5c-0.2,0.7-0.1,1.3,0.4,1.9
			l7.5,7.5l-2.4,2.4c-0.8,0.8-0.8,2,0,2.7c0.8,0.8,2,0.8,2.7,0l2.4-2.4l3.9,3.9c0.8,0.8,2,0.8,2.7,0c0.8-0.8,0.8-2,0-2.7l-3.9-3.9
			l2.7-2.7c0.7-0.7,0.7-1.7,0.1-2.5c3.4,1.4,6.7,3.1,9.8,5.2c15.8,10.7,24.9,28,24.2,46.5C412.7,444.2,347.9,466.3,316.3,426.1
			L316.3,426.1z"/>
		<path class="st0" d="M100,161.5c0,2.1,1.7,3.9,3.9,3.9h315.5c2.1,0,3.9-1.7,3.9-3.9s-1.7-3.9-3.9-3.9H103.9
			C101.7,157.6,100,159.3,100,161.5L100,161.5z"/>
		<path class="st0" d="M417.8,223.1c2.1,0,3.9-1.7,3.9-3.9s-1.7-3.9-3.9-3.9H100.2c-2.1,0-3.9,1.7-3.9,3.9s1.7,3.9,3.9,3.9H417.8z"
			/>
		<path class="st0" d="M94.1,274.8c0,2.1,1.7,3.9,3.9,3.9h319.5c2.1,0,3.9-1.7,3.9-3.9c0-2.1-1.7-3.9-3.9-3.9H98
			C95.8,270.9,94.1,272.6,94.1,274.8L94.1,274.8z"/>
		<path class="st0" d="M113.3,338.4c0.1,0,0.3,0,0.4,0c1.3-0.1,2.4-0.9,3-2c8.1-15.3,19.1-29.3,32-40.9c1.6-0.4,2.2-1.6,3.2-3
			c1.2-1.6,0.9-3.8-0.5-5.1c-1.5-1.3-3.7-1.4-5.2-0.1c-13.5,11.6-24.9,25.2-33.7,40.6L99,312.2c-1.4-1.6-3.9-1.8-5.5-0.4
			s-1.8,3.9-0.4,5.5l17.3,19.9C111.1,338,112.2,338.4,113.3,338.4L113.3,338.4z"/>
		<path class="st0" d="M106.3,384.8c4.5,7.9,10.4,9.3,16.9,3.1l39.7-38.2c1.5-1.5,1.6-3.9,0.1-5.5c-1.5-1.5-3.9-1.6-5.5-0.1
			l-39.7,38.2c-2.3,2.2-2.5,2.6-4.8-1.4l-7.9-13.8c-1.1-1.9-3.4-2.5-5.3-1.5c-1.9,1.1-2.5,3.4-1.5,5.3L106.3,384.8z"/>
		<path class="st0" d="M165.6,402.3c-1.1-1.9-3.5-2.5-5.3-1.4c-17.1,10-31.4,24.1-41.7,41L105,423.6c-1.3-1.7-3.7-2.1-5.4-0.8
			c-1.7,1.3-2.1,3.7-0.8,5.4l17.2,23.1c0.8,1.1,2.1,1.7,3.4,1.6c1.3-0.1,2.5-0.9,3.1-2c9.7-18,24.1-32.9,41.7-43.2
			C166,406.5,166.7,404.1,165.6,402.3L165.6,402.3z"/>
		<path class="st0" d="M240.6,321.6h-73c-2.1,0-3.9,1.7-3.9,3.9c0,2.1,1.7,3.9,3.9,3.9h73c2.1,0,3.9-1.7,3.9-3.9
			C244.5,323.3,242.8,321.6,240.6,321.6z"/>
		<path class="st0" d="M234.7,382.5h-64.4c-2.1,0-3.9,1.7-3.9,3.9s1.7,3.9,3.9,3.9h64.4c2.1,0,3.9-1.7,3.9-3.9
			S236.8,382.5,234.7,382.5z"/>
		<path class="st0" d="M229.9,438.9h-62.3c-2.1,0-3.9,1.7-3.9,3.9c0,2.1,1.7,3.9,3.9,3.9h62.3c2.1,0,3.9-1.7,3.9-3.9
			C233.8,440.6,232,438.9,229.9,438.9L229.9,438.9z"/>
		<path class="st0" d="M90.7,111l6.7-7.7c-0.5,2.9-0.8,5.9-0.8,9c0.2,7.2,2.7,13.5,7,17.7c9,8.6,21.7,6.9,43.8,6.3
			c9.1-0.3,14.1-2.8,16.5-13.9c1.8-8.5,2.5-17.2,2.1-25.9c3.1,3.2,5.5,6.1,6.6,8.3c1,1.9,3.3,2.7,5.2,1.7c1.9-1,2.7-3.3,1.7-5.2
			c-1.8-3.5-7.6-10.1-14.9-16.8V73.8c0-2.1-1.7-3.9-3.9-3.9s-3.9,1.7-3.9,3.9v4.1c-11.1-8.9-23.4-16-30.2-13.5
			c-10.2,3.7-14.5,10.1-41.8,41.6c-1.4,1.6-1.2,4.1,0.4,5.5C86.9,112.8,89.3,112.6,90.7,111z M111.1,87.5l4.4,4.4l-3.2,3.2l-4.1-4.1
			L111.1,87.5z M104.5,110.4l6,6l-4.1,4.1c-1.2-2.4-1.9-5.3-2-8.4C104.4,111.6,104.5,111,104.5,110.4z M160.2,90.7
			c-1.2,0.7-2,2.1-1.9,3.6c0.6,8.9,0,17.8-1.9,26.5c-1.6,7.2-3.2,7.7-9.2,7.8c-15.5,0.4-31.1,2.7-38.2-4.2c-0.2-0.2-0.3-0.4-0.5-0.6
			l6-6c0,0,0.1,0,0.1,0c0,0,0-0.1,0-0.1l3.5-3.5c0.8-0.8,0.8-2,0-2.7s-2-0.8-2.7,0l-2.2,2.2l-8.3-8.3c0.5-2.9,1.1-5.7,1.8-8.6
			c0.2-0.7,0.1-1.3-0.1-2l2.9,2.9l-0.1,0.1c-0.8,0.8-0.8,2,0,2.7c0.4,0.4,0.9,0.6,1.4,0.6c0.5,0,1-0.2,1.4-0.6l0.1-0.1l1.7,1.7
			c0.4,0.4,0.9,0.6,1.4,0.6s1-0.2,1.4-0.6c0.8-0.8,0.8-2,0-2.7l-1.7-1.7l3.8-3.8c0.4-0.1,0.8-0.1,1.1-0.4c0.3-0.3,0.4-0.7,0.4-1.1
			l1.3-1.3c0.8-0.8,0.8-2,0-2.7s-2-0.8-2.7,0l-0.7,0.7l-4.5-4.5c1.1-1.2,2.2-2.5,3.4-3.8l5.7,5.7c0.4,0.4,0.9,0.6,1.4,0.6
			c0.5,0,1-0.2,1.4-0.6c0.8-0.8,0.8-2,0-2.7l-1.4-1.4c0.1-0.1,0.3-0.1,0.4-0.2l5.3-5.3c0.1-0.1,0.1-0.2,0.1-0.3l4,4
			c0.4,0.4,0.9,0.6,1.4,0.6c0.5,0,1-0.2,1.4-0.6c0.8-0.8,0.8-2,0-2.7l-6.4-6.4C135.7,71.5,149.6,81.2,160.2,90.7L160.2,90.7z
			 M126.5,73.1l0.9,0.9c-0.1,0.1-0.2,0-0.3,0.1l-5.3,5.3c-0.1,0.1-0.1,0.2-0.1,0.4l-1.8-1.8C121.8,76.1,124.1,74.4,126.5,73.1z"/>
	</g>
</g>
</svg>
