<?xml version="1.0"?>
<svg xmlns="http://www.w3.org/2000/svg" xmlns:xlink="http://www.w3.org/1999/xlink" xmlns:svgjs="http://svgjs.com/svgjs" version="1.1" width="512" height="512" x="0" y="0" viewBox="0 0 66 66" style="enable-background:new 0 0 512 512" xml:space="preserve"><g><g xmlns="http://www.w3.org/2000/svg"><path d="m5.188 53.894c5.727 3.364 8.402 2.407 10.703-2.638l14-30.699c.574-1.258 1.11-2.562 1.25-3.856-.017 1.222-.026 2.589-.032 4.055-.017 3.89.067.235-.845 31.031-.107 3.612.865 5.137 4.789 5.455 2.162.175 4.439.246 6.749.188 3.501-.088 4.427-1.421 4.474-4.614l.56-39.016c.057-3.958-1.22-5.313-5.32-5.246l-4.805.086c-5.585.1-5.457 2.119-5.553 7.067-.21-3.033-2.827-4.326-5.69-5.336-4.387-1.547-7.914-1.845-10.007 2.347-.385.77-12.039 28.577-13.554 32.342-1.654 4.108-1.299 6.141 3.281 8.834zm26.076-2.079c.909-30.727.828-27.131.845-31.056.047-9.971-.559-11.027 4.62-11.12l4.805-.087c3.486-.058 4.352.818 4.303 4.231l-.56 39.016c-.04 2.712-.607 3.557-3.499 3.629-2.206.055-4.441-.007-6.643-.186-3.315-.267-3.965-1.282-3.871-4.427zm-28.43-6.382c1.81-4.495 13.213-31.646 13.521-32.268 1.78-3.563 4.705-3.292 8.78-1.851 5.425 1.914 6.051 3.997 3.847 8.827l-14 30.699c-1.95 4.276-3.871 5.374-9.286 2.191-4.177-2.454-4.312-3.993-2.862-7.598z" fill="#707070" data-original="#000000" style=""/><path d="m13.14 49.645c2.838-2.411 1.59-7.11-2.107-7.761-1.633-.288-3.432.493-4.591 1.987-1.029 1.326-1.277 2.924-.664 4.277 1.21 2.672 5.03 3.481 7.362 1.497zm-6.032-4.98.497.497-.449.449-.342-.341c-.014-.014-.035-.011-.051-.021.093-.199.211-.393.345-.584zm.708-.795.54.54-.398.398-.539-.539c.126-.142.257-.276.397-.399zm-1.014 2.094-.031.03c-.098.098-.098.256 0 .354s.256.098.354 0l.03-.03.967.967-.372.372-.963-.963c-.093-.093-.238-.091-.337-.007-.01-.314.028-.633.123-.95zm-.113 1.772c-.092-.202-.15-.412-.19-.625l.899.899-.332.332c-.149-.19-.28-.39-.377-.606zm5.804 1.147c-1.358 1.157-3.638 1.204-5.091-.17l.349-.349.212.212c.098.098.256.098.353 0 .098-.098.098-.256 0-.354l-.212-.212.486-.486c.03-.012.064-.012.088-.037.024-.024.024-.058.037-.088l.435-.435c.098-.098.098-.256 0-.354s-.256-.098-.354 0l-.32.32-.967-.967.449-.449.431.431c.098.098.256.098.353 0 .098-.098.098-.256 0-.353l-.431-.432.398-.398.61.61c.098.098.256.098.353 0 .098-.098.098-.256 0-.353l-.61-.61.144-.144c.098-.098.098-.256 0-.354s-.256-.098-.354 0l-.144.144-.498-.498c.266-.186.547-.341.835-.458.003.003.002.008.004.011l.846.846-.095.095c-.098.098-.098.256 0 .354s.256.098.354 0l.095-.095.208.208c.098.098.256.098.353 0 .098-.098.098-.256 0-.354l-.207-.207.618-.618.307.307-.302.303c-.098.098-.098.256 0 .354s.256.098.353 0l.303-.303.398.398c.098.098.256.098.354 0s.098-.256 0-.354l-.342-.342s.001-.001.001-.001c.049-.024.075-.069.098-.114 1.953 1.569 1.484 4.122.102 5.296zm-.562-5.542-.168-.168c.077.039.149.087.223.131-.011.007-.021.013-.032.02-.007.006-.016.012-.023.017zm-1.178-.481c.004.005.003.013.007.018l.108.108-.618.618-.675-.675c.264-.065.528-.102.789-.102.132 0 .261.016.389.033z" fill="#707070" data-original="#000000" style=""/><path d="m17.373 41.859c.016.001.032.002.048.002.196 0 .376-.115.456-.296 3.756-8.43 7.103-17.172 10.858-25.6.115-.258-.006-.56-.268-.667-2.767-1.13-5.887-2.377-8.716-3.532-.249-.102-.534.012-.645.257l-3.134 6.94c-.147.147-.261.216-.185.41l-8.218 18.198c-.098.215-.03.47.161.609 2.798 2.04 6.222 3.346 9.643 3.679zm-7.784-6.331.358.358-.947.946zm2.645-5.857.085.085c-.027.086-.024.179.044.247.103.103.162.071.247.044l.212.212-1.559 1.559zm1.458-3.227.939.939-1.989 1.989-.188-.188zm-3.01 6.664.306-.306 1.025 1.025c-.004.004-.011.002-.015.006l-1.698 1.699-.491-.491zm16.931-17.078c-3.629 8.191-6.879 16.637-10.5 24.795-2.948-.351-5.984-1.505-8.445-3.206.035.017.067.043.105.043.064 0 .128-.024.177-.073l1.351-1.351.313.313c.098.098.256.098.354 0s.098-.256 0-.354l-.313-.313 1.698-1.698c.08-.08.078-.195.026-.29.013-.009.03-.006.041-.017.098-.098.098-.256 0-.354l-1.078-1.078 1.835-1.836.129.129c.098.098.256.098.354 0s.098-.256 0-.354l-.129-.129.284-.284c.098-.098.098-.256 0-.353-.098-.098-.256-.098-.354 0l-.284.284-.181-.181 1.989-1.988.13.13c.098.098.256.098.353 0 .098-.098.098-.256 0-.353l-.13-.13.238-.238c.098-.098.098-.256 0-.354s-.256-.098-.354 0l-.238.238-1.072-1.072 1.269-2.81.799.799-1.529 1.529c-.098.098-.098.256 0 .354s.256.098.354 0l1.529-1.529.205.205c.098.098.256.098.354 0s.098-.256 0-.354l-1.491-1.491.146-.323 1.372-1.372.61.61c.098.098.256.098.354 0s.098-.256 0-.354l-.61-.61.393-.393c.098-.098.098-.256 0-.354s-.256-.098-.354 0l-.393.393-.3-.296.771-1.708.265-.265.865.865c.098.098.256.098.353 0 .098-.098.098-.256 0-.354l-.865-.865 1.225-1.225c.105.105.262.097.356.003.098-.098.098-.256 0-.354l-.109-.109c-.012-.034-.014-.072-.041-.099s-.065-.029-.099-.041l-.583-.583.825-1.828.367.367-.816.816c-.098.098-.098.256 0 .354s.256.098.354 0l.816-.816.467.467c.098.098.256.098.354 0s.098-.256 0-.353l-.467-.467.392-.392c3.639 1.474 4.463 1.802 6.563 2.657zm-11.213 4.417.165.165-.437.436zm2.139-4.734.343.343-.908.908zm2.007-2.544-.242.242-.5-.5.016-.036c.238.097.486.197.726.294z" fill="#707070" data-original="#000000" style=""/><path d="m38.781 44.254c-1.712.177-3.153 1.197-3.76 2.662-.554 1.337-.303 2.804.689 4.025 2.553 3.146 7.707 1.249 7.612-2.802-.057-2.431-2.09-4.132-4.541-3.885zm1.473 1.128c-.055.006-.111.02-.152.062-.046-.049-.111-.078-.179-.079-.039.004-.133.025-.181.073l-.103.103-.294-.294c.314.009.621.045.909.135zm-3.549 1.609c.098.098.256.098.354 0l.36-.36 1.026 1.026-.854.854-1.452-1.452c-.017-.017-.041-.014-.06-.025.196-.366.463-.687.788-.955l.198.198-.36.36c-.098.098-.098.256 0 .354zm.575-1.205c.175-.106.358-.2.553-.277l-.415.415zm-1.404 1.717 1.361 1.361-1.039 1.038c-.475-.769-.586-1.601-.322-2.399zm.616 2.813 1.099-1.099.429.429c.098.098.256.098.354 0s.098-.256 0-.354l-.429-.429.944-.944c.121-.029.2-.089.187-.247.029-.087.026-.181-.043-.25-.051-.051-.118-.072-.185-.07l-1.075-1.075.723-.723c.068-.069.071-.162.044-.248.046-.009.092-.016.138-.023l.611.611-.13.13c-.098.098-.098.256 0 .354s.256.098.354 0l.13-.13.593.593c.098.098.256.098.354 0s.098-.256 0-.354l-.556-.556c.023.003.044.01.068.01.135.019.271-.05.365-.144.089-.089.083-.225.009-.323 1.26.499 1.823 1.61 1.848 2.687.07 3.09-3.864 4.567-5.832 2.155z" fill="#707070" data-original="#000000" style=""/><path d="m39.266 41.379c3.441 0 5.037-1.02 4.935-5.469l-.49-21.14c-.052-2.268-.881-3.792-4.854-3.693-3.881.083-5.459 1.183-5.427 4.77 0 6.652 0 13.53.464 20.503.257 3.843 1.495 5.029 5.372 5.029zm-4.835-25.724.66.66-.659.658c.001-.002-.001-1.318-.001-1.318zm.003 2.476.6.6-.598.598c-.001-.4-.001-.799-.002-1.198zm.175 7.801-.122-.122c-.011-.701-.014-1.394-.021-2.092l1.038 1.038c.032.032.075.037.115.048l-.941.942c-.051.052-.072.119-.069.186zm.323 6.981c-.069-.038-.142-.04-.213-.007-.017-.371-.042-.744-.057-1.115l.696.696zm-.307-1.866c-.023-.608-.031-1.209-.048-1.815l.143.143v1.685c0 .054.028.098.057.139zm-.149-7.99c-.005-.003-.01-.004-.016-.007-.006-.661-.017-1.326-.02-1.983l1.013 1.013zm8.236-8.264.49 21.141c.09 3.843-1.034 4.445-3.935 4.445-2.699 0-3.959-.439-4.289-3.136.133-.005.241-.112.241-.246v-.843l.178.178c.098.098.256.098.354 0s.098-.256 0-.354l-.531-.531v-1.206c0-.138-.112-.25-.25-.25-.08 0-.143.043-.189.102-.006-.117-.012-.233-.018-.35.027-.012.057-.011.079-.033l.109-.109.53.53c.098.098.256.098.354 0s.098-.256 0-.354l-.53-.53 1.163-1.163c.098-.098.098-.256 0-.354s-.256-.098-.354 0l-.402.402-.881-.881c.041.029.085.058.139.058.138 0 .25-.112.25-.25v-1.185l.205.205c.098.098.256.098.354 0s.098-.256 0-.354l-.539-.539 1.462-1.463c.098-.098.098-.256 0-.353-.098-.098-.256-.098-.354 0l-1.463 1.463-.31-.31c-.005-.005-.013-.003-.018-.007-.017-.661-.04-1.324-.053-1.982l.84.84c.098.098.256.098.354 0s.098-.256 0-.354l-.852-.852c.003 0 .006.004.009.004.064 0 .128-.024.177-.073l1.101-1.11c.052-.081.097-.166.141-.252.036-.071.072-.142.115-.208.075-.116.041-.271-.076-.345-.115-.074-.271-.042-.345.076-.036.056-.066.115-.097.174-.007-.009-.004-.022-.013-.031l-1.011-1.011 1.964-1.964c.098-.098.098-.256 0-.353-.098-.098-.256-.098-.354 0l-.651.651-1.269-1.269c-.027-.028-.065-.029-.099-.041 0-.128 0-.253-.001-.38l.951-.951.454.454c.098.098.256.098.354 0s.098-.256 0-.354l-.454-.454.195-.195c.098-.098.098-.256 0-.354s-.256-.098-.354 0l-.195.195-.699-.699c-.071-.071-.168-.072-.256-.041 0-.014 0-.028 0-.042.051-.008.102-.02.141-.059l.87-.869.625.625c.098.098.256.098.354 0s.098-.256 0-.354l-.625-.625.429-.429c.098-.098.098-.256 0-.354s-.256-.098-.354 0l-.429.429c-.114-.114-.851-.893-1-.924.05-1.092.312-1.537.639-1.888l.616.616-.679.679c-.098.098-.098.256 0 .354s.256.098.354 0l.679-.679.636.636c.098.098.256.098.354 0s.098-.256 0-.353l-.636-.636.546-.546c.098-.098.098-.256 0-.354s-.256-.098-.354 0l-.546.546-.589-.589c.417-.286.937-.464 1.503-.573.012.025.01.054.031.075l.747.747c-.071.098-.074.231.014.319.084.084.204.105.325.012.115.101.253.08.339-.006.09-.09.088-.229.011-.327l.696-.696c.017-.017.014-.041.025-.061l.683.683c.098.098.256.098.354 0 .013-.013.01-.031.019-.046.017.003.03.019.047.019.064 0 .128-.024.177-.073l.242-.242.622.622c.098.098.256.098.354 0s.098-.256 0-.354l-.622-.62.024-.024c1.613.444 1.633 1.466 1.657 2.517zm-2.516-2.62.128.128-.236.236-.455-.455c.179.007.36.017.541.036.01.017.007.04.022.055zm-2.106.535-.546-.545c.385-.045.78-.068 1.171-.079z" fill="#707070" data-original="#000000" style=""/><path d="m59.675 8.554-4.805.086c-6.252.112-5.557 2.231-5.602 12.118-.017 3.887.067.231-.845 31.028-.106 3.612.865 5.137 4.789 5.455 2.144.174 4.421.247 6.749.188 3.493-.088 4.428-1.414 4.474-4.614l.56-39.017c.055-3.904-1.174-5.321-5.32-5.244zm4.32 5.231-.56 39.016c-.039 2.73-.625 3.557-3.5 3.629-2.205.057-4.441-.006-6.643-.186-3.314-.269-3.963-1.284-3.87-4.429.912-30.807.826-27.083.845-31.053.047-10.049-.541-11.03 4.62-11.122l4.805-.087c3.488-.057 4.351.817 4.303 4.232z" fill="#707070" data-original="#000000" style=""/><path d="m56.94 44.254c-1.415.146-2.636.874-3.363 1.947-.045.01-.092.018-.127.053-.063.063-.07.148-.051.229-.079.14-.156.283-.218.433-.554 1.337-.303 2.804.688 4.025 1.118 1.376 3.137 1.934 4.808 1.32 1.667-.613 2.846-2.347 2.804-4.123-.058-2.444-2.101-4.129-4.541-3.884zm.939 1.019-.095.095-.122-.122c.073.006.144.017.217.027zm-1.755.184-.179.179-.074-.074c.083-.036.166-.074.253-.105zm-.717.349.184.184-1.026 1.026-.201-.201c.262-.406.619-.747 1.043-1.009zm-.492 4.785 1.575-1.575c.098-.098.098-.256 0-.354s-.256-.098-.354 0l-1.557 1.557c-.705-.919-.877-1.952-.476-2.921.004-.009.009-.016.013-.025l.097.097c-.093.098-.093.252.003.348.091.091.241.103.347.002l.946.946c.098.098.256.098.354 0s.098-.256 0-.354l-.944-.944 1.026-1.026.792.792c.098.098.256.098.354 0s.098-.256 0-.354l-.792-.792.214-.214c.098-.098.098-.256 0-.354-.031-.031-.073-.035-.113-.047.185-.05.374-.09.57-.114l.461.46-.34.34c-.098.098-.098.256 0 .353.098.098.256.098.353 0l.34-.34.55.55c.098.098.256.098.354 0s.098-.256 0-.354l-.55-.55.288-.288c.011-.011.008-.028.017-.041 1.331.429 2.012 1.587 2.039 2.77.065 2.82-3.367 4.523-5.567 2.432z" fill="#707070" data-original="#000000" style=""/><path d="m57.017 11.077c-4.533.097-5.456 1.739-5.427 4.77 0 6.652 0 13.53.464 20.503.256 3.835 1.486 5.029 5.371 5.029 3.439 0 5.039-1.018 4.935-5.469l-.489-21.14c-.07-2.945-1.717-3.771-4.854-3.693zm.568 1.001c.086.002.17.002.257.005l-.126.126zm-1.28.031-.403.402-.33-.33c.241-.032.485-.057.733-.072zm-3.097 1.086.098.098-.429.429c.031-.07.05-.146.089-.212.069-.117.155-.217.242-.315zm-.481 7.631c.098.098.256.098.354 0l.126-.126.73.73-1.158 1.158v.001l-.161.161c-.007-.889-.017-1.778-.02-2.661l.257.257-.126.126c-.099.098-.099.256-.002.354zm-.083 4.706c.012.027.011.058.033.08l.1.1-.13.13c-.002-.104-.002-.206-.003-.31zm.387-.273c-.098-.098-.256-.098-.354 0-.023.023-.023.056-.035.085-.01-.645-.013-1.283-.019-1.925.018-.01.04-.008.055-.023l.277-.277 1.208 1.208-1.032 1.032zm-.353-5.795c-.023-.023-.055-.022-.083-.034-.001-.365-.001-.727-.002-1.09l.814-.814 1.133 1.133-1.334 1.334zm-.085-1.83c0-.308-.001-.618-.001-.925l.463.463zm8.278-2.841.489 21.141c.091 3.84-1.03 4.445-3.935 4.445-3.326 0-4.153-.77-4.373-4.095-.041-.616-.061-1.228-.095-1.842.121.094.241.072.325-.012l2.934-2.934c.098-.098.098-.256 0-.354s-.256-.098-.354 0l-1.397 1.397-1.133-1.133c-.098-.098-.256-.098-.354 0s-.098.256 0 .354l1.133 1.133-1.175 1.175c-.065-1.222-.129-2.442-.171-3.656l.843-.843.406.406c.098.098.256.098.354 0s.098-.256 0-.354l-.406-.406 1.703-1.703c.098-.098.098-.256 0-.354s-.256-.098-.354 0l-1.703 1.703-.378-.378c-.098-.098-.256-.098-.353 0-.098.098-.098.256 0 .354l.377.377-.508.508c-.036-1.143-.071-2.286-.091-3.421.032.014.061.04.096.04.064 0 .128-.024.177-.073l.201-.201.917.917c.098.098.256.098.353 0 .098-.098.098-.256 0-.354l-.917-.917 1.949-1.948c.098-.098.098-.256 0-.354s-.256-.098-.353 0l-.563.563-1.208-1.208 1.012-1.012c.088.03.149.06.252-.042.07-.07.072-.165.042-.252l.051-.051c.098-.098.098-.256 0-.354s-.256-.098-.354 0l-.021.021-.73-.73 1.853-1.853c.098-.098.098-.256 0-.354s-.256-.098-.354 0l-.165.165-1.133-1.133 1.075-1.075c.098-.098.098-.256 0-.353-.098-.098-.256-.098-.354 0l-1.075 1.075-.818-.818c0-.052 0-.105 0-.157 0-.001 0-.003 0-.005-.004-.374-.005-.772.035-1.16l1.034-1.034 1.491 1.491c.098.098.256.098.354 0s.098-.256 0-.353l-1.491-1.491.209-.21c.098-.098.098-.256 0-.353-.098-.098-.256-.098-.353 0l-.21.209-.08-.08c.386-.278.864-.458 1.39-.573l.578.578-.352.352c-.098.098-.098.256 0 .353.098.098.256.098.354 0l.352-.352.376.376c.098.098.256.098.354 0s.098-.256 0-.354l-.376-.376.504-.503c.076-.076.075-.183.032-.275.045-.002.091-.004.136-.005.012.026.011.057.033.078l.403.403-.453.453c-.098.098-.098.256 0 .353.098.098.256.098.354 0l.453-.453.378.378c.098.098.256.098.354 0s.098-.256 0-.353l-.378-.378.312-.312c.033-.033.039-.077.049-.119 2.427.283 2.415 1.555 2.441 2.665z" fill="#707070" data-original="#000000" style=""/></g></g></svg>
