<?xml version="1.0" encoding="utf-8"?>
<!-- Generator: Adobe Illustrator 25.0.0, SVG Export Plug-In . SVG Version: 6.00 Build 0)  -->
<svg version="1.1" id="Layer_1" xmlns:svgjs="http://svgjs.com/svgjs"
	 xmlns="http://www.w3.org/2000/svg" xmlns:xlink="http://www.w3.org/1999/xlink" x="0px" y="0px" viewBox="0 0 512 512"
	 style="enable-background:new 0 0 512 512;" xml:space="preserve">
<g>
	<g>
		<g id="XMLID_1_">
			<path d="M443.5,321.9l7.8,7.8l5.7-5.7c0.3-0.3,0.7-0.4,1.1-0.5l-8.6-8.5c-0.8-0.8-0.8-2,0-2.8c0.8-0.7,2-0.7,2.8,0l9,9.1
				c0.8,0.8,0.8,2,0,2.7c-0.3,0.4-0.8,0.5-1.2,0.5c0.3,0.8,0.3,1.6-0.2,2.2l-6.1,6.1c0.1,0.6,0,1.2-0.5,1.7
				c-0.4,0.4-0.9,0.6-1.3,0.6c-0.2,0-0.2-0.2-0.4-0.2l-5.7,5.7c-0.7,0.7-1.9,0.7-2.7,0c-0.8-0.8-0.8-2,0-2.8l5.4-5.4l-7.8-7.8
				c-0.8-0.8-0.8-2,0-2.7C441.6,321.1,442.7,321.1,443.5,321.9L443.5,321.9z"/>
			<path d="M427.4,342.7l-1.4-1.4c-0.7-0.7-0.7-1.9,0-2.7c0.8-0.8,2-0.8,2.8,0l1.3,1.3l9-8.9c0.8-0.8,2-0.8,2.7,0
				c0.8,0.8,0.8,1.9,0,2.7l-8.9,9l6,6c0.8,0.8,0.8,2,0,2.7c-0.8,0.8-2,0.8-2.8,0l-6-6l-0.9,0.9c-0.7,0.8-1.9,0.8-2.7,0
				c-0.8-0.8-0.8-1.9,0-2.7L427.4,342.7z"/>
			<path d="M351.3,361.7c0.5-0.9,1.8-1.2,2.6-0.6l3.9,2.3l7-10.1l-4.2-3.4c-0.9-0.7-1-1.9-0.3-2.7s1.9-0.9,2.7-0.3l4,3.3l8.7-12.5
				c-1.8-1.4-3.8-2.5-5.9-3.3c-1-0.4-1.5-1.6-1.1-2.6c0.4-1,1.5-1.5,2.5-1.1c2.4,0.9,4.7,2.2,6.7,3.7l7.4-10.6
				c-1.9-1.2-3.8-2.2-5.9-2.9c-1-0.4-1.6-1.5-1.2-2.5c0.3-1,1.4-1.6,2.4-1.2c2.4,0.9,4.7,2,6.8,3.5l8.5-12.2
				c0.6-0.9,1.8-1.1,2.7-0.5c0.9,0.6,1.1,1.9,0.5,2.7l-8.7,12.5c1,0.9,1.9,1.9,2.8,3c0.7,0.9,0.5,2.1-0.3,2.7
				c-0.9,0.7-2.1,0.5-2.7-0.3c-0.6-0.8-1.3-1.6-2-2.2l-7.4,10.6c1,1,2,2.1,2.9,3.3c0.6,0.9,0.5,2.1-0.4,2.7
				c-0.9,0.6-2.1,0.5-2.7-0.4c-0.6-0.9-1.3-1.6-2-2.3l-8.7,12.4l2.9,2.3c0.9,0.7,0.9,1.9,0.3,2.8c-0.7,0.8-1.9,0.9-2.8,0.2l-2.6-2.2
				l-6.7,9.6l2.1,1.3c0.9,0.5,1.2,1.8,0.7,2.6c-0.6,1-1.9,1.2-2.7,0.6l-2.2-1.4l-11,15.8c-0.6,0.9-1.9,1.1-2.7,0.5
				c-0.9-0.6-1.1-1.9-0.5-2.7l10.9-15.6l-3.6-2.2C351,363.8,350.7,362.6,351.3,361.7L351.3,361.7z"/>
			<path d="M319.4,170.7c2.2,0,3.9,1.8,3.9,3.9c0,2.2-1.7,3.9-3.9,3.9H212.2c-2.1,0-3.9-1.7-3.9-3.9c0-2.1,1.8-3.9,3.9-3.9H319.4z"
				/>
			<path d="M315.2,287.9c2.2,0,3.9,1.7,3.9,3.9c0,2.1-1.7,3.9-3.9,3.9H214c-2.2,0-3.9-1.8-3.9-3.9c0-2.2,1.7-3.9,3.9-3.9H315.2z"/>
			<path d="M309.5,335.6c2.1,0,3.9,1.7,3.9,3.9c0,2.1-1.8,3.9-3.9,3.9H199.7c-2.1,0-3.9-1.8-3.9-3.9c0-2.2,1.8-3.9,3.9-3.9H309.5z"
				/>
			<path d="M291,217.6c2.2,0,3.9,1.7,3.9,3.9c0,2.1-1.7,3.9-3.9,3.9h-88c-2.1,0-3.9-1.8-3.9-3.9c0-2.2,1.8-3.9,3.9-3.9H291z"/>
			<path d="M193.8,283.1c-4,4-54.1,54.8-58.9,57.9c-1.5,1-3.6,0.9-4.9-0.5l-31-31c-1.6-1.5-1.6-4,0-5.4c1.5-1.6,4-1.6,5.5,0
				l28.5,28.5c0.2-0.2,0.5-0.4,0.9-0.6l54.3-54.4c1.5-1.6,4-1.6,5.5,0C195.3,279.1,195.3,281.6,193.8,283.1z"/>
			<path d="M186.1,155.1c1.6-1.6,4-1.6,5.5,0c1.5,1.5,1.5,4,0,5.5l-51.9,51.9c-1.1,1.5-1.9,2.6-2.9,3.6c-0.9,1.1-1.7,2.2-3.1,4
				c-0.6,0.9-1.7,1.4-2.8,1.5c-0.1,0-0.2,0-0.2,0c-1,0-2-0.4-2.8-1.1l-29.7-29.8c-1.5-1.5-1.5-4,0-5.4c1.6-1.6,4-1.6,5.5,0
				l26.6,26.6c0.2-0.2,0.3-0.4,0.5-0.5c0.9-1.1,1.7-2.2,3.1-4L186.1,155.1z"/>
			<path d="M117.8,418.3l-6.6,6.7l6.3,6.3l8.8-8.8l-6.3-6.4L117.8,418.3L117.8,418.3z M91,423.6l8.1,8.1l6.7-6.7l-2.1-2.2
				c-0.8-0.7-0.8-1.9,0-2.7c0.7-0.8,1.9-0.8,2.7,0l2.1,2.1l5.3-5.3l-8.1-8.1L91,423.6z M72.4,422.3c-0.8,0.8-2,0.8-2.8,0
				c-0.7-0.8-0.7-2,0-2.8l6.4-6.3c-0.1-0.5,0-1.2,0.5-1.6c0.5-0.5,1-0.6,1.6-0.5l11.9-11.8c0.7-0.8,1.9-0.8,2.7,0
				c0.8,0.7,0.8,1.9,0,2.7l-11.6,11.6l7.2,7.1l14.7-14.7l-6.3-6.3c-0.8-0.8-0.8-1.9,0-2.7c0.8-0.8,2-0.8,2.7,0l6.4,6.3l7.4-7.4
				l-6.7-6.7c-0.8-0.8-0.8-1.9,0-2.7c0.8-0.8,1.9-0.8,2.7,0l6.7,6.7l7.3-7.4c0.8-0.7,2-0.7,2.8,0c0.7,0.8,0.7,2,0,2.8l-7.4,7.3
				l5.7,5.7c0.8,0.8,0.8,1.9,0,2.7c-0.8,0.8-1.9,0.8-2.7,0l-5.7-5.7l-7.4,7.4l8.1,8.1l0.8-0.8l-1.8-1.8c-0.8-0.7-0.8-1.9,0-2.7
				c0.8-0.8,2-0.8,2.7,0l1.8,1.8l6.7-6.7c0.8-0.8,1.9-0.8,2.7,0c0.8,0.8,0.8,2,0,2.8l-6.6,6.6l6.3,6.4l1.6-1.6c0.8-0.8,2-0.8,2.7,0
				c0.8,0.8,0.8,1.9,0,2.7l-13.2,13.2c0.5,0.8,0.5,1.7-0.2,2.3c-0.4,0.4-0.9,0.5-1.4,0.5c-0.3,0-0.6-0.2-0.9-0.4l-9.9,9.9
				c-0.8,0.8-1.9,0.8-2.7,0c-0.8-0.7-0.8-1.9,0-2.7l9.8-9.8l-6.3-6.3l-6.9,6.8c0.2,0.7,0.2,1.5-0.4,2c-0.3,0.4-0.9,0.5-1.3,0.5
				c-0.2,0-0.4-0.2-0.6-0.2l-6.2,6.1c-0.8,0.8-2,0.8-2.7,0c-0.8-0.7-0.8-1.9,0-2.7l6-6l-8.1-8.1l-12.6,12.6c-0.8,0.8-2,0.8-2.7,0
				c-0.8-0.7-0.8-1.9,0-2.7l12.6-12.6l-7.1-7.2L72.4,422.3z"/>
			<path d="M30.8,151.5l-9.5-9.5c-0.4,6.3-0.7,13-1,20.1L30.8,151.5z M413.9,263.5l59.4,45.4c7.4-10.2,14.9-20.5,22.3-30.7
				c4.2-5.9,3.3-14-2.1-18.8c-11-9.8-25.7-21.8-37.5-30.7c-6.7-5-15.7-3.2-20.1,3.2C429.2,241.7,421.8,252.4,413.9,263.5
				L413.9,263.5z M379.4,408.7l-10.9,10.9l3.5,3.6l10.9-10.9L379.4,408.7z M356.5,410.4c0.7-0.8,1.9-0.8,2.7,0l6.6,6.6l10.9-10.9
				l-3-3c-0.8-0.8-0.8-1.9,0-2.7c0.7-0.8,1.9-0.8,2.7,0l3,3l11.1-11.1c0.8-0.8,2-0.8,2.7,0c0.8,0.8,0.8,2,0,2.7L382.1,406l3.6,3.6
				l12.6-12.6l-4.9-4.9l-5.5-5.5c-0.7-0.7-0.7-1.9,0-2.7c0.8-0.8,2-0.8,2.8,0l10.4,10.4l7.2-7.3c0.8-0.7,1.9-0.7,2.7,0
				c0.8,0.8,0.8,2,0,2.8l-7.2,7.2l0.2,0.2c0.8,0.8,0.8,2,0,2.8c-0.8,0.7-2,0.7-2.7,0l-0.2-0.2l-12.6,12.6l2.9,3c0.8,0.8,0.8,2,0,2.7
				c-0.8,0.8-2,0.8-2.7,0l-3-2.9L374.8,426l3.6,3.6c0.8,0.7,0.8,1.9,0,2.7c-0.8,0.8-1.9,0.8-2.7,0l-3.6-3.6l-2.4,2.5
				c-0.7,0.7-1.9,0.7-2.7,0c-0.8-0.8-0.8-2,0-2.8l2.4-2.4l-3.6-3.6l-8.2,8.2l18.1,13.2l28.9-39.9c10.5-14.4,20.9-28.6,31.3-43
				l-5.1,5c0.2,0.7,0.2,1.5-0.3,2.1c-0.4,0.3-0.9,0.5-1.4,0.5c-0.2,0-0.4-0.2-0.6-0.3l-6.2,6.2c-0.8,0.8-1.9,0.8-2.7,0
				c-0.8-0.8-0.8-2,0-2.7l6-6l-4.4-4.4l-12.1,12.2l7.2,7.2c0.8,0.8,0.8,2,0,2.8c-0.7,0.8-1.9,0.7-2.7,0l-7.3-7.3l-5.7,5.7
				c-0.8,0.8-2,0.8-2.7,0c-0.8-0.8-0.8-1.9,0-2.7l5.7-5.7l-0.8-0.8c-0.7-0.8-0.7-1.9,0-2.7c0.8-0.8,2-0.8,2.8,0l0.7,0.7l12.2-12.1
				l-1.8-1.8c-0.8-0.8-0.8-2,0-2.8c0.8-0.8,2-0.7,2.7,0l8.9,8.9l5.6-5.6c0.8-0.8,2-0.8,2.7,0c0.6,0.6,0.6,1.4,0.3,2.2
				c10.7-14.8,21.4-29.6,32.2-44.5l-59.4-45.3c-28.3,39.9-65.6,91.5-93.9,130.2l38.9,28.2l8.7-8.7l-6.6-6.6
				C355.7,412.3,355.7,411.1,356.5,410.4L356.5,410.4z M303.9,466c22.9-4.3,45-9.1,65.4-17.2l-56.6-41.1L303.9,466z M93.9,78.7
				l7-7.1c-2.8,0.2-5.7,0.2-8.5,0.4c-0.9,0-1.7,0.1-2.6,0.1c0.3,0.1,0.7,0.2,0.9,0.5c0.8,0.7,0.8,1.9,0,2.7l-0.2,0.2L93.9,78.7z
				 M88,72.8l0.2-0.2c0.2-0.2,0.5-0.2,0.9-0.3c-0.5,0-1,0.1-1.5,0.1L88,72.8z M82.3,72.6c-7.3,0.5-14.6,1.2-21.7,2.6l12.5,12.4
				l12.1-12.2L82.3,72.6z M43.8,87.7l-5.4-5.3c0-0.1,0-0.1,0-0.1c-3.6,1.9-6.9,3.9-9.9,6.4c-0.4,0.5-0.8,1.3-1.2,2.4l6.4,6.4
				L43.8,87.7z M282.4,102.6l-5,5l6.5,6.4c0.2,0.3,0.3,0.7,0.4,1.1h4.7c5.6,0,11.9-0.3,14.2-4c2.1-3.3,0.5-7-1.7-10.1
				c-0.1,0.2,0,0.3-0.2,0.4L289.7,113c-0.4,0.3-0.9,0.5-1.4,0.5c-0.5,0-1-0.2-1.4-0.5c-0.7-0.8-0.7-2,0-2.8l1.5-1.5L282.4,102.6z
				 M270.5,114.5c-0.4,0.3-0.9,0.5-1.3,0.5l10.2,0.1l-4.7-4.8L270.5,114.5z M251.6,106.6l-8.3,8.2c0,0,0,0-0.1,0.1L260,115
				L251.6,106.6z M239,114.8l-8.6-8.5l-8.2,8.2c-0.2,0.2-0.3,0.2-0.5,0.2L239,114.8z M216.7,114.7l-9.1-9.1l-6.7,6.7l2.2,2.2
				L216.7,114.7z M177.8,56.3c-0.4-16,9.5-31,23.9-36.3c15.2-5.7,33.4,0.6,41.6,14.2c4.8,7.8,5.7,18.1,2.6,27.2
				c1.2,0.3,2.3,0.7,3.5,1.1c122.1,2.9,132.7,7.4,143.2,14.2c3.9,2.4,13.9,8.8,17.7,178.6c6.9-9.7,13.4-19.1,19.4-27.8
				c7.1-10.2,21.2-12.4,31.1-5c11.9,9,26.8,21.3,38,31.2c4.8,4.3,7.3,10.2,7.3,16.3c0,4.4-1.3,8.9-4.1,12.8
				c-30.1,41.6-60.3,83.2-90.5,124.7c0,5.9-0.1,9.9-0.2,11.5c-0.9,19.6-3,40-19.3,54.1c-17.1,15-44.3,17.5-68.3,18.6
				c-35.3,1.6-70.4,2.4-105.3,2.4c-52.2,0-103.8-1.8-154.2-5.3c-14.7-1-28.7-2.4-39.9-9.4c-2.4-1.6-7-4.4-10.6-48.1
				c-3.6-45.8-5-139.8-3-218.7l-4.3-4.3c-0.7-0.7-0.7-1.9,0-2.7c0.8-0.8,2-0.8,2.8,0l1.6,1.6c0.2-7.5,0.5-14.9,0.7-22.1l-0.6-0.6
				c-0.8-0.8-0.8-2,0-2.7c0.2-0.2,0.5-0.2,0.8-0.4c0.2-6.3,0.5-12.5,0.9-18.4l-0.2-0.2c-0.8-0.8-0.8-1.9,0-2.7
				c0.1-0.1,0.2-0.1,0.3-0.2c2.2-41.9,5.7-72.5,10.8-77C41,67.7,68.1,65.3,92.1,64.3c19.3-0.9,38.9-1.6,60.2-2
				C160.5,59.3,168.9,57.6,177.8,56.3L177.8,56.3z M288.8,123c-133.2-0.9-118.1-1.1-129.1-0.2c-0.1,0-0.2,0-0.4,0
				c-22,1.7-48.7,3.1-46.7-18.9c1.1-11.6,11.6-25.7,22.7-33.2c0.2-0.1,0.2-0.2,0.3-0.2c-9.9,0.3-19.4,0.6-28.8,1l5,5l4.7-4.6
				c0.7-0.8,1.9-0.8,2.7,0c0.8,0.7,0.8,1.9,0,2.7l-4.6,4.6l0.2,0.2c0.8,0.7,0.8,1.9,0,2.7c-0.8,0.8-1.9,0.9-3-0.3
				c-0.3,0.2-0.6,0.5-1,0.5c-0.5,0-1-0.2-1.4-0.6c-0.6-0.6-0.6-1.6-0.2-2.3l-5.1-5.2l-7.4,7.3l0.9,0.9c0.7,0.8,0.7,2,0,2.8
				c-0.8,0.8-2,0.8-2.8,0L88,78.3L74.8,91.4c-0.7,0.8-2,0.9-2.9-0.3h-0.1c-0.5,0-1-0.2-1.4-0.5l-14-14c-0.1-0.1-0.1-0.2-0.2-0.4
				c-4.9,1.2-9.7,2.6-14.1,4.5l4.5,4.5l1.8-1.9c0.8-0.8,2-0.8,2.7,0c0.8,0.8,0.8,2,0,2.8l-1.8,1.8l8.3,8.3c0.8,0.7,0.8,1.9,0,2.7
				c-0.8,0.8-2,0.8-2.7,0l-8.3-8.3l-9.9,9.9l6.7,6.7c0.7,0.7,0.7,1.9,0,2.7c-0.8,0.8-2,0.8-2.8,0l-6.6-6.6l-3.9,3.8
				c-0.8,0.8-2,0.8-2.7,0c-0.8-0.8-0.8-2,0-2.7l3.8-3.9l-5-5c-1,4.4-1.9,10.7-2.7,18.6l8.5,8.5l13.3-13.2c0.7-0.8,1.9-0.8,2.7,0
				c0.8,0.8,0.8,2,0,2.7l-13.2,13.3l9.9,9.9c0.8,0.8,0.8,2,0,2.7c-0.8,0.8-2,0.8-2.7,0l-10-9.9l-5,5c-0.7,0.8-1.9,0.8-2.7,0
				c-0.8-0.8-0.8-2,0-2.7l5-5l-6.4-6.4c-0.5,5.4-0.9,11.3-1.3,17.8l11.9,11.9l7.3-7.3c1.8-1.8,4.5,0.9,2.7,2.7l-8.3,8.3
				c-0.1,0.2,0,0.4-0.2,0.5c-0.2,0.2-0.3,0.2-0.5,0.2l-13.2,13.2l8,8c0.8,0.8,0.8,2,0,2.8c-0.8,0.8-2,0.7-2.7,0l-6.7-6.7
				c-0.2,5.5-0.5,11.2-0.6,17l2.3,2.3l16.2-16.2c0.7-0.8,1.9-0.8,2.7,0c0.8,0.8,0.8,2,0,2.8l-16.2,16.1l3.5,3.5c0.8,0.8,0.8,2,0,2.8
				s-1.9,0.7-2.7,0l-3.5-3.5l-2.6,2.6c-0.2,5.6-0.3,11.3-0.4,17.1l1.2,1.2l14.3-14.3c0.8-0.8,1.9-0.8,2.7,0c0.8,0.8,0.8,1.9,0,2.7
				l-14.3,14.3l2.5,2.6c0.8,0.7,0.8,1.9,0,2.7c-0.7,0.8-1.9,0.8-2.7,0l-2.5-2.5l-1.3,1.3c-1.9,107.3,1.4,241,10.2,249.9
				c9.4,5.9,22.4,7.2,36.1,8.1c83.8,5.8,170.8,6.8,258.7,2.9c22.7-1.1,48.3-3.3,63.5-16.8c14-12.2,15.8-29.9,16.7-48.7
				c0,0,0-0.1,0-0.2l-22.7,31.4c0,1.9-1,3.1-2.9,3.6c-0.3,0.2-0.5,0.5-0.9,0.6c-24,10.4-50.3,15.7-77.3,20.6
				c-2.7,0.5-4.9-1.8-4.5-4.4l10.3-69.1c0.1-0.6,0.4-1.2,0.7-1.8c5.7-7.8,53.8-73.5,96.3-133.5C399.6,105.3,391,85.4,388.4,83.1
				C378.8,77,368.5,74,271,70.8c0.6,0.2,1.2,0.6,1.8,0.9c7.8,3.7,18.2,9.8,26.1,15.7c9.6,7.1,16.7,18.5,10.8,27.7v0.1
				C304.6,123.1,293.9,123,288.8,123L288.8,123L288.8,123z M179,113.8l-0.6,0.6h1.2L179,113.8z M179,108.4l13-13
				c0.8-0.8,2-0.8,2.7,0c0.8,0.8,0.8,2,0,2.8l-13,13l1.8,1.8c0.5,0.5,0.5,1,0.5,1.6l9.6,0.1c0.1-0.2,0.1-0.4,0.2-0.5l1.6-1.6
				l-5.4-5.4c-0.8-0.7-0.8-1.9,0-2.7c0.8-0.8,1.9-0.8,2.7,0l5.4,5.4l16.3-16.3c0.8-0.8,2-0.8,2.8,0c0.7,0.7,0.7,1.9,0,2.7l-6.9,6.8
				l9,8.9l8.3-8.3l-1.9-1.9c-0.8-0.8-0.8-1.9,0-2.7c0.7-0.8,1.9-0.8,2.7,0l1.9,1.9l10.9-10.9c0.8-0.8,2-0.8,2.7,0
				c0.8,0.7,0.8,1.9,0,2.7l-10.9,10.9l8,8l7.7-7.7l-5.7-5.7c-0.7-0.7-0.7-1.9,0-2.7c0.8-0.8,2-0.8,2.8,0l5.7,5.7L269.7,83
				c0.7-0.8,1.9-0.8,2.7,0c0.8,0.8,0.8,1.9,0,2.7l-18.1,18.1l11.2,11.2l3.5,0.1c-0.5-0.1-0.9-0.2-1.2-0.5c-0.8-0.8-0.8-2,0-2.7
				l4.1-4.2l-8.5-8.5c-0.8-0.8-0.8-2,0-2.8c0.8-0.8,1.9-0.8,2.7,0l8.6,8.6l5-5l-5.9-5.9c-0.8-0.7-0.8-1.9,0-2.7c0.8-0.8,2-0.8,2.8,0
				l5.8,5.9l4.4-4.3c0.8-0.8,2-0.8,2.7,0c0.8,0.7,0.8,1.9,0,2.7l-4.3,4.3l6.1,6.1c0.9-0.9,7.1-7.3,8.1-7.7c-1.6-1.7-3.2-3.2-5-4.6
				c-15.6-11.6-33.5-20.5-54.6-26c-1.1-0.3-2-1.1-2.6-2.2c-0.5-1.1-0.5-2.3,0.1-3.3c3.9-7.7,3.7-17.1-0.5-24
				C230.5,27.9,216,23,204.4,27.3c-11.5,4.2-19.5,16.8-18.9,29.5c0.3,3.4,0.7,6.4-3.2,6.8c-8.4,0.8-19.4,2.9-28.2,6.2
				c-23.9,8.7-33.1,26.5-33.8,34.8c-1.2,12.4,14,12.3,38.7,10.4c9.2-0.7,9.9-0.6,13.8-0.5l3.3-3.3l-0.9-1c-0.8-0.7-0.8-1.9,0-2.7
				c0.7-0.8,1.9-0.8,2.7,0L179,108.4z"/>
		</g>
	</g>
</g>
</svg>
