<?xml version="1.0"?>
<svg xmlns="http://www.w3.org/2000/svg" xmlns:xlink="http://www.w3.org/1999/xlink" xmlns:svgjs="http://svgjs.com/svgjs" version="1.1" width="512" height="512" x="0" y="0" viewBox="0 0 250 250" style="enable-background:new 0 0 512 512" xml:space="preserve" class=""><g><path xmlns="http://www.w3.org/2000/svg" d="m135.06 143.43c3.5 1.88 23.63 15.89 16 17.9-5.92-.57-14.91-13.7-16-17.9z" fill="#ffffff" data-original="#000000" style="" class=""/><path xmlns="http://www.w3.org/2000/svg" d="m199.41 205.37c-9.31 15.62-29-12-35.39-18.8-5.11-8.45-14.55-11.45-15.19-20.12 7.35-19.06 17.59-6.64 26.1 1.54 9.07 9.54 32.77 30.39 24.48 37.38zm-.41-.37c5.13-6.24-4.12-10.13-8.64-14.07a166.89 166.89 0 0 1 -16.88-15.4c-7.71-6.09-11.45-17.62-18.05-12.92-2.58 2.42-5 3.06-3.67 7.47 5.37 7.49 13.25 12.48 20.22 18.64 14.87 10.93 16.64 27.99 27.02 16.28z" fill="#ffffff" data-original="#000000" style="" class=""/><path xmlns="http://www.w3.org/2000/svg" d="m54.84 63.63c13.25-19.19 55.92-20.36 67.88.22-27.43-18.41-42.53-17.05-67.88-.22z" fill="#ffffff" data-original="#000000" style="" class=""/><path xmlns="http://www.w3.org/2000/svg" d="m153 86c1.25 5.89 4.69 14 .3 20.09-1.75-5.24-.44-14.35-.3-20.09z" fill="#ffffff" data-original="#000000" style="" class=""/><path xmlns="http://www.w3.org/2000/svg" d="m151.54 116.08c-22.44 78.19-125.73 56.02-129.33-18.08-.88-76.35 100.69-93.6 126.93-26.24.32.91.49 1.47.91 2.75 0 .37.95 2.13-.15 1.59a66.32 66.32 0 0 0 -44.63-38.43c-42.79-10.55-81.16 23.12-79.66 64.53 6.2 74.34 102.47 74.62 125.93 13.88z" fill="#ffffff" data-original="#000000" style="" class=""/></g></svg>
